%TF.GenerationSoftware,KiCad,Pcbnew,(6.0.0)*%
%TF.CreationDate,2022-01-21T14:37:34-08:00*%
%TF.ProjectId,PCB-side-name,5043422d-7369-4646-952d-6e616d652e6b,rev?*%
%TF.SameCoordinates,Original*%
%TF.FileFunction,Profile,NP*%
%FSLAX46Y46*%
G04 Gerber Fmt 4.6, Leading zero omitted, Abs format (unit mm)*
G04 Created by KiCad (PCBNEW (6.0.0)) date 2022-01-21 14:37:34*
%MOMM*%
%LPD*%
G01*
G04 APERTURE LIST*
%TA.AperFunction,Profile*%
%ADD10C,0.100000*%
%TD*%
G04 APERTURE END LIST*
D10*
%TO.C,Ref\u002A\u002A*%
X105573900Y-44536900D02*
X105573900Y-44536900D01*
X105405100Y-80278800D02*
X105573900Y-80261900D01*
X181469000Y-43947800D02*
X181391000Y-43643500D01*
X132375000Y-117319000D02*
X132297600Y-117176000D01*
X181284000Y-43351800D02*
X181150000Y-43074300D01*
X169431000Y-81112400D02*
X169414000Y-81285700D01*
X132744100Y-116052000D02*
X132901400Y-116004000D01*
X160566500Y-115987000D02*
X160566500Y-115987000D01*
X160566500Y-80261900D02*
X160566500Y-80261900D01*
X113769100Y-117671000D02*
X113600300Y-117688000D01*
X168593000Y-44536900D02*
X168762000Y-44554000D01*
X114193000Y-81716000D02*
X114068900Y-81819500D01*
X94864300Y-127020000D02*
X95168500Y-127098000D01*
X141565200Y-117544000D02*
X141422700Y-117622000D01*
X180603000Y-42342600D02*
X180378000Y-42137700D01*
X169431000Y-45387400D02*
X169414000Y-45560700D01*
X168593000Y-46238000D02*
X160566500Y-46238000D01*
X94033200Y-41954900D02*
X93788800Y-42137700D01*
X168919000Y-46172400D02*
X168762000Y-46221200D01*
X113600300Y-80261900D02*
X113769100Y-80279000D01*
X105573900Y-117688000D02*
X105405100Y-117671000D01*
X169365000Y-81446300D02*
X169288000Y-81590700D01*
X141689300Y-45991000D02*
X141565200Y-46094500D01*
X132232000Y-116850000D02*
X132232000Y-116825000D01*
X114193000Y-116234000D02*
X114295400Y-116359000D01*
X169061000Y-46094500D02*
X168919000Y-46172400D01*
X133070200Y-46238000D02*
X132901400Y-46221100D01*
X132477500Y-116232000D02*
X132601600Y-116130000D01*
X141917900Y-117011000D02*
X141869200Y-117171000D01*
X105105300Y-81820000D02*
X104981200Y-81717600D01*
X106015500Y-125925000D02*
X106249900Y-125575000D01*
X132375100Y-45868700D02*
X132297600Y-45726400D01*
X114372800Y-45054100D02*
X114421500Y-45214500D01*
X159728400Y-81124900D02*
X159728400Y-81100100D01*
X168762000Y-116004000D02*
X168919000Y-116053000D01*
X167917000Y-125575000D02*
X168151000Y-125925000D01*
X103920900Y-127135000D02*
X104328700Y-127053000D01*
X105105300Y-44679900D02*
X105247800Y-44602500D01*
X181284000Y-125224000D02*
X181391000Y-124932000D01*
X169288000Y-45865700D02*
X169186000Y-45991000D01*
X169448000Y-126919000D02*
X169838000Y-127053000D01*
X165574000Y-121738000D02*
X165849000Y-122050000D01*
X105573900Y-46238000D02*
X105405100Y-46221100D01*
X160566500Y-117688000D02*
X160397700Y-117671000D01*
X178358000Y-127163000D02*
X178683000Y-127146000D01*
X105247800Y-117622000D02*
X105105300Y-117545000D01*
X160240400Y-80327500D02*
X160397700Y-80278800D01*
X141565200Y-46094500D02*
X141422700Y-46172400D01*
X141869200Y-45054100D02*
X141917900Y-45214500D01*
X113600300Y-46238000D02*
X105573900Y-46238000D01*
X159973800Y-117443000D02*
X159871400Y-117319000D01*
X105573900Y-80261900D02*
X105573900Y-80261900D01*
X114295500Y-117316000D02*
X114193000Y-117441000D01*
X160098000Y-116130000D02*
X160240400Y-116052000D01*
X160566500Y-44536900D02*
X160566500Y-44536900D01*
X114421600Y-80939500D02*
X114438500Y-81112400D01*
X159728300Y-45375100D02*
X159745200Y-45206000D01*
X159973800Y-116232000D02*
X160098000Y-116130000D01*
X163754700Y-120841000D02*
X164162600Y-120923000D01*
X105105300Y-46095000D02*
X104981200Y-45992600D01*
X141934800Y-45387400D02*
X141917900Y-45560700D01*
X178683000Y-41429100D02*
X178358000Y-41412700D01*
X105247800Y-46172400D02*
X105105300Y-46095000D01*
X114295500Y-80634500D02*
X114372900Y-80779100D01*
X169061000Y-81819500D02*
X168919000Y-81897400D01*
X159745300Y-116656000D02*
X159794000Y-116498000D01*
X104752600Y-80931000D02*
X104801300Y-80773500D01*
X141869200Y-116504000D02*
X141917900Y-116664000D01*
X160397700Y-80278800D02*
X160566500Y-80261900D01*
X104878700Y-116356000D02*
X104981200Y-116232000D01*
X113926400Y-46172400D02*
X113769100Y-46221200D01*
X92776100Y-124932000D02*
X92882900Y-125224000D01*
X104981200Y-80507300D02*
X105105300Y-80404900D01*
X95483800Y-41429100D02*
X95168500Y-41477200D01*
X133070200Y-44536900D02*
X141096600Y-44536900D01*
X178683000Y-127146000D02*
X178998000Y-127098000D01*
X168593000Y-81963000D02*
X160566500Y-81963000D01*
X159728300Y-45399900D02*
X159728300Y-45375100D01*
X141422700Y-44603000D02*
X141565200Y-44680700D01*
X133070200Y-115987000D02*
X133070200Y-115987000D01*
X114193000Y-80508900D02*
X114295500Y-80634500D01*
X141917900Y-116664000D02*
X141934800Y-116837000D01*
X132477500Y-44782300D02*
X132601600Y-44679900D01*
X132601600Y-116130000D02*
X132744100Y-116052000D01*
X160240400Y-44602500D02*
X160397700Y-44553800D01*
X132744100Y-44602500D02*
X132901400Y-44553800D01*
X108592400Y-121738000D02*
X108903200Y-121466000D01*
X93016600Y-43074300D02*
X92882900Y-43351800D01*
X105573900Y-80261900D02*
X105573900Y-80261900D01*
X141265400Y-44554000D02*
X141422700Y-44603000D01*
X170666000Y-127163000D02*
X170666000Y-127163000D01*
X104801300Y-45048500D02*
X104878700Y-44906200D01*
X159871300Y-116356000D02*
X159973800Y-116232000D01*
X169365000Y-45054100D02*
X169414000Y-45214500D01*
X160397700Y-44553800D02*
X160566500Y-44536900D01*
X114438400Y-116837000D02*
X114421500Y-117011000D01*
X93016600Y-125501000D02*
X93175600Y-125763000D01*
X104735700Y-45375100D02*
X104752600Y-45206000D01*
X113769100Y-81946200D02*
X113600300Y-81963000D01*
X93788800Y-42137700D02*
X93563300Y-42342600D01*
X104752600Y-117019000D02*
X104735700Y-116850000D01*
X132297600Y-45726400D02*
X132248900Y-45568900D01*
X106249900Y-125575000D02*
X108083000Y-122400000D01*
X169061000Y-117544000D02*
X168919000Y-117622000D01*
X159745200Y-45206000D02*
X159793900Y-45048500D01*
X160566500Y-46238000D02*
X160397700Y-46221100D01*
X104328700Y-127053000D02*
X104719200Y-126919000D01*
X114372900Y-81446300D02*
X114295500Y-81590700D01*
X104735700Y-116825000D02*
X104752600Y-116656000D01*
X141689300Y-116234000D02*
X141791800Y-116359000D01*
X169365000Y-116504000D02*
X169414000Y-116664000D01*
X93358400Y-126007000D02*
X93563300Y-126233000D01*
X169186000Y-44783900D02*
X169288000Y-44909500D01*
X104981200Y-81717600D02*
X104878700Y-81593700D01*
X114421600Y-81285700D02*
X114372900Y-81446300D01*
X104801300Y-117176000D02*
X104752600Y-117019000D01*
X160098000Y-46095000D02*
X159973800Y-45992600D01*
X159794000Y-116498000D02*
X159871300Y-116356000D01*
X160397700Y-117671000D02*
X160240400Y-117622000D01*
X104981200Y-45992600D02*
X104878700Y-45868700D01*
X181391000Y-43643500D02*
X181284000Y-43351800D01*
X181533000Y-123988000D02*
X181533000Y-44587700D01*
X168426000Y-126238000D02*
X168737000Y-126509000D01*
X92776100Y-43643500D02*
X92697900Y-43947800D01*
X105405100Y-81946100D02*
X105247800Y-81897400D01*
X168151000Y-125925000D02*
X168426000Y-126238000D01*
X108903200Y-121466000D02*
X109245200Y-121238000D01*
X168593000Y-115987000D02*
X168762000Y-116004000D01*
X169061000Y-44680700D02*
X169186000Y-44783900D01*
X94572500Y-41662200D02*
X94295000Y-41795900D01*
X141565200Y-116131000D02*
X141689300Y-116234000D01*
X104735700Y-116850000D02*
X104735700Y-116825000D01*
X132477500Y-117443000D02*
X132375000Y-117319000D01*
X104981200Y-117443000D02*
X104878700Y-117319000D01*
X114068900Y-117544000D02*
X113926400Y-117622000D01*
X133070200Y-115987000D02*
X133070200Y-115987000D01*
X168762000Y-81946200D02*
X168593000Y-81963000D01*
X160097900Y-44679900D02*
X160240400Y-44602500D01*
X180808000Y-126007000D02*
X180991000Y-125763000D01*
X141265400Y-116004000D02*
X141422700Y-116053000D01*
X181517000Y-124312000D02*
X181533000Y-123988000D01*
X169414000Y-116664000D02*
X169431000Y-116837000D01*
X160566500Y-80261900D02*
X168593000Y-80261900D01*
X180991000Y-125763000D02*
X181150000Y-125501000D01*
X160397700Y-116004000D02*
X160566500Y-115987000D01*
X105087800Y-126737000D02*
X105429800Y-126509000D01*
X141422700Y-116053000D02*
X141565200Y-116131000D01*
X108317500Y-122050000D02*
X108592400Y-121738000D01*
X141422700Y-46172400D02*
X141265400Y-46221200D01*
X141096600Y-46238000D02*
X133070200Y-46238000D01*
X168919000Y-80328000D02*
X169061000Y-80405700D01*
X133070200Y-44536900D02*
X133070200Y-44536900D01*
X114068900Y-80405700D02*
X114193000Y-80508900D01*
X105405100Y-46221100D02*
X105247800Y-46172400D01*
X160566500Y-44536900D02*
X168593000Y-44536900D01*
X113600300Y-44536900D02*
X113769100Y-44554000D01*
X159871400Y-117319000D02*
X159794000Y-117176000D01*
X110412100Y-120841000D02*
X110832700Y-120813000D01*
X92649800Y-44263100D02*
X92633400Y-44587700D01*
X141869200Y-45721300D02*
X141791800Y-45865700D01*
X165849000Y-122050000D02*
X166084000Y-122400000D01*
X159871300Y-80631200D02*
X159973800Y-80507300D01*
X114372800Y-117171000D02*
X114295500Y-117316000D01*
X92697900Y-124628000D02*
X92776100Y-124932000D01*
X104752600Y-45568900D02*
X104735700Y-45399900D01*
X168919000Y-81897400D02*
X168762000Y-81946200D01*
X93175600Y-125763000D02*
X93358400Y-126007000D01*
X132297600Y-117176000D02*
X132248900Y-117019000D01*
X114068900Y-116131000D02*
X114193000Y-116234000D01*
X104878700Y-81593700D02*
X104801300Y-81451400D01*
X159973800Y-44782300D02*
X160097900Y-44679900D01*
X159745300Y-80931000D02*
X159794000Y-80773500D01*
X104878700Y-44906200D02*
X104981200Y-44782300D01*
X141096600Y-115987000D02*
X141265400Y-116004000D01*
X168762000Y-80279000D02*
X168919000Y-80328000D01*
X160098000Y-81820000D02*
X159973800Y-81717600D01*
X160566500Y-115987000D02*
X168593000Y-115987000D01*
X159728400Y-116825000D02*
X159745300Y-116656000D01*
X92649800Y-124312000D02*
X92697900Y-124628000D01*
X92633400Y-44587700D02*
X92633400Y-123988000D01*
X159973800Y-45992600D02*
X159871400Y-45868700D01*
X114295400Y-116359000D02*
X114372800Y-116504000D01*
X113926400Y-117622000D02*
X113769100Y-117671000D01*
X104735700Y-45399900D02*
X104735700Y-45375100D01*
X132232000Y-45399900D02*
X132232000Y-45375100D01*
X132601600Y-44679900D02*
X132744100Y-44602500D01*
X104735700Y-81124800D02*
X104735700Y-81100000D01*
X132232000Y-116825000D02*
X132248900Y-116656000D01*
X114295500Y-81590700D02*
X114193000Y-81716000D01*
X168762000Y-117671000D02*
X168593000Y-117688000D01*
X180991000Y-42812500D02*
X180808000Y-42568100D01*
X169186000Y-80508900D02*
X169288000Y-80634500D01*
X114068900Y-81819500D02*
X113926400Y-81897400D01*
X163334100Y-120813000D02*
X163754700Y-120841000D01*
X166084000Y-122400000D02*
X167917000Y-125575000D01*
X159745200Y-45568900D02*
X159728300Y-45399900D01*
X114068900Y-44680700D02*
X114193000Y-44783900D01*
X104981200Y-116232000D02*
X105105300Y-116130000D01*
X160098000Y-80404900D02*
X160240400Y-80327500D01*
X93788800Y-126438000D02*
X94033200Y-126620000D01*
X168593000Y-80261900D02*
X168762000Y-80279000D01*
X180378000Y-42137700D02*
X180134000Y-41954900D01*
X141917900Y-45560700D02*
X141869200Y-45721300D01*
X181517000Y-44263100D02*
X181469000Y-43947800D01*
X159793900Y-45726400D02*
X159745200Y-45568900D01*
X160566500Y-44536900D02*
X160566500Y-44536900D01*
X94572500Y-126913000D02*
X94864300Y-127020000D01*
X114372800Y-45721300D02*
X114295500Y-45865700D01*
X160240400Y-117622000D02*
X160098000Y-117545000D01*
X132901400Y-46221100D02*
X132744100Y-46172400D01*
X104801300Y-45726400D02*
X104752600Y-45568900D01*
X169365000Y-80779100D02*
X169414000Y-80939500D01*
X141689300Y-44783900D02*
X141791800Y-44909500D01*
X113926400Y-80328000D02*
X114068900Y-80405700D01*
X132297600Y-45048500D02*
X132375000Y-44906200D01*
X114295400Y-44909500D02*
X114372800Y-45054100D01*
X141422700Y-117622000D02*
X141265400Y-117671000D01*
X105405100Y-117671000D02*
X105247800Y-117622000D01*
X179872000Y-41795900D02*
X179594000Y-41662200D01*
X141869200Y-117171000D02*
X141791800Y-117316000D01*
X114421500Y-116664000D02*
X114438400Y-116837000D01*
X170666000Y-127163000D02*
X170666000Y-127163000D01*
X159871300Y-44906200D02*
X159973800Y-44782300D01*
X165264000Y-121466000D02*
X165574000Y-121738000D01*
X141565200Y-44680700D02*
X141689300Y-44783900D01*
X133070200Y-115987000D02*
X141096600Y-115987000D01*
X114372800Y-116504000D02*
X114421500Y-116664000D01*
X160566500Y-115987000D02*
X160566500Y-115987000D01*
X110832700Y-120813000D02*
X163334100Y-120813000D01*
X104878700Y-45868700D02*
X104801300Y-45726400D01*
X169365000Y-117171000D02*
X169288000Y-117316000D01*
X105105300Y-117545000D02*
X104981200Y-117443000D01*
X168593000Y-117688000D02*
X160566500Y-117688000D01*
X178998000Y-41477200D02*
X178683000Y-41429100D01*
X104981200Y-44782300D02*
X105105300Y-44679900D01*
X113926400Y-44603000D02*
X114068900Y-44680700D01*
X93563300Y-42342600D02*
X93358400Y-42568100D01*
X104801300Y-116498000D02*
X104878700Y-116356000D01*
X109613700Y-121056000D02*
X110004200Y-120923000D01*
X114372900Y-80779100D02*
X114421600Y-80939500D01*
X160098000Y-117545000D02*
X159973800Y-117443000D01*
X114421500Y-45560700D02*
X114372800Y-45721300D01*
X169186000Y-45991000D02*
X169061000Y-46094500D01*
X132744100Y-117622000D02*
X132601600Y-117545000D01*
X159794000Y-117176000D02*
X159745300Y-117019000D01*
X159745300Y-117019000D02*
X159728400Y-116850000D01*
X159728400Y-81100100D02*
X159745300Y-80931000D01*
X164553000Y-121056000D02*
X164922000Y-121238000D01*
X169061000Y-116131000D02*
X169186000Y-116234000D01*
X168762000Y-46221200D02*
X168593000Y-46238000D01*
X169414000Y-80939500D02*
X169431000Y-81112400D01*
X105573900Y-81963000D02*
X105405100Y-81946100D01*
X113769100Y-116004000D02*
X113926400Y-116053000D01*
X93175600Y-42812500D02*
X93016600Y-43074300D01*
X113769100Y-46221200D02*
X113600300Y-46238000D01*
X169186000Y-81716000D02*
X169061000Y-81819500D01*
X103500300Y-127163000D02*
X103920900Y-127135000D01*
X181150000Y-43074300D02*
X180991000Y-42812500D01*
X180378000Y-126438000D02*
X180603000Y-126233000D01*
X105405100Y-44553800D02*
X105573900Y-44536900D01*
X95808400Y-127163000D02*
X103500300Y-127163000D01*
X160240400Y-46172400D02*
X160098000Y-46095000D01*
X141934800Y-116837000D02*
X141917900Y-117011000D01*
X169288000Y-81590700D02*
X169186000Y-81716000D01*
X104735700Y-81100000D02*
X104752600Y-80931000D01*
X114193000Y-44783900D02*
X114295400Y-44909500D01*
X179594000Y-126913000D02*
X179872000Y-126779000D01*
X141917900Y-45214500D02*
X141934800Y-45387400D01*
X105105300Y-116130000D02*
X105247800Y-116053000D01*
X160397700Y-81946100D02*
X160240400Y-81897400D01*
X113926400Y-116053000D02*
X114068900Y-116131000D01*
X132375000Y-116356000D02*
X132477500Y-116232000D01*
X181469000Y-124628000D02*
X181517000Y-124312000D01*
X141096600Y-44536900D02*
X141265400Y-44554000D01*
X168919000Y-117622000D02*
X168762000Y-117671000D01*
X132248900Y-45568900D02*
X132232000Y-45399900D01*
X132248900Y-116656000D02*
X132297600Y-116498000D01*
X132901400Y-116004000D02*
X133070200Y-115987000D01*
X104801300Y-81451400D02*
X104752600Y-81293900D01*
X169288000Y-80634500D02*
X169365000Y-80779100D01*
X141265400Y-46221200D02*
X141096600Y-46238000D01*
X180134000Y-41954900D02*
X179872000Y-41795900D01*
X92882900Y-43351800D02*
X92776100Y-43643500D01*
X180603000Y-126233000D02*
X180808000Y-126007000D01*
X105573900Y-115987000D02*
X105573900Y-115987000D01*
X105573900Y-44536900D02*
X113600300Y-44536900D01*
X113769100Y-80279000D02*
X113926400Y-80328000D01*
X179594000Y-41662200D02*
X179303000Y-41555400D01*
X132248900Y-117019000D02*
X132232000Y-116850000D01*
X104801300Y-80773500D02*
X104878700Y-80631200D01*
X113600300Y-115987000D02*
X113769100Y-116004000D01*
X105247800Y-81897400D02*
X105105300Y-81820000D01*
X109245200Y-121238000D02*
X109613700Y-121056000D01*
X164922000Y-121238000D02*
X165264000Y-121466000D01*
X132601600Y-117545000D02*
X132477500Y-117443000D01*
X159871400Y-81593700D02*
X159794000Y-81451400D01*
X105247800Y-80327500D02*
X105405100Y-80278800D01*
X105247800Y-116053000D02*
X105405100Y-116004000D01*
X159793900Y-45048500D02*
X159871300Y-44906200D01*
X94033200Y-126620000D02*
X94295000Y-126779000D01*
X181150000Y-125501000D02*
X181284000Y-125224000D01*
X132901400Y-44553800D02*
X133070200Y-44536900D01*
X95168500Y-41477200D02*
X94864300Y-41555400D01*
X141791800Y-45865700D02*
X141689300Y-45991000D01*
X113769100Y-44554000D02*
X113926400Y-44603000D01*
X160566500Y-81963000D02*
X160397700Y-81946100D01*
X141265400Y-117671000D02*
X141096600Y-117688000D01*
X178998000Y-127098000D02*
X179303000Y-127020000D01*
X94295000Y-41795900D02*
X94033200Y-41954900D01*
X114193000Y-117441000D02*
X114068900Y-117544000D01*
X114193000Y-45991000D02*
X114068900Y-46094500D01*
X93563300Y-126233000D02*
X93788800Y-126438000D01*
X169079000Y-126737000D02*
X169448000Y-126919000D01*
X94295000Y-126779000D02*
X94572500Y-126913000D01*
X159973800Y-81717600D02*
X159871400Y-81593700D01*
X94864300Y-41555400D02*
X94572500Y-41662200D01*
X179872000Y-126779000D02*
X180134000Y-126620000D01*
X159728400Y-116850000D02*
X159728400Y-116825000D01*
X114421500Y-117011000D02*
X114372800Y-117171000D01*
X169288000Y-117316000D02*
X169186000Y-117441000D01*
X105405100Y-116004000D02*
X105573900Y-115987000D01*
X169061000Y-80405700D02*
X169186000Y-80508900D01*
X179303000Y-41555400D02*
X178998000Y-41477200D01*
X104752600Y-81293900D02*
X104735700Y-81124800D01*
X181533000Y-44587700D02*
X181517000Y-44263100D01*
X164162600Y-120923000D02*
X164553000Y-121056000D01*
X132375000Y-44906200D02*
X132477500Y-44782300D01*
X104878700Y-80631200D02*
X104981200Y-80507300D01*
X132477500Y-45992600D02*
X132375100Y-45868700D01*
X169414000Y-45560700D02*
X169365000Y-45721300D01*
X92882900Y-125224000D02*
X93016600Y-125501000D01*
X168762000Y-44554000D02*
X168919000Y-44603000D01*
X169431000Y-116837000D02*
X169414000Y-117011000D01*
X113600300Y-81963000D02*
X105573900Y-81963000D01*
X160240400Y-116052000D02*
X160397700Y-116004000D01*
X105573900Y-44536900D02*
X105573900Y-44536900D01*
X114295500Y-45865700D02*
X114193000Y-45991000D01*
X169288000Y-116359000D02*
X169365000Y-116504000D01*
X132248900Y-45206000D02*
X132297600Y-45048500D01*
X179303000Y-127020000D02*
X179594000Y-126913000D01*
X160566500Y-80261900D02*
X160566500Y-80261900D01*
X110004200Y-120923000D02*
X110412100Y-120841000D01*
X159973800Y-80507300D02*
X160098000Y-80404900D01*
X169838000Y-127053000D02*
X170246000Y-127135000D01*
X160397700Y-46221100D02*
X160240400Y-46172400D01*
X169186000Y-116234000D02*
X169288000Y-116359000D01*
X159794000Y-81451400D02*
X159745300Y-81293900D01*
X169288000Y-44909500D02*
X169365000Y-45054100D01*
X93358400Y-42568100D02*
X93175600Y-42812500D01*
X92697900Y-43947800D02*
X92649800Y-44263100D01*
X181391000Y-124932000D02*
X181469000Y-124628000D01*
X113926400Y-81897400D02*
X113769100Y-81946200D01*
X168919000Y-44603000D02*
X169061000Y-44680700D01*
X133070200Y-117688000D02*
X132901400Y-117671000D01*
X169414000Y-45214500D02*
X169431000Y-45387400D01*
X104752600Y-116656000D02*
X104801300Y-116498000D01*
X105573900Y-80261900D02*
X113600300Y-80261900D01*
X108083000Y-122400000D02*
X108317500Y-122050000D01*
X114438500Y-81112400D02*
X114421600Y-81285700D01*
X169414000Y-81285700D02*
X169365000Y-81446300D01*
X114421500Y-45214500D02*
X114438400Y-45387400D01*
X168737000Y-126509000D02*
X169079000Y-126737000D01*
X105429800Y-126509000D02*
X105740600Y-126238000D01*
X132232000Y-45375100D02*
X132248900Y-45206000D01*
X104752600Y-45206000D02*
X104801300Y-45048500D01*
X105740600Y-126238000D02*
X106015500Y-125925000D01*
X168919000Y-116053000D02*
X169061000Y-116131000D01*
X114438400Y-45387400D02*
X114421500Y-45560700D01*
X95168500Y-127098000D02*
X95483800Y-127146000D01*
X170666000Y-127163000D02*
X178358000Y-127163000D01*
X104878700Y-117319000D02*
X104801300Y-117176000D01*
X141791800Y-44909500D02*
X141869200Y-45054100D01*
X132901400Y-117671000D02*
X132744100Y-117622000D01*
X132601700Y-46095000D02*
X132477500Y-45992600D01*
X169186000Y-117441000D02*
X169061000Y-117544000D01*
X113600300Y-117688000D02*
X105573900Y-117688000D01*
X133070200Y-44536900D02*
X133070200Y-44536900D01*
X114068900Y-46094500D02*
X113926400Y-46172400D01*
X159871400Y-45868700D02*
X159793900Y-45726400D01*
X141791800Y-117316000D02*
X141689300Y-117441000D01*
X141689300Y-117441000D02*
X141565200Y-117544000D01*
X170246000Y-127135000D02*
X170666000Y-127163000D01*
X178358000Y-41412700D02*
X95808400Y-41412700D01*
X159745300Y-81293900D02*
X159728400Y-81124900D01*
X132744100Y-46172400D02*
X132601700Y-46095000D01*
X180808000Y-42568100D02*
X180603000Y-42342600D01*
X169414000Y-117011000D02*
X169365000Y-117171000D01*
X180134000Y-126620000D02*
X180378000Y-126438000D01*
X141096600Y-117688000D02*
X133070200Y-117688000D01*
X105247800Y-44602500D02*
X105405100Y-44553800D01*
X105573900Y-115987000D02*
X105573900Y-115987000D01*
X92633400Y-123988000D02*
X92649800Y-124312000D01*
X169365000Y-45721300D02*
X169288000Y-45865700D01*
X160240400Y-81897400D02*
X160098000Y-81820000D01*
X105573900Y-115987000D02*
X113600300Y-115987000D01*
X141791800Y-116359000D02*
X141869200Y-116504000D01*
X159794000Y-80773500D02*
X159871300Y-80631200D01*
X95483800Y-127146000D02*
X95808400Y-127163000D01*
X95808400Y-41412700D02*
X95483800Y-41429100D01*
X105105300Y-80404900D02*
X105247800Y-80327500D01*
X132297600Y-116498000D02*
X132375000Y-116356000D01*
X104719200Y-126919000D02*
X105087800Y-126737000D01*
%TD*%
M02*
