%TF.GenerationSoftware,KiCad,Pcbnew,(5.1.10)-1*%
%TF.CreationDate,2022-01-31T16:37:24-08:00*%
%TF.ProjectId,TMPCB_Footprint-Side,544d5043-425f-4466-9f6f-747072696e74,rev?*%
%TF.SameCoordinates,Original*%
%TF.FileFunction,Profile,NP*%
%FSLAX46Y46*%
G04 Gerber Fmt 4.6, Leading zero omitted, Abs format (unit mm)*
G04 Created by KiCad (PCBNEW (5.1.10)-1) date 2022-01-31 16:37:24*
%MOMM*%
%LPD*%
G01*
G04 APERTURE LIST*
%TA.AperFunction,Profile*%
%ADD10C,0.100000*%
%TD*%
G04 APERTURE END LIST*
D10*
%TO.C,Outline*%
X163106500Y-119847800D02*
X163106500Y-119847800D01*
X163106500Y-119847800D02*
X163106500Y-119847800D01*
X162937700Y-119864800D02*
X163106500Y-119847800D01*
X162780400Y-119912800D02*
X162937700Y-119864800D01*
X162638000Y-119990800D02*
X162780400Y-119912800D01*
X162513800Y-120092800D02*
X162638000Y-119990800D01*
X162411300Y-120216800D02*
X162513800Y-120092800D01*
X162334000Y-120358800D02*
X162411300Y-120216800D01*
X162285300Y-120516800D02*
X162334000Y-120358800D01*
X162268400Y-120685800D02*
X162285300Y-120516800D01*
X162268400Y-120710800D02*
X162268400Y-120685800D01*
X162285300Y-120879800D02*
X162268400Y-120710800D01*
X162334000Y-121036800D02*
X162285300Y-120879800D01*
X162411400Y-121179800D02*
X162334000Y-121036800D01*
X162513800Y-121303800D02*
X162411400Y-121179800D01*
X162638000Y-121405800D02*
X162513800Y-121303800D01*
X162780400Y-121482800D02*
X162638000Y-121405800D01*
X162937700Y-121531800D02*
X162780400Y-121482800D01*
X163106500Y-121548800D02*
X162937700Y-121531800D01*
X171133000Y-121548800D02*
X163106500Y-121548800D01*
X171302000Y-121531800D02*
X171133000Y-121548800D01*
X171459000Y-121482800D02*
X171302000Y-121531800D01*
X171601000Y-121404800D02*
X171459000Y-121482800D01*
X171726000Y-121301800D02*
X171601000Y-121404800D01*
X171828000Y-121176800D02*
X171726000Y-121301800D01*
X171905000Y-121031800D02*
X171828000Y-121176800D01*
X171954000Y-120871800D02*
X171905000Y-121031800D01*
X171971000Y-120697800D02*
X171954000Y-120871800D01*
X171954000Y-120524800D02*
X171971000Y-120697800D01*
X171905000Y-120364800D02*
X171954000Y-120524800D01*
X171828000Y-120219800D02*
X171905000Y-120364800D01*
X171726000Y-120094800D02*
X171828000Y-120219800D01*
X171601000Y-119991800D02*
X171726000Y-120094800D01*
X171459000Y-119913800D02*
X171601000Y-119991800D01*
X171302000Y-119864800D02*
X171459000Y-119913800D01*
X171133000Y-119847800D02*
X171302000Y-119864800D01*
X163106500Y-119847800D02*
X171133000Y-119847800D01*
X135610200Y-119847800D02*
X135610200Y-119847800D01*
X135610200Y-119847800D02*
X135610200Y-119847800D01*
X135441400Y-119864800D02*
X135610200Y-119847800D01*
X135284100Y-119912800D02*
X135441400Y-119864800D01*
X135141600Y-119990800D02*
X135284100Y-119912800D01*
X135017500Y-120092800D02*
X135141600Y-119990800D01*
X134915000Y-120216800D02*
X135017500Y-120092800D01*
X134837600Y-120358800D02*
X134915000Y-120216800D01*
X134788900Y-120516800D02*
X134837600Y-120358800D01*
X134772000Y-120685800D02*
X134788900Y-120516800D01*
X134772000Y-120710800D02*
X134772000Y-120685800D01*
X134788900Y-120879800D02*
X134772000Y-120710800D01*
X134837600Y-121036800D02*
X134788900Y-120879800D01*
X134915000Y-121179800D02*
X134837600Y-121036800D01*
X135017500Y-121303800D02*
X134915000Y-121179800D01*
X135141600Y-121405800D02*
X135017500Y-121303800D01*
X135284100Y-121482800D02*
X135141600Y-121405800D01*
X135441400Y-121531800D02*
X135284100Y-121482800D01*
X135610200Y-121548800D02*
X135441400Y-121531800D01*
X143636600Y-121548800D02*
X135610200Y-121548800D01*
X143805400Y-121531800D02*
X143636600Y-121548800D01*
X143962700Y-121482800D02*
X143805400Y-121531800D01*
X144105200Y-121404800D02*
X143962700Y-121482800D01*
X144229300Y-121301800D02*
X144105200Y-121404800D01*
X144331800Y-121176800D02*
X144229300Y-121301800D01*
X144409200Y-121031800D02*
X144331800Y-121176800D01*
X144457900Y-120871800D02*
X144409200Y-121031800D01*
X144474800Y-120697800D02*
X144457900Y-120871800D01*
X144457900Y-120524800D02*
X144474800Y-120697800D01*
X144409200Y-120364800D02*
X144457900Y-120524800D01*
X144331800Y-120219800D02*
X144409200Y-120364800D01*
X144229300Y-120094800D02*
X144331800Y-120219800D01*
X144105200Y-119991800D02*
X144229300Y-120094800D01*
X143962700Y-119913800D02*
X144105200Y-119991800D01*
X143805400Y-119864800D02*
X143962700Y-119913800D01*
X143636600Y-119847800D02*
X143805400Y-119864800D01*
X135610200Y-119847800D02*
X143636600Y-119847800D01*
X108113900Y-119847800D02*
X108113900Y-119847800D01*
X108113900Y-119847800D02*
X108113900Y-119847800D01*
X107945100Y-119864800D02*
X108113900Y-119847800D01*
X107787800Y-119913800D02*
X107945100Y-119864800D01*
X107645300Y-119990800D02*
X107787800Y-119913800D01*
X107521200Y-120092800D02*
X107645300Y-119990800D01*
X107418700Y-120216800D02*
X107521200Y-120092800D01*
X107341300Y-120358800D02*
X107418700Y-120216800D01*
X107292600Y-120516800D02*
X107341300Y-120358800D01*
X107275700Y-120685800D02*
X107292600Y-120516800D01*
X107275700Y-120710800D02*
X107275700Y-120685800D01*
X107292600Y-120879800D02*
X107275700Y-120710800D01*
X107341300Y-121036800D02*
X107292600Y-120879800D01*
X107418700Y-121179800D02*
X107341300Y-121036800D01*
X107521200Y-121303800D02*
X107418700Y-121179800D01*
X107645300Y-121405800D02*
X107521200Y-121303800D01*
X107787800Y-121482800D02*
X107645300Y-121405800D01*
X107945100Y-121531800D02*
X107787800Y-121482800D01*
X108113900Y-121548800D02*
X107945100Y-121531800D01*
X116140300Y-121548800D02*
X108113900Y-121548800D01*
X116309100Y-121531800D02*
X116140300Y-121548800D01*
X116466400Y-121482800D02*
X116309100Y-121531800D01*
X116608900Y-121404800D02*
X116466400Y-121482800D01*
X116733000Y-121301800D02*
X116608900Y-121404800D01*
X116835500Y-121176800D02*
X116733000Y-121301800D01*
X116912800Y-121031800D02*
X116835500Y-121176800D01*
X116961500Y-120871800D02*
X116912800Y-121031800D01*
X116978400Y-120697800D02*
X116961500Y-120871800D01*
X116961500Y-120524800D02*
X116978400Y-120697800D01*
X116912800Y-120364800D02*
X116961500Y-120524800D01*
X116835400Y-120219800D02*
X116912800Y-120364800D01*
X116733000Y-120094800D02*
X116835400Y-120219800D01*
X116608900Y-119991800D02*
X116733000Y-120094800D01*
X116466400Y-119913800D02*
X116608900Y-119991800D01*
X116309100Y-119864800D02*
X116466400Y-119913800D01*
X116140300Y-119847800D02*
X116309100Y-119864800D01*
X108113900Y-119847800D02*
X116140300Y-119847800D01*
X163106500Y-84122700D02*
X163106500Y-84122700D01*
X163106500Y-84122700D02*
X163106500Y-84122700D01*
X162937700Y-84139600D02*
X163106500Y-84122700D01*
X162780400Y-84188300D02*
X162937700Y-84139600D01*
X162638000Y-84265700D02*
X162780400Y-84188300D01*
X162513800Y-84368100D02*
X162638000Y-84265700D01*
X162411300Y-84492000D02*
X162513800Y-84368100D01*
X162334000Y-84634300D02*
X162411300Y-84492000D01*
X162285300Y-84791800D02*
X162334000Y-84634300D01*
X162268400Y-84960900D02*
X162285300Y-84791800D01*
X162268400Y-84985700D02*
X162268400Y-84960900D01*
X162285300Y-85154700D02*
X162268400Y-84985700D01*
X162334000Y-85312200D02*
X162285300Y-85154700D01*
X162411400Y-85454500D02*
X162334000Y-85312200D01*
X162513800Y-85578400D02*
X162411400Y-85454500D01*
X162638000Y-85680800D02*
X162513800Y-85578400D01*
X162780400Y-85758200D02*
X162638000Y-85680800D01*
X162937700Y-85806900D02*
X162780400Y-85758200D01*
X163106500Y-85823800D02*
X162937700Y-85806900D01*
X171133000Y-85823800D02*
X163106500Y-85823800D01*
X171302000Y-85807000D02*
X171133000Y-85823800D01*
X171459000Y-85758200D02*
X171302000Y-85807000D01*
X171601000Y-85680300D02*
X171459000Y-85758200D01*
X171726000Y-85576800D02*
X171601000Y-85680300D01*
X171828000Y-85451500D02*
X171726000Y-85576800D01*
X171905000Y-85307100D02*
X171828000Y-85451500D01*
X171954000Y-85146500D02*
X171905000Y-85307100D01*
X171971000Y-84973200D02*
X171954000Y-85146500D01*
X171954000Y-84800300D02*
X171971000Y-84973200D01*
X171905000Y-84639900D02*
X171954000Y-84800300D01*
X171828000Y-84495300D02*
X171905000Y-84639900D01*
X171726000Y-84369700D02*
X171828000Y-84495300D01*
X171601000Y-84266500D02*
X171726000Y-84369700D01*
X171459000Y-84188800D02*
X171601000Y-84266500D01*
X171302000Y-84139800D02*
X171459000Y-84188800D01*
X171133000Y-84122700D02*
X171302000Y-84139800D01*
X163106500Y-84122700D02*
X171133000Y-84122700D01*
X108113900Y-84122700D02*
X108113900Y-84122700D01*
X108113900Y-84122700D02*
X108113900Y-84122700D01*
X107945100Y-84139600D02*
X108113900Y-84122700D01*
X107787800Y-84188300D02*
X107945100Y-84139600D01*
X107645300Y-84265700D02*
X107787800Y-84188300D01*
X107521200Y-84368100D02*
X107645300Y-84265700D01*
X107418700Y-84492000D02*
X107521200Y-84368100D01*
X107341300Y-84634300D02*
X107418700Y-84492000D01*
X107292600Y-84791800D02*
X107341300Y-84634300D01*
X107275700Y-84960800D02*
X107292600Y-84791800D01*
X107275700Y-84985600D02*
X107275700Y-84960800D01*
X107292600Y-85154700D02*
X107275700Y-84985600D01*
X107341300Y-85312200D02*
X107292600Y-85154700D01*
X107418700Y-85454500D02*
X107341300Y-85312200D01*
X107521200Y-85578400D02*
X107418700Y-85454500D01*
X107645300Y-85680800D02*
X107521200Y-85578400D01*
X107787800Y-85758200D02*
X107645300Y-85680800D01*
X107945100Y-85806900D02*
X107787800Y-85758200D01*
X108113900Y-85823800D02*
X107945100Y-85806900D01*
X116140300Y-85823800D02*
X108113900Y-85823800D01*
X116309100Y-85807000D02*
X116140300Y-85823800D01*
X116466400Y-85758200D02*
X116309100Y-85807000D01*
X116608900Y-85680300D02*
X116466400Y-85758200D01*
X116733000Y-85576800D02*
X116608900Y-85680300D01*
X116835500Y-85451500D02*
X116733000Y-85576800D01*
X116912900Y-85307100D02*
X116835500Y-85451500D01*
X116961600Y-85146500D02*
X116912900Y-85307100D01*
X116978500Y-84973200D02*
X116961600Y-85146500D01*
X116961600Y-84800300D02*
X116978500Y-84973200D01*
X116912900Y-84639900D02*
X116961600Y-84800300D01*
X116835500Y-84495300D02*
X116912900Y-84639900D01*
X116733000Y-84369700D02*
X116835500Y-84495300D01*
X116608900Y-84266500D02*
X116733000Y-84369700D01*
X116466400Y-84188800D02*
X116608900Y-84266500D01*
X116309100Y-84139800D02*
X116466400Y-84188800D01*
X116140300Y-84122700D02*
X116309100Y-84139800D01*
X108113900Y-84122700D02*
X116140300Y-84122700D01*
X163106500Y-48397700D02*
X163106500Y-48397700D01*
X163106500Y-48397700D02*
X163106500Y-48397700D01*
X162937700Y-48414600D02*
X163106500Y-48397700D01*
X162780400Y-48463300D02*
X162937700Y-48414600D01*
X162637900Y-48540700D02*
X162780400Y-48463300D01*
X162513800Y-48643100D02*
X162637900Y-48540700D01*
X162411300Y-48767000D02*
X162513800Y-48643100D01*
X162333900Y-48909300D02*
X162411300Y-48767000D01*
X162285200Y-49066800D02*
X162333900Y-48909300D01*
X162268300Y-49235900D02*
X162285200Y-49066800D01*
X162268300Y-49260700D02*
X162268300Y-49235900D01*
X162285200Y-49429700D02*
X162268300Y-49260700D01*
X162333900Y-49587200D02*
X162285200Y-49429700D01*
X162411400Y-49729500D02*
X162333900Y-49587200D01*
X162513800Y-49853400D02*
X162411400Y-49729500D01*
X162638000Y-49955800D02*
X162513800Y-49853400D01*
X162780400Y-50033200D02*
X162638000Y-49955800D01*
X162937700Y-50081900D02*
X162780400Y-50033200D01*
X163106500Y-50098800D02*
X162937700Y-50081900D01*
X171133000Y-50098800D02*
X163106500Y-50098800D01*
X171302000Y-50082000D02*
X171133000Y-50098800D01*
X171459000Y-50033200D02*
X171302000Y-50082000D01*
X171601000Y-49955300D02*
X171459000Y-50033200D01*
X171726000Y-49851800D02*
X171601000Y-49955300D01*
X171828000Y-49726500D02*
X171726000Y-49851800D01*
X171905000Y-49582100D02*
X171828000Y-49726500D01*
X171954000Y-49421500D02*
X171905000Y-49582100D01*
X171971000Y-49248200D02*
X171954000Y-49421500D01*
X171954000Y-49075300D02*
X171971000Y-49248200D01*
X171905000Y-48914900D02*
X171954000Y-49075300D01*
X171828000Y-48770300D02*
X171905000Y-48914900D01*
X171726000Y-48644700D02*
X171828000Y-48770300D01*
X171601000Y-48541500D02*
X171726000Y-48644700D01*
X171459000Y-48463800D02*
X171601000Y-48541500D01*
X171302000Y-48414800D02*
X171459000Y-48463800D01*
X171133000Y-48397700D02*
X171302000Y-48414800D01*
X163106500Y-48397700D02*
X171133000Y-48397700D01*
X135610200Y-48397700D02*
X135610200Y-48397700D01*
X135610200Y-48397700D02*
X135610200Y-48397700D01*
X135441400Y-48414600D02*
X135610200Y-48397700D01*
X135284100Y-48463300D02*
X135441400Y-48414600D01*
X135141600Y-48540700D02*
X135284100Y-48463300D01*
X135017500Y-48643100D02*
X135141600Y-48540700D01*
X134915000Y-48767000D02*
X135017500Y-48643100D01*
X134837600Y-48909300D02*
X134915000Y-48767000D01*
X134788900Y-49066800D02*
X134837600Y-48909300D01*
X134772000Y-49235900D02*
X134788900Y-49066800D01*
X134772000Y-49260700D02*
X134772000Y-49235900D01*
X134788900Y-49429700D02*
X134772000Y-49260700D01*
X134837600Y-49587200D02*
X134788900Y-49429700D01*
X134915100Y-49729500D02*
X134837600Y-49587200D01*
X135017500Y-49853400D02*
X134915100Y-49729500D01*
X135141700Y-49955800D02*
X135017500Y-49853400D01*
X135284100Y-50033200D02*
X135141700Y-49955800D01*
X135441400Y-50081900D02*
X135284100Y-50033200D01*
X135610200Y-50098800D02*
X135441400Y-50081900D01*
X143636600Y-50098800D02*
X135610200Y-50098800D01*
X143805400Y-50082000D02*
X143636600Y-50098800D01*
X143962700Y-50033200D02*
X143805400Y-50082000D01*
X144105200Y-49955300D02*
X143962700Y-50033200D01*
X144229300Y-49851800D02*
X144105200Y-49955300D01*
X144331800Y-49726500D02*
X144229300Y-49851800D01*
X144409200Y-49582100D02*
X144331800Y-49726500D01*
X144457900Y-49421500D02*
X144409200Y-49582100D01*
X144474800Y-49248200D02*
X144457900Y-49421500D01*
X144457900Y-49075300D02*
X144474800Y-49248200D01*
X144409200Y-48914900D02*
X144457900Y-49075300D01*
X144331800Y-48770300D02*
X144409200Y-48914900D01*
X144229300Y-48644700D02*
X144331800Y-48770300D01*
X144105200Y-48541500D02*
X144229300Y-48644700D01*
X143962700Y-48463800D02*
X144105200Y-48541500D01*
X143805400Y-48414800D02*
X143962700Y-48463800D01*
X143636600Y-48397700D02*
X143805400Y-48414800D01*
X135610200Y-48397700D02*
X143636600Y-48397700D01*
X108113900Y-48397700D02*
X108113900Y-48397700D01*
X108113900Y-48397700D02*
X108113900Y-48397700D01*
X107945100Y-48414600D02*
X108113900Y-48397700D01*
X107787800Y-48463300D02*
X107945100Y-48414600D01*
X107645300Y-48540700D02*
X107787800Y-48463300D01*
X107521200Y-48643100D02*
X107645300Y-48540700D01*
X107418700Y-48767000D02*
X107521200Y-48643100D01*
X107341300Y-48909300D02*
X107418700Y-48767000D01*
X107292600Y-49066800D02*
X107341300Y-48909300D01*
X107275700Y-49235900D02*
X107292600Y-49066800D01*
X107275700Y-49260700D02*
X107275700Y-49235900D01*
X107292600Y-49429700D02*
X107275700Y-49260700D01*
X107341300Y-49587200D02*
X107292600Y-49429700D01*
X107418700Y-49729500D02*
X107341300Y-49587200D01*
X107521200Y-49853400D02*
X107418700Y-49729500D01*
X107645300Y-49955800D02*
X107521200Y-49853400D01*
X107787800Y-50033200D02*
X107645300Y-49955800D01*
X107945100Y-50081900D02*
X107787800Y-50033200D01*
X108113900Y-50098800D02*
X107945100Y-50081900D01*
X116140300Y-50098800D02*
X108113900Y-50098800D01*
X116309100Y-50082000D02*
X116140300Y-50098800D01*
X116466400Y-50033200D02*
X116309100Y-50082000D01*
X116608900Y-49955300D02*
X116466400Y-50033200D01*
X116733000Y-49851800D02*
X116608900Y-49955300D01*
X116835500Y-49726500D02*
X116733000Y-49851800D01*
X116912800Y-49582100D02*
X116835500Y-49726500D01*
X116961500Y-49421500D02*
X116912800Y-49582100D01*
X116978400Y-49248200D02*
X116961500Y-49421500D01*
X116961500Y-49075300D02*
X116978400Y-49248200D01*
X116912800Y-48914900D02*
X116961500Y-49075300D01*
X116835400Y-48770300D02*
X116912800Y-48914900D01*
X116733000Y-48644700D02*
X116835400Y-48770300D01*
X116608900Y-48541500D02*
X116733000Y-48644700D01*
X116466400Y-48463800D02*
X116608900Y-48541500D01*
X116309100Y-48414800D02*
X116466400Y-48463800D01*
X116140300Y-48397700D02*
X116309100Y-48414800D01*
X108113900Y-48397700D02*
X116140300Y-48397700D01*
X173206000Y-131023800D02*
X173206000Y-131023800D01*
X173206000Y-131023800D02*
X173206000Y-131023800D01*
X172786000Y-130995800D02*
X173206000Y-131023800D01*
X172378000Y-130913800D02*
X172786000Y-130995800D01*
X171988000Y-130779800D02*
X172378000Y-130913800D01*
X171619000Y-130597800D02*
X171988000Y-130779800D01*
X171277000Y-130369800D02*
X171619000Y-130597800D01*
X170966000Y-130098800D02*
X171277000Y-130369800D01*
X170691000Y-129785800D02*
X170966000Y-130098800D01*
X170457000Y-129435800D02*
X170691000Y-129785800D01*
X168624000Y-126260800D02*
X170457000Y-129435800D01*
X168389000Y-125910800D02*
X168624000Y-126260800D01*
X168114000Y-125598800D02*
X168389000Y-125910800D01*
X167804000Y-125326800D02*
X168114000Y-125598800D01*
X167462000Y-125098800D02*
X167804000Y-125326800D01*
X167093000Y-124916800D02*
X167462000Y-125098800D01*
X166702600Y-124783800D02*
X167093000Y-124916800D01*
X166294700Y-124701800D02*
X166702600Y-124783800D01*
X165874100Y-124673800D02*
X166294700Y-124701800D01*
X113372700Y-124673800D02*
X165874100Y-124673800D01*
X112952100Y-124701800D02*
X113372700Y-124673800D01*
X112544200Y-124783800D02*
X112952100Y-124701800D01*
X112153700Y-124916800D02*
X112544200Y-124783800D01*
X111785200Y-125098800D02*
X112153700Y-124916800D01*
X111443200Y-125326800D02*
X111785200Y-125098800D01*
X111132400Y-125598800D02*
X111443200Y-125326800D01*
X110857500Y-125910800D02*
X111132400Y-125598800D01*
X110623000Y-126260800D02*
X110857500Y-125910800D01*
X108789900Y-129435800D02*
X110623000Y-126260800D01*
X108555500Y-129785800D02*
X108789900Y-129435800D01*
X108280600Y-130098800D02*
X108555500Y-129785800D01*
X107969800Y-130369800D02*
X108280600Y-130098800D01*
X107627800Y-130597800D02*
X107969800Y-130369800D01*
X107259200Y-130779800D02*
X107627800Y-130597800D01*
X106868700Y-130913800D02*
X107259200Y-130779800D01*
X106460900Y-130995800D02*
X106868700Y-130913800D01*
X106040300Y-131023800D02*
X106460900Y-130995800D01*
X98348400Y-131023800D02*
X106040300Y-131023800D01*
X98023800Y-131006800D02*
X98348400Y-131023800D01*
X97708500Y-130958800D02*
X98023800Y-131006800D01*
X97404300Y-130880800D02*
X97708500Y-130958800D01*
X97112500Y-130773800D02*
X97404300Y-130880800D01*
X96835000Y-130639800D02*
X97112500Y-130773800D01*
X96573200Y-130480800D02*
X96835000Y-130639800D01*
X96328800Y-130298800D02*
X96573200Y-130480800D01*
X96103300Y-130093800D02*
X96328800Y-130298800D01*
X95898400Y-129867800D02*
X96103300Y-130093800D01*
X95715600Y-129623800D02*
X95898400Y-129867800D01*
X95556600Y-129361800D02*
X95715600Y-129623800D01*
X95422900Y-129084800D02*
X95556600Y-129361800D01*
X95316100Y-128792800D02*
X95422900Y-129084800D01*
X95237900Y-128488800D02*
X95316100Y-128792800D01*
X95189800Y-128172800D02*
X95237900Y-128488800D01*
X95173400Y-127848800D02*
X95189800Y-128172800D01*
X95173400Y-48448500D02*
X95173400Y-127848800D01*
X95189800Y-48123900D02*
X95173400Y-48448500D01*
X95237900Y-47808600D02*
X95189800Y-48123900D01*
X95316100Y-47504300D02*
X95237900Y-47808600D01*
X95422900Y-47212600D02*
X95316100Y-47504300D01*
X95556600Y-46935100D02*
X95422900Y-47212600D01*
X95715600Y-46673300D02*
X95556600Y-46935100D01*
X95898400Y-46428900D02*
X95715600Y-46673300D01*
X96103300Y-46203400D02*
X95898400Y-46428900D01*
X96328800Y-45998500D02*
X96103300Y-46203400D01*
X96573200Y-45815700D02*
X96328800Y-45998500D01*
X96835000Y-45656700D02*
X96573200Y-45815700D01*
X97112500Y-45523000D02*
X96835000Y-45656700D01*
X97404300Y-45416200D02*
X97112500Y-45523000D01*
X97708500Y-45338000D02*
X97404300Y-45416200D01*
X98023800Y-45289900D02*
X97708500Y-45338000D01*
X98348400Y-45273500D02*
X98023800Y-45289900D01*
X180898000Y-45273500D02*
X98348400Y-45273500D01*
X181223000Y-45289900D02*
X180898000Y-45273500D01*
X181538000Y-45338000D02*
X181223000Y-45289900D01*
X181843000Y-45416200D02*
X181538000Y-45338000D01*
X182134000Y-45523000D02*
X181843000Y-45416200D01*
X182412000Y-45656700D02*
X182134000Y-45523000D01*
X182674000Y-45815700D02*
X182412000Y-45656700D01*
X182918000Y-45998500D02*
X182674000Y-45815700D01*
X183143000Y-46203400D02*
X182918000Y-45998500D01*
X183348000Y-46428900D02*
X183143000Y-46203400D01*
X183531000Y-46673300D02*
X183348000Y-46428900D01*
X183690000Y-46935100D02*
X183531000Y-46673300D01*
X183824000Y-47212600D02*
X183690000Y-46935100D01*
X183931000Y-47504300D02*
X183824000Y-47212600D01*
X184009000Y-47808600D02*
X183931000Y-47504300D01*
X184057000Y-48123900D02*
X184009000Y-47808600D01*
X184073000Y-48448500D02*
X184057000Y-48123900D01*
X184073000Y-127848800D02*
X184073000Y-48448500D01*
X184057000Y-128172800D02*
X184073000Y-127848800D01*
X184009000Y-128488800D02*
X184057000Y-128172800D01*
X183931000Y-128792800D02*
X184009000Y-128488800D01*
X183824000Y-129084800D02*
X183931000Y-128792800D01*
X183690000Y-129361800D02*
X183824000Y-129084800D01*
X183531000Y-129623800D02*
X183690000Y-129361800D01*
X183348000Y-129867800D02*
X183531000Y-129623800D01*
X183143000Y-130093800D02*
X183348000Y-129867800D01*
X182918000Y-130298800D02*
X183143000Y-130093800D01*
X182674000Y-130480800D02*
X182918000Y-130298800D01*
X182412000Y-130639800D02*
X182674000Y-130480800D01*
X182134000Y-130773800D02*
X182412000Y-130639800D01*
X181843000Y-130880800D02*
X182134000Y-130773800D01*
X181538000Y-130958800D02*
X181843000Y-130880800D01*
X181223000Y-131006800D02*
X181538000Y-130958800D01*
X180898000Y-131023800D02*
X181223000Y-131006800D01*
X173206000Y-131023800D02*
X180898000Y-131023800D01*
%TD*%
M02*
