%TF.GenerationSoftware,KiCad,Pcbnew,(6.0.0)*%
%TF.CreationDate,2022-01-21T14:37:34-08:00*%
%TF.ProjectId,PCB-side-name,5043422d-7369-4646-952d-6e616d652e6b,rev?*%
%TF.SameCoordinates,Original*%
%TF.FileFunction,Copper,L2,Bot*%
%TF.FilePolarity,Positive*%
%FSLAX46Y46*%
G04 Gerber Fmt 4.6, Leading zero omitted, Abs format (unit mm)*
G04 Created by KiCad (PCBNEW (6.0.0)) date 2022-01-21 14:37:34*
%MOMM*%
%LPD*%
G01*
G04 APERTURE LIST*
%TA.AperFunction,EtchedComponent*%
%ADD10C,0.010000*%
%TD*%
G04 APERTURE END LIST*
D10*
%TO.C,Ref\u002A\u002A*%
X138375871Y-41402597D02*
X139525145Y-41402619D01*
X139525145Y-41402619D02*
X140672759Y-41402656D01*
X140672759Y-41402656D02*
X141817928Y-41402706D01*
X141817928Y-41402706D02*
X142959866Y-41402771D01*
X142959866Y-41402771D02*
X144097788Y-41402850D01*
X144097788Y-41402850D02*
X145230909Y-41402942D01*
X145230909Y-41402942D02*
X146358442Y-41403049D01*
X146358442Y-41403049D02*
X147479602Y-41403170D01*
X147479602Y-41403170D02*
X148593604Y-41403304D01*
X148593604Y-41403304D02*
X149699661Y-41403453D01*
X149699661Y-41403453D02*
X150796989Y-41403616D01*
X150796989Y-41403616D02*
X151884802Y-41403792D01*
X151884802Y-41403792D02*
X152962313Y-41403983D01*
X152962313Y-41403983D02*
X154028739Y-41404188D01*
X154028739Y-41404188D02*
X155083292Y-41404407D01*
X155083292Y-41404407D02*
X156125188Y-41404639D01*
X156125188Y-41404639D02*
X157153640Y-41404886D01*
X157153640Y-41404886D02*
X158167864Y-41405147D01*
X158167864Y-41405147D02*
X159167073Y-41405421D01*
X159167073Y-41405421D02*
X160150483Y-41405710D01*
X160150483Y-41405710D02*
X161117307Y-41406013D01*
X161117307Y-41406013D02*
X162066760Y-41406330D01*
X162066760Y-41406330D02*
X162998056Y-41406661D01*
X162998056Y-41406661D02*
X163910409Y-41407005D01*
X163910409Y-41407005D02*
X164803035Y-41407364D01*
X164803035Y-41407364D02*
X165675148Y-41407737D01*
X165675148Y-41407737D02*
X166525961Y-41408124D01*
X166525961Y-41408124D02*
X167354690Y-41408525D01*
X167354690Y-41408525D02*
X168160549Y-41408940D01*
X168160549Y-41408940D02*
X168942751Y-41409368D01*
X168942751Y-41409368D02*
X169700513Y-41409811D01*
X169700513Y-41409811D02*
X170433047Y-41410268D01*
X170433047Y-41410268D02*
X171139569Y-41410739D01*
X171139569Y-41410739D02*
X171819293Y-41411224D01*
X171819293Y-41411224D02*
X172471433Y-41411723D01*
X172471433Y-41411723D02*
X173095204Y-41412236D01*
X173095204Y-41412236D02*
X173689819Y-41412763D01*
X173689819Y-41412763D02*
X174254495Y-41413304D01*
X174254495Y-41413304D02*
X174788444Y-41413859D01*
X174788444Y-41413859D02*
X175290882Y-41414428D01*
X175290882Y-41414428D02*
X175761022Y-41415011D01*
X175761022Y-41415011D02*
X176198080Y-41415608D01*
X176198080Y-41415608D02*
X176601269Y-41416219D01*
X176601269Y-41416219D02*
X176969804Y-41416844D01*
X176969804Y-41416844D02*
X177302900Y-41417483D01*
X177302900Y-41417483D02*
X177599770Y-41418136D01*
X177599770Y-41418136D02*
X177859630Y-41418803D01*
X177859630Y-41418803D02*
X178081694Y-41419484D01*
X178081694Y-41419484D02*
X178265175Y-41420179D01*
X178265175Y-41420179D02*
X178409289Y-41420888D01*
X178409289Y-41420888D02*
X178513250Y-41421611D01*
X178513250Y-41421611D02*
X178576273Y-41422348D01*
X178576273Y-41422348D02*
X178596460Y-41422929D01*
X178596460Y-41422929D02*
X178899812Y-41457739D01*
X178899812Y-41457739D02*
X179178296Y-41514756D01*
X179178296Y-41514756D02*
X179445066Y-41597572D01*
X179445066Y-41597572D02*
X179713276Y-41709782D01*
X179713276Y-41709782D02*
X179800250Y-41751833D01*
X179800250Y-41751833D02*
X180113072Y-41930807D01*
X180113072Y-41930807D02*
X180400934Y-42142810D01*
X180400934Y-42142810D02*
X180661946Y-42385378D01*
X180661946Y-42385378D02*
X180894214Y-42656045D01*
X180894214Y-42656045D02*
X181095849Y-42952343D01*
X181095849Y-42952343D02*
X181264957Y-43271809D01*
X181264957Y-43271809D02*
X181399649Y-43611976D01*
X181399649Y-43611976D02*
X181496460Y-43963166D01*
X181496460Y-43963166D02*
X181498009Y-43970910D01*
X181498009Y-43970910D02*
X181499517Y-43980200D01*
X181499517Y-43980200D02*
X181500984Y-43991600D01*
X181500984Y-43991600D02*
X181502412Y-44005673D01*
X181502412Y-44005673D02*
X181503800Y-44022983D01*
X181503800Y-44022983D02*
X181505149Y-44044092D01*
X181505149Y-44044092D02*
X181506460Y-44069563D01*
X181506460Y-44069563D02*
X181507733Y-44099960D01*
X181507733Y-44099960D02*
X181508969Y-44135846D01*
X181508969Y-44135846D02*
X181510169Y-44177783D01*
X181510169Y-44177783D02*
X181511332Y-44226336D01*
X181511332Y-44226336D02*
X181512460Y-44282067D01*
X181512460Y-44282067D02*
X181513553Y-44345539D01*
X181513553Y-44345539D02*
X181514611Y-44417316D01*
X181514611Y-44417316D02*
X181515635Y-44497960D01*
X181515635Y-44497960D02*
X181516626Y-44588035D01*
X181516626Y-44588035D02*
X181517585Y-44688104D01*
X181517585Y-44688104D02*
X181518511Y-44798731D01*
X181518511Y-44798731D02*
X181519405Y-44920477D01*
X181519405Y-44920477D02*
X181520268Y-45053907D01*
X181520268Y-45053907D02*
X181521101Y-45199583D01*
X181521101Y-45199583D02*
X181521904Y-45358069D01*
X181521904Y-45358069D02*
X181522677Y-45529927D01*
X181522677Y-45529927D02*
X181523421Y-45715722D01*
X181523421Y-45715722D02*
X181524137Y-45916015D01*
X181524137Y-45916015D02*
X181524825Y-46131371D01*
X181524825Y-46131371D02*
X181525485Y-46362352D01*
X181525485Y-46362352D02*
X181526119Y-46609522D01*
X181526119Y-46609522D02*
X181526727Y-46873443D01*
X181526727Y-46873443D02*
X181527309Y-47154679D01*
X181527309Y-47154679D02*
X181527867Y-47453793D01*
X181527867Y-47453793D02*
X181528399Y-47771349D01*
X181528399Y-47771349D02*
X181528908Y-48107908D01*
X181528908Y-48107908D02*
X181529393Y-48464035D01*
X181529393Y-48464035D02*
X181529855Y-48840292D01*
X181529855Y-48840292D02*
X181530295Y-49237243D01*
X181530295Y-49237243D02*
X181530713Y-49655450D01*
X181530713Y-49655450D02*
X181531110Y-50095478D01*
X181531110Y-50095478D02*
X181531487Y-50557888D01*
X181531487Y-50557888D02*
X181531843Y-51043245D01*
X181531843Y-51043245D02*
X181532179Y-51552111D01*
X181532179Y-51552111D02*
X181532497Y-52085050D01*
X181532497Y-52085050D02*
X181532796Y-52642625D01*
X181532796Y-52642625D02*
X181533077Y-53225398D01*
X181533077Y-53225398D02*
X181533341Y-53833933D01*
X181533341Y-53833933D02*
X181533588Y-54468793D01*
X181533588Y-54468793D02*
X181533819Y-55130542D01*
X181533819Y-55130542D02*
X181534034Y-55819741D01*
X181534034Y-55819741D02*
X181534234Y-56536956D01*
X181534234Y-56536956D02*
X181534419Y-57282748D01*
X181534419Y-57282748D02*
X181534591Y-58057680D01*
X181534591Y-58057680D02*
X181534748Y-58862317D01*
X181534748Y-58862317D02*
X181534893Y-59697221D01*
X181534893Y-59697221D02*
X181535025Y-60562955D01*
X181535025Y-60562955D02*
X181535146Y-61460082D01*
X181535146Y-61460082D02*
X181535255Y-62389166D01*
X181535255Y-62389166D02*
X181535354Y-63350770D01*
X181535354Y-63350770D02*
X181535442Y-64345456D01*
X181535442Y-64345456D02*
X181535520Y-65373789D01*
X181535520Y-65373789D02*
X181535590Y-66436330D01*
X181535590Y-66436330D02*
X181535651Y-67533644D01*
X181535651Y-67533644D02*
X181535704Y-68666293D01*
X181535704Y-68666293D02*
X181535749Y-69834840D01*
X181535749Y-69834840D02*
X181535788Y-71039850D01*
X181535788Y-71039850D02*
X181535820Y-72281884D01*
X181535820Y-72281884D02*
X181535847Y-73561506D01*
X181535847Y-73561506D02*
X181535868Y-74879279D01*
X181535868Y-74879279D02*
X181535885Y-76235766D01*
X181535885Y-76235766D02*
X181535897Y-77631531D01*
X181535897Y-77631531D02*
X181535906Y-79067136D01*
X181535906Y-79067136D02*
X181535911Y-80543145D01*
X181535911Y-80543145D02*
X181535915Y-82060121D01*
X181535915Y-82060121D02*
X181535916Y-83618626D01*
X181535916Y-83618626D02*
X181535916Y-84296250D01*
X181535916Y-84296250D02*
X181535915Y-85872643D01*
X181535915Y-85872643D02*
X181535913Y-87407266D01*
X181535913Y-87407266D02*
X181535908Y-88900682D01*
X181535908Y-88900682D02*
X181535901Y-90353455D01*
X181535901Y-90353455D02*
X181535890Y-91766146D01*
X181535890Y-91766146D02*
X181535876Y-93139320D01*
X181535876Y-93139320D02*
X181535856Y-94473539D01*
X181535856Y-94473539D02*
X181535832Y-95769368D01*
X181535832Y-95769368D02*
X181535803Y-97027368D01*
X181535803Y-97027368D02*
X181535767Y-98248102D01*
X181535767Y-98248102D02*
X181535724Y-99432135D01*
X181535724Y-99432135D02*
X181535674Y-100580030D01*
X181535674Y-100580030D02*
X181535617Y-101692348D01*
X181535617Y-101692348D02*
X181535551Y-102769654D01*
X181535551Y-102769654D02*
X181535477Y-103812511D01*
X181535477Y-103812511D02*
X181535393Y-104821482D01*
X181535393Y-104821482D02*
X181535298Y-105797129D01*
X181535298Y-105797129D02*
X181535194Y-106740017D01*
X181535194Y-106740017D02*
X181535078Y-107650708D01*
X181535078Y-107650708D02*
X181534951Y-108529765D01*
X181534951Y-108529765D02*
X181534812Y-109377752D01*
X181534812Y-109377752D02*
X181534659Y-110195232D01*
X181534659Y-110195232D02*
X181534494Y-110982767D01*
X181534494Y-110982767D02*
X181534315Y-111740922D01*
X181534315Y-111740922D02*
X181534121Y-112470258D01*
X181534121Y-112470258D02*
X181533913Y-113171340D01*
X181533913Y-113171340D02*
X181533689Y-113844730D01*
X181533689Y-113844730D02*
X181533449Y-114490992D01*
X181533449Y-114490992D02*
X181533192Y-115110688D01*
X181533192Y-115110688D02*
X181532918Y-115704382D01*
X181532918Y-115704382D02*
X181532627Y-116272637D01*
X181532627Y-116272637D02*
X181532317Y-116816017D01*
X181532317Y-116816017D02*
X181531989Y-117335083D01*
X181531989Y-117335083D02*
X181531641Y-117830400D01*
X181531641Y-117830400D02*
X181531273Y-118302530D01*
X181531273Y-118302530D02*
X181530885Y-118752038D01*
X181530885Y-118752038D02*
X181530476Y-119179485D01*
X181530476Y-119179485D02*
X181530046Y-119585435D01*
X181530046Y-119585435D02*
X181529593Y-119970451D01*
X181529593Y-119970451D02*
X181529117Y-120335096D01*
X181529117Y-120335096D02*
X181528619Y-120679934D01*
X181528619Y-120679934D02*
X181528097Y-121005527D01*
X181528097Y-121005527D02*
X181527550Y-121312439D01*
X181527550Y-121312439D02*
X181526979Y-121601233D01*
X181526979Y-121601233D02*
X181526382Y-121872472D01*
X181526382Y-121872472D02*
X181525759Y-122126719D01*
X181525759Y-122126719D02*
X181525110Y-122364537D01*
X181525110Y-122364537D02*
X181524434Y-122586489D01*
X181524434Y-122586489D02*
X181523730Y-122793140D01*
X181523730Y-122793140D02*
X181522998Y-122985050D01*
X181522998Y-122985050D02*
X181522237Y-123162785D01*
X181522237Y-123162785D02*
X181521447Y-123326907D01*
X181521447Y-123326907D02*
X181520627Y-123477979D01*
X181520627Y-123477979D02*
X181519777Y-123616564D01*
X181519777Y-123616564D02*
X181518896Y-123743225D01*
X181518896Y-123743225D02*
X181517984Y-123858526D01*
X181517984Y-123858526D02*
X181517039Y-123963030D01*
X181517039Y-123963030D02*
X181516062Y-124057300D01*
X181516062Y-124057300D02*
X181515052Y-124141898D01*
X181515052Y-124141898D02*
X181514008Y-124217389D01*
X181514008Y-124217389D02*
X181512930Y-124284335D01*
X181512930Y-124284335D02*
X181511817Y-124343299D01*
X181511817Y-124343299D02*
X181510669Y-124394845D01*
X181510669Y-124394845D02*
X181509485Y-124439536D01*
X181509485Y-124439536D02*
X181508265Y-124477934D01*
X181508265Y-124477934D02*
X181507008Y-124510604D01*
X181507008Y-124510604D02*
X181505713Y-124538108D01*
X181505713Y-124538108D02*
X181504380Y-124561009D01*
X181504380Y-124561009D02*
X181503009Y-124579870D01*
X181503009Y-124579870D02*
X181501598Y-124595255D01*
X181501598Y-124595255D02*
X181500148Y-124607727D01*
X181500148Y-124607727D02*
X181498657Y-124617848D01*
X181498657Y-124617848D02*
X181497126Y-124626183D01*
X181497126Y-124626183D02*
X181496460Y-124629333D01*
X181496460Y-124629333D02*
X181395593Y-124995600D01*
X181395593Y-124995600D02*
X181259336Y-125339691D01*
X181259336Y-125339691D02*
X181089283Y-125660026D01*
X181089283Y-125660026D02*
X180887028Y-125955027D01*
X180887028Y-125955027D02*
X180654164Y-126223116D01*
X180654164Y-126223116D02*
X180392286Y-126462715D01*
X180392286Y-126462715D02*
X180102986Y-126672246D01*
X180102986Y-126672246D02*
X179787860Y-126850130D01*
X179787860Y-126850130D02*
X179448500Y-126994788D01*
X179448500Y-126994788D02*
X179086500Y-127104643D01*
X179086500Y-127104643D02*
X178969785Y-127131416D01*
X178969785Y-127131416D02*
X178741916Y-127179820D01*
X178741916Y-127179820D02*
X174699083Y-127186511D01*
X174699083Y-127186511D02*
X174152969Y-127187323D01*
X174152969Y-127187323D02*
X173648207Y-127187880D01*
X173648207Y-127187880D02*
X173183813Y-127188177D01*
X173183813Y-127188177D02*
X172758806Y-127188211D01*
X172758806Y-127188211D02*
X172372204Y-127187978D01*
X172372204Y-127187978D02*
X172023026Y-127187473D01*
X172023026Y-127187473D02*
X171710289Y-127186693D01*
X171710289Y-127186693D02*
X171433011Y-127185635D01*
X171433011Y-127185635D02*
X171190211Y-127184293D01*
X171190211Y-127184293D02*
X170980906Y-127182665D01*
X170980906Y-127182665D02*
X170804116Y-127180746D01*
X170804116Y-127180746D02*
X170658857Y-127178532D01*
X170658857Y-127178532D02*
X170544149Y-127176020D01*
X170544149Y-127176020D02*
X170459009Y-127173205D01*
X170459009Y-127173205D02*
X170402455Y-127170084D01*
X170402455Y-127170084D02*
X170394072Y-127169385D01*
X170394072Y-127169385D02*
X170029750Y-127115606D01*
X170029750Y-127115606D02*
X169678500Y-127022304D01*
X169678500Y-127022304D02*
X169342828Y-126890690D01*
X169342828Y-126890690D02*
X169025238Y-126721973D01*
X169025238Y-126721973D02*
X168728234Y-126517364D01*
X168728234Y-126517364D02*
X168454320Y-126278072D01*
X168454320Y-126278072D02*
X168368429Y-126190650D01*
X168368429Y-126190650D02*
X168286936Y-126101223D01*
X168286936Y-126101223D02*
X168204301Y-126005055D01*
X168204301Y-126005055D02*
X168132156Y-125915935D01*
X168132156Y-125915935D02*
X168095687Y-125867325D01*
X168095687Y-125867325D02*
X168070223Y-125828155D01*
X168070223Y-125828155D02*
X168025344Y-125755143D01*
X168025344Y-125755143D02*
X167962733Y-125651149D01*
X167962733Y-125651149D02*
X167884071Y-125519034D01*
X167884071Y-125519034D02*
X167791040Y-125361658D01*
X167791040Y-125361658D02*
X167685321Y-125181880D01*
X167685321Y-125181880D02*
X167568598Y-124982562D01*
X167568598Y-124982562D02*
X167442550Y-124766563D01*
X167442550Y-124766563D02*
X167308862Y-124536744D01*
X167308862Y-124536744D02*
X167169213Y-124295965D01*
X167169213Y-124295965D02*
X167025287Y-124047086D01*
X167025287Y-124047086D02*
X167020871Y-124039440D01*
X167020871Y-124039440D02*
X166877131Y-123790731D01*
X166877131Y-123790731D02*
X166737890Y-123550259D01*
X166737890Y-123550259D02*
X166604804Y-123320858D01*
X166604804Y-123320858D02*
X166479529Y-123105360D01*
X166479529Y-123105360D02*
X166363719Y-122906600D01*
X166363719Y-122906600D02*
X166259031Y-122727410D01*
X166259031Y-122727410D02*
X166167119Y-122570623D01*
X166167119Y-122570623D02*
X166089639Y-122439074D01*
X166089639Y-122439074D02*
X166028247Y-122335595D01*
X166028247Y-122335595D02*
X165984598Y-122263020D01*
X165984598Y-122263020D02*
X165960347Y-122224182D01*
X165960347Y-122224182D02*
X165959787Y-122223345D01*
X165959787Y-122223345D02*
X165741884Y-121936748D01*
X165741884Y-121936748D02*
X165494295Y-121680003D01*
X165494295Y-121680003D02*
X165217992Y-121453769D01*
X165217992Y-121453769D02*
X164913948Y-121258707D01*
X164913948Y-121258707D02*
X164583136Y-121095478D01*
X164583136Y-121095478D02*
X164226528Y-120964740D01*
X164226528Y-120964740D02*
X164020661Y-120907152D01*
X164020661Y-120907152D02*
X163798250Y-120851340D01*
X163798250Y-120851340D02*
X137212916Y-120845250D01*
X137212916Y-120845250D02*
X135818560Y-120844943D01*
X135818560Y-120844943D02*
X134466162Y-120844669D01*
X134466162Y-120844669D02*
X133155346Y-120844429D01*
X133155346Y-120844429D02*
X131885736Y-120844224D01*
X131885736Y-120844224D02*
X130656958Y-120844053D01*
X130656958Y-120844053D02*
X129468635Y-120843917D01*
X129468635Y-120843917D02*
X128320393Y-120843816D01*
X128320393Y-120843816D02*
X127211855Y-120843750D01*
X127211855Y-120843750D02*
X126142645Y-120843719D01*
X126142645Y-120843719D02*
X125112390Y-120843724D01*
X125112390Y-120843724D02*
X124120712Y-120843765D01*
X124120712Y-120843765D02*
X123167236Y-120843843D01*
X123167236Y-120843843D02*
X122251587Y-120843956D01*
X122251587Y-120843956D02*
X121373389Y-120844106D01*
X121373389Y-120844106D02*
X120532267Y-120844294D01*
X120532267Y-120844294D02*
X119727845Y-120844518D01*
X119727845Y-120844518D02*
X118959748Y-120844779D01*
X118959748Y-120844779D02*
X118227600Y-120845079D01*
X118227600Y-120845079D02*
X117531025Y-120845416D01*
X117531025Y-120845416D02*
X116869648Y-120845791D01*
X116869648Y-120845791D02*
X116243093Y-120846204D01*
X116243093Y-120846204D02*
X115650986Y-120846656D01*
X115650986Y-120846656D02*
X115092949Y-120847147D01*
X115092949Y-120847147D02*
X114568608Y-120847676D01*
X114568608Y-120847676D02*
X114077588Y-120848245D01*
X114077588Y-120848245D02*
X113619512Y-120848854D01*
X113619512Y-120848854D02*
X113194005Y-120849502D01*
X113194005Y-120849502D02*
X112800692Y-120850190D01*
X112800692Y-120850190D02*
X112439196Y-120850919D01*
X112439196Y-120850919D02*
X112109144Y-120851688D01*
X112109144Y-120851688D02*
X111810158Y-120852497D01*
X111810158Y-120852497D02*
X111541863Y-120853348D01*
X111541863Y-120853348D02*
X111303884Y-120854239D01*
X111303884Y-120854239D02*
X111095846Y-120855172D01*
X111095846Y-120855172D02*
X110917372Y-120856147D01*
X110917372Y-120856147D02*
X110768088Y-120857164D01*
X110768088Y-120857164D02*
X110647617Y-120858222D01*
X110647617Y-120858222D02*
X110555584Y-120859323D01*
X110555584Y-120859323D02*
X110491613Y-120860467D01*
X110491613Y-120860467D02*
X110455330Y-120861653D01*
X110455330Y-120861653D02*
X110447666Y-120862235D01*
X110447666Y-120862235D02*
X110092158Y-120928732D01*
X110092158Y-120928732D02*
X109749132Y-121034395D01*
X109749132Y-121034395D02*
X109421724Y-121177263D01*
X109421724Y-121177263D02*
X109113068Y-121355373D01*
X109113068Y-121355373D02*
X108826300Y-121566765D01*
X108826300Y-121566765D02*
X108564557Y-121809477D01*
X108564557Y-121809477D02*
X108330973Y-122081548D01*
X108330973Y-122081548D02*
X108198310Y-122269250D01*
X108198310Y-122269250D02*
X108173365Y-122309589D01*
X108173365Y-122309589D02*
X108129013Y-122383704D01*
X108129013Y-122383704D02*
X108066956Y-122488673D01*
X108066956Y-122488673D02*
X107988897Y-122621577D01*
X107988897Y-122621577D02*
X107896540Y-122779496D01*
X107896540Y-122779496D02*
X107791585Y-122959510D01*
X107791585Y-122959510D02*
X107675737Y-123158700D01*
X107675737Y-123158700D02*
X107550698Y-123374145D01*
X107550698Y-123374145D02*
X107418170Y-123602926D01*
X107418170Y-123602926D02*
X107279857Y-123842123D01*
X107279857Y-123842123D02*
X107155330Y-124057833D01*
X107155330Y-124057833D02*
X107014220Y-124302273D01*
X107014220Y-124302273D02*
X106878045Y-124537808D01*
X106878045Y-124537808D02*
X106748435Y-124761638D01*
X106748435Y-124761638D02*
X106627023Y-124970959D01*
X106627023Y-124970959D02*
X106515440Y-125162969D01*
X106515440Y-125162969D02*
X106415320Y-125334866D01*
X106415320Y-125334866D02*
X106328292Y-125483848D01*
X106328292Y-125483848D02*
X106255991Y-125607113D01*
X106255991Y-125607113D02*
X106200047Y-125701858D01*
X106200047Y-125701858D02*
X106162093Y-125765281D01*
X106162093Y-125765281D02*
X106144506Y-125793500D01*
X106144506Y-125793500D02*
X105925202Y-126079957D01*
X105925202Y-126079957D02*
X105676496Y-126337235D01*
X105676496Y-126337235D02*
X105401110Y-126563724D01*
X105401110Y-126563724D02*
X105101765Y-126757815D01*
X105101765Y-126757815D02*
X104781183Y-126917900D01*
X104781183Y-126917900D02*
X104442086Y-127042369D01*
X104442086Y-127042369D02*
X104087197Y-127129615D01*
X104087197Y-127129615D02*
X103817320Y-127169127D01*
X103817320Y-127169127D02*
X103775488Y-127171281D01*
X103775488Y-127171281D02*
X103693898Y-127173298D01*
X103693898Y-127173298D02*
X103575122Y-127175179D01*
X103575122Y-127175179D02*
X103421736Y-127176923D01*
X103421736Y-127176923D02*
X103236312Y-127178531D01*
X103236312Y-127178531D02*
X103021426Y-127180002D01*
X103021426Y-127180002D02*
X102779652Y-127181338D01*
X102779652Y-127181338D02*
X102513562Y-127182537D01*
X102513562Y-127182537D02*
X102225732Y-127183600D01*
X102225732Y-127183600D02*
X101918736Y-127184528D01*
X101918736Y-127184528D02*
X101595147Y-127185319D01*
X101595147Y-127185319D02*
X101257540Y-127185975D01*
X101257540Y-127185975D02*
X100908489Y-127186495D01*
X100908489Y-127186495D02*
X100550568Y-127186880D01*
X100550568Y-127186880D02*
X100186350Y-127187129D01*
X100186350Y-127187129D02*
X99818410Y-127187243D01*
X99818410Y-127187243D02*
X99449323Y-127187222D01*
X99449323Y-127187222D02*
X99081661Y-127187065D01*
X99081661Y-127187065D02*
X98718000Y-127186774D01*
X98718000Y-127186774D02*
X98360913Y-127186348D01*
X98360913Y-127186348D02*
X98012974Y-127185787D01*
X98012974Y-127185787D02*
X97676758Y-127185091D01*
X97676758Y-127185091D02*
X97354838Y-127184260D01*
X97354838Y-127184260D02*
X97049789Y-127183295D01*
X97049789Y-127183295D02*
X96764184Y-127182196D01*
X96764184Y-127182196D02*
X96500599Y-127180962D01*
X96500599Y-127180962D02*
X96261605Y-127179594D01*
X96261605Y-127179594D02*
X96049779Y-127178091D01*
X96049779Y-127178091D02*
X95867694Y-127176455D01*
X95867694Y-127176455D02*
X95717923Y-127174685D01*
X95717923Y-127174685D02*
X95603042Y-127172781D01*
X95603042Y-127172781D02*
X95525623Y-127170743D01*
X95525623Y-127170743D02*
X95490282Y-127168813D01*
X95490282Y-127168813D02*
X95126967Y-127109867D01*
X95126967Y-127109867D02*
X94778276Y-127012040D01*
X94778276Y-127012040D02*
X94446567Y-126876968D01*
X94446567Y-126876968D02*
X94134198Y-126706287D01*
X94134198Y-126706287D02*
X93843526Y-126501633D01*
X93843526Y-126501633D02*
X93576910Y-126264642D01*
X93576910Y-126264642D02*
X93336707Y-125996951D01*
X93336707Y-125996951D02*
X93125275Y-125700196D01*
X93125275Y-125700196D02*
X92964996Y-125416524D01*
X92964996Y-125416524D02*
X92848312Y-125157376D01*
X92848312Y-125157376D02*
X92759162Y-124895661D01*
X92759162Y-124895661D02*
X92694313Y-124619837D01*
X92694313Y-124619837D02*
X92650530Y-124318363D01*
X92650530Y-124318363D02*
X92646555Y-124280083D01*
X92646555Y-124280083D02*
X92645564Y-124256949D01*
X92645564Y-124256949D02*
X92644602Y-124207469D01*
X92644602Y-124207469D02*
X92643668Y-124131318D01*
X92643668Y-124131318D02*
X92642763Y-124028172D01*
X92642763Y-124028172D02*
X92641886Y-123897704D01*
X92641886Y-123897704D02*
X92641038Y-123739591D01*
X92641038Y-123739591D02*
X92640217Y-123553506D01*
X92640217Y-123553506D02*
X92639425Y-123339126D01*
X92639425Y-123339126D02*
X92638660Y-123096125D01*
X92638660Y-123096125D02*
X92637923Y-122824178D01*
X92637923Y-122824178D02*
X92637214Y-122522960D01*
X92637214Y-122522960D02*
X92636531Y-122192146D01*
X92636531Y-122192146D02*
X92635877Y-121831411D01*
X92635877Y-121831411D02*
X92635249Y-121440431D01*
X92635249Y-121440431D02*
X92634648Y-121018879D01*
X92634648Y-121018879D02*
X92634074Y-120566432D01*
X92634074Y-120566432D02*
X92633527Y-120082764D01*
X92633527Y-120082764D02*
X92633007Y-119567550D01*
X92633007Y-119567550D02*
X92632512Y-119020465D01*
X92632512Y-119020465D02*
X92632045Y-118441184D01*
X92632045Y-118441184D02*
X92631603Y-117829383D01*
X92631603Y-117829383D02*
X92631187Y-117184735D01*
X92631187Y-117184735D02*
X92630953Y-116776152D01*
X92630953Y-116776152D02*
X104759599Y-116776152D01*
X104759599Y-116776152D02*
X104761993Y-116944748D01*
X104761993Y-116944748D02*
X104796754Y-117101501D01*
X104796754Y-117101501D02*
X104869424Y-117267239D01*
X104869424Y-117267239D02*
X104976408Y-117413618D01*
X104976408Y-117413618D02*
X105111930Y-117534875D01*
X105111930Y-117534875D02*
X105270212Y-117625249D01*
X105270212Y-117625249D02*
X105352554Y-117655959D01*
X105352554Y-117655959D02*
X105370166Y-117659379D01*
X105370166Y-117659379D02*
X105401286Y-117662528D01*
X105401286Y-117662528D02*
X105447508Y-117665416D01*
X105447508Y-117665416D02*
X105510426Y-117668056D01*
X105510426Y-117668056D02*
X105591636Y-117670457D01*
X105591636Y-117670457D02*
X105692731Y-117672631D01*
X105692731Y-117672631D02*
X105815307Y-117674588D01*
X105815307Y-117674588D02*
X105960957Y-117676341D01*
X105960957Y-117676341D02*
X106131277Y-117677899D01*
X106131277Y-117677899D02*
X106327861Y-117679274D01*
X106327861Y-117679274D02*
X106552303Y-117680478D01*
X106552303Y-117680478D02*
X106806199Y-117681520D01*
X106806199Y-117681520D02*
X107091143Y-117682412D01*
X107091143Y-117682412D02*
X107408729Y-117683166D01*
X107408729Y-117683166D02*
X107760552Y-117683791D01*
X107760552Y-117683791D02*
X108148206Y-117684300D01*
X108148206Y-117684300D02*
X108573287Y-117684703D01*
X108573287Y-117684703D02*
X109037388Y-117685011D01*
X109037388Y-117685011D02*
X109542105Y-117685236D01*
X109542105Y-117685236D02*
X109582895Y-117685250D01*
X109582895Y-117685250D02*
X110075044Y-117685412D01*
X110075044Y-117685412D02*
X110526665Y-117685534D01*
X110526665Y-117685534D02*
X110939562Y-117685601D01*
X110939562Y-117685601D02*
X111315540Y-117685594D01*
X111315540Y-117685594D02*
X111656405Y-117685497D01*
X111656405Y-117685497D02*
X111963960Y-117685293D01*
X111963960Y-117685293D02*
X112240012Y-117684964D01*
X112240012Y-117684964D02*
X112486364Y-117684493D01*
X112486364Y-117684493D02*
X112704822Y-117683863D01*
X112704822Y-117683863D02*
X112897190Y-117683057D01*
X112897190Y-117683057D02*
X113065273Y-117682059D01*
X113065273Y-117682059D02*
X113210877Y-117680850D01*
X113210877Y-117680850D02*
X113335806Y-117679413D01*
X113335806Y-117679413D02*
X113441864Y-117677732D01*
X113441864Y-117677732D02*
X113530858Y-117675790D01*
X113530858Y-117675790D02*
X113604591Y-117673569D01*
X113604591Y-117673569D02*
X113664868Y-117671052D01*
X113664868Y-117671052D02*
X113713495Y-117668222D01*
X113713495Y-117668222D02*
X113752276Y-117665061D01*
X113752276Y-117665061D02*
X113783017Y-117661554D01*
X113783017Y-117661554D02*
X113807521Y-117657682D01*
X113807521Y-117657682D02*
X113827594Y-117653429D01*
X113827594Y-117653429D02*
X113845041Y-117648777D01*
X113845041Y-117648777D02*
X113858562Y-117644682D01*
X113858562Y-117644682D02*
X114013915Y-117575293D01*
X114013915Y-117575293D02*
X114154489Y-117472212D01*
X114154489Y-117472212D02*
X114272813Y-117343023D01*
X114272813Y-117343023D02*
X114361415Y-117195310D01*
X114361415Y-117195310D02*
X114398472Y-117096629D01*
X114398472Y-117096629D02*
X114423761Y-116955362D01*
X114423761Y-116955362D02*
X114425206Y-116828860D01*
X114425206Y-116828860D02*
X132260307Y-116828860D01*
X132260307Y-116828860D02*
X132268317Y-116986366D01*
X132268317Y-116986366D02*
X132298593Y-117129173D01*
X132298593Y-117129173D02*
X132310466Y-117162720D01*
X132310466Y-117162720D02*
X132368749Y-117273155D01*
X132368749Y-117273155D02*
X132453908Y-117386763D01*
X132453908Y-117386763D02*
X132554026Y-117489764D01*
X132554026Y-117489764D02*
X132657187Y-117568380D01*
X132657187Y-117568380D02*
X132665663Y-117573467D01*
X132665663Y-117573467D02*
X132686971Y-117586428D01*
X132686971Y-117586428D02*
X132706010Y-117598340D01*
X132706010Y-117598340D02*
X132724562Y-117609244D01*
X132724562Y-117609244D02*
X132744411Y-117619185D01*
X132744411Y-117619185D02*
X132767338Y-117628204D01*
X132767338Y-117628204D02*
X132795126Y-117636343D01*
X132795126Y-117636343D02*
X132829559Y-117643646D01*
X132829559Y-117643646D02*
X132872417Y-117650155D01*
X132872417Y-117650155D02*
X132925484Y-117655913D01*
X132925484Y-117655913D02*
X132990543Y-117660962D01*
X132990543Y-117660962D02*
X133069375Y-117665345D01*
X133069375Y-117665345D02*
X133163764Y-117669104D01*
X133163764Y-117669104D02*
X133275492Y-117672282D01*
X133275492Y-117672282D02*
X133406341Y-117674921D01*
X133406341Y-117674921D02*
X133558094Y-117677065D01*
X133558094Y-117677065D02*
X133732534Y-117678756D01*
X133732534Y-117678756D02*
X133931442Y-117680036D01*
X133931442Y-117680036D02*
X134156602Y-117680948D01*
X134156602Y-117680948D02*
X134409796Y-117681534D01*
X134409796Y-117681534D02*
X134692807Y-117681838D01*
X134692807Y-117681838D02*
X135007417Y-117681901D01*
X135007417Y-117681901D02*
X135355409Y-117681766D01*
X135355409Y-117681766D02*
X135738564Y-117681477D01*
X135738564Y-117681477D02*
X136158667Y-117681075D01*
X136158667Y-117681075D02*
X136617498Y-117680602D01*
X136617498Y-117680602D02*
X137116842Y-117680103D01*
X137116842Y-117680103D02*
X137128250Y-117680092D01*
X137128250Y-117680092D02*
X141319250Y-117676083D01*
X141319250Y-117676083D02*
X141439735Y-117616916D01*
X141439735Y-117616916D02*
X141598144Y-117518295D01*
X141598144Y-117518295D02*
X141725586Y-117396605D01*
X141725586Y-117396605D02*
X141822059Y-117256923D01*
X141822059Y-117256923D02*
X141887561Y-117104324D01*
X141887561Y-117104324D02*
X141922091Y-116943886D01*
X141922091Y-116943886D02*
X141925646Y-116780685D01*
X141925646Y-116780685D02*
X141922854Y-116764301D01*
X141922854Y-116764301D02*
X159757166Y-116764301D01*
X159757166Y-116764301D02*
X159757295Y-116934257D01*
X159757295Y-116934257D02*
X159792741Y-117102887D01*
X159792741Y-117102887D02*
X159864613Y-117264834D01*
X159864613Y-117264834D02*
X159972163Y-117412679D01*
X159972163Y-117412679D02*
X160106621Y-117534720D01*
X160106621Y-117534720D02*
X160257564Y-117622484D01*
X160257564Y-117622484D02*
X160357171Y-117657856D01*
X160357171Y-117657856D02*
X160377668Y-117661096D01*
X160377668Y-117661096D02*
X160415195Y-117664059D01*
X160415195Y-117664059D02*
X160471224Y-117666755D01*
X160471224Y-117666755D02*
X160547226Y-117669189D01*
X160547226Y-117669189D02*
X160644673Y-117671370D01*
X160644673Y-117671370D02*
X160765038Y-117673306D01*
X160765038Y-117673306D02*
X160909793Y-117675004D01*
X160909793Y-117675004D02*
X161080409Y-117676472D01*
X161080409Y-117676472D02*
X161278359Y-117677718D01*
X161278359Y-117677718D02*
X161505114Y-117678748D01*
X161505114Y-117678748D02*
X161762147Y-117679571D01*
X161762147Y-117679571D02*
X162050930Y-117680195D01*
X162050930Y-117680195D02*
X162372934Y-117680627D01*
X162372934Y-117680627D02*
X162729632Y-117680874D01*
X162729632Y-117680874D02*
X163122496Y-117680945D01*
X163122496Y-117680945D02*
X163552997Y-117680846D01*
X163552997Y-117680846D02*
X164022608Y-117680587D01*
X164022608Y-117680587D02*
X164532800Y-117680174D01*
X164532800Y-117680174D02*
X164634333Y-117680078D01*
X164634333Y-117680078D02*
X168814750Y-117676083D01*
X168814750Y-117676083D02*
X168954219Y-117607835D01*
X168954219Y-117607835D02*
X169104845Y-117512314D01*
X169104845Y-117512314D02*
X169231040Y-117388365D01*
X169231040Y-117388365D02*
X169329339Y-117242554D01*
X169329339Y-117242554D02*
X169396277Y-117081448D01*
X169396277Y-117081448D02*
X169428387Y-116911613D01*
X169428387Y-116911613D02*
X169422205Y-116739615D01*
X169422205Y-116739615D02*
X169419886Y-116725581D01*
X169419886Y-116725581D02*
X169367959Y-116544953D01*
X169367959Y-116544953D02*
X169280802Y-116380971D01*
X169280802Y-116380971D02*
X169162894Y-116239592D01*
X169162894Y-116239592D02*
X169018715Y-116126774D01*
X169018715Y-116126774D02*
X168935782Y-116081811D01*
X168935782Y-116081811D02*
X168814750Y-116025083D01*
X168814750Y-116025083D02*
X160369250Y-116025083D01*
X160369250Y-116025083D02*
X160247485Y-116082146D01*
X160247485Y-116082146D02*
X160087655Y-116178368D01*
X160087655Y-116178368D02*
X159957600Y-116300052D01*
X159957600Y-116300052D02*
X159858428Y-116441841D01*
X159858428Y-116441841D02*
X159791247Y-116598376D01*
X159791247Y-116598376D02*
X159757166Y-116764301D01*
X159757166Y-116764301D02*
X141922854Y-116764301D01*
X141922854Y-116764301D02*
X141898225Y-116619799D01*
X141898225Y-116619799D02*
X141839825Y-116466304D01*
X141839825Y-116466304D02*
X141750446Y-116325276D01*
X141750446Y-116325276D02*
X141630085Y-116201794D01*
X141630085Y-116201794D02*
X141478741Y-116100932D01*
X141478741Y-116100932D02*
X141440282Y-116081811D01*
X141440282Y-116081811D02*
X141319250Y-116025083D01*
X141319250Y-116025083D02*
X132873750Y-116025083D01*
X132873750Y-116025083D02*
X132740980Y-116086396D01*
X132740980Y-116086396D02*
X132615965Y-116161958D01*
X132615965Y-116161958D02*
X132496856Y-116266099D01*
X132496856Y-116266099D02*
X132394795Y-116387143D01*
X132394795Y-116387143D02*
X132320921Y-116513416D01*
X132320921Y-116513416D02*
X132311023Y-116536956D01*
X132311023Y-116536956D02*
X132274547Y-116673457D01*
X132274547Y-116673457D02*
X132260307Y-116828860D01*
X132260307Y-116828860D02*
X114425206Y-116828860D01*
X114425206Y-116828860D02*
X114425537Y-116799971D01*
X114425537Y-116799971D02*
X114405009Y-116646630D01*
X114405009Y-116646630D02*
X114363384Y-116511509D01*
X114363384Y-116511509D02*
X114353096Y-116489038D01*
X114353096Y-116489038D02*
X114265853Y-116351181D01*
X114265853Y-116351181D02*
X114148676Y-116224837D01*
X114148676Y-116224837D02*
X114013956Y-116122378D01*
X114013956Y-116122378D02*
X113950750Y-116087283D01*
X113950750Y-116087283D02*
X113823750Y-116025083D01*
X113823750Y-116025083D02*
X105378250Y-116025083D01*
X105378250Y-116025083D02*
X105255532Y-116082582D01*
X105255532Y-116082582D02*
X105088568Y-116181715D01*
X105088568Y-116181715D02*
X104954701Y-116307220D01*
X104954701Y-116307220D02*
X104853756Y-116459296D01*
X104853756Y-116459296D02*
X104795635Y-116603285D01*
X104795635Y-116603285D02*
X104759599Y-116776152D01*
X104759599Y-116776152D02*
X92630953Y-116776152D01*
X92630953Y-116776152D02*
X92630798Y-116506917D01*
X92630798Y-116506917D02*
X92630433Y-115795603D01*
X92630433Y-115795603D02*
X92630095Y-115050468D01*
X92630095Y-115050468D02*
X92629782Y-114271188D01*
X92629782Y-114271188D02*
X92629495Y-113457436D01*
X92629495Y-113457436D02*
X92629232Y-112608889D01*
X92629232Y-112608889D02*
X92628995Y-111725221D01*
X92628995Y-111725221D02*
X92628783Y-110806107D01*
X92628783Y-110806107D02*
X92628595Y-109851222D01*
X92628595Y-109851222D02*
X92628432Y-108860242D01*
X92628432Y-108860242D02*
X92628294Y-107832840D01*
X92628294Y-107832840D02*
X92628180Y-106768693D01*
X92628180Y-106768693D02*
X92628090Y-105667475D01*
X92628090Y-105667475D02*
X92628024Y-104528862D01*
X92628024Y-104528862D02*
X92627982Y-103352527D01*
X92627982Y-103352527D02*
X92627965Y-102138147D01*
X92627965Y-102138147D02*
X92627970Y-100885396D01*
X92627970Y-100885396D02*
X92628000Y-99593949D01*
X92628000Y-99593949D02*
X92628052Y-98263482D01*
X92628052Y-98263482D02*
X92628129Y-96893668D01*
X92628129Y-96893668D02*
X92628228Y-95484184D01*
X92628228Y-95484184D02*
X92628350Y-94034705D01*
X92628350Y-94034705D02*
X92628495Y-92544904D01*
X92628495Y-92544904D02*
X92628663Y-91014458D01*
X92628663Y-91014458D02*
X92628853Y-89443041D01*
X92628853Y-89443041D02*
X92629066Y-87830328D01*
X92629066Y-87830328D02*
X92629301Y-86175995D01*
X92629301Y-86175995D02*
X92629559Y-84479716D01*
X92629559Y-84479716D02*
X92629611Y-84148083D01*
X92629611Y-84148083D02*
X92629860Y-82576322D01*
X92629860Y-82576322D02*
X92630081Y-81191843D01*
X92630081Y-81191843D02*
X104761381Y-81191843D01*
X104761381Y-81191843D02*
X104789763Y-81350049D01*
X104789763Y-81350049D02*
X104847882Y-81500895D01*
X104847882Y-81500895D02*
X104935358Y-81639439D01*
X104935358Y-81639439D02*
X105051811Y-81760735D01*
X105051811Y-81760735D02*
X105196859Y-81859841D01*
X105196859Y-81859841D02*
X105357083Y-81927761D01*
X105357083Y-81927761D02*
X105374943Y-81931060D01*
X105374943Y-81931060D02*
X105407927Y-81934079D01*
X105407927Y-81934079D02*
X105457567Y-81936827D01*
X105457567Y-81936827D02*
X105525395Y-81939312D01*
X105525395Y-81939312D02*
X105612946Y-81941541D01*
X105612946Y-81941541D02*
X105721752Y-81943524D01*
X105721752Y-81943524D02*
X105853346Y-81945269D01*
X105853346Y-81945269D02*
X106009261Y-81946783D01*
X106009261Y-81946783D02*
X106191030Y-81948075D01*
X106191030Y-81948075D02*
X106400186Y-81949154D01*
X106400186Y-81949154D02*
X106638262Y-81950027D01*
X106638262Y-81950027D02*
X106906791Y-81950703D01*
X106906791Y-81950703D02*
X107207305Y-81951189D01*
X107207305Y-81951189D02*
X107541338Y-81951495D01*
X107541338Y-81951495D02*
X107910424Y-81951629D01*
X107910424Y-81951629D02*
X108316093Y-81951598D01*
X108316093Y-81951598D02*
X108759881Y-81951411D01*
X108759881Y-81951411D02*
X109243319Y-81951076D01*
X109243319Y-81951076D02*
X109632750Y-81950732D01*
X109632750Y-81950732D02*
X113823750Y-81946750D01*
X113823750Y-81946750D02*
X113945844Y-81889535D01*
X113945844Y-81889535D02*
X114067370Y-81815414D01*
X114067370Y-81815414D02*
X114185037Y-81713210D01*
X114185037Y-81713210D02*
X114286325Y-81595478D01*
X114286325Y-81595478D02*
X114358072Y-81476177D01*
X114358072Y-81476177D02*
X114400090Y-81348247D01*
X114400090Y-81348247D02*
X114422840Y-81198963D01*
X114422840Y-81198963D02*
X114424870Y-81065936D01*
X114424870Y-81065936D02*
X159754912Y-81065936D01*
X159754912Y-81065936D02*
X159759272Y-81241137D01*
X159759272Y-81241137D02*
X159801591Y-81414185D01*
X159801591Y-81414185D02*
X159833228Y-81489071D01*
X159833228Y-81489071D02*
X159920502Y-81626293D01*
X159920502Y-81626293D02*
X160039319Y-81750249D01*
X160039319Y-81750249D02*
X160179095Y-81851865D01*
X160179095Y-81851865D02*
X160329247Y-81922063D01*
X160329247Y-81922063D02*
X160343554Y-81926732D01*
X160343554Y-81926732D02*
X160360815Y-81930131D01*
X160360815Y-81930131D02*
X160391063Y-81933243D01*
X160391063Y-81933243D02*
X160435898Y-81936076D01*
X160435898Y-81936076D02*
X160496920Y-81938640D01*
X160496920Y-81938640D02*
X160575727Y-81940944D01*
X160575727Y-81940944D02*
X160673921Y-81942997D01*
X160673921Y-81942997D02*
X160793099Y-81944807D01*
X160793099Y-81944807D02*
X160934862Y-81946384D01*
X160934862Y-81946384D02*
X161100809Y-81947737D01*
X161100809Y-81947737D02*
X161292540Y-81948875D01*
X161292540Y-81948875D02*
X161511654Y-81949806D01*
X161511654Y-81949806D02*
X161759751Y-81950539D01*
X161759751Y-81950539D02*
X162038430Y-81951084D01*
X162038430Y-81951084D02*
X162349290Y-81951450D01*
X162349290Y-81951450D02*
X162693932Y-81951645D01*
X162693932Y-81951645D02*
X163073955Y-81951679D01*
X163073955Y-81951679D02*
X163490958Y-81951560D01*
X163490958Y-81951560D02*
X163946541Y-81951297D01*
X163946541Y-81951297D02*
X164442304Y-81950900D01*
X164442304Y-81950900D02*
X164623750Y-81950732D01*
X164623750Y-81950732D02*
X168814750Y-81946750D01*
X168814750Y-81946750D02*
X168935782Y-81890022D01*
X168935782Y-81890022D02*
X169087091Y-81797773D01*
X169087091Y-81797773D02*
X169215362Y-81676952D01*
X169215362Y-81676952D02*
X169317025Y-81534166D01*
X169317025Y-81534166D02*
X169388510Y-81376021D01*
X169388510Y-81376021D02*
X169426246Y-81209124D01*
X169426246Y-81209124D02*
X169426665Y-81040082D01*
X169426665Y-81040082D02*
X169419793Y-80994262D01*
X169419793Y-80994262D02*
X169365880Y-80808619D01*
X169365880Y-80808619D02*
X169278564Y-80645356D01*
X169278564Y-80645356D02*
X169160975Y-80508028D01*
X169160975Y-80508028D02*
X169016244Y-80400188D01*
X169016244Y-80400188D02*
X168847502Y-80325389D01*
X168847502Y-80325389D02*
X168824313Y-80318377D01*
X168824313Y-80318377D02*
X168807437Y-80314356D01*
X168807437Y-80314356D02*
X168784841Y-80310673D01*
X168784841Y-80310673D02*
X168754763Y-80307318D01*
X168754763Y-80307318D02*
X168715441Y-80304279D01*
X168715441Y-80304279D02*
X168665110Y-80301544D01*
X168665110Y-80301544D02*
X168602008Y-80299101D01*
X168602008Y-80299101D02*
X168524372Y-80296940D01*
X168524372Y-80296940D02*
X168430439Y-80295048D01*
X168430439Y-80295048D02*
X168318447Y-80293414D01*
X168318447Y-80293414D02*
X168186631Y-80292026D01*
X168186631Y-80292026D02*
X168033230Y-80290873D01*
X168033230Y-80290873D02*
X167856480Y-80289942D01*
X167856480Y-80289942D02*
X167654618Y-80289224D01*
X167654618Y-80289224D02*
X167425882Y-80288705D01*
X167425882Y-80288705D02*
X167168508Y-80288374D01*
X167168508Y-80288374D02*
X166880734Y-80288221D01*
X166880734Y-80288221D02*
X166560796Y-80288232D01*
X166560796Y-80288232D02*
X166206932Y-80288397D01*
X166206932Y-80288397D02*
X165817378Y-80288704D01*
X165817378Y-80288704D02*
X165390372Y-80289141D01*
X165390372Y-80289141D02*
X164924151Y-80289697D01*
X164924151Y-80289697D02*
X164538063Y-80290198D01*
X164538063Y-80290198D02*
X160369250Y-80295750D01*
X160369250Y-80295750D02*
X160229780Y-80363997D01*
X160229780Y-80363997D02*
X160075512Y-80461522D01*
X160075512Y-80461522D02*
X159948813Y-80586374D01*
X159948813Y-80586374D02*
X159851762Y-80732658D01*
X159851762Y-80732658D02*
X159786435Y-80894478D01*
X159786435Y-80894478D02*
X159754912Y-81065936D01*
X159754912Y-81065936D02*
X114424870Y-81065936D01*
X114424870Y-81065936D02*
X114425186Y-81045229D01*
X114425186Y-81045229D02*
X114405991Y-80903946D01*
X114405991Y-80903946D02*
X114398472Y-80875203D01*
X114398472Y-80875203D02*
X114332085Y-80719122D01*
X114332085Y-80719122D02*
X114231267Y-80577265D01*
X114231267Y-80577265D02*
X114103375Y-80457060D01*
X114103375Y-80457060D02*
X113955764Y-80365939D01*
X113955764Y-80365939D02*
X113855500Y-80326670D01*
X113855500Y-80326670D02*
X113838624Y-80321672D01*
X113838624Y-80321672D02*
X113820763Y-80317088D01*
X113820763Y-80317088D02*
X113800116Y-80312903D01*
X113800116Y-80312903D02*
X113774886Y-80309102D01*
X113774886Y-80309102D02*
X113743272Y-80305669D01*
X113743272Y-80305669D02*
X113703474Y-80302589D01*
X113703474Y-80302589D02*
X113653694Y-80299847D01*
X113653694Y-80299847D02*
X113592132Y-80297428D01*
X113592132Y-80297428D02*
X113516988Y-80295315D01*
X113516988Y-80295315D02*
X113426463Y-80293495D01*
X113426463Y-80293495D02*
X113318758Y-80291952D01*
X113318758Y-80291952D02*
X113192074Y-80290670D01*
X113192074Y-80290670D02*
X113044610Y-80289634D01*
X113044610Y-80289634D02*
X112874567Y-80288829D01*
X112874567Y-80288829D02*
X112680146Y-80288240D01*
X112680146Y-80288240D02*
X112459548Y-80287851D01*
X112459548Y-80287851D02*
X112210973Y-80287647D01*
X112210973Y-80287647D02*
X111932621Y-80287613D01*
X111932621Y-80287613D02*
X111622694Y-80287734D01*
X111622694Y-80287734D02*
X111279391Y-80287993D01*
X111279391Y-80287993D02*
X110900914Y-80288377D01*
X110900914Y-80288377D02*
X110485462Y-80288870D01*
X110485462Y-80288870D02*
X110031237Y-80289456D01*
X110031237Y-80289456D02*
X109547633Y-80290105D01*
X109547633Y-80290105D02*
X105377350Y-80295750D01*
X105377350Y-80295750D02*
X105236858Y-80364916D01*
X105236858Y-80364916D02*
X105078832Y-80463458D01*
X105078832Y-80463458D02*
X104952826Y-80584303D01*
X104952826Y-80584303D02*
X104858458Y-80722508D01*
X104858458Y-80722508D02*
X104795348Y-80873129D01*
X104795348Y-80873129D02*
X104763115Y-81031222D01*
X104763115Y-81031222D02*
X104761381Y-81191843D01*
X104761381Y-81191843D02*
X92630081Y-81191843D01*
X92630081Y-81191843D02*
X92630105Y-81046330D01*
X92630105Y-81046330D02*
X92630345Y-79557541D01*
X92630345Y-79557541D02*
X92630583Y-78109391D01*
X92630583Y-78109391D02*
X92630818Y-76701315D01*
X92630818Y-76701315D02*
X92631050Y-75332748D01*
X92631050Y-75332748D02*
X92631281Y-74003125D01*
X92631281Y-74003125D02*
X92631512Y-72711881D01*
X92631512Y-72711881D02*
X92631742Y-71458452D01*
X92631742Y-71458452D02*
X92631973Y-70242272D01*
X92631973Y-70242272D02*
X92632205Y-69062777D01*
X92632205Y-69062777D02*
X92632439Y-67919402D01*
X92632439Y-67919402D02*
X92632675Y-66811582D01*
X92632675Y-66811582D02*
X92632914Y-65738752D01*
X92632914Y-65738752D02*
X92633157Y-64700348D01*
X92633157Y-64700348D02*
X92633404Y-63695803D01*
X92633404Y-63695803D02*
X92633656Y-62724555D01*
X92633656Y-62724555D02*
X92633914Y-61786037D01*
X92633914Y-61786037D02*
X92634178Y-60879684D01*
X92634178Y-60879684D02*
X92634449Y-60004933D01*
X92634449Y-60004933D02*
X92634727Y-59161218D01*
X92634727Y-59161218D02*
X92635013Y-58347974D01*
X92635013Y-58347974D02*
X92635308Y-57564636D01*
X92635308Y-57564636D02*
X92635613Y-56810640D01*
X92635613Y-56810640D02*
X92635927Y-56085420D01*
X92635927Y-56085420D02*
X92636252Y-55388413D01*
X92636252Y-55388413D02*
X92636588Y-54719052D01*
X92636588Y-54719052D02*
X92636937Y-54076773D01*
X92636937Y-54076773D02*
X92637298Y-53461011D01*
X92637298Y-53461011D02*
X92637672Y-52871202D01*
X92637672Y-52871202D02*
X92638059Y-52306780D01*
X92638059Y-52306780D02*
X92638462Y-51767181D01*
X92638462Y-51767181D02*
X92638879Y-51251840D01*
X92638879Y-51251840D02*
X92639312Y-50760191D01*
X92639312Y-50760191D02*
X92639762Y-50291671D01*
X92639762Y-50291671D02*
X92640228Y-49845713D01*
X92640228Y-49845713D02*
X92640712Y-49421754D01*
X92640712Y-49421754D02*
X92641214Y-49019228D01*
X92641214Y-49019228D02*
X92641736Y-48637571D01*
X92641736Y-48637571D02*
X92642276Y-48276218D01*
X92642276Y-48276218D02*
X92642837Y-47934603D01*
X92642837Y-47934603D02*
X92643419Y-47612163D01*
X92643419Y-47612163D02*
X92644022Y-47308331D01*
X92644022Y-47308331D02*
X92644647Y-47022544D01*
X92644647Y-47022544D02*
X92645295Y-46754236D01*
X92645295Y-46754236D02*
X92645966Y-46502843D01*
X92645966Y-46502843D02*
X92646662Y-46267799D01*
X92646662Y-46267799D02*
X92647381Y-46048540D01*
X92647381Y-46048540D02*
X92648127Y-45844501D01*
X92648127Y-45844501D02*
X92648897Y-45655117D01*
X92648897Y-45655117D02*
X92649695Y-45479824D01*
X92649695Y-45479824D02*
X92650273Y-45366219D01*
X92650273Y-45366219D02*
X104762311Y-45366219D01*
X104762311Y-45366219D02*
X104768392Y-45519665D01*
X104768392Y-45519665D02*
X104796521Y-45659079D01*
X104796521Y-45659079D02*
X104821531Y-45724983D01*
X104821531Y-45724983D02*
X104921387Y-45896109D01*
X104921387Y-45896109D02*
X105045412Y-46032736D01*
X105045412Y-46032736D02*
X105194553Y-46135758D01*
X105194553Y-46135758D02*
X105308868Y-46186381D01*
X105308868Y-46186381D02*
X105322973Y-46191139D01*
X105322973Y-46191139D02*
X105338984Y-46195504D01*
X105338984Y-46195504D02*
X105358684Y-46199490D01*
X105358684Y-46199490D02*
X105383851Y-46203113D01*
X105383851Y-46203113D02*
X105416268Y-46206387D01*
X105416268Y-46206387D02*
X105457714Y-46209326D01*
X105457714Y-46209326D02*
X105509971Y-46211947D01*
X105509971Y-46211947D02*
X105574818Y-46214262D01*
X105574818Y-46214262D02*
X105654038Y-46216288D01*
X105654038Y-46216288D02*
X105749410Y-46218038D01*
X105749410Y-46218038D02*
X105862715Y-46219527D01*
X105862715Y-46219527D02*
X105995735Y-46220771D01*
X105995735Y-46220771D02*
X106150248Y-46221784D01*
X106150248Y-46221784D02*
X106328038Y-46222580D01*
X106328038Y-46222580D02*
X106530883Y-46223174D01*
X106530883Y-46223174D02*
X106760564Y-46223582D01*
X106760564Y-46223582D02*
X107018864Y-46223817D01*
X107018864Y-46223817D02*
X107307561Y-46223895D01*
X107307561Y-46223895D02*
X107628437Y-46223831D01*
X107628437Y-46223831D02*
X107983273Y-46223638D01*
X107983273Y-46223638D02*
X108373848Y-46223332D01*
X108373848Y-46223332D02*
X108801945Y-46222927D01*
X108801945Y-46222927D02*
X109269343Y-46222438D01*
X109269343Y-46222438D02*
X109622166Y-46222053D01*
X109622166Y-46222053D02*
X113823750Y-46217416D01*
X113823750Y-46217416D02*
X113944782Y-46160688D01*
X113944782Y-46160688D02*
X114097130Y-46067138D01*
X114097130Y-46067138D02*
X114229578Y-45941871D01*
X114229578Y-45941871D02*
X114332636Y-45794205D01*
X114332636Y-45794205D02*
X114347809Y-45765000D01*
X114347809Y-45765000D02*
X114378268Y-45700460D01*
X114378268Y-45700460D02*
X114398073Y-45647053D01*
X114398073Y-45647053D02*
X114409505Y-45592399D01*
X114409505Y-45592399D02*
X114414841Y-45524118D01*
X114414841Y-45524118D02*
X114416363Y-45429832D01*
X114416363Y-45429832D02*
X114416416Y-45392361D01*
X114416416Y-45392361D02*
X114416257Y-45373430D01*
X114416257Y-45373430D02*
X132253478Y-45373430D01*
X132253478Y-45373430D02*
X132264887Y-45522333D01*
X132264887Y-45522333D02*
X132316353Y-45709336D01*
X132316353Y-45709336D02*
X132402148Y-45871719D01*
X132402148Y-45871719D02*
X132521672Y-46008777D01*
X132521672Y-46008777D02*
X132674324Y-46119807D01*
X132674324Y-46119807D02*
X132840842Y-46197379D01*
X132840842Y-46197379D02*
X132856492Y-46200753D01*
X132856492Y-46200753D02*
X132885453Y-46203842D01*
X132885453Y-46203842D02*
X132929310Y-46206655D01*
X132929310Y-46206655D02*
X132989646Y-46209203D01*
X132989646Y-46209203D02*
X133068045Y-46211492D01*
X133068045Y-46211492D02*
X133166092Y-46213533D01*
X133166092Y-46213533D02*
X133285371Y-46215334D01*
X133285371Y-46215334D02*
X133427466Y-46216903D01*
X133427466Y-46216903D02*
X133593960Y-46218250D01*
X133593960Y-46218250D02*
X133786439Y-46219384D01*
X133786439Y-46219384D02*
X134006487Y-46220314D01*
X134006487Y-46220314D02*
X134255686Y-46221048D01*
X134255686Y-46221048D02*
X134535623Y-46221595D01*
X134535623Y-46221595D02*
X134847880Y-46221964D01*
X134847880Y-46221964D02*
X135194041Y-46222163D01*
X135194041Y-46222163D02*
X135575692Y-46222203D01*
X135575692Y-46222203D02*
X135994416Y-46222091D01*
X135994416Y-46222091D02*
X136451797Y-46221837D01*
X136451797Y-46221837D02*
X136949420Y-46221449D01*
X136949420Y-46221449D02*
X137117666Y-46221298D01*
X137117666Y-46221298D02*
X141319250Y-46217416D01*
X141319250Y-46217416D02*
X141440282Y-46160688D01*
X141440282Y-46160688D02*
X141597511Y-46064689D01*
X141597511Y-46064689D02*
X141727911Y-45939554D01*
X141727911Y-45939554D02*
X141828378Y-45791089D01*
X141828378Y-45791089D02*
X141895806Y-45625099D01*
X141895806Y-45625099D02*
X141927091Y-45447391D01*
X141927091Y-45447391D02*
X141926156Y-45425466D01*
X141926156Y-45425466D02*
X159752754Y-45425466D01*
X159752754Y-45425466D02*
X159775572Y-45594516D01*
X159775572Y-45594516D02*
X159833561Y-45757236D01*
X159833561Y-45757236D02*
X159927382Y-45907910D01*
X159927382Y-45907910D02*
X159992854Y-45981927D01*
X159992854Y-45981927D02*
X160106713Y-46079916D01*
X160106713Y-46079916D02*
X160234639Y-46154883D01*
X160234639Y-46154883D02*
X160336342Y-46197379D01*
X160336342Y-46197379D02*
X160351992Y-46200753D01*
X160351992Y-46200753D02*
X160380953Y-46203842D01*
X160380953Y-46203842D02*
X160424810Y-46206655D01*
X160424810Y-46206655D02*
X160485146Y-46209203D01*
X160485146Y-46209203D02*
X160563545Y-46211492D01*
X160563545Y-46211492D02*
X160661592Y-46213533D01*
X160661592Y-46213533D02*
X160780871Y-46215334D01*
X160780871Y-46215334D02*
X160922966Y-46216903D01*
X160922966Y-46216903D02*
X161089460Y-46218250D01*
X161089460Y-46218250D02*
X161281939Y-46219384D01*
X161281939Y-46219384D02*
X161501987Y-46220314D01*
X161501987Y-46220314D02*
X161751186Y-46221048D01*
X161751186Y-46221048D02*
X162031123Y-46221595D01*
X162031123Y-46221595D02*
X162343380Y-46221964D01*
X162343380Y-46221964D02*
X162689541Y-46222163D01*
X162689541Y-46222163D02*
X163071192Y-46222203D01*
X163071192Y-46222203D02*
X163489916Y-46222091D01*
X163489916Y-46222091D02*
X163947297Y-46221837D01*
X163947297Y-46221837D02*
X164444920Y-46221449D01*
X164444920Y-46221449D02*
X164613166Y-46221298D01*
X164613166Y-46221298D02*
X168814750Y-46217416D01*
X168814750Y-46217416D02*
X168941750Y-46158160D01*
X168941750Y-46158160D02*
X169092093Y-46066542D01*
X169092093Y-46066542D02*
X169219457Y-45946040D01*
X169219457Y-45946040D02*
X169320204Y-45803354D01*
X169320204Y-45803354D02*
X169390696Y-45645183D01*
X169390696Y-45645183D02*
X169427296Y-45478227D01*
X169427296Y-45478227D02*
X169426366Y-45309184D01*
X169426366Y-45309184D02*
X169421242Y-45275066D01*
X169421242Y-45275066D02*
X169368386Y-45085324D01*
X169368386Y-45085324D02*
X169281490Y-44919343D01*
X169281490Y-44919343D02*
X169161888Y-44779187D01*
X169161888Y-44779187D02*
X169040965Y-44685377D01*
X169040965Y-44685377D02*
X169018149Y-44670166D01*
X169018149Y-44670166D02*
X168997899Y-44656190D01*
X168997899Y-44656190D02*
X168978422Y-44643397D01*
X168978422Y-44643397D02*
X168957928Y-44631736D01*
X168957928Y-44631736D02*
X168934623Y-44621154D01*
X168934623Y-44621154D02*
X168906717Y-44611600D01*
X168906717Y-44611600D02*
X168872419Y-44603019D01*
X168872419Y-44603019D02*
X168829935Y-44595362D01*
X168829935Y-44595362D02*
X168777476Y-44588575D01*
X168777476Y-44588575D02*
X168713248Y-44582607D01*
X168713248Y-44582607D02*
X168635462Y-44577404D01*
X168635462Y-44577404D02*
X168542324Y-44572916D01*
X168542324Y-44572916D02*
X168432043Y-44569089D01*
X168432043Y-44569089D02*
X168302829Y-44565872D01*
X168302829Y-44565872D02*
X168152888Y-44563213D01*
X168152888Y-44563213D02*
X167980430Y-44561059D01*
X167980430Y-44561059D02*
X167783663Y-44559358D01*
X167783663Y-44559358D02*
X167560794Y-44558058D01*
X167560794Y-44558058D02*
X167310034Y-44557106D01*
X167310034Y-44557106D02*
X167029590Y-44556452D01*
X167029590Y-44556452D02*
X166717670Y-44556042D01*
X166717670Y-44556042D02*
X166372482Y-44555824D01*
X166372482Y-44555824D02*
X165992236Y-44555746D01*
X165992236Y-44555746D02*
X165575140Y-44555757D01*
X165575140Y-44555757D02*
X165119401Y-44555803D01*
X165119401Y-44555803D02*
X164623229Y-44555833D01*
X164623229Y-44555833D02*
X164591999Y-44555833D01*
X164591999Y-44555833D02*
X164093334Y-44555806D01*
X164093334Y-44555806D02*
X163635209Y-44555759D01*
X163635209Y-44555759D02*
X163215835Y-44555745D01*
X163215835Y-44555745D02*
X162833419Y-44555816D01*
X162833419Y-44555816D02*
X162486170Y-44556024D01*
X162486170Y-44556024D02*
X162172296Y-44556421D01*
X162172296Y-44556421D02*
X161890006Y-44557059D01*
X161890006Y-44557059D02*
X161637507Y-44557991D01*
X161637507Y-44557991D02*
X161413009Y-44559268D01*
X161413009Y-44559268D02*
X161214720Y-44560944D01*
X161214720Y-44560944D02*
X161040848Y-44563069D01*
X161040848Y-44563069D02*
X160889601Y-44565697D01*
X160889601Y-44565697D02*
X160759188Y-44568879D01*
X160759188Y-44568879D02*
X160647817Y-44572667D01*
X160647817Y-44572667D02*
X160553697Y-44577114D01*
X160553697Y-44577114D02*
X160475036Y-44582272D01*
X160475036Y-44582272D02*
X160410042Y-44588193D01*
X160410042Y-44588193D02*
X160356924Y-44594929D01*
X160356924Y-44594929D02*
X160313891Y-44602532D01*
X160313891Y-44602532D02*
X160279149Y-44611055D01*
X160279149Y-44611055D02*
X160250909Y-44620550D01*
X160250909Y-44620550D02*
X160227378Y-44631069D01*
X160227378Y-44631069D02*
X160206765Y-44642663D01*
X160206765Y-44642663D02*
X160187278Y-44655386D01*
X160187278Y-44655386D02*
X160167125Y-44669289D01*
X160167125Y-44669289D02*
X160144515Y-44684425D01*
X160144515Y-44684425D02*
X160143034Y-44685377D01*
X160143034Y-44685377D02*
X159999936Y-44800317D01*
X159999936Y-44800317D02*
X159888696Y-44937513D01*
X159888696Y-44937513D02*
X159809978Y-45091248D01*
X159809978Y-45091248D02*
X159764443Y-45255805D01*
X159764443Y-45255805D02*
X159752754Y-45425466D01*
X159752754Y-45425466D02*
X141926156Y-45425466D01*
X141926156Y-45425466D02*
X141919305Y-45264916D01*
X141919305Y-45264916D02*
X141871268Y-45083388D01*
X141871268Y-45083388D02*
X141787118Y-44923155D01*
X141787118Y-44923155D02*
X141668617Y-44786597D01*
X141668617Y-44786597D02*
X141517526Y-44676096D01*
X141517526Y-44676096D02*
X141461844Y-44646264D01*
X141461844Y-44646264D02*
X141300288Y-44566416D01*
X141300288Y-44566416D02*
X137140957Y-44560864D01*
X137140957Y-44560864D02*
X136644312Y-44560223D01*
X136644312Y-44560223D02*
X136188233Y-44559691D01*
X136188233Y-44559691D02*
X135770950Y-44559279D01*
X135770950Y-44559279D02*
X135390696Y-44559000D01*
X135390696Y-44559000D02*
X135045703Y-44558864D01*
X135045703Y-44558864D02*
X134734202Y-44558883D01*
X134734202Y-44558883D02*
X134454426Y-44559071D01*
X134454426Y-44559071D02*
X134204607Y-44559437D01*
X134204607Y-44559437D02*
X133982975Y-44559994D01*
X133982975Y-44559994D02*
X133787764Y-44560754D01*
X133787764Y-44560754D02*
X133617205Y-44561729D01*
X133617205Y-44561729D02*
X133469530Y-44562930D01*
X133469530Y-44562930D02*
X133342971Y-44564369D01*
X133342971Y-44564369D02*
X133235759Y-44566058D01*
X133235759Y-44566058D02*
X133146127Y-44568009D01*
X133146127Y-44568009D02*
X133072307Y-44570233D01*
X133072307Y-44570233D02*
X133012530Y-44572743D01*
X133012530Y-44572743D02*
X132965028Y-44575550D01*
X132965028Y-44575550D02*
X132928033Y-44578665D01*
X132928033Y-44578665D02*
X132899777Y-44582101D01*
X132899777Y-44582101D02*
X132878493Y-44585870D01*
X132878493Y-44585870D02*
X132864457Y-44589374D01*
X132864457Y-44589374D02*
X132694130Y-44659234D01*
X132694130Y-44659234D02*
X132546777Y-44760304D01*
X132546777Y-44760304D02*
X132425718Y-44887423D01*
X132425718Y-44887423D02*
X132334269Y-45035426D01*
X132334269Y-45035426D02*
X132275750Y-45199149D01*
X132275750Y-45199149D02*
X132253478Y-45373430D01*
X132253478Y-45373430D02*
X114416257Y-45373430D01*
X114416257Y-45373430D02*
X114415520Y-45286191D01*
X114415520Y-45286191D02*
X114411441Y-45210228D01*
X114411441Y-45210228D02*
X114402090Y-45152359D01*
X114402090Y-45152359D02*
X114385378Y-45100472D01*
X114385378Y-45100472D02*
X114359219Y-45042454D01*
X114359219Y-45042454D02*
X114354386Y-45032544D01*
X114354386Y-45032544D02*
X114257678Y-44881425D01*
X114257678Y-44881425D02*
X114128611Y-44750956D01*
X114128611Y-44750956D02*
X113975151Y-44648897D01*
X113975151Y-44648897D02*
X113945262Y-44634004D01*
X113945262Y-44634004D02*
X113802583Y-44566416D01*
X113802583Y-44566416D02*
X105399416Y-44566416D01*
X105399416Y-44566416D02*
X105272416Y-44617397D01*
X105272416Y-44617397D02*
X105152994Y-44682506D01*
X105152994Y-44682506D02*
X105035001Y-44776916D01*
X105035001Y-44776916D02*
X104929572Y-44889462D01*
X104929572Y-44889462D02*
X104847840Y-45008976D01*
X104847840Y-45008976D02*
X104816716Y-45074416D01*
X104816716Y-45074416D02*
X104778384Y-45213038D01*
X104778384Y-45213038D02*
X104762311Y-45366219D01*
X104762311Y-45366219D02*
X92650273Y-45366219D01*
X92650273Y-45366219D02*
X92650519Y-45318056D01*
X92650519Y-45318056D02*
X92651372Y-45169248D01*
X92651372Y-45169248D02*
X92652253Y-45032836D01*
X92652253Y-45032836D02*
X92653162Y-44908254D01*
X92653162Y-44908254D02*
X92654102Y-44794939D01*
X92654102Y-44794939D02*
X92655072Y-44692324D01*
X92655072Y-44692324D02*
X92656072Y-44599846D01*
X92656072Y-44599846D02*
X92657105Y-44516939D01*
X92657105Y-44516939D02*
X92658169Y-44443039D01*
X92658169Y-44443039D02*
X92659266Y-44377580D01*
X92659266Y-44377580D02*
X92660397Y-44319998D01*
X92660397Y-44319998D02*
X92661562Y-44269728D01*
X92661562Y-44269728D02*
X92662762Y-44226204D01*
X92662762Y-44226204D02*
X92663997Y-44188863D01*
X92663997Y-44188863D02*
X92665268Y-44157139D01*
X92665268Y-44157139D02*
X92666576Y-44130468D01*
X92666576Y-44130468D02*
X92667921Y-44108284D01*
X92667921Y-44108284D02*
X92669304Y-44090023D01*
X92669304Y-44090023D02*
X92670726Y-44075120D01*
X92670726Y-44075120D02*
X92672187Y-44063009D01*
X92672187Y-44063009D02*
X92673687Y-44053127D01*
X92673687Y-44053127D02*
X92674645Y-44047833D01*
X92674645Y-44047833D02*
X92763415Y-43691432D01*
X92763415Y-43691432D02*
X92888690Y-43349635D01*
X92888690Y-43349635D02*
X93048342Y-43026218D01*
X93048342Y-43026218D02*
X93240240Y-42724960D01*
X93240240Y-42724960D02*
X93462257Y-42449639D01*
X93462257Y-42449639D02*
X93712262Y-42204030D01*
X93712262Y-42204030D02*
X93715416Y-42201285D01*
X93715416Y-42201285D02*
X94007018Y-41974261D01*
X94007018Y-41974261D02*
X94314981Y-41786056D01*
X94314981Y-41786056D02*
X94640081Y-41636350D01*
X94640081Y-41636350D02*
X94983091Y-41524824D01*
X94983091Y-41524824D02*
X95344785Y-41451156D01*
X95344785Y-41451156D02*
X95596539Y-41422929D01*
X95596539Y-41422929D02*
X95627280Y-41422181D01*
X95627280Y-41422181D02*
X95699568Y-41421447D01*
X95699568Y-41421447D02*
X95812619Y-41420727D01*
X95812619Y-41420727D02*
X95965646Y-41420021D01*
X95965646Y-41420021D02*
X96157865Y-41419329D01*
X96157865Y-41419329D02*
X96388489Y-41418652D01*
X96388489Y-41418652D02*
X96656732Y-41417988D01*
X96656732Y-41417988D02*
X96961810Y-41417338D01*
X96961810Y-41417338D02*
X97302936Y-41416702D01*
X97302936Y-41416702D02*
X97679326Y-41416080D01*
X97679326Y-41416080D02*
X98090193Y-41415472D01*
X98090193Y-41415472D02*
X98534752Y-41414878D01*
X98534752Y-41414878D02*
X99012217Y-41414299D01*
X99012217Y-41414299D02*
X99521803Y-41413733D01*
X99521803Y-41413733D02*
X100062724Y-41413181D01*
X100062724Y-41413181D02*
X100634195Y-41412643D01*
X100634195Y-41412643D02*
X101235429Y-41412119D01*
X101235429Y-41412119D02*
X101865642Y-41411610D01*
X101865642Y-41411610D02*
X102524048Y-41411114D01*
X102524048Y-41411114D02*
X103209861Y-41410632D01*
X103209861Y-41410632D02*
X103922296Y-41410164D01*
X103922296Y-41410164D02*
X104660567Y-41409711D01*
X104660567Y-41409711D02*
X105423888Y-41409271D01*
X105423888Y-41409271D02*
X106211474Y-41408845D01*
X106211474Y-41408845D02*
X107022539Y-41408433D01*
X107022539Y-41408433D02*
X107856298Y-41408036D01*
X107856298Y-41408036D02*
X108711965Y-41407652D01*
X108711965Y-41407652D02*
X109588755Y-41407282D01*
X109588755Y-41407282D02*
X110485882Y-41406927D01*
X110485882Y-41406927D02*
X111402560Y-41406585D01*
X111402560Y-41406585D02*
X112338004Y-41406257D01*
X112338004Y-41406257D02*
X113291428Y-41405944D01*
X113291428Y-41405944D02*
X114262046Y-41405644D01*
X114262046Y-41405644D02*
X115249074Y-41405359D01*
X115249074Y-41405359D02*
X116251725Y-41405087D01*
X116251725Y-41405087D02*
X117269214Y-41404829D01*
X117269214Y-41404829D02*
X118300756Y-41404586D01*
X118300756Y-41404586D02*
X119345564Y-41404356D01*
X119345564Y-41404356D02*
X120402853Y-41404141D01*
X120402853Y-41404141D02*
X121471837Y-41403939D01*
X121471837Y-41403939D02*
X122551732Y-41403751D01*
X122551732Y-41403751D02*
X123641751Y-41403578D01*
X123641751Y-41403578D02*
X124741108Y-41403418D01*
X124741108Y-41403418D02*
X125849019Y-41403273D01*
X125849019Y-41403273D02*
X126964698Y-41403141D01*
X126964698Y-41403141D02*
X128087358Y-41403024D01*
X128087358Y-41403024D02*
X129216215Y-41402920D01*
X129216215Y-41402920D02*
X130350483Y-41402831D01*
X130350483Y-41402831D02*
X131489376Y-41402755D01*
X131489376Y-41402755D02*
X132632108Y-41402694D01*
X132632108Y-41402694D02*
X133777895Y-41402646D01*
X133777895Y-41402646D02*
X134925950Y-41402613D01*
X134925950Y-41402613D02*
X136075488Y-41402594D01*
X136075488Y-41402594D02*
X137225724Y-41402588D01*
X137225724Y-41402588D02*
X138375871Y-41402597D01*
X138375871Y-41402597D02*
X138375871Y-41402597D01*
G36*
X92630433Y-115795603D02*
G01*
X92630095Y-115050468D01*
X92629782Y-114271188D01*
X92629495Y-113457436D01*
X92629232Y-112608889D01*
X92628995Y-111725221D01*
X92628783Y-110806107D01*
X92628595Y-109851222D01*
X92628432Y-108860242D01*
X92628294Y-107832840D01*
X92628180Y-106768693D01*
X92628090Y-105667475D01*
X92628024Y-104528862D01*
X92627982Y-103352527D01*
X92627965Y-102138147D01*
X92627970Y-100885396D01*
X92628000Y-99593949D01*
X92628052Y-98263482D01*
X92628129Y-96893668D01*
X92628228Y-95484184D01*
X92628350Y-94034705D01*
X92628495Y-92544904D01*
X92628663Y-91014458D01*
X92628853Y-89443041D01*
X92629066Y-87830328D01*
X92629301Y-86175995D01*
X92629559Y-84479716D01*
X92629611Y-84148083D01*
X92629860Y-82576322D01*
X92630081Y-81191843D01*
X104761381Y-81191843D01*
X104789763Y-81350049D01*
X104847882Y-81500895D01*
X104935358Y-81639439D01*
X105051811Y-81760735D01*
X105196859Y-81859841D01*
X105357083Y-81927761D01*
X105374943Y-81931060D01*
X105407927Y-81934079D01*
X105457567Y-81936827D01*
X105525395Y-81939312D01*
X105612946Y-81941541D01*
X105721752Y-81943524D01*
X105853346Y-81945269D01*
X106009261Y-81946783D01*
X106191030Y-81948075D01*
X106400186Y-81949154D01*
X106638262Y-81950027D01*
X106906791Y-81950703D01*
X107207305Y-81951189D01*
X107541338Y-81951495D01*
X107910424Y-81951629D01*
X108316093Y-81951598D01*
X108759881Y-81951411D01*
X109243319Y-81951076D01*
X109632750Y-81950732D01*
X113823750Y-81946750D01*
X113945844Y-81889535D01*
X114067370Y-81815414D01*
X114185037Y-81713210D01*
X114286325Y-81595478D01*
X114358072Y-81476177D01*
X114400090Y-81348247D01*
X114422840Y-81198963D01*
X114424870Y-81065936D01*
X159754912Y-81065936D01*
X159759272Y-81241137D01*
X159801591Y-81414185D01*
X159833228Y-81489071D01*
X159920502Y-81626293D01*
X160039319Y-81750249D01*
X160179095Y-81851865D01*
X160329247Y-81922063D01*
X160343554Y-81926732D01*
X160360815Y-81930131D01*
X160391063Y-81933243D01*
X160435898Y-81936076D01*
X160496920Y-81938640D01*
X160575727Y-81940944D01*
X160673921Y-81942997D01*
X160793099Y-81944807D01*
X160934862Y-81946384D01*
X161100809Y-81947737D01*
X161292540Y-81948875D01*
X161511654Y-81949806D01*
X161759751Y-81950539D01*
X162038430Y-81951084D01*
X162349290Y-81951450D01*
X162693932Y-81951645D01*
X163073955Y-81951679D01*
X163490958Y-81951560D01*
X163946541Y-81951297D01*
X164442304Y-81950900D01*
X164623750Y-81950732D01*
X168814750Y-81946750D01*
X168935782Y-81890022D01*
X169087091Y-81797773D01*
X169215362Y-81676952D01*
X169317025Y-81534166D01*
X169388510Y-81376021D01*
X169426246Y-81209124D01*
X169426665Y-81040082D01*
X169419793Y-80994262D01*
X169365880Y-80808619D01*
X169278564Y-80645356D01*
X169160975Y-80508028D01*
X169016244Y-80400188D01*
X168847502Y-80325389D01*
X168824313Y-80318377D01*
X168807437Y-80314356D01*
X168784841Y-80310673D01*
X168754763Y-80307318D01*
X168715441Y-80304279D01*
X168665110Y-80301544D01*
X168602008Y-80299101D01*
X168524372Y-80296940D01*
X168430439Y-80295048D01*
X168318447Y-80293414D01*
X168186631Y-80292026D01*
X168033230Y-80290873D01*
X167856480Y-80289942D01*
X167654618Y-80289224D01*
X167425882Y-80288705D01*
X167168508Y-80288374D01*
X166880734Y-80288221D01*
X166560796Y-80288232D01*
X166206932Y-80288397D01*
X165817378Y-80288704D01*
X165390372Y-80289141D01*
X164924151Y-80289697D01*
X164538063Y-80290198D01*
X160369250Y-80295750D01*
X160229780Y-80363997D01*
X160075512Y-80461522D01*
X159948813Y-80586374D01*
X159851762Y-80732658D01*
X159786435Y-80894478D01*
X159754912Y-81065936D01*
X114424870Y-81065936D01*
X114425186Y-81045229D01*
X114405991Y-80903946D01*
X114398472Y-80875203D01*
X114332085Y-80719122D01*
X114231267Y-80577265D01*
X114103375Y-80457060D01*
X113955764Y-80365939D01*
X113855500Y-80326670D01*
X113838624Y-80321672D01*
X113820763Y-80317088D01*
X113800116Y-80312903D01*
X113774886Y-80309102D01*
X113743272Y-80305669D01*
X113703474Y-80302589D01*
X113653694Y-80299847D01*
X113592132Y-80297428D01*
X113516988Y-80295315D01*
X113426463Y-80293495D01*
X113318758Y-80291952D01*
X113192074Y-80290670D01*
X113044610Y-80289634D01*
X112874567Y-80288829D01*
X112680146Y-80288240D01*
X112459548Y-80287851D01*
X112210973Y-80287647D01*
X111932621Y-80287613D01*
X111622694Y-80287734D01*
X111279391Y-80287993D01*
X110900914Y-80288377D01*
X110485462Y-80288870D01*
X110031237Y-80289456D01*
X109547633Y-80290105D01*
X105377350Y-80295750D01*
X105236858Y-80364916D01*
X105078832Y-80463458D01*
X104952826Y-80584303D01*
X104858458Y-80722508D01*
X104795348Y-80873129D01*
X104763115Y-81031222D01*
X104761381Y-81191843D01*
X92630081Y-81191843D01*
X92630105Y-81046330D01*
X92630345Y-79557541D01*
X92630583Y-78109391D01*
X92630818Y-76701315D01*
X92631050Y-75332748D01*
X92631281Y-74003125D01*
X92631512Y-72711881D01*
X92631742Y-71458452D01*
X92631973Y-70242272D01*
X92632205Y-69062777D01*
X92632439Y-67919402D01*
X92632675Y-66811582D01*
X92632914Y-65738752D01*
X92633157Y-64700348D01*
X92633404Y-63695803D01*
X92633656Y-62724555D01*
X92633914Y-61786037D01*
X92634178Y-60879684D01*
X92634449Y-60004933D01*
X92634727Y-59161218D01*
X92635013Y-58347974D01*
X92635308Y-57564636D01*
X92635613Y-56810640D01*
X92635927Y-56085420D01*
X92636252Y-55388413D01*
X92636588Y-54719052D01*
X92636937Y-54076773D01*
X92637298Y-53461011D01*
X92637672Y-52871202D01*
X92638059Y-52306780D01*
X92638462Y-51767181D01*
X92638879Y-51251840D01*
X92639312Y-50760191D01*
X92639762Y-50291671D01*
X92640228Y-49845713D01*
X92640712Y-49421754D01*
X92641214Y-49019228D01*
X92641736Y-48637571D01*
X92642276Y-48276218D01*
X92642837Y-47934603D01*
X92643419Y-47612163D01*
X92644022Y-47308331D01*
X92644647Y-47022544D01*
X92645295Y-46754236D01*
X92645966Y-46502843D01*
X92646662Y-46267799D01*
X92647381Y-46048540D01*
X92648127Y-45844501D01*
X92648897Y-45655117D01*
X92649695Y-45479824D01*
X92650273Y-45366219D01*
X104762311Y-45366219D01*
X104768392Y-45519665D01*
X104796521Y-45659079D01*
X104821531Y-45724983D01*
X104921387Y-45896109D01*
X105045412Y-46032736D01*
X105194553Y-46135758D01*
X105308868Y-46186381D01*
X105322973Y-46191139D01*
X105338984Y-46195504D01*
X105358684Y-46199490D01*
X105383851Y-46203113D01*
X105416268Y-46206387D01*
X105457714Y-46209326D01*
X105509971Y-46211947D01*
X105574818Y-46214262D01*
X105654038Y-46216288D01*
X105749410Y-46218038D01*
X105862715Y-46219527D01*
X105995735Y-46220771D01*
X106150248Y-46221784D01*
X106328038Y-46222580D01*
X106530883Y-46223174D01*
X106760564Y-46223582D01*
X107018864Y-46223817D01*
X107307561Y-46223895D01*
X107628437Y-46223831D01*
X107983273Y-46223638D01*
X108373848Y-46223332D01*
X108801945Y-46222927D01*
X109269343Y-46222438D01*
X109622166Y-46222053D01*
X113823750Y-46217416D01*
X113944782Y-46160688D01*
X114097130Y-46067138D01*
X114229578Y-45941871D01*
X114332636Y-45794205D01*
X114347809Y-45765000D01*
X114378268Y-45700460D01*
X114398073Y-45647053D01*
X114409505Y-45592399D01*
X114414841Y-45524118D01*
X114416363Y-45429832D01*
X114416416Y-45392361D01*
X114416257Y-45373430D01*
X132253478Y-45373430D01*
X132264887Y-45522333D01*
X132316353Y-45709336D01*
X132402148Y-45871719D01*
X132521672Y-46008777D01*
X132674324Y-46119807D01*
X132840842Y-46197379D01*
X132856492Y-46200753D01*
X132885453Y-46203842D01*
X132929310Y-46206655D01*
X132989646Y-46209203D01*
X133068045Y-46211492D01*
X133166092Y-46213533D01*
X133285371Y-46215334D01*
X133427466Y-46216903D01*
X133593960Y-46218250D01*
X133786439Y-46219384D01*
X134006487Y-46220314D01*
X134255686Y-46221048D01*
X134535623Y-46221595D01*
X134847880Y-46221964D01*
X135194041Y-46222163D01*
X135575692Y-46222203D01*
X135994416Y-46222091D01*
X136451797Y-46221837D01*
X136949420Y-46221449D01*
X137117666Y-46221298D01*
X141319250Y-46217416D01*
X141440282Y-46160688D01*
X141597511Y-46064689D01*
X141727911Y-45939554D01*
X141828378Y-45791089D01*
X141895806Y-45625099D01*
X141927091Y-45447391D01*
X141926156Y-45425466D01*
X159752754Y-45425466D01*
X159775572Y-45594516D01*
X159833561Y-45757236D01*
X159927382Y-45907910D01*
X159992854Y-45981927D01*
X160106713Y-46079916D01*
X160234639Y-46154883D01*
X160336342Y-46197379D01*
X160351992Y-46200753D01*
X160380953Y-46203842D01*
X160424810Y-46206655D01*
X160485146Y-46209203D01*
X160563545Y-46211492D01*
X160661592Y-46213533D01*
X160780871Y-46215334D01*
X160922966Y-46216903D01*
X161089460Y-46218250D01*
X161281939Y-46219384D01*
X161501987Y-46220314D01*
X161751186Y-46221048D01*
X162031123Y-46221595D01*
X162343380Y-46221964D01*
X162689541Y-46222163D01*
X163071192Y-46222203D01*
X163489916Y-46222091D01*
X163947297Y-46221837D01*
X164444920Y-46221449D01*
X164613166Y-46221298D01*
X168814750Y-46217416D01*
X168941750Y-46158160D01*
X169092093Y-46066542D01*
X169219457Y-45946040D01*
X169320204Y-45803354D01*
X169390696Y-45645183D01*
X169427296Y-45478227D01*
X169426366Y-45309184D01*
X169421242Y-45275066D01*
X169368386Y-45085324D01*
X169281490Y-44919343D01*
X169161888Y-44779187D01*
X169040965Y-44685377D01*
X169018149Y-44670166D01*
X168997899Y-44656190D01*
X168978422Y-44643397D01*
X168957928Y-44631736D01*
X168934623Y-44621154D01*
X168906717Y-44611600D01*
X168872419Y-44603019D01*
X168829935Y-44595362D01*
X168777476Y-44588575D01*
X168713248Y-44582607D01*
X168635462Y-44577404D01*
X168542324Y-44572916D01*
X168432043Y-44569089D01*
X168302829Y-44565872D01*
X168152888Y-44563213D01*
X167980430Y-44561059D01*
X167783663Y-44559358D01*
X167560794Y-44558058D01*
X167310034Y-44557106D01*
X167029590Y-44556452D01*
X166717670Y-44556042D01*
X166372482Y-44555824D01*
X165992236Y-44555746D01*
X165575140Y-44555757D01*
X165119401Y-44555803D01*
X164623229Y-44555833D01*
X164591999Y-44555833D01*
X164093334Y-44555806D01*
X163635209Y-44555759D01*
X163215835Y-44555745D01*
X162833419Y-44555816D01*
X162486170Y-44556024D01*
X162172296Y-44556421D01*
X161890006Y-44557059D01*
X161637507Y-44557991D01*
X161413009Y-44559268D01*
X161214720Y-44560944D01*
X161040848Y-44563069D01*
X160889601Y-44565697D01*
X160759188Y-44568879D01*
X160647817Y-44572667D01*
X160553697Y-44577114D01*
X160475036Y-44582272D01*
X160410042Y-44588193D01*
X160356924Y-44594929D01*
X160313891Y-44602532D01*
X160279149Y-44611055D01*
X160250909Y-44620550D01*
X160227378Y-44631069D01*
X160206765Y-44642663D01*
X160187278Y-44655386D01*
X160167125Y-44669289D01*
X160144515Y-44684425D01*
X160143034Y-44685377D01*
X159999936Y-44800317D01*
X159888696Y-44937513D01*
X159809978Y-45091248D01*
X159764443Y-45255805D01*
X159752754Y-45425466D01*
X141926156Y-45425466D01*
X141919305Y-45264916D01*
X141871268Y-45083388D01*
X141787118Y-44923155D01*
X141668617Y-44786597D01*
X141517526Y-44676096D01*
X141461844Y-44646264D01*
X141300288Y-44566416D01*
X137140957Y-44560864D01*
X136644312Y-44560223D01*
X136188233Y-44559691D01*
X135770950Y-44559279D01*
X135390696Y-44559000D01*
X135045703Y-44558864D01*
X134734202Y-44558883D01*
X134454426Y-44559071D01*
X134204607Y-44559437D01*
X133982975Y-44559994D01*
X133787764Y-44560754D01*
X133617205Y-44561729D01*
X133469530Y-44562930D01*
X133342971Y-44564369D01*
X133235759Y-44566058D01*
X133146127Y-44568009D01*
X133072307Y-44570233D01*
X133012530Y-44572743D01*
X132965028Y-44575550D01*
X132928033Y-44578665D01*
X132899777Y-44582101D01*
X132878493Y-44585870D01*
X132864457Y-44589374D01*
X132694130Y-44659234D01*
X132546777Y-44760304D01*
X132425718Y-44887423D01*
X132334269Y-45035426D01*
X132275750Y-45199149D01*
X132253478Y-45373430D01*
X114416257Y-45373430D01*
X114415520Y-45286191D01*
X114411441Y-45210228D01*
X114402090Y-45152359D01*
X114385378Y-45100472D01*
X114359219Y-45042454D01*
X114354386Y-45032544D01*
X114257678Y-44881425D01*
X114128611Y-44750956D01*
X113975151Y-44648897D01*
X113945262Y-44634004D01*
X113802583Y-44566416D01*
X105399416Y-44566416D01*
X105272416Y-44617397D01*
X105152994Y-44682506D01*
X105035001Y-44776916D01*
X104929572Y-44889462D01*
X104847840Y-45008976D01*
X104816716Y-45074416D01*
X104778384Y-45213038D01*
X104762311Y-45366219D01*
X92650273Y-45366219D01*
X92650519Y-45318056D01*
X92651372Y-45169248D01*
X92652253Y-45032836D01*
X92653162Y-44908254D01*
X92654102Y-44794939D01*
X92655072Y-44692324D01*
X92656072Y-44599846D01*
X92657105Y-44516939D01*
X92658169Y-44443039D01*
X92659266Y-44377580D01*
X92660397Y-44319998D01*
X92661562Y-44269728D01*
X92662762Y-44226204D01*
X92663997Y-44188863D01*
X92665268Y-44157139D01*
X92666576Y-44130468D01*
X92667921Y-44108284D01*
X92669304Y-44090023D01*
X92670726Y-44075120D01*
X92672187Y-44063009D01*
X92673687Y-44053127D01*
X92674645Y-44047833D01*
X92763415Y-43691432D01*
X92888690Y-43349635D01*
X93048342Y-43026218D01*
X93240240Y-42724960D01*
X93462257Y-42449639D01*
X93712262Y-42204030D01*
X93715416Y-42201285D01*
X94007018Y-41974261D01*
X94314981Y-41786056D01*
X94640081Y-41636350D01*
X94983091Y-41524824D01*
X95344785Y-41451156D01*
X95596539Y-41422929D01*
X95627280Y-41422181D01*
X95699568Y-41421447D01*
X95812619Y-41420727D01*
X95965646Y-41420021D01*
X96157865Y-41419329D01*
X96388489Y-41418652D01*
X96656732Y-41417988D01*
X96961810Y-41417338D01*
X97302936Y-41416702D01*
X97679326Y-41416080D01*
X98090193Y-41415472D01*
X98534752Y-41414878D01*
X99012217Y-41414299D01*
X99521803Y-41413733D01*
X100062724Y-41413181D01*
X100634195Y-41412643D01*
X101235429Y-41412119D01*
X101865642Y-41411610D01*
X102524048Y-41411114D01*
X103209861Y-41410632D01*
X103922296Y-41410164D01*
X104660567Y-41409711D01*
X105423888Y-41409271D01*
X106211474Y-41408845D01*
X107022539Y-41408433D01*
X107856298Y-41408036D01*
X108711965Y-41407652D01*
X109588755Y-41407282D01*
X110485882Y-41406927D01*
X111402560Y-41406585D01*
X112338004Y-41406257D01*
X113291428Y-41405944D01*
X114262046Y-41405644D01*
X115249074Y-41405359D01*
X116251725Y-41405087D01*
X117269214Y-41404829D01*
X118300756Y-41404586D01*
X119345564Y-41404356D01*
X120402853Y-41404141D01*
X121471837Y-41403939D01*
X122551732Y-41403751D01*
X123641751Y-41403578D01*
X124741108Y-41403418D01*
X125849019Y-41403273D01*
X126964698Y-41403141D01*
X128087358Y-41403024D01*
X129216215Y-41402920D01*
X130350483Y-41402831D01*
X131489376Y-41402755D01*
X132632108Y-41402694D01*
X133777895Y-41402646D01*
X134925950Y-41402613D01*
X136075488Y-41402594D01*
X137225724Y-41402588D01*
X138375871Y-41402597D01*
X139525145Y-41402619D01*
X140672759Y-41402656D01*
X141817928Y-41402706D01*
X142959866Y-41402771D01*
X144097788Y-41402850D01*
X145230909Y-41402942D01*
X146358442Y-41403049D01*
X147479602Y-41403170D01*
X148593604Y-41403304D01*
X149699661Y-41403453D01*
X150796989Y-41403616D01*
X151884802Y-41403792D01*
X152962313Y-41403983D01*
X154028739Y-41404188D01*
X155083292Y-41404407D01*
X156125188Y-41404639D01*
X157153640Y-41404886D01*
X158167864Y-41405147D01*
X159167073Y-41405421D01*
X160150483Y-41405710D01*
X161117307Y-41406013D01*
X162066760Y-41406330D01*
X162998056Y-41406661D01*
X163910409Y-41407005D01*
X164803035Y-41407364D01*
X165675148Y-41407737D01*
X166525961Y-41408124D01*
X167354690Y-41408525D01*
X168160549Y-41408940D01*
X168942751Y-41409368D01*
X169700513Y-41409811D01*
X170433047Y-41410268D01*
X171139569Y-41410739D01*
X171819293Y-41411224D01*
X172471433Y-41411723D01*
X173095204Y-41412236D01*
X173689819Y-41412763D01*
X174254495Y-41413304D01*
X174788444Y-41413859D01*
X175290882Y-41414428D01*
X175761022Y-41415011D01*
X176198080Y-41415608D01*
X176601269Y-41416219D01*
X176969804Y-41416844D01*
X177302900Y-41417483D01*
X177599770Y-41418136D01*
X177859630Y-41418803D01*
X178081694Y-41419484D01*
X178265175Y-41420179D01*
X178409289Y-41420888D01*
X178513250Y-41421611D01*
X178576273Y-41422348D01*
X178596460Y-41422929D01*
X178899812Y-41457739D01*
X179178296Y-41514756D01*
X179445066Y-41597572D01*
X179713276Y-41709782D01*
X179800250Y-41751833D01*
X180113072Y-41930807D01*
X180400934Y-42142810D01*
X180661946Y-42385378D01*
X180894214Y-42656045D01*
X181095849Y-42952343D01*
X181264957Y-43271809D01*
X181399649Y-43611976D01*
X181496460Y-43963166D01*
X181498009Y-43970910D01*
X181499517Y-43980200D01*
X181500984Y-43991600D01*
X181502412Y-44005673D01*
X181503800Y-44022983D01*
X181505149Y-44044092D01*
X181506460Y-44069563D01*
X181507733Y-44099960D01*
X181508969Y-44135846D01*
X181510169Y-44177783D01*
X181511332Y-44226336D01*
X181512460Y-44282067D01*
X181513553Y-44345539D01*
X181514611Y-44417316D01*
X181515635Y-44497960D01*
X181516626Y-44588035D01*
X181517585Y-44688104D01*
X181518511Y-44798731D01*
X181519405Y-44920477D01*
X181520268Y-45053907D01*
X181521101Y-45199583D01*
X181521904Y-45358069D01*
X181522677Y-45529927D01*
X181523421Y-45715722D01*
X181524137Y-45916015D01*
X181524825Y-46131371D01*
X181525485Y-46362352D01*
X181526119Y-46609522D01*
X181526727Y-46873443D01*
X181527309Y-47154679D01*
X181527867Y-47453793D01*
X181528399Y-47771349D01*
X181528908Y-48107908D01*
X181529393Y-48464035D01*
X181529855Y-48840292D01*
X181530295Y-49237243D01*
X181530713Y-49655450D01*
X181531110Y-50095478D01*
X181531487Y-50557888D01*
X181531843Y-51043245D01*
X181532179Y-51552111D01*
X181532497Y-52085050D01*
X181532796Y-52642625D01*
X181533077Y-53225398D01*
X181533341Y-53833933D01*
X181533588Y-54468793D01*
X181533819Y-55130542D01*
X181534034Y-55819741D01*
X181534234Y-56536956D01*
X181534419Y-57282748D01*
X181534591Y-58057680D01*
X181534748Y-58862317D01*
X181534893Y-59697221D01*
X181535025Y-60562955D01*
X181535146Y-61460082D01*
X181535255Y-62389166D01*
X181535354Y-63350770D01*
X181535442Y-64345456D01*
X181535520Y-65373789D01*
X181535590Y-66436330D01*
X181535651Y-67533644D01*
X181535704Y-68666293D01*
X181535749Y-69834840D01*
X181535788Y-71039850D01*
X181535820Y-72281884D01*
X181535847Y-73561506D01*
X181535868Y-74879279D01*
X181535885Y-76235766D01*
X181535897Y-77631531D01*
X181535906Y-79067136D01*
X181535911Y-80543145D01*
X181535915Y-82060121D01*
X181535916Y-83618626D01*
X181535916Y-84296250D01*
X181535915Y-85872643D01*
X181535913Y-87407266D01*
X181535908Y-88900682D01*
X181535901Y-90353455D01*
X181535890Y-91766146D01*
X181535876Y-93139320D01*
X181535856Y-94473539D01*
X181535832Y-95769368D01*
X181535803Y-97027368D01*
X181535767Y-98248102D01*
X181535724Y-99432135D01*
X181535674Y-100580030D01*
X181535617Y-101692348D01*
X181535551Y-102769654D01*
X181535477Y-103812511D01*
X181535393Y-104821482D01*
X181535298Y-105797129D01*
X181535194Y-106740017D01*
X181535078Y-107650708D01*
X181534951Y-108529765D01*
X181534812Y-109377752D01*
X181534659Y-110195232D01*
X181534494Y-110982767D01*
X181534315Y-111740922D01*
X181534121Y-112470258D01*
X181533913Y-113171340D01*
X181533689Y-113844730D01*
X181533449Y-114490992D01*
X181533192Y-115110688D01*
X181532918Y-115704382D01*
X181532627Y-116272637D01*
X181532317Y-116816017D01*
X181531989Y-117335083D01*
X181531641Y-117830400D01*
X181531273Y-118302530D01*
X181530885Y-118752038D01*
X181530476Y-119179485D01*
X181530046Y-119585435D01*
X181529593Y-119970451D01*
X181529117Y-120335096D01*
X181528619Y-120679934D01*
X181528097Y-121005527D01*
X181527550Y-121312439D01*
X181526979Y-121601233D01*
X181526382Y-121872472D01*
X181525759Y-122126719D01*
X181525110Y-122364537D01*
X181524434Y-122586489D01*
X181523730Y-122793140D01*
X181522998Y-122985050D01*
X181522237Y-123162785D01*
X181521447Y-123326907D01*
X181520627Y-123477979D01*
X181519777Y-123616564D01*
X181518896Y-123743225D01*
X181517984Y-123858526D01*
X181517039Y-123963030D01*
X181516062Y-124057300D01*
X181515052Y-124141898D01*
X181514008Y-124217389D01*
X181512930Y-124284335D01*
X181511817Y-124343299D01*
X181510669Y-124394845D01*
X181509485Y-124439536D01*
X181508265Y-124477934D01*
X181507008Y-124510604D01*
X181505713Y-124538108D01*
X181504380Y-124561009D01*
X181503009Y-124579870D01*
X181501598Y-124595255D01*
X181500148Y-124607727D01*
X181498657Y-124617848D01*
X181497126Y-124626183D01*
X181496460Y-124629333D01*
X181395593Y-124995600D01*
X181259336Y-125339691D01*
X181089283Y-125660026D01*
X180887028Y-125955027D01*
X180654164Y-126223116D01*
X180392286Y-126462715D01*
X180102986Y-126672246D01*
X179787860Y-126850130D01*
X179448500Y-126994788D01*
X179086500Y-127104643D01*
X178969785Y-127131416D01*
X178741916Y-127179820D01*
X174699083Y-127186511D01*
X174152969Y-127187323D01*
X173648207Y-127187880D01*
X173183813Y-127188177D01*
X172758806Y-127188211D01*
X172372204Y-127187978D01*
X172023026Y-127187473D01*
X171710289Y-127186693D01*
X171433011Y-127185635D01*
X171190211Y-127184293D01*
X170980906Y-127182665D01*
X170804116Y-127180746D01*
X170658857Y-127178532D01*
X170544149Y-127176020D01*
X170459009Y-127173205D01*
X170402455Y-127170084D01*
X170394072Y-127169385D01*
X170029750Y-127115606D01*
X169678500Y-127022304D01*
X169342828Y-126890690D01*
X169025238Y-126721973D01*
X168728234Y-126517364D01*
X168454320Y-126278072D01*
X168368429Y-126190650D01*
X168286936Y-126101223D01*
X168204301Y-126005055D01*
X168132156Y-125915935D01*
X168095687Y-125867325D01*
X168070223Y-125828155D01*
X168025344Y-125755143D01*
X167962733Y-125651149D01*
X167884071Y-125519034D01*
X167791040Y-125361658D01*
X167685321Y-125181880D01*
X167568598Y-124982562D01*
X167442550Y-124766563D01*
X167308862Y-124536744D01*
X167169213Y-124295965D01*
X167025287Y-124047086D01*
X167020871Y-124039440D01*
X166877131Y-123790731D01*
X166737890Y-123550259D01*
X166604804Y-123320858D01*
X166479529Y-123105360D01*
X166363719Y-122906600D01*
X166259031Y-122727410D01*
X166167119Y-122570623D01*
X166089639Y-122439074D01*
X166028247Y-122335595D01*
X165984598Y-122263020D01*
X165960347Y-122224182D01*
X165959787Y-122223345D01*
X165741884Y-121936748D01*
X165494295Y-121680003D01*
X165217992Y-121453769D01*
X164913948Y-121258707D01*
X164583136Y-121095478D01*
X164226528Y-120964740D01*
X164020661Y-120907152D01*
X163798250Y-120851340D01*
X137212916Y-120845250D01*
X135818560Y-120844943D01*
X134466162Y-120844669D01*
X133155346Y-120844429D01*
X131885736Y-120844224D01*
X130656958Y-120844053D01*
X129468635Y-120843917D01*
X128320393Y-120843816D01*
X127211855Y-120843750D01*
X126142645Y-120843719D01*
X125112390Y-120843724D01*
X124120712Y-120843765D01*
X123167236Y-120843843D01*
X122251587Y-120843956D01*
X121373389Y-120844106D01*
X120532267Y-120844294D01*
X119727845Y-120844518D01*
X118959748Y-120844779D01*
X118227600Y-120845079D01*
X117531025Y-120845416D01*
X116869648Y-120845791D01*
X116243093Y-120846204D01*
X115650986Y-120846656D01*
X115092949Y-120847147D01*
X114568608Y-120847676D01*
X114077588Y-120848245D01*
X113619512Y-120848854D01*
X113194005Y-120849502D01*
X112800692Y-120850190D01*
X112439196Y-120850919D01*
X112109144Y-120851688D01*
X111810158Y-120852497D01*
X111541863Y-120853348D01*
X111303884Y-120854239D01*
X111095846Y-120855172D01*
X110917372Y-120856147D01*
X110768088Y-120857164D01*
X110647617Y-120858222D01*
X110555584Y-120859323D01*
X110491613Y-120860467D01*
X110455330Y-120861653D01*
X110447666Y-120862235D01*
X110092158Y-120928732D01*
X109749132Y-121034395D01*
X109421724Y-121177263D01*
X109113068Y-121355373D01*
X108826300Y-121566765D01*
X108564557Y-121809477D01*
X108330973Y-122081548D01*
X108198310Y-122269250D01*
X108173365Y-122309589D01*
X108129013Y-122383704D01*
X108066956Y-122488673D01*
X107988897Y-122621577D01*
X107896540Y-122779496D01*
X107791585Y-122959510D01*
X107675737Y-123158700D01*
X107550698Y-123374145D01*
X107418170Y-123602926D01*
X107279857Y-123842123D01*
X107155330Y-124057833D01*
X107014220Y-124302273D01*
X106878045Y-124537808D01*
X106748435Y-124761638D01*
X106627023Y-124970959D01*
X106515440Y-125162969D01*
X106415320Y-125334866D01*
X106328292Y-125483848D01*
X106255991Y-125607113D01*
X106200047Y-125701858D01*
X106162093Y-125765281D01*
X106144506Y-125793500D01*
X105925202Y-126079957D01*
X105676496Y-126337235D01*
X105401110Y-126563724D01*
X105101765Y-126757815D01*
X104781183Y-126917900D01*
X104442086Y-127042369D01*
X104087197Y-127129615D01*
X103817320Y-127169127D01*
X103775488Y-127171281D01*
X103693898Y-127173298D01*
X103575122Y-127175179D01*
X103421736Y-127176923D01*
X103236312Y-127178531D01*
X103021426Y-127180002D01*
X102779652Y-127181338D01*
X102513562Y-127182537D01*
X102225732Y-127183600D01*
X101918736Y-127184528D01*
X101595147Y-127185319D01*
X101257540Y-127185975D01*
X100908489Y-127186495D01*
X100550568Y-127186880D01*
X100186350Y-127187129D01*
X99818410Y-127187243D01*
X99449323Y-127187222D01*
X99081661Y-127187065D01*
X98718000Y-127186774D01*
X98360913Y-127186348D01*
X98012974Y-127185787D01*
X97676758Y-127185091D01*
X97354838Y-127184260D01*
X97049789Y-127183295D01*
X96764184Y-127182196D01*
X96500599Y-127180962D01*
X96261605Y-127179594D01*
X96049779Y-127178091D01*
X95867694Y-127176455D01*
X95717923Y-127174685D01*
X95603042Y-127172781D01*
X95525623Y-127170743D01*
X95490282Y-127168813D01*
X95126967Y-127109867D01*
X94778276Y-127012040D01*
X94446567Y-126876968D01*
X94134198Y-126706287D01*
X93843526Y-126501633D01*
X93576910Y-126264642D01*
X93336707Y-125996951D01*
X93125275Y-125700196D01*
X92964996Y-125416524D01*
X92848312Y-125157376D01*
X92759162Y-124895661D01*
X92694313Y-124619837D01*
X92650530Y-124318363D01*
X92646555Y-124280083D01*
X92645564Y-124256949D01*
X92644602Y-124207469D01*
X92643668Y-124131318D01*
X92642763Y-124028172D01*
X92641886Y-123897704D01*
X92641038Y-123739591D01*
X92640217Y-123553506D01*
X92639425Y-123339126D01*
X92638660Y-123096125D01*
X92637923Y-122824178D01*
X92637214Y-122522960D01*
X92636531Y-122192146D01*
X92635877Y-121831411D01*
X92635249Y-121440431D01*
X92634648Y-121018879D01*
X92634074Y-120566432D01*
X92633527Y-120082764D01*
X92633007Y-119567550D01*
X92632512Y-119020465D01*
X92632045Y-118441184D01*
X92631603Y-117829383D01*
X92631187Y-117184735D01*
X92630953Y-116776152D01*
X104759599Y-116776152D01*
X104761993Y-116944748D01*
X104796754Y-117101501D01*
X104869424Y-117267239D01*
X104976408Y-117413618D01*
X105111930Y-117534875D01*
X105270212Y-117625249D01*
X105352554Y-117655959D01*
X105370166Y-117659379D01*
X105401286Y-117662528D01*
X105447508Y-117665416D01*
X105510426Y-117668056D01*
X105591636Y-117670457D01*
X105692731Y-117672631D01*
X105815307Y-117674588D01*
X105960957Y-117676341D01*
X106131277Y-117677899D01*
X106327861Y-117679274D01*
X106552303Y-117680478D01*
X106806199Y-117681520D01*
X107091143Y-117682412D01*
X107408729Y-117683166D01*
X107760552Y-117683791D01*
X108148206Y-117684300D01*
X108573287Y-117684703D01*
X109037388Y-117685011D01*
X109542105Y-117685236D01*
X109582895Y-117685250D01*
X110075044Y-117685412D01*
X110526665Y-117685534D01*
X110939562Y-117685601D01*
X111315540Y-117685594D01*
X111656405Y-117685497D01*
X111963960Y-117685293D01*
X112240012Y-117684964D01*
X112486364Y-117684493D01*
X112704822Y-117683863D01*
X112897190Y-117683057D01*
X113065273Y-117682059D01*
X113210877Y-117680850D01*
X113335806Y-117679413D01*
X113441864Y-117677732D01*
X113530858Y-117675790D01*
X113604591Y-117673569D01*
X113664868Y-117671052D01*
X113713495Y-117668222D01*
X113752276Y-117665061D01*
X113783017Y-117661554D01*
X113807521Y-117657682D01*
X113827594Y-117653429D01*
X113845041Y-117648777D01*
X113858562Y-117644682D01*
X114013915Y-117575293D01*
X114154489Y-117472212D01*
X114272813Y-117343023D01*
X114361415Y-117195310D01*
X114398472Y-117096629D01*
X114423761Y-116955362D01*
X114425206Y-116828860D01*
X132260307Y-116828860D01*
X132268317Y-116986366D01*
X132298593Y-117129173D01*
X132310466Y-117162720D01*
X132368749Y-117273155D01*
X132453908Y-117386763D01*
X132554026Y-117489764D01*
X132657187Y-117568380D01*
X132665663Y-117573467D01*
X132686971Y-117586428D01*
X132706010Y-117598340D01*
X132724562Y-117609244D01*
X132744411Y-117619185D01*
X132767338Y-117628204D01*
X132795126Y-117636343D01*
X132829559Y-117643646D01*
X132872417Y-117650155D01*
X132925484Y-117655913D01*
X132990543Y-117660962D01*
X133069375Y-117665345D01*
X133163764Y-117669104D01*
X133275492Y-117672282D01*
X133406341Y-117674921D01*
X133558094Y-117677065D01*
X133732534Y-117678756D01*
X133931442Y-117680036D01*
X134156602Y-117680948D01*
X134409796Y-117681534D01*
X134692807Y-117681838D01*
X135007417Y-117681901D01*
X135355409Y-117681766D01*
X135738564Y-117681477D01*
X136158667Y-117681075D01*
X136617498Y-117680602D01*
X137116842Y-117680103D01*
X137128250Y-117680092D01*
X141319250Y-117676083D01*
X141439735Y-117616916D01*
X141598144Y-117518295D01*
X141725586Y-117396605D01*
X141822059Y-117256923D01*
X141887561Y-117104324D01*
X141922091Y-116943886D01*
X141925646Y-116780685D01*
X141922854Y-116764301D01*
X159757166Y-116764301D01*
X159757295Y-116934257D01*
X159792741Y-117102887D01*
X159864613Y-117264834D01*
X159972163Y-117412679D01*
X160106621Y-117534720D01*
X160257564Y-117622484D01*
X160357171Y-117657856D01*
X160377668Y-117661096D01*
X160415195Y-117664059D01*
X160471224Y-117666755D01*
X160547226Y-117669189D01*
X160644673Y-117671370D01*
X160765038Y-117673306D01*
X160909793Y-117675004D01*
X161080409Y-117676472D01*
X161278359Y-117677718D01*
X161505114Y-117678748D01*
X161762147Y-117679571D01*
X162050930Y-117680195D01*
X162372934Y-117680627D01*
X162729632Y-117680874D01*
X163122496Y-117680945D01*
X163552997Y-117680846D01*
X164022608Y-117680587D01*
X164532800Y-117680174D01*
X164634333Y-117680078D01*
X168814750Y-117676083D01*
X168954219Y-117607835D01*
X169104845Y-117512314D01*
X169231040Y-117388365D01*
X169329339Y-117242554D01*
X169396277Y-117081448D01*
X169428387Y-116911613D01*
X169422205Y-116739615D01*
X169419886Y-116725581D01*
X169367959Y-116544953D01*
X169280802Y-116380971D01*
X169162894Y-116239592D01*
X169018715Y-116126774D01*
X168935782Y-116081811D01*
X168814750Y-116025083D01*
X160369250Y-116025083D01*
X160247485Y-116082146D01*
X160087655Y-116178368D01*
X159957600Y-116300052D01*
X159858428Y-116441841D01*
X159791247Y-116598376D01*
X159757166Y-116764301D01*
X141922854Y-116764301D01*
X141898225Y-116619799D01*
X141839825Y-116466304D01*
X141750446Y-116325276D01*
X141630085Y-116201794D01*
X141478741Y-116100932D01*
X141440282Y-116081811D01*
X141319250Y-116025083D01*
X132873750Y-116025083D01*
X132740980Y-116086396D01*
X132615965Y-116161958D01*
X132496856Y-116266099D01*
X132394795Y-116387143D01*
X132320921Y-116513416D01*
X132311023Y-116536956D01*
X132274547Y-116673457D01*
X132260307Y-116828860D01*
X114425206Y-116828860D01*
X114425537Y-116799971D01*
X114405009Y-116646630D01*
X114363384Y-116511509D01*
X114353096Y-116489038D01*
X114265853Y-116351181D01*
X114148676Y-116224837D01*
X114013956Y-116122378D01*
X113950750Y-116087283D01*
X113823750Y-116025083D01*
X105378250Y-116025083D01*
X105255532Y-116082582D01*
X105088568Y-116181715D01*
X104954701Y-116307220D01*
X104853756Y-116459296D01*
X104795635Y-116603285D01*
X104759599Y-116776152D01*
X92630953Y-116776152D01*
X92630798Y-116506917D01*
X92630433Y-115795603D01*
G37*
X92630433Y-115795603D02*
X92630095Y-115050468D01*
X92629782Y-114271188D01*
X92629495Y-113457436D01*
X92629232Y-112608889D01*
X92628995Y-111725221D01*
X92628783Y-110806107D01*
X92628595Y-109851222D01*
X92628432Y-108860242D01*
X92628294Y-107832840D01*
X92628180Y-106768693D01*
X92628090Y-105667475D01*
X92628024Y-104528862D01*
X92627982Y-103352527D01*
X92627965Y-102138147D01*
X92627970Y-100885396D01*
X92628000Y-99593949D01*
X92628052Y-98263482D01*
X92628129Y-96893668D01*
X92628228Y-95484184D01*
X92628350Y-94034705D01*
X92628495Y-92544904D01*
X92628663Y-91014458D01*
X92628853Y-89443041D01*
X92629066Y-87830328D01*
X92629301Y-86175995D01*
X92629559Y-84479716D01*
X92629611Y-84148083D01*
X92629860Y-82576322D01*
X92630081Y-81191843D01*
X104761381Y-81191843D01*
X104789763Y-81350049D01*
X104847882Y-81500895D01*
X104935358Y-81639439D01*
X105051811Y-81760735D01*
X105196859Y-81859841D01*
X105357083Y-81927761D01*
X105374943Y-81931060D01*
X105407927Y-81934079D01*
X105457567Y-81936827D01*
X105525395Y-81939312D01*
X105612946Y-81941541D01*
X105721752Y-81943524D01*
X105853346Y-81945269D01*
X106009261Y-81946783D01*
X106191030Y-81948075D01*
X106400186Y-81949154D01*
X106638262Y-81950027D01*
X106906791Y-81950703D01*
X107207305Y-81951189D01*
X107541338Y-81951495D01*
X107910424Y-81951629D01*
X108316093Y-81951598D01*
X108759881Y-81951411D01*
X109243319Y-81951076D01*
X109632750Y-81950732D01*
X113823750Y-81946750D01*
X113945844Y-81889535D01*
X114067370Y-81815414D01*
X114185037Y-81713210D01*
X114286325Y-81595478D01*
X114358072Y-81476177D01*
X114400090Y-81348247D01*
X114422840Y-81198963D01*
X114424870Y-81065936D01*
X159754912Y-81065936D01*
X159759272Y-81241137D01*
X159801591Y-81414185D01*
X159833228Y-81489071D01*
X159920502Y-81626293D01*
X160039319Y-81750249D01*
X160179095Y-81851865D01*
X160329247Y-81922063D01*
X160343554Y-81926732D01*
X160360815Y-81930131D01*
X160391063Y-81933243D01*
X160435898Y-81936076D01*
X160496920Y-81938640D01*
X160575727Y-81940944D01*
X160673921Y-81942997D01*
X160793099Y-81944807D01*
X160934862Y-81946384D01*
X161100809Y-81947737D01*
X161292540Y-81948875D01*
X161511654Y-81949806D01*
X161759751Y-81950539D01*
X162038430Y-81951084D01*
X162349290Y-81951450D01*
X162693932Y-81951645D01*
X163073955Y-81951679D01*
X163490958Y-81951560D01*
X163946541Y-81951297D01*
X164442304Y-81950900D01*
X164623750Y-81950732D01*
X168814750Y-81946750D01*
X168935782Y-81890022D01*
X169087091Y-81797773D01*
X169215362Y-81676952D01*
X169317025Y-81534166D01*
X169388510Y-81376021D01*
X169426246Y-81209124D01*
X169426665Y-81040082D01*
X169419793Y-80994262D01*
X169365880Y-80808619D01*
X169278564Y-80645356D01*
X169160975Y-80508028D01*
X169016244Y-80400188D01*
X168847502Y-80325389D01*
X168824313Y-80318377D01*
X168807437Y-80314356D01*
X168784841Y-80310673D01*
X168754763Y-80307318D01*
X168715441Y-80304279D01*
X168665110Y-80301544D01*
X168602008Y-80299101D01*
X168524372Y-80296940D01*
X168430439Y-80295048D01*
X168318447Y-80293414D01*
X168186631Y-80292026D01*
X168033230Y-80290873D01*
X167856480Y-80289942D01*
X167654618Y-80289224D01*
X167425882Y-80288705D01*
X167168508Y-80288374D01*
X166880734Y-80288221D01*
X166560796Y-80288232D01*
X166206932Y-80288397D01*
X165817378Y-80288704D01*
X165390372Y-80289141D01*
X164924151Y-80289697D01*
X164538063Y-80290198D01*
X160369250Y-80295750D01*
X160229780Y-80363997D01*
X160075512Y-80461522D01*
X159948813Y-80586374D01*
X159851762Y-80732658D01*
X159786435Y-80894478D01*
X159754912Y-81065936D01*
X114424870Y-81065936D01*
X114425186Y-81045229D01*
X114405991Y-80903946D01*
X114398472Y-80875203D01*
X114332085Y-80719122D01*
X114231267Y-80577265D01*
X114103375Y-80457060D01*
X113955764Y-80365939D01*
X113855500Y-80326670D01*
X113838624Y-80321672D01*
X113820763Y-80317088D01*
X113800116Y-80312903D01*
X113774886Y-80309102D01*
X113743272Y-80305669D01*
X113703474Y-80302589D01*
X113653694Y-80299847D01*
X113592132Y-80297428D01*
X113516988Y-80295315D01*
X113426463Y-80293495D01*
X113318758Y-80291952D01*
X113192074Y-80290670D01*
X113044610Y-80289634D01*
X112874567Y-80288829D01*
X112680146Y-80288240D01*
X112459548Y-80287851D01*
X112210973Y-80287647D01*
X111932621Y-80287613D01*
X111622694Y-80287734D01*
X111279391Y-80287993D01*
X110900914Y-80288377D01*
X110485462Y-80288870D01*
X110031237Y-80289456D01*
X109547633Y-80290105D01*
X105377350Y-80295750D01*
X105236858Y-80364916D01*
X105078832Y-80463458D01*
X104952826Y-80584303D01*
X104858458Y-80722508D01*
X104795348Y-80873129D01*
X104763115Y-81031222D01*
X104761381Y-81191843D01*
X92630081Y-81191843D01*
X92630105Y-81046330D01*
X92630345Y-79557541D01*
X92630583Y-78109391D01*
X92630818Y-76701315D01*
X92631050Y-75332748D01*
X92631281Y-74003125D01*
X92631512Y-72711881D01*
X92631742Y-71458452D01*
X92631973Y-70242272D01*
X92632205Y-69062777D01*
X92632439Y-67919402D01*
X92632675Y-66811582D01*
X92632914Y-65738752D01*
X92633157Y-64700348D01*
X92633404Y-63695803D01*
X92633656Y-62724555D01*
X92633914Y-61786037D01*
X92634178Y-60879684D01*
X92634449Y-60004933D01*
X92634727Y-59161218D01*
X92635013Y-58347974D01*
X92635308Y-57564636D01*
X92635613Y-56810640D01*
X92635927Y-56085420D01*
X92636252Y-55388413D01*
X92636588Y-54719052D01*
X92636937Y-54076773D01*
X92637298Y-53461011D01*
X92637672Y-52871202D01*
X92638059Y-52306780D01*
X92638462Y-51767181D01*
X92638879Y-51251840D01*
X92639312Y-50760191D01*
X92639762Y-50291671D01*
X92640228Y-49845713D01*
X92640712Y-49421754D01*
X92641214Y-49019228D01*
X92641736Y-48637571D01*
X92642276Y-48276218D01*
X92642837Y-47934603D01*
X92643419Y-47612163D01*
X92644022Y-47308331D01*
X92644647Y-47022544D01*
X92645295Y-46754236D01*
X92645966Y-46502843D01*
X92646662Y-46267799D01*
X92647381Y-46048540D01*
X92648127Y-45844501D01*
X92648897Y-45655117D01*
X92649695Y-45479824D01*
X92650273Y-45366219D01*
X104762311Y-45366219D01*
X104768392Y-45519665D01*
X104796521Y-45659079D01*
X104821531Y-45724983D01*
X104921387Y-45896109D01*
X105045412Y-46032736D01*
X105194553Y-46135758D01*
X105308868Y-46186381D01*
X105322973Y-46191139D01*
X105338984Y-46195504D01*
X105358684Y-46199490D01*
X105383851Y-46203113D01*
X105416268Y-46206387D01*
X105457714Y-46209326D01*
X105509971Y-46211947D01*
X105574818Y-46214262D01*
X105654038Y-46216288D01*
X105749410Y-46218038D01*
X105862715Y-46219527D01*
X105995735Y-46220771D01*
X106150248Y-46221784D01*
X106328038Y-46222580D01*
X106530883Y-46223174D01*
X106760564Y-46223582D01*
X107018864Y-46223817D01*
X107307561Y-46223895D01*
X107628437Y-46223831D01*
X107983273Y-46223638D01*
X108373848Y-46223332D01*
X108801945Y-46222927D01*
X109269343Y-46222438D01*
X109622166Y-46222053D01*
X113823750Y-46217416D01*
X113944782Y-46160688D01*
X114097130Y-46067138D01*
X114229578Y-45941871D01*
X114332636Y-45794205D01*
X114347809Y-45765000D01*
X114378268Y-45700460D01*
X114398073Y-45647053D01*
X114409505Y-45592399D01*
X114414841Y-45524118D01*
X114416363Y-45429832D01*
X114416416Y-45392361D01*
X114416257Y-45373430D01*
X132253478Y-45373430D01*
X132264887Y-45522333D01*
X132316353Y-45709336D01*
X132402148Y-45871719D01*
X132521672Y-46008777D01*
X132674324Y-46119807D01*
X132840842Y-46197379D01*
X132856492Y-46200753D01*
X132885453Y-46203842D01*
X132929310Y-46206655D01*
X132989646Y-46209203D01*
X133068045Y-46211492D01*
X133166092Y-46213533D01*
X133285371Y-46215334D01*
X133427466Y-46216903D01*
X133593960Y-46218250D01*
X133786439Y-46219384D01*
X134006487Y-46220314D01*
X134255686Y-46221048D01*
X134535623Y-46221595D01*
X134847880Y-46221964D01*
X135194041Y-46222163D01*
X135575692Y-46222203D01*
X135994416Y-46222091D01*
X136451797Y-46221837D01*
X136949420Y-46221449D01*
X137117666Y-46221298D01*
X141319250Y-46217416D01*
X141440282Y-46160688D01*
X141597511Y-46064689D01*
X141727911Y-45939554D01*
X141828378Y-45791089D01*
X141895806Y-45625099D01*
X141927091Y-45447391D01*
X141926156Y-45425466D01*
X159752754Y-45425466D01*
X159775572Y-45594516D01*
X159833561Y-45757236D01*
X159927382Y-45907910D01*
X159992854Y-45981927D01*
X160106713Y-46079916D01*
X160234639Y-46154883D01*
X160336342Y-46197379D01*
X160351992Y-46200753D01*
X160380953Y-46203842D01*
X160424810Y-46206655D01*
X160485146Y-46209203D01*
X160563545Y-46211492D01*
X160661592Y-46213533D01*
X160780871Y-46215334D01*
X160922966Y-46216903D01*
X161089460Y-46218250D01*
X161281939Y-46219384D01*
X161501987Y-46220314D01*
X161751186Y-46221048D01*
X162031123Y-46221595D01*
X162343380Y-46221964D01*
X162689541Y-46222163D01*
X163071192Y-46222203D01*
X163489916Y-46222091D01*
X163947297Y-46221837D01*
X164444920Y-46221449D01*
X164613166Y-46221298D01*
X168814750Y-46217416D01*
X168941750Y-46158160D01*
X169092093Y-46066542D01*
X169219457Y-45946040D01*
X169320204Y-45803354D01*
X169390696Y-45645183D01*
X169427296Y-45478227D01*
X169426366Y-45309184D01*
X169421242Y-45275066D01*
X169368386Y-45085324D01*
X169281490Y-44919343D01*
X169161888Y-44779187D01*
X169040965Y-44685377D01*
X169018149Y-44670166D01*
X168997899Y-44656190D01*
X168978422Y-44643397D01*
X168957928Y-44631736D01*
X168934623Y-44621154D01*
X168906717Y-44611600D01*
X168872419Y-44603019D01*
X168829935Y-44595362D01*
X168777476Y-44588575D01*
X168713248Y-44582607D01*
X168635462Y-44577404D01*
X168542324Y-44572916D01*
X168432043Y-44569089D01*
X168302829Y-44565872D01*
X168152888Y-44563213D01*
X167980430Y-44561059D01*
X167783663Y-44559358D01*
X167560794Y-44558058D01*
X167310034Y-44557106D01*
X167029590Y-44556452D01*
X166717670Y-44556042D01*
X166372482Y-44555824D01*
X165992236Y-44555746D01*
X165575140Y-44555757D01*
X165119401Y-44555803D01*
X164623229Y-44555833D01*
X164591999Y-44555833D01*
X164093334Y-44555806D01*
X163635209Y-44555759D01*
X163215835Y-44555745D01*
X162833419Y-44555816D01*
X162486170Y-44556024D01*
X162172296Y-44556421D01*
X161890006Y-44557059D01*
X161637507Y-44557991D01*
X161413009Y-44559268D01*
X161214720Y-44560944D01*
X161040848Y-44563069D01*
X160889601Y-44565697D01*
X160759188Y-44568879D01*
X160647817Y-44572667D01*
X160553697Y-44577114D01*
X160475036Y-44582272D01*
X160410042Y-44588193D01*
X160356924Y-44594929D01*
X160313891Y-44602532D01*
X160279149Y-44611055D01*
X160250909Y-44620550D01*
X160227378Y-44631069D01*
X160206765Y-44642663D01*
X160187278Y-44655386D01*
X160167125Y-44669289D01*
X160144515Y-44684425D01*
X160143034Y-44685377D01*
X159999936Y-44800317D01*
X159888696Y-44937513D01*
X159809978Y-45091248D01*
X159764443Y-45255805D01*
X159752754Y-45425466D01*
X141926156Y-45425466D01*
X141919305Y-45264916D01*
X141871268Y-45083388D01*
X141787118Y-44923155D01*
X141668617Y-44786597D01*
X141517526Y-44676096D01*
X141461844Y-44646264D01*
X141300288Y-44566416D01*
X137140957Y-44560864D01*
X136644312Y-44560223D01*
X136188233Y-44559691D01*
X135770950Y-44559279D01*
X135390696Y-44559000D01*
X135045703Y-44558864D01*
X134734202Y-44558883D01*
X134454426Y-44559071D01*
X134204607Y-44559437D01*
X133982975Y-44559994D01*
X133787764Y-44560754D01*
X133617205Y-44561729D01*
X133469530Y-44562930D01*
X133342971Y-44564369D01*
X133235759Y-44566058D01*
X133146127Y-44568009D01*
X133072307Y-44570233D01*
X133012530Y-44572743D01*
X132965028Y-44575550D01*
X132928033Y-44578665D01*
X132899777Y-44582101D01*
X132878493Y-44585870D01*
X132864457Y-44589374D01*
X132694130Y-44659234D01*
X132546777Y-44760304D01*
X132425718Y-44887423D01*
X132334269Y-45035426D01*
X132275750Y-45199149D01*
X132253478Y-45373430D01*
X114416257Y-45373430D01*
X114415520Y-45286191D01*
X114411441Y-45210228D01*
X114402090Y-45152359D01*
X114385378Y-45100472D01*
X114359219Y-45042454D01*
X114354386Y-45032544D01*
X114257678Y-44881425D01*
X114128611Y-44750956D01*
X113975151Y-44648897D01*
X113945262Y-44634004D01*
X113802583Y-44566416D01*
X105399416Y-44566416D01*
X105272416Y-44617397D01*
X105152994Y-44682506D01*
X105035001Y-44776916D01*
X104929572Y-44889462D01*
X104847840Y-45008976D01*
X104816716Y-45074416D01*
X104778384Y-45213038D01*
X104762311Y-45366219D01*
X92650273Y-45366219D01*
X92650519Y-45318056D01*
X92651372Y-45169248D01*
X92652253Y-45032836D01*
X92653162Y-44908254D01*
X92654102Y-44794939D01*
X92655072Y-44692324D01*
X92656072Y-44599846D01*
X92657105Y-44516939D01*
X92658169Y-44443039D01*
X92659266Y-44377580D01*
X92660397Y-44319998D01*
X92661562Y-44269728D01*
X92662762Y-44226204D01*
X92663997Y-44188863D01*
X92665268Y-44157139D01*
X92666576Y-44130468D01*
X92667921Y-44108284D01*
X92669304Y-44090023D01*
X92670726Y-44075120D01*
X92672187Y-44063009D01*
X92673687Y-44053127D01*
X92674645Y-44047833D01*
X92763415Y-43691432D01*
X92888690Y-43349635D01*
X93048342Y-43026218D01*
X93240240Y-42724960D01*
X93462257Y-42449639D01*
X93712262Y-42204030D01*
X93715416Y-42201285D01*
X94007018Y-41974261D01*
X94314981Y-41786056D01*
X94640081Y-41636350D01*
X94983091Y-41524824D01*
X95344785Y-41451156D01*
X95596539Y-41422929D01*
X95627280Y-41422181D01*
X95699568Y-41421447D01*
X95812619Y-41420727D01*
X95965646Y-41420021D01*
X96157865Y-41419329D01*
X96388489Y-41418652D01*
X96656732Y-41417988D01*
X96961810Y-41417338D01*
X97302936Y-41416702D01*
X97679326Y-41416080D01*
X98090193Y-41415472D01*
X98534752Y-41414878D01*
X99012217Y-41414299D01*
X99521803Y-41413733D01*
X100062724Y-41413181D01*
X100634195Y-41412643D01*
X101235429Y-41412119D01*
X101865642Y-41411610D01*
X102524048Y-41411114D01*
X103209861Y-41410632D01*
X103922296Y-41410164D01*
X104660567Y-41409711D01*
X105423888Y-41409271D01*
X106211474Y-41408845D01*
X107022539Y-41408433D01*
X107856298Y-41408036D01*
X108711965Y-41407652D01*
X109588755Y-41407282D01*
X110485882Y-41406927D01*
X111402560Y-41406585D01*
X112338004Y-41406257D01*
X113291428Y-41405944D01*
X114262046Y-41405644D01*
X115249074Y-41405359D01*
X116251725Y-41405087D01*
X117269214Y-41404829D01*
X118300756Y-41404586D01*
X119345564Y-41404356D01*
X120402853Y-41404141D01*
X121471837Y-41403939D01*
X122551732Y-41403751D01*
X123641751Y-41403578D01*
X124741108Y-41403418D01*
X125849019Y-41403273D01*
X126964698Y-41403141D01*
X128087358Y-41403024D01*
X129216215Y-41402920D01*
X130350483Y-41402831D01*
X131489376Y-41402755D01*
X132632108Y-41402694D01*
X133777895Y-41402646D01*
X134925950Y-41402613D01*
X136075488Y-41402594D01*
X137225724Y-41402588D01*
X138375871Y-41402597D01*
X139525145Y-41402619D01*
X140672759Y-41402656D01*
X141817928Y-41402706D01*
X142959866Y-41402771D01*
X144097788Y-41402850D01*
X145230909Y-41402942D01*
X146358442Y-41403049D01*
X147479602Y-41403170D01*
X148593604Y-41403304D01*
X149699661Y-41403453D01*
X150796989Y-41403616D01*
X151884802Y-41403792D01*
X152962313Y-41403983D01*
X154028739Y-41404188D01*
X155083292Y-41404407D01*
X156125188Y-41404639D01*
X157153640Y-41404886D01*
X158167864Y-41405147D01*
X159167073Y-41405421D01*
X160150483Y-41405710D01*
X161117307Y-41406013D01*
X162066760Y-41406330D01*
X162998056Y-41406661D01*
X163910409Y-41407005D01*
X164803035Y-41407364D01*
X165675148Y-41407737D01*
X166525961Y-41408124D01*
X167354690Y-41408525D01*
X168160549Y-41408940D01*
X168942751Y-41409368D01*
X169700513Y-41409811D01*
X170433047Y-41410268D01*
X171139569Y-41410739D01*
X171819293Y-41411224D01*
X172471433Y-41411723D01*
X173095204Y-41412236D01*
X173689819Y-41412763D01*
X174254495Y-41413304D01*
X174788444Y-41413859D01*
X175290882Y-41414428D01*
X175761022Y-41415011D01*
X176198080Y-41415608D01*
X176601269Y-41416219D01*
X176969804Y-41416844D01*
X177302900Y-41417483D01*
X177599770Y-41418136D01*
X177859630Y-41418803D01*
X178081694Y-41419484D01*
X178265175Y-41420179D01*
X178409289Y-41420888D01*
X178513250Y-41421611D01*
X178576273Y-41422348D01*
X178596460Y-41422929D01*
X178899812Y-41457739D01*
X179178296Y-41514756D01*
X179445066Y-41597572D01*
X179713276Y-41709782D01*
X179800250Y-41751833D01*
X180113072Y-41930807D01*
X180400934Y-42142810D01*
X180661946Y-42385378D01*
X180894214Y-42656045D01*
X181095849Y-42952343D01*
X181264957Y-43271809D01*
X181399649Y-43611976D01*
X181496460Y-43963166D01*
X181498009Y-43970910D01*
X181499517Y-43980200D01*
X181500984Y-43991600D01*
X181502412Y-44005673D01*
X181503800Y-44022983D01*
X181505149Y-44044092D01*
X181506460Y-44069563D01*
X181507733Y-44099960D01*
X181508969Y-44135846D01*
X181510169Y-44177783D01*
X181511332Y-44226336D01*
X181512460Y-44282067D01*
X181513553Y-44345539D01*
X181514611Y-44417316D01*
X181515635Y-44497960D01*
X181516626Y-44588035D01*
X181517585Y-44688104D01*
X181518511Y-44798731D01*
X181519405Y-44920477D01*
X181520268Y-45053907D01*
X181521101Y-45199583D01*
X181521904Y-45358069D01*
X181522677Y-45529927D01*
X181523421Y-45715722D01*
X181524137Y-45916015D01*
X181524825Y-46131371D01*
X181525485Y-46362352D01*
X181526119Y-46609522D01*
X181526727Y-46873443D01*
X181527309Y-47154679D01*
X181527867Y-47453793D01*
X181528399Y-47771349D01*
X181528908Y-48107908D01*
X181529393Y-48464035D01*
X181529855Y-48840292D01*
X181530295Y-49237243D01*
X181530713Y-49655450D01*
X181531110Y-50095478D01*
X181531487Y-50557888D01*
X181531843Y-51043245D01*
X181532179Y-51552111D01*
X181532497Y-52085050D01*
X181532796Y-52642625D01*
X181533077Y-53225398D01*
X181533341Y-53833933D01*
X181533588Y-54468793D01*
X181533819Y-55130542D01*
X181534034Y-55819741D01*
X181534234Y-56536956D01*
X181534419Y-57282748D01*
X181534591Y-58057680D01*
X181534748Y-58862317D01*
X181534893Y-59697221D01*
X181535025Y-60562955D01*
X181535146Y-61460082D01*
X181535255Y-62389166D01*
X181535354Y-63350770D01*
X181535442Y-64345456D01*
X181535520Y-65373789D01*
X181535590Y-66436330D01*
X181535651Y-67533644D01*
X181535704Y-68666293D01*
X181535749Y-69834840D01*
X181535788Y-71039850D01*
X181535820Y-72281884D01*
X181535847Y-73561506D01*
X181535868Y-74879279D01*
X181535885Y-76235766D01*
X181535897Y-77631531D01*
X181535906Y-79067136D01*
X181535911Y-80543145D01*
X181535915Y-82060121D01*
X181535916Y-83618626D01*
X181535916Y-84296250D01*
X181535915Y-85872643D01*
X181535913Y-87407266D01*
X181535908Y-88900682D01*
X181535901Y-90353455D01*
X181535890Y-91766146D01*
X181535876Y-93139320D01*
X181535856Y-94473539D01*
X181535832Y-95769368D01*
X181535803Y-97027368D01*
X181535767Y-98248102D01*
X181535724Y-99432135D01*
X181535674Y-100580030D01*
X181535617Y-101692348D01*
X181535551Y-102769654D01*
X181535477Y-103812511D01*
X181535393Y-104821482D01*
X181535298Y-105797129D01*
X181535194Y-106740017D01*
X181535078Y-107650708D01*
X181534951Y-108529765D01*
X181534812Y-109377752D01*
X181534659Y-110195232D01*
X181534494Y-110982767D01*
X181534315Y-111740922D01*
X181534121Y-112470258D01*
X181533913Y-113171340D01*
X181533689Y-113844730D01*
X181533449Y-114490992D01*
X181533192Y-115110688D01*
X181532918Y-115704382D01*
X181532627Y-116272637D01*
X181532317Y-116816017D01*
X181531989Y-117335083D01*
X181531641Y-117830400D01*
X181531273Y-118302530D01*
X181530885Y-118752038D01*
X181530476Y-119179485D01*
X181530046Y-119585435D01*
X181529593Y-119970451D01*
X181529117Y-120335096D01*
X181528619Y-120679934D01*
X181528097Y-121005527D01*
X181527550Y-121312439D01*
X181526979Y-121601233D01*
X181526382Y-121872472D01*
X181525759Y-122126719D01*
X181525110Y-122364537D01*
X181524434Y-122586489D01*
X181523730Y-122793140D01*
X181522998Y-122985050D01*
X181522237Y-123162785D01*
X181521447Y-123326907D01*
X181520627Y-123477979D01*
X181519777Y-123616564D01*
X181518896Y-123743225D01*
X181517984Y-123858526D01*
X181517039Y-123963030D01*
X181516062Y-124057300D01*
X181515052Y-124141898D01*
X181514008Y-124217389D01*
X181512930Y-124284335D01*
X181511817Y-124343299D01*
X181510669Y-124394845D01*
X181509485Y-124439536D01*
X181508265Y-124477934D01*
X181507008Y-124510604D01*
X181505713Y-124538108D01*
X181504380Y-124561009D01*
X181503009Y-124579870D01*
X181501598Y-124595255D01*
X181500148Y-124607727D01*
X181498657Y-124617848D01*
X181497126Y-124626183D01*
X181496460Y-124629333D01*
X181395593Y-124995600D01*
X181259336Y-125339691D01*
X181089283Y-125660026D01*
X180887028Y-125955027D01*
X180654164Y-126223116D01*
X180392286Y-126462715D01*
X180102986Y-126672246D01*
X179787860Y-126850130D01*
X179448500Y-126994788D01*
X179086500Y-127104643D01*
X178969785Y-127131416D01*
X178741916Y-127179820D01*
X174699083Y-127186511D01*
X174152969Y-127187323D01*
X173648207Y-127187880D01*
X173183813Y-127188177D01*
X172758806Y-127188211D01*
X172372204Y-127187978D01*
X172023026Y-127187473D01*
X171710289Y-127186693D01*
X171433011Y-127185635D01*
X171190211Y-127184293D01*
X170980906Y-127182665D01*
X170804116Y-127180746D01*
X170658857Y-127178532D01*
X170544149Y-127176020D01*
X170459009Y-127173205D01*
X170402455Y-127170084D01*
X170394072Y-127169385D01*
X170029750Y-127115606D01*
X169678500Y-127022304D01*
X169342828Y-126890690D01*
X169025238Y-126721973D01*
X168728234Y-126517364D01*
X168454320Y-126278072D01*
X168368429Y-126190650D01*
X168286936Y-126101223D01*
X168204301Y-126005055D01*
X168132156Y-125915935D01*
X168095687Y-125867325D01*
X168070223Y-125828155D01*
X168025344Y-125755143D01*
X167962733Y-125651149D01*
X167884071Y-125519034D01*
X167791040Y-125361658D01*
X167685321Y-125181880D01*
X167568598Y-124982562D01*
X167442550Y-124766563D01*
X167308862Y-124536744D01*
X167169213Y-124295965D01*
X167025287Y-124047086D01*
X167020871Y-124039440D01*
X166877131Y-123790731D01*
X166737890Y-123550259D01*
X166604804Y-123320858D01*
X166479529Y-123105360D01*
X166363719Y-122906600D01*
X166259031Y-122727410D01*
X166167119Y-122570623D01*
X166089639Y-122439074D01*
X166028247Y-122335595D01*
X165984598Y-122263020D01*
X165960347Y-122224182D01*
X165959787Y-122223345D01*
X165741884Y-121936748D01*
X165494295Y-121680003D01*
X165217992Y-121453769D01*
X164913948Y-121258707D01*
X164583136Y-121095478D01*
X164226528Y-120964740D01*
X164020661Y-120907152D01*
X163798250Y-120851340D01*
X137212916Y-120845250D01*
X135818560Y-120844943D01*
X134466162Y-120844669D01*
X133155346Y-120844429D01*
X131885736Y-120844224D01*
X130656958Y-120844053D01*
X129468635Y-120843917D01*
X128320393Y-120843816D01*
X127211855Y-120843750D01*
X126142645Y-120843719D01*
X125112390Y-120843724D01*
X124120712Y-120843765D01*
X123167236Y-120843843D01*
X122251587Y-120843956D01*
X121373389Y-120844106D01*
X120532267Y-120844294D01*
X119727845Y-120844518D01*
X118959748Y-120844779D01*
X118227600Y-120845079D01*
X117531025Y-120845416D01*
X116869648Y-120845791D01*
X116243093Y-120846204D01*
X115650986Y-120846656D01*
X115092949Y-120847147D01*
X114568608Y-120847676D01*
X114077588Y-120848245D01*
X113619512Y-120848854D01*
X113194005Y-120849502D01*
X112800692Y-120850190D01*
X112439196Y-120850919D01*
X112109144Y-120851688D01*
X111810158Y-120852497D01*
X111541863Y-120853348D01*
X111303884Y-120854239D01*
X111095846Y-120855172D01*
X110917372Y-120856147D01*
X110768088Y-120857164D01*
X110647617Y-120858222D01*
X110555584Y-120859323D01*
X110491613Y-120860467D01*
X110455330Y-120861653D01*
X110447666Y-120862235D01*
X110092158Y-120928732D01*
X109749132Y-121034395D01*
X109421724Y-121177263D01*
X109113068Y-121355373D01*
X108826300Y-121566765D01*
X108564557Y-121809477D01*
X108330973Y-122081548D01*
X108198310Y-122269250D01*
X108173365Y-122309589D01*
X108129013Y-122383704D01*
X108066956Y-122488673D01*
X107988897Y-122621577D01*
X107896540Y-122779496D01*
X107791585Y-122959510D01*
X107675737Y-123158700D01*
X107550698Y-123374145D01*
X107418170Y-123602926D01*
X107279857Y-123842123D01*
X107155330Y-124057833D01*
X107014220Y-124302273D01*
X106878045Y-124537808D01*
X106748435Y-124761638D01*
X106627023Y-124970959D01*
X106515440Y-125162969D01*
X106415320Y-125334866D01*
X106328292Y-125483848D01*
X106255991Y-125607113D01*
X106200047Y-125701858D01*
X106162093Y-125765281D01*
X106144506Y-125793500D01*
X105925202Y-126079957D01*
X105676496Y-126337235D01*
X105401110Y-126563724D01*
X105101765Y-126757815D01*
X104781183Y-126917900D01*
X104442086Y-127042369D01*
X104087197Y-127129615D01*
X103817320Y-127169127D01*
X103775488Y-127171281D01*
X103693898Y-127173298D01*
X103575122Y-127175179D01*
X103421736Y-127176923D01*
X103236312Y-127178531D01*
X103021426Y-127180002D01*
X102779652Y-127181338D01*
X102513562Y-127182537D01*
X102225732Y-127183600D01*
X101918736Y-127184528D01*
X101595147Y-127185319D01*
X101257540Y-127185975D01*
X100908489Y-127186495D01*
X100550568Y-127186880D01*
X100186350Y-127187129D01*
X99818410Y-127187243D01*
X99449323Y-127187222D01*
X99081661Y-127187065D01*
X98718000Y-127186774D01*
X98360913Y-127186348D01*
X98012974Y-127185787D01*
X97676758Y-127185091D01*
X97354838Y-127184260D01*
X97049789Y-127183295D01*
X96764184Y-127182196D01*
X96500599Y-127180962D01*
X96261605Y-127179594D01*
X96049779Y-127178091D01*
X95867694Y-127176455D01*
X95717923Y-127174685D01*
X95603042Y-127172781D01*
X95525623Y-127170743D01*
X95490282Y-127168813D01*
X95126967Y-127109867D01*
X94778276Y-127012040D01*
X94446567Y-126876968D01*
X94134198Y-126706287D01*
X93843526Y-126501633D01*
X93576910Y-126264642D01*
X93336707Y-125996951D01*
X93125275Y-125700196D01*
X92964996Y-125416524D01*
X92848312Y-125157376D01*
X92759162Y-124895661D01*
X92694313Y-124619837D01*
X92650530Y-124318363D01*
X92646555Y-124280083D01*
X92645564Y-124256949D01*
X92644602Y-124207469D01*
X92643668Y-124131318D01*
X92642763Y-124028172D01*
X92641886Y-123897704D01*
X92641038Y-123739591D01*
X92640217Y-123553506D01*
X92639425Y-123339126D01*
X92638660Y-123096125D01*
X92637923Y-122824178D01*
X92637214Y-122522960D01*
X92636531Y-122192146D01*
X92635877Y-121831411D01*
X92635249Y-121440431D01*
X92634648Y-121018879D01*
X92634074Y-120566432D01*
X92633527Y-120082764D01*
X92633007Y-119567550D01*
X92632512Y-119020465D01*
X92632045Y-118441184D01*
X92631603Y-117829383D01*
X92631187Y-117184735D01*
X92630953Y-116776152D01*
X104759599Y-116776152D01*
X104761993Y-116944748D01*
X104796754Y-117101501D01*
X104869424Y-117267239D01*
X104976408Y-117413618D01*
X105111930Y-117534875D01*
X105270212Y-117625249D01*
X105352554Y-117655959D01*
X105370166Y-117659379D01*
X105401286Y-117662528D01*
X105447508Y-117665416D01*
X105510426Y-117668056D01*
X105591636Y-117670457D01*
X105692731Y-117672631D01*
X105815307Y-117674588D01*
X105960957Y-117676341D01*
X106131277Y-117677899D01*
X106327861Y-117679274D01*
X106552303Y-117680478D01*
X106806199Y-117681520D01*
X107091143Y-117682412D01*
X107408729Y-117683166D01*
X107760552Y-117683791D01*
X108148206Y-117684300D01*
X108573287Y-117684703D01*
X109037388Y-117685011D01*
X109542105Y-117685236D01*
X109582895Y-117685250D01*
X110075044Y-117685412D01*
X110526665Y-117685534D01*
X110939562Y-117685601D01*
X111315540Y-117685594D01*
X111656405Y-117685497D01*
X111963960Y-117685293D01*
X112240012Y-117684964D01*
X112486364Y-117684493D01*
X112704822Y-117683863D01*
X112897190Y-117683057D01*
X113065273Y-117682059D01*
X113210877Y-117680850D01*
X113335806Y-117679413D01*
X113441864Y-117677732D01*
X113530858Y-117675790D01*
X113604591Y-117673569D01*
X113664868Y-117671052D01*
X113713495Y-117668222D01*
X113752276Y-117665061D01*
X113783017Y-117661554D01*
X113807521Y-117657682D01*
X113827594Y-117653429D01*
X113845041Y-117648777D01*
X113858562Y-117644682D01*
X114013915Y-117575293D01*
X114154489Y-117472212D01*
X114272813Y-117343023D01*
X114361415Y-117195310D01*
X114398472Y-117096629D01*
X114423761Y-116955362D01*
X114425206Y-116828860D01*
X132260307Y-116828860D01*
X132268317Y-116986366D01*
X132298593Y-117129173D01*
X132310466Y-117162720D01*
X132368749Y-117273155D01*
X132453908Y-117386763D01*
X132554026Y-117489764D01*
X132657187Y-117568380D01*
X132665663Y-117573467D01*
X132686971Y-117586428D01*
X132706010Y-117598340D01*
X132724562Y-117609244D01*
X132744411Y-117619185D01*
X132767338Y-117628204D01*
X132795126Y-117636343D01*
X132829559Y-117643646D01*
X132872417Y-117650155D01*
X132925484Y-117655913D01*
X132990543Y-117660962D01*
X133069375Y-117665345D01*
X133163764Y-117669104D01*
X133275492Y-117672282D01*
X133406341Y-117674921D01*
X133558094Y-117677065D01*
X133732534Y-117678756D01*
X133931442Y-117680036D01*
X134156602Y-117680948D01*
X134409796Y-117681534D01*
X134692807Y-117681838D01*
X135007417Y-117681901D01*
X135355409Y-117681766D01*
X135738564Y-117681477D01*
X136158667Y-117681075D01*
X136617498Y-117680602D01*
X137116842Y-117680103D01*
X137128250Y-117680092D01*
X141319250Y-117676083D01*
X141439735Y-117616916D01*
X141598144Y-117518295D01*
X141725586Y-117396605D01*
X141822059Y-117256923D01*
X141887561Y-117104324D01*
X141922091Y-116943886D01*
X141925646Y-116780685D01*
X141922854Y-116764301D01*
X159757166Y-116764301D01*
X159757295Y-116934257D01*
X159792741Y-117102887D01*
X159864613Y-117264834D01*
X159972163Y-117412679D01*
X160106621Y-117534720D01*
X160257564Y-117622484D01*
X160357171Y-117657856D01*
X160377668Y-117661096D01*
X160415195Y-117664059D01*
X160471224Y-117666755D01*
X160547226Y-117669189D01*
X160644673Y-117671370D01*
X160765038Y-117673306D01*
X160909793Y-117675004D01*
X161080409Y-117676472D01*
X161278359Y-117677718D01*
X161505114Y-117678748D01*
X161762147Y-117679571D01*
X162050930Y-117680195D01*
X162372934Y-117680627D01*
X162729632Y-117680874D01*
X163122496Y-117680945D01*
X163552997Y-117680846D01*
X164022608Y-117680587D01*
X164532800Y-117680174D01*
X164634333Y-117680078D01*
X168814750Y-117676083D01*
X168954219Y-117607835D01*
X169104845Y-117512314D01*
X169231040Y-117388365D01*
X169329339Y-117242554D01*
X169396277Y-117081448D01*
X169428387Y-116911613D01*
X169422205Y-116739615D01*
X169419886Y-116725581D01*
X169367959Y-116544953D01*
X169280802Y-116380971D01*
X169162894Y-116239592D01*
X169018715Y-116126774D01*
X168935782Y-116081811D01*
X168814750Y-116025083D01*
X160369250Y-116025083D01*
X160247485Y-116082146D01*
X160087655Y-116178368D01*
X159957600Y-116300052D01*
X159858428Y-116441841D01*
X159791247Y-116598376D01*
X159757166Y-116764301D01*
X141922854Y-116764301D01*
X141898225Y-116619799D01*
X141839825Y-116466304D01*
X141750446Y-116325276D01*
X141630085Y-116201794D01*
X141478741Y-116100932D01*
X141440282Y-116081811D01*
X141319250Y-116025083D01*
X132873750Y-116025083D01*
X132740980Y-116086396D01*
X132615965Y-116161958D01*
X132496856Y-116266099D01*
X132394795Y-116387143D01*
X132320921Y-116513416D01*
X132311023Y-116536956D01*
X132274547Y-116673457D01*
X132260307Y-116828860D01*
X114425206Y-116828860D01*
X114425537Y-116799971D01*
X114405009Y-116646630D01*
X114363384Y-116511509D01*
X114353096Y-116489038D01*
X114265853Y-116351181D01*
X114148676Y-116224837D01*
X114013956Y-116122378D01*
X113950750Y-116087283D01*
X113823750Y-116025083D01*
X105378250Y-116025083D01*
X105255532Y-116082582D01*
X105088568Y-116181715D01*
X104954701Y-116307220D01*
X104853756Y-116459296D01*
X104795635Y-116603285D01*
X104759599Y-116776152D01*
X92630953Y-116776152D01*
X92630798Y-116506917D01*
X92630433Y-115795603D01*
%TD*%
M02*
