%TF.GenerationSoftware,KiCad,Pcbnew,(6.0.0)*%
%TF.CreationDate,2022-01-21T14:37:34-08:00*%
%TF.ProjectId,PCB-side-name,5043422d-7369-4646-952d-6e616d652e6b,rev?*%
%TF.SameCoordinates,Original*%
%TF.FileFunction,Copper,L1,Top*%
%TF.FilePolarity,Positive*%
%FSLAX46Y46*%
G04 Gerber Fmt 4.6, Leading zero omitted, Abs format (unit mm)*
G04 Created by KiCad (PCBNEW (6.0.0)) date 2022-01-21 14:37:34*
%MOMM*%
%LPD*%
G01*
G04 APERTURE LIST*
%TA.AperFunction,EtchedComponent*%
%ADD10C,0.010000*%
%TD*%
G04 APERTURE END LIST*
D10*
%TO.C,Ref\u002A\u002A*%
X154393428Y-41405534D02*
X155758202Y-41405580D01*
X155758202Y-41405580D02*
X157084633Y-41405652D01*
X157084633Y-41405652D02*
X158372600Y-41405749D01*
X158372600Y-41405749D02*
X159621983Y-41405874D01*
X159621983Y-41405874D02*
X160832661Y-41406024D01*
X160832661Y-41406024D02*
X162004514Y-41406200D01*
X162004514Y-41406200D02*
X163137420Y-41406403D01*
X163137420Y-41406403D02*
X164231259Y-41406631D01*
X164231259Y-41406631D02*
X165285910Y-41406886D01*
X165285910Y-41406886D02*
X166301252Y-41407166D01*
X166301252Y-41407166D02*
X167277165Y-41407473D01*
X167277165Y-41407473D02*
X168213527Y-41407805D01*
X168213527Y-41407805D02*
X169110219Y-41408163D01*
X169110219Y-41408163D02*
X169967119Y-41408547D01*
X169967119Y-41408547D02*
X170784107Y-41408956D01*
X170784107Y-41408956D02*
X171561061Y-41409392D01*
X171561061Y-41409392D02*
X172297862Y-41409853D01*
X172297862Y-41409853D02*
X172994387Y-41410339D01*
X172994387Y-41410339D02*
X173650518Y-41410851D01*
X173650518Y-41410851D02*
X174266132Y-41411389D01*
X174266132Y-41411389D02*
X174841109Y-41411952D01*
X174841109Y-41411952D02*
X175375329Y-41412540D01*
X175375329Y-41412540D02*
X175868670Y-41413154D01*
X175868670Y-41413154D02*
X176321012Y-41413793D01*
X176321012Y-41413793D02*
X176732235Y-41414457D01*
X176732235Y-41414457D02*
X177102216Y-41415147D01*
X177102216Y-41415147D02*
X177430836Y-41415862D01*
X177430836Y-41415862D02*
X177717974Y-41416602D01*
X177717974Y-41416602D02*
X177963510Y-41417367D01*
X177963510Y-41417367D02*
X178167321Y-41418158D01*
X178167321Y-41418158D02*
X178329288Y-41418973D01*
X178329288Y-41418973D02*
X178449290Y-41419813D01*
X178449290Y-41419813D02*
X178527206Y-41420679D01*
X178527206Y-41420679D02*
X178562916Y-41421569D01*
X178562916Y-41421569D02*
X178563584Y-41421614D01*
X178563584Y-41421614D02*
X178857098Y-41452377D01*
X178857098Y-41452377D02*
X179123522Y-41501739D01*
X179123522Y-41501739D02*
X179375218Y-41572946D01*
X179375218Y-41572946D02*
X179624548Y-41669246D01*
X179624548Y-41669246D02*
X179779083Y-41740876D01*
X179779083Y-41740876D02*
X180093572Y-41918068D01*
X180093572Y-41918068D02*
X180383272Y-42128329D01*
X180383272Y-42128329D02*
X180646174Y-42369050D01*
X180646174Y-42369050D02*
X180880272Y-42637618D01*
X180880272Y-42637618D02*
X181083557Y-42931424D01*
X181083557Y-42931424D02*
X181254022Y-43247856D01*
X181254022Y-43247856D02*
X181389660Y-43584304D01*
X181389660Y-43584304D02*
X181488462Y-43938157D01*
X181488462Y-43938157D02*
X181496103Y-43973750D01*
X181496103Y-43973750D02*
X181497666Y-43981836D01*
X181497666Y-43981836D02*
X181499188Y-43991311D01*
X181499188Y-43991311D02*
X181500669Y-44002740D01*
X181500669Y-44002740D02*
X181502109Y-44016685D01*
X181502109Y-44016685D02*
X181503510Y-44033711D01*
X181503510Y-44033711D02*
X181504871Y-44054380D01*
X181504871Y-44054380D02*
X181506194Y-44079255D01*
X181506194Y-44079255D02*
X181507479Y-44108902D01*
X181507479Y-44108902D02*
X181508726Y-44143882D01*
X181508726Y-44143882D02*
X181509936Y-44184761D01*
X181509936Y-44184761D02*
X181511110Y-44232100D01*
X181511110Y-44232100D02*
X181512248Y-44286464D01*
X181512248Y-44286464D02*
X181513351Y-44348415D01*
X181513351Y-44348415D02*
X181514418Y-44418519D01*
X181514418Y-44418519D02*
X181515452Y-44497338D01*
X181515452Y-44497338D02*
X181516452Y-44585435D01*
X181516452Y-44585435D02*
X181517419Y-44683374D01*
X181517419Y-44683374D02*
X181518353Y-44791719D01*
X181518353Y-44791719D02*
X181519256Y-44911033D01*
X181519256Y-44911033D02*
X181520127Y-45041880D01*
X181520127Y-45041880D02*
X181520967Y-45184823D01*
X181520967Y-45184823D02*
X181521777Y-45340425D01*
X181521777Y-45340425D02*
X181522557Y-45509251D01*
X181522557Y-45509251D02*
X181523307Y-45691864D01*
X181523307Y-45691864D02*
X181524030Y-45888826D01*
X181524030Y-45888826D02*
X181524724Y-46100702D01*
X181524724Y-46100702D02*
X181525390Y-46328056D01*
X181525390Y-46328056D02*
X181526030Y-46571450D01*
X181526030Y-46571450D02*
X181526643Y-46831448D01*
X181526643Y-46831448D02*
X181527231Y-47108614D01*
X181527231Y-47108614D02*
X181527793Y-47403512D01*
X181527793Y-47403512D02*
X181528330Y-47716704D01*
X181528330Y-47716704D02*
X181528843Y-48048754D01*
X181528843Y-48048754D02*
X181529332Y-48400226D01*
X181529332Y-48400226D02*
X181529799Y-48771683D01*
X181529799Y-48771683D02*
X181530243Y-49163689D01*
X181530243Y-49163689D02*
X181530665Y-49576807D01*
X181530665Y-49576807D02*
X181531065Y-50011601D01*
X181531065Y-50011601D02*
X181531445Y-50468635D01*
X181531445Y-50468635D02*
X181531804Y-50948471D01*
X181531804Y-50948471D02*
X181532144Y-51451673D01*
X181532144Y-51451673D02*
X181532464Y-51978805D01*
X181532464Y-51978805D02*
X181532766Y-52530431D01*
X181532766Y-52530431D02*
X181533050Y-53107113D01*
X181533050Y-53107113D02*
X181533316Y-53709416D01*
X181533316Y-53709416D02*
X181533565Y-54337902D01*
X181533565Y-54337902D02*
X181533798Y-54993136D01*
X181533798Y-54993136D02*
X181534015Y-55675680D01*
X181534015Y-55675680D02*
X181534216Y-56386099D01*
X181534216Y-56386099D02*
X181534403Y-57124956D01*
X181534403Y-57124956D02*
X181534576Y-57892814D01*
X181534576Y-57892814D02*
X181534735Y-58690237D01*
X181534735Y-58690237D02*
X181534881Y-59517788D01*
X181534881Y-59517788D02*
X181535015Y-60376031D01*
X181535015Y-60376031D02*
X181535137Y-61265530D01*
X181535137Y-61265530D02*
X181535247Y-62186847D01*
X181535247Y-62186847D02*
X181535346Y-63140547D01*
X181535346Y-63140547D02*
X181535435Y-64127193D01*
X181535435Y-64127193D02*
X181535515Y-65147348D01*
X181535515Y-65147348D02*
X181535585Y-66201576D01*
X181535585Y-66201576D02*
X181535646Y-67290441D01*
X181535646Y-67290441D02*
X181535700Y-68414505D01*
X181535700Y-68414505D02*
X181535746Y-69574333D01*
X181535746Y-69574333D02*
X181535785Y-70770488D01*
X181535785Y-70770488D02*
X181535818Y-72003533D01*
X181535818Y-72003533D02*
X181535845Y-73274032D01*
X181535845Y-73274032D02*
X181535866Y-74582549D01*
X181535866Y-74582549D02*
X181535883Y-75929646D01*
X181535883Y-75929646D02*
X181535896Y-77315888D01*
X181535896Y-77315888D02*
X181535905Y-78741838D01*
X181535905Y-78741838D02*
X181535911Y-80208060D01*
X181535911Y-80208060D02*
X181535914Y-81715117D01*
X181535914Y-81715117D02*
X181535916Y-83263572D01*
X181535916Y-83263572D02*
X181535916Y-84306833D01*
X181535916Y-84306833D02*
X181535915Y-85883016D01*
X181535915Y-85883016D02*
X181535913Y-87417429D01*
X181535913Y-87417429D02*
X181535908Y-88910635D01*
X181535908Y-88910635D02*
X181535901Y-90363197D01*
X181535901Y-90363197D02*
X181535890Y-91775679D01*
X181535890Y-91775679D02*
X181535876Y-93148643D01*
X181535876Y-93148643D02*
X181535856Y-94482654D01*
X181535856Y-94482654D02*
X181535832Y-95778273D01*
X181535832Y-95778273D02*
X181535802Y-97036066D01*
X181535802Y-97036066D02*
X181535767Y-98256593D01*
X181535767Y-98256593D02*
X181535724Y-99440420D01*
X181535724Y-99440420D02*
X181535674Y-100588109D01*
X181535674Y-100588109D02*
X181535617Y-101700223D01*
X181535617Y-101700223D02*
X181535551Y-102777325D01*
X181535551Y-102777325D02*
X181535476Y-103819979D01*
X181535476Y-103819979D02*
X181535392Y-104828748D01*
X181535392Y-104828748D02*
X181535298Y-105804196D01*
X181535298Y-105804196D02*
X181535194Y-106746885D01*
X181535194Y-106746885D02*
X181535078Y-107657378D01*
X181535078Y-107657378D02*
X181534951Y-108536239D01*
X181534951Y-108536239D02*
X181534811Y-109384031D01*
X181534811Y-109384031D02*
X181534659Y-110201317D01*
X181534659Y-110201317D02*
X181534494Y-110988661D01*
X181534494Y-110988661D02*
X181534314Y-111746626D01*
X181534314Y-111746626D02*
X181534121Y-112475774D01*
X181534121Y-112475774D02*
X181533912Y-113176670D01*
X181533912Y-113176670D02*
X181533688Y-113849876D01*
X181533688Y-113849876D02*
X181533448Y-114495955D01*
X181533448Y-114495955D02*
X181533191Y-115115472D01*
X181533191Y-115115472D02*
X181532917Y-115708988D01*
X181532917Y-115708988D02*
X181532626Y-116277067D01*
X181532626Y-116277067D02*
X181532316Y-116820273D01*
X181532316Y-116820273D02*
X181531987Y-117339169D01*
X181531987Y-117339169D02*
X181531639Y-117834317D01*
X181531639Y-117834317D02*
X181531272Y-118306282D01*
X181531272Y-118306282D02*
X181530883Y-118755626D01*
X181530883Y-118755626D02*
X181530474Y-119182912D01*
X181530474Y-119182912D02*
X181530043Y-119588704D01*
X181530043Y-119588704D02*
X181529590Y-119973565D01*
X181529590Y-119973565D02*
X181529115Y-120338059D01*
X181529115Y-120338059D02*
X181528616Y-120682747D01*
X181528616Y-120682747D02*
X181528094Y-121008195D01*
X181528094Y-121008195D02*
X181527547Y-121314964D01*
X181527547Y-121314964D02*
X181526975Y-121603618D01*
X181526975Y-121603618D02*
X181526378Y-121874720D01*
X181526378Y-121874720D02*
X181525755Y-122128834D01*
X181525755Y-122128834D02*
X181525106Y-122366523D01*
X181525106Y-122366523D02*
X181524429Y-122588350D01*
X181524429Y-122588350D02*
X181523725Y-122794878D01*
X181523725Y-122794878D02*
X181522993Y-122986670D01*
X181522993Y-122986670D02*
X181522232Y-123164289D01*
X181522232Y-123164289D02*
X181521442Y-123328300D01*
X181521442Y-123328300D02*
X181520621Y-123479264D01*
X181520621Y-123479264D02*
X181519771Y-123617746D01*
X181519771Y-123617746D02*
X181518890Y-123744308D01*
X181518890Y-123744308D02*
X181517977Y-123859514D01*
X181517977Y-123859514D02*
X181517032Y-123963927D01*
X181517032Y-123963927D02*
X181516055Y-124058110D01*
X181516055Y-124058110D02*
X181515044Y-124142626D01*
X181515044Y-124142626D02*
X181514000Y-124218039D01*
X181514000Y-124218039D02*
X181512921Y-124284912D01*
X181512921Y-124284912D02*
X181511808Y-124343807D01*
X181511808Y-124343807D02*
X181510660Y-124395289D01*
X181510660Y-124395289D02*
X181509475Y-124439920D01*
X181509475Y-124439920D02*
X181508254Y-124478264D01*
X181508254Y-124478264D02*
X181506997Y-124510884D01*
X181506997Y-124510884D02*
X181505701Y-124538343D01*
X181505701Y-124538343D02*
X181504368Y-124561204D01*
X181504368Y-124561204D02*
X181502996Y-124580030D01*
X181502996Y-124580030D02*
X181501585Y-124595386D01*
X181501585Y-124595386D02*
X181500134Y-124607833D01*
X181500134Y-124607833D02*
X181498643Y-124617935D01*
X181498643Y-124617935D02*
X181497111Y-124626256D01*
X181497111Y-124626256D02*
X181496460Y-124629333D01*
X181496460Y-124629333D02*
X181396622Y-124991201D01*
X181396622Y-124991201D02*
X181261167Y-125332771D01*
X181261167Y-125332771D02*
X181091866Y-125652050D01*
X181091866Y-125652050D02*
X180890488Y-125947046D01*
X180890488Y-125947046D02*
X180658803Y-126215765D01*
X180658803Y-126215765D02*
X180398583Y-126456216D01*
X180398583Y-126456216D02*
X180111597Y-126666404D01*
X180111597Y-126666404D02*
X179799616Y-126844337D01*
X179799616Y-126844337D02*
X179464409Y-126988022D01*
X179464409Y-126988022D02*
X179373103Y-127019712D01*
X179373103Y-127019712D02*
X179317577Y-127038446D01*
X179317577Y-127038446D02*
X179267765Y-127055657D01*
X179267765Y-127055657D02*
X179221773Y-127071413D01*
X179221773Y-127071413D02*
X179177711Y-127085778D01*
X179177711Y-127085778D02*
X179133685Y-127098822D01*
X179133685Y-127098822D02*
X179087804Y-127110609D01*
X179087804Y-127110609D02*
X179038175Y-127121207D01*
X179038175Y-127121207D02*
X178982906Y-127130682D01*
X178982906Y-127130682D02*
X178920105Y-127139102D01*
X178920105Y-127139102D02*
X178847879Y-127146532D01*
X178847879Y-127146532D02*
X178764336Y-127153041D01*
X178764336Y-127153041D02*
X178667584Y-127158694D01*
X178667584Y-127158694D02*
X178555731Y-127163558D01*
X178555731Y-127163558D02*
X178426884Y-127167700D01*
X178426884Y-127167700D02*
X178279151Y-127171187D01*
X178279151Y-127171187D02*
X178110641Y-127174085D01*
X178110641Y-127174085D02*
X177919460Y-127176462D01*
X177919460Y-127176462D02*
X177703716Y-127178383D01*
X177703716Y-127178383D02*
X177461518Y-127179916D01*
X177461518Y-127179916D02*
X177190973Y-127181128D01*
X177190973Y-127181128D02*
X176890188Y-127182085D01*
X176890188Y-127182085D02*
X176557272Y-127182853D01*
X176557272Y-127182853D02*
X176190331Y-127183500D01*
X176190331Y-127183500D02*
X175787475Y-127184093D01*
X175787475Y-127184093D02*
X175346811Y-127184697D01*
X175346811Y-127184697D02*
X174866446Y-127185381D01*
X174866446Y-127185381D02*
X174667333Y-127185684D01*
X174667333Y-127185684D02*
X174165485Y-127186443D01*
X174165485Y-127186443D02*
X173704096Y-127187071D01*
X173704096Y-127187071D02*
X173281291Y-127187538D01*
X173281291Y-127187538D02*
X172895196Y-127187818D01*
X172895196Y-127187818D02*
X172543936Y-127187881D01*
X172543936Y-127187881D02*
X172225637Y-127187699D01*
X172225637Y-127187699D02*
X171938425Y-127187244D01*
X171938425Y-127187244D02*
X171680424Y-127186488D01*
X171680424Y-127186488D02*
X171449761Y-127185403D01*
X171449761Y-127185403D02*
X171244561Y-127183961D01*
X171244561Y-127183961D02*
X171062950Y-127182132D01*
X171062950Y-127182132D02*
X170903053Y-127179890D01*
X170903053Y-127179890D02*
X170762995Y-127177205D01*
X170762995Y-127177205D02*
X170640902Y-127174049D01*
X170640902Y-127174049D02*
X170534901Y-127170395D01*
X170534901Y-127170395D02*
X170443115Y-127166214D01*
X170443115Y-127166214D02*
X170363671Y-127161478D01*
X170363671Y-127161478D02*
X170294694Y-127156158D01*
X170294694Y-127156158D02*
X170234311Y-127150227D01*
X170234311Y-127150227D02*
X170180645Y-127143655D01*
X170180645Y-127143655D02*
X170131824Y-127136416D01*
X170131824Y-127136416D02*
X170085972Y-127128480D01*
X170085972Y-127128480D02*
X170041215Y-127119820D01*
X170041215Y-127119820D02*
X170021068Y-127115707D01*
X170021068Y-127115707D02*
X169689844Y-127026556D01*
X169689844Y-127026556D02*
X169366520Y-126899071D01*
X169366520Y-126899071D02*
X169056549Y-126736635D01*
X169056549Y-126736635D02*
X168765385Y-126542630D01*
X168765385Y-126542630D02*
X168498483Y-126320439D01*
X168498483Y-126320439D02*
X168261295Y-126073444D01*
X168261295Y-126073444D02*
X168180290Y-125974044D01*
X168180290Y-125974044D02*
X168153863Y-125940200D01*
X168153863Y-125940200D02*
X168130495Y-125910271D01*
X168130495Y-125910271D02*
X168108778Y-125881899D01*
X168108778Y-125881899D02*
X168087304Y-125852731D01*
X168087304Y-125852731D02*
X168064665Y-125820411D01*
X168064665Y-125820411D02*
X168039453Y-125782583D01*
X168039453Y-125782583D02*
X168010261Y-125736892D01*
X168010261Y-125736892D02*
X167975679Y-125680983D01*
X167975679Y-125680983D02*
X167934300Y-125612500D01*
X167934300Y-125612500D02*
X167884717Y-125529089D01*
X167884717Y-125529089D02*
X167825520Y-125428394D01*
X167825520Y-125428394D02*
X167755303Y-125308059D01*
X167755303Y-125308059D02*
X167672656Y-125165730D01*
X167672656Y-125165730D02*
X167576172Y-124999050D01*
X167576172Y-124999050D02*
X167464443Y-124805665D01*
X167464443Y-124805665D02*
X167336061Y-124583219D01*
X167336061Y-124583219D02*
X167189618Y-124329358D01*
X167189618Y-124329358D02*
X167023705Y-124041725D01*
X167023705Y-124041725D02*
X166984156Y-123973166D01*
X166984156Y-123973166D02*
X166841429Y-123726083D01*
X166841429Y-123726083D02*
X166703063Y-123487184D01*
X166703063Y-123487184D02*
X166570739Y-123259334D01*
X166570739Y-123259334D02*
X166446137Y-123045397D01*
X166446137Y-123045397D02*
X166330937Y-122848238D01*
X166330937Y-122848238D02*
X166226819Y-122670721D01*
X166226819Y-122670721D02*
X166135463Y-122515712D01*
X166135463Y-122515712D02*
X166058549Y-122386074D01*
X166058549Y-122386074D02*
X165997757Y-122284672D01*
X165997757Y-122284672D02*
X165954766Y-122214371D01*
X165954766Y-122214371D02*
X165931848Y-122178864D01*
X165931848Y-122178864D02*
X165704865Y-121893536D01*
X165704865Y-121893536D02*
X165449417Y-121639121D01*
X165449417Y-121639121D02*
X165166883Y-121416511D01*
X165166883Y-121416511D02*
X164858645Y-121226597D01*
X164858645Y-121226597D02*
X164526083Y-121070271D01*
X164526083Y-121070271D02*
X164170577Y-120948424D01*
X164170577Y-120948424D02*
X163935326Y-120889738D01*
X163935326Y-120889738D02*
X163925801Y-120887881D01*
X163925801Y-120887881D02*
X163914290Y-120886084D01*
X163914290Y-120886084D02*
X163900100Y-120884346D01*
X163900100Y-120884346D02*
X163882540Y-120882667D01*
X163882540Y-120882667D02*
X163860917Y-120881045D01*
X163860917Y-120881045D02*
X163834539Y-120879479D01*
X163834539Y-120879479D02*
X163802715Y-120877969D01*
X163802715Y-120877969D02*
X163764751Y-120876514D01*
X163764751Y-120876514D02*
X163719955Y-120875112D01*
X163719955Y-120875112D02*
X163667637Y-120873762D01*
X163667637Y-120873762D02*
X163607102Y-120872463D01*
X163607102Y-120872463D02*
X163537660Y-120871216D01*
X163537660Y-120871216D02*
X163458617Y-120870017D01*
X163458617Y-120870017D02*
X163369283Y-120868867D01*
X163369283Y-120868867D02*
X163268964Y-120867764D01*
X163268964Y-120867764D02*
X163156968Y-120866708D01*
X163156968Y-120866708D02*
X163032604Y-120865698D01*
X163032604Y-120865698D02*
X162895178Y-120864731D01*
X162895178Y-120864731D02*
X162744000Y-120863808D01*
X162744000Y-120863808D02*
X162578376Y-120862928D01*
X162578376Y-120862928D02*
X162397615Y-120862089D01*
X162397615Y-120862089D02*
X162201025Y-120861291D01*
X162201025Y-120861291D02*
X161987912Y-120860532D01*
X161987912Y-120860532D02*
X161757586Y-120859811D01*
X161757586Y-120859811D02*
X161509354Y-120859128D01*
X161509354Y-120859128D02*
X161242523Y-120858482D01*
X161242523Y-120858482D02*
X160956402Y-120857871D01*
X160956402Y-120857871D02*
X160650298Y-120857294D01*
X160650298Y-120857294D02*
X160323519Y-120856751D01*
X160323519Y-120856751D02*
X159975374Y-120856240D01*
X159975374Y-120856240D02*
X159605169Y-120855761D01*
X159605169Y-120855761D02*
X159212213Y-120855313D01*
X159212213Y-120855313D02*
X158795813Y-120854893D01*
X158795813Y-120854893D02*
X158355278Y-120854503D01*
X158355278Y-120854503D02*
X157889915Y-120854140D01*
X157889915Y-120854140D02*
X157399032Y-120853803D01*
X157399032Y-120853803D02*
X156881936Y-120853492D01*
X156881936Y-120853492D02*
X156337937Y-120853205D01*
X156337937Y-120853205D02*
X155766341Y-120852942D01*
X155766341Y-120852942D02*
X155166456Y-120852702D01*
X155166456Y-120852702D02*
X154537590Y-120852483D01*
X154537590Y-120852483D02*
X153879051Y-120852284D01*
X153879051Y-120852284D02*
X153190147Y-120852105D01*
X153190147Y-120852105D02*
X152470186Y-120851944D01*
X152470186Y-120851944D02*
X151718475Y-120851802D01*
X151718475Y-120851802D02*
X150934322Y-120851675D01*
X150934322Y-120851675D02*
X150117036Y-120851564D01*
X150117036Y-120851564D02*
X149265923Y-120851468D01*
X149265923Y-120851468D02*
X148380292Y-120851385D01*
X148380292Y-120851385D02*
X147459451Y-120851315D01*
X147459451Y-120851315D02*
X146502707Y-120851256D01*
X146502707Y-120851256D02*
X145509369Y-120851208D01*
X145509369Y-120851208D02*
X144478743Y-120851169D01*
X144478743Y-120851169D02*
X143410139Y-120851139D01*
X143410139Y-120851139D02*
X142302863Y-120851117D01*
X142302863Y-120851117D02*
X141156223Y-120851101D01*
X141156223Y-120851101D02*
X139969528Y-120851091D01*
X139969528Y-120851091D02*
X138742085Y-120851085D01*
X138742085Y-120851085D02*
X137473203Y-120851083D01*
X137473203Y-120851083D02*
X137096500Y-120851083D01*
X137096500Y-120851083D02*
X135814912Y-120851084D01*
X135814912Y-120851084D02*
X134574967Y-120851090D01*
X134574967Y-120851090D02*
X133375972Y-120851100D01*
X133375972Y-120851100D02*
X132217235Y-120851116D01*
X132217235Y-120851116D02*
X131098066Y-120851139D01*
X131098066Y-120851139D02*
X130017772Y-120851169D01*
X130017772Y-120851169D02*
X128975662Y-120851208D01*
X128975662Y-120851208D02*
X127971044Y-120851257D01*
X127971044Y-120851257D02*
X127003226Y-120851316D01*
X127003226Y-120851316D02*
X126071518Y-120851387D01*
X126071518Y-120851387D02*
X125175227Y-120851470D01*
X125175227Y-120851470D02*
X124313662Y-120851567D01*
X124313662Y-120851567D02*
X123486132Y-120851679D01*
X123486132Y-120851679D02*
X122691944Y-120851806D01*
X122691944Y-120851806D02*
X121930408Y-120851949D01*
X121930408Y-120851949D02*
X121200831Y-120852110D01*
X121200831Y-120852110D02*
X120502522Y-120852289D01*
X120502522Y-120852289D02*
X119834790Y-120852488D01*
X119834790Y-120852488D02*
X119196942Y-120852707D01*
X119196942Y-120852707D02*
X118588288Y-120852947D01*
X118588288Y-120852947D02*
X118008135Y-120853210D01*
X118008135Y-120853210D02*
X117455793Y-120853496D01*
X117455793Y-120853496D02*
X116930569Y-120853806D01*
X116930569Y-120853806D02*
X116431772Y-120854142D01*
X116431772Y-120854142D02*
X115958710Y-120854503D01*
X115958710Y-120854503D02*
X115510692Y-120854892D01*
X115510692Y-120854892D02*
X115087026Y-120855309D01*
X115087026Y-120855309D02*
X114687021Y-120855755D01*
X114687021Y-120855755D02*
X114309985Y-120856232D01*
X114309985Y-120856232D02*
X113955227Y-120856739D01*
X113955227Y-120856739D02*
X113622054Y-120857278D01*
X113622054Y-120857278D02*
X113309775Y-120857851D01*
X113309775Y-120857851D02*
X113017700Y-120858457D01*
X113017700Y-120858457D02*
X112745135Y-120859098D01*
X112745135Y-120859098D02*
X112491390Y-120859776D01*
X112491390Y-120859776D02*
X112255773Y-120860490D01*
X112255773Y-120860490D02*
X112037592Y-120861242D01*
X112037592Y-120861242D02*
X111836156Y-120862033D01*
X111836156Y-120862033D02*
X111650774Y-120862864D01*
X111650774Y-120862864D02*
X111480753Y-120863735D01*
X111480753Y-120863735D02*
X111325402Y-120864649D01*
X111325402Y-120864649D02*
X111184029Y-120865605D01*
X111184029Y-120865605D02*
X111055943Y-120866605D01*
X111055943Y-120866605D02*
X110940453Y-120867649D01*
X110940453Y-120867649D02*
X110836866Y-120868739D01*
X110836866Y-120868739D02*
X110744492Y-120869876D01*
X110744492Y-120869876D02*
X110662638Y-120871061D01*
X110662638Y-120871061D02*
X110590613Y-120872294D01*
X110590613Y-120872294D02*
X110527725Y-120873577D01*
X110527725Y-120873577D02*
X110473284Y-120874910D01*
X110473284Y-120874910D02*
X110426596Y-120876295D01*
X110426596Y-120876295D02*
X110386971Y-120877732D01*
X110386971Y-120877732D02*
X110353717Y-120879223D01*
X110353717Y-120879223D02*
X110326143Y-120880768D01*
X110326143Y-120880768D02*
X110303557Y-120882369D01*
X110303557Y-120882369D02*
X110285267Y-120884026D01*
X110285267Y-120884026D02*
X110270581Y-120885740D01*
X110270581Y-120885740D02*
X110258809Y-120887513D01*
X110258809Y-120887513D02*
X110251453Y-120888886D01*
X110251453Y-120888886D02*
X109900106Y-120980841D01*
X109900106Y-120980841D02*
X109563828Y-121109517D01*
X109563828Y-121109517D02*
X109246019Y-121272698D01*
X109246019Y-121272698D02*
X108950080Y-121468165D01*
X108950080Y-121468165D02*
X108679411Y-121693703D01*
X108679411Y-121693703D02*
X108437413Y-121947092D01*
X108437413Y-121947092D02*
X108248269Y-122195166D01*
X108248269Y-122195166D02*
X108219509Y-122240212D01*
X108219509Y-122240212D02*
X108171416Y-122319003D01*
X108171416Y-122319003D02*
X108105731Y-122428568D01*
X108105731Y-122428568D02*
X108024197Y-122565939D01*
X108024197Y-122565939D02*
X107928558Y-122728146D01*
X107928558Y-122728146D02*
X107820555Y-122912219D01*
X107820555Y-122912219D02*
X107701931Y-123115190D01*
X107701931Y-123115190D02*
X107574429Y-123334089D01*
X107574429Y-123334089D02*
X107439792Y-123565946D01*
X107439792Y-123565946D02*
X107299761Y-123807791D01*
X107299761Y-123807791D02*
X107167605Y-124036666D01*
X107167605Y-124036666D02*
X107024280Y-124284799D01*
X107024280Y-124284799D02*
X106884806Y-124525459D01*
X106884806Y-124525459D02*
X106750917Y-124755698D01*
X106750917Y-124755698D02*
X106624347Y-124972572D01*
X106624347Y-124972572D02*
X106506830Y-125173133D01*
X106506830Y-125173133D02*
X106400100Y-125354437D01*
X106400100Y-125354437D02*
X106305891Y-125513538D01*
X106305891Y-125513538D02*
X106225937Y-125647488D01*
X106225937Y-125647488D02*
X106161971Y-125753343D01*
X106161971Y-125753343D02*
X106115728Y-125828156D01*
X106115728Y-125828156D02*
X106090190Y-125867232D01*
X106090190Y-125867232D02*
X105992963Y-125992323D01*
X105992963Y-125992323D02*
X105870638Y-126130507D01*
X105870638Y-126130507D02*
X105733448Y-126271560D01*
X105733448Y-126271560D02*
X105591626Y-126405252D01*
X105591626Y-126405252D02*
X105455404Y-126521359D01*
X105455404Y-126521359D02*
X105373712Y-126583264D01*
X105373712Y-126583264D02*
X105083403Y-126765586D01*
X105083403Y-126765586D02*
X104766140Y-126920765D01*
X104766140Y-126920765D02*
X104430102Y-127045271D01*
X104430102Y-127045271D02*
X104103285Y-127131427D01*
X104103285Y-127131427D02*
X103875416Y-127179841D01*
X103875416Y-127179841D02*
X99758500Y-127182553D01*
X99758500Y-127182553D02*
X99341883Y-127182745D01*
X99341883Y-127182745D02*
X98935316Y-127182769D01*
X98935316Y-127182769D02*
X98540930Y-127182632D01*
X98540930Y-127182632D02*
X98160859Y-127182341D01*
X98160859Y-127182341D02*
X97797234Y-127181903D01*
X97797234Y-127181903D02*
X97452190Y-127181325D01*
X97452190Y-127181325D02*
X97127857Y-127180613D01*
X97127857Y-127180613D02*
X96826370Y-127179774D01*
X96826370Y-127179774D02*
X96549860Y-127178814D01*
X96549860Y-127178814D02*
X96300461Y-127177741D01*
X96300461Y-127177741D02*
X96080305Y-127176562D01*
X96080305Y-127176562D02*
X95891525Y-127175282D01*
X95891525Y-127175282D02*
X95736254Y-127173909D01*
X95736254Y-127173909D02*
X95616623Y-127172449D01*
X95616623Y-127172449D02*
X95534767Y-127170910D01*
X95534767Y-127170910D02*
X95492817Y-127169298D01*
X95492817Y-127169298D02*
X95490282Y-127169070D01*
X95490282Y-127169070D02*
X95133531Y-127109841D01*
X95133531Y-127109841D02*
X94783792Y-127010138D01*
X94783792Y-127010138D02*
X94445813Y-126871761D01*
X94445813Y-126871761D02*
X94124341Y-126696508D01*
X94124341Y-126696508D02*
X93964743Y-126591026D01*
X93964743Y-126591026D02*
X93827468Y-126484841D01*
X93827468Y-126484841D02*
X93678931Y-126353735D01*
X93678931Y-126353735D02*
X93529853Y-126208365D01*
X93529853Y-126208365D02*
X93390954Y-126059391D01*
X93390954Y-126059391D02*
X93272954Y-125917472D01*
X93272954Y-125917472D02*
X93232568Y-125863045D01*
X93232568Y-125863045D02*
X93061073Y-125590795D01*
X93061073Y-125590795D02*
X92912220Y-125292034D01*
X92912220Y-125292034D02*
X92790973Y-124978675D01*
X92790973Y-124978675D02*
X92702294Y-124662629D01*
X92702294Y-124662629D02*
X92674474Y-124523500D01*
X92674474Y-124523500D02*
X92672957Y-124513864D01*
X92672957Y-124513864D02*
X92671480Y-124502305D01*
X92671480Y-124502305D02*
X92670043Y-124488257D01*
X92670043Y-124488257D02*
X92668645Y-124471157D01*
X92668645Y-124471157D02*
X92667286Y-124450439D01*
X92667286Y-124450439D02*
X92665965Y-124425541D01*
X92665965Y-124425541D02*
X92664681Y-124395896D01*
X92664681Y-124395896D02*
X92663435Y-124360942D01*
X92663435Y-124360942D02*
X92662225Y-124320114D01*
X92662225Y-124320114D02*
X92661051Y-124272846D01*
X92661051Y-124272846D02*
X92659912Y-124218576D01*
X92659912Y-124218576D02*
X92658808Y-124156739D01*
X92658808Y-124156739D02*
X92657739Y-124086770D01*
X92657739Y-124086770D02*
X92656703Y-124008105D01*
X92656703Y-124008105D02*
X92655700Y-123920179D01*
X92655700Y-123920179D02*
X92654731Y-123822429D01*
X92654731Y-123822429D02*
X92653793Y-123714291D01*
X92653793Y-123714291D02*
X92652887Y-123595199D01*
X92652887Y-123595199D02*
X92652012Y-123464589D01*
X92652012Y-123464589D02*
X92651168Y-123321898D01*
X92651168Y-123321898D02*
X92650353Y-123166560D01*
X92650353Y-123166560D02*
X92649568Y-122998012D01*
X92649568Y-122998012D02*
X92648812Y-122815688D01*
X92648812Y-122815688D02*
X92648085Y-122619026D01*
X92648085Y-122619026D02*
X92647385Y-122407460D01*
X92647385Y-122407460D02*
X92646712Y-122180427D01*
X92646712Y-122180427D02*
X92646066Y-121937361D01*
X92646066Y-121937361D02*
X92645447Y-121677698D01*
X92645447Y-121677698D02*
X92644853Y-121400875D01*
X92644853Y-121400875D02*
X92644284Y-121106327D01*
X92644284Y-121106327D02*
X92643740Y-120793489D01*
X92643740Y-120793489D02*
X92643219Y-120461797D01*
X92643219Y-120461797D02*
X92642723Y-120110687D01*
X92642723Y-120110687D02*
X92642249Y-119739595D01*
X92642249Y-119739595D02*
X92641798Y-119347956D01*
X92641798Y-119347956D02*
X92641368Y-118935206D01*
X92641368Y-118935206D02*
X92640960Y-118500780D01*
X92640960Y-118500780D02*
X92640573Y-118044115D01*
X92640573Y-118044115D02*
X92640206Y-117564645D01*
X92640206Y-117564645D02*
X92639858Y-117061808D01*
X92639858Y-117061808D02*
X92639762Y-116906572D01*
X92639762Y-116906572D02*
X104759454Y-116906572D01*
X104759454Y-116906572D02*
X104785949Y-117064651D01*
X104785949Y-117064651D02*
X104841683Y-117215957D01*
X104841683Y-117215957D02*
X104926273Y-117355547D01*
X104926273Y-117355547D02*
X105039336Y-117478482D01*
X105039336Y-117478482D02*
X105180489Y-117579820D01*
X105180489Y-117579820D02*
X105349349Y-117654621D01*
X105349349Y-117654621D02*
X105357083Y-117657121D01*
X105357083Y-117657121D02*
X105374909Y-117660422D01*
X105374909Y-117660422D02*
X105407796Y-117663443D01*
X105407796Y-117663443D02*
X105457280Y-117666193D01*
X105457280Y-117666193D02*
X105524894Y-117668679D01*
X105524894Y-117668679D02*
X105612175Y-117670910D01*
X105612175Y-117670910D02*
X105720657Y-117672894D01*
X105720657Y-117672894D02*
X105851875Y-117674640D01*
X105851875Y-117674640D02*
X106007364Y-117676155D01*
X106007364Y-117676155D02*
X106188659Y-117677447D01*
X106188659Y-117677447D02*
X106397295Y-117678526D01*
X106397295Y-117678526D02*
X106634808Y-117679399D01*
X106634808Y-117679399D02*
X106902731Y-117680075D01*
X106902731Y-117680075D02*
X107202601Y-117680562D01*
X107202601Y-117680562D02*
X107535952Y-117680867D01*
X107535952Y-117680867D02*
X107904318Y-117681000D01*
X107904318Y-117681000D02*
X108309236Y-117680968D01*
X108309236Y-117680968D02*
X108752240Y-117680781D01*
X108752240Y-117680781D02*
X109234865Y-117680445D01*
X109234865Y-117680445D02*
X109632750Y-117680092D01*
X109632750Y-117680092D02*
X113823750Y-117676083D01*
X113823750Y-117676083D02*
X113950750Y-117613883D01*
X113950750Y-117613883D02*
X114079558Y-117533400D01*
X114079558Y-117533400D02*
X114200560Y-117426081D01*
X114200560Y-117426081D02*
X114301589Y-117304091D01*
X114301589Y-117304091D02*
X114359202Y-117205511D01*
X114359202Y-117205511D02*
X114385076Y-117146026D01*
X114385076Y-117146026D02*
X114401776Y-117092256D01*
X114401776Y-117092256D02*
X114411261Y-117032041D01*
X114411261Y-117032041D02*
X114415488Y-116953219D01*
X114415488Y-116953219D02*
X114416416Y-116850138D01*
X114416416Y-116850138D02*
X114416034Y-116798845D01*
X114416034Y-116798845D02*
X132256405Y-116798845D01*
X132256405Y-116798845D02*
X132265206Y-116981146D01*
X132265206Y-116981146D02*
X132313167Y-117164117D01*
X132313167Y-117164117D02*
X132384053Y-117299663D01*
X132384053Y-117299663D02*
X132488041Y-117426644D01*
X132488041Y-117426644D02*
X132615902Y-117536571D01*
X132615902Y-117536571D02*
X132758405Y-117620953D01*
X132758405Y-117620953D02*
X132848054Y-117656092D01*
X132848054Y-117656092D02*
X132865287Y-117659493D01*
X132865287Y-117659493D02*
X132895456Y-117662607D01*
X132895456Y-117662607D02*
X132940162Y-117665442D01*
X132940162Y-117665442D02*
X133001006Y-117668008D01*
X133001006Y-117668008D02*
X133079590Y-117670314D01*
X133079590Y-117670314D02*
X133177514Y-117672368D01*
X133177514Y-117672368D02*
X133296380Y-117674179D01*
X133296380Y-117674179D02*
X133437787Y-117675757D01*
X133437787Y-117675757D02*
X133603338Y-117677110D01*
X133603338Y-117677110D02*
X133794633Y-117678248D01*
X133794633Y-117678248D02*
X134013273Y-117679179D01*
X134013273Y-117679179D02*
X134260859Y-117679913D01*
X134260859Y-117679913D02*
X134538992Y-117680457D01*
X134538992Y-117680457D02*
X134849273Y-117680823D01*
X134849273Y-117680823D02*
X135193303Y-117681017D01*
X135193303Y-117681017D02*
X135572683Y-117681050D01*
X135572683Y-117681050D02*
X135989014Y-117680930D01*
X135989014Y-117680930D02*
X136443898Y-117680666D01*
X136443898Y-117680666D02*
X136938934Y-117680268D01*
X136938934Y-117680268D02*
X137128250Y-117680092D01*
X137128250Y-117680092D02*
X141319250Y-117676083D01*
X141319250Y-117676083D02*
X141458719Y-117607835D01*
X141458719Y-117607835D02*
X141614506Y-117508742D01*
X141614506Y-117508742D02*
X141743772Y-117379152D01*
X141743772Y-117379152D02*
X141842677Y-117224310D01*
X141842677Y-117224310D02*
X141907384Y-117049461D01*
X141907384Y-117049461D02*
X141923152Y-116973119D01*
X141923152Y-116973119D02*
X141930802Y-116797531D01*
X141930802Y-116797531D02*
X141928116Y-116782589D01*
X141928116Y-116782589D02*
X159753407Y-116782589D01*
X159753407Y-116782589D02*
X159756528Y-116951591D01*
X159756528Y-116951591D02*
X159794732Y-117118356D01*
X159794732Y-117118356D02*
X159869053Y-117277447D01*
X159869053Y-117277447D02*
X159975958Y-117418573D01*
X159975958Y-117418573D02*
X160118882Y-117543769D01*
X160118882Y-117543769D02*
X160278387Y-117632317D01*
X160278387Y-117632317D02*
X160343554Y-117656066D01*
X160343554Y-117656066D02*
X160360815Y-117659464D01*
X160360815Y-117659464D02*
X160391063Y-117662576D01*
X160391063Y-117662576D02*
X160435898Y-117665409D01*
X160435898Y-117665409D02*
X160496920Y-117667973D01*
X160496920Y-117667973D02*
X160575727Y-117670277D01*
X160575727Y-117670277D02*
X160673921Y-117672330D01*
X160673921Y-117672330D02*
X160793099Y-117674141D01*
X160793099Y-117674141D02*
X160934862Y-117675718D01*
X160934862Y-117675718D02*
X161100809Y-117677070D01*
X161100809Y-117677070D02*
X161292540Y-117678208D01*
X161292540Y-117678208D02*
X161511654Y-117679139D01*
X161511654Y-117679139D02*
X161759751Y-117679873D01*
X161759751Y-117679873D02*
X162038430Y-117680418D01*
X162038430Y-117680418D02*
X162349290Y-117680783D01*
X162349290Y-117680783D02*
X162693932Y-117680979D01*
X162693932Y-117680979D02*
X163073955Y-117681012D01*
X163073955Y-117681012D02*
X163490958Y-117680893D01*
X163490958Y-117680893D02*
X163946541Y-117680630D01*
X163946541Y-117680630D02*
X164442304Y-117680233D01*
X164442304Y-117680233D02*
X164623750Y-117680066D01*
X164623750Y-117680066D02*
X168814750Y-117676083D01*
X168814750Y-117676083D02*
X168935782Y-117619355D01*
X168935782Y-117619355D02*
X169091991Y-117523431D01*
X169091991Y-117523431D02*
X169224624Y-117395788D01*
X169224624Y-117395788D02*
X169328898Y-117242639D01*
X169328898Y-117242639D02*
X169400030Y-117070199D01*
X169400030Y-117070199D02*
X169419350Y-116991083D01*
X169419350Y-116991083D02*
X169431861Y-116820506D01*
X169431861Y-116820506D02*
X169405865Y-116650628D01*
X169405865Y-116650628D02*
X169344794Y-116487905D01*
X169344794Y-116487905D02*
X169252081Y-116338791D01*
X169252081Y-116338791D02*
X169131159Y-116209741D01*
X169131159Y-116209741D02*
X168985461Y-116107210D01*
X168985461Y-116107210D02*
X168935782Y-116081811D01*
X168935782Y-116081811D02*
X168814750Y-116025083D01*
X168814750Y-116025083D02*
X160368359Y-116025083D01*
X160368359Y-116025083D02*
X160227862Y-116094249D01*
X160227862Y-116094249D02*
X160071076Y-116192910D01*
X160071076Y-116192910D02*
X159944204Y-116316509D01*
X159944204Y-116316509D02*
X159848279Y-116459613D01*
X159848279Y-116459613D02*
X159784336Y-116616784D01*
X159784336Y-116616784D02*
X159753407Y-116782589D01*
X159753407Y-116782589D02*
X141928116Y-116782589D01*
X141928116Y-116782589D02*
X141899739Y-116624779D01*
X141899739Y-116624779D02*
X141833435Y-116461271D01*
X141833435Y-116461271D02*
X141735360Y-116313413D01*
X141735360Y-116313413D02*
X141608985Y-116187611D01*
X141608985Y-116187611D02*
X141457780Y-116090271D01*
X141457780Y-116090271D02*
X141440282Y-116081811D01*
X141440282Y-116081811D02*
X141319250Y-116025083D01*
X141319250Y-116025083D02*
X132873750Y-116025083D01*
X132873750Y-116025083D02*
X132736166Y-116090584D01*
X132736166Y-116090584D02*
X132577019Y-116188284D01*
X132577019Y-116188284D02*
X132447477Y-116313016D01*
X132447477Y-116313016D02*
X132349532Y-116459724D01*
X132349532Y-116459724D02*
X132285178Y-116623352D01*
X132285178Y-116623352D02*
X132256405Y-116798845D01*
X132256405Y-116798845D02*
X114416034Y-116798845D01*
X114416034Y-116798845D02*
X114415631Y-116744977D01*
X114415631Y-116744977D02*
X114411756Y-116669763D01*
X114411756Y-116669763D02*
X114402511Y-116612115D01*
X114402511Y-116612115D02*
X114385618Y-116559654D01*
X114385618Y-116559654D02*
X114358797Y-116500000D01*
X114358797Y-116500000D02*
X114347809Y-116477499D01*
X114347809Y-116477499D02*
X114251268Y-116326692D01*
X114251268Y-116326692D02*
X114123571Y-116196551D01*
X114123571Y-116196551D02*
X113974207Y-116096392D01*
X113974207Y-116096392D02*
X113944782Y-116081811D01*
X113944782Y-116081811D02*
X113823750Y-116025083D01*
X113823750Y-116025083D02*
X105378250Y-116025083D01*
X105378250Y-116025083D02*
X105235909Y-116092512D01*
X105235909Y-116092512D02*
X105078940Y-116187483D01*
X105078940Y-116187483D02*
X104953505Y-116305324D01*
X104953505Y-116305324D02*
X104859222Y-116441094D01*
X104859222Y-116441094D02*
X104795707Y-116589852D01*
X104795707Y-116589852D02*
X104762578Y-116746658D01*
X104762578Y-116746658D02*
X104759454Y-116906572D01*
X104759454Y-116906572D02*
X92639762Y-116906572D01*
X92639762Y-116906572D02*
X92639530Y-116535037D01*
X92639530Y-116535037D02*
X92639221Y-115983769D01*
X92639221Y-115983769D02*
X92638929Y-115407440D01*
X92638929Y-115407440D02*
X92638655Y-114805485D01*
X92638655Y-114805485D02*
X92638399Y-114177340D01*
X92638399Y-114177340D02*
X92638158Y-113522441D01*
X92638158Y-113522441D02*
X92637934Y-112840223D01*
X92637934Y-112840223D02*
X92637725Y-112130122D01*
X92637725Y-112130122D02*
X92637530Y-111391574D01*
X92637530Y-111391574D02*
X92637350Y-110624013D01*
X92637350Y-110624013D02*
X92637184Y-109826877D01*
X92637184Y-109826877D02*
X92637031Y-108999601D01*
X92637031Y-108999601D02*
X92636891Y-108141620D01*
X92636891Y-108141620D02*
X92636763Y-107252370D01*
X92636763Y-107252370D02*
X92636646Y-106331286D01*
X92636646Y-106331286D02*
X92636541Y-105377805D01*
X92636541Y-105377805D02*
X92636446Y-104391362D01*
X92636446Y-104391362D02*
X92636361Y-103371393D01*
X92636361Y-103371393D02*
X92636286Y-102317333D01*
X92636286Y-102317333D02*
X92636219Y-101228618D01*
X92636219Y-101228618D02*
X92636161Y-100104684D01*
X92636161Y-100104684D02*
X92636110Y-98944966D01*
X92636110Y-98944966D02*
X92636067Y-97748900D01*
X92636067Y-97748900D02*
X92636031Y-96515922D01*
X92636031Y-96515922D02*
X92636000Y-95245468D01*
X92636000Y-95245468D02*
X92635976Y-93936972D01*
X92635976Y-93936972D02*
X92635956Y-92589872D01*
X92635956Y-92589872D02*
X92635941Y-91203602D01*
X92635941Y-91203602D02*
X92635930Y-89777597D01*
X92635930Y-89777597D02*
X92635923Y-88311295D01*
X92635923Y-88311295D02*
X92635919Y-86804130D01*
X92635919Y-86804130D02*
X92635916Y-85255538D01*
X92635916Y-85255538D02*
X92635916Y-84296250D01*
X92635916Y-84296250D02*
X92635917Y-82722498D01*
X92635917Y-82722498D02*
X92635920Y-81190515D01*
X92635920Y-81190515D02*
X92635920Y-81123444D01*
X92635920Y-81123444D02*
X104756343Y-81123444D01*
X104756343Y-81123444D02*
X104772572Y-81297743D01*
X104772572Y-81297743D02*
X104825929Y-81461523D01*
X104825929Y-81461523D02*
X104909083Y-81611437D01*
X104909083Y-81611437D02*
X105010137Y-81730515D01*
X105010137Y-81730515D02*
X105136943Y-81826159D01*
X105136943Y-81826159D02*
X105297075Y-81905656D01*
X105297075Y-81905656D02*
X105420583Y-81956549D01*
X105420583Y-81956549D02*
X109622166Y-81951649D01*
X109622166Y-81951649D02*
X113823750Y-81946750D01*
X113823750Y-81946750D02*
X113944782Y-81890022D01*
X113944782Y-81890022D02*
X114095545Y-81797594D01*
X114095545Y-81797594D02*
X114227187Y-81674004D01*
X114227187Y-81674004D02*
X114329700Y-81529048D01*
X114329700Y-81529048D02*
X114346707Y-81496573D01*
X114346707Y-81496573D02*
X114382938Y-81415624D01*
X114382938Y-81415624D02*
X114405104Y-81342337D01*
X114405104Y-81342337D02*
X114417463Y-81258754D01*
X114417463Y-81258754D02*
X114421758Y-81194086D01*
X114421758Y-81194086D02*
X159753753Y-81194086D01*
X159753753Y-81194086D02*
X159784099Y-81359601D01*
X159784099Y-81359601D02*
X159849826Y-81517621D01*
X159849826Y-81517621D02*
X159952134Y-81662625D01*
X159952134Y-81662625D02*
X159960811Y-81672271D01*
X159960811Y-81672271D02*
X160104724Y-81803692D01*
X160104724Y-81803692D02*
X160260451Y-81895336D01*
X160260451Y-81895336D02*
X160343554Y-81926732D01*
X160343554Y-81926732D02*
X160360815Y-81930131D01*
X160360815Y-81930131D02*
X160391063Y-81933243D01*
X160391063Y-81933243D02*
X160435898Y-81936076D01*
X160435898Y-81936076D02*
X160496920Y-81938640D01*
X160496920Y-81938640D02*
X160575727Y-81940944D01*
X160575727Y-81940944D02*
X160673921Y-81942997D01*
X160673921Y-81942997D02*
X160793099Y-81944807D01*
X160793099Y-81944807D02*
X160934862Y-81946384D01*
X160934862Y-81946384D02*
X161100809Y-81947737D01*
X161100809Y-81947737D02*
X161292540Y-81948875D01*
X161292540Y-81948875D02*
X161511654Y-81949806D01*
X161511654Y-81949806D02*
X161759751Y-81950539D01*
X161759751Y-81950539D02*
X162038430Y-81951084D01*
X162038430Y-81951084D02*
X162349290Y-81951450D01*
X162349290Y-81951450D02*
X162693932Y-81951645D01*
X162693932Y-81951645D02*
X163073955Y-81951679D01*
X163073955Y-81951679D02*
X163490958Y-81951560D01*
X163490958Y-81951560D02*
X163946541Y-81951297D01*
X163946541Y-81951297D02*
X164442304Y-81950900D01*
X164442304Y-81950900D02*
X164623750Y-81950732D01*
X164623750Y-81950732D02*
X168814750Y-81946750D01*
X168814750Y-81946750D02*
X168935782Y-81890022D01*
X168935782Y-81890022D02*
X169091991Y-81794098D01*
X169091991Y-81794098D02*
X169224624Y-81666455D01*
X169224624Y-81666455D02*
X169328898Y-81513306D01*
X169328898Y-81513306D02*
X169400030Y-81340866D01*
X169400030Y-81340866D02*
X169419350Y-81261750D01*
X169419350Y-81261750D02*
X169432139Y-81089762D01*
X169432139Y-81089762D02*
X169406219Y-80919119D01*
X169406219Y-80919119D02*
X169344912Y-80756231D01*
X169344912Y-80756231D02*
X169251537Y-80607507D01*
X169251537Y-80607507D02*
X169129416Y-80479356D01*
X169129416Y-80479356D02*
X168981869Y-80378187D01*
X168981869Y-80378187D02*
X168954219Y-80363997D01*
X168954219Y-80363997D02*
X168814750Y-80295750D01*
X168814750Y-80295750D02*
X160369250Y-80295750D01*
X160369250Y-80295750D02*
X160247485Y-80352812D01*
X160247485Y-80352812D02*
X160090741Y-80447343D01*
X160090741Y-80447343D02*
X159962179Y-80567508D01*
X159962179Y-80567508D02*
X159863000Y-80707786D01*
X159863000Y-80707786D02*
X159794403Y-80862657D01*
X159794403Y-80862657D02*
X159757587Y-81026597D01*
X159757587Y-81026597D02*
X159753753Y-81194086D01*
X159753753Y-81194086D02*
X114421758Y-81194086D01*
X114421758Y-81194086D02*
X114423041Y-81174771D01*
X114423041Y-81174771D02*
X114420939Y-81008474D01*
X114420939Y-81008474D02*
X114395042Y-80867016D01*
X114395042Y-80867016D02*
X114342180Y-80738264D01*
X114342180Y-80738264D02*
X114284561Y-80645073D01*
X114284561Y-80645073D02*
X114163963Y-80506656D01*
X114163963Y-80506656D02*
X114019298Y-80399026D01*
X114019298Y-80399026D02*
X113857468Y-80327304D01*
X113857468Y-80327304D02*
X113855500Y-80326697D01*
X113855500Y-80326697D02*
X113838618Y-80321702D01*
X113838618Y-80321702D02*
X113820740Y-80317120D01*
X113820740Y-80317120D02*
X113800068Y-80312938D01*
X113800068Y-80312938D02*
X113774800Y-80309139D01*
X113774800Y-80309139D02*
X113743139Y-80305708D01*
X113743139Y-80305708D02*
X113703284Y-80302630D01*
X113703284Y-80302630D02*
X113653435Y-80299889D01*
X113653435Y-80299889D02*
X113591794Y-80297471D01*
X113591794Y-80297471D02*
X113516560Y-80295360D01*
X113516560Y-80295360D02*
X113425934Y-80293541D01*
X113425934Y-80293541D02*
X113318117Y-80291998D01*
X113318117Y-80291998D02*
X113191308Y-80290716D01*
X113191308Y-80290716D02*
X113043710Y-80289681D01*
X113043710Y-80289681D02*
X112873521Y-80288876D01*
X112873521Y-80288876D02*
X112678942Y-80288286D01*
X112678942Y-80288286D02*
X112458175Y-80287897D01*
X112458175Y-80287897D02*
X112209418Y-80287692D01*
X112209418Y-80287692D02*
X111930874Y-80287657D01*
X111930874Y-80287657D02*
X111620742Y-80287776D01*
X111620742Y-80287776D02*
X111277222Y-80288034D01*
X111277222Y-80288034D02*
X110898516Y-80288416D01*
X110898516Y-80288416D02*
X110482823Y-80288906D01*
X110482823Y-80288906D02*
X110028344Y-80289490D01*
X110028344Y-80289490D02*
X109548083Y-80290132D01*
X109548083Y-80290132D02*
X105378250Y-80295750D01*
X105378250Y-80295750D02*
X105240666Y-80363186D01*
X105240666Y-80363186D02*
X105162515Y-80404881D01*
X105162515Y-80404881D02*
X105092163Y-80448226D01*
X105092163Y-80448226D02*
X105046724Y-80482288D01*
X105046724Y-80482288D02*
X104923799Y-80621019D01*
X104923799Y-80621019D02*
X104833439Y-80778506D01*
X104833439Y-80778506D02*
X104777126Y-80948173D01*
X104777126Y-80948173D02*
X104756343Y-81123444D01*
X104756343Y-81123444D02*
X92635920Y-81123444D01*
X92635920Y-81123444D02*
X92635925Y-79699736D01*
X92635925Y-79699736D02*
X92635933Y-78249596D01*
X92635933Y-78249596D02*
X92635945Y-76839532D01*
X92635945Y-76839532D02*
X92635961Y-75468979D01*
X92635961Y-75468979D02*
X92635981Y-74137372D01*
X92635981Y-74137372D02*
X92636007Y-72844146D01*
X92636007Y-72844146D02*
X92636039Y-71588737D01*
X92636039Y-71588737D02*
X92636076Y-70370580D01*
X92636076Y-70370580D02*
X92636121Y-69189111D01*
X92636121Y-69189111D02*
X92636173Y-68043766D01*
X92636173Y-68043766D02*
X92636233Y-66933979D01*
X92636233Y-66933979D02*
X92636301Y-65859187D01*
X92636301Y-65859187D02*
X92636379Y-64818824D01*
X92636379Y-64818824D02*
X92636466Y-63812326D01*
X92636466Y-63812326D02*
X92636563Y-62839129D01*
X92636563Y-62839129D02*
X92636671Y-61898667D01*
X92636671Y-61898667D02*
X92636790Y-60990378D01*
X92636790Y-60990378D02*
X92636921Y-60113695D01*
X92636921Y-60113695D02*
X92637064Y-59268054D01*
X92637064Y-59268054D02*
X92637220Y-58452891D01*
X92637220Y-58452891D02*
X92637390Y-57667642D01*
X92637390Y-57667642D02*
X92637573Y-56911741D01*
X92637573Y-56911741D02*
X92637771Y-56184624D01*
X92637771Y-56184624D02*
X92637984Y-55485727D01*
X92637984Y-55485727D02*
X92638212Y-54814485D01*
X92638212Y-54814485D02*
X92638457Y-54170334D01*
X92638457Y-54170334D02*
X92638718Y-53552708D01*
X92638718Y-53552708D02*
X92638997Y-52961044D01*
X92638997Y-52961044D02*
X92639293Y-52394777D01*
X92639293Y-52394777D02*
X92639608Y-51853342D01*
X92639608Y-51853342D02*
X92639941Y-51336175D01*
X92639941Y-51336175D02*
X92640294Y-50842711D01*
X92640294Y-50842711D02*
X92640667Y-50372386D01*
X92640667Y-50372386D02*
X92641061Y-49924634D01*
X92641061Y-49924634D02*
X92641475Y-49498893D01*
X92641475Y-49498893D02*
X92641911Y-49094596D01*
X92641911Y-49094596D02*
X92642370Y-48711180D01*
X92642370Y-48711180D02*
X92642850Y-48348080D01*
X92642850Y-48348080D02*
X92643355Y-48004731D01*
X92643355Y-48004731D02*
X92643883Y-47680569D01*
X92643883Y-47680569D02*
X92644435Y-47375029D01*
X92644435Y-47375029D02*
X92645012Y-47087547D01*
X92645012Y-47087547D02*
X92645615Y-46817558D01*
X92645615Y-46817558D02*
X92646243Y-46564498D01*
X92646243Y-46564498D02*
X92646898Y-46327801D01*
X92646898Y-46327801D02*
X92647580Y-46106905D01*
X92647580Y-46106905D02*
X92648290Y-45901243D01*
X92648290Y-45901243D02*
X92649028Y-45710252D01*
X92649028Y-45710252D02*
X92649795Y-45533366D01*
X92649795Y-45533366D02*
X92650431Y-45402500D01*
X92650431Y-45402500D02*
X104765471Y-45402500D01*
X104765471Y-45402500D02*
X104766966Y-45504817D01*
X104766966Y-45504817D02*
X104773506Y-45579415D01*
X104773506Y-45579415D02*
X104787655Y-45640834D01*
X104787655Y-45640834D02*
X104811973Y-45703613D01*
X104811973Y-45703613D02*
X104822668Y-45727109D01*
X104822668Y-45727109D02*
X104919981Y-45895653D01*
X104919981Y-45895653D02*
X105039895Y-46029408D01*
X105039895Y-46029408D02*
X105185187Y-46130990D01*
X105185187Y-46130990D02*
X105311127Y-46187150D01*
X105311127Y-46187150D02*
X105325145Y-46191812D01*
X105325145Y-46191812D02*
X105341442Y-46196089D01*
X105341442Y-46196089D02*
X105361797Y-46199994D01*
X105361797Y-46199994D02*
X105387989Y-46203543D01*
X105387989Y-46203543D02*
X105421796Y-46206749D01*
X105421796Y-46206749D02*
X105464997Y-46209627D01*
X105464997Y-46209627D02*
X105519372Y-46212192D01*
X105519372Y-46212192D02*
X105586698Y-46214457D01*
X105586698Y-46214457D02*
X105668756Y-46216438D01*
X105668756Y-46216438D02*
X105767323Y-46218147D01*
X105767323Y-46218147D02*
X105884179Y-46219601D01*
X105884179Y-46219601D02*
X106021102Y-46220813D01*
X106021102Y-46220813D02*
X106179872Y-46221798D01*
X106179872Y-46221798D02*
X106362267Y-46222570D01*
X106362267Y-46222570D02*
X106570066Y-46223144D01*
X106570066Y-46223144D02*
X106805048Y-46223533D01*
X106805048Y-46223533D02*
X107068991Y-46223752D01*
X107068991Y-46223752D02*
X107363675Y-46223817D01*
X107363675Y-46223817D02*
X107690879Y-46223740D01*
X107690879Y-46223740D02*
X108052381Y-46223536D01*
X108052381Y-46223536D02*
X108449960Y-46223221D01*
X108449960Y-46223221D02*
X108885395Y-46222808D01*
X108885395Y-46222808D02*
X109360466Y-46222311D01*
X109360466Y-46222311D02*
X109622166Y-46222026D01*
X109622166Y-46222026D02*
X113823750Y-46217416D01*
X113823750Y-46217416D02*
X113944782Y-46160688D01*
X113944782Y-46160688D02*
X114097130Y-46067138D01*
X114097130Y-46067138D02*
X114229578Y-45941871D01*
X114229578Y-45941871D02*
X114332636Y-45794205D01*
X114332636Y-45794205D02*
X114347809Y-45765000D01*
X114347809Y-45765000D02*
X114378268Y-45700460D01*
X114378268Y-45700460D02*
X114398073Y-45647053D01*
X114398073Y-45647053D02*
X114409505Y-45592399D01*
X114409505Y-45592399D02*
X114414841Y-45524118D01*
X114414841Y-45524118D02*
X114415644Y-45474332D01*
X114415644Y-45474332D02*
X132259939Y-45474332D01*
X132259939Y-45474332D02*
X132293422Y-45644120D01*
X132293422Y-45644120D02*
X132359097Y-45803227D01*
X132359097Y-45803227D02*
X132455498Y-45944960D01*
X132455498Y-45944960D02*
X132581157Y-46062626D01*
X132581157Y-46062626D02*
X132611973Y-46084213D01*
X132611973Y-46084213D02*
X132635752Y-46100826D01*
X132635752Y-46100826D02*
X132656069Y-46116100D01*
X132656069Y-46116100D02*
X132674699Y-46130090D01*
X132674699Y-46130090D02*
X132693420Y-46142850D01*
X132693420Y-46142850D02*
X132714008Y-46154435D01*
X132714008Y-46154435D02*
X132738240Y-46164898D01*
X132738240Y-46164898D02*
X132767892Y-46174295D01*
X132767892Y-46174295D02*
X132804741Y-46182678D01*
X132804741Y-46182678D02*
X132850563Y-46190103D01*
X132850563Y-46190103D02*
X132907136Y-46196623D01*
X132907136Y-46196623D02*
X132976235Y-46202293D01*
X132976235Y-46202293D02*
X133059638Y-46207168D01*
X133059638Y-46207168D02*
X133159120Y-46211300D01*
X133159120Y-46211300D02*
X133276460Y-46214746D01*
X133276460Y-46214746D02*
X133413432Y-46217558D01*
X133413432Y-46217558D02*
X133571814Y-46219791D01*
X133571814Y-46219791D02*
X133753383Y-46221499D01*
X133753383Y-46221499D02*
X133959914Y-46222737D01*
X133959914Y-46222737D02*
X134193185Y-46223559D01*
X134193185Y-46223559D02*
X134454973Y-46224019D01*
X134454973Y-46224019D02*
X134747053Y-46224171D01*
X134747053Y-46224171D02*
X135071202Y-46224070D01*
X135071202Y-46224070D02*
X135429198Y-46223769D01*
X135429198Y-46223769D02*
X135822816Y-46223324D01*
X135822816Y-46223324D02*
X136253834Y-46222787D01*
X136253834Y-46222787D02*
X136724027Y-46222215D01*
X136724027Y-46222215D02*
X137117666Y-46221779D01*
X137117666Y-46221779D02*
X141319250Y-46217416D01*
X141319250Y-46217416D02*
X141450956Y-46156580D01*
X141450956Y-46156580D02*
X141597533Y-46066478D01*
X141597533Y-46066478D02*
X141724284Y-45944040D01*
X141724284Y-45944040D02*
X141825617Y-45796799D01*
X141825617Y-45796799D02*
X141895941Y-45632287D01*
X141895941Y-45632287D02*
X141921989Y-45522052D01*
X141921989Y-45522052D02*
X141926288Y-45434464D01*
X141926288Y-45434464D02*
X159750302Y-45434464D01*
X159750302Y-45434464D02*
X159761753Y-45533663D01*
X159761753Y-45533663D02*
X159816033Y-45719255D01*
X159816033Y-45719255D02*
X159904855Y-45880672D01*
X159904855Y-45880672D02*
X160027279Y-46016828D01*
X160027279Y-46016828D02*
X160182364Y-46126636D01*
X160182364Y-46126636D02*
X160336342Y-46197406D01*
X160336342Y-46197406D02*
X160351951Y-46200778D01*
X160351951Y-46200778D02*
X160380815Y-46203866D01*
X160380815Y-46203866D02*
X160424518Y-46206679D01*
X160424518Y-46206679D02*
X160484644Y-46209225D01*
X160484644Y-46209225D02*
X160562776Y-46211515D01*
X160562776Y-46211515D02*
X160660498Y-46213556D01*
X160660498Y-46213556D02*
X160779394Y-46215357D01*
X160779394Y-46215357D02*
X160921047Y-46216928D01*
X160921047Y-46216928D02*
X161087041Y-46218276D01*
X161087041Y-46218276D02*
X161278960Y-46219412D01*
X161278960Y-46219412D02*
X161498387Y-46220343D01*
X161498387Y-46220343D02*
X161746906Y-46221078D01*
X161746906Y-46221078D02*
X162026100Y-46221627D01*
X162026100Y-46221627D02*
X162337553Y-46221998D01*
X162337553Y-46221998D02*
X162682849Y-46222200D01*
X162682849Y-46222200D02*
X163063571Y-46222242D01*
X163063571Y-46222242D02*
X163481304Y-46222133D01*
X163481304Y-46222133D02*
X163937629Y-46221881D01*
X163937629Y-46221881D02*
X164434133Y-46221495D01*
X164434133Y-46221495D02*
X164623750Y-46221325D01*
X164623750Y-46221325D02*
X168835916Y-46217416D01*
X168835916Y-46217416D02*
X168962916Y-46150396D01*
X168962916Y-46150396D02*
X169115137Y-46048633D01*
X169115137Y-46048633D02*
X169241263Y-45920739D01*
X169241263Y-45920739D02*
X169338077Y-45772859D01*
X169338077Y-45772859D02*
X169402360Y-45611138D01*
X169402360Y-45611138D02*
X169430897Y-45441721D01*
X169430897Y-45441721D02*
X169421242Y-45275066D01*
X169421242Y-45275066D02*
X169368563Y-45085830D01*
X169368563Y-45085830D02*
X169282114Y-44920246D01*
X169282114Y-44920246D02*
X169163463Y-44780740D01*
X169163463Y-44780740D02*
X169041174Y-44686191D01*
X169041174Y-44686191D02*
X169018067Y-44670873D01*
X169018067Y-44670873D02*
X168997820Y-44656800D01*
X168997820Y-44656800D02*
X168978641Y-44643919D01*
X168978641Y-44643919D02*
X168958740Y-44632176D01*
X168958740Y-44632176D02*
X168936327Y-44621521D01*
X168936327Y-44621521D02*
X168909610Y-44611899D01*
X168909610Y-44611899D02*
X168876799Y-44603259D01*
X168876799Y-44603259D02*
X168836102Y-44595548D01*
X168836102Y-44595548D02*
X168785730Y-44588714D01*
X168785730Y-44588714D02*
X168723892Y-44582704D01*
X168723892Y-44582704D02*
X168648796Y-44577466D01*
X168648796Y-44577466D02*
X168558652Y-44572947D01*
X168558652Y-44572947D02*
X168451669Y-44569095D01*
X168451669Y-44569095D02*
X168326057Y-44565857D01*
X168326057Y-44565857D02*
X168180024Y-44563182D01*
X168180024Y-44563182D02*
X168011780Y-44561016D01*
X168011780Y-44561016D02*
X167819535Y-44559306D01*
X167819535Y-44559306D02*
X167601497Y-44558002D01*
X167601497Y-44558002D02*
X167355875Y-44557049D01*
X167355875Y-44557049D02*
X167080879Y-44556396D01*
X167080879Y-44556396D02*
X166774719Y-44555990D01*
X166774719Y-44555990D02*
X166435603Y-44555779D01*
X166435603Y-44555779D02*
X166061740Y-44555710D01*
X166061740Y-44555710D02*
X165651340Y-44555730D01*
X165651340Y-44555730D02*
X165202613Y-44555788D01*
X165202613Y-44555788D02*
X164713766Y-44555831D01*
X164713766Y-44555831D02*
X164591999Y-44555833D01*
X164591999Y-44555833D02*
X164093396Y-44555802D01*
X164093396Y-44555802D02*
X163635335Y-44555743D01*
X163635335Y-44555743D02*
X163216025Y-44555708D01*
X163216025Y-44555708D02*
X162833677Y-44555752D01*
X162833677Y-44555752D02*
X162486499Y-44555924D01*
X162486499Y-44555924D02*
X162172700Y-44556280D01*
X162172700Y-44556280D02*
X161890490Y-44556869D01*
X161890490Y-44556869D02*
X161638078Y-44557746D01*
X161638078Y-44557746D02*
X161413673Y-44558963D01*
X161413673Y-44558963D02*
X161215484Y-44560572D01*
X161215484Y-44560572D02*
X161041722Y-44562625D01*
X161041722Y-44562625D02*
X160890594Y-44565175D01*
X160890594Y-44565175D02*
X160760310Y-44568275D01*
X160760310Y-44568275D02*
X160649080Y-44571977D01*
X160649080Y-44571977D02*
X160555112Y-44576333D01*
X160555112Y-44576333D02*
X160476617Y-44581396D01*
X160476617Y-44581396D02*
X160411802Y-44587219D01*
X160411802Y-44587219D02*
X160358878Y-44593853D01*
X160358878Y-44593853D02*
X160316053Y-44601352D01*
X160316053Y-44601352D02*
X160281538Y-44609767D01*
X160281538Y-44609767D02*
X160253540Y-44619152D01*
X160253540Y-44619152D02*
X160230270Y-44629558D01*
X160230270Y-44629558D02*
X160209936Y-44641039D01*
X160209936Y-44641039D02*
X160190749Y-44653646D01*
X160190749Y-44653646D02*
X160170916Y-44667432D01*
X160170916Y-44667432D02*
X160148647Y-44682450D01*
X160148647Y-44682450D02*
X160142825Y-44686191D01*
X160142825Y-44686191D02*
X160003483Y-44798000D01*
X160003483Y-44798000D02*
X159891367Y-44935832D01*
X159891367Y-44935832D02*
X159809669Y-45092587D01*
X159809669Y-45092587D02*
X159761583Y-45261165D01*
X159761583Y-45261165D02*
X159750302Y-45434464D01*
X159750302Y-45434464D02*
X141926288Y-45434464D01*
X141926288Y-45434464D02*
X141930776Y-45343039D01*
X141930776Y-45343039D02*
X141900909Y-45170085D01*
X141900909Y-45170085D02*
X141836060Y-45008528D01*
X141836060Y-45008528D02*
X141739903Y-44863706D01*
X141739903Y-44863706D02*
X141616109Y-44740955D01*
X141616109Y-44740955D02*
X141468353Y-44645613D01*
X141468353Y-44645613D02*
X141300306Y-44583018D01*
X141300306Y-44583018D02*
X141271175Y-44576269D01*
X141271175Y-44576269D02*
X141236066Y-44573427D01*
X141236066Y-44573427D02*
X141158935Y-44570847D01*
X141158935Y-44570847D02*
X141040093Y-44568529D01*
X141040093Y-44568529D02*
X140879850Y-44566474D01*
X140879850Y-44566474D02*
X140678518Y-44564683D01*
X140678518Y-44564683D02*
X140436405Y-44563159D01*
X140436405Y-44563159D02*
X140153823Y-44561901D01*
X140153823Y-44561901D02*
X139831083Y-44560911D01*
X139831083Y-44560911D02*
X139468496Y-44560191D01*
X139468496Y-44560191D02*
X139066371Y-44559741D01*
X139066371Y-44559741D02*
X138625019Y-44559562D01*
X138625019Y-44559562D02*
X138144751Y-44559656D01*
X138144751Y-44559656D02*
X137625878Y-44560023D01*
X137625878Y-44560023D02*
X137068710Y-44560665D01*
X137068710Y-44560665D02*
X137033000Y-44560714D01*
X137033000Y-44560714D02*
X132894916Y-44566416D01*
X132894916Y-44566416D02*
X132773279Y-44615536D01*
X132773279Y-44615536D02*
X132660965Y-44675968D01*
X132660965Y-44675968D02*
X132546377Y-44763084D01*
X132546377Y-44763084D02*
X132443707Y-44864570D01*
X132443707Y-44864570D02*
X132367315Y-44967821D01*
X132367315Y-44967821D02*
X132295419Y-45129489D01*
X132295419Y-45129489D02*
X132260116Y-45300557D01*
X132260116Y-45300557D02*
X132259939Y-45474332D01*
X132259939Y-45474332D02*
X114415644Y-45474332D01*
X114415644Y-45474332D02*
X114416363Y-45429832D01*
X114416363Y-45429832D02*
X114416416Y-45392361D01*
X114416416Y-45392361D02*
X114415454Y-45285554D01*
X114415454Y-45285554D02*
X114411249Y-45209138D01*
X114411249Y-45209138D02*
X114401823Y-45151186D01*
X114401823Y-45151186D02*
X114385199Y-45099776D01*
X114385199Y-45099776D02*
X114359398Y-45042983D01*
X114359398Y-45042983D02*
X114357985Y-45040102D01*
X114357985Y-45040102D02*
X114264333Y-44885513D01*
X114264333Y-44885513D02*
X114148433Y-44763034D01*
X114148433Y-44763034D02*
X114002741Y-44665080D01*
X114002741Y-44665080D02*
X113966341Y-44646264D01*
X113966341Y-44646264D02*
X113804780Y-44566416D01*
X113804780Y-44566416D02*
X105399416Y-44566416D01*
X105399416Y-44566416D02*
X105272416Y-44617397D01*
X105272416Y-44617397D02*
X105179616Y-44663927D01*
X105179616Y-44663927D02*
X105088546Y-44730922D01*
X105088546Y-44730922D02*
X105005897Y-44807897D01*
X105005897Y-44807897D02*
X104904086Y-44921178D01*
X104904086Y-44921178D02*
X104833958Y-45030409D01*
X104833958Y-45030409D02*
X104790736Y-45147403D01*
X104790736Y-45147403D02*
X104769642Y-45283975D01*
X104769642Y-45283975D02*
X104765471Y-45402500D01*
X104765471Y-45402500D02*
X92650431Y-45402500D01*
X92650431Y-45402500D02*
X92650590Y-45370022D01*
X92650590Y-45370022D02*
X92651416Y-45219655D01*
X92651416Y-45219655D02*
X92652272Y-45081700D01*
X92652272Y-45081700D02*
X92653159Y-44955592D01*
X92653159Y-44955592D02*
X92654077Y-44840768D01*
X92654077Y-44840768D02*
X92655028Y-44736662D01*
X92655028Y-44736662D02*
X92656011Y-44642710D01*
X92656011Y-44642710D02*
X92657027Y-44558348D01*
X92657027Y-44558348D02*
X92658076Y-44483011D01*
X92658076Y-44483011D02*
X92659160Y-44416134D01*
X92659160Y-44416134D02*
X92660278Y-44357153D01*
X92660278Y-44357153D02*
X92661432Y-44305503D01*
X92661432Y-44305503D02*
X92662622Y-44260620D01*
X92662622Y-44260620D02*
X92663847Y-44221939D01*
X92663847Y-44221939D02*
X92665110Y-44188896D01*
X92665110Y-44188896D02*
X92666410Y-44160926D01*
X92666410Y-44160926D02*
X92667749Y-44137464D01*
X92667749Y-44137464D02*
X92669125Y-44117947D01*
X92669125Y-44117947D02*
X92670541Y-44101808D01*
X92670541Y-44101808D02*
X92671997Y-44088485D01*
X92671997Y-44088485D02*
X92673493Y-44077412D01*
X92673493Y-44077412D02*
X92674857Y-44069000D01*
X92674857Y-44069000D02*
X92757792Y-43713638D01*
X92757792Y-43713638D02*
X92878058Y-43374430D01*
X92878058Y-43374430D02*
X93033440Y-43053866D01*
X93033440Y-43053866D02*
X93221725Y-42754437D01*
X93221725Y-42754437D02*
X93440698Y-42478634D01*
X93440698Y-42478634D02*
X93688146Y-42228948D01*
X93688146Y-42228948D02*
X93961855Y-42007870D01*
X93961855Y-42007870D02*
X94259610Y-41817892D01*
X94259610Y-41817892D02*
X94579199Y-41661503D01*
X94579199Y-41661503D02*
X94918406Y-41541196D01*
X94918406Y-41541196D02*
X94922467Y-41540017D01*
X94922467Y-41540017D02*
X95038218Y-41508890D01*
X95038218Y-41508890D02*
X95169078Y-41477344D01*
X95169078Y-41477344D02*
X95289002Y-41451618D01*
X95289002Y-41451618D02*
X95302285Y-41449053D01*
X95302285Y-41449053D02*
X95311172Y-41447648D01*
X95311172Y-41447648D02*
X95323197Y-41446278D01*
X95323197Y-41446278D02*
X95338912Y-41444944D01*
X95338912Y-41444944D02*
X95358871Y-41443645D01*
X95358871Y-41443645D02*
X95383623Y-41442380D01*
X95383623Y-41442380D02*
X95413722Y-41441149D01*
X95413722Y-41441149D02*
X95449720Y-41439952D01*
X95449720Y-41439952D02*
X95492169Y-41438788D01*
X95492169Y-41438788D02*
X95541620Y-41437655D01*
X95541620Y-41437655D02*
X95598627Y-41436555D01*
X95598627Y-41436555D02*
X95663740Y-41435485D01*
X95663740Y-41435485D02*
X95737512Y-41434446D01*
X95737512Y-41434446D02*
X95820495Y-41433437D01*
X95820495Y-41433437D02*
X95913241Y-41432458D01*
X95913241Y-41432458D02*
X96016303Y-41431507D01*
X96016303Y-41431507D02*
X96130231Y-41430585D01*
X96130231Y-41430585D02*
X96255579Y-41429690D01*
X96255579Y-41429690D02*
X96392898Y-41428822D01*
X96392898Y-41428822D02*
X96542741Y-41427982D01*
X96542741Y-41427982D02*
X96705659Y-41427167D01*
X96705659Y-41427167D02*
X96882205Y-41426377D01*
X96882205Y-41426377D02*
X97072930Y-41425613D01*
X97072930Y-41425613D02*
X97278386Y-41424873D01*
X97278386Y-41424873D02*
X97499127Y-41424157D01*
X97499127Y-41424157D02*
X97735703Y-41423464D01*
X97735703Y-41423464D02*
X97988667Y-41422794D01*
X97988667Y-41422794D02*
X98258571Y-41422146D01*
X98258571Y-41422146D02*
X98545967Y-41421519D01*
X98545967Y-41421519D02*
X98851407Y-41420913D01*
X98851407Y-41420913D02*
X99175442Y-41420328D01*
X99175442Y-41420328D02*
X99518626Y-41419763D01*
X99518626Y-41419763D02*
X99881510Y-41419217D01*
X99881510Y-41419217D02*
X100264647Y-41418690D01*
X100264647Y-41418690D02*
X100668587Y-41418181D01*
X100668587Y-41418181D02*
X101093884Y-41417690D01*
X101093884Y-41417690D02*
X101541090Y-41417215D01*
X101541090Y-41417215D02*
X102010756Y-41416758D01*
X102010756Y-41416758D02*
X102503434Y-41416316D01*
X102503434Y-41416316D02*
X103019677Y-41415890D01*
X103019677Y-41415890D02*
X103560037Y-41415478D01*
X103560037Y-41415478D02*
X104125065Y-41415081D01*
X104125065Y-41415081D02*
X104715314Y-41414697D01*
X104715314Y-41414697D02*
X105331336Y-41414327D01*
X105331336Y-41414327D02*
X105973683Y-41413969D01*
X105973683Y-41413969D02*
X106642907Y-41413623D01*
X106642907Y-41413623D02*
X107339560Y-41413289D01*
X107339560Y-41413289D02*
X108064193Y-41412965D01*
X108064193Y-41412965D02*
X108817360Y-41412652D01*
X108817360Y-41412652D02*
X109599613Y-41412349D01*
X109599613Y-41412349D02*
X110411502Y-41412055D01*
X110411502Y-41412055D02*
X111253581Y-41411769D01*
X111253581Y-41411769D02*
X112126401Y-41411492D01*
X112126401Y-41411492D02*
X113030515Y-41411222D01*
X113030515Y-41411222D02*
X113966474Y-41410959D01*
X113966474Y-41410959D02*
X114934830Y-41410703D01*
X114934830Y-41410703D02*
X115936137Y-41410452D01*
X115936137Y-41410452D02*
X116970944Y-41410207D01*
X116970944Y-41410207D02*
X118039806Y-41409967D01*
X118039806Y-41409967D02*
X119143274Y-41409730D01*
X119143274Y-41409730D02*
X120281899Y-41409497D01*
X120281899Y-41409497D02*
X121456234Y-41409268D01*
X121456234Y-41409268D02*
X122666831Y-41409040D01*
X122666831Y-41409040D02*
X123914242Y-41408815D01*
X123914242Y-41408815D02*
X125199020Y-41408591D01*
X125199020Y-41408591D02*
X126521715Y-41408368D01*
X126521715Y-41408368D02*
X127882881Y-41408145D01*
X127882881Y-41408145D02*
X129283069Y-41407922D01*
X129283069Y-41407922D02*
X130722831Y-41407698D01*
X130722831Y-41407698D02*
X132202720Y-41407472D01*
X132202720Y-41407472D02*
X133723287Y-41407245D01*
X133723287Y-41407245D02*
X135285085Y-41407015D01*
X135285085Y-41407015D02*
X136884833Y-41406782D01*
X136884833Y-41406782D02*
X138663407Y-41406535D01*
X138663407Y-41406535D02*
X140404967Y-41406315D01*
X140404967Y-41406315D02*
X142109391Y-41406122D01*
X142109391Y-41406122D02*
X143776560Y-41405956D01*
X143776560Y-41405956D02*
X145406351Y-41405816D01*
X145406351Y-41405816D02*
X146998646Y-41405703D01*
X146998646Y-41405703D02*
X148553322Y-41405616D01*
X148553322Y-41405616D02*
X150070259Y-41405556D01*
X150070259Y-41405556D02*
X151549336Y-41405523D01*
X151549336Y-41405523D02*
X152990433Y-41405515D01*
X152990433Y-41405515D02*
X154393428Y-41405534D01*
X154393428Y-41405534D02*
X154393428Y-41405534D01*
G36*
X92639221Y-115983769D02*
G01*
X92638929Y-115407440D01*
X92638655Y-114805485D01*
X92638399Y-114177340D01*
X92638158Y-113522441D01*
X92637934Y-112840223D01*
X92637725Y-112130122D01*
X92637530Y-111391574D01*
X92637350Y-110624013D01*
X92637184Y-109826877D01*
X92637031Y-108999601D01*
X92636891Y-108141620D01*
X92636763Y-107252370D01*
X92636646Y-106331286D01*
X92636541Y-105377805D01*
X92636446Y-104391362D01*
X92636361Y-103371393D01*
X92636286Y-102317333D01*
X92636219Y-101228618D01*
X92636161Y-100104684D01*
X92636110Y-98944966D01*
X92636067Y-97748900D01*
X92636031Y-96515922D01*
X92636000Y-95245468D01*
X92635976Y-93936972D01*
X92635956Y-92589872D01*
X92635941Y-91203602D01*
X92635930Y-89777597D01*
X92635923Y-88311295D01*
X92635919Y-86804130D01*
X92635916Y-85255538D01*
X92635916Y-84296250D01*
X92635917Y-82722498D01*
X92635920Y-81190515D01*
X92635920Y-81123444D01*
X104756343Y-81123444D01*
X104772572Y-81297743D01*
X104825929Y-81461523D01*
X104909083Y-81611437D01*
X105010137Y-81730515D01*
X105136943Y-81826159D01*
X105297075Y-81905656D01*
X105420583Y-81956549D01*
X109622166Y-81951649D01*
X113823750Y-81946750D01*
X113944782Y-81890022D01*
X114095545Y-81797594D01*
X114227187Y-81674004D01*
X114329700Y-81529048D01*
X114346707Y-81496573D01*
X114382938Y-81415624D01*
X114405104Y-81342337D01*
X114417463Y-81258754D01*
X114421758Y-81194086D01*
X159753753Y-81194086D01*
X159784099Y-81359601D01*
X159849826Y-81517621D01*
X159952134Y-81662625D01*
X159960811Y-81672271D01*
X160104724Y-81803692D01*
X160260451Y-81895336D01*
X160343554Y-81926732D01*
X160360815Y-81930131D01*
X160391063Y-81933243D01*
X160435898Y-81936076D01*
X160496920Y-81938640D01*
X160575727Y-81940944D01*
X160673921Y-81942997D01*
X160793099Y-81944807D01*
X160934862Y-81946384D01*
X161100809Y-81947737D01*
X161292540Y-81948875D01*
X161511654Y-81949806D01*
X161759751Y-81950539D01*
X162038430Y-81951084D01*
X162349290Y-81951450D01*
X162693932Y-81951645D01*
X163073955Y-81951679D01*
X163490958Y-81951560D01*
X163946541Y-81951297D01*
X164442304Y-81950900D01*
X164623750Y-81950732D01*
X168814750Y-81946750D01*
X168935782Y-81890022D01*
X169091991Y-81794098D01*
X169224624Y-81666455D01*
X169328898Y-81513306D01*
X169400030Y-81340866D01*
X169419350Y-81261750D01*
X169432139Y-81089762D01*
X169406219Y-80919119D01*
X169344912Y-80756231D01*
X169251537Y-80607507D01*
X169129416Y-80479356D01*
X168981869Y-80378187D01*
X168954219Y-80363997D01*
X168814750Y-80295750D01*
X160369250Y-80295750D01*
X160247485Y-80352812D01*
X160090741Y-80447343D01*
X159962179Y-80567508D01*
X159863000Y-80707786D01*
X159794403Y-80862657D01*
X159757587Y-81026597D01*
X159753753Y-81194086D01*
X114421758Y-81194086D01*
X114423041Y-81174771D01*
X114420939Y-81008474D01*
X114395042Y-80867016D01*
X114342180Y-80738264D01*
X114284561Y-80645073D01*
X114163963Y-80506656D01*
X114019298Y-80399026D01*
X113857468Y-80327304D01*
X113855500Y-80326697D01*
X113838618Y-80321702D01*
X113820740Y-80317120D01*
X113800068Y-80312938D01*
X113774800Y-80309139D01*
X113743139Y-80305708D01*
X113703284Y-80302630D01*
X113653435Y-80299889D01*
X113591794Y-80297471D01*
X113516560Y-80295360D01*
X113425934Y-80293541D01*
X113318117Y-80291998D01*
X113191308Y-80290716D01*
X113043710Y-80289681D01*
X112873521Y-80288876D01*
X112678942Y-80288286D01*
X112458175Y-80287897D01*
X112209418Y-80287692D01*
X111930874Y-80287657D01*
X111620742Y-80287776D01*
X111277222Y-80288034D01*
X110898516Y-80288416D01*
X110482823Y-80288906D01*
X110028344Y-80289490D01*
X109548083Y-80290132D01*
X105378250Y-80295750D01*
X105240666Y-80363186D01*
X105162515Y-80404881D01*
X105092163Y-80448226D01*
X105046724Y-80482288D01*
X104923799Y-80621019D01*
X104833439Y-80778506D01*
X104777126Y-80948173D01*
X104756343Y-81123444D01*
X92635920Y-81123444D01*
X92635925Y-79699736D01*
X92635933Y-78249596D01*
X92635945Y-76839532D01*
X92635961Y-75468979D01*
X92635981Y-74137372D01*
X92636007Y-72844146D01*
X92636039Y-71588737D01*
X92636076Y-70370580D01*
X92636121Y-69189111D01*
X92636173Y-68043766D01*
X92636233Y-66933979D01*
X92636301Y-65859187D01*
X92636379Y-64818824D01*
X92636466Y-63812326D01*
X92636563Y-62839129D01*
X92636671Y-61898667D01*
X92636790Y-60990378D01*
X92636921Y-60113695D01*
X92637064Y-59268054D01*
X92637220Y-58452891D01*
X92637390Y-57667642D01*
X92637573Y-56911741D01*
X92637771Y-56184624D01*
X92637984Y-55485727D01*
X92638212Y-54814485D01*
X92638457Y-54170334D01*
X92638718Y-53552708D01*
X92638997Y-52961044D01*
X92639293Y-52394777D01*
X92639608Y-51853342D01*
X92639941Y-51336175D01*
X92640294Y-50842711D01*
X92640667Y-50372386D01*
X92641061Y-49924634D01*
X92641475Y-49498893D01*
X92641911Y-49094596D01*
X92642370Y-48711180D01*
X92642850Y-48348080D01*
X92643355Y-48004731D01*
X92643883Y-47680569D01*
X92644435Y-47375029D01*
X92645012Y-47087547D01*
X92645615Y-46817558D01*
X92646243Y-46564498D01*
X92646898Y-46327801D01*
X92647580Y-46106905D01*
X92648290Y-45901243D01*
X92649028Y-45710252D01*
X92649795Y-45533366D01*
X92650431Y-45402500D01*
X104765471Y-45402500D01*
X104766966Y-45504817D01*
X104773506Y-45579415D01*
X104787655Y-45640834D01*
X104811973Y-45703613D01*
X104822668Y-45727109D01*
X104919981Y-45895653D01*
X105039895Y-46029408D01*
X105185187Y-46130990D01*
X105311127Y-46187150D01*
X105325145Y-46191812D01*
X105341442Y-46196089D01*
X105361797Y-46199994D01*
X105387989Y-46203543D01*
X105421796Y-46206749D01*
X105464997Y-46209627D01*
X105519372Y-46212192D01*
X105586698Y-46214457D01*
X105668756Y-46216438D01*
X105767323Y-46218147D01*
X105884179Y-46219601D01*
X106021102Y-46220813D01*
X106179872Y-46221798D01*
X106362267Y-46222570D01*
X106570066Y-46223144D01*
X106805048Y-46223533D01*
X107068991Y-46223752D01*
X107363675Y-46223817D01*
X107690879Y-46223740D01*
X108052381Y-46223536D01*
X108449960Y-46223221D01*
X108885395Y-46222808D01*
X109360466Y-46222311D01*
X109622166Y-46222026D01*
X113823750Y-46217416D01*
X113944782Y-46160688D01*
X114097130Y-46067138D01*
X114229578Y-45941871D01*
X114332636Y-45794205D01*
X114347809Y-45765000D01*
X114378268Y-45700460D01*
X114398073Y-45647053D01*
X114409505Y-45592399D01*
X114414841Y-45524118D01*
X114415644Y-45474332D01*
X132259939Y-45474332D01*
X132293422Y-45644120D01*
X132359097Y-45803227D01*
X132455498Y-45944960D01*
X132581157Y-46062626D01*
X132611973Y-46084213D01*
X132635752Y-46100826D01*
X132656069Y-46116100D01*
X132674699Y-46130090D01*
X132693420Y-46142850D01*
X132714008Y-46154435D01*
X132738240Y-46164898D01*
X132767892Y-46174295D01*
X132804741Y-46182678D01*
X132850563Y-46190103D01*
X132907136Y-46196623D01*
X132976235Y-46202293D01*
X133059638Y-46207168D01*
X133159120Y-46211300D01*
X133276460Y-46214746D01*
X133413432Y-46217558D01*
X133571814Y-46219791D01*
X133753383Y-46221499D01*
X133959914Y-46222737D01*
X134193185Y-46223559D01*
X134454973Y-46224019D01*
X134747053Y-46224171D01*
X135071202Y-46224070D01*
X135429198Y-46223769D01*
X135822816Y-46223324D01*
X136253834Y-46222787D01*
X136724027Y-46222215D01*
X137117666Y-46221779D01*
X141319250Y-46217416D01*
X141450956Y-46156580D01*
X141597533Y-46066478D01*
X141724284Y-45944040D01*
X141825617Y-45796799D01*
X141895941Y-45632287D01*
X141921989Y-45522052D01*
X141926288Y-45434464D01*
X159750302Y-45434464D01*
X159761753Y-45533663D01*
X159816033Y-45719255D01*
X159904855Y-45880672D01*
X160027279Y-46016828D01*
X160182364Y-46126636D01*
X160336342Y-46197406D01*
X160351951Y-46200778D01*
X160380815Y-46203866D01*
X160424518Y-46206679D01*
X160484644Y-46209225D01*
X160562776Y-46211515D01*
X160660498Y-46213556D01*
X160779394Y-46215357D01*
X160921047Y-46216928D01*
X161087041Y-46218276D01*
X161278960Y-46219412D01*
X161498387Y-46220343D01*
X161746906Y-46221078D01*
X162026100Y-46221627D01*
X162337553Y-46221998D01*
X162682849Y-46222200D01*
X163063571Y-46222242D01*
X163481304Y-46222133D01*
X163937629Y-46221881D01*
X164434133Y-46221495D01*
X164623750Y-46221325D01*
X168835916Y-46217416D01*
X168962916Y-46150396D01*
X169115137Y-46048633D01*
X169241263Y-45920739D01*
X169338077Y-45772859D01*
X169402360Y-45611138D01*
X169430897Y-45441721D01*
X169421242Y-45275066D01*
X169368563Y-45085830D01*
X169282114Y-44920246D01*
X169163463Y-44780740D01*
X169041174Y-44686191D01*
X169018067Y-44670873D01*
X168997820Y-44656800D01*
X168978641Y-44643919D01*
X168958740Y-44632176D01*
X168936327Y-44621521D01*
X168909610Y-44611899D01*
X168876799Y-44603259D01*
X168836102Y-44595548D01*
X168785730Y-44588714D01*
X168723892Y-44582704D01*
X168648796Y-44577466D01*
X168558652Y-44572947D01*
X168451669Y-44569095D01*
X168326057Y-44565857D01*
X168180024Y-44563182D01*
X168011780Y-44561016D01*
X167819535Y-44559306D01*
X167601497Y-44558002D01*
X167355875Y-44557049D01*
X167080879Y-44556396D01*
X166774719Y-44555990D01*
X166435603Y-44555779D01*
X166061740Y-44555710D01*
X165651340Y-44555730D01*
X165202613Y-44555788D01*
X164713766Y-44555831D01*
X164591999Y-44555833D01*
X164093396Y-44555802D01*
X163635335Y-44555743D01*
X163216025Y-44555708D01*
X162833677Y-44555752D01*
X162486499Y-44555924D01*
X162172700Y-44556280D01*
X161890490Y-44556869D01*
X161638078Y-44557746D01*
X161413673Y-44558963D01*
X161215484Y-44560572D01*
X161041722Y-44562625D01*
X160890594Y-44565175D01*
X160760310Y-44568275D01*
X160649080Y-44571977D01*
X160555112Y-44576333D01*
X160476617Y-44581396D01*
X160411802Y-44587219D01*
X160358878Y-44593853D01*
X160316053Y-44601352D01*
X160281538Y-44609767D01*
X160253540Y-44619152D01*
X160230270Y-44629558D01*
X160209936Y-44641039D01*
X160190749Y-44653646D01*
X160170916Y-44667432D01*
X160148647Y-44682450D01*
X160142825Y-44686191D01*
X160003483Y-44798000D01*
X159891367Y-44935832D01*
X159809669Y-45092587D01*
X159761583Y-45261165D01*
X159750302Y-45434464D01*
X141926288Y-45434464D01*
X141930776Y-45343039D01*
X141900909Y-45170085D01*
X141836060Y-45008528D01*
X141739903Y-44863706D01*
X141616109Y-44740955D01*
X141468353Y-44645613D01*
X141300306Y-44583018D01*
X141271175Y-44576269D01*
X141236066Y-44573427D01*
X141158935Y-44570847D01*
X141040093Y-44568529D01*
X140879850Y-44566474D01*
X140678518Y-44564683D01*
X140436405Y-44563159D01*
X140153823Y-44561901D01*
X139831083Y-44560911D01*
X139468496Y-44560191D01*
X139066371Y-44559741D01*
X138625019Y-44559562D01*
X138144751Y-44559656D01*
X137625878Y-44560023D01*
X137068710Y-44560665D01*
X137033000Y-44560714D01*
X132894916Y-44566416D01*
X132773279Y-44615536D01*
X132660965Y-44675968D01*
X132546377Y-44763084D01*
X132443707Y-44864570D01*
X132367315Y-44967821D01*
X132295419Y-45129489D01*
X132260116Y-45300557D01*
X132259939Y-45474332D01*
X114415644Y-45474332D01*
X114416363Y-45429832D01*
X114416416Y-45392361D01*
X114415454Y-45285554D01*
X114411249Y-45209138D01*
X114401823Y-45151186D01*
X114385199Y-45099776D01*
X114359398Y-45042983D01*
X114357985Y-45040102D01*
X114264333Y-44885513D01*
X114148433Y-44763034D01*
X114002741Y-44665080D01*
X113966341Y-44646264D01*
X113804780Y-44566416D01*
X105399416Y-44566416D01*
X105272416Y-44617397D01*
X105179616Y-44663927D01*
X105088546Y-44730922D01*
X105005897Y-44807897D01*
X104904086Y-44921178D01*
X104833958Y-45030409D01*
X104790736Y-45147403D01*
X104769642Y-45283975D01*
X104765471Y-45402500D01*
X92650431Y-45402500D01*
X92650590Y-45370022D01*
X92651416Y-45219655D01*
X92652272Y-45081700D01*
X92653159Y-44955592D01*
X92654077Y-44840768D01*
X92655028Y-44736662D01*
X92656011Y-44642710D01*
X92657027Y-44558348D01*
X92658076Y-44483011D01*
X92659160Y-44416134D01*
X92660278Y-44357153D01*
X92661432Y-44305503D01*
X92662622Y-44260620D01*
X92663847Y-44221939D01*
X92665110Y-44188896D01*
X92666410Y-44160926D01*
X92667749Y-44137464D01*
X92669125Y-44117947D01*
X92670541Y-44101808D01*
X92671997Y-44088485D01*
X92673493Y-44077412D01*
X92674857Y-44069000D01*
X92757792Y-43713638D01*
X92878058Y-43374430D01*
X93033440Y-43053866D01*
X93221725Y-42754437D01*
X93440698Y-42478634D01*
X93688146Y-42228948D01*
X93961855Y-42007870D01*
X94259610Y-41817892D01*
X94579199Y-41661503D01*
X94918406Y-41541196D01*
X94922467Y-41540017D01*
X95038218Y-41508890D01*
X95169078Y-41477344D01*
X95289002Y-41451618D01*
X95302285Y-41449053D01*
X95311172Y-41447648D01*
X95323197Y-41446278D01*
X95338912Y-41444944D01*
X95358871Y-41443645D01*
X95383623Y-41442380D01*
X95413722Y-41441149D01*
X95449720Y-41439952D01*
X95492169Y-41438788D01*
X95541620Y-41437655D01*
X95598627Y-41436555D01*
X95663740Y-41435485D01*
X95737512Y-41434446D01*
X95820495Y-41433437D01*
X95913241Y-41432458D01*
X96016303Y-41431507D01*
X96130231Y-41430585D01*
X96255579Y-41429690D01*
X96392898Y-41428822D01*
X96542741Y-41427982D01*
X96705659Y-41427167D01*
X96882205Y-41426377D01*
X97072930Y-41425613D01*
X97278386Y-41424873D01*
X97499127Y-41424157D01*
X97735703Y-41423464D01*
X97988667Y-41422794D01*
X98258571Y-41422146D01*
X98545967Y-41421519D01*
X98851407Y-41420913D01*
X99175442Y-41420328D01*
X99518626Y-41419763D01*
X99881510Y-41419217D01*
X100264647Y-41418690D01*
X100668587Y-41418181D01*
X101093884Y-41417690D01*
X101541090Y-41417215D01*
X102010756Y-41416758D01*
X102503434Y-41416316D01*
X103019677Y-41415890D01*
X103560037Y-41415478D01*
X104125065Y-41415081D01*
X104715314Y-41414697D01*
X105331336Y-41414327D01*
X105973683Y-41413969D01*
X106642907Y-41413623D01*
X107339560Y-41413289D01*
X108064193Y-41412965D01*
X108817360Y-41412652D01*
X109599613Y-41412349D01*
X110411502Y-41412055D01*
X111253581Y-41411769D01*
X112126401Y-41411492D01*
X113030515Y-41411222D01*
X113966474Y-41410959D01*
X114934830Y-41410703D01*
X115936137Y-41410452D01*
X116970944Y-41410207D01*
X118039806Y-41409967D01*
X119143274Y-41409730D01*
X120281899Y-41409497D01*
X121456234Y-41409268D01*
X122666831Y-41409040D01*
X123914242Y-41408815D01*
X125199020Y-41408591D01*
X126521715Y-41408368D01*
X127882881Y-41408145D01*
X129283069Y-41407922D01*
X130722831Y-41407698D01*
X132202720Y-41407472D01*
X133723287Y-41407245D01*
X135285085Y-41407015D01*
X136884833Y-41406782D01*
X138663407Y-41406535D01*
X140404967Y-41406315D01*
X142109391Y-41406122D01*
X143776560Y-41405956D01*
X145406351Y-41405816D01*
X146998646Y-41405703D01*
X148553322Y-41405616D01*
X150070259Y-41405556D01*
X151549336Y-41405523D01*
X152990433Y-41405515D01*
X154393428Y-41405534D01*
X155758202Y-41405580D01*
X157084633Y-41405652D01*
X158372600Y-41405749D01*
X159621983Y-41405874D01*
X160832661Y-41406024D01*
X162004514Y-41406200D01*
X163137420Y-41406403D01*
X164231259Y-41406631D01*
X165285910Y-41406886D01*
X166301252Y-41407166D01*
X167277165Y-41407473D01*
X168213527Y-41407805D01*
X169110219Y-41408163D01*
X169967119Y-41408547D01*
X170784107Y-41408956D01*
X171561061Y-41409392D01*
X172297862Y-41409853D01*
X172994387Y-41410339D01*
X173650518Y-41410851D01*
X174266132Y-41411389D01*
X174841109Y-41411952D01*
X175375329Y-41412540D01*
X175868670Y-41413154D01*
X176321012Y-41413793D01*
X176732235Y-41414457D01*
X177102216Y-41415147D01*
X177430836Y-41415862D01*
X177717974Y-41416602D01*
X177963510Y-41417367D01*
X178167321Y-41418158D01*
X178329288Y-41418973D01*
X178449290Y-41419813D01*
X178527206Y-41420679D01*
X178562916Y-41421569D01*
X178563584Y-41421614D01*
X178857098Y-41452377D01*
X179123522Y-41501739D01*
X179375218Y-41572946D01*
X179624548Y-41669246D01*
X179779083Y-41740876D01*
X180093572Y-41918068D01*
X180383272Y-42128329D01*
X180646174Y-42369050D01*
X180880272Y-42637618D01*
X181083557Y-42931424D01*
X181254022Y-43247856D01*
X181389660Y-43584304D01*
X181488462Y-43938157D01*
X181496103Y-43973750D01*
X181497666Y-43981836D01*
X181499188Y-43991311D01*
X181500669Y-44002740D01*
X181502109Y-44016685D01*
X181503510Y-44033711D01*
X181504871Y-44054380D01*
X181506194Y-44079255D01*
X181507479Y-44108902D01*
X181508726Y-44143882D01*
X181509936Y-44184761D01*
X181511110Y-44232100D01*
X181512248Y-44286464D01*
X181513351Y-44348415D01*
X181514418Y-44418519D01*
X181515452Y-44497338D01*
X181516452Y-44585435D01*
X181517419Y-44683374D01*
X181518353Y-44791719D01*
X181519256Y-44911033D01*
X181520127Y-45041880D01*
X181520967Y-45184823D01*
X181521777Y-45340425D01*
X181522557Y-45509251D01*
X181523307Y-45691864D01*
X181524030Y-45888826D01*
X181524724Y-46100702D01*
X181525390Y-46328056D01*
X181526030Y-46571450D01*
X181526643Y-46831448D01*
X181527231Y-47108614D01*
X181527793Y-47403512D01*
X181528330Y-47716704D01*
X181528843Y-48048754D01*
X181529332Y-48400226D01*
X181529799Y-48771683D01*
X181530243Y-49163689D01*
X181530665Y-49576807D01*
X181531065Y-50011601D01*
X181531445Y-50468635D01*
X181531804Y-50948471D01*
X181532144Y-51451673D01*
X181532464Y-51978805D01*
X181532766Y-52530431D01*
X181533050Y-53107113D01*
X181533316Y-53709416D01*
X181533565Y-54337902D01*
X181533798Y-54993136D01*
X181534015Y-55675680D01*
X181534216Y-56386099D01*
X181534403Y-57124956D01*
X181534576Y-57892814D01*
X181534735Y-58690237D01*
X181534881Y-59517788D01*
X181535015Y-60376031D01*
X181535137Y-61265530D01*
X181535247Y-62186847D01*
X181535346Y-63140547D01*
X181535435Y-64127193D01*
X181535515Y-65147348D01*
X181535585Y-66201576D01*
X181535646Y-67290441D01*
X181535700Y-68414505D01*
X181535746Y-69574333D01*
X181535785Y-70770488D01*
X181535818Y-72003533D01*
X181535845Y-73274032D01*
X181535866Y-74582549D01*
X181535883Y-75929646D01*
X181535896Y-77315888D01*
X181535905Y-78741838D01*
X181535911Y-80208060D01*
X181535914Y-81715117D01*
X181535916Y-83263572D01*
X181535916Y-84306833D01*
X181535915Y-85883016D01*
X181535913Y-87417429D01*
X181535908Y-88910635D01*
X181535901Y-90363197D01*
X181535890Y-91775679D01*
X181535876Y-93148643D01*
X181535856Y-94482654D01*
X181535832Y-95778273D01*
X181535802Y-97036066D01*
X181535767Y-98256593D01*
X181535724Y-99440420D01*
X181535674Y-100588109D01*
X181535617Y-101700223D01*
X181535551Y-102777325D01*
X181535476Y-103819979D01*
X181535392Y-104828748D01*
X181535298Y-105804196D01*
X181535194Y-106746885D01*
X181535078Y-107657378D01*
X181534951Y-108536239D01*
X181534811Y-109384031D01*
X181534659Y-110201317D01*
X181534494Y-110988661D01*
X181534314Y-111746626D01*
X181534121Y-112475774D01*
X181533912Y-113176670D01*
X181533688Y-113849876D01*
X181533448Y-114495955D01*
X181533191Y-115115472D01*
X181532917Y-115708988D01*
X181532626Y-116277067D01*
X181532316Y-116820273D01*
X181531987Y-117339169D01*
X181531639Y-117834317D01*
X181531272Y-118306282D01*
X181530883Y-118755626D01*
X181530474Y-119182912D01*
X181530043Y-119588704D01*
X181529590Y-119973565D01*
X181529115Y-120338059D01*
X181528616Y-120682747D01*
X181528094Y-121008195D01*
X181527547Y-121314964D01*
X181526975Y-121603618D01*
X181526378Y-121874720D01*
X181525755Y-122128834D01*
X181525106Y-122366523D01*
X181524429Y-122588350D01*
X181523725Y-122794878D01*
X181522993Y-122986670D01*
X181522232Y-123164289D01*
X181521442Y-123328300D01*
X181520621Y-123479264D01*
X181519771Y-123617746D01*
X181518890Y-123744308D01*
X181517977Y-123859514D01*
X181517032Y-123963927D01*
X181516055Y-124058110D01*
X181515044Y-124142626D01*
X181514000Y-124218039D01*
X181512921Y-124284912D01*
X181511808Y-124343807D01*
X181510660Y-124395289D01*
X181509475Y-124439920D01*
X181508254Y-124478264D01*
X181506997Y-124510884D01*
X181505701Y-124538343D01*
X181504368Y-124561204D01*
X181502996Y-124580030D01*
X181501585Y-124595386D01*
X181500134Y-124607833D01*
X181498643Y-124617935D01*
X181497111Y-124626256D01*
X181496460Y-124629333D01*
X181396622Y-124991201D01*
X181261167Y-125332771D01*
X181091866Y-125652050D01*
X180890488Y-125947046D01*
X180658803Y-126215765D01*
X180398583Y-126456216D01*
X180111597Y-126666404D01*
X179799616Y-126844337D01*
X179464409Y-126988022D01*
X179373103Y-127019712D01*
X179317577Y-127038446D01*
X179267765Y-127055657D01*
X179221773Y-127071413D01*
X179177711Y-127085778D01*
X179133685Y-127098822D01*
X179087804Y-127110609D01*
X179038175Y-127121207D01*
X178982906Y-127130682D01*
X178920105Y-127139102D01*
X178847879Y-127146532D01*
X178764336Y-127153041D01*
X178667584Y-127158694D01*
X178555731Y-127163558D01*
X178426884Y-127167700D01*
X178279151Y-127171187D01*
X178110641Y-127174085D01*
X177919460Y-127176462D01*
X177703716Y-127178383D01*
X177461518Y-127179916D01*
X177190973Y-127181128D01*
X176890188Y-127182085D01*
X176557272Y-127182853D01*
X176190331Y-127183500D01*
X175787475Y-127184093D01*
X175346811Y-127184697D01*
X174866446Y-127185381D01*
X174667333Y-127185684D01*
X174165485Y-127186443D01*
X173704096Y-127187071D01*
X173281291Y-127187538D01*
X172895196Y-127187818D01*
X172543936Y-127187881D01*
X172225637Y-127187699D01*
X171938425Y-127187244D01*
X171680424Y-127186488D01*
X171449761Y-127185403D01*
X171244561Y-127183961D01*
X171062950Y-127182132D01*
X170903053Y-127179890D01*
X170762995Y-127177205D01*
X170640902Y-127174049D01*
X170534901Y-127170395D01*
X170443115Y-127166214D01*
X170363671Y-127161478D01*
X170294694Y-127156158D01*
X170234311Y-127150227D01*
X170180645Y-127143655D01*
X170131824Y-127136416D01*
X170085972Y-127128480D01*
X170041215Y-127119820D01*
X170021068Y-127115707D01*
X169689844Y-127026556D01*
X169366520Y-126899071D01*
X169056549Y-126736635D01*
X168765385Y-126542630D01*
X168498483Y-126320439D01*
X168261295Y-126073444D01*
X168180290Y-125974044D01*
X168153863Y-125940200D01*
X168130495Y-125910271D01*
X168108778Y-125881899D01*
X168087304Y-125852731D01*
X168064665Y-125820411D01*
X168039453Y-125782583D01*
X168010261Y-125736892D01*
X167975679Y-125680983D01*
X167934300Y-125612500D01*
X167884717Y-125529089D01*
X167825520Y-125428394D01*
X167755303Y-125308059D01*
X167672656Y-125165730D01*
X167576172Y-124999050D01*
X167464443Y-124805665D01*
X167336061Y-124583219D01*
X167189618Y-124329358D01*
X167023705Y-124041725D01*
X166984156Y-123973166D01*
X166841429Y-123726083D01*
X166703063Y-123487184D01*
X166570739Y-123259334D01*
X166446137Y-123045397D01*
X166330937Y-122848238D01*
X166226819Y-122670721D01*
X166135463Y-122515712D01*
X166058549Y-122386074D01*
X165997757Y-122284672D01*
X165954766Y-122214371D01*
X165931848Y-122178864D01*
X165704865Y-121893536D01*
X165449417Y-121639121D01*
X165166883Y-121416511D01*
X164858645Y-121226597D01*
X164526083Y-121070271D01*
X164170577Y-120948424D01*
X163935326Y-120889738D01*
X163925801Y-120887881D01*
X163914290Y-120886084D01*
X163900100Y-120884346D01*
X163882540Y-120882667D01*
X163860917Y-120881045D01*
X163834539Y-120879479D01*
X163802715Y-120877969D01*
X163764751Y-120876514D01*
X163719955Y-120875112D01*
X163667637Y-120873762D01*
X163607102Y-120872463D01*
X163537660Y-120871216D01*
X163458617Y-120870017D01*
X163369283Y-120868867D01*
X163268964Y-120867764D01*
X163156968Y-120866708D01*
X163032604Y-120865698D01*
X162895178Y-120864731D01*
X162744000Y-120863808D01*
X162578376Y-120862928D01*
X162397615Y-120862089D01*
X162201025Y-120861291D01*
X161987912Y-120860532D01*
X161757586Y-120859811D01*
X161509354Y-120859128D01*
X161242523Y-120858482D01*
X160956402Y-120857871D01*
X160650298Y-120857294D01*
X160323519Y-120856751D01*
X159975374Y-120856240D01*
X159605169Y-120855761D01*
X159212213Y-120855313D01*
X158795813Y-120854893D01*
X158355278Y-120854503D01*
X157889915Y-120854140D01*
X157399032Y-120853803D01*
X156881936Y-120853492D01*
X156337937Y-120853205D01*
X155766341Y-120852942D01*
X155166456Y-120852702D01*
X154537590Y-120852483D01*
X153879051Y-120852284D01*
X153190147Y-120852105D01*
X152470186Y-120851944D01*
X151718475Y-120851802D01*
X150934322Y-120851675D01*
X150117036Y-120851564D01*
X149265923Y-120851468D01*
X148380292Y-120851385D01*
X147459451Y-120851315D01*
X146502707Y-120851256D01*
X145509369Y-120851208D01*
X144478743Y-120851169D01*
X143410139Y-120851139D01*
X142302863Y-120851117D01*
X141156223Y-120851101D01*
X139969528Y-120851091D01*
X138742085Y-120851085D01*
X137473203Y-120851083D01*
X137096500Y-120851083D01*
X135814912Y-120851084D01*
X134574967Y-120851090D01*
X133375972Y-120851100D01*
X132217235Y-120851116D01*
X131098066Y-120851139D01*
X130017772Y-120851169D01*
X128975662Y-120851208D01*
X127971044Y-120851257D01*
X127003226Y-120851316D01*
X126071518Y-120851387D01*
X125175227Y-120851470D01*
X124313662Y-120851567D01*
X123486132Y-120851679D01*
X122691944Y-120851806D01*
X121930408Y-120851949D01*
X121200831Y-120852110D01*
X120502522Y-120852289D01*
X119834790Y-120852488D01*
X119196942Y-120852707D01*
X118588288Y-120852947D01*
X118008135Y-120853210D01*
X117455793Y-120853496D01*
X116930569Y-120853806D01*
X116431772Y-120854142D01*
X115958710Y-120854503D01*
X115510692Y-120854892D01*
X115087026Y-120855309D01*
X114687021Y-120855755D01*
X114309985Y-120856232D01*
X113955227Y-120856739D01*
X113622054Y-120857278D01*
X113309775Y-120857851D01*
X113017700Y-120858457D01*
X112745135Y-120859098D01*
X112491390Y-120859776D01*
X112255773Y-120860490D01*
X112037592Y-120861242D01*
X111836156Y-120862033D01*
X111650774Y-120862864D01*
X111480753Y-120863735D01*
X111325402Y-120864649D01*
X111184029Y-120865605D01*
X111055943Y-120866605D01*
X110940453Y-120867649D01*
X110836866Y-120868739D01*
X110744492Y-120869876D01*
X110662638Y-120871061D01*
X110590613Y-120872294D01*
X110527725Y-120873577D01*
X110473284Y-120874910D01*
X110426596Y-120876295D01*
X110386971Y-120877732D01*
X110353717Y-120879223D01*
X110326143Y-120880768D01*
X110303557Y-120882369D01*
X110285267Y-120884026D01*
X110270581Y-120885740D01*
X110258809Y-120887513D01*
X110251453Y-120888886D01*
X109900106Y-120980841D01*
X109563828Y-121109517D01*
X109246019Y-121272698D01*
X108950080Y-121468165D01*
X108679411Y-121693703D01*
X108437413Y-121947092D01*
X108248269Y-122195166D01*
X108219509Y-122240212D01*
X108171416Y-122319003D01*
X108105731Y-122428568D01*
X108024197Y-122565939D01*
X107928558Y-122728146D01*
X107820555Y-122912219D01*
X107701931Y-123115190D01*
X107574429Y-123334089D01*
X107439792Y-123565946D01*
X107299761Y-123807791D01*
X107167605Y-124036666D01*
X107024280Y-124284799D01*
X106884806Y-124525459D01*
X106750917Y-124755698D01*
X106624347Y-124972572D01*
X106506830Y-125173133D01*
X106400100Y-125354437D01*
X106305891Y-125513538D01*
X106225937Y-125647488D01*
X106161971Y-125753343D01*
X106115728Y-125828156D01*
X106090190Y-125867232D01*
X105992963Y-125992323D01*
X105870638Y-126130507D01*
X105733448Y-126271560D01*
X105591626Y-126405252D01*
X105455404Y-126521359D01*
X105373712Y-126583264D01*
X105083403Y-126765586D01*
X104766140Y-126920765D01*
X104430102Y-127045271D01*
X104103285Y-127131427D01*
X103875416Y-127179841D01*
X99758500Y-127182553D01*
X99341883Y-127182745D01*
X98935316Y-127182769D01*
X98540930Y-127182632D01*
X98160859Y-127182341D01*
X97797234Y-127181903D01*
X97452190Y-127181325D01*
X97127857Y-127180613D01*
X96826370Y-127179774D01*
X96549860Y-127178814D01*
X96300461Y-127177741D01*
X96080305Y-127176562D01*
X95891525Y-127175282D01*
X95736254Y-127173909D01*
X95616623Y-127172449D01*
X95534767Y-127170910D01*
X95492817Y-127169298D01*
X95490282Y-127169070D01*
X95133531Y-127109841D01*
X94783792Y-127010138D01*
X94445813Y-126871761D01*
X94124341Y-126696508D01*
X93964743Y-126591026D01*
X93827468Y-126484841D01*
X93678931Y-126353735D01*
X93529853Y-126208365D01*
X93390954Y-126059391D01*
X93272954Y-125917472D01*
X93232568Y-125863045D01*
X93061073Y-125590795D01*
X92912220Y-125292034D01*
X92790973Y-124978675D01*
X92702294Y-124662629D01*
X92674474Y-124523500D01*
X92672957Y-124513864D01*
X92671480Y-124502305D01*
X92670043Y-124488257D01*
X92668645Y-124471157D01*
X92667286Y-124450439D01*
X92665965Y-124425541D01*
X92664681Y-124395896D01*
X92663435Y-124360942D01*
X92662225Y-124320114D01*
X92661051Y-124272846D01*
X92659912Y-124218576D01*
X92658808Y-124156739D01*
X92657739Y-124086770D01*
X92656703Y-124008105D01*
X92655700Y-123920179D01*
X92654731Y-123822429D01*
X92653793Y-123714291D01*
X92652887Y-123595199D01*
X92652012Y-123464589D01*
X92651168Y-123321898D01*
X92650353Y-123166560D01*
X92649568Y-122998012D01*
X92648812Y-122815688D01*
X92648085Y-122619026D01*
X92647385Y-122407460D01*
X92646712Y-122180427D01*
X92646066Y-121937361D01*
X92645447Y-121677698D01*
X92644853Y-121400875D01*
X92644284Y-121106327D01*
X92643740Y-120793489D01*
X92643219Y-120461797D01*
X92642723Y-120110687D01*
X92642249Y-119739595D01*
X92641798Y-119347956D01*
X92641368Y-118935206D01*
X92640960Y-118500780D01*
X92640573Y-118044115D01*
X92640206Y-117564645D01*
X92639858Y-117061808D01*
X92639762Y-116906572D01*
X104759454Y-116906572D01*
X104785949Y-117064651D01*
X104841683Y-117215957D01*
X104926273Y-117355547D01*
X105039336Y-117478482D01*
X105180489Y-117579820D01*
X105349349Y-117654621D01*
X105357083Y-117657121D01*
X105374909Y-117660422D01*
X105407796Y-117663443D01*
X105457280Y-117666193D01*
X105524894Y-117668679D01*
X105612175Y-117670910D01*
X105720657Y-117672894D01*
X105851875Y-117674640D01*
X106007364Y-117676155D01*
X106188659Y-117677447D01*
X106397295Y-117678526D01*
X106634808Y-117679399D01*
X106902731Y-117680075D01*
X107202601Y-117680562D01*
X107535952Y-117680867D01*
X107904318Y-117681000D01*
X108309236Y-117680968D01*
X108752240Y-117680781D01*
X109234865Y-117680445D01*
X109632750Y-117680092D01*
X113823750Y-117676083D01*
X113950750Y-117613883D01*
X114079558Y-117533400D01*
X114200560Y-117426081D01*
X114301589Y-117304091D01*
X114359202Y-117205511D01*
X114385076Y-117146026D01*
X114401776Y-117092256D01*
X114411261Y-117032041D01*
X114415488Y-116953219D01*
X114416416Y-116850138D01*
X114416034Y-116798845D01*
X132256405Y-116798845D01*
X132265206Y-116981146D01*
X132313167Y-117164117D01*
X132384053Y-117299663D01*
X132488041Y-117426644D01*
X132615902Y-117536571D01*
X132758405Y-117620953D01*
X132848054Y-117656092D01*
X132865287Y-117659493D01*
X132895456Y-117662607D01*
X132940162Y-117665442D01*
X133001006Y-117668008D01*
X133079590Y-117670314D01*
X133177514Y-117672368D01*
X133296380Y-117674179D01*
X133437787Y-117675757D01*
X133603338Y-117677110D01*
X133794633Y-117678248D01*
X134013273Y-117679179D01*
X134260859Y-117679913D01*
X134538992Y-117680457D01*
X134849273Y-117680823D01*
X135193303Y-117681017D01*
X135572683Y-117681050D01*
X135989014Y-117680930D01*
X136443898Y-117680666D01*
X136938934Y-117680268D01*
X137128250Y-117680092D01*
X141319250Y-117676083D01*
X141458719Y-117607835D01*
X141614506Y-117508742D01*
X141743772Y-117379152D01*
X141842677Y-117224310D01*
X141907384Y-117049461D01*
X141923152Y-116973119D01*
X141930802Y-116797531D01*
X141928116Y-116782589D01*
X159753407Y-116782589D01*
X159756528Y-116951591D01*
X159794732Y-117118356D01*
X159869053Y-117277447D01*
X159975958Y-117418573D01*
X160118882Y-117543769D01*
X160278387Y-117632317D01*
X160343554Y-117656066D01*
X160360815Y-117659464D01*
X160391063Y-117662576D01*
X160435898Y-117665409D01*
X160496920Y-117667973D01*
X160575727Y-117670277D01*
X160673921Y-117672330D01*
X160793099Y-117674141D01*
X160934862Y-117675718D01*
X161100809Y-117677070D01*
X161292540Y-117678208D01*
X161511654Y-117679139D01*
X161759751Y-117679873D01*
X162038430Y-117680418D01*
X162349290Y-117680783D01*
X162693932Y-117680979D01*
X163073955Y-117681012D01*
X163490958Y-117680893D01*
X163946541Y-117680630D01*
X164442304Y-117680233D01*
X164623750Y-117680066D01*
X168814750Y-117676083D01*
X168935782Y-117619355D01*
X169091991Y-117523431D01*
X169224624Y-117395788D01*
X169328898Y-117242639D01*
X169400030Y-117070199D01*
X169419350Y-116991083D01*
X169431861Y-116820506D01*
X169405865Y-116650628D01*
X169344794Y-116487905D01*
X169252081Y-116338791D01*
X169131159Y-116209741D01*
X168985461Y-116107210D01*
X168935782Y-116081811D01*
X168814750Y-116025083D01*
X160368359Y-116025083D01*
X160227862Y-116094249D01*
X160071076Y-116192910D01*
X159944204Y-116316509D01*
X159848279Y-116459613D01*
X159784336Y-116616784D01*
X159753407Y-116782589D01*
X141928116Y-116782589D01*
X141899739Y-116624779D01*
X141833435Y-116461271D01*
X141735360Y-116313413D01*
X141608985Y-116187611D01*
X141457780Y-116090271D01*
X141440282Y-116081811D01*
X141319250Y-116025083D01*
X132873750Y-116025083D01*
X132736166Y-116090584D01*
X132577019Y-116188284D01*
X132447477Y-116313016D01*
X132349532Y-116459724D01*
X132285178Y-116623352D01*
X132256405Y-116798845D01*
X114416034Y-116798845D01*
X114415631Y-116744977D01*
X114411756Y-116669763D01*
X114402511Y-116612115D01*
X114385618Y-116559654D01*
X114358797Y-116500000D01*
X114347809Y-116477499D01*
X114251268Y-116326692D01*
X114123571Y-116196551D01*
X113974207Y-116096392D01*
X113944782Y-116081811D01*
X113823750Y-116025083D01*
X105378250Y-116025083D01*
X105235909Y-116092512D01*
X105078940Y-116187483D01*
X104953505Y-116305324D01*
X104859222Y-116441094D01*
X104795707Y-116589852D01*
X104762578Y-116746658D01*
X104759454Y-116906572D01*
X92639762Y-116906572D01*
X92639530Y-116535037D01*
X92639221Y-115983769D01*
G37*
X92639221Y-115983769D02*
X92638929Y-115407440D01*
X92638655Y-114805485D01*
X92638399Y-114177340D01*
X92638158Y-113522441D01*
X92637934Y-112840223D01*
X92637725Y-112130122D01*
X92637530Y-111391574D01*
X92637350Y-110624013D01*
X92637184Y-109826877D01*
X92637031Y-108999601D01*
X92636891Y-108141620D01*
X92636763Y-107252370D01*
X92636646Y-106331286D01*
X92636541Y-105377805D01*
X92636446Y-104391362D01*
X92636361Y-103371393D01*
X92636286Y-102317333D01*
X92636219Y-101228618D01*
X92636161Y-100104684D01*
X92636110Y-98944966D01*
X92636067Y-97748900D01*
X92636031Y-96515922D01*
X92636000Y-95245468D01*
X92635976Y-93936972D01*
X92635956Y-92589872D01*
X92635941Y-91203602D01*
X92635930Y-89777597D01*
X92635923Y-88311295D01*
X92635919Y-86804130D01*
X92635916Y-85255538D01*
X92635916Y-84296250D01*
X92635917Y-82722498D01*
X92635920Y-81190515D01*
X92635920Y-81123444D01*
X104756343Y-81123444D01*
X104772572Y-81297743D01*
X104825929Y-81461523D01*
X104909083Y-81611437D01*
X105010137Y-81730515D01*
X105136943Y-81826159D01*
X105297075Y-81905656D01*
X105420583Y-81956549D01*
X109622166Y-81951649D01*
X113823750Y-81946750D01*
X113944782Y-81890022D01*
X114095545Y-81797594D01*
X114227187Y-81674004D01*
X114329700Y-81529048D01*
X114346707Y-81496573D01*
X114382938Y-81415624D01*
X114405104Y-81342337D01*
X114417463Y-81258754D01*
X114421758Y-81194086D01*
X159753753Y-81194086D01*
X159784099Y-81359601D01*
X159849826Y-81517621D01*
X159952134Y-81662625D01*
X159960811Y-81672271D01*
X160104724Y-81803692D01*
X160260451Y-81895336D01*
X160343554Y-81926732D01*
X160360815Y-81930131D01*
X160391063Y-81933243D01*
X160435898Y-81936076D01*
X160496920Y-81938640D01*
X160575727Y-81940944D01*
X160673921Y-81942997D01*
X160793099Y-81944807D01*
X160934862Y-81946384D01*
X161100809Y-81947737D01*
X161292540Y-81948875D01*
X161511654Y-81949806D01*
X161759751Y-81950539D01*
X162038430Y-81951084D01*
X162349290Y-81951450D01*
X162693932Y-81951645D01*
X163073955Y-81951679D01*
X163490958Y-81951560D01*
X163946541Y-81951297D01*
X164442304Y-81950900D01*
X164623750Y-81950732D01*
X168814750Y-81946750D01*
X168935782Y-81890022D01*
X169091991Y-81794098D01*
X169224624Y-81666455D01*
X169328898Y-81513306D01*
X169400030Y-81340866D01*
X169419350Y-81261750D01*
X169432139Y-81089762D01*
X169406219Y-80919119D01*
X169344912Y-80756231D01*
X169251537Y-80607507D01*
X169129416Y-80479356D01*
X168981869Y-80378187D01*
X168954219Y-80363997D01*
X168814750Y-80295750D01*
X160369250Y-80295750D01*
X160247485Y-80352812D01*
X160090741Y-80447343D01*
X159962179Y-80567508D01*
X159863000Y-80707786D01*
X159794403Y-80862657D01*
X159757587Y-81026597D01*
X159753753Y-81194086D01*
X114421758Y-81194086D01*
X114423041Y-81174771D01*
X114420939Y-81008474D01*
X114395042Y-80867016D01*
X114342180Y-80738264D01*
X114284561Y-80645073D01*
X114163963Y-80506656D01*
X114019298Y-80399026D01*
X113857468Y-80327304D01*
X113855500Y-80326697D01*
X113838618Y-80321702D01*
X113820740Y-80317120D01*
X113800068Y-80312938D01*
X113774800Y-80309139D01*
X113743139Y-80305708D01*
X113703284Y-80302630D01*
X113653435Y-80299889D01*
X113591794Y-80297471D01*
X113516560Y-80295360D01*
X113425934Y-80293541D01*
X113318117Y-80291998D01*
X113191308Y-80290716D01*
X113043710Y-80289681D01*
X112873521Y-80288876D01*
X112678942Y-80288286D01*
X112458175Y-80287897D01*
X112209418Y-80287692D01*
X111930874Y-80287657D01*
X111620742Y-80287776D01*
X111277222Y-80288034D01*
X110898516Y-80288416D01*
X110482823Y-80288906D01*
X110028344Y-80289490D01*
X109548083Y-80290132D01*
X105378250Y-80295750D01*
X105240666Y-80363186D01*
X105162515Y-80404881D01*
X105092163Y-80448226D01*
X105046724Y-80482288D01*
X104923799Y-80621019D01*
X104833439Y-80778506D01*
X104777126Y-80948173D01*
X104756343Y-81123444D01*
X92635920Y-81123444D01*
X92635925Y-79699736D01*
X92635933Y-78249596D01*
X92635945Y-76839532D01*
X92635961Y-75468979D01*
X92635981Y-74137372D01*
X92636007Y-72844146D01*
X92636039Y-71588737D01*
X92636076Y-70370580D01*
X92636121Y-69189111D01*
X92636173Y-68043766D01*
X92636233Y-66933979D01*
X92636301Y-65859187D01*
X92636379Y-64818824D01*
X92636466Y-63812326D01*
X92636563Y-62839129D01*
X92636671Y-61898667D01*
X92636790Y-60990378D01*
X92636921Y-60113695D01*
X92637064Y-59268054D01*
X92637220Y-58452891D01*
X92637390Y-57667642D01*
X92637573Y-56911741D01*
X92637771Y-56184624D01*
X92637984Y-55485727D01*
X92638212Y-54814485D01*
X92638457Y-54170334D01*
X92638718Y-53552708D01*
X92638997Y-52961044D01*
X92639293Y-52394777D01*
X92639608Y-51853342D01*
X92639941Y-51336175D01*
X92640294Y-50842711D01*
X92640667Y-50372386D01*
X92641061Y-49924634D01*
X92641475Y-49498893D01*
X92641911Y-49094596D01*
X92642370Y-48711180D01*
X92642850Y-48348080D01*
X92643355Y-48004731D01*
X92643883Y-47680569D01*
X92644435Y-47375029D01*
X92645012Y-47087547D01*
X92645615Y-46817558D01*
X92646243Y-46564498D01*
X92646898Y-46327801D01*
X92647580Y-46106905D01*
X92648290Y-45901243D01*
X92649028Y-45710252D01*
X92649795Y-45533366D01*
X92650431Y-45402500D01*
X104765471Y-45402500D01*
X104766966Y-45504817D01*
X104773506Y-45579415D01*
X104787655Y-45640834D01*
X104811973Y-45703613D01*
X104822668Y-45727109D01*
X104919981Y-45895653D01*
X105039895Y-46029408D01*
X105185187Y-46130990D01*
X105311127Y-46187150D01*
X105325145Y-46191812D01*
X105341442Y-46196089D01*
X105361797Y-46199994D01*
X105387989Y-46203543D01*
X105421796Y-46206749D01*
X105464997Y-46209627D01*
X105519372Y-46212192D01*
X105586698Y-46214457D01*
X105668756Y-46216438D01*
X105767323Y-46218147D01*
X105884179Y-46219601D01*
X106021102Y-46220813D01*
X106179872Y-46221798D01*
X106362267Y-46222570D01*
X106570066Y-46223144D01*
X106805048Y-46223533D01*
X107068991Y-46223752D01*
X107363675Y-46223817D01*
X107690879Y-46223740D01*
X108052381Y-46223536D01*
X108449960Y-46223221D01*
X108885395Y-46222808D01*
X109360466Y-46222311D01*
X109622166Y-46222026D01*
X113823750Y-46217416D01*
X113944782Y-46160688D01*
X114097130Y-46067138D01*
X114229578Y-45941871D01*
X114332636Y-45794205D01*
X114347809Y-45765000D01*
X114378268Y-45700460D01*
X114398073Y-45647053D01*
X114409505Y-45592399D01*
X114414841Y-45524118D01*
X114415644Y-45474332D01*
X132259939Y-45474332D01*
X132293422Y-45644120D01*
X132359097Y-45803227D01*
X132455498Y-45944960D01*
X132581157Y-46062626D01*
X132611973Y-46084213D01*
X132635752Y-46100826D01*
X132656069Y-46116100D01*
X132674699Y-46130090D01*
X132693420Y-46142850D01*
X132714008Y-46154435D01*
X132738240Y-46164898D01*
X132767892Y-46174295D01*
X132804741Y-46182678D01*
X132850563Y-46190103D01*
X132907136Y-46196623D01*
X132976235Y-46202293D01*
X133059638Y-46207168D01*
X133159120Y-46211300D01*
X133276460Y-46214746D01*
X133413432Y-46217558D01*
X133571814Y-46219791D01*
X133753383Y-46221499D01*
X133959914Y-46222737D01*
X134193185Y-46223559D01*
X134454973Y-46224019D01*
X134747053Y-46224171D01*
X135071202Y-46224070D01*
X135429198Y-46223769D01*
X135822816Y-46223324D01*
X136253834Y-46222787D01*
X136724027Y-46222215D01*
X137117666Y-46221779D01*
X141319250Y-46217416D01*
X141450956Y-46156580D01*
X141597533Y-46066478D01*
X141724284Y-45944040D01*
X141825617Y-45796799D01*
X141895941Y-45632287D01*
X141921989Y-45522052D01*
X141926288Y-45434464D01*
X159750302Y-45434464D01*
X159761753Y-45533663D01*
X159816033Y-45719255D01*
X159904855Y-45880672D01*
X160027279Y-46016828D01*
X160182364Y-46126636D01*
X160336342Y-46197406D01*
X160351951Y-46200778D01*
X160380815Y-46203866D01*
X160424518Y-46206679D01*
X160484644Y-46209225D01*
X160562776Y-46211515D01*
X160660498Y-46213556D01*
X160779394Y-46215357D01*
X160921047Y-46216928D01*
X161087041Y-46218276D01*
X161278960Y-46219412D01*
X161498387Y-46220343D01*
X161746906Y-46221078D01*
X162026100Y-46221627D01*
X162337553Y-46221998D01*
X162682849Y-46222200D01*
X163063571Y-46222242D01*
X163481304Y-46222133D01*
X163937629Y-46221881D01*
X164434133Y-46221495D01*
X164623750Y-46221325D01*
X168835916Y-46217416D01*
X168962916Y-46150396D01*
X169115137Y-46048633D01*
X169241263Y-45920739D01*
X169338077Y-45772859D01*
X169402360Y-45611138D01*
X169430897Y-45441721D01*
X169421242Y-45275066D01*
X169368563Y-45085830D01*
X169282114Y-44920246D01*
X169163463Y-44780740D01*
X169041174Y-44686191D01*
X169018067Y-44670873D01*
X168997820Y-44656800D01*
X168978641Y-44643919D01*
X168958740Y-44632176D01*
X168936327Y-44621521D01*
X168909610Y-44611899D01*
X168876799Y-44603259D01*
X168836102Y-44595548D01*
X168785730Y-44588714D01*
X168723892Y-44582704D01*
X168648796Y-44577466D01*
X168558652Y-44572947D01*
X168451669Y-44569095D01*
X168326057Y-44565857D01*
X168180024Y-44563182D01*
X168011780Y-44561016D01*
X167819535Y-44559306D01*
X167601497Y-44558002D01*
X167355875Y-44557049D01*
X167080879Y-44556396D01*
X166774719Y-44555990D01*
X166435603Y-44555779D01*
X166061740Y-44555710D01*
X165651340Y-44555730D01*
X165202613Y-44555788D01*
X164713766Y-44555831D01*
X164591999Y-44555833D01*
X164093396Y-44555802D01*
X163635335Y-44555743D01*
X163216025Y-44555708D01*
X162833677Y-44555752D01*
X162486499Y-44555924D01*
X162172700Y-44556280D01*
X161890490Y-44556869D01*
X161638078Y-44557746D01*
X161413673Y-44558963D01*
X161215484Y-44560572D01*
X161041722Y-44562625D01*
X160890594Y-44565175D01*
X160760310Y-44568275D01*
X160649080Y-44571977D01*
X160555112Y-44576333D01*
X160476617Y-44581396D01*
X160411802Y-44587219D01*
X160358878Y-44593853D01*
X160316053Y-44601352D01*
X160281538Y-44609767D01*
X160253540Y-44619152D01*
X160230270Y-44629558D01*
X160209936Y-44641039D01*
X160190749Y-44653646D01*
X160170916Y-44667432D01*
X160148647Y-44682450D01*
X160142825Y-44686191D01*
X160003483Y-44798000D01*
X159891367Y-44935832D01*
X159809669Y-45092587D01*
X159761583Y-45261165D01*
X159750302Y-45434464D01*
X141926288Y-45434464D01*
X141930776Y-45343039D01*
X141900909Y-45170085D01*
X141836060Y-45008528D01*
X141739903Y-44863706D01*
X141616109Y-44740955D01*
X141468353Y-44645613D01*
X141300306Y-44583018D01*
X141271175Y-44576269D01*
X141236066Y-44573427D01*
X141158935Y-44570847D01*
X141040093Y-44568529D01*
X140879850Y-44566474D01*
X140678518Y-44564683D01*
X140436405Y-44563159D01*
X140153823Y-44561901D01*
X139831083Y-44560911D01*
X139468496Y-44560191D01*
X139066371Y-44559741D01*
X138625019Y-44559562D01*
X138144751Y-44559656D01*
X137625878Y-44560023D01*
X137068710Y-44560665D01*
X137033000Y-44560714D01*
X132894916Y-44566416D01*
X132773279Y-44615536D01*
X132660965Y-44675968D01*
X132546377Y-44763084D01*
X132443707Y-44864570D01*
X132367315Y-44967821D01*
X132295419Y-45129489D01*
X132260116Y-45300557D01*
X132259939Y-45474332D01*
X114415644Y-45474332D01*
X114416363Y-45429832D01*
X114416416Y-45392361D01*
X114415454Y-45285554D01*
X114411249Y-45209138D01*
X114401823Y-45151186D01*
X114385199Y-45099776D01*
X114359398Y-45042983D01*
X114357985Y-45040102D01*
X114264333Y-44885513D01*
X114148433Y-44763034D01*
X114002741Y-44665080D01*
X113966341Y-44646264D01*
X113804780Y-44566416D01*
X105399416Y-44566416D01*
X105272416Y-44617397D01*
X105179616Y-44663927D01*
X105088546Y-44730922D01*
X105005897Y-44807897D01*
X104904086Y-44921178D01*
X104833958Y-45030409D01*
X104790736Y-45147403D01*
X104769642Y-45283975D01*
X104765471Y-45402500D01*
X92650431Y-45402500D01*
X92650590Y-45370022D01*
X92651416Y-45219655D01*
X92652272Y-45081700D01*
X92653159Y-44955592D01*
X92654077Y-44840768D01*
X92655028Y-44736662D01*
X92656011Y-44642710D01*
X92657027Y-44558348D01*
X92658076Y-44483011D01*
X92659160Y-44416134D01*
X92660278Y-44357153D01*
X92661432Y-44305503D01*
X92662622Y-44260620D01*
X92663847Y-44221939D01*
X92665110Y-44188896D01*
X92666410Y-44160926D01*
X92667749Y-44137464D01*
X92669125Y-44117947D01*
X92670541Y-44101808D01*
X92671997Y-44088485D01*
X92673493Y-44077412D01*
X92674857Y-44069000D01*
X92757792Y-43713638D01*
X92878058Y-43374430D01*
X93033440Y-43053866D01*
X93221725Y-42754437D01*
X93440698Y-42478634D01*
X93688146Y-42228948D01*
X93961855Y-42007870D01*
X94259610Y-41817892D01*
X94579199Y-41661503D01*
X94918406Y-41541196D01*
X94922467Y-41540017D01*
X95038218Y-41508890D01*
X95169078Y-41477344D01*
X95289002Y-41451618D01*
X95302285Y-41449053D01*
X95311172Y-41447648D01*
X95323197Y-41446278D01*
X95338912Y-41444944D01*
X95358871Y-41443645D01*
X95383623Y-41442380D01*
X95413722Y-41441149D01*
X95449720Y-41439952D01*
X95492169Y-41438788D01*
X95541620Y-41437655D01*
X95598627Y-41436555D01*
X95663740Y-41435485D01*
X95737512Y-41434446D01*
X95820495Y-41433437D01*
X95913241Y-41432458D01*
X96016303Y-41431507D01*
X96130231Y-41430585D01*
X96255579Y-41429690D01*
X96392898Y-41428822D01*
X96542741Y-41427982D01*
X96705659Y-41427167D01*
X96882205Y-41426377D01*
X97072930Y-41425613D01*
X97278386Y-41424873D01*
X97499127Y-41424157D01*
X97735703Y-41423464D01*
X97988667Y-41422794D01*
X98258571Y-41422146D01*
X98545967Y-41421519D01*
X98851407Y-41420913D01*
X99175442Y-41420328D01*
X99518626Y-41419763D01*
X99881510Y-41419217D01*
X100264647Y-41418690D01*
X100668587Y-41418181D01*
X101093884Y-41417690D01*
X101541090Y-41417215D01*
X102010756Y-41416758D01*
X102503434Y-41416316D01*
X103019677Y-41415890D01*
X103560037Y-41415478D01*
X104125065Y-41415081D01*
X104715314Y-41414697D01*
X105331336Y-41414327D01*
X105973683Y-41413969D01*
X106642907Y-41413623D01*
X107339560Y-41413289D01*
X108064193Y-41412965D01*
X108817360Y-41412652D01*
X109599613Y-41412349D01*
X110411502Y-41412055D01*
X111253581Y-41411769D01*
X112126401Y-41411492D01*
X113030515Y-41411222D01*
X113966474Y-41410959D01*
X114934830Y-41410703D01*
X115936137Y-41410452D01*
X116970944Y-41410207D01*
X118039806Y-41409967D01*
X119143274Y-41409730D01*
X120281899Y-41409497D01*
X121456234Y-41409268D01*
X122666831Y-41409040D01*
X123914242Y-41408815D01*
X125199020Y-41408591D01*
X126521715Y-41408368D01*
X127882881Y-41408145D01*
X129283069Y-41407922D01*
X130722831Y-41407698D01*
X132202720Y-41407472D01*
X133723287Y-41407245D01*
X135285085Y-41407015D01*
X136884833Y-41406782D01*
X138663407Y-41406535D01*
X140404967Y-41406315D01*
X142109391Y-41406122D01*
X143776560Y-41405956D01*
X145406351Y-41405816D01*
X146998646Y-41405703D01*
X148553322Y-41405616D01*
X150070259Y-41405556D01*
X151549336Y-41405523D01*
X152990433Y-41405515D01*
X154393428Y-41405534D01*
X155758202Y-41405580D01*
X157084633Y-41405652D01*
X158372600Y-41405749D01*
X159621983Y-41405874D01*
X160832661Y-41406024D01*
X162004514Y-41406200D01*
X163137420Y-41406403D01*
X164231259Y-41406631D01*
X165285910Y-41406886D01*
X166301252Y-41407166D01*
X167277165Y-41407473D01*
X168213527Y-41407805D01*
X169110219Y-41408163D01*
X169967119Y-41408547D01*
X170784107Y-41408956D01*
X171561061Y-41409392D01*
X172297862Y-41409853D01*
X172994387Y-41410339D01*
X173650518Y-41410851D01*
X174266132Y-41411389D01*
X174841109Y-41411952D01*
X175375329Y-41412540D01*
X175868670Y-41413154D01*
X176321012Y-41413793D01*
X176732235Y-41414457D01*
X177102216Y-41415147D01*
X177430836Y-41415862D01*
X177717974Y-41416602D01*
X177963510Y-41417367D01*
X178167321Y-41418158D01*
X178329288Y-41418973D01*
X178449290Y-41419813D01*
X178527206Y-41420679D01*
X178562916Y-41421569D01*
X178563584Y-41421614D01*
X178857098Y-41452377D01*
X179123522Y-41501739D01*
X179375218Y-41572946D01*
X179624548Y-41669246D01*
X179779083Y-41740876D01*
X180093572Y-41918068D01*
X180383272Y-42128329D01*
X180646174Y-42369050D01*
X180880272Y-42637618D01*
X181083557Y-42931424D01*
X181254022Y-43247856D01*
X181389660Y-43584304D01*
X181488462Y-43938157D01*
X181496103Y-43973750D01*
X181497666Y-43981836D01*
X181499188Y-43991311D01*
X181500669Y-44002740D01*
X181502109Y-44016685D01*
X181503510Y-44033711D01*
X181504871Y-44054380D01*
X181506194Y-44079255D01*
X181507479Y-44108902D01*
X181508726Y-44143882D01*
X181509936Y-44184761D01*
X181511110Y-44232100D01*
X181512248Y-44286464D01*
X181513351Y-44348415D01*
X181514418Y-44418519D01*
X181515452Y-44497338D01*
X181516452Y-44585435D01*
X181517419Y-44683374D01*
X181518353Y-44791719D01*
X181519256Y-44911033D01*
X181520127Y-45041880D01*
X181520967Y-45184823D01*
X181521777Y-45340425D01*
X181522557Y-45509251D01*
X181523307Y-45691864D01*
X181524030Y-45888826D01*
X181524724Y-46100702D01*
X181525390Y-46328056D01*
X181526030Y-46571450D01*
X181526643Y-46831448D01*
X181527231Y-47108614D01*
X181527793Y-47403512D01*
X181528330Y-47716704D01*
X181528843Y-48048754D01*
X181529332Y-48400226D01*
X181529799Y-48771683D01*
X181530243Y-49163689D01*
X181530665Y-49576807D01*
X181531065Y-50011601D01*
X181531445Y-50468635D01*
X181531804Y-50948471D01*
X181532144Y-51451673D01*
X181532464Y-51978805D01*
X181532766Y-52530431D01*
X181533050Y-53107113D01*
X181533316Y-53709416D01*
X181533565Y-54337902D01*
X181533798Y-54993136D01*
X181534015Y-55675680D01*
X181534216Y-56386099D01*
X181534403Y-57124956D01*
X181534576Y-57892814D01*
X181534735Y-58690237D01*
X181534881Y-59517788D01*
X181535015Y-60376031D01*
X181535137Y-61265530D01*
X181535247Y-62186847D01*
X181535346Y-63140547D01*
X181535435Y-64127193D01*
X181535515Y-65147348D01*
X181535585Y-66201576D01*
X181535646Y-67290441D01*
X181535700Y-68414505D01*
X181535746Y-69574333D01*
X181535785Y-70770488D01*
X181535818Y-72003533D01*
X181535845Y-73274032D01*
X181535866Y-74582549D01*
X181535883Y-75929646D01*
X181535896Y-77315888D01*
X181535905Y-78741838D01*
X181535911Y-80208060D01*
X181535914Y-81715117D01*
X181535916Y-83263572D01*
X181535916Y-84306833D01*
X181535915Y-85883016D01*
X181535913Y-87417429D01*
X181535908Y-88910635D01*
X181535901Y-90363197D01*
X181535890Y-91775679D01*
X181535876Y-93148643D01*
X181535856Y-94482654D01*
X181535832Y-95778273D01*
X181535802Y-97036066D01*
X181535767Y-98256593D01*
X181535724Y-99440420D01*
X181535674Y-100588109D01*
X181535617Y-101700223D01*
X181535551Y-102777325D01*
X181535476Y-103819979D01*
X181535392Y-104828748D01*
X181535298Y-105804196D01*
X181535194Y-106746885D01*
X181535078Y-107657378D01*
X181534951Y-108536239D01*
X181534811Y-109384031D01*
X181534659Y-110201317D01*
X181534494Y-110988661D01*
X181534314Y-111746626D01*
X181534121Y-112475774D01*
X181533912Y-113176670D01*
X181533688Y-113849876D01*
X181533448Y-114495955D01*
X181533191Y-115115472D01*
X181532917Y-115708988D01*
X181532626Y-116277067D01*
X181532316Y-116820273D01*
X181531987Y-117339169D01*
X181531639Y-117834317D01*
X181531272Y-118306282D01*
X181530883Y-118755626D01*
X181530474Y-119182912D01*
X181530043Y-119588704D01*
X181529590Y-119973565D01*
X181529115Y-120338059D01*
X181528616Y-120682747D01*
X181528094Y-121008195D01*
X181527547Y-121314964D01*
X181526975Y-121603618D01*
X181526378Y-121874720D01*
X181525755Y-122128834D01*
X181525106Y-122366523D01*
X181524429Y-122588350D01*
X181523725Y-122794878D01*
X181522993Y-122986670D01*
X181522232Y-123164289D01*
X181521442Y-123328300D01*
X181520621Y-123479264D01*
X181519771Y-123617746D01*
X181518890Y-123744308D01*
X181517977Y-123859514D01*
X181517032Y-123963927D01*
X181516055Y-124058110D01*
X181515044Y-124142626D01*
X181514000Y-124218039D01*
X181512921Y-124284912D01*
X181511808Y-124343807D01*
X181510660Y-124395289D01*
X181509475Y-124439920D01*
X181508254Y-124478264D01*
X181506997Y-124510884D01*
X181505701Y-124538343D01*
X181504368Y-124561204D01*
X181502996Y-124580030D01*
X181501585Y-124595386D01*
X181500134Y-124607833D01*
X181498643Y-124617935D01*
X181497111Y-124626256D01*
X181496460Y-124629333D01*
X181396622Y-124991201D01*
X181261167Y-125332771D01*
X181091866Y-125652050D01*
X180890488Y-125947046D01*
X180658803Y-126215765D01*
X180398583Y-126456216D01*
X180111597Y-126666404D01*
X179799616Y-126844337D01*
X179464409Y-126988022D01*
X179373103Y-127019712D01*
X179317577Y-127038446D01*
X179267765Y-127055657D01*
X179221773Y-127071413D01*
X179177711Y-127085778D01*
X179133685Y-127098822D01*
X179087804Y-127110609D01*
X179038175Y-127121207D01*
X178982906Y-127130682D01*
X178920105Y-127139102D01*
X178847879Y-127146532D01*
X178764336Y-127153041D01*
X178667584Y-127158694D01*
X178555731Y-127163558D01*
X178426884Y-127167700D01*
X178279151Y-127171187D01*
X178110641Y-127174085D01*
X177919460Y-127176462D01*
X177703716Y-127178383D01*
X177461518Y-127179916D01*
X177190973Y-127181128D01*
X176890188Y-127182085D01*
X176557272Y-127182853D01*
X176190331Y-127183500D01*
X175787475Y-127184093D01*
X175346811Y-127184697D01*
X174866446Y-127185381D01*
X174667333Y-127185684D01*
X174165485Y-127186443D01*
X173704096Y-127187071D01*
X173281291Y-127187538D01*
X172895196Y-127187818D01*
X172543936Y-127187881D01*
X172225637Y-127187699D01*
X171938425Y-127187244D01*
X171680424Y-127186488D01*
X171449761Y-127185403D01*
X171244561Y-127183961D01*
X171062950Y-127182132D01*
X170903053Y-127179890D01*
X170762995Y-127177205D01*
X170640902Y-127174049D01*
X170534901Y-127170395D01*
X170443115Y-127166214D01*
X170363671Y-127161478D01*
X170294694Y-127156158D01*
X170234311Y-127150227D01*
X170180645Y-127143655D01*
X170131824Y-127136416D01*
X170085972Y-127128480D01*
X170041215Y-127119820D01*
X170021068Y-127115707D01*
X169689844Y-127026556D01*
X169366520Y-126899071D01*
X169056549Y-126736635D01*
X168765385Y-126542630D01*
X168498483Y-126320439D01*
X168261295Y-126073444D01*
X168180290Y-125974044D01*
X168153863Y-125940200D01*
X168130495Y-125910271D01*
X168108778Y-125881899D01*
X168087304Y-125852731D01*
X168064665Y-125820411D01*
X168039453Y-125782583D01*
X168010261Y-125736892D01*
X167975679Y-125680983D01*
X167934300Y-125612500D01*
X167884717Y-125529089D01*
X167825520Y-125428394D01*
X167755303Y-125308059D01*
X167672656Y-125165730D01*
X167576172Y-124999050D01*
X167464443Y-124805665D01*
X167336061Y-124583219D01*
X167189618Y-124329358D01*
X167023705Y-124041725D01*
X166984156Y-123973166D01*
X166841429Y-123726083D01*
X166703063Y-123487184D01*
X166570739Y-123259334D01*
X166446137Y-123045397D01*
X166330937Y-122848238D01*
X166226819Y-122670721D01*
X166135463Y-122515712D01*
X166058549Y-122386074D01*
X165997757Y-122284672D01*
X165954766Y-122214371D01*
X165931848Y-122178864D01*
X165704865Y-121893536D01*
X165449417Y-121639121D01*
X165166883Y-121416511D01*
X164858645Y-121226597D01*
X164526083Y-121070271D01*
X164170577Y-120948424D01*
X163935326Y-120889738D01*
X163925801Y-120887881D01*
X163914290Y-120886084D01*
X163900100Y-120884346D01*
X163882540Y-120882667D01*
X163860917Y-120881045D01*
X163834539Y-120879479D01*
X163802715Y-120877969D01*
X163764751Y-120876514D01*
X163719955Y-120875112D01*
X163667637Y-120873762D01*
X163607102Y-120872463D01*
X163537660Y-120871216D01*
X163458617Y-120870017D01*
X163369283Y-120868867D01*
X163268964Y-120867764D01*
X163156968Y-120866708D01*
X163032604Y-120865698D01*
X162895178Y-120864731D01*
X162744000Y-120863808D01*
X162578376Y-120862928D01*
X162397615Y-120862089D01*
X162201025Y-120861291D01*
X161987912Y-120860532D01*
X161757586Y-120859811D01*
X161509354Y-120859128D01*
X161242523Y-120858482D01*
X160956402Y-120857871D01*
X160650298Y-120857294D01*
X160323519Y-120856751D01*
X159975374Y-120856240D01*
X159605169Y-120855761D01*
X159212213Y-120855313D01*
X158795813Y-120854893D01*
X158355278Y-120854503D01*
X157889915Y-120854140D01*
X157399032Y-120853803D01*
X156881936Y-120853492D01*
X156337937Y-120853205D01*
X155766341Y-120852942D01*
X155166456Y-120852702D01*
X154537590Y-120852483D01*
X153879051Y-120852284D01*
X153190147Y-120852105D01*
X152470186Y-120851944D01*
X151718475Y-120851802D01*
X150934322Y-120851675D01*
X150117036Y-120851564D01*
X149265923Y-120851468D01*
X148380292Y-120851385D01*
X147459451Y-120851315D01*
X146502707Y-120851256D01*
X145509369Y-120851208D01*
X144478743Y-120851169D01*
X143410139Y-120851139D01*
X142302863Y-120851117D01*
X141156223Y-120851101D01*
X139969528Y-120851091D01*
X138742085Y-120851085D01*
X137473203Y-120851083D01*
X137096500Y-120851083D01*
X135814912Y-120851084D01*
X134574967Y-120851090D01*
X133375972Y-120851100D01*
X132217235Y-120851116D01*
X131098066Y-120851139D01*
X130017772Y-120851169D01*
X128975662Y-120851208D01*
X127971044Y-120851257D01*
X127003226Y-120851316D01*
X126071518Y-120851387D01*
X125175227Y-120851470D01*
X124313662Y-120851567D01*
X123486132Y-120851679D01*
X122691944Y-120851806D01*
X121930408Y-120851949D01*
X121200831Y-120852110D01*
X120502522Y-120852289D01*
X119834790Y-120852488D01*
X119196942Y-120852707D01*
X118588288Y-120852947D01*
X118008135Y-120853210D01*
X117455793Y-120853496D01*
X116930569Y-120853806D01*
X116431772Y-120854142D01*
X115958710Y-120854503D01*
X115510692Y-120854892D01*
X115087026Y-120855309D01*
X114687021Y-120855755D01*
X114309985Y-120856232D01*
X113955227Y-120856739D01*
X113622054Y-120857278D01*
X113309775Y-120857851D01*
X113017700Y-120858457D01*
X112745135Y-120859098D01*
X112491390Y-120859776D01*
X112255773Y-120860490D01*
X112037592Y-120861242D01*
X111836156Y-120862033D01*
X111650774Y-120862864D01*
X111480753Y-120863735D01*
X111325402Y-120864649D01*
X111184029Y-120865605D01*
X111055943Y-120866605D01*
X110940453Y-120867649D01*
X110836866Y-120868739D01*
X110744492Y-120869876D01*
X110662638Y-120871061D01*
X110590613Y-120872294D01*
X110527725Y-120873577D01*
X110473284Y-120874910D01*
X110426596Y-120876295D01*
X110386971Y-120877732D01*
X110353717Y-120879223D01*
X110326143Y-120880768D01*
X110303557Y-120882369D01*
X110285267Y-120884026D01*
X110270581Y-120885740D01*
X110258809Y-120887513D01*
X110251453Y-120888886D01*
X109900106Y-120980841D01*
X109563828Y-121109517D01*
X109246019Y-121272698D01*
X108950080Y-121468165D01*
X108679411Y-121693703D01*
X108437413Y-121947092D01*
X108248269Y-122195166D01*
X108219509Y-122240212D01*
X108171416Y-122319003D01*
X108105731Y-122428568D01*
X108024197Y-122565939D01*
X107928558Y-122728146D01*
X107820555Y-122912219D01*
X107701931Y-123115190D01*
X107574429Y-123334089D01*
X107439792Y-123565946D01*
X107299761Y-123807791D01*
X107167605Y-124036666D01*
X107024280Y-124284799D01*
X106884806Y-124525459D01*
X106750917Y-124755698D01*
X106624347Y-124972572D01*
X106506830Y-125173133D01*
X106400100Y-125354437D01*
X106305891Y-125513538D01*
X106225937Y-125647488D01*
X106161971Y-125753343D01*
X106115728Y-125828156D01*
X106090190Y-125867232D01*
X105992963Y-125992323D01*
X105870638Y-126130507D01*
X105733448Y-126271560D01*
X105591626Y-126405252D01*
X105455404Y-126521359D01*
X105373712Y-126583264D01*
X105083403Y-126765586D01*
X104766140Y-126920765D01*
X104430102Y-127045271D01*
X104103285Y-127131427D01*
X103875416Y-127179841D01*
X99758500Y-127182553D01*
X99341883Y-127182745D01*
X98935316Y-127182769D01*
X98540930Y-127182632D01*
X98160859Y-127182341D01*
X97797234Y-127181903D01*
X97452190Y-127181325D01*
X97127857Y-127180613D01*
X96826370Y-127179774D01*
X96549860Y-127178814D01*
X96300461Y-127177741D01*
X96080305Y-127176562D01*
X95891525Y-127175282D01*
X95736254Y-127173909D01*
X95616623Y-127172449D01*
X95534767Y-127170910D01*
X95492817Y-127169298D01*
X95490282Y-127169070D01*
X95133531Y-127109841D01*
X94783792Y-127010138D01*
X94445813Y-126871761D01*
X94124341Y-126696508D01*
X93964743Y-126591026D01*
X93827468Y-126484841D01*
X93678931Y-126353735D01*
X93529853Y-126208365D01*
X93390954Y-126059391D01*
X93272954Y-125917472D01*
X93232568Y-125863045D01*
X93061073Y-125590795D01*
X92912220Y-125292034D01*
X92790973Y-124978675D01*
X92702294Y-124662629D01*
X92674474Y-124523500D01*
X92672957Y-124513864D01*
X92671480Y-124502305D01*
X92670043Y-124488257D01*
X92668645Y-124471157D01*
X92667286Y-124450439D01*
X92665965Y-124425541D01*
X92664681Y-124395896D01*
X92663435Y-124360942D01*
X92662225Y-124320114D01*
X92661051Y-124272846D01*
X92659912Y-124218576D01*
X92658808Y-124156739D01*
X92657739Y-124086770D01*
X92656703Y-124008105D01*
X92655700Y-123920179D01*
X92654731Y-123822429D01*
X92653793Y-123714291D01*
X92652887Y-123595199D01*
X92652012Y-123464589D01*
X92651168Y-123321898D01*
X92650353Y-123166560D01*
X92649568Y-122998012D01*
X92648812Y-122815688D01*
X92648085Y-122619026D01*
X92647385Y-122407460D01*
X92646712Y-122180427D01*
X92646066Y-121937361D01*
X92645447Y-121677698D01*
X92644853Y-121400875D01*
X92644284Y-121106327D01*
X92643740Y-120793489D01*
X92643219Y-120461797D01*
X92642723Y-120110687D01*
X92642249Y-119739595D01*
X92641798Y-119347956D01*
X92641368Y-118935206D01*
X92640960Y-118500780D01*
X92640573Y-118044115D01*
X92640206Y-117564645D01*
X92639858Y-117061808D01*
X92639762Y-116906572D01*
X104759454Y-116906572D01*
X104785949Y-117064651D01*
X104841683Y-117215957D01*
X104926273Y-117355547D01*
X105039336Y-117478482D01*
X105180489Y-117579820D01*
X105349349Y-117654621D01*
X105357083Y-117657121D01*
X105374909Y-117660422D01*
X105407796Y-117663443D01*
X105457280Y-117666193D01*
X105524894Y-117668679D01*
X105612175Y-117670910D01*
X105720657Y-117672894D01*
X105851875Y-117674640D01*
X106007364Y-117676155D01*
X106188659Y-117677447D01*
X106397295Y-117678526D01*
X106634808Y-117679399D01*
X106902731Y-117680075D01*
X107202601Y-117680562D01*
X107535952Y-117680867D01*
X107904318Y-117681000D01*
X108309236Y-117680968D01*
X108752240Y-117680781D01*
X109234865Y-117680445D01*
X109632750Y-117680092D01*
X113823750Y-117676083D01*
X113950750Y-117613883D01*
X114079558Y-117533400D01*
X114200560Y-117426081D01*
X114301589Y-117304091D01*
X114359202Y-117205511D01*
X114385076Y-117146026D01*
X114401776Y-117092256D01*
X114411261Y-117032041D01*
X114415488Y-116953219D01*
X114416416Y-116850138D01*
X114416034Y-116798845D01*
X132256405Y-116798845D01*
X132265206Y-116981146D01*
X132313167Y-117164117D01*
X132384053Y-117299663D01*
X132488041Y-117426644D01*
X132615902Y-117536571D01*
X132758405Y-117620953D01*
X132848054Y-117656092D01*
X132865287Y-117659493D01*
X132895456Y-117662607D01*
X132940162Y-117665442D01*
X133001006Y-117668008D01*
X133079590Y-117670314D01*
X133177514Y-117672368D01*
X133296380Y-117674179D01*
X133437787Y-117675757D01*
X133603338Y-117677110D01*
X133794633Y-117678248D01*
X134013273Y-117679179D01*
X134260859Y-117679913D01*
X134538992Y-117680457D01*
X134849273Y-117680823D01*
X135193303Y-117681017D01*
X135572683Y-117681050D01*
X135989014Y-117680930D01*
X136443898Y-117680666D01*
X136938934Y-117680268D01*
X137128250Y-117680092D01*
X141319250Y-117676083D01*
X141458719Y-117607835D01*
X141614506Y-117508742D01*
X141743772Y-117379152D01*
X141842677Y-117224310D01*
X141907384Y-117049461D01*
X141923152Y-116973119D01*
X141930802Y-116797531D01*
X141928116Y-116782589D01*
X159753407Y-116782589D01*
X159756528Y-116951591D01*
X159794732Y-117118356D01*
X159869053Y-117277447D01*
X159975958Y-117418573D01*
X160118882Y-117543769D01*
X160278387Y-117632317D01*
X160343554Y-117656066D01*
X160360815Y-117659464D01*
X160391063Y-117662576D01*
X160435898Y-117665409D01*
X160496920Y-117667973D01*
X160575727Y-117670277D01*
X160673921Y-117672330D01*
X160793099Y-117674141D01*
X160934862Y-117675718D01*
X161100809Y-117677070D01*
X161292540Y-117678208D01*
X161511654Y-117679139D01*
X161759751Y-117679873D01*
X162038430Y-117680418D01*
X162349290Y-117680783D01*
X162693932Y-117680979D01*
X163073955Y-117681012D01*
X163490958Y-117680893D01*
X163946541Y-117680630D01*
X164442304Y-117680233D01*
X164623750Y-117680066D01*
X168814750Y-117676083D01*
X168935782Y-117619355D01*
X169091991Y-117523431D01*
X169224624Y-117395788D01*
X169328898Y-117242639D01*
X169400030Y-117070199D01*
X169419350Y-116991083D01*
X169431861Y-116820506D01*
X169405865Y-116650628D01*
X169344794Y-116487905D01*
X169252081Y-116338791D01*
X169131159Y-116209741D01*
X168985461Y-116107210D01*
X168935782Y-116081811D01*
X168814750Y-116025083D01*
X160368359Y-116025083D01*
X160227862Y-116094249D01*
X160071076Y-116192910D01*
X159944204Y-116316509D01*
X159848279Y-116459613D01*
X159784336Y-116616784D01*
X159753407Y-116782589D01*
X141928116Y-116782589D01*
X141899739Y-116624779D01*
X141833435Y-116461271D01*
X141735360Y-116313413D01*
X141608985Y-116187611D01*
X141457780Y-116090271D01*
X141440282Y-116081811D01*
X141319250Y-116025083D01*
X132873750Y-116025083D01*
X132736166Y-116090584D01*
X132577019Y-116188284D01*
X132447477Y-116313016D01*
X132349532Y-116459724D01*
X132285178Y-116623352D01*
X132256405Y-116798845D01*
X114416034Y-116798845D01*
X114415631Y-116744977D01*
X114411756Y-116669763D01*
X114402511Y-116612115D01*
X114385618Y-116559654D01*
X114358797Y-116500000D01*
X114347809Y-116477499D01*
X114251268Y-116326692D01*
X114123571Y-116196551D01*
X113974207Y-116096392D01*
X113944782Y-116081811D01*
X113823750Y-116025083D01*
X105378250Y-116025083D01*
X105235909Y-116092512D01*
X105078940Y-116187483D01*
X104953505Y-116305324D01*
X104859222Y-116441094D01*
X104795707Y-116589852D01*
X104762578Y-116746658D01*
X104759454Y-116906572D01*
X92639762Y-116906572D01*
X92639530Y-116535037D01*
X92639221Y-115983769D01*
%TD*%
M02*
