%TF.GenerationSoftware,KiCad,Pcbnew,(6.0.0)*%
%TF.CreationDate,2022-01-31T16:35:22-08:00*%
%TF.ProjectId,PCB-side-brain,5043422d-7369-4646-952d-627261696e2e,rev?*%
%TF.SameCoordinates,Original*%
%TF.FileFunction,Profile,NP*%
%FSLAX46Y46*%
G04 Gerber Fmt 4.6, Leading zero omitted, Abs format (unit mm)*
G04 Created by KiCad (PCBNEW (6.0.0)) date 2022-01-31 16:35:22*
%MOMM*%
%LPD*%
G01*
G04 APERTURE LIST*
%TA.AperFunction,Profile*%
%ADD10C,0.100000*%
%TD*%
G04 APERTURE END LIST*
D10*
%TO.C,Ref\u002A\u002A*%
X117681200Y-50056600D02*
X117578700Y-49932700D01*
X181779000Y-130801000D02*
X182148000Y-130983000D01*
X117947800Y-121686000D02*
X117805300Y-121609000D01*
X181293000Y-48600900D02*
X181462000Y-48618000D01*
X117578700Y-120420000D02*
X117681200Y-120296000D01*
X173266500Y-84325900D02*
X173266500Y-84325900D01*
X181619000Y-84392000D02*
X181761000Y-84469700D01*
X172445300Y-121083000D02*
X172428400Y-120914000D01*
X181988000Y-121380000D02*
X181886000Y-121505000D01*
X181619000Y-48667000D02*
X181761000Y-48744700D01*
X154491800Y-48973500D02*
X154569200Y-49118100D01*
X154617900Y-49624700D02*
X154569200Y-49785300D01*
X126626400Y-84392000D02*
X126768900Y-84469700D01*
X181886000Y-50055000D02*
X181761000Y-50158500D01*
X154389300Y-121505000D02*
X154265200Y-121608000D01*
X145770200Y-120051000D02*
X145770200Y-120051000D01*
X173266500Y-50302000D02*
X173097700Y-50285100D01*
X172494000Y-85515400D02*
X172445300Y-85357900D01*
X194091000Y-47707500D02*
X193984000Y-47415800D01*
X181988000Y-49929700D02*
X181886000Y-50055000D01*
X172571300Y-120420000D02*
X172673800Y-120296000D01*
X126995400Y-48973500D02*
X127072800Y-49118100D01*
X117435700Y-85188800D02*
X117435700Y-85164000D01*
X153796600Y-48600900D02*
X153965400Y-48618000D01*
X145770200Y-120051000D02*
X145770200Y-120051000D01*
X154389300Y-48847900D02*
X154491800Y-48973500D01*
X127121600Y-85349700D02*
X127072900Y-85510300D01*
X177253000Y-125120000D02*
X177622000Y-125302000D01*
X107564300Y-131084000D02*
X107868500Y-131162000D01*
X106058400Y-46632100D02*
X105875600Y-46876500D01*
X118440600Y-130302000D02*
X118715500Y-129989000D01*
X144932000Y-120889000D02*
X144948900Y-120720000D01*
X154122700Y-48667000D02*
X154265200Y-48744700D01*
X145601400Y-121735000D02*
X145444100Y-121686000D01*
X118273900Y-48600900D02*
X118273900Y-48600900D01*
X193691000Y-129827000D02*
X193850000Y-129565000D01*
X145770200Y-50302000D02*
X145601400Y-50285100D01*
X105349800Y-128376000D02*
X105397900Y-128692000D01*
X144948900Y-120720000D02*
X144997600Y-120562000D01*
X144948900Y-49270000D02*
X144997600Y-49112500D01*
X121292400Y-125802000D02*
X121603200Y-125530000D01*
X182114000Y-49624700D02*
X182065000Y-49785300D01*
X181293000Y-84325900D02*
X181462000Y-84343000D01*
X105349800Y-48327100D02*
X105333400Y-48651700D01*
X117028700Y-131117000D02*
X117419200Y-130983000D01*
X117947800Y-120117000D02*
X118105100Y-120068000D01*
X145770200Y-48600900D02*
X145770200Y-48600900D01*
X172673800Y-50056600D02*
X172571400Y-49932700D01*
X183366000Y-131227000D02*
X191058000Y-131227000D01*
X117435700Y-49439100D02*
X117452600Y-49270000D01*
X193984000Y-47415800D02*
X193850000Y-47138300D01*
X172493900Y-49790400D02*
X172445200Y-49632900D01*
X181761000Y-48744700D02*
X181886000Y-48847900D01*
X172428300Y-49463900D02*
X172428300Y-49439100D01*
X193850000Y-129565000D02*
X193984000Y-129288000D01*
X194091000Y-128996000D02*
X194169000Y-128692000D01*
X181462000Y-50285200D02*
X181293000Y-50302000D01*
X127072900Y-84843100D02*
X127121600Y-85003500D01*
X144997600Y-49112500D02*
X145075000Y-48970200D01*
X154122700Y-50236400D02*
X153965400Y-50285200D01*
X145177500Y-48846300D02*
X145301600Y-48743900D01*
X127121500Y-49278500D02*
X127138400Y-49451400D01*
X173266500Y-48600900D02*
X173266500Y-48600900D01*
X117681200Y-120296000D02*
X117805300Y-120194000D01*
X126893000Y-85780000D02*
X126768900Y-85883500D01*
X172571400Y-49932700D02*
X172493900Y-49790400D01*
X178549000Y-126114000D02*
X178784000Y-126464000D01*
X105397900Y-48011800D02*
X105349800Y-48327100D01*
X127121500Y-121075000D02*
X127072800Y-121235000D01*
X173097700Y-48617800D02*
X173266500Y-48600900D01*
X181462000Y-120068000D02*
X181619000Y-120117000D01*
X117805300Y-121609000D02*
X117681200Y-121507000D01*
X118273900Y-48600900D02*
X126300300Y-48600900D01*
X127072800Y-49118100D02*
X127121500Y-49278500D01*
X153965400Y-50285200D02*
X153796600Y-50302000D01*
X181462000Y-48618000D02*
X181619000Y-48667000D01*
X118273900Y-120051000D02*
X118273900Y-120051000D01*
X181886000Y-48847900D02*
X181988000Y-48973500D01*
X172940400Y-120116000D02*
X173097700Y-120068000D01*
X182065000Y-84843100D02*
X182114000Y-85003500D01*
X107272500Y-45726200D02*
X106995000Y-45859900D01*
X172445300Y-120720000D02*
X172494000Y-120562000D01*
X126300300Y-120051000D02*
X126469100Y-120068000D01*
X194233000Y-128052000D02*
X194233000Y-48651700D01*
X181761000Y-84469700D02*
X181886000Y-84572900D01*
X173266500Y-120051000D02*
X173266500Y-120051000D01*
X172798000Y-120194000D02*
X172940400Y-120116000D01*
X145770200Y-121752000D02*
X145601400Y-121735000D01*
X127072800Y-49785300D02*
X126995500Y-49929700D01*
X173266500Y-84325900D02*
X181293000Y-84325900D01*
X182065000Y-49118100D02*
X182114000Y-49278500D01*
X154569200Y-120568000D02*
X154617900Y-120728000D01*
X126995500Y-85654700D02*
X126893000Y-85780000D01*
X172798000Y-85884000D02*
X172673800Y-85781600D01*
X192294000Y-45726200D02*
X192003000Y-45619400D01*
X126893000Y-120298000D02*
X126995400Y-120423000D01*
X144997600Y-49790400D02*
X144948900Y-49632900D01*
X172673800Y-121507000D02*
X172571400Y-121383000D01*
X145444100Y-121686000D02*
X145301600Y-121609000D01*
X194169000Y-128692000D02*
X194217000Y-128376000D01*
X118273900Y-84325900D02*
X118273900Y-84325900D01*
X154634800Y-49451400D02*
X154617900Y-49624700D01*
X144948900Y-121083000D02*
X144932000Y-120914000D01*
X172673800Y-48846300D02*
X172797900Y-48743900D01*
X154265200Y-120195000D02*
X154389300Y-120298000D01*
X117501300Y-85515400D02*
X117452600Y-85357900D01*
X118105100Y-48617800D02*
X118273900Y-48600900D01*
X177964000Y-125530000D02*
X178274000Y-125802000D01*
X108508400Y-45476700D02*
X108183800Y-45493100D01*
X117452600Y-85357900D02*
X117435700Y-85188800D01*
X173097700Y-86010100D02*
X172940400Y-85961400D01*
X126995500Y-49929700D02*
X126893000Y-50055000D01*
X108183800Y-45493100D02*
X107868500Y-45541200D01*
X182114000Y-121075000D02*
X182065000Y-121235000D01*
X153796600Y-120051000D02*
X153965400Y-120068000D01*
X172428400Y-85188900D02*
X172428400Y-85164100D01*
X191698000Y-45541200D02*
X191383000Y-45493100D01*
X154389300Y-50055000D02*
X154265200Y-50158500D01*
X126469100Y-50285200D02*
X126300300Y-50302000D01*
X126300300Y-48600900D02*
X126469100Y-48618000D01*
X193078000Y-130502000D02*
X193303000Y-130297000D01*
X183366000Y-131227000D02*
X183366000Y-131227000D01*
X181437000Y-130573000D02*
X181779000Y-130801000D01*
X181988000Y-85654700D02*
X181886000Y-85780000D01*
X127138500Y-85176400D02*
X127121600Y-85349700D01*
X126768900Y-84469700D02*
X126893000Y-84572900D01*
X145444100Y-120116000D02*
X145601400Y-120068000D01*
X178274000Y-125802000D02*
X178549000Y-126114000D01*
X126995500Y-84698500D02*
X127072900Y-84843100D01*
X194217000Y-48327100D02*
X194169000Y-48011800D01*
X181988000Y-48973500D02*
X182065000Y-49118100D01*
X126768900Y-50158500D02*
X126626400Y-50236400D01*
X117501300Y-84837500D02*
X117578700Y-84695200D01*
X127138400Y-49451400D02*
X127121500Y-49624700D01*
X193078000Y-46201700D02*
X192834000Y-46018900D01*
X194169000Y-48011800D02*
X194091000Y-47707500D01*
X106733200Y-130684000D02*
X106995000Y-130843000D01*
X144997600Y-121240000D02*
X144948900Y-121083000D01*
X181988000Y-120423000D02*
X182065000Y-120568000D01*
X105716600Y-129565000D02*
X105875600Y-129827000D01*
X154265200Y-50158500D02*
X154122700Y-50236400D01*
X106733200Y-46018900D02*
X106488800Y-46201700D01*
X105397900Y-128692000D02*
X105476100Y-128996000D01*
X180851000Y-129989000D02*
X181126000Y-130302000D01*
X182131000Y-120901000D02*
X182114000Y-121075000D01*
X182114000Y-49278500D02*
X182131000Y-49451400D01*
X126768900Y-120195000D02*
X126893000Y-120298000D01*
X106488800Y-46201700D02*
X106263300Y-46406600D01*
X172571400Y-121383000D02*
X172494000Y-121240000D01*
X117805300Y-85884000D02*
X117681200Y-85781600D01*
X118273900Y-120051000D02*
X126300300Y-120051000D01*
X126626400Y-120117000D02*
X126768900Y-120195000D01*
X173266500Y-84325900D02*
X173266500Y-84325900D01*
X182114000Y-85349700D02*
X182065000Y-85510300D01*
X173266500Y-120051000D02*
X173266500Y-120051000D01*
X153965400Y-48618000D02*
X154122700Y-48667000D01*
X145075000Y-121383000D02*
X144997600Y-121240000D01*
X145770200Y-48600900D02*
X145770200Y-48600900D01*
X193303000Y-46406600D02*
X193078000Y-46201700D01*
X117578700Y-84695200D02*
X117681200Y-84571300D01*
X106488800Y-130502000D02*
X106733200Y-130684000D01*
X173266500Y-48600900D02*
X181293000Y-48600900D01*
X172798000Y-50159000D02*
X172673800Y-50056600D01*
X117805300Y-120194000D02*
X117947800Y-120117000D01*
X182131000Y-49451400D02*
X182114000Y-49624700D01*
X117787800Y-130801000D02*
X118129800Y-130573000D01*
X117805300Y-50159000D02*
X117681200Y-50056600D01*
X122313700Y-125120000D02*
X122704200Y-124987000D01*
X126626400Y-85961400D02*
X126469100Y-86010200D01*
X181886000Y-84572900D02*
X181988000Y-84698500D01*
X127138400Y-120901000D02*
X127121500Y-121075000D01*
X118105100Y-84342800D02*
X118273900Y-84325900D01*
X144948900Y-49632900D02*
X144932000Y-49463900D01*
X181619000Y-85961400D02*
X181462000Y-86010200D01*
X145301600Y-120194000D02*
X145444100Y-120116000D01*
X117805300Y-48743900D02*
X117947800Y-48666500D01*
X181886000Y-121505000D02*
X181761000Y-121608000D01*
X181761000Y-121608000D02*
X181619000Y-121686000D01*
X105582900Y-47415800D02*
X105476100Y-47707500D01*
X176454700Y-124905000D02*
X176862600Y-124987000D01*
X126995500Y-121380000D02*
X126893000Y-121505000D01*
X193508000Y-46632100D02*
X193303000Y-46406600D01*
X153965400Y-120068000D02*
X154122700Y-120117000D01*
X172428400Y-120914000D02*
X172428400Y-120889000D01*
X126469100Y-120068000D02*
X126626400Y-120117000D01*
X176034100Y-124877000D02*
X176454700Y-124905000D01*
X191058000Y-45476700D02*
X108508400Y-45476700D01*
X126893000Y-84572900D02*
X126995500Y-84698500D01*
X126626400Y-48667000D02*
X126768900Y-48744700D01*
X145770200Y-48600900D02*
X153796600Y-48600900D01*
X126469100Y-86010200D02*
X126300300Y-86027000D01*
X145177500Y-121507000D02*
X145075000Y-121383000D01*
X182148000Y-130983000D02*
X182538000Y-131117000D01*
X118273900Y-120051000D02*
X118273900Y-120051000D01*
X126893000Y-121505000D02*
X126768900Y-121608000D01*
X117501300Y-49790400D02*
X117452600Y-49632900D01*
X145444100Y-50236400D02*
X145301700Y-50159000D01*
X154569200Y-49118100D02*
X154617900Y-49278500D01*
X117452600Y-49632900D02*
X117435700Y-49463900D01*
X126893000Y-48847900D02*
X126995400Y-48973500D01*
X192834000Y-46018900D02*
X192572000Y-45859900D01*
X116620900Y-131199000D02*
X117028700Y-131117000D01*
X172445300Y-84995000D02*
X172494000Y-84837500D01*
X154491800Y-121380000D02*
X154389300Y-121505000D01*
X154617900Y-121075000D02*
X154569200Y-121235000D01*
X172798000Y-121609000D02*
X172673800Y-121507000D01*
X122704200Y-124987000D02*
X123112100Y-124905000D01*
X117805300Y-84468900D02*
X117947800Y-84391500D01*
X154617900Y-120728000D02*
X154634800Y-120901000D01*
X172493900Y-49112500D02*
X172571300Y-48970200D01*
X192294000Y-130977000D02*
X192572000Y-130843000D01*
X145601400Y-48617800D02*
X145770200Y-48600900D01*
X173097700Y-84342800D02*
X173266500Y-84325900D01*
X126768900Y-121608000D02*
X126626400Y-121686000D01*
X172445200Y-49270000D02*
X172493900Y-49112500D01*
X172797900Y-48743900D02*
X172940400Y-48666500D01*
X117435700Y-120889000D02*
X117452600Y-120720000D01*
X172428300Y-49439100D02*
X172445200Y-49270000D01*
X117501300Y-120562000D02*
X117578700Y-120420000D01*
X172494000Y-120562000D02*
X172571300Y-120420000D01*
X117435700Y-120914000D02*
X117435700Y-120889000D01*
X117681200Y-48846300D02*
X117805300Y-48743900D01*
X117419200Y-130983000D02*
X117787800Y-130801000D01*
X127121600Y-85003500D02*
X127138500Y-85176400D01*
X117681200Y-85781600D02*
X117578700Y-85657700D01*
X117452600Y-49270000D02*
X117501300Y-49112500D01*
X154617900Y-49278500D02*
X154634800Y-49451400D01*
X172673800Y-120296000D02*
X172798000Y-120194000D01*
X182065000Y-121235000D02*
X181988000Y-121380000D01*
X118273900Y-50302000D02*
X118105100Y-50285100D01*
X108508400Y-131227000D02*
X116200300Y-131227000D01*
X118949900Y-129639000D02*
X120783000Y-126464000D01*
X172940400Y-84391500D02*
X173097700Y-84342800D01*
X120783000Y-126464000D02*
X121017500Y-126114000D01*
X173266500Y-86027000D02*
X173097700Y-86010100D01*
X191058000Y-131227000D02*
X191383000Y-131210000D01*
X172494000Y-84837500D02*
X172571300Y-84695200D01*
X105716600Y-47138300D02*
X105582900Y-47415800D01*
X181293000Y-120051000D02*
X181462000Y-120068000D01*
X144932000Y-49439100D02*
X144948900Y-49270000D01*
X181988000Y-84698500D02*
X182065000Y-84843100D01*
X126768900Y-48744700D02*
X126893000Y-48847900D01*
X176862600Y-124987000D02*
X177253000Y-125120000D01*
X172673800Y-85781600D02*
X172571400Y-85657700D01*
X106995000Y-45859900D02*
X106733200Y-46018900D01*
X145444100Y-48666500D02*
X145601400Y-48617800D01*
X145177500Y-50056600D02*
X145075100Y-49932700D01*
X126626400Y-121686000D02*
X126469100Y-121735000D01*
X117681200Y-84571300D02*
X117805300Y-84468900D01*
X105875600Y-46876500D02*
X105716600Y-47138300D01*
X181462000Y-84343000D02*
X181619000Y-84392000D01*
X117947800Y-48666500D02*
X118105100Y-48617800D01*
X117947800Y-50236400D02*
X117805300Y-50159000D01*
X117452600Y-121083000D02*
X117435700Y-120914000D01*
X126469100Y-84343000D02*
X126626400Y-84392000D01*
X173097700Y-121735000D02*
X172940400Y-121686000D01*
X106058400Y-130071000D02*
X106263300Y-130297000D01*
X126469100Y-48618000D02*
X126626400Y-48667000D01*
X183366000Y-131227000D02*
X183366000Y-131227000D01*
X117578700Y-49932700D02*
X117501300Y-49790400D01*
X172940400Y-85961400D02*
X172798000Y-85884000D01*
X182114000Y-85003500D02*
X182131000Y-85176400D01*
X117578700Y-48970200D02*
X117681200Y-48846300D01*
X118273900Y-84325900D02*
X118273900Y-84325900D01*
X172940400Y-50236400D02*
X172798000Y-50159000D01*
X154122700Y-121686000D02*
X153965400Y-121735000D01*
X118105100Y-50285100D02*
X117947800Y-50236400D01*
X117452600Y-120720000D02*
X117501300Y-120562000D01*
X182065000Y-85510300D02*
X181988000Y-85654700D01*
X192572000Y-130843000D02*
X192834000Y-130684000D01*
X193508000Y-130071000D02*
X193691000Y-129827000D01*
X154491800Y-49929700D02*
X154389300Y-50055000D01*
X192003000Y-131084000D02*
X192294000Y-130977000D01*
X107868500Y-45541200D02*
X107564300Y-45619400D01*
X118273900Y-84325900D02*
X126300300Y-84325900D01*
X194217000Y-128376000D02*
X194233000Y-128052000D01*
X193691000Y-46876500D02*
X193508000Y-46632100D01*
X154389300Y-120298000D02*
X154491800Y-120423000D01*
X127072800Y-120568000D02*
X127121500Y-120728000D01*
X126995400Y-120423000D02*
X127072800Y-120568000D01*
X192834000Y-130684000D02*
X193078000Y-130502000D01*
X193303000Y-130297000D02*
X193508000Y-130071000D01*
X117452600Y-84995000D02*
X117501300Y-84837500D01*
X117947800Y-84391500D02*
X118105100Y-84342800D01*
X173097700Y-120068000D02*
X173266500Y-120051000D01*
X173266500Y-48600900D02*
X173266500Y-48600900D01*
X182131000Y-85176400D02*
X182114000Y-85349700D01*
X153796600Y-121752000D02*
X145770200Y-121752000D01*
X145770200Y-120051000D02*
X153796600Y-120051000D01*
X123532700Y-124877000D02*
X176034100Y-124877000D01*
X127072800Y-121235000D02*
X126995500Y-121380000D01*
X105333400Y-48651700D02*
X105333400Y-128052000D01*
X121603200Y-125530000D02*
X121945200Y-125302000D01*
X182538000Y-131117000D02*
X182946000Y-131199000D01*
X117578700Y-121383000D02*
X117501300Y-121240000D01*
X172428400Y-85164100D02*
X172445300Y-84995000D01*
X116200300Y-131227000D02*
X116620900Y-131199000D01*
X182114000Y-120728000D02*
X182131000Y-120901000D01*
X181293000Y-121752000D02*
X173266500Y-121752000D01*
X173266500Y-121752000D02*
X173097700Y-121735000D01*
X181886000Y-120298000D02*
X181988000Y-120423000D01*
X181619000Y-121686000D02*
X181462000Y-121735000D01*
X181619000Y-120117000D02*
X181761000Y-120195000D01*
X154491800Y-120423000D02*
X154569200Y-120568000D01*
X191383000Y-131210000D02*
X191698000Y-131162000D01*
X126300300Y-50302000D02*
X118273900Y-50302000D01*
X127121500Y-120728000D02*
X127138400Y-120901000D01*
X181619000Y-50236400D02*
X181462000Y-50285200D01*
X144997600Y-120562000D02*
X145075000Y-120420000D01*
X126469100Y-121735000D02*
X126300300Y-121752000D01*
X173097700Y-50285100D02*
X172940400Y-50236400D01*
X193850000Y-47138300D02*
X193691000Y-46876500D01*
X181761000Y-50158500D02*
X181619000Y-50236400D01*
X172428400Y-120889000D02*
X172445300Y-120720000D01*
X153796600Y-50302000D02*
X145770200Y-50302000D01*
X117947800Y-85961400D02*
X117805300Y-85884000D01*
X181462000Y-86010200D02*
X181293000Y-86027000D01*
X126768900Y-85883500D02*
X126626400Y-85961400D01*
X118105100Y-120068000D02*
X118273900Y-120051000D01*
X117501300Y-49112500D02*
X117578700Y-48970200D01*
X191383000Y-45493100D02*
X191058000Y-45476700D01*
X105476100Y-47707500D02*
X105397900Y-48011800D01*
X145075000Y-48970200D02*
X145177500Y-48846300D01*
X181761000Y-120195000D02*
X181886000Y-120298000D01*
X181462000Y-121735000D02*
X181293000Y-121752000D01*
X118715500Y-129989000D02*
X118949900Y-129639000D01*
X123112100Y-124905000D02*
X123532700Y-124877000D01*
X105333400Y-128052000D02*
X105349800Y-128376000D01*
X105875600Y-129827000D02*
X106058400Y-130071000D01*
X154265200Y-121608000D02*
X154122700Y-121686000D01*
X126300300Y-86027000D02*
X118273900Y-86027000D01*
X118273900Y-121752000D02*
X118105100Y-121735000D01*
X145301600Y-48743900D02*
X145444100Y-48666500D01*
X172940400Y-121686000D02*
X172798000Y-121609000D01*
X117501300Y-121240000D02*
X117452600Y-121083000D01*
X192572000Y-45859900D02*
X192294000Y-45726200D01*
X117435700Y-85164000D02*
X117452600Y-84995000D01*
X154265200Y-48744700D02*
X154389300Y-48847900D01*
X172571300Y-84695200D02*
X172673800Y-84571300D01*
X118273900Y-48600900D02*
X118273900Y-48600900D01*
X154569200Y-49785300D02*
X154491800Y-49929700D01*
X118129800Y-130573000D02*
X118440600Y-130302000D01*
X181293000Y-50302000D02*
X173266500Y-50302000D01*
X106263300Y-130297000D02*
X106488800Y-130502000D01*
X117435700Y-49463900D02*
X117435700Y-49439100D01*
X117681200Y-121507000D02*
X117578700Y-121383000D01*
X182946000Y-131199000D02*
X183366000Y-131227000D01*
X172571400Y-85657700D02*
X172494000Y-85515400D01*
X106263300Y-46406600D02*
X106058400Y-46632100D01*
X118273900Y-86027000D02*
X118105100Y-86010100D01*
X182065000Y-120568000D02*
X182114000Y-120728000D01*
X192003000Y-45619400D02*
X191698000Y-45541200D01*
X106995000Y-130843000D02*
X107272500Y-130977000D01*
X191698000Y-131162000D02*
X192003000Y-131084000D01*
X145601400Y-120068000D02*
X145770200Y-120051000D01*
X126893000Y-50055000D02*
X126768900Y-50158500D01*
X172940400Y-48666500D02*
X173097700Y-48617800D01*
X172798000Y-84468900D02*
X172940400Y-84391500D01*
X144932000Y-49463900D02*
X144932000Y-49439100D01*
X172445200Y-49632900D02*
X172428300Y-49463900D01*
X177622000Y-125302000D02*
X177964000Y-125530000D01*
X127121500Y-49624700D02*
X127072800Y-49785300D01*
X172445300Y-85357900D02*
X172428400Y-85188900D01*
X172494000Y-121240000D02*
X172445300Y-121083000D01*
X145075000Y-120420000D02*
X145177500Y-120296000D01*
X193984000Y-129288000D02*
X194091000Y-128996000D01*
X107272500Y-130977000D02*
X107564300Y-131084000D01*
X154122700Y-120117000D02*
X154265200Y-120195000D01*
X145301700Y-50159000D02*
X145177500Y-50056600D01*
X126300300Y-84325900D02*
X126469100Y-84343000D01*
X181126000Y-130302000D02*
X181437000Y-130573000D01*
X126300300Y-121752000D02*
X118273900Y-121752000D01*
X154569200Y-121235000D02*
X154491800Y-121380000D01*
X181761000Y-85883500D02*
X181619000Y-85961400D01*
X144932000Y-120914000D02*
X144932000Y-120889000D01*
X126626400Y-50236400D02*
X126469100Y-50285200D01*
X181293000Y-86027000D02*
X173266500Y-86027000D01*
X173266500Y-120051000D02*
X181293000Y-120051000D01*
X118105100Y-121735000D02*
X117947800Y-121686000D01*
X145075100Y-49932700D02*
X144997600Y-49790400D01*
X172673800Y-84571300D02*
X172798000Y-84468900D01*
X107564300Y-45619400D02*
X107272500Y-45726200D01*
X121017500Y-126114000D02*
X121292400Y-125802000D01*
X118105100Y-86010100D02*
X117947800Y-85961400D01*
X105582900Y-129288000D02*
X105716600Y-129565000D01*
X108183800Y-131210000D02*
X108508400Y-131227000D01*
X145601400Y-50285100D02*
X145444100Y-50236400D01*
X181886000Y-85780000D02*
X181761000Y-85883500D01*
X194233000Y-48651700D02*
X194217000Y-48327100D01*
X153965400Y-121735000D02*
X153796600Y-121752000D01*
X182065000Y-49785300D02*
X181988000Y-49929700D01*
X178784000Y-126464000D02*
X180617000Y-129639000D01*
X172571300Y-48970200D02*
X172673800Y-48846300D01*
X121945200Y-125302000D02*
X122313700Y-125120000D01*
X107868500Y-131162000D02*
X108183800Y-131210000D01*
X154634800Y-120901000D02*
X154617900Y-121075000D01*
X145177500Y-120296000D02*
X145301600Y-120194000D01*
X105476100Y-128996000D02*
X105582900Y-129288000D01*
X127072900Y-85510300D02*
X126995500Y-85654700D01*
X145301600Y-121609000D02*
X145177500Y-121507000D01*
X180617000Y-129639000D02*
X180851000Y-129989000D01*
X117578700Y-85657700D02*
X117501300Y-85515400D01*
%TD*%
M02*
