%TF.GenerationSoftware,KiCad,Pcbnew,(5.1.10)-1*%
%TF.CreationDate,2022-01-31T16:37:24-08:00*%
%TF.ProjectId,TMPCB_Footprint-Side,544d5043-425f-4466-9f6f-747072696e74,rev?*%
%TF.SameCoordinates,Original*%
%TF.FileFunction,Paste,Bot*%
%TF.FilePolarity,Positive*%
%FSLAX46Y46*%
G04 Gerber Fmt 4.6, Leading zero omitted, Abs format (unit mm)*
G04 Created by KiCad (PCBNEW (5.1.10)-1) date 2022-01-31 16:37:24*
%MOMM*%
%LPD*%
G01*
G04 APERTURE LIST*
%ADD10C,0.400000*%
%ADD11C,0.250000*%
%ADD12C,0.500000*%
%ADD13C,0.420000*%
G04 APERTURE END LIST*
D10*
%TO.C,FBGA-96*%
X109195000Y-101377000D03*
X109995000Y-101377000D03*
X110795000Y-101377000D03*
X113995000Y-101377000D03*
X114795000Y-101377000D03*
X115595000Y-101377000D03*
X109195000Y-100577000D03*
X109995000Y-100577000D03*
X110795000Y-100577000D03*
X113995000Y-100577000D03*
X114795000Y-100577000D03*
X115595000Y-100577000D03*
X109195000Y-99777000D03*
X109995000Y-99777000D03*
X110795000Y-99777000D03*
X113995000Y-99777000D03*
X114795000Y-99777000D03*
X115595000Y-99777000D03*
X109195000Y-98977000D03*
X109995000Y-98977000D03*
X110795000Y-98977000D03*
X113995000Y-98977000D03*
X114795000Y-98977000D03*
X115595000Y-98977000D03*
X109195000Y-98177000D03*
X109995000Y-98177000D03*
X110795000Y-98177000D03*
X113995000Y-98177000D03*
X114795000Y-98177000D03*
X115595000Y-98177000D03*
X109195000Y-97377000D03*
X109995000Y-97377000D03*
X110795000Y-97377000D03*
X113995000Y-97377000D03*
X114795000Y-97377000D03*
X115595000Y-97377000D03*
X109195000Y-96577000D03*
X109995000Y-96577000D03*
X110795000Y-96577000D03*
X113995000Y-96577000D03*
X114795000Y-96577000D03*
X115595000Y-96577000D03*
X109195000Y-95777000D03*
X109995000Y-95777000D03*
X110795000Y-95777000D03*
X113995000Y-95777000D03*
X114795000Y-95777000D03*
X115595000Y-95777000D03*
X109195000Y-94977000D03*
X109995000Y-94977000D03*
X110795000Y-94977000D03*
X113995000Y-94977000D03*
X114795000Y-94977000D03*
X115595000Y-94977000D03*
X109195000Y-94177000D03*
X109995000Y-94177000D03*
X110795000Y-94177000D03*
X113995000Y-94177000D03*
X114795000Y-94177000D03*
X115595000Y-94177000D03*
X109195000Y-93377000D03*
X109995000Y-93377000D03*
X110795000Y-93377000D03*
X113995000Y-93377000D03*
X114795000Y-93377000D03*
X115595000Y-93377000D03*
X109195000Y-92577000D03*
X109995000Y-92577000D03*
X110795000Y-92577000D03*
X113995000Y-92577000D03*
X114795000Y-92577000D03*
X115595000Y-92577000D03*
X109195000Y-91777000D03*
X109995000Y-91777000D03*
X110795000Y-91777000D03*
X113995000Y-91777000D03*
X114795000Y-91777000D03*
X115595000Y-91777000D03*
X109195000Y-90977000D03*
X109995000Y-90977000D03*
X110795000Y-90977000D03*
X113995000Y-90977000D03*
X114795000Y-90977000D03*
X115595000Y-90977000D03*
X109195000Y-90177000D03*
X109995000Y-90177000D03*
X110795000Y-90177000D03*
X113995000Y-90177000D03*
X114795000Y-90177000D03*
X115595000Y-90177000D03*
X109195000Y-89377000D03*
X109995000Y-89377000D03*
X110795000Y-89377000D03*
X113995000Y-89377000D03*
X114795000Y-89377000D03*
X115595000Y-89377000D03*
%TD*%
D11*
%TO.C,BGA-256 P0.5mm*%
X145974000Y-61036000D03*
X145974000Y-61536000D03*
X145974000Y-62036000D03*
X145974000Y-62536000D03*
X145974000Y-63036000D03*
X145974000Y-63536000D03*
X145974000Y-64036000D03*
X145974000Y-64536000D03*
X145974000Y-65036000D03*
X145974000Y-65536000D03*
X145974000Y-66036000D03*
X145974000Y-66536000D03*
X145974000Y-67036000D03*
X145974000Y-67536000D03*
X145974000Y-68036000D03*
X145974000Y-68536000D03*
X145974000Y-69036000D03*
X145974000Y-69536000D03*
X145974000Y-70036000D03*
X145974000Y-70536000D03*
X145474000Y-61036000D03*
X145474000Y-61536000D03*
X145474000Y-62036000D03*
X145474000Y-62536000D03*
X145474000Y-63036000D03*
X145474000Y-63536000D03*
X145474000Y-64036000D03*
X145474000Y-64536000D03*
X145474000Y-65036000D03*
X145474000Y-65536000D03*
X145474000Y-66036000D03*
X145474000Y-66536000D03*
X145474000Y-67036000D03*
X145474000Y-67536000D03*
X145474000Y-68036000D03*
X145474000Y-68536000D03*
X145474000Y-69036000D03*
X145474000Y-69536000D03*
X145474000Y-70036000D03*
X145474000Y-70536000D03*
X144974000Y-61036000D03*
X144974000Y-61536000D03*
X144974000Y-62036000D03*
X144974000Y-62536000D03*
X144974000Y-63036000D03*
X144974000Y-63536000D03*
X144974000Y-64036000D03*
X144974000Y-64536000D03*
X144974000Y-65036000D03*
X144974000Y-65536000D03*
X144974000Y-66036000D03*
X144974000Y-66536000D03*
X144974000Y-67036000D03*
X144974000Y-67536000D03*
X144974000Y-68036000D03*
X144974000Y-68536000D03*
X144974000Y-69036000D03*
X144974000Y-69536000D03*
X144974000Y-70036000D03*
X144974000Y-70536000D03*
X144474000Y-61036000D03*
X144474000Y-61536000D03*
X144474000Y-62036000D03*
X144474000Y-62536000D03*
X144474000Y-63036000D03*
X144474000Y-63536000D03*
X144474000Y-64036000D03*
X144474000Y-64536000D03*
X144474000Y-65036000D03*
X144474000Y-65536000D03*
X144474000Y-66036000D03*
X144474000Y-66536000D03*
X144474000Y-67036000D03*
X144474000Y-67536000D03*
X144474000Y-68036000D03*
X144474000Y-68536000D03*
X144474000Y-69036000D03*
X144474000Y-69536000D03*
X144474000Y-70036000D03*
X144474000Y-70536000D03*
X143974000Y-61036000D03*
X143974000Y-61536000D03*
X143974000Y-62036000D03*
X143974000Y-62536000D03*
X143974000Y-69036000D03*
X143974000Y-69536000D03*
X143974000Y-70036000D03*
X143974000Y-70536000D03*
X143474000Y-61036000D03*
X143474000Y-61536000D03*
X143474000Y-62036000D03*
X143474000Y-62536000D03*
X143474000Y-69036000D03*
X143474000Y-69536000D03*
X143474000Y-70036000D03*
X143474000Y-70536000D03*
X142974000Y-61036000D03*
X142974000Y-61536000D03*
X142974000Y-62036000D03*
X142974000Y-62536000D03*
X142974000Y-69036000D03*
X142974000Y-69536000D03*
X142974000Y-70036000D03*
X142974000Y-70536000D03*
X142474000Y-61036000D03*
X142474000Y-61536000D03*
X142474000Y-62036000D03*
X142474000Y-62536000D03*
X142474000Y-69036000D03*
X142474000Y-69536000D03*
X142474000Y-70036000D03*
X142474000Y-70536000D03*
X141974000Y-61036000D03*
X141974000Y-61536000D03*
X141974000Y-62036000D03*
X141974000Y-62536000D03*
X141974000Y-69036000D03*
X141974000Y-69536000D03*
X141974000Y-70036000D03*
X141974000Y-70536000D03*
X141474000Y-61036000D03*
X141474000Y-61536000D03*
X141474000Y-62036000D03*
X141474000Y-62536000D03*
X141474000Y-69036000D03*
X141474000Y-69536000D03*
X141474000Y-70036000D03*
X141474000Y-70536000D03*
X140974000Y-61036000D03*
X140974000Y-61536000D03*
X140974000Y-62036000D03*
X140974000Y-62536000D03*
X140974000Y-69036000D03*
X140974000Y-69536000D03*
X140974000Y-70036000D03*
X140974000Y-70536000D03*
X140474000Y-61036000D03*
X140474000Y-61536000D03*
X140474000Y-62036000D03*
X140474000Y-62536000D03*
X140474000Y-69036000D03*
X140474000Y-69536000D03*
X140474000Y-70036000D03*
X140474000Y-70536000D03*
X139974000Y-61036000D03*
X139974000Y-61536000D03*
X139974000Y-62036000D03*
X139974000Y-62536000D03*
X139974000Y-69036000D03*
X139974000Y-69536000D03*
X139974000Y-70036000D03*
X139974000Y-70536000D03*
X139474000Y-61036000D03*
X139474000Y-61536000D03*
X139474000Y-62036000D03*
X139474000Y-62536000D03*
X139474000Y-69036000D03*
X139474000Y-69536000D03*
X139474000Y-70036000D03*
X139474000Y-70536000D03*
X138974000Y-61036000D03*
X138974000Y-61536000D03*
X138974000Y-62036000D03*
X138974000Y-62536000D03*
X138974000Y-69036000D03*
X138974000Y-69536000D03*
X138974000Y-70036000D03*
X138974000Y-70536000D03*
X138474000Y-61036000D03*
X138474000Y-61536000D03*
X138474000Y-62036000D03*
X138474000Y-62536000D03*
X138474000Y-69036000D03*
X138474000Y-69536000D03*
X138474000Y-70036000D03*
X138474000Y-70536000D03*
X137974000Y-61036000D03*
X137974000Y-61536000D03*
X137974000Y-62036000D03*
X137974000Y-62536000D03*
X137974000Y-63036000D03*
X137974000Y-63536000D03*
X137974000Y-64036000D03*
X137974000Y-64536000D03*
X137974000Y-65036000D03*
X137974000Y-65536000D03*
X137974000Y-66036000D03*
X137974000Y-66536000D03*
X137974000Y-67036000D03*
X137974000Y-67536000D03*
X137974000Y-68036000D03*
X137974000Y-68536000D03*
X137974000Y-69036000D03*
X137974000Y-69536000D03*
X137974000Y-70036000D03*
X137974000Y-70536000D03*
X137474000Y-61036000D03*
X137474000Y-61536000D03*
X137474000Y-62036000D03*
X137474000Y-62536000D03*
X137474000Y-63036000D03*
X137474000Y-63536000D03*
X137474000Y-64036000D03*
X137474000Y-64536000D03*
X137474000Y-65036000D03*
X137474000Y-65536000D03*
X137474000Y-66036000D03*
X137474000Y-66536000D03*
X137474000Y-67036000D03*
X137474000Y-67536000D03*
X137474000Y-68036000D03*
X137474000Y-68536000D03*
X137474000Y-69036000D03*
X137474000Y-69536000D03*
X137474000Y-70036000D03*
X137474000Y-70536000D03*
X136974000Y-61036000D03*
X136974000Y-61536000D03*
X136974000Y-62036000D03*
X136974000Y-62536000D03*
X136974000Y-63036000D03*
X136974000Y-63536000D03*
X136974000Y-64036000D03*
X136974000Y-64536000D03*
X136974000Y-65036000D03*
X136974000Y-65536000D03*
X136974000Y-66036000D03*
X136974000Y-66536000D03*
X136974000Y-67036000D03*
X136974000Y-67536000D03*
X136974000Y-68036000D03*
X136974000Y-68536000D03*
X136974000Y-69036000D03*
X136974000Y-69536000D03*
X136974000Y-70036000D03*
X136974000Y-70536000D03*
X136474000Y-61036000D03*
X136474000Y-61536000D03*
X136474000Y-62036000D03*
X136474000Y-62536000D03*
X136474000Y-63036000D03*
X136474000Y-63536000D03*
X136474000Y-64036000D03*
X136474000Y-64536000D03*
X136474000Y-65036000D03*
X136474000Y-65536000D03*
X136474000Y-66036000D03*
X136474000Y-66536000D03*
X136474000Y-67036000D03*
X136474000Y-67536000D03*
X136474000Y-68036000D03*
X136474000Y-68536000D03*
X136474000Y-69036000D03*
X136474000Y-69536000D03*
X136474000Y-70036000D03*
X136474000Y-70536000D03*
%TD*%
D12*
%TO.C,BGA-152*%
X172545000Y-98950000D03*
X172545000Y-99950000D03*
X172545000Y-100950000D03*
X172545000Y-101950000D03*
X172545000Y-102950000D03*
X172545000Y-110950000D03*
X172545000Y-111950000D03*
X172545000Y-112950000D03*
X172545000Y-113950000D03*
X172545000Y-114950000D03*
X171545000Y-98950000D03*
X171545000Y-99950000D03*
X171545000Y-100950000D03*
X171545000Y-101950000D03*
X171545000Y-102950000D03*
X171545000Y-110950000D03*
X171545000Y-111950000D03*
X171545000Y-112950000D03*
X171545000Y-113950000D03*
X171545000Y-114950000D03*
X170545000Y-98950000D03*
X170545000Y-99950000D03*
X170545000Y-100950000D03*
X170545000Y-101950000D03*
X170545000Y-102950000D03*
X170545000Y-103950000D03*
X170545000Y-104950000D03*
X170545000Y-105950000D03*
X170545000Y-106950000D03*
X170545000Y-107950000D03*
X170545000Y-108950000D03*
X170545000Y-109950000D03*
X170545000Y-110950000D03*
X170545000Y-111950000D03*
X170545000Y-112950000D03*
X170545000Y-113950000D03*
X170545000Y-114950000D03*
X169545000Y-98950000D03*
X169545000Y-99950000D03*
X169545000Y-100950000D03*
X169545000Y-101950000D03*
X169545000Y-102950000D03*
X169545000Y-103950000D03*
X169545000Y-104950000D03*
X169545000Y-105950000D03*
X169545000Y-106950000D03*
X169545000Y-107950000D03*
X169545000Y-108950000D03*
X169545000Y-109950000D03*
X169545000Y-110950000D03*
X169545000Y-111950000D03*
X169545000Y-112950000D03*
X169545000Y-113950000D03*
X169545000Y-114950000D03*
X168545000Y-101950000D03*
X168545000Y-103950000D03*
X168545000Y-104950000D03*
X168545000Y-105950000D03*
X168545000Y-106950000D03*
X168545000Y-107950000D03*
X168545000Y-108950000D03*
X168545000Y-109950000D03*
X168545000Y-110950000D03*
X167545000Y-102950000D03*
X167545000Y-103950000D03*
X167545000Y-104950000D03*
X167545000Y-105950000D03*
X167545000Y-106950000D03*
X167545000Y-107950000D03*
X167545000Y-108950000D03*
X167545000Y-109950000D03*
X167545000Y-110950000D03*
X165545000Y-101950000D03*
X165545000Y-103950000D03*
X165545000Y-104950000D03*
X165545000Y-105950000D03*
X165545000Y-106950000D03*
X165545000Y-107950000D03*
X165545000Y-108950000D03*
X165545000Y-109950000D03*
X165545000Y-111950000D03*
X164545000Y-102950000D03*
X164545000Y-103950000D03*
X164545000Y-104950000D03*
X164545000Y-105950000D03*
X164545000Y-106950000D03*
X164545000Y-107950000D03*
X164545000Y-108950000D03*
X164545000Y-109950000D03*
X164545000Y-110950000D03*
X163545000Y-98950000D03*
X163545000Y-99950000D03*
X163545000Y-100950000D03*
X163545000Y-101950000D03*
X163545000Y-102950000D03*
X163545000Y-103950000D03*
X163545000Y-104950000D03*
X163545000Y-105950000D03*
X163545000Y-106950000D03*
X163545000Y-107950000D03*
X163545000Y-108950000D03*
X163545000Y-109950000D03*
X163545000Y-110950000D03*
X163545000Y-111950000D03*
X163545000Y-112950000D03*
X163545000Y-113950000D03*
X163545000Y-114950000D03*
X162545000Y-98950000D03*
X162545000Y-99950000D03*
X162545000Y-100950000D03*
X162545000Y-101950000D03*
X162545000Y-102950000D03*
X162545000Y-103950000D03*
X162545000Y-104950000D03*
X162545000Y-105950000D03*
X162545000Y-106950000D03*
X162545000Y-107950000D03*
X162545000Y-108950000D03*
X162545000Y-109950000D03*
X162545000Y-110950000D03*
X162545000Y-111950000D03*
X162545000Y-112950000D03*
X162545000Y-113950000D03*
X162545000Y-114950000D03*
X161545000Y-98950000D03*
X161545000Y-99950000D03*
X161545000Y-100950000D03*
X161545000Y-101950000D03*
X161545000Y-102950000D03*
X161545000Y-110950000D03*
X161545000Y-111950000D03*
X161545000Y-112950000D03*
X161545000Y-113950000D03*
X161545000Y-114950000D03*
X160545000Y-98950000D03*
X160545000Y-99950000D03*
X160545000Y-100950000D03*
X160545000Y-101950000D03*
X160545000Y-102950000D03*
X160545000Y-110950000D03*
X160545000Y-111950000D03*
X160545000Y-112950000D03*
X160545000Y-113950000D03*
X160545000Y-114950000D03*
X164545000Y-111950000D03*
X165545000Y-110950000D03*
X167545000Y-111950000D03*
X168545000Y-111950000D03*
X164545000Y-101950000D03*
X165545000Y-102950000D03*
X167545000Y-101950000D03*
X168545000Y-102950000D03*
%TD*%
%TO.C,BGA-672 P1.0mm*%
X128705000Y-55429000D03*
X128705000Y-56429000D03*
X128705000Y-57429000D03*
X128705000Y-58429000D03*
X128705000Y-59429000D03*
X128705000Y-60429000D03*
X128705000Y-61429000D03*
X128705000Y-62429000D03*
X128705000Y-63429000D03*
X128705000Y-64429000D03*
X128705000Y-65429000D03*
X128705000Y-66429000D03*
X128705000Y-67429000D03*
X128705000Y-68429000D03*
X128705000Y-69429000D03*
X128705000Y-70429000D03*
X128705000Y-71429000D03*
X128705000Y-72429000D03*
X128705000Y-73429000D03*
X128705000Y-74429000D03*
X128705000Y-75429000D03*
X128705000Y-76429000D03*
X128705000Y-77429000D03*
X128705000Y-78429000D03*
X127705000Y-54429000D03*
X127705000Y-55429000D03*
X127705000Y-56429000D03*
X127705000Y-57429000D03*
X127705000Y-58429000D03*
X127705000Y-59429000D03*
X127705000Y-60429000D03*
X127705000Y-61429000D03*
X127705000Y-62429000D03*
X127705000Y-63429000D03*
X127705000Y-64429000D03*
X127705000Y-65429000D03*
X127705000Y-66429000D03*
X127705000Y-67429000D03*
X127705000Y-68429000D03*
X127705000Y-69429000D03*
X127705000Y-70429000D03*
X127705000Y-71429000D03*
X127705000Y-72429000D03*
X127705000Y-73429000D03*
X127705000Y-74429000D03*
X127705000Y-75429000D03*
X127705000Y-76429000D03*
X127705000Y-77429000D03*
X127705000Y-78429000D03*
X127705000Y-79429000D03*
X126705000Y-54429000D03*
X126705000Y-55429000D03*
X126705000Y-56429000D03*
X126705000Y-57429000D03*
X126705000Y-58429000D03*
X126705000Y-59429000D03*
X126705000Y-60429000D03*
X126705000Y-61429000D03*
X126705000Y-62429000D03*
X126705000Y-63429000D03*
X126705000Y-64429000D03*
X126705000Y-65429000D03*
X126705000Y-66429000D03*
X126705000Y-67429000D03*
X126705000Y-68429000D03*
X126705000Y-69429000D03*
X126705000Y-70429000D03*
X126705000Y-71429000D03*
X126705000Y-72429000D03*
X126705000Y-73429000D03*
X126705000Y-74429000D03*
X126705000Y-75429000D03*
X126705000Y-76429000D03*
X126705000Y-77429000D03*
X126705000Y-78429000D03*
X126705000Y-79429000D03*
X125705000Y-54429000D03*
X125705000Y-55429000D03*
X125705000Y-56429000D03*
X125705000Y-57429000D03*
X125705000Y-58429000D03*
X125705000Y-59429000D03*
X125705000Y-60429000D03*
X125705000Y-61429000D03*
X125705000Y-62429000D03*
X125705000Y-63429000D03*
X125705000Y-64429000D03*
X125705000Y-65429000D03*
X125705000Y-66429000D03*
X125705000Y-67429000D03*
X125705000Y-68429000D03*
X125705000Y-69429000D03*
X125705000Y-70429000D03*
X125705000Y-71429000D03*
X125705000Y-72429000D03*
X125705000Y-73429000D03*
X125705000Y-74429000D03*
X125705000Y-75429000D03*
X125705000Y-76429000D03*
X125705000Y-77429000D03*
X125705000Y-78429000D03*
X125705000Y-79429000D03*
X124705000Y-54429000D03*
X124705000Y-55429000D03*
X124705000Y-56429000D03*
X124705000Y-57429000D03*
X124705000Y-58429000D03*
X124705000Y-59429000D03*
X124705000Y-60429000D03*
X124705000Y-61429000D03*
X124705000Y-62429000D03*
X124705000Y-63429000D03*
X124705000Y-64429000D03*
X124705000Y-65429000D03*
X124705000Y-66429000D03*
X124705000Y-67429000D03*
X124705000Y-68429000D03*
X124705000Y-69429000D03*
X124705000Y-70429000D03*
X124705000Y-71429000D03*
X124705000Y-72429000D03*
X124705000Y-73429000D03*
X124705000Y-74429000D03*
X124705000Y-75429000D03*
X124705000Y-76429000D03*
X124705000Y-77429000D03*
X124705000Y-78429000D03*
X124705000Y-79429000D03*
X123705000Y-54429000D03*
X123705000Y-55429000D03*
X123705000Y-56429000D03*
X123705000Y-57429000D03*
X123705000Y-58429000D03*
X123705000Y-59429000D03*
X123705000Y-60429000D03*
X123705000Y-61429000D03*
X123705000Y-62429000D03*
X123705000Y-63429000D03*
X123705000Y-64429000D03*
X123705000Y-65429000D03*
X123705000Y-66429000D03*
X123705000Y-67429000D03*
X123705000Y-68429000D03*
X123705000Y-69429000D03*
X123705000Y-70429000D03*
X123705000Y-71429000D03*
X123705000Y-72429000D03*
X123705000Y-73429000D03*
X123705000Y-74429000D03*
X123705000Y-75429000D03*
X123705000Y-76429000D03*
X123705000Y-77429000D03*
X123705000Y-78429000D03*
X123705000Y-79429000D03*
X122705000Y-54429000D03*
X122705000Y-55429000D03*
X122705000Y-56429000D03*
X122705000Y-57429000D03*
X122705000Y-58429000D03*
X122705000Y-59429000D03*
X122705000Y-60429000D03*
X122705000Y-61429000D03*
X122705000Y-62429000D03*
X122705000Y-63429000D03*
X122705000Y-64429000D03*
X122705000Y-65429000D03*
X122705000Y-66429000D03*
X122705000Y-67429000D03*
X122705000Y-68429000D03*
X122705000Y-69429000D03*
X122705000Y-70429000D03*
X122705000Y-71429000D03*
X122705000Y-72429000D03*
X122705000Y-73429000D03*
X122705000Y-74429000D03*
X122705000Y-75429000D03*
X122705000Y-76429000D03*
X122705000Y-77429000D03*
X122705000Y-78429000D03*
X122705000Y-79429000D03*
X121705000Y-54429000D03*
X121705000Y-55429000D03*
X121705000Y-56429000D03*
X121705000Y-57429000D03*
X121705000Y-58429000D03*
X121705000Y-59429000D03*
X121705000Y-60429000D03*
X121705000Y-61429000D03*
X121705000Y-62429000D03*
X121705000Y-63429000D03*
X121705000Y-64429000D03*
X121705000Y-65429000D03*
X121705000Y-66429000D03*
X121705000Y-67429000D03*
X121705000Y-68429000D03*
X121705000Y-69429000D03*
X121705000Y-70429000D03*
X121705000Y-71429000D03*
X121705000Y-72429000D03*
X121705000Y-73429000D03*
X121705000Y-74429000D03*
X121705000Y-75429000D03*
X121705000Y-76429000D03*
X121705000Y-77429000D03*
X121705000Y-78429000D03*
X121705000Y-79429000D03*
X120705000Y-54429000D03*
X120705000Y-55429000D03*
X120705000Y-56429000D03*
X120705000Y-57429000D03*
X120705000Y-58429000D03*
X120705000Y-59429000D03*
X120705000Y-60429000D03*
X120705000Y-61429000D03*
X120705000Y-62429000D03*
X120705000Y-63429000D03*
X120705000Y-64429000D03*
X120705000Y-65429000D03*
X120705000Y-66429000D03*
X120705000Y-67429000D03*
X120705000Y-68429000D03*
X120705000Y-69429000D03*
X120705000Y-70429000D03*
X120705000Y-71429000D03*
X120705000Y-72429000D03*
X120705000Y-73429000D03*
X120705000Y-74429000D03*
X120705000Y-75429000D03*
X120705000Y-76429000D03*
X120705000Y-77429000D03*
X120705000Y-78429000D03*
X120705000Y-79429000D03*
X119705000Y-54429000D03*
X119705000Y-55429000D03*
X119705000Y-56429000D03*
X119705000Y-57429000D03*
X119705000Y-58429000D03*
X119705000Y-59429000D03*
X119705000Y-60429000D03*
X119705000Y-61429000D03*
X119705000Y-62429000D03*
X119705000Y-63429000D03*
X119705000Y-64429000D03*
X119705000Y-65429000D03*
X119705000Y-66429000D03*
X119705000Y-67429000D03*
X119705000Y-68429000D03*
X119705000Y-69429000D03*
X119705000Y-70429000D03*
X119705000Y-71429000D03*
X119705000Y-72429000D03*
X119705000Y-73429000D03*
X119705000Y-74429000D03*
X119705000Y-75429000D03*
X119705000Y-76429000D03*
X119705000Y-77429000D03*
X119705000Y-78429000D03*
X119705000Y-79429000D03*
X118705000Y-54429000D03*
X118705000Y-55429000D03*
X118705000Y-56429000D03*
X118705000Y-57429000D03*
X118705000Y-58429000D03*
X118705000Y-59429000D03*
X118705000Y-60429000D03*
X118705000Y-61429000D03*
X118705000Y-62429000D03*
X118705000Y-63429000D03*
X118705000Y-64429000D03*
X118705000Y-65429000D03*
X118705000Y-66429000D03*
X118705000Y-67429000D03*
X118705000Y-68429000D03*
X118705000Y-69429000D03*
X118705000Y-70429000D03*
X118705000Y-71429000D03*
X118705000Y-72429000D03*
X118705000Y-73429000D03*
X118705000Y-74429000D03*
X118705000Y-75429000D03*
X118705000Y-76429000D03*
X118705000Y-77429000D03*
X118705000Y-78429000D03*
X118705000Y-79429000D03*
X117705000Y-54429000D03*
X117705000Y-55429000D03*
X117705000Y-56429000D03*
X117705000Y-57429000D03*
X117705000Y-58429000D03*
X117705000Y-59429000D03*
X117705000Y-60429000D03*
X117705000Y-61429000D03*
X117705000Y-62429000D03*
X117705000Y-63429000D03*
X117705000Y-64429000D03*
X117705000Y-65429000D03*
X117705000Y-66429000D03*
X117705000Y-67429000D03*
X117705000Y-68429000D03*
X117705000Y-69429000D03*
X117705000Y-70429000D03*
X117705000Y-71429000D03*
X117705000Y-72429000D03*
X117705000Y-73429000D03*
X117705000Y-74429000D03*
X117705000Y-75429000D03*
X117705000Y-76429000D03*
X117705000Y-77429000D03*
X117705000Y-78429000D03*
X117705000Y-79429000D03*
X116705000Y-54429000D03*
X116705000Y-55429000D03*
X116705000Y-56429000D03*
X116705000Y-57429000D03*
X116705000Y-58429000D03*
X116705000Y-59429000D03*
X116705000Y-60429000D03*
X116705000Y-61429000D03*
X116705000Y-62429000D03*
X116705000Y-63429000D03*
X116705000Y-64429000D03*
X116705000Y-65429000D03*
X116705000Y-66429000D03*
X116705000Y-67429000D03*
X116705000Y-68429000D03*
X116705000Y-69429000D03*
X116705000Y-70429000D03*
X116705000Y-71429000D03*
X116705000Y-72429000D03*
X116705000Y-73429000D03*
X116705000Y-74429000D03*
X116705000Y-75429000D03*
X116705000Y-76429000D03*
X116705000Y-77429000D03*
X116705000Y-78429000D03*
X116705000Y-79429000D03*
X115705000Y-54429000D03*
X115705000Y-55429000D03*
X115705000Y-56429000D03*
X115705000Y-57429000D03*
X115705000Y-58429000D03*
X115705000Y-59429000D03*
X115705000Y-60429000D03*
X115705000Y-61429000D03*
X115705000Y-62429000D03*
X115705000Y-63429000D03*
X115705000Y-64429000D03*
X115705000Y-65429000D03*
X115705000Y-66429000D03*
X115705000Y-67429000D03*
X115705000Y-68429000D03*
X115705000Y-69429000D03*
X115705000Y-70429000D03*
X115705000Y-71429000D03*
X115705000Y-72429000D03*
X115705000Y-73429000D03*
X115705000Y-74429000D03*
X115705000Y-75429000D03*
X115705000Y-76429000D03*
X115705000Y-77429000D03*
X115705000Y-78429000D03*
X115705000Y-79429000D03*
X114705000Y-54429000D03*
X114705000Y-55429000D03*
X114705000Y-56429000D03*
X114705000Y-57429000D03*
X114705000Y-58429000D03*
X114705000Y-59429000D03*
X114705000Y-60429000D03*
X114705000Y-61429000D03*
X114705000Y-62429000D03*
X114705000Y-63429000D03*
X114705000Y-64429000D03*
X114705000Y-65429000D03*
X114705000Y-66429000D03*
X114705000Y-67429000D03*
X114705000Y-68429000D03*
X114705000Y-69429000D03*
X114705000Y-70429000D03*
X114705000Y-71429000D03*
X114705000Y-72429000D03*
X114705000Y-73429000D03*
X114705000Y-74429000D03*
X114705000Y-75429000D03*
X114705000Y-76429000D03*
X114705000Y-77429000D03*
X114705000Y-78429000D03*
X114705000Y-79429000D03*
X113705000Y-54429000D03*
X113705000Y-55429000D03*
X113705000Y-56429000D03*
X113705000Y-57429000D03*
X113705000Y-58429000D03*
X113705000Y-59429000D03*
X113705000Y-60429000D03*
X113705000Y-61429000D03*
X113705000Y-62429000D03*
X113705000Y-63429000D03*
X113705000Y-64429000D03*
X113705000Y-65429000D03*
X113705000Y-66429000D03*
X113705000Y-67429000D03*
X113705000Y-68429000D03*
X113705000Y-69429000D03*
X113705000Y-70429000D03*
X113705000Y-71429000D03*
X113705000Y-72429000D03*
X113705000Y-73429000D03*
X113705000Y-74429000D03*
X113705000Y-75429000D03*
X113705000Y-76429000D03*
X113705000Y-77429000D03*
X113705000Y-78429000D03*
X113705000Y-79429000D03*
X112705000Y-54429000D03*
X112705000Y-55429000D03*
X112705000Y-56429000D03*
X112705000Y-57429000D03*
X112705000Y-58429000D03*
X112705000Y-59429000D03*
X112705000Y-60429000D03*
X112705000Y-61429000D03*
X112705000Y-62429000D03*
X112705000Y-63429000D03*
X112705000Y-64429000D03*
X112705000Y-65429000D03*
X112705000Y-66429000D03*
X112705000Y-67429000D03*
X112705000Y-68429000D03*
X112705000Y-69429000D03*
X112705000Y-70429000D03*
X112705000Y-71429000D03*
X112705000Y-72429000D03*
X112705000Y-73429000D03*
X112705000Y-74429000D03*
X112705000Y-75429000D03*
X112705000Y-76429000D03*
X112705000Y-77429000D03*
X112705000Y-78429000D03*
X112705000Y-79429000D03*
X111705000Y-54429000D03*
X111705000Y-55429000D03*
X111705000Y-56429000D03*
X111705000Y-57429000D03*
X111705000Y-58429000D03*
X111705000Y-59429000D03*
X111705000Y-60429000D03*
X111705000Y-61429000D03*
X111705000Y-62429000D03*
X111705000Y-63429000D03*
X111705000Y-64429000D03*
X111705000Y-65429000D03*
X111705000Y-66429000D03*
X111705000Y-67429000D03*
X111705000Y-68429000D03*
X111705000Y-69429000D03*
X111705000Y-70429000D03*
X111705000Y-71429000D03*
X111705000Y-72429000D03*
X111705000Y-73429000D03*
X111705000Y-74429000D03*
X111705000Y-75429000D03*
X111705000Y-76429000D03*
X111705000Y-77429000D03*
X111705000Y-78429000D03*
X111705000Y-79429000D03*
X110705000Y-54429000D03*
X110705000Y-55429000D03*
X110705000Y-56429000D03*
X110705000Y-57429000D03*
X110705000Y-58429000D03*
X110705000Y-59429000D03*
X110705000Y-60429000D03*
X110705000Y-61429000D03*
X110705000Y-62429000D03*
X110705000Y-63429000D03*
X110705000Y-64429000D03*
X110705000Y-65429000D03*
X110705000Y-66429000D03*
X110705000Y-67429000D03*
X110705000Y-68429000D03*
X110705000Y-69429000D03*
X110705000Y-70429000D03*
X110705000Y-71429000D03*
X110705000Y-72429000D03*
X110705000Y-73429000D03*
X110705000Y-74429000D03*
X110705000Y-75429000D03*
X110705000Y-76429000D03*
X110705000Y-77429000D03*
X110705000Y-78429000D03*
X110705000Y-79429000D03*
X109705000Y-54429000D03*
X109705000Y-55429000D03*
X109705000Y-56429000D03*
X109705000Y-57429000D03*
X109705000Y-58429000D03*
X109705000Y-59429000D03*
X109705000Y-60429000D03*
X109705000Y-61429000D03*
X109705000Y-62429000D03*
X109705000Y-63429000D03*
X109705000Y-64429000D03*
X109705000Y-65429000D03*
X109705000Y-66429000D03*
X109705000Y-67429000D03*
X109705000Y-68429000D03*
X109705000Y-69429000D03*
X109705000Y-70429000D03*
X109705000Y-71429000D03*
X109705000Y-72429000D03*
X109705000Y-73429000D03*
X109705000Y-74429000D03*
X109705000Y-75429000D03*
X109705000Y-76429000D03*
X109705000Y-77429000D03*
X109705000Y-78429000D03*
X109705000Y-79429000D03*
X108705000Y-54429000D03*
X108705000Y-55429000D03*
X108705000Y-56429000D03*
X108705000Y-57429000D03*
X108705000Y-58429000D03*
X108705000Y-59429000D03*
X108705000Y-60429000D03*
X108705000Y-61429000D03*
X108705000Y-62429000D03*
X108705000Y-63429000D03*
X108705000Y-64429000D03*
X108705000Y-65429000D03*
X108705000Y-66429000D03*
X108705000Y-67429000D03*
X108705000Y-68429000D03*
X108705000Y-69429000D03*
X108705000Y-70429000D03*
X108705000Y-71429000D03*
X108705000Y-72429000D03*
X108705000Y-73429000D03*
X108705000Y-74429000D03*
X108705000Y-75429000D03*
X108705000Y-76429000D03*
X108705000Y-77429000D03*
X108705000Y-78429000D03*
X108705000Y-79429000D03*
X107705000Y-54429000D03*
X107705000Y-55429000D03*
X107705000Y-56429000D03*
X107705000Y-57429000D03*
X107705000Y-58429000D03*
X107705000Y-59429000D03*
X107705000Y-60429000D03*
X107705000Y-61429000D03*
X107705000Y-62429000D03*
X107705000Y-63429000D03*
X107705000Y-64429000D03*
X107705000Y-65429000D03*
X107705000Y-66429000D03*
X107705000Y-67429000D03*
X107705000Y-68429000D03*
X107705000Y-69429000D03*
X107705000Y-70429000D03*
X107705000Y-71429000D03*
X107705000Y-72429000D03*
X107705000Y-73429000D03*
X107705000Y-74429000D03*
X107705000Y-75429000D03*
X107705000Y-76429000D03*
X107705000Y-77429000D03*
X107705000Y-78429000D03*
X107705000Y-79429000D03*
X106705000Y-54429000D03*
X106705000Y-55429000D03*
X106705000Y-56429000D03*
X106705000Y-57429000D03*
X106705000Y-58429000D03*
X106705000Y-59429000D03*
X106705000Y-60429000D03*
X106705000Y-61429000D03*
X106705000Y-62429000D03*
X106705000Y-63429000D03*
X106705000Y-64429000D03*
X106705000Y-65429000D03*
X106705000Y-66429000D03*
X106705000Y-67429000D03*
X106705000Y-68429000D03*
X106705000Y-69429000D03*
X106705000Y-70429000D03*
X106705000Y-71429000D03*
X106705000Y-72429000D03*
X106705000Y-73429000D03*
X106705000Y-74429000D03*
X106705000Y-75429000D03*
X106705000Y-76429000D03*
X106705000Y-77429000D03*
X106705000Y-78429000D03*
X106705000Y-79429000D03*
X105705000Y-54429000D03*
X105705000Y-55429000D03*
X105705000Y-56429000D03*
X105705000Y-57429000D03*
X105705000Y-58429000D03*
X105705000Y-59429000D03*
X105705000Y-60429000D03*
X105705000Y-61429000D03*
X105705000Y-62429000D03*
X105705000Y-63429000D03*
X105705000Y-64429000D03*
X105705000Y-65429000D03*
X105705000Y-66429000D03*
X105705000Y-67429000D03*
X105705000Y-68429000D03*
X105705000Y-69429000D03*
X105705000Y-70429000D03*
X105705000Y-71429000D03*
X105705000Y-72429000D03*
X105705000Y-73429000D03*
X105705000Y-74429000D03*
X105705000Y-75429000D03*
X105705000Y-76429000D03*
X105705000Y-77429000D03*
X105705000Y-78429000D03*
X105705000Y-79429000D03*
X104705000Y-54429000D03*
X104705000Y-55429000D03*
X104705000Y-56429000D03*
X104705000Y-57429000D03*
X104705000Y-58429000D03*
X104705000Y-59429000D03*
X104705000Y-60429000D03*
X104705000Y-61429000D03*
X104705000Y-62429000D03*
X104705000Y-63429000D03*
X104705000Y-64429000D03*
X104705000Y-65429000D03*
X104705000Y-66429000D03*
X104705000Y-67429000D03*
X104705000Y-68429000D03*
X104705000Y-69429000D03*
X104705000Y-70429000D03*
X104705000Y-71429000D03*
X104705000Y-72429000D03*
X104705000Y-73429000D03*
X104705000Y-74429000D03*
X104705000Y-75429000D03*
X104705000Y-76429000D03*
X104705000Y-77429000D03*
X104705000Y-78429000D03*
X104705000Y-79429000D03*
X103705000Y-55429000D03*
X103705000Y-56429000D03*
X103705000Y-57429000D03*
X103705000Y-58429000D03*
X103705000Y-59429000D03*
X103705000Y-60429000D03*
X103705000Y-61429000D03*
X103705000Y-62429000D03*
X103705000Y-63429000D03*
X103705000Y-64429000D03*
X103705000Y-65429000D03*
X103705000Y-66429000D03*
X103705000Y-67429000D03*
X103705000Y-68429000D03*
X103705000Y-69429000D03*
X103705000Y-70429000D03*
X103705000Y-71429000D03*
X103705000Y-72429000D03*
X103705000Y-73429000D03*
X103705000Y-74429000D03*
X103705000Y-75429000D03*
X103705000Y-76429000D03*
X103705000Y-77429000D03*
X103705000Y-78429000D03*
%TD*%
D13*
%TO.C,FBGA-78*%
X110846000Y-112382000D03*
X110846000Y-113182000D03*
X115646000Y-105182000D03*
X114846000Y-105182000D03*
X114046000Y-105182000D03*
X110846000Y-105182000D03*
X110046000Y-105182000D03*
X109246000Y-105182000D03*
X115646000Y-105982000D03*
X114846000Y-105982000D03*
X114046000Y-105982000D03*
X110846000Y-105982000D03*
X110046000Y-105982000D03*
X109246000Y-105982000D03*
X115646000Y-106782000D03*
X114846000Y-106782000D03*
X114046000Y-106782000D03*
X110846000Y-106782000D03*
X110046000Y-106782000D03*
X109246000Y-106782000D03*
X115646000Y-107582000D03*
X114846000Y-107582000D03*
X114046000Y-107582000D03*
X110846000Y-107582000D03*
X110046000Y-107582000D03*
X109246000Y-107582000D03*
X115646000Y-108382000D03*
X114846000Y-108382000D03*
X114046000Y-108382000D03*
X110846000Y-108382000D03*
X110046000Y-108382000D03*
X109246000Y-108382000D03*
X115646000Y-109182000D03*
X114846000Y-109182000D03*
X114046000Y-109182000D03*
X110846000Y-109182000D03*
X110046000Y-109182000D03*
X109246000Y-109182000D03*
X115646000Y-109982000D03*
X114846000Y-109982000D03*
X114046000Y-109982000D03*
X110846000Y-109982000D03*
X110046000Y-109982000D03*
X109246000Y-109982000D03*
X115646000Y-110782000D03*
X114846000Y-110782000D03*
X114046000Y-110782000D03*
X110846000Y-110782000D03*
X110046000Y-110782000D03*
X109246000Y-110782000D03*
X115646000Y-111582000D03*
X114846000Y-111582000D03*
X114046000Y-111582000D03*
X110846000Y-111582000D03*
X110046000Y-111582000D03*
X109246000Y-111582000D03*
X115646000Y-112382000D03*
X114846000Y-112382000D03*
X114046000Y-112382000D03*
X110046000Y-112382000D03*
X109246000Y-112382000D03*
X115646000Y-113182000D03*
X114846000Y-113182000D03*
X114046000Y-113182000D03*
X110046000Y-113182000D03*
X109246000Y-113182000D03*
X115646000Y-113982000D03*
X114846000Y-113982000D03*
X114046000Y-113982000D03*
X110846000Y-113982000D03*
X110046000Y-113982000D03*
X109246000Y-113982000D03*
X115646000Y-114782000D03*
X114846000Y-114782000D03*
X114046000Y-114782000D03*
X110846000Y-114782000D03*
X110046000Y-114782000D03*
X109246000Y-114782000D03*
%TD*%
M02*
