%TF.GenerationSoftware,KiCad,Pcbnew,(5.1.10)-1*%
%TF.CreationDate,2022-01-31T16:37:24-08:00*%
%TF.ProjectId,TMPCB_Footprint-Side,544d5043-425f-4466-9f6f-747072696e74,rev?*%
%TF.SameCoordinates,Original*%
%TF.FileFunction,Soldermask,Top*%
%TF.FilePolarity,Negative*%
%FSLAX46Y46*%
G04 Gerber Fmt 4.6, Leading zero omitted, Abs format (unit mm)*
G04 Created by KiCad (PCBNEW (5.1.10)-1) date 2022-01-31 16:37:24*
%MOMM*%
%LPD*%
G01*
G04 APERTURE LIST*
%ADD10C,0.200000*%
%ADD11C,0.150000*%
%ADD12C,0.500000*%
%ADD13C,0.250000*%
%ADD14C,0.400000*%
%ADD15C,0.760000*%
%ADD16C,0.300000*%
%ADD17C,0.600000*%
%ADD18C,1.000000*%
%ADD19C,0.700000*%
%ADD20C,0.450000*%
%ADD21C,0.800000*%
%ADD22C,0.350000*%
%ADD23C,0.010000*%
%ADD24R,2.200000X1.600000*%
%ADD25R,0.800000X1.200000*%
%ADD26R,0.600000X0.450000*%
%ADD27C,0.900000*%
%ADD28C,8.600000*%
%ADD29C,0.800000*%
%ADD30C,6.400000*%
%ADD31C,5.000000*%
%ADD32C,2.900000*%
%ADD33C,4.400000*%
%ADD34R,3.100000X3.100000*%
%ADD35R,5.600000X5.600000*%
%ADD36R,5.150000X3.150000*%
%ADD37R,4.100000X4.100000*%
%ADD38R,3.300000X3.300000*%
%ADD39R,4.800000X4.800000*%
%ADD40R,3.400000X3.400000*%
%ADD41R,2.000000X2.000000*%
%ADD42R,2.450000X2.450000*%
%ADD43R,1.650000X1.650000*%
%ADD44C,0.300000*%
%ADD45R,1.400000X1.200000*%
%ADD46R,1.600000X1.300000*%
%ADD47R,1.150000X1.000000*%
%ADD48R,2.500000X3.300000*%
%ADD49R,2.500000X2.300000*%
%ADD50R,2.500000X1.800000*%
%ADD51R,1.300000X1.700000*%
%ADD52R,1.400000X2.100000*%
%ADD53R,4.500000X2.000000*%
%ADD54R,9.400000X10.800000*%
%ADD55R,4.600000X1.100000*%
%ADD56R,6.400000X5.800000*%
%ADD57R,2.200000X1.200000*%
%ADD58R,2.000000X1.500000*%
%ADD59R,2.000000X3.800000*%
%ADD60R,1.060000X0.650000*%
%ADD61R,0.900000X0.800000*%
G04 APERTURE END LIST*
D10*
X100397000Y-92522000D02*
X107397000Y-92522000D01*
D11*
X100397000Y-91022000D02*
X107397000Y-91022000D01*
D12*
X107397000Y-101522000D02*
X100397000Y-101522000D01*
D13*
X107397000Y-94022000D02*
X100397000Y-94022000D01*
D10*
X100397000Y-94022000D02*
X100397000Y-94022000D01*
D14*
X107397000Y-98522000D02*
X100397000Y-98522000D01*
D15*
X107397000Y-106022000D02*
X100397000Y-106022000D01*
D16*
X107397000Y-95522000D02*
X100397000Y-95522000D01*
D10*
X100397000Y-92522000D02*
X100397000Y-92522000D01*
D17*
X107397000Y-103022000D02*
X100397000Y-103022000D01*
D18*
X107197000Y-109022000D02*
X100397000Y-109022000D01*
D19*
X107397000Y-104522000D02*
X100397000Y-104522000D01*
D20*
X107397000Y-100022000D02*
X100397000Y-100022000D01*
D21*
X107297000Y-107522000D02*
X100397000Y-107522000D01*
D10*
X100397000Y-95522000D02*
X100397000Y-95522000D01*
D22*
X107397000Y-97022000D02*
X100397000Y-97022000D01*
D23*
%TO.C,Outline*%
G36*
X166007756Y-47128624D02*
G01*
X166513409Y-47129027D01*
X167060361Y-47129673D01*
X167248416Y-47129937D01*
X171481750Y-47136089D01*
X171645625Y-47182786D01*
X171900867Y-47267496D01*
X172125211Y-47369136D01*
X172328515Y-47493180D01*
X172520636Y-47645103D01*
X172586529Y-47705373D01*
X172791820Y-47927033D01*
X172961619Y-48168884D01*
X173094726Y-48427738D01*
X173189938Y-48700410D01*
X173246054Y-48983712D01*
X173261873Y-49274459D01*
X173250085Y-49464919D01*
X173218573Y-49681734D01*
X173171088Y-49875397D01*
X173102527Y-50063671D01*
X173037112Y-50206138D01*
X172887419Y-50463255D01*
X172705567Y-50693592D01*
X172493358Y-50895645D01*
X172252591Y-51067911D01*
X171985067Y-51208888D01*
X171714583Y-51310366D01*
X171524083Y-51369383D01*
X167195500Y-51372375D01*
X166767705Y-51372580D01*
X166350556Y-51372605D01*
X165946090Y-51372455D01*
X165556345Y-51372138D01*
X165183360Y-51371661D01*
X164829173Y-51371031D01*
X164495821Y-51370255D01*
X164185343Y-51369340D01*
X163899776Y-51368294D01*
X163641160Y-51367123D01*
X163411532Y-51365835D01*
X163212929Y-51364437D01*
X163047391Y-51362935D01*
X162916955Y-51361338D01*
X162823659Y-51359651D01*
X162769542Y-51357883D01*
X162757238Y-51356882D01*
X162518234Y-51298860D01*
X162275180Y-51206923D01*
X162039831Y-51086426D01*
X161823943Y-50942725D01*
X161789598Y-50916035D01*
X161578276Y-50721623D01*
X161398290Y-50501916D01*
X161250620Y-50261127D01*
X161136247Y-50003469D01*
X161056152Y-49733156D01*
X161011316Y-49454401D01*
X161003978Y-49212824D01*
X162292574Y-49212824D01*
X162302076Y-49387024D01*
X162345785Y-49553996D01*
X162421588Y-49708255D01*
X162527374Y-49844316D01*
X162661032Y-49956692D01*
X162820448Y-50039899D01*
X162839868Y-50047181D01*
X162853956Y-50051933D01*
X162869950Y-50056293D01*
X162889628Y-50060275D01*
X162914770Y-50063895D01*
X162947152Y-50067167D01*
X162988554Y-50070105D01*
X163040754Y-50072725D01*
X163105531Y-50075040D01*
X163184661Y-50077066D01*
X163279925Y-50078817D01*
X163393100Y-50080308D01*
X163525964Y-50081554D01*
X163680297Y-50082568D01*
X163857875Y-50083367D01*
X164060479Y-50083965D01*
X164289885Y-50084375D01*
X164547873Y-50084614D01*
X164836220Y-50084695D01*
X165156705Y-50084634D01*
X165511107Y-50084444D01*
X165901203Y-50084141D01*
X166328772Y-50083739D01*
X166795593Y-50083254D01*
X167163750Y-50082853D01*
X171375916Y-50078216D01*
X171498429Y-50016179D01*
X171653411Y-49915750D01*
X171781199Y-49788078D01*
X171878793Y-49639013D01*
X171943194Y-49474406D01*
X171971404Y-49300107D01*
X171960424Y-49121966D01*
X171959485Y-49116774D01*
X171908674Y-48946027D01*
X171824474Y-48788382D01*
X171712564Y-48651048D01*
X171578621Y-48541236D01*
X171455220Y-48476336D01*
X171333583Y-48427216D01*
X162930416Y-48427216D01*
X162807976Y-48476636D01*
X162690499Y-48540305D01*
X162573264Y-48631901D01*
X162469374Y-48739412D01*
X162391933Y-48850827D01*
X162384636Y-48864685D01*
X162319390Y-49036883D01*
X162292574Y-49212824D01*
X161003978Y-49212824D01*
X161002720Y-49171418D01*
X161031346Y-48888420D01*
X161098174Y-48609620D01*
X161194442Y-48360014D01*
X161335526Y-48103717D01*
X161509301Y-47871215D01*
X161712010Y-47665283D01*
X161939897Y-47488690D01*
X162189208Y-47344211D01*
X162456185Y-47234617D01*
X162737072Y-47162679D01*
X162838034Y-47146903D01*
X162877687Y-47143869D01*
X162948513Y-47141117D01*
X163051290Y-47138644D01*
X163186798Y-47136448D01*
X163355815Y-47134525D01*
X163559119Y-47132873D01*
X163797492Y-47131488D01*
X164071710Y-47130367D01*
X164382553Y-47129508D01*
X164730800Y-47128907D01*
X165117231Y-47128561D01*
X165542623Y-47128468D01*
X166007756Y-47128624D01*
G37*
X166007756Y-47128624D02*
X166513409Y-47129027D01*
X167060361Y-47129673D01*
X167248416Y-47129937D01*
X171481750Y-47136089D01*
X171645625Y-47182786D01*
X171900867Y-47267496D01*
X172125211Y-47369136D01*
X172328515Y-47493180D01*
X172520636Y-47645103D01*
X172586529Y-47705373D01*
X172791820Y-47927033D01*
X172961619Y-48168884D01*
X173094726Y-48427738D01*
X173189938Y-48700410D01*
X173246054Y-48983712D01*
X173261873Y-49274459D01*
X173250085Y-49464919D01*
X173218573Y-49681734D01*
X173171088Y-49875397D01*
X173102527Y-50063671D01*
X173037112Y-50206138D01*
X172887419Y-50463255D01*
X172705567Y-50693592D01*
X172493358Y-50895645D01*
X172252591Y-51067911D01*
X171985067Y-51208888D01*
X171714583Y-51310366D01*
X171524083Y-51369383D01*
X167195500Y-51372375D01*
X166767705Y-51372580D01*
X166350556Y-51372605D01*
X165946090Y-51372455D01*
X165556345Y-51372138D01*
X165183360Y-51371661D01*
X164829173Y-51371031D01*
X164495821Y-51370255D01*
X164185343Y-51369340D01*
X163899776Y-51368294D01*
X163641160Y-51367123D01*
X163411532Y-51365835D01*
X163212929Y-51364437D01*
X163047391Y-51362935D01*
X162916955Y-51361338D01*
X162823659Y-51359651D01*
X162769542Y-51357883D01*
X162757238Y-51356882D01*
X162518234Y-51298860D01*
X162275180Y-51206923D01*
X162039831Y-51086426D01*
X161823943Y-50942725D01*
X161789598Y-50916035D01*
X161578276Y-50721623D01*
X161398290Y-50501916D01*
X161250620Y-50261127D01*
X161136247Y-50003469D01*
X161056152Y-49733156D01*
X161011316Y-49454401D01*
X161003978Y-49212824D01*
X162292574Y-49212824D01*
X162302076Y-49387024D01*
X162345785Y-49553996D01*
X162421588Y-49708255D01*
X162527374Y-49844316D01*
X162661032Y-49956692D01*
X162820448Y-50039899D01*
X162839868Y-50047181D01*
X162853956Y-50051933D01*
X162869950Y-50056293D01*
X162889628Y-50060275D01*
X162914770Y-50063895D01*
X162947152Y-50067167D01*
X162988554Y-50070105D01*
X163040754Y-50072725D01*
X163105531Y-50075040D01*
X163184661Y-50077066D01*
X163279925Y-50078817D01*
X163393100Y-50080308D01*
X163525964Y-50081554D01*
X163680297Y-50082568D01*
X163857875Y-50083367D01*
X164060479Y-50083965D01*
X164289885Y-50084375D01*
X164547873Y-50084614D01*
X164836220Y-50084695D01*
X165156705Y-50084634D01*
X165511107Y-50084444D01*
X165901203Y-50084141D01*
X166328772Y-50083739D01*
X166795593Y-50083254D01*
X167163750Y-50082853D01*
X171375916Y-50078216D01*
X171498429Y-50016179D01*
X171653411Y-49915750D01*
X171781199Y-49788078D01*
X171878793Y-49639013D01*
X171943194Y-49474406D01*
X171971404Y-49300107D01*
X171960424Y-49121966D01*
X171959485Y-49116774D01*
X171908674Y-48946027D01*
X171824474Y-48788382D01*
X171712564Y-48651048D01*
X171578621Y-48541236D01*
X171455220Y-48476336D01*
X171333583Y-48427216D01*
X162930416Y-48427216D01*
X162807976Y-48476636D01*
X162690499Y-48540305D01*
X162573264Y-48631901D01*
X162469374Y-48739412D01*
X162391933Y-48850827D01*
X162384636Y-48864685D01*
X162319390Y-49036883D01*
X162292574Y-49212824D01*
X161003978Y-49212824D01*
X161002720Y-49171418D01*
X161031346Y-48888420D01*
X161098174Y-48609620D01*
X161194442Y-48360014D01*
X161335526Y-48103717D01*
X161509301Y-47871215D01*
X161712010Y-47665283D01*
X161939897Y-47488690D01*
X162189208Y-47344211D01*
X162456185Y-47234617D01*
X162737072Y-47162679D01*
X162838034Y-47146903D01*
X162877687Y-47143869D01*
X162948513Y-47141117D01*
X163051290Y-47138644D01*
X163186798Y-47136448D01*
X163355815Y-47134525D01*
X163559119Y-47132873D01*
X163797492Y-47131488D01*
X164071710Y-47130367D01*
X164382553Y-47129508D01*
X164730800Y-47128907D01*
X165117231Y-47128561D01*
X165542623Y-47128468D01*
X166007756Y-47128624D01*
G36*
X140098970Y-47124471D02*
G01*
X140470473Y-47124754D01*
X140836340Y-47125208D01*
X141194045Y-47125832D01*
X141541064Y-47126626D01*
X141874871Y-47127591D01*
X142192943Y-47128726D01*
X142492755Y-47130032D01*
X142771781Y-47131509D01*
X143027497Y-47133156D01*
X143257379Y-47134974D01*
X143458901Y-47136963D01*
X143629539Y-47139123D01*
X143766768Y-47141453D01*
X143868063Y-47143955D01*
X143930900Y-47146628D01*
X143947676Y-47148105D01*
X144179780Y-47196489D01*
X144418001Y-47276407D01*
X144648485Y-47382067D01*
X144857380Y-47507675D01*
X144924637Y-47556667D01*
X145017472Y-47635019D01*
X145121036Y-47733491D01*
X145224362Y-47840687D01*
X145316481Y-47945213D01*
X145386426Y-48035673D01*
X145388313Y-48038408D01*
X145534499Y-48287572D01*
X145643912Y-48552378D01*
X145716708Y-48828284D01*
X145753043Y-49110747D01*
X145753073Y-49395225D01*
X145716952Y-49677174D01*
X145644836Y-49952054D01*
X145536882Y-50215321D01*
X145393245Y-50462432D01*
X145300973Y-50587462D01*
X145111724Y-50796807D01*
X144903585Y-50973474D01*
X144671649Y-51120732D01*
X144411006Y-51241850D01*
X144214513Y-51311058D01*
X144028583Y-51369383D01*
X139700000Y-51371966D01*
X139274358Y-51372179D01*
X138859645Y-51372306D01*
X138457874Y-51372349D01*
X138071059Y-51372311D01*
X137701214Y-51372195D01*
X137350354Y-51372004D01*
X137020493Y-51371740D01*
X136713644Y-51371406D01*
X136431821Y-51371005D01*
X136177040Y-51370540D01*
X135951313Y-51370012D01*
X135756654Y-51369426D01*
X135595079Y-51368783D01*
X135468601Y-51368087D01*
X135379233Y-51367340D01*
X135328991Y-51366544D01*
X135318500Y-51366051D01*
X135019379Y-51298051D01*
X134741560Y-51193493D01*
X134484767Y-51052235D01*
X134248724Y-50874142D01*
X134143907Y-50776716D01*
X134060507Y-50690383D01*
X133979721Y-50600312D01*
X133911332Y-50517778D01*
X133868654Y-50459543D01*
X133719184Y-50194869D01*
X133608847Y-49919302D01*
X133537494Y-49636430D01*
X133504972Y-49349840D01*
X133505569Y-49322011D01*
X134798097Y-49322011D01*
X134823811Y-49480845D01*
X134878779Y-49632252D01*
X134962748Y-49771174D01*
X135075465Y-49892552D01*
X135216676Y-49991326D01*
X135350250Y-50050761D01*
X135364508Y-50055116D01*
X135382395Y-50059111D01*
X135405681Y-50062757D01*
X135436133Y-50066068D01*
X135475520Y-50069058D01*
X135525611Y-50071738D01*
X135588174Y-50074124D01*
X135664978Y-50076227D01*
X135757791Y-50078061D01*
X135868383Y-50079639D01*
X135998521Y-50080974D01*
X136149974Y-50082080D01*
X136324510Y-50082969D01*
X136523899Y-50083655D01*
X136749909Y-50084151D01*
X137004309Y-50084470D01*
X137288866Y-50084625D01*
X137605350Y-50084630D01*
X137955528Y-50084498D01*
X138341171Y-50084241D01*
X138764046Y-50083873D01*
X139225921Y-50083408D01*
X139668250Y-50082925D01*
X143880416Y-50078216D01*
X144007416Y-50011196D01*
X144161427Y-49908544D01*
X144284750Y-49782761D01*
X144377100Y-49639139D01*
X144438196Y-49482971D01*
X144467755Y-49319550D01*
X144465493Y-49154167D01*
X144431128Y-48992115D01*
X144364378Y-48838686D01*
X144264958Y-48699172D01*
X144132587Y-48578866D01*
X144085674Y-48546843D01*
X144062674Y-48531554D01*
X144042534Y-48517496D01*
X144023474Y-48504622D01*
X144003716Y-48492882D01*
X143981481Y-48482226D01*
X143954990Y-48472605D01*
X143922466Y-48463969D01*
X143882130Y-48456270D01*
X143832202Y-48449457D01*
X143770905Y-48443481D01*
X143696460Y-48438293D01*
X143607088Y-48433843D01*
X143501010Y-48430082D01*
X143376449Y-48426960D01*
X143231626Y-48424428D01*
X143064761Y-48422437D01*
X142874077Y-48420937D01*
X142657795Y-48419879D01*
X142414135Y-48419212D01*
X142141321Y-48418889D01*
X141837573Y-48418859D01*
X141501112Y-48419073D01*
X141130160Y-48419481D01*
X140722939Y-48420034D01*
X140277669Y-48420683D01*
X139792573Y-48421378D01*
X139582113Y-48421664D01*
X135412850Y-48427216D01*
X135272358Y-48496383D01*
X135117220Y-48593528D01*
X134992858Y-48713602D01*
X134899018Y-48851547D01*
X134835447Y-49002303D01*
X134801891Y-49160811D01*
X134798097Y-49322011D01*
X133505569Y-49322011D01*
X133511130Y-49063119D01*
X133555817Y-48779854D01*
X133638882Y-48503632D01*
X133760173Y-48238041D01*
X133919540Y-47986667D01*
X133976013Y-47912986D01*
X134165864Y-47708518D01*
X134385749Y-47529222D01*
X134629262Y-47378727D01*
X134889998Y-47260661D01*
X135161549Y-47178651D01*
X135326196Y-47148374D01*
X135367434Y-47145608D01*
X135448480Y-47143011D01*
X135566811Y-47140583D01*
X135719899Y-47138323D01*
X135905222Y-47136233D01*
X136120255Y-47134311D01*
X136362471Y-47132559D01*
X136629348Y-47130976D01*
X136918360Y-47129562D01*
X137226983Y-47128318D01*
X137552691Y-47127243D01*
X137892960Y-47126338D01*
X138245265Y-47125602D01*
X138607082Y-47125036D01*
X138975886Y-47124640D01*
X139349151Y-47124413D01*
X139724354Y-47124357D01*
X140098970Y-47124471D01*
G37*
X140098970Y-47124471D02*
X140470473Y-47124754D01*
X140836340Y-47125208D01*
X141194045Y-47125832D01*
X141541064Y-47126626D01*
X141874871Y-47127591D01*
X142192943Y-47128726D01*
X142492755Y-47130032D01*
X142771781Y-47131509D01*
X143027497Y-47133156D01*
X143257379Y-47134974D01*
X143458901Y-47136963D01*
X143629539Y-47139123D01*
X143766768Y-47141453D01*
X143868063Y-47143955D01*
X143930900Y-47146628D01*
X143947676Y-47148105D01*
X144179780Y-47196489D01*
X144418001Y-47276407D01*
X144648485Y-47382067D01*
X144857380Y-47507675D01*
X144924637Y-47556667D01*
X145017472Y-47635019D01*
X145121036Y-47733491D01*
X145224362Y-47840687D01*
X145316481Y-47945213D01*
X145386426Y-48035673D01*
X145388313Y-48038408D01*
X145534499Y-48287572D01*
X145643912Y-48552378D01*
X145716708Y-48828284D01*
X145753043Y-49110747D01*
X145753073Y-49395225D01*
X145716952Y-49677174D01*
X145644836Y-49952054D01*
X145536882Y-50215321D01*
X145393245Y-50462432D01*
X145300973Y-50587462D01*
X145111724Y-50796807D01*
X144903585Y-50973474D01*
X144671649Y-51120732D01*
X144411006Y-51241850D01*
X144214513Y-51311058D01*
X144028583Y-51369383D01*
X139700000Y-51371966D01*
X139274358Y-51372179D01*
X138859645Y-51372306D01*
X138457874Y-51372349D01*
X138071059Y-51372311D01*
X137701214Y-51372195D01*
X137350354Y-51372004D01*
X137020493Y-51371740D01*
X136713644Y-51371406D01*
X136431821Y-51371005D01*
X136177040Y-51370540D01*
X135951313Y-51370012D01*
X135756654Y-51369426D01*
X135595079Y-51368783D01*
X135468601Y-51368087D01*
X135379233Y-51367340D01*
X135328991Y-51366544D01*
X135318500Y-51366051D01*
X135019379Y-51298051D01*
X134741560Y-51193493D01*
X134484767Y-51052235D01*
X134248724Y-50874142D01*
X134143907Y-50776716D01*
X134060507Y-50690383D01*
X133979721Y-50600312D01*
X133911332Y-50517778D01*
X133868654Y-50459543D01*
X133719184Y-50194869D01*
X133608847Y-49919302D01*
X133537494Y-49636430D01*
X133504972Y-49349840D01*
X133505569Y-49322011D01*
X134798097Y-49322011D01*
X134823811Y-49480845D01*
X134878779Y-49632252D01*
X134962748Y-49771174D01*
X135075465Y-49892552D01*
X135216676Y-49991326D01*
X135350250Y-50050761D01*
X135364508Y-50055116D01*
X135382395Y-50059111D01*
X135405681Y-50062757D01*
X135436133Y-50066068D01*
X135475520Y-50069058D01*
X135525611Y-50071738D01*
X135588174Y-50074124D01*
X135664978Y-50076227D01*
X135757791Y-50078061D01*
X135868383Y-50079639D01*
X135998521Y-50080974D01*
X136149974Y-50082080D01*
X136324510Y-50082969D01*
X136523899Y-50083655D01*
X136749909Y-50084151D01*
X137004309Y-50084470D01*
X137288866Y-50084625D01*
X137605350Y-50084630D01*
X137955528Y-50084498D01*
X138341171Y-50084241D01*
X138764046Y-50083873D01*
X139225921Y-50083408D01*
X139668250Y-50082925D01*
X143880416Y-50078216D01*
X144007416Y-50011196D01*
X144161427Y-49908544D01*
X144284750Y-49782761D01*
X144377100Y-49639139D01*
X144438196Y-49482971D01*
X144467755Y-49319550D01*
X144465493Y-49154167D01*
X144431128Y-48992115D01*
X144364378Y-48838686D01*
X144264958Y-48699172D01*
X144132587Y-48578866D01*
X144085674Y-48546843D01*
X144062674Y-48531554D01*
X144042534Y-48517496D01*
X144023474Y-48504622D01*
X144003716Y-48492882D01*
X143981481Y-48482226D01*
X143954990Y-48472605D01*
X143922466Y-48463969D01*
X143882130Y-48456270D01*
X143832202Y-48449457D01*
X143770905Y-48443481D01*
X143696460Y-48438293D01*
X143607088Y-48433843D01*
X143501010Y-48430082D01*
X143376449Y-48426960D01*
X143231626Y-48424428D01*
X143064761Y-48422437D01*
X142874077Y-48420937D01*
X142657795Y-48419879D01*
X142414135Y-48419212D01*
X142141321Y-48418889D01*
X141837573Y-48418859D01*
X141501112Y-48419073D01*
X141130160Y-48419481D01*
X140722939Y-48420034D01*
X140277669Y-48420683D01*
X139792573Y-48421378D01*
X139582113Y-48421664D01*
X135412850Y-48427216D01*
X135272358Y-48496383D01*
X135117220Y-48593528D01*
X134992858Y-48713602D01*
X134899018Y-48851547D01*
X134835447Y-49002303D01*
X134801891Y-49160811D01*
X134798097Y-49322011D01*
X133505569Y-49322011D01*
X133511130Y-49063119D01*
X133555817Y-48779854D01*
X133638882Y-48503632D01*
X133760173Y-48238041D01*
X133919540Y-47986667D01*
X133976013Y-47912986D01*
X134165864Y-47708518D01*
X134385749Y-47529222D01*
X134629262Y-47378727D01*
X134889998Y-47260661D01*
X135161549Y-47178651D01*
X135326196Y-47148374D01*
X135367434Y-47145608D01*
X135448480Y-47143011D01*
X135566811Y-47140583D01*
X135719899Y-47138323D01*
X135905222Y-47136233D01*
X136120255Y-47134311D01*
X136362471Y-47132559D01*
X136629348Y-47130976D01*
X136918360Y-47129562D01*
X137226983Y-47128318D01*
X137552691Y-47127243D01*
X137892960Y-47126338D01*
X138245265Y-47125602D01*
X138607082Y-47125036D01*
X138975886Y-47124640D01*
X139349151Y-47124413D01*
X139724354Y-47124357D01*
X140098970Y-47124471D01*
G36*
X114763455Y-47127832D02*
G01*
X115019771Y-47128115D01*
X115248113Y-47128596D01*
X115450273Y-47129286D01*
X115628047Y-47130196D01*
X115783230Y-47131336D01*
X115917616Y-47132719D01*
X116033000Y-47134356D01*
X116131176Y-47136258D01*
X116213940Y-47138436D01*
X116283086Y-47140901D01*
X116340409Y-47143664D01*
X116387703Y-47146738D01*
X116426763Y-47150133D01*
X116459384Y-47153860D01*
X116487361Y-47157930D01*
X116489860Y-47158338D01*
X116783722Y-47226686D01*
X117056235Y-47331550D01*
X117307953Y-47473224D01*
X117539432Y-47651999D01*
X117669996Y-47778409D01*
X117865211Y-48012367D01*
X118022745Y-48265345D01*
X118143485Y-48538915D01*
X118198467Y-48712966D01*
X118217036Y-48786131D01*
X118230308Y-48854449D01*
X118239123Y-48927424D01*
X118244325Y-49014558D01*
X118246757Y-49125355D01*
X118247267Y-49263300D01*
X118246472Y-49405561D01*
X118243811Y-49514700D01*
X118238456Y-49599912D01*
X118229581Y-49670396D01*
X118216356Y-49735347D01*
X118198929Y-49800595D01*
X118094672Y-50091923D01*
X117957557Y-50359185D01*
X117789763Y-50600313D01*
X117593469Y-50813242D01*
X117370854Y-50995905D01*
X117124097Y-51146236D01*
X116855378Y-51262170D01*
X116575416Y-51339885D01*
X116551799Y-51344523D01*
X116526328Y-51348783D01*
X116497207Y-51352679D01*
X116462635Y-51356226D01*
X116420814Y-51359441D01*
X116369946Y-51362339D01*
X116308231Y-51364934D01*
X116233871Y-51367242D01*
X116145068Y-51369278D01*
X116040022Y-51371058D01*
X115916935Y-51372597D01*
X115774008Y-51373909D01*
X115609443Y-51375011D01*
X115421440Y-51375918D01*
X115208201Y-51376644D01*
X114967928Y-51377206D01*
X114698821Y-51377617D01*
X114399082Y-51377895D01*
X114066911Y-51378053D01*
X113700512Y-51378107D01*
X113298084Y-51378073D01*
X112857829Y-51377966D01*
X112377948Y-51377800D01*
X112119833Y-51377699D01*
X111600570Y-51377444D01*
X111122082Y-51377103D01*
X110682812Y-51376668D01*
X110281200Y-51376126D01*
X109915690Y-51375469D01*
X109584723Y-51374686D01*
X109286741Y-51373766D01*
X109020186Y-51372699D01*
X108783500Y-51371475D01*
X108575126Y-51370083D01*
X108393504Y-51368512D01*
X108237077Y-51366754D01*
X108104287Y-51364796D01*
X107993576Y-51362629D01*
X107903386Y-51360243D01*
X107832159Y-51357626D01*
X107778337Y-51354769D01*
X107740362Y-51351662D01*
X107717166Y-51348392D01*
X107430427Y-51270007D01*
X107161675Y-51154919D01*
X106913801Y-51005865D01*
X106689693Y-50825580D01*
X106492240Y-50616797D01*
X106324331Y-50382252D01*
X106188856Y-50124680D01*
X106088703Y-49846815D01*
X106074207Y-49793134D01*
X106019710Y-49499154D01*
X106007949Y-49252271D01*
X107304416Y-49252271D01*
X107305610Y-49354341D01*
X107310938Y-49428099D01*
X107323021Y-49487538D01*
X107344480Y-49546654D01*
X107370089Y-49602969D01*
X107451264Y-49747417D01*
X107546037Y-49860926D01*
X107663927Y-49954693D01*
X107675494Y-49962224D01*
X107697094Y-49976713D01*
X107716049Y-49990032D01*
X107734134Y-50002230D01*
X107753126Y-50013353D01*
X107774801Y-50023449D01*
X107800935Y-50032565D01*
X107833304Y-50040750D01*
X107873685Y-50048050D01*
X107923854Y-50054513D01*
X107985587Y-50060186D01*
X108060660Y-50065118D01*
X108150848Y-50069355D01*
X108257930Y-50072944D01*
X108383680Y-50075935D01*
X108529874Y-50078373D01*
X108698290Y-50080306D01*
X108890702Y-50081783D01*
X109108888Y-50082849D01*
X109354623Y-50083554D01*
X109629684Y-50083944D01*
X109935847Y-50084066D01*
X110274887Y-50083969D01*
X110648581Y-50083700D01*
X111058706Y-50083306D01*
X111507037Y-50082834D01*
X111995351Y-50082333D01*
X112162166Y-50082172D01*
X116363750Y-50078216D01*
X116483873Y-50021904D01*
X116644705Y-49923715D01*
X116779160Y-49793795D01*
X116883796Y-49635994D01*
X116935500Y-49516606D01*
X116957528Y-49419272D01*
X116967231Y-49298099D01*
X116964574Y-49169756D01*
X116949523Y-49050913D01*
X116936568Y-48997671D01*
X116869689Y-48845030D01*
X116768555Y-48705549D01*
X116640888Y-48586931D01*
X116494412Y-48496877D01*
X116395500Y-48458137D01*
X116378624Y-48453139D01*
X116360763Y-48448555D01*
X116340116Y-48444370D01*
X116314886Y-48440569D01*
X116283272Y-48437136D01*
X116243474Y-48434056D01*
X116193694Y-48431314D01*
X116132132Y-48428894D01*
X116056988Y-48426782D01*
X115966463Y-48424962D01*
X115858758Y-48423419D01*
X115732074Y-48422137D01*
X115584610Y-48421101D01*
X115414567Y-48420296D01*
X115220146Y-48419707D01*
X114999548Y-48419318D01*
X114750973Y-48419114D01*
X114472621Y-48419080D01*
X114162694Y-48419200D01*
X113819391Y-48419460D01*
X113440914Y-48419844D01*
X113025462Y-48420336D01*
X112571237Y-48420922D01*
X112087633Y-48421571D01*
X107917350Y-48427216D01*
X107779992Y-48494839D01*
X107619699Y-48596762D01*
X107483771Y-48730401D01*
X107379007Y-48888961D01*
X107372039Y-48902797D01*
X107340498Y-48970306D01*
X107320628Y-49026550D01*
X107309767Y-49085291D01*
X107305253Y-49160289D01*
X107304416Y-49252271D01*
X106007949Y-49252271D01*
X106005832Y-49207848D01*
X106030863Y-48922478D01*
X106093094Y-48646310D01*
X106190814Y-48382608D01*
X106322314Y-48134635D01*
X106485883Y-47905657D01*
X106679813Y-47698936D01*
X106902391Y-47517738D01*
X107151910Y-47365326D01*
X107404900Y-47252925D01*
X107440018Y-47239469D01*
X107471170Y-47227097D01*
X107500164Y-47215761D01*
X107528811Y-47205414D01*
X107558918Y-47196006D01*
X107592296Y-47187491D01*
X107630752Y-47179821D01*
X107676098Y-47172947D01*
X107730141Y-47166823D01*
X107794691Y-47161399D01*
X107871557Y-47156628D01*
X107962549Y-47152463D01*
X108069475Y-47148855D01*
X108194145Y-47145757D01*
X108338367Y-47143121D01*
X108503952Y-47140898D01*
X108692707Y-47139042D01*
X108906443Y-47137503D01*
X109146969Y-47136235D01*
X109416094Y-47135189D01*
X109715626Y-47134318D01*
X110047376Y-47133573D01*
X110413152Y-47132907D01*
X110814763Y-47132272D01*
X111254019Y-47131620D01*
X111732729Y-47130904D01*
X112035166Y-47130430D01*
X112537564Y-47129646D01*
X112999423Y-47128982D01*
X113422538Y-47128447D01*
X113808704Y-47128053D01*
X114159716Y-47127812D01*
X114477368Y-47127734D01*
X114763455Y-47127832D01*
G37*
X114763455Y-47127832D02*
X115019771Y-47128115D01*
X115248113Y-47128596D01*
X115450273Y-47129286D01*
X115628047Y-47130196D01*
X115783230Y-47131336D01*
X115917616Y-47132719D01*
X116033000Y-47134356D01*
X116131176Y-47136258D01*
X116213940Y-47138436D01*
X116283086Y-47140901D01*
X116340409Y-47143664D01*
X116387703Y-47146738D01*
X116426763Y-47150133D01*
X116459384Y-47153860D01*
X116487361Y-47157930D01*
X116489860Y-47158338D01*
X116783722Y-47226686D01*
X117056235Y-47331550D01*
X117307953Y-47473224D01*
X117539432Y-47651999D01*
X117669996Y-47778409D01*
X117865211Y-48012367D01*
X118022745Y-48265345D01*
X118143485Y-48538915D01*
X118198467Y-48712966D01*
X118217036Y-48786131D01*
X118230308Y-48854449D01*
X118239123Y-48927424D01*
X118244325Y-49014558D01*
X118246757Y-49125355D01*
X118247267Y-49263300D01*
X118246472Y-49405561D01*
X118243811Y-49514700D01*
X118238456Y-49599912D01*
X118229581Y-49670396D01*
X118216356Y-49735347D01*
X118198929Y-49800595D01*
X118094672Y-50091923D01*
X117957557Y-50359185D01*
X117789763Y-50600313D01*
X117593469Y-50813242D01*
X117370854Y-50995905D01*
X117124097Y-51146236D01*
X116855378Y-51262170D01*
X116575416Y-51339885D01*
X116551799Y-51344523D01*
X116526328Y-51348783D01*
X116497207Y-51352679D01*
X116462635Y-51356226D01*
X116420814Y-51359441D01*
X116369946Y-51362339D01*
X116308231Y-51364934D01*
X116233871Y-51367242D01*
X116145068Y-51369278D01*
X116040022Y-51371058D01*
X115916935Y-51372597D01*
X115774008Y-51373909D01*
X115609443Y-51375011D01*
X115421440Y-51375918D01*
X115208201Y-51376644D01*
X114967928Y-51377206D01*
X114698821Y-51377617D01*
X114399082Y-51377895D01*
X114066911Y-51378053D01*
X113700512Y-51378107D01*
X113298084Y-51378073D01*
X112857829Y-51377966D01*
X112377948Y-51377800D01*
X112119833Y-51377699D01*
X111600570Y-51377444D01*
X111122082Y-51377103D01*
X110682812Y-51376668D01*
X110281200Y-51376126D01*
X109915690Y-51375469D01*
X109584723Y-51374686D01*
X109286741Y-51373766D01*
X109020186Y-51372699D01*
X108783500Y-51371475D01*
X108575126Y-51370083D01*
X108393504Y-51368512D01*
X108237077Y-51366754D01*
X108104287Y-51364796D01*
X107993576Y-51362629D01*
X107903386Y-51360243D01*
X107832159Y-51357626D01*
X107778337Y-51354769D01*
X107740362Y-51351662D01*
X107717166Y-51348392D01*
X107430427Y-51270007D01*
X107161675Y-51154919D01*
X106913801Y-51005865D01*
X106689693Y-50825580D01*
X106492240Y-50616797D01*
X106324331Y-50382252D01*
X106188856Y-50124680D01*
X106088703Y-49846815D01*
X106074207Y-49793134D01*
X106019710Y-49499154D01*
X106007949Y-49252271D01*
X107304416Y-49252271D01*
X107305610Y-49354341D01*
X107310938Y-49428099D01*
X107323021Y-49487538D01*
X107344480Y-49546654D01*
X107370089Y-49602969D01*
X107451264Y-49747417D01*
X107546037Y-49860926D01*
X107663927Y-49954693D01*
X107675494Y-49962224D01*
X107697094Y-49976713D01*
X107716049Y-49990032D01*
X107734134Y-50002230D01*
X107753126Y-50013353D01*
X107774801Y-50023449D01*
X107800935Y-50032565D01*
X107833304Y-50040750D01*
X107873685Y-50048050D01*
X107923854Y-50054513D01*
X107985587Y-50060186D01*
X108060660Y-50065118D01*
X108150848Y-50069355D01*
X108257930Y-50072944D01*
X108383680Y-50075935D01*
X108529874Y-50078373D01*
X108698290Y-50080306D01*
X108890702Y-50081783D01*
X109108888Y-50082849D01*
X109354623Y-50083554D01*
X109629684Y-50083944D01*
X109935847Y-50084066D01*
X110274887Y-50083969D01*
X110648581Y-50083700D01*
X111058706Y-50083306D01*
X111507037Y-50082834D01*
X111995351Y-50082333D01*
X112162166Y-50082172D01*
X116363750Y-50078216D01*
X116483873Y-50021904D01*
X116644705Y-49923715D01*
X116779160Y-49793795D01*
X116883796Y-49635994D01*
X116935500Y-49516606D01*
X116957528Y-49419272D01*
X116967231Y-49298099D01*
X116964574Y-49169756D01*
X116949523Y-49050913D01*
X116936568Y-48997671D01*
X116869689Y-48845030D01*
X116768555Y-48705549D01*
X116640888Y-48586931D01*
X116494412Y-48496877D01*
X116395500Y-48458137D01*
X116378624Y-48453139D01*
X116360763Y-48448555D01*
X116340116Y-48444370D01*
X116314886Y-48440569D01*
X116283272Y-48437136D01*
X116243474Y-48434056D01*
X116193694Y-48431314D01*
X116132132Y-48428894D01*
X116056988Y-48426782D01*
X115966463Y-48424962D01*
X115858758Y-48423419D01*
X115732074Y-48422137D01*
X115584610Y-48421101D01*
X115414567Y-48420296D01*
X115220146Y-48419707D01*
X114999548Y-48419318D01*
X114750973Y-48419114D01*
X114472621Y-48419080D01*
X114162694Y-48419200D01*
X113819391Y-48419460D01*
X113440914Y-48419844D01*
X113025462Y-48420336D01*
X112571237Y-48420922D01*
X112087633Y-48421571D01*
X107917350Y-48427216D01*
X107779992Y-48494839D01*
X107619699Y-48596762D01*
X107483771Y-48730401D01*
X107379007Y-48888961D01*
X107372039Y-48902797D01*
X107340498Y-48970306D01*
X107320628Y-49026550D01*
X107309767Y-49085291D01*
X107305253Y-49160289D01*
X107304416Y-49252271D01*
X106007949Y-49252271D01*
X106005832Y-49207848D01*
X106030863Y-48922478D01*
X106093094Y-48646310D01*
X106190814Y-48382608D01*
X106322314Y-48134635D01*
X106485883Y-47905657D01*
X106679813Y-47698936D01*
X106902391Y-47517738D01*
X107151910Y-47365326D01*
X107404900Y-47252925D01*
X107440018Y-47239469D01*
X107471170Y-47227097D01*
X107500164Y-47215761D01*
X107528811Y-47205414D01*
X107558918Y-47196006D01*
X107592296Y-47187491D01*
X107630752Y-47179821D01*
X107676098Y-47172947D01*
X107730141Y-47166823D01*
X107794691Y-47161399D01*
X107871557Y-47156628D01*
X107962549Y-47152463D01*
X108069475Y-47148855D01*
X108194145Y-47145757D01*
X108338367Y-47143121D01*
X108503952Y-47140898D01*
X108692707Y-47139042D01*
X108906443Y-47137503D01*
X109146969Y-47136235D01*
X109416094Y-47135189D01*
X109715626Y-47134318D01*
X110047376Y-47133573D01*
X110413152Y-47132907D01*
X110814763Y-47132272D01*
X111254019Y-47131620D01*
X111732729Y-47130904D01*
X112035166Y-47130430D01*
X112537564Y-47129646D01*
X112999423Y-47128982D01*
X113422538Y-47128447D01*
X113808704Y-47128053D01*
X114159716Y-47127812D01*
X114477368Y-47127734D01*
X114763455Y-47127832D01*
G36*
X171649812Y-82913566D02*
G01*
X171932897Y-83007131D01*
X172198357Y-83138091D01*
X172442641Y-83303918D01*
X172662200Y-83502082D01*
X172853485Y-83730054D01*
X172909736Y-83811298D01*
X173055806Y-84070425D01*
X173163045Y-84343078D01*
X173231222Y-84625397D01*
X173260104Y-84913522D01*
X173249459Y-85203592D01*
X173199055Y-85491748D01*
X173108660Y-85774129D01*
X173037418Y-85934550D01*
X172887242Y-86193015D01*
X172705650Y-86423596D01*
X172494047Y-86625152D01*
X172253835Y-86796537D01*
X171986419Y-86936610D01*
X171693201Y-87044227D01*
X171664765Y-87052518D01*
X171502916Y-87098716D01*
X167195500Y-87102284D01*
X166682002Y-87102674D01*
X166209155Y-87102952D01*
X165775279Y-87103107D01*
X165378691Y-87103129D01*
X165017711Y-87103010D01*
X164690656Y-87102738D01*
X164395844Y-87102304D01*
X164131595Y-87101698D01*
X163896227Y-87100910D01*
X163688058Y-87099930D01*
X163505407Y-87098749D01*
X163346592Y-87097355D01*
X163209931Y-87095739D01*
X163093744Y-87093892D01*
X162996348Y-87091803D01*
X162916062Y-87089462D01*
X162851204Y-87086860D01*
X162800094Y-87083986D01*
X162761048Y-87080831D01*
X162732386Y-87077384D01*
X162722946Y-87075830D01*
X162444411Y-87004206D01*
X162181207Y-86894947D01*
X161936371Y-86750925D01*
X161712941Y-86575014D01*
X161513954Y-86370086D01*
X161342446Y-86139016D01*
X161201454Y-85884675D01*
X161094016Y-85609938D01*
X161064114Y-85506503D01*
X161041683Y-85415279D01*
X161026293Y-85334133D01*
X161016686Y-85250958D01*
X161011606Y-85153647D01*
X161009798Y-85030093D01*
X161009706Y-84982050D01*
X161010043Y-84936371D01*
X162290609Y-84936371D01*
X162300534Y-85115265D01*
X162314797Y-85182648D01*
X162380475Y-85363174D01*
X162478271Y-85516433D01*
X162608694Y-85642970D01*
X162772253Y-85743335D01*
X162876342Y-85787512D01*
X162891992Y-85790886D01*
X162920953Y-85793975D01*
X162964810Y-85796789D01*
X163025146Y-85799336D01*
X163103545Y-85801625D01*
X163201592Y-85803666D01*
X163320871Y-85805467D01*
X163462966Y-85807036D01*
X163629460Y-85808384D01*
X163821939Y-85809518D01*
X164041987Y-85810447D01*
X164291186Y-85811181D01*
X164571123Y-85811728D01*
X164883380Y-85812097D01*
X165229541Y-85812297D01*
X165611192Y-85812336D01*
X166029916Y-85812225D01*
X166487297Y-85811970D01*
X166984920Y-85811583D01*
X167153166Y-85811431D01*
X171354750Y-85807550D01*
X171483963Y-85747832D01*
X171635294Y-85655953D01*
X171762881Y-85534508D01*
X171863221Y-85390125D01*
X171932811Y-85229432D01*
X171968149Y-85059057D01*
X171965730Y-84885629D01*
X171959762Y-84847609D01*
X171906271Y-84668317D01*
X171817261Y-84505490D01*
X171697397Y-84365240D01*
X171551345Y-84253683D01*
X171475782Y-84213277D01*
X171354750Y-84156550D01*
X162908359Y-84156550D01*
X162767862Y-84225716D01*
X162610917Y-84324845D01*
X162482093Y-84451023D01*
X162384015Y-84598702D01*
X162319312Y-84762334D01*
X162290609Y-84936371D01*
X161010043Y-84936371D01*
X161010700Y-84847674D01*
X161014535Y-84743391D01*
X161022491Y-84656989D01*
X161035849Y-84576254D01*
X161055888Y-84488976D01*
X161065173Y-84452883D01*
X161155990Y-84183512D01*
X161282447Y-83925879D01*
X161440120Y-83686907D01*
X161624581Y-83473516D01*
X161782952Y-83330297D01*
X161941025Y-83217655D01*
X162124785Y-83110697D01*
X162319414Y-83016864D01*
X162510097Y-82943596D01*
X162612916Y-82913489D01*
X162803416Y-82865383D01*
X171460583Y-82865383D01*
X171649812Y-82913566D01*
G37*
X171649812Y-82913566D02*
X171932897Y-83007131D01*
X172198357Y-83138091D01*
X172442641Y-83303918D01*
X172662200Y-83502082D01*
X172853485Y-83730054D01*
X172909736Y-83811298D01*
X173055806Y-84070425D01*
X173163045Y-84343078D01*
X173231222Y-84625397D01*
X173260104Y-84913522D01*
X173249459Y-85203592D01*
X173199055Y-85491748D01*
X173108660Y-85774129D01*
X173037418Y-85934550D01*
X172887242Y-86193015D01*
X172705650Y-86423596D01*
X172494047Y-86625152D01*
X172253835Y-86796537D01*
X171986419Y-86936610D01*
X171693201Y-87044227D01*
X171664765Y-87052518D01*
X171502916Y-87098716D01*
X167195500Y-87102284D01*
X166682002Y-87102674D01*
X166209155Y-87102952D01*
X165775279Y-87103107D01*
X165378691Y-87103129D01*
X165017711Y-87103010D01*
X164690656Y-87102738D01*
X164395844Y-87102304D01*
X164131595Y-87101698D01*
X163896227Y-87100910D01*
X163688058Y-87099930D01*
X163505407Y-87098749D01*
X163346592Y-87097355D01*
X163209931Y-87095739D01*
X163093744Y-87093892D01*
X162996348Y-87091803D01*
X162916062Y-87089462D01*
X162851204Y-87086860D01*
X162800094Y-87083986D01*
X162761048Y-87080831D01*
X162732386Y-87077384D01*
X162722946Y-87075830D01*
X162444411Y-87004206D01*
X162181207Y-86894947D01*
X161936371Y-86750925D01*
X161712941Y-86575014D01*
X161513954Y-86370086D01*
X161342446Y-86139016D01*
X161201454Y-85884675D01*
X161094016Y-85609938D01*
X161064114Y-85506503D01*
X161041683Y-85415279D01*
X161026293Y-85334133D01*
X161016686Y-85250958D01*
X161011606Y-85153647D01*
X161009798Y-85030093D01*
X161009706Y-84982050D01*
X161010043Y-84936371D01*
X162290609Y-84936371D01*
X162300534Y-85115265D01*
X162314797Y-85182648D01*
X162380475Y-85363174D01*
X162478271Y-85516433D01*
X162608694Y-85642970D01*
X162772253Y-85743335D01*
X162876342Y-85787512D01*
X162891992Y-85790886D01*
X162920953Y-85793975D01*
X162964810Y-85796789D01*
X163025146Y-85799336D01*
X163103545Y-85801625D01*
X163201592Y-85803666D01*
X163320871Y-85805467D01*
X163462966Y-85807036D01*
X163629460Y-85808384D01*
X163821939Y-85809518D01*
X164041987Y-85810447D01*
X164291186Y-85811181D01*
X164571123Y-85811728D01*
X164883380Y-85812097D01*
X165229541Y-85812297D01*
X165611192Y-85812336D01*
X166029916Y-85812225D01*
X166487297Y-85811970D01*
X166984920Y-85811583D01*
X167153166Y-85811431D01*
X171354750Y-85807550D01*
X171483963Y-85747832D01*
X171635294Y-85655953D01*
X171762881Y-85534508D01*
X171863221Y-85390125D01*
X171932811Y-85229432D01*
X171968149Y-85059057D01*
X171965730Y-84885629D01*
X171959762Y-84847609D01*
X171906271Y-84668317D01*
X171817261Y-84505490D01*
X171697397Y-84365240D01*
X171551345Y-84253683D01*
X171475782Y-84213277D01*
X171354750Y-84156550D01*
X162908359Y-84156550D01*
X162767862Y-84225716D01*
X162610917Y-84324845D01*
X162482093Y-84451023D01*
X162384015Y-84598702D01*
X162319312Y-84762334D01*
X162290609Y-84936371D01*
X161010043Y-84936371D01*
X161010700Y-84847674D01*
X161014535Y-84743391D01*
X161022491Y-84656989D01*
X161035849Y-84576254D01*
X161055888Y-84488976D01*
X161065173Y-84452883D01*
X161155990Y-84183512D01*
X161282447Y-83925879D01*
X161440120Y-83686907D01*
X161624581Y-83473516D01*
X161782952Y-83330297D01*
X161941025Y-83217655D01*
X162124785Y-83110697D01*
X162319414Y-83016864D01*
X162510097Y-82943596D01*
X162612916Y-82913489D01*
X162803416Y-82865383D01*
X171460583Y-82865383D01*
X171649812Y-82913566D01*
G36*
X114356826Y-82857738D02*
G01*
X114708354Y-82858109D01*
X115024136Y-82858721D01*
X115305271Y-82859577D01*
X115552857Y-82860682D01*
X115767991Y-82862040D01*
X115951772Y-82863655D01*
X116105297Y-82865532D01*
X116229664Y-82867676D01*
X116325972Y-82870089D01*
X116395318Y-82872778D01*
X116438800Y-82875746D01*
X116447915Y-82876824D01*
X116702766Y-82930915D01*
X116956384Y-83018274D01*
X117196697Y-83133872D01*
X117411635Y-83272685D01*
X117427427Y-83284685D01*
X117525387Y-83367457D01*
X117633490Y-83470755D01*
X117740361Y-83582729D01*
X117834626Y-83691529D01*
X117897647Y-83774552D01*
X117962959Y-83881657D01*
X118032029Y-84015278D01*
X118098266Y-84160887D01*
X118155078Y-84303950D01*
X118195872Y-84429939D01*
X118197180Y-84434803D01*
X118223217Y-84563874D01*
X118242102Y-84720837D01*
X118253207Y-84891753D01*
X118255903Y-85062687D01*
X118249561Y-85219701D01*
X118237427Y-85326740D01*
X118169998Y-85615109D01*
X118064083Y-85889676D01*
X117922178Y-86146402D01*
X117746777Y-86381248D01*
X117540374Y-86590177D01*
X117376607Y-86720403D01*
X117250474Y-86800610D01*
X117097612Y-86882090D01*
X116932807Y-86957840D01*
X116770847Y-87020861D01*
X116681250Y-87049632D01*
X116511916Y-87098670D01*
X112193916Y-87102672D01*
X111689794Y-87103126D01*
X111226225Y-87103506D01*
X110801428Y-87103798D01*
X110413623Y-87103989D01*
X110061028Y-87104064D01*
X109741863Y-87104011D01*
X109454348Y-87103816D01*
X109196702Y-87103465D01*
X108967144Y-87102944D01*
X108763893Y-87102240D01*
X108585170Y-87101339D01*
X108429193Y-87100228D01*
X108294182Y-87098893D01*
X108178356Y-87097320D01*
X108079934Y-87095495D01*
X107997136Y-87093406D01*
X107928182Y-87091039D01*
X107871290Y-87088379D01*
X107824680Y-87085413D01*
X107786572Y-87082128D01*
X107755184Y-87078510D01*
X107728736Y-87074545D01*
X107705448Y-87070220D01*
X107696000Y-87068254D01*
X107413297Y-86987248D01*
X107146648Y-86869864D01*
X106899710Y-86719079D01*
X106676140Y-86537871D01*
X106479596Y-86329218D01*
X106313735Y-86096098D01*
X106182214Y-85841489D01*
X106178448Y-85832629D01*
X106110577Y-85656267D01*
X106063064Y-85491839D01*
X106033122Y-85325054D01*
X106017965Y-85141622D01*
X106014647Y-84992633D01*
X106014871Y-84982050D01*
X107304530Y-84982050D01*
X107305990Y-85086018D01*
X107311812Y-85161356D01*
X107324352Y-85221721D01*
X107345969Y-85280769D01*
X107362399Y-85317243D01*
X107459971Y-85485809D01*
X107579819Y-85619466D01*
X107724842Y-85720945D01*
X107851127Y-85777310D01*
X107865139Y-85781975D01*
X107881417Y-85786255D01*
X107901740Y-85790163D01*
X107927888Y-85793714D01*
X107961638Y-85796922D01*
X108004771Y-85799802D01*
X108059064Y-85802368D01*
X108126298Y-85804635D01*
X108208249Y-85806616D01*
X108306699Y-85808327D01*
X108423425Y-85809781D01*
X108560206Y-85810994D01*
X108718821Y-85811978D01*
X108901049Y-85812750D01*
X109108670Y-85813323D01*
X109343461Y-85813711D01*
X109607202Y-85813930D01*
X109901672Y-85813993D01*
X110228649Y-85813914D01*
X110589913Y-85813709D01*
X110987242Y-85813391D01*
X111422415Y-85812976D01*
X111897212Y-85812476D01*
X112162166Y-85812186D01*
X116363750Y-85807550D01*
X116484782Y-85750822D01*
X116641723Y-85656327D01*
X116768080Y-85537740D01*
X116863867Y-85400223D01*
X116929099Y-85248935D01*
X116963793Y-85089037D01*
X116967963Y-84925690D01*
X116941626Y-84764054D01*
X116884796Y-84609292D01*
X116797490Y-84466562D01*
X116679722Y-84341026D01*
X116531509Y-84237844D01*
X116480166Y-84211573D01*
X116363750Y-84156550D01*
X107918250Y-84156550D01*
X107780606Y-84221781D01*
X107623813Y-84318746D01*
X107489619Y-84447597D01*
X107385787Y-84600568D01*
X107369648Y-84632739D01*
X107338992Y-84701333D01*
X107319766Y-84759286D01*
X107309360Y-84820592D01*
X107305166Y-84899245D01*
X107304530Y-84982050D01*
X106014871Y-84982050D01*
X106018911Y-84791982D01*
X106034893Y-84619580D01*
X106064891Y-84462402D01*
X106111204Y-84307425D01*
X106156594Y-84188300D01*
X106291006Y-83913058D01*
X106456934Y-83665755D01*
X106653181Y-83447458D01*
X106878554Y-83259232D01*
X107131856Y-83102142D01*
X107411893Y-82977255D01*
X107574886Y-82923264D01*
X107770083Y-82865865D01*
X112024583Y-82859331D01*
X112571305Y-82858567D01*
X113076793Y-82858021D01*
X113542144Y-82857698D01*
X113968456Y-82857602D01*
X114356826Y-82857738D01*
G37*
X114356826Y-82857738D02*
X114708354Y-82858109D01*
X115024136Y-82858721D01*
X115305271Y-82859577D01*
X115552857Y-82860682D01*
X115767991Y-82862040D01*
X115951772Y-82863655D01*
X116105297Y-82865532D01*
X116229664Y-82867676D01*
X116325972Y-82870089D01*
X116395318Y-82872778D01*
X116438800Y-82875746D01*
X116447915Y-82876824D01*
X116702766Y-82930915D01*
X116956384Y-83018274D01*
X117196697Y-83133872D01*
X117411635Y-83272685D01*
X117427427Y-83284685D01*
X117525387Y-83367457D01*
X117633490Y-83470755D01*
X117740361Y-83582729D01*
X117834626Y-83691529D01*
X117897647Y-83774552D01*
X117962959Y-83881657D01*
X118032029Y-84015278D01*
X118098266Y-84160887D01*
X118155078Y-84303950D01*
X118195872Y-84429939D01*
X118197180Y-84434803D01*
X118223217Y-84563874D01*
X118242102Y-84720837D01*
X118253207Y-84891753D01*
X118255903Y-85062687D01*
X118249561Y-85219701D01*
X118237427Y-85326740D01*
X118169998Y-85615109D01*
X118064083Y-85889676D01*
X117922178Y-86146402D01*
X117746777Y-86381248D01*
X117540374Y-86590177D01*
X117376607Y-86720403D01*
X117250474Y-86800610D01*
X117097612Y-86882090D01*
X116932807Y-86957840D01*
X116770847Y-87020861D01*
X116681250Y-87049632D01*
X116511916Y-87098670D01*
X112193916Y-87102672D01*
X111689794Y-87103126D01*
X111226225Y-87103506D01*
X110801428Y-87103798D01*
X110413623Y-87103989D01*
X110061028Y-87104064D01*
X109741863Y-87104011D01*
X109454348Y-87103816D01*
X109196702Y-87103465D01*
X108967144Y-87102944D01*
X108763893Y-87102240D01*
X108585170Y-87101339D01*
X108429193Y-87100228D01*
X108294182Y-87098893D01*
X108178356Y-87097320D01*
X108079934Y-87095495D01*
X107997136Y-87093406D01*
X107928182Y-87091039D01*
X107871290Y-87088379D01*
X107824680Y-87085413D01*
X107786572Y-87082128D01*
X107755184Y-87078510D01*
X107728736Y-87074545D01*
X107705448Y-87070220D01*
X107696000Y-87068254D01*
X107413297Y-86987248D01*
X107146648Y-86869864D01*
X106899710Y-86719079D01*
X106676140Y-86537871D01*
X106479596Y-86329218D01*
X106313735Y-86096098D01*
X106182214Y-85841489D01*
X106178448Y-85832629D01*
X106110577Y-85656267D01*
X106063064Y-85491839D01*
X106033122Y-85325054D01*
X106017965Y-85141622D01*
X106014647Y-84992633D01*
X106014871Y-84982050D01*
X107304530Y-84982050D01*
X107305990Y-85086018D01*
X107311812Y-85161356D01*
X107324352Y-85221721D01*
X107345969Y-85280769D01*
X107362399Y-85317243D01*
X107459971Y-85485809D01*
X107579819Y-85619466D01*
X107724842Y-85720945D01*
X107851127Y-85777310D01*
X107865139Y-85781975D01*
X107881417Y-85786255D01*
X107901740Y-85790163D01*
X107927888Y-85793714D01*
X107961638Y-85796922D01*
X108004771Y-85799802D01*
X108059064Y-85802368D01*
X108126298Y-85804635D01*
X108208249Y-85806616D01*
X108306699Y-85808327D01*
X108423425Y-85809781D01*
X108560206Y-85810994D01*
X108718821Y-85811978D01*
X108901049Y-85812750D01*
X109108670Y-85813323D01*
X109343461Y-85813711D01*
X109607202Y-85813930D01*
X109901672Y-85813993D01*
X110228649Y-85813914D01*
X110589913Y-85813709D01*
X110987242Y-85813391D01*
X111422415Y-85812976D01*
X111897212Y-85812476D01*
X112162166Y-85812186D01*
X116363750Y-85807550D01*
X116484782Y-85750822D01*
X116641723Y-85656327D01*
X116768080Y-85537740D01*
X116863867Y-85400223D01*
X116929099Y-85248935D01*
X116963793Y-85089037D01*
X116967963Y-84925690D01*
X116941626Y-84764054D01*
X116884796Y-84609292D01*
X116797490Y-84466562D01*
X116679722Y-84341026D01*
X116531509Y-84237844D01*
X116480166Y-84211573D01*
X116363750Y-84156550D01*
X107918250Y-84156550D01*
X107780606Y-84221781D01*
X107623813Y-84318746D01*
X107489619Y-84447597D01*
X107385787Y-84600568D01*
X107369648Y-84632739D01*
X107338992Y-84701333D01*
X107319766Y-84759286D01*
X107309360Y-84820592D01*
X107305166Y-84899245D01*
X107304530Y-84982050D01*
X106014871Y-84982050D01*
X106018911Y-84791982D01*
X106034893Y-84619580D01*
X106064891Y-84462402D01*
X106111204Y-84307425D01*
X106156594Y-84188300D01*
X106291006Y-83913058D01*
X106456934Y-83665755D01*
X106653181Y-83447458D01*
X106878554Y-83259232D01*
X107131856Y-83102142D01*
X107411893Y-82977255D01*
X107574886Y-82923264D01*
X107770083Y-82865865D01*
X112024583Y-82859331D01*
X112571305Y-82858567D01*
X113076793Y-82858021D01*
X113542144Y-82857698D01*
X113968456Y-82857602D01*
X114356826Y-82857738D01*
G36*
X167638404Y-118594731D02*
G01*
X168104230Y-118594786D01*
X168531235Y-118594895D01*
X168921175Y-118595074D01*
X169275804Y-118595335D01*
X169596878Y-118595695D01*
X169886155Y-118596168D01*
X170145389Y-118596767D01*
X170376336Y-118597509D01*
X170580752Y-118598406D01*
X170760393Y-118599475D01*
X170917015Y-118600729D01*
X171052373Y-118602184D01*
X171168223Y-118603853D01*
X171266322Y-118605751D01*
X171348424Y-118607892D01*
X171416287Y-118610293D01*
X171471665Y-118612966D01*
X171516314Y-118615926D01*
X171551991Y-118619188D01*
X171580450Y-118622767D01*
X171603449Y-118626678D01*
X171622742Y-118630933D01*
X171627012Y-118632007D01*
X171917896Y-118727304D01*
X172187280Y-118857426D01*
X172432671Y-119020382D01*
X172651573Y-119214177D01*
X172841493Y-119436818D01*
X172999935Y-119686313D01*
X173037418Y-119758883D01*
X173152876Y-120039053D01*
X173227235Y-120324957D01*
X173260835Y-120613670D01*
X173254014Y-120902269D01*
X173207114Y-121187831D01*
X173120472Y-121467430D01*
X172994429Y-121738143D01*
X172829325Y-121997045D01*
X172768214Y-122077027D01*
X172611921Y-122245342D01*
X172422770Y-122402995D01*
X172209959Y-122544145D01*
X171982686Y-122662953D01*
X171750151Y-122753577D01*
X171661666Y-122779585D01*
X171481750Y-122827422D01*
X167184916Y-122831677D01*
X166683106Y-122832167D01*
X166221833Y-122832592D01*
X165799299Y-122832937D01*
X165413708Y-122833186D01*
X165063264Y-122833325D01*
X164746170Y-122833339D01*
X164460629Y-122833211D01*
X164204844Y-122832928D01*
X163977019Y-122832474D01*
X163775357Y-122831833D01*
X163598061Y-122830992D01*
X163443335Y-122829933D01*
X163309381Y-122828644D01*
X163194404Y-122827108D01*
X163096605Y-122825309D01*
X163014190Y-122823234D01*
X162945361Y-122820867D01*
X162888321Y-122818193D01*
X162841273Y-122815197D01*
X162802422Y-122811863D01*
X162769969Y-122808176D01*
X162742119Y-122804122D01*
X162717075Y-122799685D01*
X162693040Y-122794850D01*
X162688085Y-122793811D01*
X162402770Y-122712728D01*
X162135607Y-122594892D01*
X161889432Y-122443018D01*
X161667077Y-122259816D01*
X161471378Y-122048000D01*
X161305168Y-121810281D01*
X161171281Y-121549373D01*
X161072552Y-121267988D01*
X161065173Y-121240550D01*
X161042360Y-121147805D01*
X161026699Y-121066087D01*
X161016908Y-120983184D01*
X161011709Y-120886882D01*
X161009821Y-120764970D01*
X161009706Y-120711383D01*
X161010064Y-120663705D01*
X162291559Y-120663705D01*
X162301335Y-120846403D01*
X162348667Y-121024917D01*
X162419546Y-121160451D01*
X162523522Y-121287424D01*
X162651358Y-121397340D01*
X162793817Y-121481704D01*
X162883554Y-121516866D01*
X162900815Y-121520264D01*
X162931063Y-121523376D01*
X162975898Y-121526209D01*
X163036920Y-121528773D01*
X163115727Y-121531077D01*
X163213921Y-121533130D01*
X163333099Y-121534941D01*
X163474862Y-121536518D01*
X163640809Y-121537870D01*
X163832540Y-121539008D01*
X164051654Y-121539939D01*
X164299751Y-121540673D01*
X164578430Y-121541218D01*
X164889290Y-121541583D01*
X165233932Y-121541779D01*
X165613955Y-121541812D01*
X166030958Y-121541693D01*
X166486541Y-121541430D01*
X166982304Y-121541033D01*
X167163750Y-121540866D01*
X171354750Y-121536883D01*
X171475782Y-121480155D01*
X171631991Y-121384231D01*
X171764624Y-121256588D01*
X171868898Y-121103439D01*
X171940030Y-120930999D01*
X171959350Y-120851883D01*
X171972207Y-120679587D01*
X171946319Y-120508803D01*
X171885008Y-120345785D01*
X171791597Y-120196786D01*
X171669407Y-120068060D01*
X171521761Y-119965861D01*
X171476514Y-119942946D01*
X171354750Y-119885883D01*
X162909250Y-119885883D01*
X162771666Y-119952033D01*
X162611646Y-120050890D01*
X162481665Y-120176456D01*
X162383684Y-120323761D01*
X162319662Y-120487834D01*
X162291559Y-120663705D01*
X161010064Y-120663705D01*
X161010718Y-120576641D01*
X161014591Y-120472095D01*
X161022582Y-120385637D01*
X161035947Y-120305160D01*
X161055941Y-120218556D01*
X161064114Y-120186929D01*
X161161030Y-119898345D01*
X161293165Y-119631682D01*
X161458264Y-119389170D01*
X161654073Y-119173038D01*
X161878337Y-118985516D01*
X162128799Y-118828832D01*
X162403207Y-118705216D01*
X162636987Y-118632007D01*
X162655652Y-118627666D01*
X162677602Y-118623674D01*
X162704592Y-118620017D01*
X162738378Y-118616680D01*
X162780716Y-118613649D01*
X162833361Y-118610908D01*
X162898070Y-118608444D01*
X162976598Y-118606241D01*
X163070701Y-118604286D01*
X163182135Y-118602564D01*
X163312655Y-118601059D01*
X163464018Y-118599759D01*
X163637979Y-118598647D01*
X163836294Y-118597709D01*
X164060719Y-118596932D01*
X164313010Y-118596299D01*
X164594923Y-118595798D01*
X164908213Y-118595412D01*
X165254636Y-118595128D01*
X165635948Y-118594931D01*
X166053905Y-118594807D01*
X166510262Y-118594740D01*
X167006777Y-118594717D01*
X167132000Y-118594716D01*
X167638404Y-118594731D01*
G37*
X167638404Y-118594731D02*
X168104230Y-118594786D01*
X168531235Y-118594895D01*
X168921175Y-118595074D01*
X169275804Y-118595335D01*
X169596878Y-118595695D01*
X169886155Y-118596168D01*
X170145389Y-118596767D01*
X170376336Y-118597509D01*
X170580752Y-118598406D01*
X170760393Y-118599475D01*
X170917015Y-118600729D01*
X171052373Y-118602184D01*
X171168223Y-118603853D01*
X171266322Y-118605751D01*
X171348424Y-118607892D01*
X171416287Y-118610293D01*
X171471665Y-118612966D01*
X171516314Y-118615926D01*
X171551991Y-118619188D01*
X171580450Y-118622767D01*
X171603449Y-118626678D01*
X171622742Y-118630933D01*
X171627012Y-118632007D01*
X171917896Y-118727304D01*
X172187280Y-118857426D01*
X172432671Y-119020382D01*
X172651573Y-119214177D01*
X172841493Y-119436818D01*
X172999935Y-119686313D01*
X173037418Y-119758883D01*
X173152876Y-120039053D01*
X173227235Y-120324957D01*
X173260835Y-120613670D01*
X173254014Y-120902269D01*
X173207114Y-121187831D01*
X173120472Y-121467430D01*
X172994429Y-121738143D01*
X172829325Y-121997045D01*
X172768214Y-122077027D01*
X172611921Y-122245342D01*
X172422770Y-122402995D01*
X172209959Y-122544145D01*
X171982686Y-122662953D01*
X171750151Y-122753577D01*
X171661666Y-122779585D01*
X171481750Y-122827422D01*
X167184916Y-122831677D01*
X166683106Y-122832167D01*
X166221833Y-122832592D01*
X165799299Y-122832937D01*
X165413708Y-122833186D01*
X165063264Y-122833325D01*
X164746170Y-122833339D01*
X164460629Y-122833211D01*
X164204844Y-122832928D01*
X163977019Y-122832474D01*
X163775357Y-122831833D01*
X163598061Y-122830992D01*
X163443335Y-122829933D01*
X163309381Y-122828644D01*
X163194404Y-122827108D01*
X163096605Y-122825309D01*
X163014190Y-122823234D01*
X162945361Y-122820867D01*
X162888321Y-122818193D01*
X162841273Y-122815197D01*
X162802422Y-122811863D01*
X162769969Y-122808176D01*
X162742119Y-122804122D01*
X162717075Y-122799685D01*
X162693040Y-122794850D01*
X162688085Y-122793811D01*
X162402770Y-122712728D01*
X162135607Y-122594892D01*
X161889432Y-122443018D01*
X161667077Y-122259816D01*
X161471378Y-122048000D01*
X161305168Y-121810281D01*
X161171281Y-121549373D01*
X161072552Y-121267988D01*
X161065173Y-121240550D01*
X161042360Y-121147805D01*
X161026699Y-121066087D01*
X161016908Y-120983184D01*
X161011709Y-120886882D01*
X161009821Y-120764970D01*
X161009706Y-120711383D01*
X161010064Y-120663705D01*
X162291559Y-120663705D01*
X162301335Y-120846403D01*
X162348667Y-121024917D01*
X162419546Y-121160451D01*
X162523522Y-121287424D01*
X162651358Y-121397340D01*
X162793817Y-121481704D01*
X162883554Y-121516866D01*
X162900815Y-121520264D01*
X162931063Y-121523376D01*
X162975898Y-121526209D01*
X163036920Y-121528773D01*
X163115727Y-121531077D01*
X163213921Y-121533130D01*
X163333099Y-121534941D01*
X163474862Y-121536518D01*
X163640809Y-121537870D01*
X163832540Y-121539008D01*
X164051654Y-121539939D01*
X164299751Y-121540673D01*
X164578430Y-121541218D01*
X164889290Y-121541583D01*
X165233932Y-121541779D01*
X165613955Y-121541812D01*
X166030958Y-121541693D01*
X166486541Y-121541430D01*
X166982304Y-121541033D01*
X167163750Y-121540866D01*
X171354750Y-121536883D01*
X171475782Y-121480155D01*
X171631991Y-121384231D01*
X171764624Y-121256588D01*
X171868898Y-121103439D01*
X171940030Y-120930999D01*
X171959350Y-120851883D01*
X171972207Y-120679587D01*
X171946319Y-120508803D01*
X171885008Y-120345785D01*
X171791597Y-120196786D01*
X171669407Y-120068060D01*
X171521761Y-119965861D01*
X171476514Y-119942946D01*
X171354750Y-119885883D01*
X162909250Y-119885883D01*
X162771666Y-119952033D01*
X162611646Y-120050890D01*
X162481665Y-120176456D01*
X162383684Y-120323761D01*
X162319662Y-120487834D01*
X162291559Y-120663705D01*
X161010064Y-120663705D01*
X161010718Y-120576641D01*
X161014591Y-120472095D01*
X161022582Y-120385637D01*
X161035947Y-120305160D01*
X161055941Y-120218556D01*
X161064114Y-120186929D01*
X161161030Y-119898345D01*
X161293165Y-119631682D01*
X161458264Y-119389170D01*
X161654073Y-119173038D01*
X161878337Y-118985516D01*
X162128799Y-118828832D01*
X162403207Y-118705216D01*
X162636987Y-118632007D01*
X162655652Y-118627666D01*
X162677602Y-118623674D01*
X162704592Y-118620017D01*
X162738378Y-118616680D01*
X162780716Y-118613649D01*
X162833361Y-118610908D01*
X162898070Y-118608444D01*
X162976598Y-118606241D01*
X163070701Y-118604286D01*
X163182135Y-118602564D01*
X163312655Y-118601059D01*
X163464018Y-118599759D01*
X163637979Y-118598647D01*
X163836294Y-118597709D01*
X164060719Y-118596932D01*
X164313010Y-118596299D01*
X164594923Y-118595798D01*
X164908213Y-118595412D01*
X165254636Y-118595128D01*
X165635948Y-118594931D01*
X166053905Y-118594807D01*
X166510262Y-118594740D01*
X167006777Y-118594717D01*
X167132000Y-118594716D01*
X167638404Y-118594731D01*
G36*
X141573541Y-118587596D02*
G01*
X141980025Y-118587916D01*
X142347004Y-118588494D01*
X142675045Y-118589331D01*
X142964712Y-118590430D01*
X143216572Y-118591793D01*
X143431190Y-118593421D01*
X143609131Y-118595318D01*
X143750962Y-118597485D01*
X143857249Y-118599925D01*
X143928555Y-118602639D01*
X143965083Y-118605572D01*
X144252720Y-118670454D01*
X144526383Y-118774004D01*
X144782270Y-118913799D01*
X145016579Y-119087415D01*
X145225508Y-119292427D01*
X145402343Y-119522020D01*
X145550957Y-119780430D01*
X145659148Y-120049418D01*
X145728297Y-120332878D01*
X145751162Y-120506564D01*
X145758442Y-120803939D01*
X145725584Y-121095589D01*
X145654324Y-121377675D01*
X145546397Y-121646361D01*
X145403540Y-121897809D01*
X145227489Y-122128181D01*
X145019980Y-122333640D01*
X144872107Y-122449829D01*
X144736657Y-122535636D01*
X144575068Y-122620538D01*
X144403049Y-122697211D01*
X144236304Y-122758335D01*
X144165244Y-122779336D01*
X143986250Y-122827319D01*
X139689416Y-122829979D01*
X139265185Y-122830198D01*
X138851793Y-122830325D01*
X138451268Y-122830362D01*
X138065638Y-122830314D01*
X137696933Y-122830183D01*
X137347180Y-122829971D01*
X137018408Y-122829682D01*
X136712645Y-122829319D01*
X136431919Y-122828885D01*
X136178258Y-122828383D01*
X135953692Y-122827815D01*
X135760248Y-122827185D01*
X135599954Y-122826495D01*
X135474840Y-122825749D01*
X135386932Y-122824949D01*
X135338260Y-122824098D01*
X135329083Y-122823631D01*
X135078366Y-122769916D01*
X134824733Y-122681499D01*
X134580588Y-122563144D01*
X134457946Y-122489038D01*
X134223168Y-122311191D01*
X134017654Y-122103727D01*
X133843060Y-121869121D01*
X133701042Y-121609849D01*
X133593256Y-121328387D01*
X133537810Y-121113550D01*
X133524564Y-121020611D01*
X133515918Y-120898665D01*
X133512078Y-120766974D01*
X134797559Y-120766974D01*
X134823933Y-120925194D01*
X134879380Y-121076629D01*
X134963516Y-121216312D01*
X135075957Y-121339278D01*
X135216317Y-121440558D01*
X135384213Y-121515187D01*
X135392583Y-121517895D01*
X135410443Y-121521193D01*
X135443427Y-121524213D01*
X135493067Y-121526960D01*
X135560895Y-121529445D01*
X135648446Y-121531675D01*
X135757252Y-121533658D01*
X135888846Y-121535402D01*
X136044761Y-121536916D01*
X136226530Y-121538209D01*
X136435686Y-121539287D01*
X136673762Y-121540160D01*
X136942291Y-121540836D01*
X137242805Y-121541323D01*
X137576838Y-121541629D01*
X137945924Y-121541762D01*
X138351593Y-121541731D01*
X138795381Y-121541544D01*
X139278819Y-121541209D01*
X139668250Y-121540866D01*
X143859250Y-121536883D01*
X143980282Y-121480155D01*
X144135627Y-121384690D01*
X144267406Y-121257831D01*
X144370628Y-121106227D01*
X144440301Y-120936526D01*
X144462515Y-120837875D01*
X144470527Y-120660141D01*
X144439672Y-120485932D01*
X144373330Y-120321518D01*
X144274879Y-120173172D01*
X144147697Y-120047165D01*
X143995163Y-119949770D01*
X143980282Y-119942611D01*
X143859250Y-119885883D01*
X135413750Y-119885883D01*
X135271409Y-119953312D01*
X135115262Y-120047939D01*
X134990496Y-120165582D01*
X134896728Y-120301273D01*
X134833572Y-120450047D01*
X134800644Y-120606936D01*
X134797559Y-120766974D01*
X133512078Y-120766974D01*
X133511879Y-120760170D01*
X133512457Y-120617583D01*
X133517660Y-120483363D01*
X133527497Y-120369967D01*
X133537238Y-120309216D01*
X133622034Y-120006739D01*
X133741320Y-119728244D01*
X133893770Y-119475144D01*
X134078062Y-119248848D01*
X134292869Y-119050767D01*
X134536867Y-118882313D01*
X134808734Y-118744896D01*
X135103119Y-118641072D01*
X135265583Y-118594716D01*
X139541250Y-118588846D01*
X140111407Y-118588158D01*
X140639798Y-118587719D01*
X141126987Y-118587531D01*
X141573541Y-118587596D01*
G37*
X141573541Y-118587596D02*
X141980025Y-118587916D01*
X142347004Y-118588494D01*
X142675045Y-118589331D01*
X142964712Y-118590430D01*
X143216572Y-118591793D01*
X143431190Y-118593421D01*
X143609131Y-118595318D01*
X143750962Y-118597485D01*
X143857249Y-118599925D01*
X143928555Y-118602639D01*
X143965083Y-118605572D01*
X144252720Y-118670454D01*
X144526383Y-118774004D01*
X144782270Y-118913799D01*
X145016579Y-119087415D01*
X145225508Y-119292427D01*
X145402343Y-119522020D01*
X145550957Y-119780430D01*
X145659148Y-120049418D01*
X145728297Y-120332878D01*
X145751162Y-120506564D01*
X145758442Y-120803939D01*
X145725584Y-121095589D01*
X145654324Y-121377675D01*
X145546397Y-121646361D01*
X145403540Y-121897809D01*
X145227489Y-122128181D01*
X145019980Y-122333640D01*
X144872107Y-122449829D01*
X144736657Y-122535636D01*
X144575068Y-122620538D01*
X144403049Y-122697211D01*
X144236304Y-122758335D01*
X144165244Y-122779336D01*
X143986250Y-122827319D01*
X139689416Y-122829979D01*
X139265185Y-122830198D01*
X138851793Y-122830325D01*
X138451268Y-122830362D01*
X138065638Y-122830314D01*
X137696933Y-122830183D01*
X137347180Y-122829971D01*
X137018408Y-122829682D01*
X136712645Y-122829319D01*
X136431919Y-122828885D01*
X136178258Y-122828383D01*
X135953692Y-122827815D01*
X135760248Y-122827185D01*
X135599954Y-122826495D01*
X135474840Y-122825749D01*
X135386932Y-122824949D01*
X135338260Y-122824098D01*
X135329083Y-122823631D01*
X135078366Y-122769916D01*
X134824733Y-122681499D01*
X134580588Y-122563144D01*
X134457946Y-122489038D01*
X134223168Y-122311191D01*
X134017654Y-122103727D01*
X133843060Y-121869121D01*
X133701042Y-121609849D01*
X133593256Y-121328387D01*
X133537810Y-121113550D01*
X133524564Y-121020611D01*
X133515918Y-120898665D01*
X133512078Y-120766974D01*
X134797559Y-120766974D01*
X134823933Y-120925194D01*
X134879380Y-121076629D01*
X134963516Y-121216312D01*
X135075957Y-121339278D01*
X135216317Y-121440558D01*
X135384213Y-121515187D01*
X135392583Y-121517895D01*
X135410443Y-121521193D01*
X135443427Y-121524213D01*
X135493067Y-121526960D01*
X135560895Y-121529445D01*
X135648446Y-121531675D01*
X135757252Y-121533658D01*
X135888846Y-121535402D01*
X136044761Y-121536916D01*
X136226530Y-121538209D01*
X136435686Y-121539287D01*
X136673762Y-121540160D01*
X136942291Y-121540836D01*
X137242805Y-121541323D01*
X137576838Y-121541629D01*
X137945924Y-121541762D01*
X138351593Y-121541731D01*
X138795381Y-121541544D01*
X139278819Y-121541209D01*
X139668250Y-121540866D01*
X143859250Y-121536883D01*
X143980282Y-121480155D01*
X144135627Y-121384690D01*
X144267406Y-121257831D01*
X144370628Y-121106227D01*
X144440301Y-120936526D01*
X144462515Y-120837875D01*
X144470527Y-120660141D01*
X144439672Y-120485932D01*
X144373330Y-120321518D01*
X144274879Y-120173172D01*
X144147697Y-120047165D01*
X143995163Y-119949770D01*
X143980282Y-119942611D01*
X143859250Y-119885883D01*
X135413750Y-119885883D01*
X135271409Y-119953312D01*
X135115262Y-120047939D01*
X134990496Y-120165582D01*
X134896728Y-120301273D01*
X134833572Y-120450047D01*
X134800644Y-120606936D01*
X134797559Y-120766974D01*
X133512078Y-120766974D01*
X133511879Y-120760170D01*
X133512457Y-120617583D01*
X133517660Y-120483363D01*
X133527497Y-120369967D01*
X133537238Y-120309216D01*
X133622034Y-120006739D01*
X133741320Y-119728244D01*
X133893770Y-119475144D01*
X134078062Y-119248848D01*
X134292869Y-119050767D01*
X134536867Y-118882313D01*
X134808734Y-118744896D01*
X135103119Y-118641072D01*
X135265583Y-118594716D01*
X139541250Y-118588846D01*
X140111407Y-118588158D01*
X140639798Y-118587719D01*
X141126987Y-118587531D01*
X141573541Y-118587596D01*
G36*
X110167903Y-118586813D02*
G01*
X110540752Y-118587187D01*
X110949354Y-118587732D01*
X111395505Y-118588402D01*
X111880999Y-118589147D01*
X112226470Y-118589662D01*
X116511916Y-118595895D01*
X116681250Y-118644461D01*
X116834359Y-118696151D01*
X116999355Y-118764963D01*
X117161369Y-118843869D01*
X117305535Y-118925844D01*
X117376607Y-118973095D01*
X117497212Y-119069576D01*
X117625546Y-119189092D01*
X117748531Y-119318401D01*
X117853089Y-119444259D01*
X117884743Y-119487668D01*
X117969884Y-119625277D01*
X118053800Y-119787888D01*
X118128659Y-119958688D01*
X118186631Y-120120863D01*
X118198388Y-120161050D01*
X118215899Y-120230050D01*
X118228497Y-120296505D01*
X118236949Y-120369457D01*
X118242025Y-120457948D01*
X118244490Y-120571019D01*
X118245114Y-120711383D01*
X118242858Y-120892765D01*
X118234661Y-121042503D01*
X118218379Y-121171114D01*
X118191867Y-121289115D01*
X118152982Y-121407025D01*
X118099581Y-121535362D01*
X118059447Y-121622235D01*
X117985942Y-121769009D01*
X117914734Y-121889896D01*
X117835872Y-121999531D01*
X117739406Y-122112550D01*
X117689405Y-122166500D01*
X117467234Y-122373545D01*
X117227195Y-122542375D01*
X116968480Y-122673518D01*
X116837607Y-122723173D01*
X116799045Y-122736516D01*
X116763613Y-122748792D01*
X116729495Y-122760044D01*
X116694873Y-122770317D01*
X116657934Y-122779653D01*
X116616860Y-122788097D01*
X116569835Y-122795692D01*
X116515045Y-122802482D01*
X116450673Y-122808510D01*
X116374903Y-122813819D01*
X116285919Y-122818455D01*
X116181905Y-122822460D01*
X116061046Y-122825878D01*
X115921526Y-122828752D01*
X115761528Y-122831126D01*
X115579237Y-122833044D01*
X115372836Y-122834550D01*
X115140511Y-122835686D01*
X114880445Y-122836497D01*
X114590822Y-122837027D01*
X114269826Y-122837318D01*
X113915642Y-122837415D01*
X113526453Y-122837361D01*
X113100444Y-122837200D01*
X112635799Y-122836976D01*
X112130701Y-122836731D01*
X112111769Y-122836723D01*
X111591597Y-122836434D01*
X111112244Y-122836053D01*
X110672193Y-122835569D01*
X110269928Y-122834972D01*
X109903935Y-122834252D01*
X109572698Y-122833399D01*
X109274700Y-122832404D01*
X109008428Y-122831255D01*
X108772364Y-122829943D01*
X108564994Y-122828458D01*
X108384803Y-122826790D01*
X108230274Y-122824929D01*
X108099892Y-122822865D01*
X107992142Y-122820588D01*
X107905507Y-122818087D01*
X107838474Y-122815354D01*
X107789525Y-122812377D01*
X107757147Y-122809147D01*
X107748916Y-122807859D01*
X107463666Y-122735075D01*
X107195050Y-122625062D01*
X106946007Y-122480645D01*
X106719479Y-122304654D01*
X106518408Y-122099915D01*
X106345733Y-121869255D01*
X106204396Y-121615503D01*
X106097337Y-121341486D01*
X106052719Y-121177050D01*
X106029629Y-121037284D01*
X106016217Y-120870741D01*
X106012893Y-120711383D01*
X107304416Y-120711383D01*
X107305591Y-120813127D01*
X107310907Y-120886684D01*
X107323046Y-120946173D01*
X107344693Y-121005717D01*
X107371608Y-121064881D01*
X107470638Y-121227514D01*
X107599029Y-121359705D01*
X107756312Y-121461049D01*
X107897083Y-121517895D01*
X107914943Y-121521193D01*
X107947927Y-121524213D01*
X107997567Y-121526960D01*
X108065395Y-121529445D01*
X108152946Y-121531675D01*
X108261752Y-121533658D01*
X108393346Y-121535402D01*
X108549261Y-121536916D01*
X108731030Y-121538209D01*
X108940186Y-121539287D01*
X109178262Y-121540160D01*
X109446791Y-121540836D01*
X109747305Y-121541323D01*
X110081338Y-121541629D01*
X110450424Y-121541762D01*
X110856093Y-121541731D01*
X111299881Y-121541544D01*
X111783319Y-121541209D01*
X112172750Y-121540866D01*
X116363750Y-121536883D01*
X116484782Y-121480155D01*
X116641091Y-121385891D01*
X116767064Y-121267324D01*
X116862701Y-121129677D01*
X116928001Y-120978175D01*
X116962965Y-120818041D01*
X116967592Y-120654498D01*
X116941883Y-120492770D01*
X116885838Y-120338080D01*
X116799456Y-120195653D01*
X116682738Y-120070712D01*
X116535684Y-119968480D01*
X116484782Y-119942611D01*
X116363750Y-119885883D01*
X107897083Y-119885883D01*
X107773169Y-119947613D01*
X107617176Y-120048167D01*
X107484359Y-120180144D01*
X107382527Y-120335583D01*
X107372346Y-120356306D01*
X107340518Y-120427123D01*
X107320523Y-120485835D01*
X107309650Y-120546607D01*
X107305189Y-120623603D01*
X107304416Y-120711383D01*
X106012893Y-120711383D01*
X106012480Y-120691625D01*
X106018411Y-120514140D01*
X106034005Y-120352492D01*
X106053063Y-120245716D01*
X106140819Y-119956297D01*
X106264210Y-119686973D01*
X106420918Y-119440419D01*
X106608626Y-119219308D01*
X106825016Y-119026312D01*
X107067770Y-118864105D01*
X107334571Y-118735360D01*
X107376632Y-118719058D01*
X107417177Y-118703529D01*
X107453975Y-118689225D01*
X107488820Y-118676100D01*
X107523507Y-118664104D01*
X107559834Y-118653191D01*
X107599594Y-118643312D01*
X107644583Y-118634419D01*
X107696598Y-118626465D01*
X107757433Y-118619401D01*
X107828884Y-118613180D01*
X107912746Y-118607754D01*
X108010816Y-118603074D01*
X108124888Y-118599093D01*
X108256758Y-118595763D01*
X108408221Y-118593037D01*
X108581073Y-118590865D01*
X108777110Y-118589201D01*
X108998127Y-118587996D01*
X109245919Y-118587203D01*
X109522282Y-118586773D01*
X109829012Y-118586659D01*
X110167903Y-118586813D01*
G37*
X110167903Y-118586813D02*
X110540752Y-118587187D01*
X110949354Y-118587732D01*
X111395505Y-118588402D01*
X111880999Y-118589147D01*
X112226470Y-118589662D01*
X116511916Y-118595895D01*
X116681250Y-118644461D01*
X116834359Y-118696151D01*
X116999355Y-118764963D01*
X117161369Y-118843869D01*
X117305535Y-118925844D01*
X117376607Y-118973095D01*
X117497212Y-119069576D01*
X117625546Y-119189092D01*
X117748531Y-119318401D01*
X117853089Y-119444259D01*
X117884743Y-119487668D01*
X117969884Y-119625277D01*
X118053800Y-119787888D01*
X118128659Y-119958688D01*
X118186631Y-120120863D01*
X118198388Y-120161050D01*
X118215899Y-120230050D01*
X118228497Y-120296505D01*
X118236949Y-120369457D01*
X118242025Y-120457948D01*
X118244490Y-120571019D01*
X118245114Y-120711383D01*
X118242858Y-120892765D01*
X118234661Y-121042503D01*
X118218379Y-121171114D01*
X118191867Y-121289115D01*
X118152982Y-121407025D01*
X118099581Y-121535362D01*
X118059447Y-121622235D01*
X117985942Y-121769009D01*
X117914734Y-121889896D01*
X117835872Y-121999531D01*
X117739406Y-122112550D01*
X117689405Y-122166500D01*
X117467234Y-122373545D01*
X117227195Y-122542375D01*
X116968480Y-122673518D01*
X116837607Y-122723173D01*
X116799045Y-122736516D01*
X116763613Y-122748792D01*
X116729495Y-122760044D01*
X116694873Y-122770317D01*
X116657934Y-122779653D01*
X116616860Y-122788097D01*
X116569835Y-122795692D01*
X116515045Y-122802482D01*
X116450673Y-122808510D01*
X116374903Y-122813819D01*
X116285919Y-122818455D01*
X116181905Y-122822460D01*
X116061046Y-122825878D01*
X115921526Y-122828752D01*
X115761528Y-122831126D01*
X115579237Y-122833044D01*
X115372836Y-122834550D01*
X115140511Y-122835686D01*
X114880445Y-122836497D01*
X114590822Y-122837027D01*
X114269826Y-122837318D01*
X113915642Y-122837415D01*
X113526453Y-122837361D01*
X113100444Y-122837200D01*
X112635799Y-122836976D01*
X112130701Y-122836731D01*
X112111769Y-122836723D01*
X111591597Y-122836434D01*
X111112244Y-122836053D01*
X110672193Y-122835569D01*
X110269928Y-122834972D01*
X109903935Y-122834252D01*
X109572698Y-122833399D01*
X109274700Y-122832404D01*
X109008428Y-122831255D01*
X108772364Y-122829943D01*
X108564994Y-122828458D01*
X108384803Y-122826790D01*
X108230274Y-122824929D01*
X108099892Y-122822865D01*
X107992142Y-122820588D01*
X107905507Y-122818087D01*
X107838474Y-122815354D01*
X107789525Y-122812377D01*
X107757147Y-122809147D01*
X107748916Y-122807859D01*
X107463666Y-122735075D01*
X107195050Y-122625062D01*
X106946007Y-122480645D01*
X106719479Y-122304654D01*
X106518408Y-122099915D01*
X106345733Y-121869255D01*
X106204396Y-121615503D01*
X106097337Y-121341486D01*
X106052719Y-121177050D01*
X106029629Y-121037284D01*
X106016217Y-120870741D01*
X106012893Y-120711383D01*
X107304416Y-120711383D01*
X107305591Y-120813127D01*
X107310907Y-120886684D01*
X107323046Y-120946173D01*
X107344693Y-121005717D01*
X107371608Y-121064881D01*
X107470638Y-121227514D01*
X107599029Y-121359705D01*
X107756312Y-121461049D01*
X107897083Y-121517895D01*
X107914943Y-121521193D01*
X107947927Y-121524213D01*
X107997567Y-121526960D01*
X108065395Y-121529445D01*
X108152946Y-121531675D01*
X108261752Y-121533658D01*
X108393346Y-121535402D01*
X108549261Y-121536916D01*
X108731030Y-121538209D01*
X108940186Y-121539287D01*
X109178262Y-121540160D01*
X109446791Y-121540836D01*
X109747305Y-121541323D01*
X110081338Y-121541629D01*
X110450424Y-121541762D01*
X110856093Y-121541731D01*
X111299881Y-121541544D01*
X111783319Y-121541209D01*
X112172750Y-121540866D01*
X116363750Y-121536883D01*
X116484782Y-121480155D01*
X116641091Y-121385891D01*
X116767064Y-121267324D01*
X116862701Y-121129677D01*
X116928001Y-120978175D01*
X116962965Y-120818041D01*
X116967592Y-120654498D01*
X116941883Y-120492770D01*
X116885838Y-120338080D01*
X116799456Y-120195653D01*
X116682738Y-120070712D01*
X116535684Y-119968480D01*
X116484782Y-119942611D01*
X116363750Y-119885883D01*
X107897083Y-119885883D01*
X107773169Y-119947613D01*
X107617176Y-120048167D01*
X107484359Y-120180144D01*
X107382527Y-120335583D01*
X107372346Y-120356306D01*
X107340518Y-120427123D01*
X107320523Y-120485835D01*
X107309650Y-120546607D01*
X107305189Y-120623603D01*
X107304416Y-120711383D01*
X106012893Y-120711383D01*
X106012480Y-120691625D01*
X106018411Y-120514140D01*
X106034005Y-120352492D01*
X106053063Y-120245716D01*
X106140819Y-119956297D01*
X106264210Y-119686973D01*
X106420918Y-119440419D01*
X106608626Y-119219308D01*
X106825016Y-119026312D01*
X107067770Y-118864105D01*
X107334571Y-118735360D01*
X107376632Y-118719058D01*
X107417177Y-118703529D01*
X107453975Y-118689225D01*
X107488820Y-118676100D01*
X107523507Y-118664104D01*
X107559834Y-118653191D01*
X107599594Y-118643312D01*
X107644583Y-118634419D01*
X107696598Y-118626465D01*
X107757433Y-118619401D01*
X107828884Y-118613180D01*
X107912746Y-118607754D01*
X108010816Y-118603074D01*
X108124888Y-118599093D01*
X108256758Y-118595763D01*
X108408221Y-118593037D01*
X108581073Y-118590865D01*
X108777110Y-118589201D01*
X108998127Y-118587996D01*
X109245919Y-118587203D01*
X109522282Y-118586773D01*
X109829012Y-118586659D01*
X110167903Y-118586813D01*
%TD*%
%TO.C,CP_Elec_10x10*%
G36*
G01*
X169894000Y-95996000D02*
X169894000Y-93996000D01*
G75*
G02*
X170144000Y-93746000I250000J0D01*
G01*
X173644000Y-93746000D01*
G75*
G02*
X173894000Y-93996000I0J-250000D01*
G01*
X173894000Y-95996000D01*
G75*
G02*
X173644000Y-96246000I-250000J0D01*
G01*
X170144000Y-96246000D01*
G75*
G02*
X169894000Y-95996000I0J250000D01*
G01*
G37*
G36*
G01*
X161894000Y-95996000D02*
X161894000Y-93996000D01*
G75*
G02*
X162144000Y-93746000I250000J0D01*
G01*
X165644000Y-93746000D01*
G75*
G02*
X165894000Y-93996000I0J-250000D01*
G01*
X165894000Y-95996000D01*
G75*
G02*
X165644000Y-96246000I-250000J0D01*
G01*
X162144000Y-96246000D01*
G75*
G02*
X161894000Y-95996000I0J250000D01*
G01*
G37*
%TD*%
D24*
%TO.C,CP_Elec_3x5.3*%
X166981000Y-73533000D03*
X163981000Y-73533000D03*
%TD*%
D25*
%TO.C,REF\u002A\u002A*%
X148044000Y-56134000D03*
X149644000Y-56134000D03*
%TD*%
D26*
%TO.C,REF\u002A\u002A*%
X148048000Y-53975000D03*
X150148000Y-53975000D03*
%TD*%
%TO.C,0805_(2012)*%
G36*
G01*
X164539000Y-59860200D02*
X164539000Y-58910200D01*
G75*
G02*
X164789000Y-58660200I250000J0D01*
G01*
X165289000Y-58660200D01*
G75*
G02*
X165539000Y-58910200I0J-250000D01*
G01*
X165539000Y-59860200D01*
G75*
G02*
X165289000Y-60110200I-250000J0D01*
G01*
X164789000Y-60110200D01*
G75*
G02*
X164539000Y-59860200I0J250000D01*
G01*
G37*
G36*
G01*
X166439000Y-59860200D02*
X166439000Y-58910200D01*
G75*
G02*
X166689000Y-58660200I250000J0D01*
G01*
X167189000Y-58660200D01*
G75*
G02*
X167439000Y-58910200I0J-250000D01*
G01*
X167439000Y-59860200D01*
G75*
G02*
X167189000Y-60110200I-250000J0D01*
G01*
X166689000Y-60110200D01*
G75*
G02*
X166439000Y-59860200I0J250000D01*
G01*
G37*
%TD*%
%TO.C,0201 (0603)*%
G36*
G01*
X166556600Y-54151200D02*
X166556600Y-53951200D01*
G75*
G02*
X166656600Y-53851200I100000J0D01*
G01*
X166916600Y-53851200D01*
G75*
G02*
X167016600Y-53951200I0J-100000D01*
G01*
X167016600Y-54151200D01*
G75*
G02*
X166916600Y-54251200I-100000J0D01*
G01*
X166656600Y-54251200D01*
G75*
G02*
X166556600Y-54151200I0J100000D01*
G01*
G37*
G36*
G01*
X167196600Y-54151200D02*
X167196600Y-53951200D01*
G75*
G02*
X167296600Y-53851200I100000J0D01*
G01*
X167556600Y-53851200D01*
G75*
G02*
X167656600Y-53951200I0J-100000D01*
G01*
X167656600Y-54151200D01*
G75*
G02*
X167556600Y-54251200I-100000J0D01*
G01*
X167296600Y-54251200D01*
G75*
G02*
X167196600Y-54151200I0J100000D01*
G01*
G37*
%TD*%
%TO.C,0402_(1005)*%
G36*
G01*
X168170200Y-55745200D02*
X168170200Y-55405200D01*
G75*
G02*
X168310200Y-55265200I140000J0D01*
G01*
X168590200Y-55265200D01*
G75*
G02*
X168730200Y-55405200I0J-140000D01*
G01*
X168730200Y-55745200D01*
G75*
G02*
X168590200Y-55885200I-140000J0D01*
G01*
X168310200Y-55885200D01*
G75*
G02*
X168170200Y-55745200I0J140000D01*
G01*
G37*
G36*
G01*
X167210200Y-55745200D02*
X167210200Y-55405200D01*
G75*
G02*
X167350200Y-55265200I140000J0D01*
G01*
X167630200Y-55265200D01*
G75*
G02*
X167770200Y-55405200I0J-140000D01*
G01*
X167770200Y-55745200D01*
G75*
G02*
X167630200Y-55885200I-140000J0D01*
G01*
X167350200Y-55885200D01*
G75*
G02*
X167210200Y-55745200I0J140000D01*
G01*
G37*
%TD*%
%TO.C,0603_(1608)*%
G36*
G01*
X165170400Y-57654000D02*
X165170400Y-57154000D01*
G75*
G02*
X165395400Y-56929000I225000J0D01*
G01*
X165845400Y-56929000D01*
G75*
G02*
X166070400Y-57154000I0J-225000D01*
G01*
X166070400Y-57654000D01*
G75*
G02*
X165845400Y-57879000I-225000J0D01*
G01*
X165395400Y-57879000D01*
G75*
G02*
X165170400Y-57654000I0J225000D01*
G01*
G37*
G36*
G01*
X166720400Y-57654000D02*
X166720400Y-57154000D01*
G75*
G02*
X166945400Y-56929000I225000J0D01*
G01*
X167395400Y-56929000D01*
G75*
G02*
X167620400Y-57154000I0J-225000D01*
G01*
X167620400Y-57654000D01*
G75*
G02*
X167395400Y-57879000I-225000J0D01*
G01*
X166945400Y-57879000D01*
G75*
G02*
X166720400Y-57654000I0J225000D01*
G01*
G37*
%TD*%
%TO.C,0402_(1005)*%
G36*
G01*
X165178200Y-55745200D02*
X165178200Y-55405200D01*
G75*
G02*
X165318200Y-55265200I140000J0D01*
G01*
X165598200Y-55265200D01*
G75*
G02*
X165738200Y-55405200I0J-140000D01*
G01*
X165738200Y-55745200D01*
G75*
G02*
X165598200Y-55885200I-140000J0D01*
G01*
X165318200Y-55885200D01*
G75*
G02*
X165178200Y-55745200I0J140000D01*
G01*
G37*
G36*
G01*
X166138200Y-55745200D02*
X166138200Y-55405200D01*
G75*
G02*
X166278200Y-55265200I140000J0D01*
G01*
X166558200Y-55265200D01*
G75*
G02*
X166698200Y-55405200I0J-140000D01*
G01*
X166698200Y-55745200D01*
G75*
G02*
X166558200Y-55885200I-140000J0D01*
G01*
X166278200Y-55885200D01*
G75*
G02*
X166138200Y-55745200I0J140000D01*
G01*
G37*
%TD*%
%TO.C,0201 (0603)*%
G36*
G01*
X165672600Y-54151200D02*
X165672600Y-53951200D01*
G75*
G02*
X165772600Y-53851200I100000J0D01*
G01*
X166032600Y-53851200D01*
G75*
G02*
X166132600Y-53951200I0J-100000D01*
G01*
X166132600Y-54151200D01*
G75*
G02*
X166032600Y-54251200I-100000J0D01*
G01*
X165772600Y-54251200D01*
G75*
G02*
X165672600Y-54151200I0J100000D01*
G01*
G37*
G36*
G01*
X165032600Y-54151200D02*
X165032600Y-53951200D01*
G75*
G02*
X165132600Y-53851200I100000J0D01*
G01*
X165392600Y-53851200D01*
G75*
G02*
X165492600Y-53951200I0J-100000D01*
G01*
X165492600Y-54151200D01*
G75*
G02*
X165392600Y-54251200I-100000J0D01*
G01*
X165132600Y-54251200D01*
G75*
G02*
X165032600Y-54151200I0J100000D01*
G01*
G37*
%TD*%
%TO.C,0201 (0603)*%
G36*
G01*
X168120800Y-54151200D02*
X168120800Y-53951200D01*
G75*
G02*
X168220800Y-53851200I100000J0D01*
G01*
X168480800Y-53851200D01*
G75*
G02*
X168580800Y-53951200I0J-100000D01*
G01*
X168580800Y-54151200D01*
G75*
G02*
X168480800Y-54251200I-100000J0D01*
G01*
X168220800Y-54251200D01*
G75*
G02*
X168120800Y-54151200I0J100000D01*
G01*
G37*
G36*
G01*
X168760800Y-54151200D02*
X168760800Y-53951200D01*
G75*
G02*
X168860800Y-53851200I100000J0D01*
G01*
X169120800Y-53851200D01*
G75*
G02*
X169220800Y-53951200I0J-100000D01*
G01*
X169220800Y-54151200D01*
G75*
G02*
X169120800Y-54251200I-100000J0D01*
G01*
X168860800Y-54251200D01*
G75*
G02*
X168760800Y-54151200I0J100000D01*
G01*
G37*
%TD*%
D27*
%TO.C,M4*%
X180740819Y-122941581D03*
X178460400Y-121997000D03*
X176179981Y-122941581D03*
X175235400Y-125222000D03*
X176179981Y-127502419D03*
X178460400Y-128447000D03*
X180740819Y-127502419D03*
X181685400Y-125222000D03*
D28*
X178460400Y-125222000D03*
%TD*%
D29*
%TO.C,M3*%
X180157456Y-112450544D03*
X178460400Y-111747600D03*
X176763344Y-112450544D03*
X176060400Y-114147600D03*
X176763344Y-115844656D03*
X178460400Y-116547600D03*
X180157456Y-115844656D03*
X180860400Y-114147600D03*
D30*
X178460400Y-114147600D03*
%TD*%
D31*
%TO.C,M2.5*%
X178460400Y-105816400D03*
D32*
X178460400Y-105816400D03*
%TD*%
D33*
%TO.C,M2*%
X178460400Y-98298000D03*
%TD*%
D34*
%TO.C,TQFN-20*%
X129336500Y-93330000D03*
G36*
G01*
X127886500Y-91380000D02*
X127886500Y-90555000D01*
G75*
G02*
X127961500Y-90480000I75000J0D01*
G01*
X128111500Y-90480000D01*
G75*
G02*
X128186500Y-90555000I0J-75000D01*
G01*
X128186500Y-91380000D01*
G75*
G02*
X128111500Y-91455000I-75000J0D01*
G01*
X127961500Y-91455000D01*
G75*
G02*
X127886500Y-91380000I0J75000D01*
G01*
G37*
G36*
G01*
X128536500Y-91380000D02*
X128536500Y-90555000D01*
G75*
G02*
X128611500Y-90480000I75000J0D01*
G01*
X128761500Y-90480000D01*
G75*
G02*
X128836500Y-90555000I0J-75000D01*
G01*
X128836500Y-91380000D01*
G75*
G02*
X128761500Y-91455000I-75000J0D01*
G01*
X128611500Y-91455000D01*
G75*
G02*
X128536500Y-91380000I0J75000D01*
G01*
G37*
G36*
G01*
X129186500Y-91380000D02*
X129186500Y-90555000D01*
G75*
G02*
X129261500Y-90480000I75000J0D01*
G01*
X129411500Y-90480000D01*
G75*
G02*
X129486500Y-90555000I0J-75000D01*
G01*
X129486500Y-91380000D01*
G75*
G02*
X129411500Y-91455000I-75000J0D01*
G01*
X129261500Y-91455000D01*
G75*
G02*
X129186500Y-91380000I0J75000D01*
G01*
G37*
G36*
G01*
X129836500Y-91380000D02*
X129836500Y-90555000D01*
G75*
G02*
X129911500Y-90480000I75000J0D01*
G01*
X130061500Y-90480000D01*
G75*
G02*
X130136500Y-90555000I0J-75000D01*
G01*
X130136500Y-91380000D01*
G75*
G02*
X130061500Y-91455000I-75000J0D01*
G01*
X129911500Y-91455000D01*
G75*
G02*
X129836500Y-91380000I0J75000D01*
G01*
G37*
G36*
G01*
X130486500Y-91380000D02*
X130486500Y-90555000D01*
G75*
G02*
X130561500Y-90480000I75000J0D01*
G01*
X130711500Y-90480000D01*
G75*
G02*
X130786500Y-90555000I0J-75000D01*
G01*
X130786500Y-91380000D01*
G75*
G02*
X130711500Y-91455000I-75000J0D01*
G01*
X130561500Y-91455000D01*
G75*
G02*
X130486500Y-91380000I0J75000D01*
G01*
G37*
G36*
G01*
X131211500Y-92105000D02*
X131211500Y-91955000D01*
G75*
G02*
X131286500Y-91880000I75000J0D01*
G01*
X132111500Y-91880000D01*
G75*
G02*
X132186500Y-91955000I0J-75000D01*
G01*
X132186500Y-92105000D01*
G75*
G02*
X132111500Y-92180000I-75000J0D01*
G01*
X131286500Y-92180000D01*
G75*
G02*
X131211500Y-92105000I0J75000D01*
G01*
G37*
G36*
G01*
X131211500Y-92755000D02*
X131211500Y-92605000D01*
G75*
G02*
X131286500Y-92530000I75000J0D01*
G01*
X132111500Y-92530000D01*
G75*
G02*
X132186500Y-92605000I0J-75000D01*
G01*
X132186500Y-92755000D01*
G75*
G02*
X132111500Y-92830000I-75000J0D01*
G01*
X131286500Y-92830000D01*
G75*
G02*
X131211500Y-92755000I0J75000D01*
G01*
G37*
G36*
G01*
X131211500Y-93405000D02*
X131211500Y-93255000D01*
G75*
G02*
X131286500Y-93180000I75000J0D01*
G01*
X132111500Y-93180000D01*
G75*
G02*
X132186500Y-93255000I0J-75000D01*
G01*
X132186500Y-93405000D01*
G75*
G02*
X132111500Y-93480000I-75000J0D01*
G01*
X131286500Y-93480000D01*
G75*
G02*
X131211500Y-93405000I0J75000D01*
G01*
G37*
G36*
G01*
X131211500Y-94055000D02*
X131211500Y-93905000D01*
G75*
G02*
X131286500Y-93830000I75000J0D01*
G01*
X132111500Y-93830000D01*
G75*
G02*
X132186500Y-93905000I0J-75000D01*
G01*
X132186500Y-94055000D01*
G75*
G02*
X132111500Y-94130000I-75000J0D01*
G01*
X131286500Y-94130000D01*
G75*
G02*
X131211500Y-94055000I0J75000D01*
G01*
G37*
G36*
G01*
X131211500Y-94705000D02*
X131211500Y-94555000D01*
G75*
G02*
X131286500Y-94480000I75000J0D01*
G01*
X132111500Y-94480000D01*
G75*
G02*
X132186500Y-94555000I0J-75000D01*
G01*
X132186500Y-94705000D01*
G75*
G02*
X132111500Y-94780000I-75000J0D01*
G01*
X131286500Y-94780000D01*
G75*
G02*
X131211500Y-94705000I0J75000D01*
G01*
G37*
G36*
G01*
X130486500Y-96105000D02*
X130486500Y-95280000D01*
G75*
G02*
X130561500Y-95205000I75000J0D01*
G01*
X130711500Y-95205000D01*
G75*
G02*
X130786500Y-95280000I0J-75000D01*
G01*
X130786500Y-96105000D01*
G75*
G02*
X130711500Y-96180000I-75000J0D01*
G01*
X130561500Y-96180000D01*
G75*
G02*
X130486500Y-96105000I0J75000D01*
G01*
G37*
G36*
G01*
X129836500Y-96105000D02*
X129836500Y-95280000D01*
G75*
G02*
X129911500Y-95205000I75000J0D01*
G01*
X130061500Y-95205000D01*
G75*
G02*
X130136500Y-95280000I0J-75000D01*
G01*
X130136500Y-96105000D01*
G75*
G02*
X130061500Y-96180000I-75000J0D01*
G01*
X129911500Y-96180000D01*
G75*
G02*
X129836500Y-96105000I0J75000D01*
G01*
G37*
G36*
G01*
X129186500Y-96105000D02*
X129186500Y-95280000D01*
G75*
G02*
X129261500Y-95205000I75000J0D01*
G01*
X129411500Y-95205000D01*
G75*
G02*
X129486500Y-95280000I0J-75000D01*
G01*
X129486500Y-96105000D01*
G75*
G02*
X129411500Y-96180000I-75000J0D01*
G01*
X129261500Y-96180000D01*
G75*
G02*
X129186500Y-96105000I0J75000D01*
G01*
G37*
G36*
G01*
X128536500Y-96105000D02*
X128536500Y-95280000D01*
G75*
G02*
X128611500Y-95205000I75000J0D01*
G01*
X128761500Y-95205000D01*
G75*
G02*
X128836500Y-95280000I0J-75000D01*
G01*
X128836500Y-96105000D01*
G75*
G02*
X128761500Y-96180000I-75000J0D01*
G01*
X128611500Y-96180000D01*
G75*
G02*
X128536500Y-96105000I0J75000D01*
G01*
G37*
G36*
G01*
X127886500Y-96105000D02*
X127886500Y-95280000D01*
G75*
G02*
X127961500Y-95205000I75000J0D01*
G01*
X128111500Y-95205000D01*
G75*
G02*
X128186500Y-95280000I0J-75000D01*
G01*
X128186500Y-96105000D01*
G75*
G02*
X128111500Y-96180000I-75000J0D01*
G01*
X127961500Y-96180000D01*
G75*
G02*
X127886500Y-96105000I0J75000D01*
G01*
G37*
G36*
G01*
X126486500Y-94705000D02*
X126486500Y-94555000D01*
G75*
G02*
X126561500Y-94480000I75000J0D01*
G01*
X127386500Y-94480000D01*
G75*
G02*
X127461500Y-94555000I0J-75000D01*
G01*
X127461500Y-94705000D01*
G75*
G02*
X127386500Y-94780000I-75000J0D01*
G01*
X126561500Y-94780000D01*
G75*
G02*
X126486500Y-94705000I0J75000D01*
G01*
G37*
G36*
G01*
X126486500Y-94055000D02*
X126486500Y-93905000D01*
G75*
G02*
X126561500Y-93830000I75000J0D01*
G01*
X127386500Y-93830000D01*
G75*
G02*
X127461500Y-93905000I0J-75000D01*
G01*
X127461500Y-94055000D01*
G75*
G02*
X127386500Y-94130000I-75000J0D01*
G01*
X126561500Y-94130000D01*
G75*
G02*
X126486500Y-94055000I0J75000D01*
G01*
G37*
G36*
G01*
X126486500Y-93405000D02*
X126486500Y-93255000D01*
G75*
G02*
X126561500Y-93180000I75000J0D01*
G01*
X127386500Y-93180000D01*
G75*
G02*
X127461500Y-93255000I0J-75000D01*
G01*
X127461500Y-93405000D01*
G75*
G02*
X127386500Y-93480000I-75000J0D01*
G01*
X126561500Y-93480000D01*
G75*
G02*
X126486500Y-93405000I0J75000D01*
G01*
G37*
G36*
G01*
X126486500Y-92755000D02*
X126486500Y-92605000D01*
G75*
G02*
X126561500Y-92530000I75000J0D01*
G01*
X127386500Y-92530000D01*
G75*
G02*
X127461500Y-92605000I0J-75000D01*
G01*
X127461500Y-92755000D01*
G75*
G02*
X127386500Y-92830000I-75000J0D01*
G01*
X126561500Y-92830000D01*
G75*
G02*
X126486500Y-92755000I0J75000D01*
G01*
G37*
G36*
G01*
X126486500Y-92105000D02*
X126486500Y-91955000D01*
G75*
G02*
X126561500Y-91880000I75000J0D01*
G01*
X127386500Y-91880000D01*
G75*
G02*
X127461500Y-91955000I0J-75000D01*
G01*
X127461500Y-92105000D01*
G75*
G02*
X127386500Y-92180000I-75000J0D01*
G01*
X126561500Y-92180000D01*
G75*
G02*
X126486500Y-92105000I0J75000D01*
G01*
G37*
%TD*%
D35*
%TO.C,QFN-48*%
X165543000Y-108653000D03*
G36*
G01*
X162668000Y-105590500D02*
X162668000Y-104840500D01*
G75*
G02*
X162730500Y-104778000I62500J0D01*
G01*
X162855500Y-104778000D01*
G75*
G02*
X162918000Y-104840500I0J-62500D01*
G01*
X162918000Y-105590500D01*
G75*
G02*
X162855500Y-105653000I-62500J0D01*
G01*
X162730500Y-105653000D01*
G75*
G02*
X162668000Y-105590500I0J62500D01*
G01*
G37*
G36*
G01*
X163168000Y-105590500D02*
X163168000Y-104840500D01*
G75*
G02*
X163230500Y-104778000I62500J0D01*
G01*
X163355500Y-104778000D01*
G75*
G02*
X163418000Y-104840500I0J-62500D01*
G01*
X163418000Y-105590500D01*
G75*
G02*
X163355500Y-105653000I-62500J0D01*
G01*
X163230500Y-105653000D01*
G75*
G02*
X163168000Y-105590500I0J62500D01*
G01*
G37*
G36*
G01*
X163668000Y-105590500D02*
X163668000Y-104840500D01*
G75*
G02*
X163730500Y-104778000I62500J0D01*
G01*
X163855500Y-104778000D01*
G75*
G02*
X163918000Y-104840500I0J-62500D01*
G01*
X163918000Y-105590500D01*
G75*
G02*
X163855500Y-105653000I-62500J0D01*
G01*
X163730500Y-105653000D01*
G75*
G02*
X163668000Y-105590500I0J62500D01*
G01*
G37*
G36*
G01*
X164168000Y-105590500D02*
X164168000Y-104840500D01*
G75*
G02*
X164230500Y-104778000I62500J0D01*
G01*
X164355500Y-104778000D01*
G75*
G02*
X164418000Y-104840500I0J-62500D01*
G01*
X164418000Y-105590500D01*
G75*
G02*
X164355500Y-105653000I-62500J0D01*
G01*
X164230500Y-105653000D01*
G75*
G02*
X164168000Y-105590500I0J62500D01*
G01*
G37*
G36*
G01*
X164668000Y-105590500D02*
X164668000Y-104840500D01*
G75*
G02*
X164730500Y-104778000I62500J0D01*
G01*
X164855500Y-104778000D01*
G75*
G02*
X164918000Y-104840500I0J-62500D01*
G01*
X164918000Y-105590500D01*
G75*
G02*
X164855500Y-105653000I-62500J0D01*
G01*
X164730500Y-105653000D01*
G75*
G02*
X164668000Y-105590500I0J62500D01*
G01*
G37*
G36*
G01*
X165168000Y-105590500D02*
X165168000Y-104840500D01*
G75*
G02*
X165230500Y-104778000I62500J0D01*
G01*
X165355500Y-104778000D01*
G75*
G02*
X165418000Y-104840500I0J-62500D01*
G01*
X165418000Y-105590500D01*
G75*
G02*
X165355500Y-105653000I-62500J0D01*
G01*
X165230500Y-105653000D01*
G75*
G02*
X165168000Y-105590500I0J62500D01*
G01*
G37*
G36*
G01*
X165668000Y-105590500D02*
X165668000Y-104840500D01*
G75*
G02*
X165730500Y-104778000I62500J0D01*
G01*
X165855500Y-104778000D01*
G75*
G02*
X165918000Y-104840500I0J-62500D01*
G01*
X165918000Y-105590500D01*
G75*
G02*
X165855500Y-105653000I-62500J0D01*
G01*
X165730500Y-105653000D01*
G75*
G02*
X165668000Y-105590500I0J62500D01*
G01*
G37*
G36*
G01*
X166168000Y-105590500D02*
X166168000Y-104840500D01*
G75*
G02*
X166230500Y-104778000I62500J0D01*
G01*
X166355500Y-104778000D01*
G75*
G02*
X166418000Y-104840500I0J-62500D01*
G01*
X166418000Y-105590500D01*
G75*
G02*
X166355500Y-105653000I-62500J0D01*
G01*
X166230500Y-105653000D01*
G75*
G02*
X166168000Y-105590500I0J62500D01*
G01*
G37*
G36*
G01*
X166668000Y-105590500D02*
X166668000Y-104840500D01*
G75*
G02*
X166730500Y-104778000I62500J0D01*
G01*
X166855500Y-104778000D01*
G75*
G02*
X166918000Y-104840500I0J-62500D01*
G01*
X166918000Y-105590500D01*
G75*
G02*
X166855500Y-105653000I-62500J0D01*
G01*
X166730500Y-105653000D01*
G75*
G02*
X166668000Y-105590500I0J62500D01*
G01*
G37*
G36*
G01*
X167168000Y-105590500D02*
X167168000Y-104840500D01*
G75*
G02*
X167230500Y-104778000I62500J0D01*
G01*
X167355500Y-104778000D01*
G75*
G02*
X167418000Y-104840500I0J-62500D01*
G01*
X167418000Y-105590500D01*
G75*
G02*
X167355500Y-105653000I-62500J0D01*
G01*
X167230500Y-105653000D01*
G75*
G02*
X167168000Y-105590500I0J62500D01*
G01*
G37*
G36*
G01*
X167668000Y-105590500D02*
X167668000Y-104840500D01*
G75*
G02*
X167730500Y-104778000I62500J0D01*
G01*
X167855500Y-104778000D01*
G75*
G02*
X167918000Y-104840500I0J-62500D01*
G01*
X167918000Y-105590500D01*
G75*
G02*
X167855500Y-105653000I-62500J0D01*
G01*
X167730500Y-105653000D01*
G75*
G02*
X167668000Y-105590500I0J62500D01*
G01*
G37*
G36*
G01*
X168168000Y-105590500D02*
X168168000Y-104840500D01*
G75*
G02*
X168230500Y-104778000I62500J0D01*
G01*
X168355500Y-104778000D01*
G75*
G02*
X168418000Y-104840500I0J-62500D01*
G01*
X168418000Y-105590500D01*
G75*
G02*
X168355500Y-105653000I-62500J0D01*
G01*
X168230500Y-105653000D01*
G75*
G02*
X168168000Y-105590500I0J62500D01*
G01*
G37*
G36*
G01*
X168543000Y-105965500D02*
X168543000Y-105840500D01*
G75*
G02*
X168605500Y-105778000I62500J0D01*
G01*
X169355500Y-105778000D01*
G75*
G02*
X169418000Y-105840500I0J-62500D01*
G01*
X169418000Y-105965500D01*
G75*
G02*
X169355500Y-106028000I-62500J0D01*
G01*
X168605500Y-106028000D01*
G75*
G02*
X168543000Y-105965500I0J62500D01*
G01*
G37*
G36*
G01*
X168543000Y-106465500D02*
X168543000Y-106340500D01*
G75*
G02*
X168605500Y-106278000I62500J0D01*
G01*
X169355500Y-106278000D01*
G75*
G02*
X169418000Y-106340500I0J-62500D01*
G01*
X169418000Y-106465500D01*
G75*
G02*
X169355500Y-106528000I-62500J0D01*
G01*
X168605500Y-106528000D01*
G75*
G02*
X168543000Y-106465500I0J62500D01*
G01*
G37*
G36*
G01*
X168543000Y-106965500D02*
X168543000Y-106840500D01*
G75*
G02*
X168605500Y-106778000I62500J0D01*
G01*
X169355500Y-106778000D01*
G75*
G02*
X169418000Y-106840500I0J-62500D01*
G01*
X169418000Y-106965500D01*
G75*
G02*
X169355500Y-107028000I-62500J0D01*
G01*
X168605500Y-107028000D01*
G75*
G02*
X168543000Y-106965500I0J62500D01*
G01*
G37*
G36*
G01*
X168543000Y-107465500D02*
X168543000Y-107340500D01*
G75*
G02*
X168605500Y-107278000I62500J0D01*
G01*
X169355500Y-107278000D01*
G75*
G02*
X169418000Y-107340500I0J-62500D01*
G01*
X169418000Y-107465500D01*
G75*
G02*
X169355500Y-107528000I-62500J0D01*
G01*
X168605500Y-107528000D01*
G75*
G02*
X168543000Y-107465500I0J62500D01*
G01*
G37*
G36*
G01*
X168543000Y-107965500D02*
X168543000Y-107840500D01*
G75*
G02*
X168605500Y-107778000I62500J0D01*
G01*
X169355500Y-107778000D01*
G75*
G02*
X169418000Y-107840500I0J-62500D01*
G01*
X169418000Y-107965500D01*
G75*
G02*
X169355500Y-108028000I-62500J0D01*
G01*
X168605500Y-108028000D01*
G75*
G02*
X168543000Y-107965500I0J62500D01*
G01*
G37*
G36*
G01*
X168543000Y-108465500D02*
X168543000Y-108340500D01*
G75*
G02*
X168605500Y-108278000I62500J0D01*
G01*
X169355500Y-108278000D01*
G75*
G02*
X169418000Y-108340500I0J-62500D01*
G01*
X169418000Y-108465500D01*
G75*
G02*
X169355500Y-108528000I-62500J0D01*
G01*
X168605500Y-108528000D01*
G75*
G02*
X168543000Y-108465500I0J62500D01*
G01*
G37*
G36*
G01*
X168543000Y-108965500D02*
X168543000Y-108840500D01*
G75*
G02*
X168605500Y-108778000I62500J0D01*
G01*
X169355500Y-108778000D01*
G75*
G02*
X169418000Y-108840500I0J-62500D01*
G01*
X169418000Y-108965500D01*
G75*
G02*
X169355500Y-109028000I-62500J0D01*
G01*
X168605500Y-109028000D01*
G75*
G02*
X168543000Y-108965500I0J62500D01*
G01*
G37*
G36*
G01*
X168543000Y-109465500D02*
X168543000Y-109340500D01*
G75*
G02*
X168605500Y-109278000I62500J0D01*
G01*
X169355500Y-109278000D01*
G75*
G02*
X169418000Y-109340500I0J-62500D01*
G01*
X169418000Y-109465500D01*
G75*
G02*
X169355500Y-109528000I-62500J0D01*
G01*
X168605500Y-109528000D01*
G75*
G02*
X168543000Y-109465500I0J62500D01*
G01*
G37*
G36*
G01*
X168543000Y-109965500D02*
X168543000Y-109840500D01*
G75*
G02*
X168605500Y-109778000I62500J0D01*
G01*
X169355500Y-109778000D01*
G75*
G02*
X169418000Y-109840500I0J-62500D01*
G01*
X169418000Y-109965500D01*
G75*
G02*
X169355500Y-110028000I-62500J0D01*
G01*
X168605500Y-110028000D01*
G75*
G02*
X168543000Y-109965500I0J62500D01*
G01*
G37*
G36*
G01*
X168543000Y-110465500D02*
X168543000Y-110340500D01*
G75*
G02*
X168605500Y-110278000I62500J0D01*
G01*
X169355500Y-110278000D01*
G75*
G02*
X169418000Y-110340500I0J-62500D01*
G01*
X169418000Y-110465500D01*
G75*
G02*
X169355500Y-110528000I-62500J0D01*
G01*
X168605500Y-110528000D01*
G75*
G02*
X168543000Y-110465500I0J62500D01*
G01*
G37*
G36*
G01*
X168543000Y-110965500D02*
X168543000Y-110840500D01*
G75*
G02*
X168605500Y-110778000I62500J0D01*
G01*
X169355500Y-110778000D01*
G75*
G02*
X169418000Y-110840500I0J-62500D01*
G01*
X169418000Y-110965500D01*
G75*
G02*
X169355500Y-111028000I-62500J0D01*
G01*
X168605500Y-111028000D01*
G75*
G02*
X168543000Y-110965500I0J62500D01*
G01*
G37*
G36*
G01*
X168543000Y-111465500D02*
X168543000Y-111340500D01*
G75*
G02*
X168605500Y-111278000I62500J0D01*
G01*
X169355500Y-111278000D01*
G75*
G02*
X169418000Y-111340500I0J-62500D01*
G01*
X169418000Y-111465500D01*
G75*
G02*
X169355500Y-111528000I-62500J0D01*
G01*
X168605500Y-111528000D01*
G75*
G02*
X168543000Y-111465500I0J62500D01*
G01*
G37*
G36*
G01*
X168168000Y-112465500D02*
X168168000Y-111715500D01*
G75*
G02*
X168230500Y-111653000I62500J0D01*
G01*
X168355500Y-111653000D01*
G75*
G02*
X168418000Y-111715500I0J-62500D01*
G01*
X168418000Y-112465500D01*
G75*
G02*
X168355500Y-112528000I-62500J0D01*
G01*
X168230500Y-112528000D01*
G75*
G02*
X168168000Y-112465500I0J62500D01*
G01*
G37*
G36*
G01*
X167668000Y-112465500D02*
X167668000Y-111715500D01*
G75*
G02*
X167730500Y-111653000I62500J0D01*
G01*
X167855500Y-111653000D01*
G75*
G02*
X167918000Y-111715500I0J-62500D01*
G01*
X167918000Y-112465500D01*
G75*
G02*
X167855500Y-112528000I-62500J0D01*
G01*
X167730500Y-112528000D01*
G75*
G02*
X167668000Y-112465500I0J62500D01*
G01*
G37*
G36*
G01*
X167168000Y-112465500D02*
X167168000Y-111715500D01*
G75*
G02*
X167230500Y-111653000I62500J0D01*
G01*
X167355500Y-111653000D01*
G75*
G02*
X167418000Y-111715500I0J-62500D01*
G01*
X167418000Y-112465500D01*
G75*
G02*
X167355500Y-112528000I-62500J0D01*
G01*
X167230500Y-112528000D01*
G75*
G02*
X167168000Y-112465500I0J62500D01*
G01*
G37*
G36*
G01*
X166668000Y-112465500D02*
X166668000Y-111715500D01*
G75*
G02*
X166730500Y-111653000I62500J0D01*
G01*
X166855500Y-111653000D01*
G75*
G02*
X166918000Y-111715500I0J-62500D01*
G01*
X166918000Y-112465500D01*
G75*
G02*
X166855500Y-112528000I-62500J0D01*
G01*
X166730500Y-112528000D01*
G75*
G02*
X166668000Y-112465500I0J62500D01*
G01*
G37*
G36*
G01*
X166168000Y-112465500D02*
X166168000Y-111715500D01*
G75*
G02*
X166230500Y-111653000I62500J0D01*
G01*
X166355500Y-111653000D01*
G75*
G02*
X166418000Y-111715500I0J-62500D01*
G01*
X166418000Y-112465500D01*
G75*
G02*
X166355500Y-112528000I-62500J0D01*
G01*
X166230500Y-112528000D01*
G75*
G02*
X166168000Y-112465500I0J62500D01*
G01*
G37*
G36*
G01*
X165668000Y-112465500D02*
X165668000Y-111715500D01*
G75*
G02*
X165730500Y-111653000I62500J0D01*
G01*
X165855500Y-111653000D01*
G75*
G02*
X165918000Y-111715500I0J-62500D01*
G01*
X165918000Y-112465500D01*
G75*
G02*
X165855500Y-112528000I-62500J0D01*
G01*
X165730500Y-112528000D01*
G75*
G02*
X165668000Y-112465500I0J62500D01*
G01*
G37*
G36*
G01*
X165168000Y-112465500D02*
X165168000Y-111715500D01*
G75*
G02*
X165230500Y-111653000I62500J0D01*
G01*
X165355500Y-111653000D01*
G75*
G02*
X165418000Y-111715500I0J-62500D01*
G01*
X165418000Y-112465500D01*
G75*
G02*
X165355500Y-112528000I-62500J0D01*
G01*
X165230500Y-112528000D01*
G75*
G02*
X165168000Y-112465500I0J62500D01*
G01*
G37*
G36*
G01*
X164668000Y-112465500D02*
X164668000Y-111715500D01*
G75*
G02*
X164730500Y-111653000I62500J0D01*
G01*
X164855500Y-111653000D01*
G75*
G02*
X164918000Y-111715500I0J-62500D01*
G01*
X164918000Y-112465500D01*
G75*
G02*
X164855500Y-112528000I-62500J0D01*
G01*
X164730500Y-112528000D01*
G75*
G02*
X164668000Y-112465500I0J62500D01*
G01*
G37*
G36*
G01*
X164168000Y-112465500D02*
X164168000Y-111715500D01*
G75*
G02*
X164230500Y-111653000I62500J0D01*
G01*
X164355500Y-111653000D01*
G75*
G02*
X164418000Y-111715500I0J-62500D01*
G01*
X164418000Y-112465500D01*
G75*
G02*
X164355500Y-112528000I-62500J0D01*
G01*
X164230500Y-112528000D01*
G75*
G02*
X164168000Y-112465500I0J62500D01*
G01*
G37*
G36*
G01*
X163668000Y-112465500D02*
X163668000Y-111715500D01*
G75*
G02*
X163730500Y-111653000I62500J0D01*
G01*
X163855500Y-111653000D01*
G75*
G02*
X163918000Y-111715500I0J-62500D01*
G01*
X163918000Y-112465500D01*
G75*
G02*
X163855500Y-112528000I-62500J0D01*
G01*
X163730500Y-112528000D01*
G75*
G02*
X163668000Y-112465500I0J62500D01*
G01*
G37*
G36*
G01*
X163168000Y-112465500D02*
X163168000Y-111715500D01*
G75*
G02*
X163230500Y-111653000I62500J0D01*
G01*
X163355500Y-111653000D01*
G75*
G02*
X163418000Y-111715500I0J-62500D01*
G01*
X163418000Y-112465500D01*
G75*
G02*
X163355500Y-112528000I-62500J0D01*
G01*
X163230500Y-112528000D01*
G75*
G02*
X163168000Y-112465500I0J62500D01*
G01*
G37*
G36*
G01*
X162668000Y-112465500D02*
X162668000Y-111715500D01*
G75*
G02*
X162730500Y-111653000I62500J0D01*
G01*
X162855500Y-111653000D01*
G75*
G02*
X162918000Y-111715500I0J-62500D01*
G01*
X162918000Y-112465500D01*
G75*
G02*
X162855500Y-112528000I-62500J0D01*
G01*
X162730500Y-112528000D01*
G75*
G02*
X162668000Y-112465500I0J62500D01*
G01*
G37*
G36*
G01*
X161668000Y-111465500D02*
X161668000Y-111340500D01*
G75*
G02*
X161730500Y-111278000I62500J0D01*
G01*
X162480500Y-111278000D01*
G75*
G02*
X162543000Y-111340500I0J-62500D01*
G01*
X162543000Y-111465500D01*
G75*
G02*
X162480500Y-111528000I-62500J0D01*
G01*
X161730500Y-111528000D01*
G75*
G02*
X161668000Y-111465500I0J62500D01*
G01*
G37*
G36*
G01*
X161668000Y-110965500D02*
X161668000Y-110840500D01*
G75*
G02*
X161730500Y-110778000I62500J0D01*
G01*
X162480500Y-110778000D01*
G75*
G02*
X162543000Y-110840500I0J-62500D01*
G01*
X162543000Y-110965500D01*
G75*
G02*
X162480500Y-111028000I-62500J0D01*
G01*
X161730500Y-111028000D01*
G75*
G02*
X161668000Y-110965500I0J62500D01*
G01*
G37*
G36*
G01*
X161668000Y-110465500D02*
X161668000Y-110340500D01*
G75*
G02*
X161730500Y-110278000I62500J0D01*
G01*
X162480500Y-110278000D01*
G75*
G02*
X162543000Y-110340500I0J-62500D01*
G01*
X162543000Y-110465500D01*
G75*
G02*
X162480500Y-110528000I-62500J0D01*
G01*
X161730500Y-110528000D01*
G75*
G02*
X161668000Y-110465500I0J62500D01*
G01*
G37*
G36*
G01*
X161668000Y-109965500D02*
X161668000Y-109840500D01*
G75*
G02*
X161730500Y-109778000I62500J0D01*
G01*
X162480500Y-109778000D01*
G75*
G02*
X162543000Y-109840500I0J-62500D01*
G01*
X162543000Y-109965500D01*
G75*
G02*
X162480500Y-110028000I-62500J0D01*
G01*
X161730500Y-110028000D01*
G75*
G02*
X161668000Y-109965500I0J62500D01*
G01*
G37*
G36*
G01*
X161668000Y-109465500D02*
X161668000Y-109340500D01*
G75*
G02*
X161730500Y-109278000I62500J0D01*
G01*
X162480500Y-109278000D01*
G75*
G02*
X162543000Y-109340500I0J-62500D01*
G01*
X162543000Y-109465500D01*
G75*
G02*
X162480500Y-109528000I-62500J0D01*
G01*
X161730500Y-109528000D01*
G75*
G02*
X161668000Y-109465500I0J62500D01*
G01*
G37*
G36*
G01*
X161668000Y-108965500D02*
X161668000Y-108840500D01*
G75*
G02*
X161730500Y-108778000I62500J0D01*
G01*
X162480500Y-108778000D01*
G75*
G02*
X162543000Y-108840500I0J-62500D01*
G01*
X162543000Y-108965500D01*
G75*
G02*
X162480500Y-109028000I-62500J0D01*
G01*
X161730500Y-109028000D01*
G75*
G02*
X161668000Y-108965500I0J62500D01*
G01*
G37*
G36*
G01*
X161668000Y-108465500D02*
X161668000Y-108340500D01*
G75*
G02*
X161730500Y-108278000I62500J0D01*
G01*
X162480500Y-108278000D01*
G75*
G02*
X162543000Y-108340500I0J-62500D01*
G01*
X162543000Y-108465500D01*
G75*
G02*
X162480500Y-108528000I-62500J0D01*
G01*
X161730500Y-108528000D01*
G75*
G02*
X161668000Y-108465500I0J62500D01*
G01*
G37*
G36*
G01*
X161668000Y-107965500D02*
X161668000Y-107840500D01*
G75*
G02*
X161730500Y-107778000I62500J0D01*
G01*
X162480500Y-107778000D01*
G75*
G02*
X162543000Y-107840500I0J-62500D01*
G01*
X162543000Y-107965500D01*
G75*
G02*
X162480500Y-108028000I-62500J0D01*
G01*
X161730500Y-108028000D01*
G75*
G02*
X161668000Y-107965500I0J62500D01*
G01*
G37*
G36*
G01*
X161668000Y-107465500D02*
X161668000Y-107340500D01*
G75*
G02*
X161730500Y-107278000I62500J0D01*
G01*
X162480500Y-107278000D01*
G75*
G02*
X162543000Y-107340500I0J-62500D01*
G01*
X162543000Y-107465500D01*
G75*
G02*
X162480500Y-107528000I-62500J0D01*
G01*
X161730500Y-107528000D01*
G75*
G02*
X161668000Y-107465500I0J62500D01*
G01*
G37*
G36*
G01*
X161668000Y-106965500D02*
X161668000Y-106840500D01*
G75*
G02*
X161730500Y-106778000I62500J0D01*
G01*
X162480500Y-106778000D01*
G75*
G02*
X162543000Y-106840500I0J-62500D01*
G01*
X162543000Y-106965500D01*
G75*
G02*
X162480500Y-107028000I-62500J0D01*
G01*
X161730500Y-107028000D01*
G75*
G02*
X161668000Y-106965500I0J62500D01*
G01*
G37*
G36*
G01*
X161668000Y-106465500D02*
X161668000Y-106340500D01*
G75*
G02*
X161730500Y-106278000I62500J0D01*
G01*
X162480500Y-106278000D01*
G75*
G02*
X162543000Y-106340500I0J-62500D01*
G01*
X162543000Y-106465500D01*
G75*
G02*
X162480500Y-106528000I-62500J0D01*
G01*
X161730500Y-106528000D01*
G75*
G02*
X161668000Y-106465500I0J62500D01*
G01*
G37*
G36*
G01*
X161668000Y-105965500D02*
X161668000Y-105840500D01*
G75*
G02*
X161730500Y-105778000I62500J0D01*
G01*
X162480500Y-105778000D01*
G75*
G02*
X162543000Y-105840500I0J-62500D01*
G01*
X162543000Y-105965500D01*
G75*
G02*
X162480500Y-106028000I-62500J0D01*
G01*
X161730500Y-106028000D01*
G75*
G02*
X161668000Y-105965500I0J62500D01*
G01*
G37*
%TD*%
D36*
%TO.C,QFN-38*%
X127381000Y-119888000D03*
G36*
G01*
X130443500Y-118263000D02*
X131193500Y-118263000D01*
G75*
G02*
X131256000Y-118325500I0J-62500D01*
G01*
X131256000Y-118450500D01*
G75*
G02*
X131193500Y-118513000I-62500J0D01*
G01*
X130443500Y-118513000D01*
G75*
G02*
X130381000Y-118450500I0J62500D01*
G01*
X130381000Y-118325500D01*
G75*
G02*
X130443500Y-118263000I62500J0D01*
G01*
G37*
G36*
G01*
X130443500Y-118763000D02*
X131193500Y-118763000D01*
G75*
G02*
X131256000Y-118825500I0J-62500D01*
G01*
X131256000Y-118950500D01*
G75*
G02*
X131193500Y-119013000I-62500J0D01*
G01*
X130443500Y-119013000D01*
G75*
G02*
X130381000Y-118950500I0J62500D01*
G01*
X130381000Y-118825500D01*
G75*
G02*
X130443500Y-118763000I62500J0D01*
G01*
G37*
G36*
G01*
X130443500Y-119263000D02*
X131193500Y-119263000D01*
G75*
G02*
X131256000Y-119325500I0J-62500D01*
G01*
X131256000Y-119450500D01*
G75*
G02*
X131193500Y-119513000I-62500J0D01*
G01*
X130443500Y-119513000D01*
G75*
G02*
X130381000Y-119450500I0J62500D01*
G01*
X130381000Y-119325500D01*
G75*
G02*
X130443500Y-119263000I62500J0D01*
G01*
G37*
G36*
G01*
X130443500Y-119763000D02*
X131193500Y-119763000D01*
G75*
G02*
X131256000Y-119825500I0J-62500D01*
G01*
X131256000Y-119950500D01*
G75*
G02*
X131193500Y-120013000I-62500J0D01*
G01*
X130443500Y-120013000D01*
G75*
G02*
X130381000Y-119950500I0J62500D01*
G01*
X130381000Y-119825500D01*
G75*
G02*
X130443500Y-119763000I62500J0D01*
G01*
G37*
G36*
G01*
X130443500Y-120263000D02*
X131193500Y-120263000D01*
G75*
G02*
X131256000Y-120325500I0J-62500D01*
G01*
X131256000Y-120450500D01*
G75*
G02*
X131193500Y-120513000I-62500J0D01*
G01*
X130443500Y-120513000D01*
G75*
G02*
X130381000Y-120450500I0J62500D01*
G01*
X130381000Y-120325500D01*
G75*
G02*
X130443500Y-120263000I62500J0D01*
G01*
G37*
G36*
G01*
X130443500Y-120763000D02*
X131193500Y-120763000D01*
G75*
G02*
X131256000Y-120825500I0J-62500D01*
G01*
X131256000Y-120950500D01*
G75*
G02*
X131193500Y-121013000I-62500J0D01*
G01*
X130443500Y-121013000D01*
G75*
G02*
X130381000Y-120950500I0J62500D01*
G01*
X130381000Y-120825500D01*
G75*
G02*
X130443500Y-120763000I62500J0D01*
G01*
G37*
G36*
G01*
X130443500Y-121263000D02*
X131193500Y-121263000D01*
G75*
G02*
X131256000Y-121325500I0J-62500D01*
G01*
X131256000Y-121450500D01*
G75*
G02*
X131193500Y-121513000I-62500J0D01*
G01*
X130443500Y-121513000D01*
G75*
G02*
X130381000Y-121450500I0J62500D01*
G01*
X130381000Y-121325500D01*
G75*
G02*
X130443500Y-121263000I62500J0D01*
G01*
G37*
G36*
G01*
X130068500Y-121888000D02*
X130193500Y-121888000D01*
G75*
G02*
X130256000Y-121950500I0J-62500D01*
G01*
X130256000Y-122700500D01*
G75*
G02*
X130193500Y-122763000I-62500J0D01*
G01*
X130068500Y-122763000D01*
G75*
G02*
X130006000Y-122700500I0J62500D01*
G01*
X130006000Y-121950500D01*
G75*
G02*
X130068500Y-121888000I62500J0D01*
G01*
G37*
G36*
G01*
X129568500Y-121888000D02*
X129693500Y-121888000D01*
G75*
G02*
X129756000Y-121950500I0J-62500D01*
G01*
X129756000Y-122700500D01*
G75*
G02*
X129693500Y-122763000I-62500J0D01*
G01*
X129568500Y-122763000D01*
G75*
G02*
X129506000Y-122700500I0J62500D01*
G01*
X129506000Y-121950500D01*
G75*
G02*
X129568500Y-121888000I62500J0D01*
G01*
G37*
G36*
G01*
X129068500Y-121888000D02*
X129193500Y-121888000D01*
G75*
G02*
X129256000Y-121950500I0J-62500D01*
G01*
X129256000Y-122700500D01*
G75*
G02*
X129193500Y-122763000I-62500J0D01*
G01*
X129068500Y-122763000D01*
G75*
G02*
X129006000Y-122700500I0J62500D01*
G01*
X129006000Y-121950500D01*
G75*
G02*
X129068500Y-121888000I62500J0D01*
G01*
G37*
G36*
G01*
X128568500Y-121888000D02*
X128693500Y-121888000D01*
G75*
G02*
X128756000Y-121950500I0J-62500D01*
G01*
X128756000Y-122700500D01*
G75*
G02*
X128693500Y-122763000I-62500J0D01*
G01*
X128568500Y-122763000D01*
G75*
G02*
X128506000Y-122700500I0J62500D01*
G01*
X128506000Y-121950500D01*
G75*
G02*
X128568500Y-121888000I62500J0D01*
G01*
G37*
G36*
G01*
X128068500Y-121888000D02*
X128193500Y-121888000D01*
G75*
G02*
X128256000Y-121950500I0J-62500D01*
G01*
X128256000Y-122700500D01*
G75*
G02*
X128193500Y-122763000I-62500J0D01*
G01*
X128068500Y-122763000D01*
G75*
G02*
X128006000Y-122700500I0J62500D01*
G01*
X128006000Y-121950500D01*
G75*
G02*
X128068500Y-121888000I62500J0D01*
G01*
G37*
G36*
G01*
X127568500Y-121888000D02*
X127693500Y-121888000D01*
G75*
G02*
X127756000Y-121950500I0J-62500D01*
G01*
X127756000Y-122700500D01*
G75*
G02*
X127693500Y-122763000I-62500J0D01*
G01*
X127568500Y-122763000D01*
G75*
G02*
X127506000Y-122700500I0J62500D01*
G01*
X127506000Y-121950500D01*
G75*
G02*
X127568500Y-121888000I62500J0D01*
G01*
G37*
G36*
G01*
X127068500Y-121888000D02*
X127193500Y-121888000D01*
G75*
G02*
X127256000Y-121950500I0J-62500D01*
G01*
X127256000Y-122700500D01*
G75*
G02*
X127193500Y-122763000I-62500J0D01*
G01*
X127068500Y-122763000D01*
G75*
G02*
X127006000Y-122700500I0J62500D01*
G01*
X127006000Y-121950500D01*
G75*
G02*
X127068500Y-121888000I62500J0D01*
G01*
G37*
G36*
G01*
X126568500Y-121888000D02*
X126693500Y-121888000D01*
G75*
G02*
X126756000Y-121950500I0J-62500D01*
G01*
X126756000Y-122700500D01*
G75*
G02*
X126693500Y-122763000I-62500J0D01*
G01*
X126568500Y-122763000D01*
G75*
G02*
X126506000Y-122700500I0J62500D01*
G01*
X126506000Y-121950500D01*
G75*
G02*
X126568500Y-121888000I62500J0D01*
G01*
G37*
G36*
G01*
X126068500Y-121888000D02*
X126193500Y-121888000D01*
G75*
G02*
X126256000Y-121950500I0J-62500D01*
G01*
X126256000Y-122700500D01*
G75*
G02*
X126193500Y-122763000I-62500J0D01*
G01*
X126068500Y-122763000D01*
G75*
G02*
X126006000Y-122700500I0J62500D01*
G01*
X126006000Y-121950500D01*
G75*
G02*
X126068500Y-121888000I62500J0D01*
G01*
G37*
G36*
G01*
X125568500Y-121888000D02*
X125693500Y-121888000D01*
G75*
G02*
X125756000Y-121950500I0J-62500D01*
G01*
X125756000Y-122700500D01*
G75*
G02*
X125693500Y-122763000I-62500J0D01*
G01*
X125568500Y-122763000D01*
G75*
G02*
X125506000Y-122700500I0J62500D01*
G01*
X125506000Y-121950500D01*
G75*
G02*
X125568500Y-121888000I62500J0D01*
G01*
G37*
G36*
G01*
X125068500Y-121888000D02*
X125193500Y-121888000D01*
G75*
G02*
X125256000Y-121950500I0J-62500D01*
G01*
X125256000Y-122700500D01*
G75*
G02*
X125193500Y-122763000I-62500J0D01*
G01*
X125068500Y-122763000D01*
G75*
G02*
X125006000Y-122700500I0J62500D01*
G01*
X125006000Y-121950500D01*
G75*
G02*
X125068500Y-121888000I62500J0D01*
G01*
G37*
G36*
G01*
X124568500Y-121888000D02*
X124693500Y-121888000D01*
G75*
G02*
X124756000Y-121950500I0J-62500D01*
G01*
X124756000Y-122700500D01*
G75*
G02*
X124693500Y-122763000I-62500J0D01*
G01*
X124568500Y-122763000D01*
G75*
G02*
X124506000Y-122700500I0J62500D01*
G01*
X124506000Y-121950500D01*
G75*
G02*
X124568500Y-121888000I62500J0D01*
G01*
G37*
G36*
G01*
X123568500Y-121263000D02*
X124318500Y-121263000D01*
G75*
G02*
X124381000Y-121325500I0J-62500D01*
G01*
X124381000Y-121450500D01*
G75*
G02*
X124318500Y-121513000I-62500J0D01*
G01*
X123568500Y-121513000D01*
G75*
G02*
X123506000Y-121450500I0J62500D01*
G01*
X123506000Y-121325500D01*
G75*
G02*
X123568500Y-121263000I62500J0D01*
G01*
G37*
G36*
G01*
X123568500Y-120763000D02*
X124318500Y-120763000D01*
G75*
G02*
X124381000Y-120825500I0J-62500D01*
G01*
X124381000Y-120950500D01*
G75*
G02*
X124318500Y-121013000I-62500J0D01*
G01*
X123568500Y-121013000D01*
G75*
G02*
X123506000Y-120950500I0J62500D01*
G01*
X123506000Y-120825500D01*
G75*
G02*
X123568500Y-120763000I62500J0D01*
G01*
G37*
G36*
G01*
X123568500Y-120263000D02*
X124318500Y-120263000D01*
G75*
G02*
X124381000Y-120325500I0J-62500D01*
G01*
X124381000Y-120450500D01*
G75*
G02*
X124318500Y-120513000I-62500J0D01*
G01*
X123568500Y-120513000D01*
G75*
G02*
X123506000Y-120450500I0J62500D01*
G01*
X123506000Y-120325500D01*
G75*
G02*
X123568500Y-120263000I62500J0D01*
G01*
G37*
G36*
G01*
X123568500Y-119763000D02*
X124318500Y-119763000D01*
G75*
G02*
X124381000Y-119825500I0J-62500D01*
G01*
X124381000Y-119950500D01*
G75*
G02*
X124318500Y-120013000I-62500J0D01*
G01*
X123568500Y-120013000D01*
G75*
G02*
X123506000Y-119950500I0J62500D01*
G01*
X123506000Y-119825500D01*
G75*
G02*
X123568500Y-119763000I62500J0D01*
G01*
G37*
G36*
G01*
X123568500Y-119263000D02*
X124318500Y-119263000D01*
G75*
G02*
X124381000Y-119325500I0J-62500D01*
G01*
X124381000Y-119450500D01*
G75*
G02*
X124318500Y-119513000I-62500J0D01*
G01*
X123568500Y-119513000D01*
G75*
G02*
X123506000Y-119450500I0J62500D01*
G01*
X123506000Y-119325500D01*
G75*
G02*
X123568500Y-119263000I62500J0D01*
G01*
G37*
G36*
G01*
X123568500Y-118763000D02*
X124318500Y-118763000D01*
G75*
G02*
X124381000Y-118825500I0J-62500D01*
G01*
X124381000Y-118950500D01*
G75*
G02*
X124318500Y-119013000I-62500J0D01*
G01*
X123568500Y-119013000D01*
G75*
G02*
X123506000Y-118950500I0J62500D01*
G01*
X123506000Y-118825500D01*
G75*
G02*
X123568500Y-118763000I62500J0D01*
G01*
G37*
G36*
G01*
X123568500Y-118263000D02*
X124318500Y-118263000D01*
G75*
G02*
X124381000Y-118325500I0J-62500D01*
G01*
X124381000Y-118450500D01*
G75*
G02*
X124318500Y-118513000I-62500J0D01*
G01*
X123568500Y-118513000D01*
G75*
G02*
X123506000Y-118450500I0J62500D01*
G01*
X123506000Y-118325500D01*
G75*
G02*
X123568500Y-118263000I62500J0D01*
G01*
G37*
G36*
G01*
X124568500Y-117013000D02*
X124693500Y-117013000D01*
G75*
G02*
X124756000Y-117075500I0J-62500D01*
G01*
X124756000Y-117825500D01*
G75*
G02*
X124693500Y-117888000I-62500J0D01*
G01*
X124568500Y-117888000D01*
G75*
G02*
X124506000Y-117825500I0J62500D01*
G01*
X124506000Y-117075500D01*
G75*
G02*
X124568500Y-117013000I62500J0D01*
G01*
G37*
G36*
G01*
X125068500Y-117013000D02*
X125193500Y-117013000D01*
G75*
G02*
X125256000Y-117075500I0J-62500D01*
G01*
X125256000Y-117825500D01*
G75*
G02*
X125193500Y-117888000I-62500J0D01*
G01*
X125068500Y-117888000D01*
G75*
G02*
X125006000Y-117825500I0J62500D01*
G01*
X125006000Y-117075500D01*
G75*
G02*
X125068500Y-117013000I62500J0D01*
G01*
G37*
G36*
G01*
X125568500Y-117013000D02*
X125693500Y-117013000D01*
G75*
G02*
X125756000Y-117075500I0J-62500D01*
G01*
X125756000Y-117825500D01*
G75*
G02*
X125693500Y-117888000I-62500J0D01*
G01*
X125568500Y-117888000D01*
G75*
G02*
X125506000Y-117825500I0J62500D01*
G01*
X125506000Y-117075500D01*
G75*
G02*
X125568500Y-117013000I62500J0D01*
G01*
G37*
G36*
G01*
X126068500Y-117013000D02*
X126193500Y-117013000D01*
G75*
G02*
X126256000Y-117075500I0J-62500D01*
G01*
X126256000Y-117825500D01*
G75*
G02*
X126193500Y-117888000I-62500J0D01*
G01*
X126068500Y-117888000D01*
G75*
G02*
X126006000Y-117825500I0J62500D01*
G01*
X126006000Y-117075500D01*
G75*
G02*
X126068500Y-117013000I62500J0D01*
G01*
G37*
G36*
G01*
X126568500Y-117013000D02*
X126693500Y-117013000D01*
G75*
G02*
X126756000Y-117075500I0J-62500D01*
G01*
X126756000Y-117825500D01*
G75*
G02*
X126693500Y-117888000I-62500J0D01*
G01*
X126568500Y-117888000D01*
G75*
G02*
X126506000Y-117825500I0J62500D01*
G01*
X126506000Y-117075500D01*
G75*
G02*
X126568500Y-117013000I62500J0D01*
G01*
G37*
G36*
G01*
X127068500Y-117013000D02*
X127193500Y-117013000D01*
G75*
G02*
X127256000Y-117075500I0J-62500D01*
G01*
X127256000Y-117825500D01*
G75*
G02*
X127193500Y-117888000I-62500J0D01*
G01*
X127068500Y-117888000D01*
G75*
G02*
X127006000Y-117825500I0J62500D01*
G01*
X127006000Y-117075500D01*
G75*
G02*
X127068500Y-117013000I62500J0D01*
G01*
G37*
G36*
G01*
X127568500Y-117013000D02*
X127693500Y-117013000D01*
G75*
G02*
X127756000Y-117075500I0J-62500D01*
G01*
X127756000Y-117825500D01*
G75*
G02*
X127693500Y-117888000I-62500J0D01*
G01*
X127568500Y-117888000D01*
G75*
G02*
X127506000Y-117825500I0J62500D01*
G01*
X127506000Y-117075500D01*
G75*
G02*
X127568500Y-117013000I62500J0D01*
G01*
G37*
G36*
G01*
X128068500Y-117013000D02*
X128193500Y-117013000D01*
G75*
G02*
X128256000Y-117075500I0J-62500D01*
G01*
X128256000Y-117825500D01*
G75*
G02*
X128193500Y-117888000I-62500J0D01*
G01*
X128068500Y-117888000D01*
G75*
G02*
X128006000Y-117825500I0J62500D01*
G01*
X128006000Y-117075500D01*
G75*
G02*
X128068500Y-117013000I62500J0D01*
G01*
G37*
G36*
G01*
X128568500Y-117013000D02*
X128693500Y-117013000D01*
G75*
G02*
X128756000Y-117075500I0J-62500D01*
G01*
X128756000Y-117825500D01*
G75*
G02*
X128693500Y-117888000I-62500J0D01*
G01*
X128568500Y-117888000D01*
G75*
G02*
X128506000Y-117825500I0J62500D01*
G01*
X128506000Y-117075500D01*
G75*
G02*
X128568500Y-117013000I62500J0D01*
G01*
G37*
G36*
G01*
X129068500Y-117013000D02*
X129193500Y-117013000D01*
G75*
G02*
X129256000Y-117075500I0J-62500D01*
G01*
X129256000Y-117825500D01*
G75*
G02*
X129193500Y-117888000I-62500J0D01*
G01*
X129068500Y-117888000D01*
G75*
G02*
X129006000Y-117825500I0J62500D01*
G01*
X129006000Y-117075500D01*
G75*
G02*
X129068500Y-117013000I62500J0D01*
G01*
G37*
G36*
G01*
X129568500Y-117013000D02*
X129693500Y-117013000D01*
G75*
G02*
X129756000Y-117075500I0J-62500D01*
G01*
X129756000Y-117825500D01*
G75*
G02*
X129693500Y-117888000I-62500J0D01*
G01*
X129568500Y-117888000D01*
G75*
G02*
X129506000Y-117825500I0J62500D01*
G01*
X129506000Y-117075500D01*
G75*
G02*
X129568500Y-117013000I62500J0D01*
G01*
G37*
G36*
G01*
X130068500Y-117013000D02*
X130193500Y-117013000D01*
G75*
G02*
X130256000Y-117075500I0J-62500D01*
G01*
X130256000Y-117825500D01*
G75*
G02*
X130193500Y-117888000I-62500J0D01*
G01*
X130068500Y-117888000D01*
G75*
G02*
X130006000Y-117825500I0J62500D01*
G01*
X130006000Y-117075500D01*
G75*
G02*
X130068500Y-117013000I62500J0D01*
G01*
G37*
%TD*%
D37*
%TO.C,QFN-36*%
X144553000Y-112803000D03*
G36*
G01*
X142428000Y-110440500D02*
X142428000Y-109490500D01*
G75*
G02*
X142490500Y-109428000I62500J0D01*
G01*
X142615500Y-109428000D01*
G75*
G02*
X142678000Y-109490500I0J-62500D01*
G01*
X142678000Y-110440500D01*
G75*
G02*
X142615500Y-110503000I-62500J0D01*
G01*
X142490500Y-110503000D01*
G75*
G02*
X142428000Y-110440500I0J62500D01*
G01*
G37*
G36*
G01*
X142928000Y-110440500D02*
X142928000Y-109490500D01*
G75*
G02*
X142990500Y-109428000I62500J0D01*
G01*
X143115500Y-109428000D01*
G75*
G02*
X143178000Y-109490500I0J-62500D01*
G01*
X143178000Y-110440500D01*
G75*
G02*
X143115500Y-110503000I-62500J0D01*
G01*
X142990500Y-110503000D01*
G75*
G02*
X142928000Y-110440500I0J62500D01*
G01*
G37*
G36*
G01*
X143428000Y-110440500D02*
X143428000Y-109490500D01*
G75*
G02*
X143490500Y-109428000I62500J0D01*
G01*
X143615500Y-109428000D01*
G75*
G02*
X143678000Y-109490500I0J-62500D01*
G01*
X143678000Y-110440500D01*
G75*
G02*
X143615500Y-110503000I-62500J0D01*
G01*
X143490500Y-110503000D01*
G75*
G02*
X143428000Y-110440500I0J62500D01*
G01*
G37*
G36*
G01*
X143928000Y-110440500D02*
X143928000Y-109490500D01*
G75*
G02*
X143990500Y-109428000I62500J0D01*
G01*
X144115500Y-109428000D01*
G75*
G02*
X144178000Y-109490500I0J-62500D01*
G01*
X144178000Y-110440500D01*
G75*
G02*
X144115500Y-110503000I-62500J0D01*
G01*
X143990500Y-110503000D01*
G75*
G02*
X143928000Y-110440500I0J62500D01*
G01*
G37*
G36*
G01*
X144428000Y-110440500D02*
X144428000Y-109490500D01*
G75*
G02*
X144490500Y-109428000I62500J0D01*
G01*
X144615500Y-109428000D01*
G75*
G02*
X144678000Y-109490500I0J-62500D01*
G01*
X144678000Y-110440500D01*
G75*
G02*
X144615500Y-110503000I-62500J0D01*
G01*
X144490500Y-110503000D01*
G75*
G02*
X144428000Y-110440500I0J62500D01*
G01*
G37*
G36*
G01*
X144928000Y-110440500D02*
X144928000Y-109490500D01*
G75*
G02*
X144990500Y-109428000I62500J0D01*
G01*
X145115500Y-109428000D01*
G75*
G02*
X145178000Y-109490500I0J-62500D01*
G01*
X145178000Y-110440500D01*
G75*
G02*
X145115500Y-110503000I-62500J0D01*
G01*
X144990500Y-110503000D01*
G75*
G02*
X144928000Y-110440500I0J62500D01*
G01*
G37*
G36*
G01*
X145428000Y-110440500D02*
X145428000Y-109490500D01*
G75*
G02*
X145490500Y-109428000I62500J0D01*
G01*
X145615500Y-109428000D01*
G75*
G02*
X145678000Y-109490500I0J-62500D01*
G01*
X145678000Y-110440500D01*
G75*
G02*
X145615500Y-110503000I-62500J0D01*
G01*
X145490500Y-110503000D01*
G75*
G02*
X145428000Y-110440500I0J62500D01*
G01*
G37*
G36*
G01*
X145928000Y-110440500D02*
X145928000Y-109490500D01*
G75*
G02*
X145990500Y-109428000I62500J0D01*
G01*
X146115500Y-109428000D01*
G75*
G02*
X146178000Y-109490500I0J-62500D01*
G01*
X146178000Y-110440500D01*
G75*
G02*
X146115500Y-110503000I-62500J0D01*
G01*
X145990500Y-110503000D01*
G75*
G02*
X145928000Y-110440500I0J62500D01*
G01*
G37*
G36*
G01*
X146428000Y-110440500D02*
X146428000Y-109490500D01*
G75*
G02*
X146490500Y-109428000I62500J0D01*
G01*
X146615500Y-109428000D01*
G75*
G02*
X146678000Y-109490500I0J-62500D01*
G01*
X146678000Y-110440500D01*
G75*
G02*
X146615500Y-110503000I-62500J0D01*
G01*
X146490500Y-110503000D01*
G75*
G02*
X146428000Y-110440500I0J62500D01*
G01*
G37*
G36*
G01*
X146853000Y-110865500D02*
X146853000Y-110740500D01*
G75*
G02*
X146915500Y-110678000I62500J0D01*
G01*
X147865500Y-110678000D01*
G75*
G02*
X147928000Y-110740500I0J-62500D01*
G01*
X147928000Y-110865500D01*
G75*
G02*
X147865500Y-110928000I-62500J0D01*
G01*
X146915500Y-110928000D01*
G75*
G02*
X146853000Y-110865500I0J62500D01*
G01*
G37*
G36*
G01*
X146853000Y-111365500D02*
X146853000Y-111240500D01*
G75*
G02*
X146915500Y-111178000I62500J0D01*
G01*
X147865500Y-111178000D01*
G75*
G02*
X147928000Y-111240500I0J-62500D01*
G01*
X147928000Y-111365500D01*
G75*
G02*
X147865500Y-111428000I-62500J0D01*
G01*
X146915500Y-111428000D01*
G75*
G02*
X146853000Y-111365500I0J62500D01*
G01*
G37*
G36*
G01*
X146853000Y-111865500D02*
X146853000Y-111740500D01*
G75*
G02*
X146915500Y-111678000I62500J0D01*
G01*
X147865500Y-111678000D01*
G75*
G02*
X147928000Y-111740500I0J-62500D01*
G01*
X147928000Y-111865500D01*
G75*
G02*
X147865500Y-111928000I-62500J0D01*
G01*
X146915500Y-111928000D01*
G75*
G02*
X146853000Y-111865500I0J62500D01*
G01*
G37*
G36*
G01*
X146853000Y-112365500D02*
X146853000Y-112240500D01*
G75*
G02*
X146915500Y-112178000I62500J0D01*
G01*
X147865500Y-112178000D01*
G75*
G02*
X147928000Y-112240500I0J-62500D01*
G01*
X147928000Y-112365500D01*
G75*
G02*
X147865500Y-112428000I-62500J0D01*
G01*
X146915500Y-112428000D01*
G75*
G02*
X146853000Y-112365500I0J62500D01*
G01*
G37*
G36*
G01*
X146853000Y-112865500D02*
X146853000Y-112740500D01*
G75*
G02*
X146915500Y-112678000I62500J0D01*
G01*
X147865500Y-112678000D01*
G75*
G02*
X147928000Y-112740500I0J-62500D01*
G01*
X147928000Y-112865500D01*
G75*
G02*
X147865500Y-112928000I-62500J0D01*
G01*
X146915500Y-112928000D01*
G75*
G02*
X146853000Y-112865500I0J62500D01*
G01*
G37*
G36*
G01*
X146853000Y-113365500D02*
X146853000Y-113240500D01*
G75*
G02*
X146915500Y-113178000I62500J0D01*
G01*
X147865500Y-113178000D01*
G75*
G02*
X147928000Y-113240500I0J-62500D01*
G01*
X147928000Y-113365500D01*
G75*
G02*
X147865500Y-113428000I-62500J0D01*
G01*
X146915500Y-113428000D01*
G75*
G02*
X146853000Y-113365500I0J62500D01*
G01*
G37*
G36*
G01*
X146853000Y-113865500D02*
X146853000Y-113740500D01*
G75*
G02*
X146915500Y-113678000I62500J0D01*
G01*
X147865500Y-113678000D01*
G75*
G02*
X147928000Y-113740500I0J-62500D01*
G01*
X147928000Y-113865500D01*
G75*
G02*
X147865500Y-113928000I-62500J0D01*
G01*
X146915500Y-113928000D01*
G75*
G02*
X146853000Y-113865500I0J62500D01*
G01*
G37*
G36*
G01*
X146853000Y-114365500D02*
X146853000Y-114240500D01*
G75*
G02*
X146915500Y-114178000I62500J0D01*
G01*
X147865500Y-114178000D01*
G75*
G02*
X147928000Y-114240500I0J-62500D01*
G01*
X147928000Y-114365500D01*
G75*
G02*
X147865500Y-114428000I-62500J0D01*
G01*
X146915500Y-114428000D01*
G75*
G02*
X146853000Y-114365500I0J62500D01*
G01*
G37*
G36*
G01*
X146853000Y-114865500D02*
X146853000Y-114740500D01*
G75*
G02*
X146915500Y-114678000I62500J0D01*
G01*
X147865500Y-114678000D01*
G75*
G02*
X147928000Y-114740500I0J-62500D01*
G01*
X147928000Y-114865500D01*
G75*
G02*
X147865500Y-114928000I-62500J0D01*
G01*
X146915500Y-114928000D01*
G75*
G02*
X146853000Y-114865500I0J62500D01*
G01*
G37*
G36*
G01*
X146428000Y-116115500D02*
X146428000Y-115165500D01*
G75*
G02*
X146490500Y-115103000I62500J0D01*
G01*
X146615500Y-115103000D01*
G75*
G02*
X146678000Y-115165500I0J-62500D01*
G01*
X146678000Y-116115500D01*
G75*
G02*
X146615500Y-116178000I-62500J0D01*
G01*
X146490500Y-116178000D01*
G75*
G02*
X146428000Y-116115500I0J62500D01*
G01*
G37*
G36*
G01*
X145928000Y-116115500D02*
X145928000Y-115165500D01*
G75*
G02*
X145990500Y-115103000I62500J0D01*
G01*
X146115500Y-115103000D01*
G75*
G02*
X146178000Y-115165500I0J-62500D01*
G01*
X146178000Y-116115500D01*
G75*
G02*
X146115500Y-116178000I-62500J0D01*
G01*
X145990500Y-116178000D01*
G75*
G02*
X145928000Y-116115500I0J62500D01*
G01*
G37*
G36*
G01*
X145428000Y-116115500D02*
X145428000Y-115165500D01*
G75*
G02*
X145490500Y-115103000I62500J0D01*
G01*
X145615500Y-115103000D01*
G75*
G02*
X145678000Y-115165500I0J-62500D01*
G01*
X145678000Y-116115500D01*
G75*
G02*
X145615500Y-116178000I-62500J0D01*
G01*
X145490500Y-116178000D01*
G75*
G02*
X145428000Y-116115500I0J62500D01*
G01*
G37*
G36*
G01*
X144928000Y-116115500D02*
X144928000Y-115165500D01*
G75*
G02*
X144990500Y-115103000I62500J0D01*
G01*
X145115500Y-115103000D01*
G75*
G02*
X145178000Y-115165500I0J-62500D01*
G01*
X145178000Y-116115500D01*
G75*
G02*
X145115500Y-116178000I-62500J0D01*
G01*
X144990500Y-116178000D01*
G75*
G02*
X144928000Y-116115500I0J62500D01*
G01*
G37*
G36*
G01*
X144428000Y-116115500D02*
X144428000Y-115165500D01*
G75*
G02*
X144490500Y-115103000I62500J0D01*
G01*
X144615500Y-115103000D01*
G75*
G02*
X144678000Y-115165500I0J-62500D01*
G01*
X144678000Y-116115500D01*
G75*
G02*
X144615500Y-116178000I-62500J0D01*
G01*
X144490500Y-116178000D01*
G75*
G02*
X144428000Y-116115500I0J62500D01*
G01*
G37*
G36*
G01*
X143928000Y-116115500D02*
X143928000Y-115165500D01*
G75*
G02*
X143990500Y-115103000I62500J0D01*
G01*
X144115500Y-115103000D01*
G75*
G02*
X144178000Y-115165500I0J-62500D01*
G01*
X144178000Y-116115500D01*
G75*
G02*
X144115500Y-116178000I-62500J0D01*
G01*
X143990500Y-116178000D01*
G75*
G02*
X143928000Y-116115500I0J62500D01*
G01*
G37*
G36*
G01*
X143428000Y-116115500D02*
X143428000Y-115165500D01*
G75*
G02*
X143490500Y-115103000I62500J0D01*
G01*
X143615500Y-115103000D01*
G75*
G02*
X143678000Y-115165500I0J-62500D01*
G01*
X143678000Y-116115500D01*
G75*
G02*
X143615500Y-116178000I-62500J0D01*
G01*
X143490500Y-116178000D01*
G75*
G02*
X143428000Y-116115500I0J62500D01*
G01*
G37*
G36*
G01*
X142928000Y-116115500D02*
X142928000Y-115165500D01*
G75*
G02*
X142990500Y-115103000I62500J0D01*
G01*
X143115500Y-115103000D01*
G75*
G02*
X143178000Y-115165500I0J-62500D01*
G01*
X143178000Y-116115500D01*
G75*
G02*
X143115500Y-116178000I-62500J0D01*
G01*
X142990500Y-116178000D01*
G75*
G02*
X142928000Y-116115500I0J62500D01*
G01*
G37*
G36*
G01*
X142428000Y-116115500D02*
X142428000Y-115165500D01*
G75*
G02*
X142490500Y-115103000I62500J0D01*
G01*
X142615500Y-115103000D01*
G75*
G02*
X142678000Y-115165500I0J-62500D01*
G01*
X142678000Y-116115500D01*
G75*
G02*
X142615500Y-116178000I-62500J0D01*
G01*
X142490500Y-116178000D01*
G75*
G02*
X142428000Y-116115500I0J62500D01*
G01*
G37*
G36*
G01*
X141178000Y-114865500D02*
X141178000Y-114740500D01*
G75*
G02*
X141240500Y-114678000I62500J0D01*
G01*
X142190500Y-114678000D01*
G75*
G02*
X142253000Y-114740500I0J-62500D01*
G01*
X142253000Y-114865500D01*
G75*
G02*
X142190500Y-114928000I-62500J0D01*
G01*
X141240500Y-114928000D01*
G75*
G02*
X141178000Y-114865500I0J62500D01*
G01*
G37*
G36*
G01*
X141178000Y-114365500D02*
X141178000Y-114240500D01*
G75*
G02*
X141240500Y-114178000I62500J0D01*
G01*
X142190500Y-114178000D01*
G75*
G02*
X142253000Y-114240500I0J-62500D01*
G01*
X142253000Y-114365500D01*
G75*
G02*
X142190500Y-114428000I-62500J0D01*
G01*
X141240500Y-114428000D01*
G75*
G02*
X141178000Y-114365500I0J62500D01*
G01*
G37*
G36*
G01*
X141178000Y-113865500D02*
X141178000Y-113740500D01*
G75*
G02*
X141240500Y-113678000I62500J0D01*
G01*
X142190500Y-113678000D01*
G75*
G02*
X142253000Y-113740500I0J-62500D01*
G01*
X142253000Y-113865500D01*
G75*
G02*
X142190500Y-113928000I-62500J0D01*
G01*
X141240500Y-113928000D01*
G75*
G02*
X141178000Y-113865500I0J62500D01*
G01*
G37*
G36*
G01*
X141178000Y-113365500D02*
X141178000Y-113240500D01*
G75*
G02*
X141240500Y-113178000I62500J0D01*
G01*
X142190500Y-113178000D01*
G75*
G02*
X142253000Y-113240500I0J-62500D01*
G01*
X142253000Y-113365500D01*
G75*
G02*
X142190500Y-113428000I-62500J0D01*
G01*
X141240500Y-113428000D01*
G75*
G02*
X141178000Y-113365500I0J62500D01*
G01*
G37*
G36*
G01*
X141178000Y-112865500D02*
X141178000Y-112740500D01*
G75*
G02*
X141240500Y-112678000I62500J0D01*
G01*
X142190500Y-112678000D01*
G75*
G02*
X142253000Y-112740500I0J-62500D01*
G01*
X142253000Y-112865500D01*
G75*
G02*
X142190500Y-112928000I-62500J0D01*
G01*
X141240500Y-112928000D01*
G75*
G02*
X141178000Y-112865500I0J62500D01*
G01*
G37*
G36*
G01*
X141178000Y-112365500D02*
X141178000Y-112240500D01*
G75*
G02*
X141240500Y-112178000I62500J0D01*
G01*
X142190500Y-112178000D01*
G75*
G02*
X142253000Y-112240500I0J-62500D01*
G01*
X142253000Y-112365500D01*
G75*
G02*
X142190500Y-112428000I-62500J0D01*
G01*
X141240500Y-112428000D01*
G75*
G02*
X141178000Y-112365500I0J62500D01*
G01*
G37*
G36*
G01*
X141178000Y-111865500D02*
X141178000Y-111740500D01*
G75*
G02*
X141240500Y-111678000I62500J0D01*
G01*
X142190500Y-111678000D01*
G75*
G02*
X142253000Y-111740500I0J-62500D01*
G01*
X142253000Y-111865500D01*
G75*
G02*
X142190500Y-111928000I-62500J0D01*
G01*
X141240500Y-111928000D01*
G75*
G02*
X141178000Y-111865500I0J62500D01*
G01*
G37*
G36*
G01*
X141178000Y-111365500D02*
X141178000Y-111240500D01*
G75*
G02*
X141240500Y-111178000I62500J0D01*
G01*
X142190500Y-111178000D01*
G75*
G02*
X142253000Y-111240500I0J-62500D01*
G01*
X142253000Y-111365500D01*
G75*
G02*
X142190500Y-111428000I-62500J0D01*
G01*
X141240500Y-111428000D01*
G75*
G02*
X141178000Y-111365500I0J62500D01*
G01*
G37*
G36*
G01*
X141178000Y-110865500D02*
X141178000Y-110740500D01*
G75*
G02*
X141240500Y-110678000I62500J0D01*
G01*
X142190500Y-110678000D01*
G75*
G02*
X142253000Y-110740500I0J-62500D01*
G01*
X142253000Y-110865500D01*
G75*
G02*
X142190500Y-110928000I-62500J0D01*
G01*
X141240500Y-110928000D01*
G75*
G02*
X141178000Y-110865500I0J62500D01*
G01*
G37*
%TD*%
D38*
%TO.C,QFN-32*%
X128524000Y-112395000D03*
G36*
G01*
X126649000Y-110332500D02*
X126649000Y-109582500D01*
G75*
G02*
X126711500Y-109520000I62500J0D01*
G01*
X126836500Y-109520000D01*
G75*
G02*
X126899000Y-109582500I0J-62500D01*
G01*
X126899000Y-110332500D01*
G75*
G02*
X126836500Y-110395000I-62500J0D01*
G01*
X126711500Y-110395000D01*
G75*
G02*
X126649000Y-110332500I0J62500D01*
G01*
G37*
G36*
G01*
X127149000Y-110332500D02*
X127149000Y-109582500D01*
G75*
G02*
X127211500Y-109520000I62500J0D01*
G01*
X127336500Y-109520000D01*
G75*
G02*
X127399000Y-109582500I0J-62500D01*
G01*
X127399000Y-110332500D01*
G75*
G02*
X127336500Y-110395000I-62500J0D01*
G01*
X127211500Y-110395000D01*
G75*
G02*
X127149000Y-110332500I0J62500D01*
G01*
G37*
G36*
G01*
X127649000Y-110332500D02*
X127649000Y-109582500D01*
G75*
G02*
X127711500Y-109520000I62500J0D01*
G01*
X127836500Y-109520000D01*
G75*
G02*
X127899000Y-109582500I0J-62500D01*
G01*
X127899000Y-110332500D01*
G75*
G02*
X127836500Y-110395000I-62500J0D01*
G01*
X127711500Y-110395000D01*
G75*
G02*
X127649000Y-110332500I0J62500D01*
G01*
G37*
G36*
G01*
X128149000Y-110332500D02*
X128149000Y-109582500D01*
G75*
G02*
X128211500Y-109520000I62500J0D01*
G01*
X128336500Y-109520000D01*
G75*
G02*
X128399000Y-109582500I0J-62500D01*
G01*
X128399000Y-110332500D01*
G75*
G02*
X128336500Y-110395000I-62500J0D01*
G01*
X128211500Y-110395000D01*
G75*
G02*
X128149000Y-110332500I0J62500D01*
G01*
G37*
G36*
G01*
X128649000Y-110332500D02*
X128649000Y-109582500D01*
G75*
G02*
X128711500Y-109520000I62500J0D01*
G01*
X128836500Y-109520000D01*
G75*
G02*
X128899000Y-109582500I0J-62500D01*
G01*
X128899000Y-110332500D01*
G75*
G02*
X128836500Y-110395000I-62500J0D01*
G01*
X128711500Y-110395000D01*
G75*
G02*
X128649000Y-110332500I0J62500D01*
G01*
G37*
G36*
G01*
X129149000Y-110332500D02*
X129149000Y-109582500D01*
G75*
G02*
X129211500Y-109520000I62500J0D01*
G01*
X129336500Y-109520000D01*
G75*
G02*
X129399000Y-109582500I0J-62500D01*
G01*
X129399000Y-110332500D01*
G75*
G02*
X129336500Y-110395000I-62500J0D01*
G01*
X129211500Y-110395000D01*
G75*
G02*
X129149000Y-110332500I0J62500D01*
G01*
G37*
G36*
G01*
X129649000Y-110332500D02*
X129649000Y-109582500D01*
G75*
G02*
X129711500Y-109520000I62500J0D01*
G01*
X129836500Y-109520000D01*
G75*
G02*
X129899000Y-109582500I0J-62500D01*
G01*
X129899000Y-110332500D01*
G75*
G02*
X129836500Y-110395000I-62500J0D01*
G01*
X129711500Y-110395000D01*
G75*
G02*
X129649000Y-110332500I0J62500D01*
G01*
G37*
G36*
G01*
X130149000Y-110332500D02*
X130149000Y-109582500D01*
G75*
G02*
X130211500Y-109520000I62500J0D01*
G01*
X130336500Y-109520000D01*
G75*
G02*
X130399000Y-109582500I0J-62500D01*
G01*
X130399000Y-110332500D01*
G75*
G02*
X130336500Y-110395000I-62500J0D01*
G01*
X130211500Y-110395000D01*
G75*
G02*
X130149000Y-110332500I0J62500D01*
G01*
G37*
G36*
G01*
X130524000Y-110707500D02*
X130524000Y-110582500D01*
G75*
G02*
X130586500Y-110520000I62500J0D01*
G01*
X131336500Y-110520000D01*
G75*
G02*
X131399000Y-110582500I0J-62500D01*
G01*
X131399000Y-110707500D01*
G75*
G02*
X131336500Y-110770000I-62500J0D01*
G01*
X130586500Y-110770000D01*
G75*
G02*
X130524000Y-110707500I0J62500D01*
G01*
G37*
G36*
G01*
X130524000Y-111207500D02*
X130524000Y-111082500D01*
G75*
G02*
X130586500Y-111020000I62500J0D01*
G01*
X131336500Y-111020000D01*
G75*
G02*
X131399000Y-111082500I0J-62500D01*
G01*
X131399000Y-111207500D01*
G75*
G02*
X131336500Y-111270000I-62500J0D01*
G01*
X130586500Y-111270000D01*
G75*
G02*
X130524000Y-111207500I0J62500D01*
G01*
G37*
G36*
G01*
X130524000Y-111707500D02*
X130524000Y-111582500D01*
G75*
G02*
X130586500Y-111520000I62500J0D01*
G01*
X131336500Y-111520000D01*
G75*
G02*
X131399000Y-111582500I0J-62500D01*
G01*
X131399000Y-111707500D01*
G75*
G02*
X131336500Y-111770000I-62500J0D01*
G01*
X130586500Y-111770000D01*
G75*
G02*
X130524000Y-111707500I0J62500D01*
G01*
G37*
G36*
G01*
X130524000Y-112207500D02*
X130524000Y-112082500D01*
G75*
G02*
X130586500Y-112020000I62500J0D01*
G01*
X131336500Y-112020000D01*
G75*
G02*
X131399000Y-112082500I0J-62500D01*
G01*
X131399000Y-112207500D01*
G75*
G02*
X131336500Y-112270000I-62500J0D01*
G01*
X130586500Y-112270000D01*
G75*
G02*
X130524000Y-112207500I0J62500D01*
G01*
G37*
G36*
G01*
X130524000Y-112707500D02*
X130524000Y-112582500D01*
G75*
G02*
X130586500Y-112520000I62500J0D01*
G01*
X131336500Y-112520000D01*
G75*
G02*
X131399000Y-112582500I0J-62500D01*
G01*
X131399000Y-112707500D01*
G75*
G02*
X131336500Y-112770000I-62500J0D01*
G01*
X130586500Y-112770000D01*
G75*
G02*
X130524000Y-112707500I0J62500D01*
G01*
G37*
G36*
G01*
X130524000Y-113207500D02*
X130524000Y-113082500D01*
G75*
G02*
X130586500Y-113020000I62500J0D01*
G01*
X131336500Y-113020000D01*
G75*
G02*
X131399000Y-113082500I0J-62500D01*
G01*
X131399000Y-113207500D01*
G75*
G02*
X131336500Y-113270000I-62500J0D01*
G01*
X130586500Y-113270000D01*
G75*
G02*
X130524000Y-113207500I0J62500D01*
G01*
G37*
G36*
G01*
X130524000Y-113707500D02*
X130524000Y-113582500D01*
G75*
G02*
X130586500Y-113520000I62500J0D01*
G01*
X131336500Y-113520000D01*
G75*
G02*
X131399000Y-113582500I0J-62500D01*
G01*
X131399000Y-113707500D01*
G75*
G02*
X131336500Y-113770000I-62500J0D01*
G01*
X130586500Y-113770000D01*
G75*
G02*
X130524000Y-113707500I0J62500D01*
G01*
G37*
G36*
G01*
X130524000Y-114207500D02*
X130524000Y-114082500D01*
G75*
G02*
X130586500Y-114020000I62500J0D01*
G01*
X131336500Y-114020000D01*
G75*
G02*
X131399000Y-114082500I0J-62500D01*
G01*
X131399000Y-114207500D01*
G75*
G02*
X131336500Y-114270000I-62500J0D01*
G01*
X130586500Y-114270000D01*
G75*
G02*
X130524000Y-114207500I0J62500D01*
G01*
G37*
G36*
G01*
X130149000Y-115207500D02*
X130149000Y-114457500D01*
G75*
G02*
X130211500Y-114395000I62500J0D01*
G01*
X130336500Y-114395000D01*
G75*
G02*
X130399000Y-114457500I0J-62500D01*
G01*
X130399000Y-115207500D01*
G75*
G02*
X130336500Y-115270000I-62500J0D01*
G01*
X130211500Y-115270000D01*
G75*
G02*
X130149000Y-115207500I0J62500D01*
G01*
G37*
G36*
G01*
X129649000Y-115207500D02*
X129649000Y-114457500D01*
G75*
G02*
X129711500Y-114395000I62500J0D01*
G01*
X129836500Y-114395000D01*
G75*
G02*
X129899000Y-114457500I0J-62500D01*
G01*
X129899000Y-115207500D01*
G75*
G02*
X129836500Y-115270000I-62500J0D01*
G01*
X129711500Y-115270000D01*
G75*
G02*
X129649000Y-115207500I0J62500D01*
G01*
G37*
G36*
G01*
X129149000Y-115207500D02*
X129149000Y-114457500D01*
G75*
G02*
X129211500Y-114395000I62500J0D01*
G01*
X129336500Y-114395000D01*
G75*
G02*
X129399000Y-114457500I0J-62500D01*
G01*
X129399000Y-115207500D01*
G75*
G02*
X129336500Y-115270000I-62500J0D01*
G01*
X129211500Y-115270000D01*
G75*
G02*
X129149000Y-115207500I0J62500D01*
G01*
G37*
G36*
G01*
X128649000Y-115207500D02*
X128649000Y-114457500D01*
G75*
G02*
X128711500Y-114395000I62500J0D01*
G01*
X128836500Y-114395000D01*
G75*
G02*
X128899000Y-114457500I0J-62500D01*
G01*
X128899000Y-115207500D01*
G75*
G02*
X128836500Y-115270000I-62500J0D01*
G01*
X128711500Y-115270000D01*
G75*
G02*
X128649000Y-115207500I0J62500D01*
G01*
G37*
G36*
G01*
X128149000Y-115207500D02*
X128149000Y-114457500D01*
G75*
G02*
X128211500Y-114395000I62500J0D01*
G01*
X128336500Y-114395000D01*
G75*
G02*
X128399000Y-114457500I0J-62500D01*
G01*
X128399000Y-115207500D01*
G75*
G02*
X128336500Y-115270000I-62500J0D01*
G01*
X128211500Y-115270000D01*
G75*
G02*
X128149000Y-115207500I0J62500D01*
G01*
G37*
G36*
G01*
X127649000Y-115207500D02*
X127649000Y-114457500D01*
G75*
G02*
X127711500Y-114395000I62500J0D01*
G01*
X127836500Y-114395000D01*
G75*
G02*
X127899000Y-114457500I0J-62500D01*
G01*
X127899000Y-115207500D01*
G75*
G02*
X127836500Y-115270000I-62500J0D01*
G01*
X127711500Y-115270000D01*
G75*
G02*
X127649000Y-115207500I0J62500D01*
G01*
G37*
G36*
G01*
X127149000Y-115207500D02*
X127149000Y-114457500D01*
G75*
G02*
X127211500Y-114395000I62500J0D01*
G01*
X127336500Y-114395000D01*
G75*
G02*
X127399000Y-114457500I0J-62500D01*
G01*
X127399000Y-115207500D01*
G75*
G02*
X127336500Y-115270000I-62500J0D01*
G01*
X127211500Y-115270000D01*
G75*
G02*
X127149000Y-115207500I0J62500D01*
G01*
G37*
G36*
G01*
X126649000Y-115207500D02*
X126649000Y-114457500D01*
G75*
G02*
X126711500Y-114395000I62500J0D01*
G01*
X126836500Y-114395000D01*
G75*
G02*
X126899000Y-114457500I0J-62500D01*
G01*
X126899000Y-115207500D01*
G75*
G02*
X126836500Y-115270000I-62500J0D01*
G01*
X126711500Y-115270000D01*
G75*
G02*
X126649000Y-115207500I0J62500D01*
G01*
G37*
G36*
G01*
X125649000Y-114207500D02*
X125649000Y-114082500D01*
G75*
G02*
X125711500Y-114020000I62500J0D01*
G01*
X126461500Y-114020000D01*
G75*
G02*
X126524000Y-114082500I0J-62500D01*
G01*
X126524000Y-114207500D01*
G75*
G02*
X126461500Y-114270000I-62500J0D01*
G01*
X125711500Y-114270000D01*
G75*
G02*
X125649000Y-114207500I0J62500D01*
G01*
G37*
G36*
G01*
X125649000Y-113707500D02*
X125649000Y-113582500D01*
G75*
G02*
X125711500Y-113520000I62500J0D01*
G01*
X126461500Y-113520000D01*
G75*
G02*
X126524000Y-113582500I0J-62500D01*
G01*
X126524000Y-113707500D01*
G75*
G02*
X126461500Y-113770000I-62500J0D01*
G01*
X125711500Y-113770000D01*
G75*
G02*
X125649000Y-113707500I0J62500D01*
G01*
G37*
G36*
G01*
X125649000Y-113207500D02*
X125649000Y-113082500D01*
G75*
G02*
X125711500Y-113020000I62500J0D01*
G01*
X126461500Y-113020000D01*
G75*
G02*
X126524000Y-113082500I0J-62500D01*
G01*
X126524000Y-113207500D01*
G75*
G02*
X126461500Y-113270000I-62500J0D01*
G01*
X125711500Y-113270000D01*
G75*
G02*
X125649000Y-113207500I0J62500D01*
G01*
G37*
G36*
G01*
X125649000Y-112707500D02*
X125649000Y-112582500D01*
G75*
G02*
X125711500Y-112520000I62500J0D01*
G01*
X126461500Y-112520000D01*
G75*
G02*
X126524000Y-112582500I0J-62500D01*
G01*
X126524000Y-112707500D01*
G75*
G02*
X126461500Y-112770000I-62500J0D01*
G01*
X125711500Y-112770000D01*
G75*
G02*
X125649000Y-112707500I0J62500D01*
G01*
G37*
G36*
G01*
X125649000Y-112207500D02*
X125649000Y-112082500D01*
G75*
G02*
X125711500Y-112020000I62500J0D01*
G01*
X126461500Y-112020000D01*
G75*
G02*
X126524000Y-112082500I0J-62500D01*
G01*
X126524000Y-112207500D01*
G75*
G02*
X126461500Y-112270000I-62500J0D01*
G01*
X125711500Y-112270000D01*
G75*
G02*
X125649000Y-112207500I0J62500D01*
G01*
G37*
G36*
G01*
X125649000Y-111707500D02*
X125649000Y-111582500D01*
G75*
G02*
X125711500Y-111520000I62500J0D01*
G01*
X126461500Y-111520000D01*
G75*
G02*
X126524000Y-111582500I0J-62500D01*
G01*
X126524000Y-111707500D01*
G75*
G02*
X126461500Y-111770000I-62500J0D01*
G01*
X125711500Y-111770000D01*
G75*
G02*
X125649000Y-111707500I0J62500D01*
G01*
G37*
G36*
G01*
X125649000Y-111207500D02*
X125649000Y-111082500D01*
G75*
G02*
X125711500Y-111020000I62500J0D01*
G01*
X126461500Y-111020000D01*
G75*
G02*
X126524000Y-111082500I0J-62500D01*
G01*
X126524000Y-111207500D01*
G75*
G02*
X126461500Y-111270000I-62500J0D01*
G01*
X125711500Y-111270000D01*
G75*
G02*
X125649000Y-111207500I0J62500D01*
G01*
G37*
G36*
G01*
X125649000Y-110707500D02*
X125649000Y-110582500D01*
G75*
G02*
X125711500Y-110520000I62500J0D01*
G01*
X126461500Y-110520000D01*
G75*
G02*
X126524000Y-110582500I0J-62500D01*
G01*
X126524000Y-110707500D01*
G75*
G02*
X126461500Y-110770000I-62500J0D01*
G01*
X125711500Y-110770000D01*
G75*
G02*
X125649000Y-110707500I0J62500D01*
G01*
G37*
%TD*%
D39*
%TO.C,QFN-28*%
X136017000Y-112776000D03*
G36*
G01*
X133917000Y-110101000D02*
X133917000Y-109476000D01*
G75*
G02*
X133992000Y-109401000I75000J0D01*
G01*
X134142000Y-109401000D01*
G75*
G02*
X134217000Y-109476000I0J-75000D01*
G01*
X134217000Y-110101000D01*
G75*
G02*
X134142000Y-110176000I-75000J0D01*
G01*
X133992000Y-110176000D01*
G75*
G02*
X133917000Y-110101000I0J75000D01*
G01*
G37*
G36*
G01*
X134567000Y-110101000D02*
X134567000Y-109476000D01*
G75*
G02*
X134642000Y-109401000I75000J0D01*
G01*
X134792000Y-109401000D01*
G75*
G02*
X134867000Y-109476000I0J-75000D01*
G01*
X134867000Y-110101000D01*
G75*
G02*
X134792000Y-110176000I-75000J0D01*
G01*
X134642000Y-110176000D01*
G75*
G02*
X134567000Y-110101000I0J75000D01*
G01*
G37*
G36*
G01*
X135217000Y-110101000D02*
X135217000Y-109476000D01*
G75*
G02*
X135292000Y-109401000I75000J0D01*
G01*
X135442000Y-109401000D01*
G75*
G02*
X135517000Y-109476000I0J-75000D01*
G01*
X135517000Y-110101000D01*
G75*
G02*
X135442000Y-110176000I-75000J0D01*
G01*
X135292000Y-110176000D01*
G75*
G02*
X135217000Y-110101000I0J75000D01*
G01*
G37*
G36*
G01*
X135867000Y-110101000D02*
X135867000Y-109476000D01*
G75*
G02*
X135942000Y-109401000I75000J0D01*
G01*
X136092000Y-109401000D01*
G75*
G02*
X136167000Y-109476000I0J-75000D01*
G01*
X136167000Y-110101000D01*
G75*
G02*
X136092000Y-110176000I-75000J0D01*
G01*
X135942000Y-110176000D01*
G75*
G02*
X135867000Y-110101000I0J75000D01*
G01*
G37*
G36*
G01*
X136517000Y-110101000D02*
X136517000Y-109476000D01*
G75*
G02*
X136592000Y-109401000I75000J0D01*
G01*
X136742000Y-109401000D01*
G75*
G02*
X136817000Y-109476000I0J-75000D01*
G01*
X136817000Y-110101000D01*
G75*
G02*
X136742000Y-110176000I-75000J0D01*
G01*
X136592000Y-110176000D01*
G75*
G02*
X136517000Y-110101000I0J75000D01*
G01*
G37*
G36*
G01*
X137167000Y-110101000D02*
X137167000Y-109476000D01*
G75*
G02*
X137242000Y-109401000I75000J0D01*
G01*
X137392000Y-109401000D01*
G75*
G02*
X137467000Y-109476000I0J-75000D01*
G01*
X137467000Y-110101000D01*
G75*
G02*
X137392000Y-110176000I-75000J0D01*
G01*
X137242000Y-110176000D01*
G75*
G02*
X137167000Y-110101000I0J75000D01*
G01*
G37*
G36*
G01*
X137817000Y-110101000D02*
X137817000Y-109476000D01*
G75*
G02*
X137892000Y-109401000I75000J0D01*
G01*
X138042000Y-109401000D01*
G75*
G02*
X138117000Y-109476000I0J-75000D01*
G01*
X138117000Y-110101000D01*
G75*
G02*
X138042000Y-110176000I-75000J0D01*
G01*
X137892000Y-110176000D01*
G75*
G02*
X137817000Y-110101000I0J75000D01*
G01*
G37*
G36*
G01*
X138617000Y-110901000D02*
X138617000Y-110751000D01*
G75*
G02*
X138692000Y-110676000I75000J0D01*
G01*
X139317000Y-110676000D01*
G75*
G02*
X139392000Y-110751000I0J-75000D01*
G01*
X139392000Y-110901000D01*
G75*
G02*
X139317000Y-110976000I-75000J0D01*
G01*
X138692000Y-110976000D01*
G75*
G02*
X138617000Y-110901000I0J75000D01*
G01*
G37*
G36*
G01*
X138617000Y-111551000D02*
X138617000Y-111401000D01*
G75*
G02*
X138692000Y-111326000I75000J0D01*
G01*
X139317000Y-111326000D01*
G75*
G02*
X139392000Y-111401000I0J-75000D01*
G01*
X139392000Y-111551000D01*
G75*
G02*
X139317000Y-111626000I-75000J0D01*
G01*
X138692000Y-111626000D01*
G75*
G02*
X138617000Y-111551000I0J75000D01*
G01*
G37*
G36*
G01*
X138617000Y-112201000D02*
X138617000Y-112051000D01*
G75*
G02*
X138692000Y-111976000I75000J0D01*
G01*
X139317000Y-111976000D01*
G75*
G02*
X139392000Y-112051000I0J-75000D01*
G01*
X139392000Y-112201000D01*
G75*
G02*
X139317000Y-112276000I-75000J0D01*
G01*
X138692000Y-112276000D01*
G75*
G02*
X138617000Y-112201000I0J75000D01*
G01*
G37*
G36*
G01*
X138617000Y-112851000D02*
X138617000Y-112701000D01*
G75*
G02*
X138692000Y-112626000I75000J0D01*
G01*
X139317000Y-112626000D01*
G75*
G02*
X139392000Y-112701000I0J-75000D01*
G01*
X139392000Y-112851000D01*
G75*
G02*
X139317000Y-112926000I-75000J0D01*
G01*
X138692000Y-112926000D01*
G75*
G02*
X138617000Y-112851000I0J75000D01*
G01*
G37*
G36*
G01*
X138617000Y-113501000D02*
X138617000Y-113351000D01*
G75*
G02*
X138692000Y-113276000I75000J0D01*
G01*
X139317000Y-113276000D01*
G75*
G02*
X139392000Y-113351000I0J-75000D01*
G01*
X139392000Y-113501000D01*
G75*
G02*
X139317000Y-113576000I-75000J0D01*
G01*
X138692000Y-113576000D01*
G75*
G02*
X138617000Y-113501000I0J75000D01*
G01*
G37*
G36*
G01*
X138617000Y-114151000D02*
X138617000Y-114001000D01*
G75*
G02*
X138692000Y-113926000I75000J0D01*
G01*
X139317000Y-113926000D01*
G75*
G02*
X139392000Y-114001000I0J-75000D01*
G01*
X139392000Y-114151000D01*
G75*
G02*
X139317000Y-114226000I-75000J0D01*
G01*
X138692000Y-114226000D01*
G75*
G02*
X138617000Y-114151000I0J75000D01*
G01*
G37*
G36*
G01*
X138617000Y-114801000D02*
X138617000Y-114651000D01*
G75*
G02*
X138692000Y-114576000I75000J0D01*
G01*
X139317000Y-114576000D01*
G75*
G02*
X139392000Y-114651000I0J-75000D01*
G01*
X139392000Y-114801000D01*
G75*
G02*
X139317000Y-114876000I-75000J0D01*
G01*
X138692000Y-114876000D01*
G75*
G02*
X138617000Y-114801000I0J75000D01*
G01*
G37*
G36*
G01*
X137817000Y-116076000D02*
X137817000Y-115451000D01*
G75*
G02*
X137892000Y-115376000I75000J0D01*
G01*
X138042000Y-115376000D01*
G75*
G02*
X138117000Y-115451000I0J-75000D01*
G01*
X138117000Y-116076000D01*
G75*
G02*
X138042000Y-116151000I-75000J0D01*
G01*
X137892000Y-116151000D01*
G75*
G02*
X137817000Y-116076000I0J75000D01*
G01*
G37*
G36*
G01*
X137167000Y-116076000D02*
X137167000Y-115451000D01*
G75*
G02*
X137242000Y-115376000I75000J0D01*
G01*
X137392000Y-115376000D01*
G75*
G02*
X137467000Y-115451000I0J-75000D01*
G01*
X137467000Y-116076000D01*
G75*
G02*
X137392000Y-116151000I-75000J0D01*
G01*
X137242000Y-116151000D01*
G75*
G02*
X137167000Y-116076000I0J75000D01*
G01*
G37*
G36*
G01*
X136517000Y-116076000D02*
X136517000Y-115451000D01*
G75*
G02*
X136592000Y-115376000I75000J0D01*
G01*
X136742000Y-115376000D01*
G75*
G02*
X136817000Y-115451000I0J-75000D01*
G01*
X136817000Y-116076000D01*
G75*
G02*
X136742000Y-116151000I-75000J0D01*
G01*
X136592000Y-116151000D01*
G75*
G02*
X136517000Y-116076000I0J75000D01*
G01*
G37*
G36*
G01*
X135867000Y-116076000D02*
X135867000Y-115451000D01*
G75*
G02*
X135942000Y-115376000I75000J0D01*
G01*
X136092000Y-115376000D01*
G75*
G02*
X136167000Y-115451000I0J-75000D01*
G01*
X136167000Y-116076000D01*
G75*
G02*
X136092000Y-116151000I-75000J0D01*
G01*
X135942000Y-116151000D01*
G75*
G02*
X135867000Y-116076000I0J75000D01*
G01*
G37*
G36*
G01*
X135217000Y-116076000D02*
X135217000Y-115451000D01*
G75*
G02*
X135292000Y-115376000I75000J0D01*
G01*
X135442000Y-115376000D01*
G75*
G02*
X135517000Y-115451000I0J-75000D01*
G01*
X135517000Y-116076000D01*
G75*
G02*
X135442000Y-116151000I-75000J0D01*
G01*
X135292000Y-116151000D01*
G75*
G02*
X135217000Y-116076000I0J75000D01*
G01*
G37*
G36*
G01*
X134567000Y-116076000D02*
X134567000Y-115451000D01*
G75*
G02*
X134642000Y-115376000I75000J0D01*
G01*
X134792000Y-115376000D01*
G75*
G02*
X134867000Y-115451000I0J-75000D01*
G01*
X134867000Y-116076000D01*
G75*
G02*
X134792000Y-116151000I-75000J0D01*
G01*
X134642000Y-116151000D01*
G75*
G02*
X134567000Y-116076000I0J75000D01*
G01*
G37*
G36*
G01*
X133917000Y-116076000D02*
X133917000Y-115451000D01*
G75*
G02*
X133992000Y-115376000I75000J0D01*
G01*
X134142000Y-115376000D01*
G75*
G02*
X134217000Y-115451000I0J-75000D01*
G01*
X134217000Y-116076000D01*
G75*
G02*
X134142000Y-116151000I-75000J0D01*
G01*
X133992000Y-116151000D01*
G75*
G02*
X133917000Y-116076000I0J75000D01*
G01*
G37*
G36*
G01*
X132642000Y-114801000D02*
X132642000Y-114651000D01*
G75*
G02*
X132717000Y-114576000I75000J0D01*
G01*
X133342000Y-114576000D01*
G75*
G02*
X133417000Y-114651000I0J-75000D01*
G01*
X133417000Y-114801000D01*
G75*
G02*
X133342000Y-114876000I-75000J0D01*
G01*
X132717000Y-114876000D01*
G75*
G02*
X132642000Y-114801000I0J75000D01*
G01*
G37*
G36*
G01*
X132642000Y-114151000D02*
X132642000Y-114001000D01*
G75*
G02*
X132717000Y-113926000I75000J0D01*
G01*
X133342000Y-113926000D01*
G75*
G02*
X133417000Y-114001000I0J-75000D01*
G01*
X133417000Y-114151000D01*
G75*
G02*
X133342000Y-114226000I-75000J0D01*
G01*
X132717000Y-114226000D01*
G75*
G02*
X132642000Y-114151000I0J75000D01*
G01*
G37*
G36*
G01*
X132642000Y-113501000D02*
X132642000Y-113351000D01*
G75*
G02*
X132717000Y-113276000I75000J0D01*
G01*
X133342000Y-113276000D01*
G75*
G02*
X133417000Y-113351000I0J-75000D01*
G01*
X133417000Y-113501000D01*
G75*
G02*
X133342000Y-113576000I-75000J0D01*
G01*
X132717000Y-113576000D01*
G75*
G02*
X132642000Y-113501000I0J75000D01*
G01*
G37*
G36*
G01*
X132642000Y-112851000D02*
X132642000Y-112701000D01*
G75*
G02*
X132717000Y-112626000I75000J0D01*
G01*
X133342000Y-112626000D01*
G75*
G02*
X133417000Y-112701000I0J-75000D01*
G01*
X133417000Y-112851000D01*
G75*
G02*
X133342000Y-112926000I-75000J0D01*
G01*
X132717000Y-112926000D01*
G75*
G02*
X132642000Y-112851000I0J75000D01*
G01*
G37*
G36*
G01*
X132642000Y-112201000D02*
X132642000Y-112051000D01*
G75*
G02*
X132717000Y-111976000I75000J0D01*
G01*
X133342000Y-111976000D01*
G75*
G02*
X133417000Y-112051000I0J-75000D01*
G01*
X133417000Y-112201000D01*
G75*
G02*
X133342000Y-112276000I-75000J0D01*
G01*
X132717000Y-112276000D01*
G75*
G02*
X132642000Y-112201000I0J75000D01*
G01*
G37*
G36*
G01*
X132642000Y-111551000D02*
X132642000Y-111401000D01*
G75*
G02*
X132717000Y-111326000I75000J0D01*
G01*
X133342000Y-111326000D01*
G75*
G02*
X133417000Y-111401000I0J-75000D01*
G01*
X133417000Y-111551000D01*
G75*
G02*
X133342000Y-111626000I-75000J0D01*
G01*
X132717000Y-111626000D01*
G75*
G02*
X132642000Y-111551000I0J75000D01*
G01*
G37*
G36*
G01*
X132642000Y-110901000D02*
X132642000Y-110751000D01*
G75*
G02*
X132717000Y-110676000I75000J0D01*
G01*
X133342000Y-110676000D01*
G75*
G02*
X133417000Y-110751000I0J-75000D01*
G01*
X133417000Y-110901000D01*
G75*
G02*
X133342000Y-110976000I-75000J0D01*
G01*
X132717000Y-110976000D01*
G75*
G02*
X132642000Y-110901000I0J75000D01*
G01*
G37*
%TD*%
D40*
%TO.C,QFN-24*%
X129286000Y-102616000D03*
G36*
G01*
X127536000Y-100528500D02*
X127536000Y-99803500D01*
G75*
G02*
X127598500Y-99741000I62500J0D01*
G01*
X127723500Y-99741000D01*
G75*
G02*
X127786000Y-99803500I0J-62500D01*
G01*
X127786000Y-100528500D01*
G75*
G02*
X127723500Y-100591000I-62500J0D01*
G01*
X127598500Y-100591000D01*
G75*
G02*
X127536000Y-100528500I0J62500D01*
G01*
G37*
G36*
G01*
X128186000Y-100528500D02*
X128186000Y-99803500D01*
G75*
G02*
X128248500Y-99741000I62500J0D01*
G01*
X128373500Y-99741000D01*
G75*
G02*
X128436000Y-99803500I0J-62500D01*
G01*
X128436000Y-100528500D01*
G75*
G02*
X128373500Y-100591000I-62500J0D01*
G01*
X128248500Y-100591000D01*
G75*
G02*
X128186000Y-100528500I0J62500D01*
G01*
G37*
G36*
G01*
X128836000Y-100528500D02*
X128836000Y-99803500D01*
G75*
G02*
X128898500Y-99741000I62500J0D01*
G01*
X129023500Y-99741000D01*
G75*
G02*
X129086000Y-99803500I0J-62500D01*
G01*
X129086000Y-100528500D01*
G75*
G02*
X129023500Y-100591000I-62500J0D01*
G01*
X128898500Y-100591000D01*
G75*
G02*
X128836000Y-100528500I0J62500D01*
G01*
G37*
G36*
G01*
X129486000Y-100528500D02*
X129486000Y-99803500D01*
G75*
G02*
X129548500Y-99741000I62500J0D01*
G01*
X129673500Y-99741000D01*
G75*
G02*
X129736000Y-99803500I0J-62500D01*
G01*
X129736000Y-100528500D01*
G75*
G02*
X129673500Y-100591000I-62500J0D01*
G01*
X129548500Y-100591000D01*
G75*
G02*
X129486000Y-100528500I0J62500D01*
G01*
G37*
G36*
G01*
X130136000Y-100528500D02*
X130136000Y-99803500D01*
G75*
G02*
X130198500Y-99741000I62500J0D01*
G01*
X130323500Y-99741000D01*
G75*
G02*
X130386000Y-99803500I0J-62500D01*
G01*
X130386000Y-100528500D01*
G75*
G02*
X130323500Y-100591000I-62500J0D01*
G01*
X130198500Y-100591000D01*
G75*
G02*
X130136000Y-100528500I0J62500D01*
G01*
G37*
G36*
G01*
X130786000Y-100528500D02*
X130786000Y-99803500D01*
G75*
G02*
X130848500Y-99741000I62500J0D01*
G01*
X130973500Y-99741000D01*
G75*
G02*
X131036000Y-99803500I0J-62500D01*
G01*
X131036000Y-100528500D01*
G75*
G02*
X130973500Y-100591000I-62500J0D01*
G01*
X130848500Y-100591000D01*
G75*
G02*
X130786000Y-100528500I0J62500D01*
G01*
G37*
G36*
G01*
X131311000Y-101053500D02*
X131311000Y-100928500D01*
G75*
G02*
X131373500Y-100866000I62500J0D01*
G01*
X132098500Y-100866000D01*
G75*
G02*
X132161000Y-100928500I0J-62500D01*
G01*
X132161000Y-101053500D01*
G75*
G02*
X132098500Y-101116000I-62500J0D01*
G01*
X131373500Y-101116000D01*
G75*
G02*
X131311000Y-101053500I0J62500D01*
G01*
G37*
G36*
G01*
X131311000Y-101703500D02*
X131311000Y-101578500D01*
G75*
G02*
X131373500Y-101516000I62500J0D01*
G01*
X132098500Y-101516000D01*
G75*
G02*
X132161000Y-101578500I0J-62500D01*
G01*
X132161000Y-101703500D01*
G75*
G02*
X132098500Y-101766000I-62500J0D01*
G01*
X131373500Y-101766000D01*
G75*
G02*
X131311000Y-101703500I0J62500D01*
G01*
G37*
G36*
G01*
X131311000Y-102353500D02*
X131311000Y-102228500D01*
G75*
G02*
X131373500Y-102166000I62500J0D01*
G01*
X132098500Y-102166000D01*
G75*
G02*
X132161000Y-102228500I0J-62500D01*
G01*
X132161000Y-102353500D01*
G75*
G02*
X132098500Y-102416000I-62500J0D01*
G01*
X131373500Y-102416000D01*
G75*
G02*
X131311000Y-102353500I0J62500D01*
G01*
G37*
G36*
G01*
X131311000Y-103003500D02*
X131311000Y-102878500D01*
G75*
G02*
X131373500Y-102816000I62500J0D01*
G01*
X132098500Y-102816000D01*
G75*
G02*
X132161000Y-102878500I0J-62500D01*
G01*
X132161000Y-103003500D01*
G75*
G02*
X132098500Y-103066000I-62500J0D01*
G01*
X131373500Y-103066000D01*
G75*
G02*
X131311000Y-103003500I0J62500D01*
G01*
G37*
G36*
G01*
X131311000Y-103653500D02*
X131311000Y-103528500D01*
G75*
G02*
X131373500Y-103466000I62500J0D01*
G01*
X132098500Y-103466000D01*
G75*
G02*
X132161000Y-103528500I0J-62500D01*
G01*
X132161000Y-103653500D01*
G75*
G02*
X132098500Y-103716000I-62500J0D01*
G01*
X131373500Y-103716000D01*
G75*
G02*
X131311000Y-103653500I0J62500D01*
G01*
G37*
G36*
G01*
X131311000Y-104303500D02*
X131311000Y-104178500D01*
G75*
G02*
X131373500Y-104116000I62500J0D01*
G01*
X132098500Y-104116000D01*
G75*
G02*
X132161000Y-104178500I0J-62500D01*
G01*
X132161000Y-104303500D01*
G75*
G02*
X132098500Y-104366000I-62500J0D01*
G01*
X131373500Y-104366000D01*
G75*
G02*
X131311000Y-104303500I0J62500D01*
G01*
G37*
G36*
G01*
X130786000Y-105428500D02*
X130786000Y-104703500D01*
G75*
G02*
X130848500Y-104641000I62500J0D01*
G01*
X130973500Y-104641000D01*
G75*
G02*
X131036000Y-104703500I0J-62500D01*
G01*
X131036000Y-105428500D01*
G75*
G02*
X130973500Y-105491000I-62500J0D01*
G01*
X130848500Y-105491000D01*
G75*
G02*
X130786000Y-105428500I0J62500D01*
G01*
G37*
G36*
G01*
X130136000Y-105428500D02*
X130136000Y-104703500D01*
G75*
G02*
X130198500Y-104641000I62500J0D01*
G01*
X130323500Y-104641000D01*
G75*
G02*
X130386000Y-104703500I0J-62500D01*
G01*
X130386000Y-105428500D01*
G75*
G02*
X130323500Y-105491000I-62500J0D01*
G01*
X130198500Y-105491000D01*
G75*
G02*
X130136000Y-105428500I0J62500D01*
G01*
G37*
G36*
G01*
X129486000Y-105428500D02*
X129486000Y-104703500D01*
G75*
G02*
X129548500Y-104641000I62500J0D01*
G01*
X129673500Y-104641000D01*
G75*
G02*
X129736000Y-104703500I0J-62500D01*
G01*
X129736000Y-105428500D01*
G75*
G02*
X129673500Y-105491000I-62500J0D01*
G01*
X129548500Y-105491000D01*
G75*
G02*
X129486000Y-105428500I0J62500D01*
G01*
G37*
G36*
G01*
X128836000Y-105428500D02*
X128836000Y-104703500D01*
G75*
G02*
X128898500Y-104641000I62500J0D01*
G01*
X129023500Y-104641000D01*
G75*
G02*
X129086000Y-104703500I0J-62500D01*
G01*
X129086000Y-105428500D01*
G75*
G02*
X129023500Y-105491000I-62500J0D01*
G01*
X128898500Y-105491000D01*
G75*
G02*
X128836000Y-105428500I0J62500D01*
G01*
G37*
G36*
G01*
X128186000Y-105428500D02*
X128186000Y-104703500D01*
G75*
G02*
X128248500Y-104641000I62500J0D01*
G01*
X128373500Y-104641000D01*
G75*
G02*
X128436000Y-104703500I0J-62500D01*
G01*
X128436000Y-105428500D01*
G75*
G02*
X128373500Y-105491000I-62500J0D01*
G01*
X128248500Y-105491000D01*
G75*
G02*
X128186000Y-105428500I0J62500D01*
G01*
G37*
G36*
G01*
X127536000Y-105428500D02*
X127536000Y-104703500D01*
G75*
G02*
X127598500Y-104641000I62500J0D01*
G01*
X127723500Y-104641000D01*
G75*
G02*
X127786000Y-104703500I0J-62500D01*
G01*
X127786000Y-105428500D01*
G75*
G02*
X127723500Y-105491000I-62500J0D01*
G01*
X127598500Y-105491000D01*
G75*
G02*
X127536000Y-105428500I0J62500D01*
G01*
G37*
G36*
G01*
X126411000Y-104303500D02*
X126411000Y-104178500D01*
G75*
G02*
X126473500Y-104116000I62500J0D01*
G01*
X127198500Y-104116000D01*
G75*
G02*
X127261000Y-104178500I0J-62500D01*
G01*
X127261000Y-104303500D01*
G75*
G02*
X127198500Y-104366000I-62500J0D01*
G01*
X126473500Y-104366000D01*
G75*
G02*
X126411000Y-104303500I0J62500D01*
G01*
G37*
G36*
G01*
X126411000Y-103653500D02*
X126411000Y-103528500D01*
G75*
G02*
X126473500Y-103466000I62500J0D01*
G01*
X127198500Y-103466000D01*
G75*
G02*
X127261000Y-103528500I0J-62500D01*
G01*
X127261000Y-103653500D01*
G75*
G02*
X127198500Y-103716000I-62500J0D01*
G01*
X126473500Y-103716000D01*
G75*
G02*
X126411000Y-103653500I0J62500D01*
G01*
G37*
G36*
G01*
X126411000Y-103003500D02*
X126411000Y-102878500D01*
G75*
G02*
X126473500Y-102816000I62500J0D01*
G01*
X127198500Y-102816000D01*
G75*
G02*
X127261000Y-102878500I0J-62500D01*
G01*
X127261000Y-103003500D01*
G75*
G02*
X127198500Y-103066000I-62500J0D01*
G01*
X126473500Y-103066000D01*
G75*
G02*
X126411000Y-103003500I0J62500D01*
G01*
G37*
G36*
G01*
X126411000Y-102353500D02*
X126411000Y-102228500D01*
G75*
G02*
X126473500Y-102166000I62500J0D01*
G01*
X127198500Y-102166000D01*
G75*
G02*
X127261000Y-102228500I0J-62500D01*
G01*
X127261000Y-102353500D01*
G75*
G02*
X127198500Y-102416000I-62500J0D01*
G01*
X126473500Y-102416000D01*
G75*
G02*
X126411000Y-102353500I0J62500D01*
G01*
G37*
G36*
G01*
X126411000Y-101703500D02*
X126411000Y-101578500D01*
G75*
G02*
X126473500Y-101516000I62500J0D01*
G01*
X127198500Y-101516000D01*
G75*
G02*
X127261000Y-101578500I0J-62500D01*
G01*
X127261000Y-101703500D01*
G75*
G02*
X127198500Y-101766000I-62500J0D01*
G01*
X126473500Y-101766000D01*
G75*
G02*
X126411000Y-101703500I0J62500D01*
G01*
G37*
G36*
G01*
X126411000Y-101053500D02*
X126411000Y-100928500D01*
G75*
G02*
X126473500Y-100866000I62500J0D01*
G01*
X127198500Y-100866000D01*
G75*
G02*
X127261000Y-100928500I0J-62500D01*
G01*
X127261000Y-101053500D01*
G75*
G02*
X127198500Y-101116000I-62500J0D01*
G01*
X126473500Y-101116000D01*
G75*
G02*
X126411000Y-101053500I0J62500D01*
G01*
G37*
%TD*%
D41*
%TO.C,QFN-20*%
X129413000Y-85217000D03*
G36*
G01*
X128288000Y-83904500D02*
X128288000Y-83154500D01*
G75*
G02*
X128350500Y-83092000I62500J0D01*
G01*
X128475500Y-83092000D01*
G75*
G02*
X128538000Y-83154500I0J-62500D01*
G01*
X128538000Y-83904500D01*
G75*
G02*
X128475500Y-83967000I-62500J0D01*
G01*
X128350500Y-83967000D01*
G75*
G02*
X128288000Y-83904500I0J62500D01*
G01*
G37*
G36*
G01*
X128788000Y-83904500D02*
X128788000Y-83154500D01*
G75*
G02*
X128850500Y-83092000I62500J0D01*
G01*
X128975500Y-83092000D01*
G75*
G02*
X129038000Y-83154500I0J-62500D01*
G01*
X129038000Y-83904500D01*
G75*
G02*
X128975500Y-83967000I-62500J0D01*
G01*
X128850500Y-83967000D01*
G75*
G02*
X128788000Y-83904500I0J62500D01*
G01*
G37*
G36*
G01*
X129288000Y-83904500D02*
X129288000Y-83154500D01*
G75*
G02*
X129350500Y-83092000I62500J0D01*
G01*
X129475500Y-83092000D01*
G75*
G02*
X129538000Y-83154500I0J-62500D01*
G01*
X129538000Y-83904500D01*
G75*
G02*
X129475500Y-83967000I-62500J0D01*
G01*
X129350500Y-83967000D01*
G75*
G02*
X129288000Y-83904500I0J62500D01*
G01*
G37*
G36*
G01*
X129788000Y-83904500D02*
X129788000Y-83154500D01*
G75*
G02*
X129850500Y-83092000I62500J0D01*
G01*
X129975500Y-83092000D01*
G75*
G02*
X130038000Y-83154500I0J-62500D01*
G01*
X130038000Y-83904500D01*
G75*
G02*
X129975500Y-83967000I-62500J0D01*
G01*
X129850500Y-83967000D01*
G75*
G02*
X129788000Y-83904500I0J62500D01*
G01*
G37*
G36*
G01*
X130288000Y-83904500D02*
X130288000Y-83154500D01*
G75*
G02*
X130350500Y-83092000I62500J0D01*
G01*
X130475500Y-83092000D01*
G75*
G02*
X130538000Y-83154500I0J-62500D01*
G01*
X130538000Y-83904500D01*
G75*
G02*
X130475500Y-83967000I-62500J0D01*
G01*
X130350500Y-83967000D01*
G75*
G02*
X130288000Y-83904500I0J62500D01*
G01*
G37*
G36*
G01*
X130663000Y-84279500D02*
X130663000Y-84154500D01*
G75*
G02*
X130725500Y-84092000I62500J0D01*
G01*
X131475500Y-84092000D01*
G75*
G02*
X131538000Y-84154500I0J-62500D01*
G01*
X131538000Y-84279500D01*
G75*
G02*
X131475500Y-84342000I-62500J0D01*
G01*
X130725500Y-84342000D01*
G75*
G02*
X130663000Y-84279500I0J62500D01*
G01*
G37*
G36*
G01*
X130663000Y-84779500D02*
X130663000Y-84654500D01*
G75*
G02*
X130725500Y-84592000I62500J0D01*
G01*
X131475500Y-84592000D01*
G75*
G02*
X131538000Y-84654500I0J-62500D01*
G01*
X131538000Y-84779500D01*
G75*
G02*
X131475500Y-84842000I-62500J0D01*
G01*
X130725500Y-84842000D01*
G75*
G02*
X130663000Y-84779500I0J62500D01*
G01*
G37*
G36*
G01*
X130663000Y-85279500D02*
X130663000Y-85154500D01*
G75*
G02*
X130725500Y-85092000I62500J0D01*
G01*
X131475500Y-85092000D01*
G75*
G02*
X131538000Y-85154500I0J-62500D01*
G01*
X131538000Y-85279500D01*
G75*
G02*
X131475500Y-85342000I-62500J0D01*
G01*
X130725500Y-85342000D01*
G75*
G02*
X130663000Y-85279500I0J62500D01*
G01*
G37*
G36*
G01*
X130663000Y-85779500D02*
X130663000Y-85654500D01*
G75*
G02*
X130725500Y-85592000I62500J0D01*
G01*
X131475500Y-85592000D01*
G75*
G02*
X131538000Y-85654500I0J-62500D01*
G01*
X131538000Y-85779500D01*
G75*
G02*
X131475500Y-85842000I-62500J0D01*
G01*
X130725500Y-85842000D01*
G75*
G02*
X130663000Y-85779500I0J62500D01*
G01*
G37*
G36*
G01*
X130663000Y-86279500D02*
X130663000Y-86154500D01*
G75*
G02*
X130725500Y-86092000I62500J0D01*
G01*
X131475500Y-86092000D01*
G75*
G02*
X131538000Y-86154500I0J-62500D01*
G01*
X131538000Y-86279500D01*
G75*
G02*
X131475500Y-86342000I-62500J0D01*
G01*
X130725500Y-86342000D01*
G75*
G02*
X130663000Y-86279500I0J62500D01*
G01*
G37*
G36*
G01*
X130288000Y-87279500D02*
X130288000Y-86529500D01*
G75*
G02*
X130350500Y-86467000I62500J0D01*
G01*
X130475500Y-86467000D01*
G75*
G02*
X130538000Y-86529500I0J-62500D01*
G01*
X130538000Y-87279500D01*
G75*
G02*
X130475500Y-87342000I-62500J0D01*
G01*
X130350500Y-87342000D01*
G75*
G02*
X130288000Y-87279500I0J62500D01*
G01*
G37*
G36*
G01*
X129788000Y-87279500D02*
X129788000Y-86529500D01*
G75*
G02*
X129850500Y-86467000I62500J0D01*
G01*
X129975500Y-86467000D01*
G75*
G02*
X130038000Y-86529500I0J-62500D01*
G01*
X130038000Y-87279500D01*
G75*
G02*
X129975500Y-87342000I-62500J0D01*
G01*
X129850500Y-87342000D01*
G75*
G02*
X129788000Y-87279500I0J62500D01*
G01*
G37*
G36*
G01*
X129288000Y-87279500D02*
X129288000Y-86529500D01*
G75*
G02*
X129350500Y-86467000I62500J0D01*
G01*
X129475500Y-86467000D01*
G75*
G02*
X129538000Y-86529500I0J-62500D01*
G01*
X129538000Y-87279500D01*
G75*
G02*
X129475500Y-87342000I-62500J0D01*
G01*
X129350500Y-87342000D01*
G75*
G02*
X129288000Y-87279500I0J62500D01*
G01*
G37*
G36*
G01*
X128788000Y-87279500D02*
X128788000Y-86529500D01*
G75*
G02*
X128850500Y-86467000I62500J0D01*
G01*
X128975500Y-86467000D01*
G75*
G02*
X129038000Y-86529500I0J-62500D01*
G01*
X129038000Y-87279500D01*
G75*
G02*
X128975500Y-87342000I-62500J0D01*
G01*
X128850500Y-87342000D01*
G75*
G02*
X128788000Y-87279500I0J62500D01*
G01*
G37*
G36*
G01*
X128288000Y-87279500D02*
X128288000Y-86529500D01*
G75*
G02*
X128350500Y-86467000I62500J0D01*
G01*
X128475500Y-86467000D01*
G75*
G02*
X128538000Y-86529500I0J-62500D01*
G01*
X128538000Y-87279500D01*
G75*
G02*
X128475500Y-87342000I-62500J0D01*
G01*
X128350500Y-87342000D01*
G75*
G02*
X128288000Y-87279500I0J62500D01*
G01*
G37*
G36*
G01*
X127288000Y-86279500D02*
X127288000Y-86154500D01*
G75*
G02*
X127350500Y-86092000I62500J0D01*
G01*
X128100500Y-86092000D01*
G75*
G02*
X128163000Y-86154500I0J-62500D01*
G01*
X128163000Y-86279500D01*
G75*
G02*
X128100500Y-86342000I-62500J0D01*
G01*
X127350500Y-86342000D01*
G75*
G02*
X127288000Y-86279500I0J62500D01*
G01*
G37*
G36*
G01*
X127288000Y-85779500D02*
X127288000Y-85654500D01*
G75*
G02*
X127350500Y-85592000I62500J0D01*
G01*
X128100500Y-85592000D01*
G75*
G02*
X128163000Y-85654500I0J-62500D01*
G01*
X128163000Y-85779500D01*
G75*
G02*
X128100500Y-85842000I-62500J0D01*
G01*
X127350500Y-85842000D01*
G75*
G02*
X127288000Y-85779500I0J62500D01*
G01*
G37*
G36*
G01*
X127288000Y-85279500D02*
X127288000Y-85154500D01*
G75*
G02*
X127350500Y-85092000I62500J0D01*
G01*
X128100500Y-85092000D01*
G75*
G02*
X128163000Y-85154500I0J-62500D01*
G01*
X128163000Y-85279500D01*
G75*
G02*
X128100500Y-85342000I-62500J0D01*
G01*
X127350500Y-85342000D01*
G75*
G02*
X127288000Y-85279500I0J62500D01*
G01*
G37*
G36*
G01*
X127288000Y-84779500D02*
X127288000Y-84654500D01*
G75*
G02*
X127350500Y-84592000I62500J0D01*
G01*
X128100500Y-84592000D01*
G75*
G02*
X128163000Y-84654500I0J-62500D01*
G01*
X128163000Y-84779500D01*
G75*
G02*
X128100500Y-84842000I-62500J0D01*
G01*
X127350500Y-84842000D01*
G75*
G02*
X127288000Y-84779500I0J62500D01*
G01*
G37*
G36*
G01*
X127288000Y-84279500D02*
X127288000Y-84154500D01*
G75*
G02*
X127350500Y-84092000I62500J0D01*
G01*
X128100500Y-84092000D01*
G75*
G02*
X128163000Y-84154500I0J-62500D01*
G01*
X128163000Y-84279500D01*
G75*
G02*
X128100500Y-84342000I-62500J0D01*
G01*
X127350500Y-84342000D01*
G75*
G02*
X127288000Y-84279500I0J62500D01*
G01*
G37*
%TD*%
D42*
%TO.C,QFN-16*%
X100330000Y-81788000D03*
G36*
G01*
X99455000Y-80175500D02*
X99455000Y-79500500D01*
G75*
G02*
X99517500Y-79438000I62500J0D01*
G01*
X99642500Y-79438000D01*
G75*
G02*
X99705000Y-79500500I0J-62500D01*
G01*
X99705000Y-80175500D01*
G75*
G02*
X99642500Y-80238000I-62500J0D01*
G01*
X99517500Y-80238000D01*
G75*
G02*
X99455000Y-80175500I0J62500D01*
G01*
G37*
G36*
G01*
X99955000Y-80175500D02*
X99955000Y-79500500D01*
G75*
G02*
X100017500Y-79438000I62500J0D01*
G01*
X100142500Y-79438000D01*
G75*
G02*
X100205000Y-79500500I0J-62500D01*
G01*
X100205000Y-80175500D01*
G75*
G02*
X100142500Y-80238000I-62500J0D01*
G01*
X100017500Y-80238000D01*
G75*
G02*
X99955000Y-80175500I0J62500D01*
G01*
G37*
G36*
G01*
X100455000Y-80175500D02*
X100455000Y-79500500D01*
G75*
G02*
X100517500Y-79438000I62500J0D01*
G01*
X100642500Y-79438000D01*
G75*
G02*
X100705000Y-79500500I0J-62500D01*
G01*
X100705000Y-80175500D01*
G75*
G02*
X100642500Y-80238000I-62500J0D01*
G01*
X100517500Y-80238000D01*
G75*
G02*
X100455000Y-80175500I0J62500D01*
G01*
G37*
G36*
G01*
X100955000Y-80175500D02*
X100955000Y-79500500D01*
G75*
G02*
X101017500Y-79438000I62500J0D01*
G01*
X101142500Y-79438000D01*
G75*
G02*
X101205000Y-79500500I0J-62500D01*
G01*
X101205000Y-80175500D01*
G75*
G02*
X101142500Y-80238000I-62500J0D01*
G01*
X101017500Y-80238000D01*
G75*
G02*
X100955000Y-80175500I0J62500D01*
G01*
G37*
G36*
G01*
X101880000Y-81100500D02*
X101880000Y-80975500D01*
G75*
G02*
X101942500Y-80913000I62500J0D01*
G01*
X102617500Y-80913000D01*
G75*
G02*
X102680000Y-80975500I0J-62500D01*
G01*
X102680000Y-81100500D01*
G75*
G02*
X102617500Y-81163000I-62500J0D01*
G01*
X101942500Y-81163000D01*
G75*
G02*
X101880000Y-81100500I0J62500D01*
G01*
G37*
G36*
G01*
X101880000Y-81600500D02*
X101880000Y-81475500D01*
G75*
G02*
X101942500Y-81413000I62500J0D01*
G01*
X102617500Y-81413000D01*
G75*
G02*
X102680000Y-81475500I0J-62500D01*
G01*
X102680000Y-81600500D01*
G75*
G02*
X102617500Y-81663000I-62500J0D01*
G01*
X101942500Y-81663000D01*
G75*
G02*
X101880000Y-81600500I0J62500D01*
G01*
G37*
G36*
G01*
X101880000Y-82100500D02*
X101880000Y-81975500D01*
G75*
G02*
X101942500Y-81913000I62500J0D01*
G01*
X102617500Y-81913000D01*
G75*
G02*
X102680000Y-81975500I0J-62500D01*
G01*
X102680000Y-82100500D01*
G75*
G02*
X102617500Y-82163000I-62500J0D01*
G01*
X101942500Y-82163000D01*
G75*
G02*
X101880000Y-82100500I0J62500D01*
G01*
G37*
G36*
G01*
X101880000Y-82600500D02*
X101880000Y-82475500D01*
G75*
G02*
X101942500Y-82413000I62500J0D01*
G01*
X102617500Y-82413000D01*
G75*
G02*
X102680000Y-82475500I0J-62500D01*
G01*
X102680000Y-82600500D01*
G75*
G02*
X102617500Y-82663000I-62500J0D01*
G01*
X101942500Y-82663000D01*
G75*
G02*
X101880000Y-82600500I0J62500D01*
G01*
G37*
G36*
G01*
X100955000Y-84075500D02*
X100955000Y-83400500D01*
G75*
G02*
X101017500Y-83338000I62500J0D01*
G01*
X101142500Y-83338000D01*
G75*
G02*
X101205000Y-83400500I0J-62500D01*
G01*
X101205000Y-84075500D01*
G75*
G02*
X101142500Y-84138000I-62500J0D01*
G01*
X101017500Y-84138000D01*
G75*
G02*
X100955000Y-84075500I0J62500D01*
G01*
G37*
G36*
G01*
X100455000Y-84075500D02*
X100455000Y-83400500D01*
G75*
G02*
X100517500Y-83338000I62500J0D01*
G01*
X100642500Y-83338000D01*
G75*
G02*
X100705000Y-83400500I0J-62500D01*
G01*
X100705000Y-84075500D01*
G75*
G02*
X100642500Y-84138000I-62500J0D01*
G01*
X100517500Y-84138000D01*
G75*
G02*
X100455000Y-84075500I0J62500D01*
G01*
G37*
G36*
G01*
X99955000Y-84075500D02*
X99955000Y-83400500D01*
G75*
G02*
X100017500Y-83338000I62500J0D01*
G01*
X100142500Y-83338000D01*
G75*
G02*
X100205000Y-83400500I0J-62500D01*
G01*
X100205000Y-84075500D01*
G75*
G02*
X100142500Y-84138000I-62500J0D01*
G01*
X100017500Y-84138000D01*
G75*
G02*
X99955000Y-84075500I0J62500D01*
G01*
G37*
G36*
G01*
X99455000Y-84075500D02*
X99455000Y-83400500D01*
G75*
G02*
X99517500Y-83338000I62500J0D01*
G01*
X99642500Y-83338000D01*
G75*
G02*
X99705000Y-83400500I0J-62500D01*
G01*
X99705000Y-84075500D01*
G75*
G02*
X99642500Y-84138000I-62500J0D01*
G01*
X99517500Y-84138000D01*
G75*
G02*
X99455000Y-84075500I0J62500D01*
G01*
G37*
G36*
G01*
X97980000Y-82600500D02*
X97980000Y-82475500D01*
G75*
G02*
X98042500Y-82413000I62500J0D01*
G01*
X98717500Y-82413000D01*
G75*
G02*
X98780000Y-82475500I0J-62500D01*
G01*
X98780000Y-82600500D01*
G75*
G02*
X98717500Y-82663000I-62500J0D01*
G01*
X98042500Y-82663000D01*
G75*
G02*
X97980000Y-82600500I0J62500D01*
G01*
G37*
G36*
G01*
X97980000Y-82100500D02*
X97980000Y-81975500D01*
G75*
G02*
X98042500Y-81913000I62500J0D01*
G01*
X98717500Y-81913000D01*
G75*
G02*
X98780000Y-81975500I0J-62500D01*
G01*
X98780000Y-82100500D01*
G75*
G02*
X98717500Y-82163000I-62500J0D01*
G01*
X98042500Y-82163000D01*
G75*
G02*
X97980000Y-82100500I0J62500D01*
G01*
G37*
G36*
G01*
X97980000Y-81600500D02*
X97980000Y-81475500D01*
G75*
G02*
X98042500Y-81413000I62500J0D01*
G01*
X98717500Y-81413000D01*
G75*
G02*
X98780000Y-81475500I0J-62500D01*
G01*
X98780000Y-81600500D01*
G75*
G02*
X98717500Y-81663000I-62500J0D01*
G01*
X98042500Y-81663000D01*
G75*
G02*
X97980000Y-81600500I0J62500D01*
G01*
G37*
G36*
G01*
X97980000Y-81100500D02*
X97980000Y-80975500D01*
G75*
G02*
X98042500Y-80913000I62500J0D01*
G01*
X98717500Y-80913000D01*
G75*
G02*
X98780000Y-80975500I0J-62500D01*
G01*
X98780000Y-81100500D01*
G75*
G02*
X98717500Y-81163000I-62500J0D01*
G01*
X98042500Y-81163000D01*
G75*
G02*
X97980000Y-81100500I0J62500D01*
G01*
G37*
%TD*%
D43*
%TO.C,QFN-12*%
X155067000Y-120269000D03*
G36*
G01*
X154442000Y-119156500D02*
X154442000Y-118456500D01*
G75*
G02*
X154504500Y-118394000I62500J0D01*
G01*
X154629500Y-118394000D01*
G75*
G02*
X154692000Y-118456500I0J-62500D01*
G01*
X154692000Y-119156500D01*
G75*
G02*
X154629500Y-119219000I-62500J0D01*
G01*
X154504500Y-119219000D01*
G75*
G02*
X154442000Y-119156500I0J62500D01*
G01*
G37*
G36*
G01*
X154942000Y-119156500D02*
X154942000Y-118456500D01*
G75*
G02*
X155004500Y-118394000I62500J0D01*
G01*
X155129500Y-118394000D01*
G75*
G02*
X155192000Y-118456500I0J-62500D01*
G01*
X155192000Y-119156500D01*
G75*
G02*
X155129500Y-119219000I-62500J0D01*
G01*
X155004500Y-119219000D01*
G75*
G02*
X154942000Y-119156500I0J62500D01*
G01*
G37*
G36*
G01*
X155442000Y-119156500D02*
X155442000Y-118456500D01*
G75*
G02*
X155504500Y-118394000I62500J0D01*
G01*
X155629500Y-118394000D01*
G75*
G02*
X155692000Y-118456500I0J-62500D01*
G01*
X155692000Y-119156500D01*
G75*
G02*
X155629500Y-119219000I-62500J0D01*
G01*
X155504500Y-119219000D01*
G75*
G02*
X155442000Y-119156500I0J62500D01*
G01*
G37*
G36*
G01*
X156117000Y-119831500D02*
X156117000Y-119706500D01*
G75*
G02*
X156179500Y-119644000I62500J0D01*
G01*
X156879500Y-119644000D01*
G75*
G02*
X156942000Y-119706500I0J-62500D01*
G01*
X156942000Y-119831500D01*
G75*
G02*
X156879500Y-119894000I-62500J0D01*
G01*
X156179500Y-119894000D01*
G75*
G02*
X156117000Y-119831500I0J62500D01*
G01*
G37*
G36*
G01*
X156117000Y-120331500D02*
X156117000Y-120206500D01*
G75*
G02*
X156179500Y-120144000I62500J0D01*
G01*
X156879500Y-120144000D01*
G75*
G02*
X156942000Y-120206500I0J-62500D01*
G01*
X156942000Y-120331500D01*
G75*
G02*
X156879500Y-120394000I-62500J0D01*
G01*
X156179500Y-120394000D01*
G75*
G02*
X156117000Y-120331500I0J62500D01*
G01*
G37*
G36*
G01*
X156117000Y-120831500D02*
X156117000Y-120706500D01*
G75*
G02*
X156179500Y-120644000I62500J0D01*
G01*
X156879500Y-120644000D01*
G75*
G02*
X156942000Y-120706500I0J-62500D01*
G01*
X156942000Y-120831500D01*
G75*
G02*
X156879500Y-120894000I-62500J0D01*
G01*
X156179500Y-120894000D01*
G75*
G02*
X156117000Y-120831500I0J62500D01*
G01*
G37*
G36*
G01*
X155442000Y-122081500D02*
X155442000Y-121381500D01*
G75*
G02*
X155504500Y-121319000I62500J0D01*
G01*
X155629500Y-121319000D01*
G75*
G02*
X155692000Y-121381500I0J-62500D01*
G01*
X155692000Y-122081500D01*
G75*
G02*
X155629500Y-122144000I-62500J0D01*
G01*
X155504500Y-122144000D01*
G75*
G02*
X155442000Y-122081500I0J62500D01*
G01*
G37*
G36*
G01*
X154942000Y-122081500D02*
X154942000Y-121381500D01*
G75*
G02*
X155004500Y-121319000I62500J0D01*
G01*
X155129500Y-121319000D01*
G75*
G02*
X155192000Y-121381500I0J-62500D01*
G01*
X155192000Y-122081500D01*
G75*
G02*
X155129500Y-122144000I-62500J0D01*
G01*
X155004500Y-122144000D01*
G75*
G02*
X154942000Y-122081500I0J62500D01*
G01*
G37*
G36*
G01*
X154442000Y-122081500D02*
X154442000Y-121381500D01*
G75*
G02*
X154504500Y-121319000I62500J0D01*
G01*
X154629500Y-121319000D01*
G75*
G02*
X154692000Y-121381500I0J-62500D01*
G01*
X154692000Y-122081500D01*
G75*
G02*
X154629500Y-122144000I-62500J0D01*
G01*
X154504500Y-122144000D01*
G75*
G02*
X154442000Y-122081500I0J62500D01*
G01*
G37*
G36*
G01*
X153192000Y-120831500D02*
X153192000Y-120706500D01*
G75*
G02*
X153254500Y-120644000I62500J0D01*
G01*
X153954500Y-120644000D01*
G75*
G02*
X154017000Y-120706500I0J-62500D01*
G01*
X154017000Y-120831500D01*
G75*
G02*
X153954500Y-120894000I-62500J0D01*
G01*
X153254500Y-120894000D01*
G75*
G02*
X153192000Y-120831500I0J62500D01*
G01*
G37*
G36*
G01*
X153192000Y-120331500D02*
X153192000Y-120206500D01*
G75*
G02*
X153254500Y-120144000I62500J0D01*
G01*
X153954500Y-120144000D01*
G75*
G02*
X154017000Y-120206500I0J-62500D01*
G01*
X154017000Y-120331500D01*
G75*
G02*
X153954500Y-120394000I-62500J0D01*
G01*
X153254500Y-120394000D01*
G75*
G02*
X153192000Y-120331500I0J62500D01*
G01*
G37*
G36*
G01*
X153192000Y-119831500D02*
X153192000Y-119706500D01*
G75*
G02*
X153254500Y-119644000I62500J0D01*
G01*
X153954500Y-119644000D01*
G75*
G02*
X154017000Y-119706500I0J-62500D01*
G01*
X154017000Y-119831500D01*
G75*
G02*
X153954500Y-119894000I-62500J0D01*
G01*
X153254500Y-119894000D01*
G75*
G02*
X153192000Y-119831500I0J62500D01*
G01*
G37*
%TD*%
D44*
%TO.C,BGA-113*%
X151666000Y-107851000D03*
X156166000Y-112351000D03*
X156166000Y-111851000D03*
X156166000Y-111351000D03*
X156166000Y-110851000D03*
X156166000Y-110351000D03*
X156166000Y-109851000D03*
X156166000Y-109351000D03*
X156166000Y-108851000D03*
X156166000Y-108351000D03*
X156166000Y-107851000D03*
X156166000Y-107351000D03*
X156166000Y-106851000D03*
X155666000Y-112351000D03*
X155666000Y-111851000D03*
X155666000Y-111351000D03*
X155666000Y-110851000D03*
X155666000Y-110351000D03*
X155666000Y-109851000D03*
X155666000Y-109351000D03*
X155666000Y-108851000D03*
X155666000Y-108351000D03*
X155666000Y-107851000D03*
X155666000Y-107351000D03*
X155666000Y-106851000D03*
X155166000Y-112351000D03*
X155166000Y-111851000D03*
X155166000Y-107351000D03*
X155166000Y-106851000D03*
X154666000Y-112351000D03*
X154666000Y-111851000D03*
X154666000Y-110851000D03*
X154666000Y-110351000D03*
X154666000Y-109851000D03*
X154666000Y-109351000D03*
X154666000Y-108851000D03*
X154666000Y-108351000D03*
X154666000Y-107351000D03*
X154666000Y-106851000D03*
X154166000Y-112351000D03*
X154166000Y-111851000D03*
X154166000Y-110851000D03*
X154166000Y-110351000D03*
X154166000Y-109851000D03*
X154166000Y-109351000D03*
X154166000Y-108851000D03*
X154166000Y-108351000D03*
X154166000Y-107351000D03*
X154166000Y-106851000D03*
X153666000Y-112351000D03*
X153666000Y-111851000D03*
X153666000Y-110851000D03*
X153666000Y-110351000D03*
X153666000Y-108851000D03*
X153666000Y-108351000D03*
X153666000Y-107351000D03*
X153666000Y-106851000D03*
X153166000Y-112351000D03*
X153166000Y-111851000D03*
X153166000Y-110851000D03*
X153166000Y-110351000D03*
X153166000Y-108851000D03*
X153166000Y-108351000D03*
X153166000Y-107351000D03*
X153166000Y-106851000D03*
X152666000Y-112351000D03*
X152666000Y-111851000D03*
X152666000Y-110851000D03*
X152666000Y-110351000D03*
X152666000Y-109851000D03*
X152666000Y-109351000D03*
X152666000Y-108851000D03*
X152666000Y-108351000D03*
X152666000Y-107351000D03*
X152666000Y-106851000D03*
X152166000Y-112351000D03*
X152166000Y-111851000D03*
X152166000Y-110851000D03*
X152166000Y-110351000D03*
X152166000Y-109851000D03*
X152166000Y-109351000D03*
X152166000Y-108851000D03*
X152166000Y-108351000D03*
X152166000Y-107351000D03*
X152166000Y-106851000D03*
X151666000Y-112351000D03*
X151666000Y-111851000D03*
X151666000Y-107351000D03*
X151666000Y-106851000D03*
X151166000Y-112351000D03*
X151166000Y-111851000D03*
X151166000Y-111351000D03*
X151166000Y-110851000D03*
X151166000Y-110351000D03*
X151166000Y-109851000D03*
X151166000Y-109351000D03*
X151166000Y-108851000D03*
X151166000Y-108351000D03*
X151166000Y-107851000D03*
X151166000Y-107351000D03*
X151166000Y-106851000D03*
X150666000Y-112351000D03*
X150666000Y-111851000D03*
X150666000Y-111351000D03*
X150666000Y-110851000D03*
X150666000Y-110351000D03*
X150666000Y-109851000D03*
X150666000Y-109351000D03*
X150666000Y-108851000D03*
X150666000Y-108351000D03*
X150666000Y-107851000D03*
X150666000Y-107351000D03*
X150666000Y-106851000D03*
%TD*%
D45*
%TO.C,3225_Crystal*%
X128059000Y-77763000D03*
X130259000Y-77763000D03*
X130259000Y-79463000D03*
X128059000Y-79463000D03*
%TD*%
D46*
%TO.C,5032_Crystal*%
X164593000Y-78629000D03*
X167893000Y-78629000D03*
X167893000Y-80629000D03*
X164593000Y-80629000D03*
%TD*%
D47*
%TO.C,2520_Crystal*%
X138825000Y-77786000D03*
X140575000Y-77786000D03*
X140575000Y-79186000D03*
X138825000Y-79186000D03*
%TD*%
D48*
%TO.C,D_SMC*%
X153641000Y-75438000D03*
X146841000Y-75438000D03*
%TD*%
D49*
%TO.C,D_SMB*%
X153026000Y-69342000D03*
X148726000Y-69342000D03*
%TD*%
D50*
%TO.C,D_SMA*%
X153003000Y-65151000D03*
X149003000Y-65151000D03*
%TD*%
D51*
%TO.C,REF\u002A\u002A*%
X152499000Y-58547000D03*
X148999000Y-58547000D03*
%TD*%
D52*
%TO.C,REF\u002A\u002A*%
X153330000Y-61468000D03*
X148930000Y-61468000D03*
%TD*%
D26*
%TO.C,REF\u002A\u002A*%
X153450000Y-53848000D03*
X151350000Y-53848000D03*
%TD*%
D25*
%TO.C,REF\u002A\u002A*%
X152819000Y-56134000D03*
X151219000Y-56134000D03*
%TD*%
%TO.C,2010_(5025)*%
G36*
G01*
X169646800Y-69045401D02*
X169646800Y-66895399D01*
G75*
G02*
X169896799Y-66645400I249999J0D01*
G01*
X170746801Y-66645400D01*
G75*
G02*
X170996800Y-66895399I0J-249999D01*
G01*
X170996800Y-69045401D01*
G75*
G02*
X170746801Y-69295400I-249999J0D01*
G01*
X169896799Y-69295400D01*
G75*
G02*
X169646800Y-69045401I0J249999D01*
G01*
G37*
G36*
G01*
X165146800Y-69045401D02*
X165146800Y-66895399D01*
G75*
G02*
X165396799Y-66645400I249999J0D01*
G01*
X166246801Y-66645400D01*
G75*
G02*
X166496800Y-66895399I0J-249999D01*
G01*
X166496800Y-69045401D01*
G75*
G02*
X166246801Y-69295400I-249999J0D01*
G01*
X165396799Y-69295400D01*
G75*
G02*
X165146800Y-69045401I0J249999D01*
G01*
G37*
%TD*%
%TO.C,1210_(3225)*%
G36*
G01*
X169733800Y-65819201D02*
X169733800Y-63619199D01*
G75*
G02*
X169983799Y-63369200I249999J0D01*
G01*
X170633801Y-63369200D01*
G75*
G02*
X170883800Y-63619199I0J-249999D01*
G01*
X170883800Y-65819201D01*
G75*
G02*
X170633801Y-66069200I-249999J0D01*
G01*
X169983799Y-66069200D01*
G75*
G02*
X169733800Y-65819201I0J249999D01*
G01*
G37*
G36*
G01*
X166783800Y-65819201D02*
X166783800Y-63619199D01*
G75*
G02*
X167033799Y-63369200I249999J0D01*
G01*
X167683801Y-63369200D01*
G75*
G02*
X167933800Y-63619199I0J-249999D01*
G01*
X167933800Y-65819201D01*
G75*
G02*
X167683801Y-66069200I-249999J0D01*
G01*
X167033799Y-66069200D01*
G75*
G02*
X166783800Y-65819201I0J249999D01*
G01*
G37*
%TD*%
%TO.C,1206_(3216)*%
G36*
G01*
X169683000Y-62422801D02*
X169683000Y-61122799D01*
G75*
G02*
X169932999Y-60872800I249999J0D01*
G01*
X170583001Y-60872800D01*
G75*
G02*
X170833000Y-61122799I0J-249999D01*
G01*
X170833000Y-62422801D01*
G75*
G02*
X170583001Y-62672800I-249999J0D01*
G01*
X169932999Y-62672800D01*
G75*
G02*
X169683000Y-62422801I0J249999D01*
G01*
G37*
G36*
G01*
X166733000Y-62422801D02*
X166733000Y-61122799D01*
G75*
G02*
X166982999Y-60872800I249999J0D01*
G01*
X167633001Y-60872800D01*
G75*
G02*
X167883000Y-61122799I0J-249999D01*
G01*
X167883000Y-62422801D01*
G75*
G02*
X167633001Y-62672800I-249999J0D01*
G01*
X166982999Y-62672800D01*
G75*
G02*
X166733000Y-62422801I0J249999D01*
G01*
G37*
%TD*%
%TO.C,0805_(2012)*%
G36*
G01*
X169791800Y-59860200D02*
X169791800Y-58910200D01*
G75*
G02*
X170041800Y-58660200I250000J0D01*
G01*
X170541800Y-58660200D01*
G75*
G02*
X170791800Y-58910200I0J-250000D01*
G01*
X170791800Y-59860200D01*
G75*
G02*
X170541800Y-60110200I-250000J0D01*
G01*
X170041800Y-60110200D01*
G75*
G02*
X169791800Y-59860200I0J250000D01*
G01*
G37*
G36*
G01*
X167891800Y-59860200D02*
X167891800Y-58910200D01*
G75*
G02*
X168141800Y-58660200I250000J0D01*
G01*
X168641800Y-58660200D01*
G75*
G02*
X168891800Y-58910200I0J-250000D01*
G01*
X168891800Y-59860200D01*
G75*
G02*
X168641800Y-60110200I-250000J0D01*
G01*
X168141800Y-60110200D01*
G75*
G02*
X167891800Y-59860200I0J250000D01*
G01*
G37*
%TD*%
%TO.C,0603_(1608)*%
G36*
G01*
X169870000Y-57654000D02*
X169870000Y-57154000D01*
G75*
G02*
X170095000Y-56929000I225000J0D01*
G01*
X170545000Y-56929000D01*
G75*
G02*
X170770000Y-57154000I0J-225000D01*
G01*
X170770000Y-57654000D01*
G75*
G02*
X170545000Y-57879000I-225000J0D01*
G01*
X170095000Y-57879000D01*
G75*
G02*
X169870000Y-57654000I0J225000D01*
G01*
G37*
G36*
G01*
X168320000Y-57654000D02*
X168320000Y-57154000D01*
G75*
G02*
X168545000Y-56929000I225000J0D01*
G01*
X168995000Y-56929000D01*
G75*
G02*
X169220000Y-57154000I0J-225000D01*
G01*
X169220000Y-57654000D01*
G75*
G02*
X168995000Y-57879000I-225000J0D01*
G01*
X168545000Y-57879000D01*
G75*
G02*
X168320000Y-57654000I0J225000D01*
G01*
G37*
%TD*%
%TO.C,0402_(1005)*%
G36*
G01*
X170202200Y-55745200D02*
X170202200Y-55405200D01*
G75*
G02*
X170342200Y-55265200I140000J0D01*
G01*
X170622200Y-55265200D01*
G75*
G02*
X170762200Y-55405200I0J-140000D01*
G01*
X170762200Y-55745200D01*
G75*
G02*
X170622200Y-55885200I-140000J0D01*
G01*
X170342200Y-55885200D01*
G75*
G02*
X170202200Y-55745200I0J140000D01*
G01*
G37*
G36*
G01*
X169242200Y-55745200D02*
X169242200Y-55405200D01*
G75*
G02*
X169382200Y-55265200I140000J0D01*
G01*
X169662200Y-55265200D01*
G75*
G02*
X169802200Y-55405200I0J-140000D01*
G01*
X169802200Y-55745200D01*
G75*
G02*
X169662200Y-55885200I-140000J0D01*
G01*
X169382200Y-55885200D01*
G75*
G02*
X169242200Y-55745200I0J140000D01*
G01*
G37*
%TD*%
%TO.C,0201 (0603)*%
G36*
G01*
X170295400Y-54151200D02*
X170295400Y-53951200D01*
G75*
G02*
X170395400Y-53851200I100000J0D01*
G01*
X170655400Y-53851200D01*
G75*
G02*
X170755400Y-53951200I0J-100000D01*
G01*
X170755400Y-54151200D01*
G75*
G02*
X170655400Y-54251200I-100000J0D01*
G01*
X170395400Y-54251200D01*
G75*
G02*
X170295400Y-54151200I0J100000D01*
G01*
G37*
G36*
G01*
X169655400Y-54151200D02*
X169655400Y-53951200D01*
G75*
G02*
X169755400Y-53851200I100000J0D01*
G01*
X170015400Y-53851200D01*
G75*
G02*
X170115400Y-53951200I0J-100000D01*
G01*
X170115400Y-54151200D01*
G75*
G02*
X170015400Y-54251200I-100000J0D01*
G01*
X169755400Y-54251200D01*
G75*
G02*
X169655400Y-54151200I0J100000D01*
G01*
G37*
%TD*%
%TO.C,REF\u002A\u002A*%
G36*
G01*
X118739000Y-66021000D02*
X118739000Y-64746000D01*
G75*
G02*
X118839000Y-64646000I100000J0D01*
G01*
X119039000Y-64646000D01*
G75*
G02*
X119139000Y-64746000I0J-100000D01*
G01*
X119139000Y-66021000D01*
G75*
G02*
X119039000Y-66121000I-100000J0D01*
G01*
X118839000Y-66121000D01*
G75*
G02*
X118739000Y-66021000I0J100000D01*
G01*
G37*
G36*
G01*
X119389000Y-66021000D02*
X119389000Y-64746000D01*
G75*
G02*
X119489000Y-64646000I100000J0D01*
G01*
X119689000Y-64646000D01*
G75*
G02*
X119789000Y-64746000I0J-100000D01*
G01*
X119789000Y-66021000D01*
G75*
G02*
X119689000Y-66121000I-100000J0D01*
G01*
X119489000Y-66121000D01*
G75*
G02*
X119389000Y-66021000I0J100000D01*
G01*
G37*
G36*
G01*
X120039000Y-66021000D02*
X120039000Y-64746000D01*
G75*
G02*
X120139000Y-64646000I100000J0D01*
G01*
X120339000Y-64646000D01*
G75*
G02*
X120439000Y-64746000I0J-100000D01*
G01*
X120439000Y-66021000D01*
G75*
G02*
X120339000Y-66121000I-100000J0D01*
G01*
X120139000Y-66121000D01*
G75*
G02*
X120039000Y-66021000I0J100000D01*
G01*
G37*
G36*
G01*
X120689000Y-66021000D02*
X120689000Y-64746000D01*
G75*
G02*
X120789000Y-64646000I100000J0D01*
G01*
X120989000Y-64646000D01*
G75*
G02*
X121089000Y-64746000I0J-100000D01*
G01*
X121089000Y-66021000D01*
G75*
G02*
X120989000Y-66121000I-100000J0D01*
G01*
X120789000Y-66121000D01*
G75*
G02*
X120689000Y-66021000I0J100000D01*
G01*
G37*
G36*
G01*
X121339000Y-66021000D02*
X121339000Y-64746000D01*
G75*
G02*
X121439000Y-64646000I100000J0D01*
G01*
X121639000Y-64646000D01*
G75*
G02*
X121739000Y-64746000I0J-100000D01*
G01*
X121739000Y-66021000D01*
G75*
G02*
X121639000Y-66121000I-100000J0D01*
G01*
X121439000Y-66121000D01*
G75*
G02*
X121339000Y-66021000I0J100000D01*
G01*
G37*
G36*
G01*
X121989000Y-66021000D02*
X121989000Y-64746000D01*
G75*
G02*
X122089000Y-64646000I100000J0D01*
G01*
X122289000Y-64646000D01*
G75*
G02*
X122389000Y-64746000I0J-100000D01*
G01*
X122389000Y-66021000D01*
G75*
G02*
X122289000Y-66121000I-100000J0D01*
G01*
X122089000Y-66121000D01*
G75*
G02*
X121989000Y-66021000I0J100000D01*
G01*
G37*
G36*
G01*
X122639000Y-66021000D02*
X122639000Y-64746000D01*
G75*
G02*
X122739000Y-64646000I100000J0D01*
G01*
X122939000Y-64646000D01*
G75*
G02*
X123039000Y-64746000I0J-100000D01*
G01*
X123039000Y-66021000D01*
G75*
G02*
X122939000Y-66121000I-100000J0D01*
G01*
X122739000Y-66121000D01*
G75*
G02*
X122639000Y-66021000I0J100000D01*
G01*
G37*
G36*
G01*
X123289000Y-66021000D02*
X123289000Y-64746000D01*
G75*
G02*
X123389000Y-64646000I100000J0D01*
G01*
X123589000Y-64646000D01*
G75*
G02*
X123689000Y-64746000I0J-100000D01*
G01*
X123689000Y-66021000D01*
G75*
G02*
X123589000Y-66121000I-100000J0D01*
G01*
X123389000Y-66121000D01*
G75*
G02*
X123289000Y-66021000I0J100000D01*
G01*
G37*
G36*
G01*
X123939000Y-66021000D02*
X123939000Y-64746000D01*
G75*
G02*
X124039000Y-64646000I100000J0D01*
G01*
X124239000Y-64646000D01*
G75*
G02*
X124339000Y-64746000I0J-100000D01*
G01*
X124339000Y-66021000D01*
G75*
G02*
X124239000Y-66121000I-100000J0D01*
G01*
X124039000Y-66121000D01*
G75*
G02*
X123939000Y-66021000I0J100000D01*
G01*
G37*
G36*
G01*
X125014000Y-67096000D02*
X125014000Y-66896000D01*
G75*
G02*
X125114000Y-66796000I100000J0D01*
G01*
X126389000Y-66796000D01*
G75*
G02*
X126489000Y-66896000I0J-100000D01*
G01*
X126489000Y-67096000D01*
G75*
G02*
X126389000Y-67196000I-100000J0D01*
G01*
X125114000Y-67196000D01*
G75*
G02*
X125014000Y-67096000I0J100000D01*
G01*
G37*
G36*
G01*
X125014000Y-67746000D02*
X125014000Y-67546000D01*
G75*
G02*
X125114000Y-67446000I100000J0D01*
G01*
X126389000Y-67446000D01*
G75*
G02*
X126489000Y-67546000I0J-100000D01*
G01*
X126489000Y-67746000D01*
G75*
G02*
X126389000Y-67846000I-100000J0D01*
G01*
X125114000Y-67846000D01*
G75*
G02*
X125014000Y-67746000I0J100000D01*
G01*
G37*
G36*
G01*
X125014000Y-68396000D02*
X125014000Y-68196000D01*
G75*
G02*
X125114000Y-68096000I100000J0D01*
G01*
X126389000Y-68096000D01*
G75*
G02*
X126489000Y-68196000I0J-100000D01*
G01*
X126489000Y-68396000D01*
G75*
G02*
X126389000Y-68496000I-100000J0D01*
G01*
X125114000Y-68496000D01*
G75*
G02*
X125014000Y-68396000I0J100000D01*
G01*
G37*
G36*
G01*
X125014000Y-69046000D02*
X125014000Y-68846000D01*
G75*
G02*
X125114000Y-68746000I100000J0D01*
G01*
X126389000Y-68746000D01*
G75*
G02*
X126489000Y-68846000I0J-100000D01*
G01*
X126489000Y-69046000D01*
G75*
G02*
X126389000Y-69146000I-100000J0D01*
G01*
X125114000Y-69146000D01*
G75*
G02*
X125014000Y-69046000I0J100000D01*
G01*
G37*
G36*
G01*
X125014000Y-69696000D02*
X125014000Y-69496000D01*
G75*
G02*
X125114000Y-69396000I100000J0D01*
G01*
X126389000Y-69396000D01*
G75*
G02*
X126489000Y-69496000I0J-100000D01*
G01*
X126489000Y-69696000D01*
G75*
G02*
X126389000Y-69796000I-100000J0D01*
G01*
X125114000Y-69796000D01*
G75*
G02*
X125014000Y-69696000I0J100000D01*
G01*
G37*
G36*
G01*
X125014000Y-70346000D02*
X125014000Y-70146000D01*
G75*
G02*
X125114000Y-70046000I100000J0D01*
G01*
X126389000Y-70046000D01*
G75*
G02*
X126489000Y-70146000I0J-100000D01*
G01*
X126489000Y-70346000D01*
G75*
G02*
X126389000Y-70446000I-100000J0D01*
G01*
X125114000Y-70446000D01*
G75*
G02*
X125014000Y-70346000I0J100000D01*
G01*
G37*
G36*
G01*
X125014000Y-70996000D02*
X125014000Y-70796000D01*
G75*
G02*
X125114000Y-70696000I100000J0D01*
G01*
X126389000Y-70696000D01*
G75*
G02*
X126489000Y-70796000I0J-100000D01*
G01*
X126489000Y-70996000D01*
G75*
G02*
X126389000Y-71096000I-100000J0D01*
G01*
X125114000Y-71096000D01*
G75*
G02*
X125014000Y-70996000I0J100000D01*
G01*
G37*
G36*
G01*
X125014000Y-71646000D02*
X125014000Y-71446000D01*
G75*
G02*
X125114000Y-71346000I100000J0D01*
G01*
X126389000Y-71346000D01*
G75*
G02*
X126489000Y-71446000I0J-100000D01*
G01*
X126489000Y-71646000D01*
G75*
G02*
X126389000Y-71746000I-100000J0D01*
G01*
X125114000Y-71746000D01*
G75*
G02*
X125014000Y-71646000I0J100000D01*
G01*
G37*
G36*
G01*
X125014000Y-72296000D02*
X125014000Y-72096000D01*
G75*
G02*
X125114000Y-71996000I100000J0D01*
G01*
X126389000Y-71996000D01*
G75*
G02*
X126489000Y-72096000I0J-100000D01*
G01*
X126489000Y-72296000D01*
G75*
G02*
X126389000Y-72396000I-100000J0D01*
G01*
X125114000Y-72396000D01*
G75*
G02*
X125014000Y-72296000I0J100000D01*
G01*
G37*
G36*
G01*
X123939000Y-74446000D02*
X123939000Y-73171000D01*
G75*
G02*
X124039000Y-73071000I100000J0D01*
G01*
X124239000Y-73071000D01*
G75*
G02*
X124339000Y-73171000I0J-100000D01*
G01*
X124339000Y-74446000D01*
G75*
G02*
X124239000Y-74546000I-100000J0D01*
G01*
X124039000Y-74546000D01*
G75*
G02*
X123939000Y-74446000I0J100000D01*
G01*
G37*
G36*
G01*
X123289000Y-74446000D02*
X123289000Y-73171000D01*
G75*
G02*
X123389000Y-73071000I100000J0D01*
G01*
X123589000Y-73071000D01*
G75*
G02*
X123689000Y-73171000I0J-100000D01*
G01*
X123689000Y-74446000D01*
G75*
G02*
X123589000Y-74546000I-100000J0D01*
G01*
X123389000Y-74546000D01*
G75*
G02*
X123289000Y-74446000I0J100000D01*
G01*
G37*
G36*
G01*
X122639000Y-74446000D02*
X122639000Y-73171000D01*
G75*
G02*
X122739000Y-73071000I100000J0D01*
G01*
X122939000Y-73071000D01*
G75*
G02*
X123039000Y-73171000I0J-100000D01*
G01*
X123039000Y-74446000D01*
G75*
G02*
X122939000Y-74546000I-100000J0D01*
G01*
X122739000Y-74546000D01*
G75*
G02*
X122639000Y-74446000I0J100000D01*
G01*
G37*
G36*
G01*
X121989000Y-74446000D02*
X121989000Y-73171000D01*
G75*
G02*
X122089000Y-73071000I100000J0D01*
G01*
X122289000Y-73071000D01*
G75*
G02*
X122389000Y-73171000I0J-100000D01*
G01*
X122389000Y-74446000D01*
G75*
G02*
X122289000Y-74546000I-100000J0D01*
G01*
X122089000Y-74546000D01*
G75*
G02*
X121989000Y-74446000I0J100000D01*
G01*
G37*
G36*
G01*
X121339000Y-74446000D02*
X121339000Y-73171000D01*
G75*
G02*
X121439000Y-73071000I100000J0D01*
G01*
X121639000Y-73071000D01*
G75*
G02*
X121739000Y-73171000I0J-100000D01*
G01*
X121739000Y-74446000D01*
G75*
G02*
X121639000Y-74546000I-100000J0D01*
G01*
X121439000Y-74546000D01*
G75*
G02*
X121339000Y-74446000I0J100000D01*
G01*
G37*
G36*
G01*
X120689000Y-74446000D02*
X120689000Y-73171000D01*
G75*
G02*
X120789000Y-73071000I100000J0D01*
G01*
X120989000Y-73071000D01*
G75*
G02*
X121089000Y-73171000I0J-100000D01*
G01*
X121089000Y-74446000D01*
G75*
G02*
X120989000Y-74546000I-100000J0D01*
G01*
X120789000Y-74546000D01*
G75*
G02*
X120689000Y-74446000I0J100000D01*
G01*
G37*
G36*
G01*
X120039000Y-74446000D02*
X120039000Y-73171000D01*
G75*
G02*
X120139000Y-73071000I100000J0D01*
G01*
X120339000Y-73071000D01*
G75*
G02*
X120439000Y-73171000I0J-100000D01*
G01*
X120439000Y-74446000D01*
G75*
G02*
X120339000Y-74546000I-100000J0D01*
G01*
X120139000Y-74546000D01*
G75*
G02*
X120039000Y-74446000I0J100000D01*
G01*
G37*
G36*
G01*
X119389000Y-74446000D02*
X119389000Y-73171000D01*
G75*
G02*
X119489000Y-73071000I100000J0D01*
G01*
X119689000Y-73071000D01*
G75*
G02*
X119789000Y-73171000I0J-100000D01*
G01*
X119789000Y-74446000D01*
G75*
G02*
X119689000Y-74546000I-100000J0D01*
G01*
X119489000Y-74546000D01*
G75*
G02*
X119389000Y-74446000I0J100000D01*
G01*
G37*
G36*
G01*
X118739000Y-74446000D02*
X118739000Y-73171000D01*
G75*
G02*
X118839000Y-73071000I100000J0D01*
G01*
X119039000Y-73071000D01*
G75*
G02*
X119139000Y-73171000I0J-100000D01*
G01*
X119139000Y-74446000D01*
G75*
G02*
X119039000Y-74546000I-100000J0D01*
G01*
X118839000Y-74546000D01*
G75*
G02*
X118739000Y-74446000I0J100000D01*
G01*
G37*
G36*
G01*
X116589000Y-72296000D02*
X116589000Y-72096000D01*
G75*
G02*
X116689000Y-71996000I100000J0D01*
G01*
X117964000Y-71996000D01*
G75*
G02*
X118064000Y-72096000I0J-100000D01*
G01*
X118064000Y-72296000D01*
G75*
G02*
X117964000Y-72396000I-100000J0D01*
G01*
X116689000Y-72396000D01*
G75*
G02*
X116589000Y-72296000I0J100000D01*
G01*
G37*
G36*
G01*
X116589000Y-71646000D02*
X116589000Y-71446000D01*
G75*
G02*
X116689000Y-71346000I100000J0D01*
G01*
X117964000Y-71346000D01*
G75*
G02*
X118064000Y-71446000I0J-100000D01*
G01*
X118064000Y-71646000D01*
G75*
G02*
X117964000Y-71746000I-100000J0D01*
G01*
X116689000Y-71746000D01*
G75*
G02*
X116589000Y-71646000I0J100000D01*
G01*
G37*
G36*
G01*
X116589000Y-70996000D02*
X116589000Y-70796000D01*
G75*
G02*
X116689000Y-70696000I100000J0D01*
G01*
X117964000Y-70696000D01*
G75*
G02*
X118064000Y-70796000I0J-100000D01*
G01*
X118064000Y-70996000D01*
G75*
G02*
X117964000Y-71096000I-100000J0D01*
G01*
X116689000Y-71096000D01*
G75*
G02*
X116589000Y-70996000I0J100000D01*
G01*
G37*
G36*
G01*
X116589000Y-70346000D02*
X116589000Y-70146000D01*
G75*
G02*
X116689000Y-70046000I100000J0D01*
G01*
X117964000Y-70046000D01*
G75*
G02*
X118064000Y-70146000I0J-100000D01*
G01*
X118064000Y-70346000D01*
G75*
G02*
X117964000Y-70446000I-100000J0D01*
G01*
X116689000Y-70446000D01*
G75*
G02*
X116589000Y-70346000I0J100000D01*
G01*
G37*
G36*
G01*
X116589000Y-69696000D02*
X116589000Y-69496000D01*
G75*
G02*
X116689000Y-69396000I100000J0D01*
G01*
X117964000Y-69396000D01*
G75*
G02*
X118064000Y-69496000I0J-100000D01*
G01*
X118064000Y-69696000D01*
G75*
G02*
X117964000Y-69796000I-100000J0D01*
G01*
X116689000Y-69796000D01*
G75*
G02*
X116589000Y-69696000I0J100000D01*
G01*
G37*
G36*
G01*
X116589000Y-69046000D02*
X116589000Y-68846000D01*
G75*
G02*
X116689000Y-68746000I100000J0D01*
G01*
X117964000Y-68746000D01*
G75*
G02*
X118064000Y-68846000I0J-100000D01*
G01*
X118064000Y-69046000D01*
G75*
G02*
X117964000Y-69146000I-100000J0D01*
G01*
X116689000Y-69146000D01*
G75*
G02*
X116589000Y-69046000I0J100000D01*
G01*
G37*
G36*
G01*
X116589000Y-68396000D02*
X116589000Y-68196000D01*
G75*
G02*
X116689000Y-68096000I100000J0D01*
G01*
X117964000Y-68096000D01*
G75*
G02*
X118064000Y-68196000I0J-100000D01*
G01*
X118064000Y-68396000D01*
G75*
G02*
X117964000Y-68496000I-100000J0D01*
G01*
X116689000Y-68496000D01*
G75*
G02*
X116589000Y-68396000I0J100000D01*
G01*
G37*
G36*
G01*
X116589000Y-67746000D02*
X116589000Y-67546000D01*
G75*
G02*
X116689000Y-67446000I100000J0D01*
G01*
X117964000Y-67446000D01*
G75*
G02*
X118064000Y-67546000I0J-100000D01*
G01*
X118064000Y-67746000D01*
G75*
G02*
X117964000Y-67846000I-100000J0D01*
G01*
X116689000Y-67846000D01*
G75*
G02*
X116589000Y-67746000I0J100000D01*
G01*
G37*
G36*
G01*
X116589000Y-67096000D02*
X116589000Y-66896000D01*
G75*
G02*
X116689000Y-66796000I100000J0D01*
G01*
X117964000Y-66796000D01*
G75*
G02*
X118064000Y-66896000I0J-100000D01*
G01*
X118064000Y-67096000D01*
G75*
G02*
X117964000Y-67196000I-100000J0D01*
G01*
X116689000Y-67196000D01*
G75*
G02*
X116589000Y-67096000I0J100000D01*
G01*
G37*
%TD*%
D53*
%TO.C,HC49*%
X119947000Y-79375000D03*
X111447000Y-79375000D03*
%TD*%
D54*
%TO.C,REF\u002A\u002A*%
X110750000Y-68834000D03*
D55*
X101600000Y-71374000D03*
X101600000Y-66294000D03*
%TD*%
D56*
%TO.C,REF\u002A\u002A*%
X122623000Y-57277000D03*
D57*
X116323000Y-59557000D03*
X116323000Y-54997000D03*
%TD*%
D58*
%TO.C,REF\u002A\u002A*%
X106832000Y-55231000D03*
X106832000Y-59831000D03*
X106832000Y-57531000D03*
D59*
X113132000Y-57531000D03*
%TD*%
D60*
%TO.C,REF\u002A\u002A*%
X100119000Y-62799000D03*
X100119000Y-60899000D03*
X102319000Y-60899000D03*
X102319000Y-61849000D03*
X102319000Y-62799000D03*
%TD*%
D61*
%TO.C,SOT-23*%
X102473000Y-55880000D03*
X100473000Y-56830000D03*
X100473000Y-54930000D03*
%TD*%
M02*
