%TF.GenerationSoftware,KiCad,Pcbnew,(6.0.0)*%
%TF.CreationDate,2022-01-21T14:33:05-08:00*%
%TF.ProjectId,PCB-bottom,5043422d-626f-4747-946f-6d2e6b696361,rev?*%
%TF.SameCoordinates,Original*%
%TF.FileFunction,Profile,NP*%
%FSLAX46Y46*%
G04 Gerber Fmt 4.6, Leading zero omitted, Abs format (unit mm)*
G04 Created by KiCad (PCBNEW (6.0.0)) date 2022-01-21 14:33:05*
%MOMM*%
%LPD*%
G01*
G04 APERTURE LIST*
%TA.AperFunction,Profile*%
%ADD10C,0.100000*%
%TD*%
G04 APERTURE END LIST*
D10*
%TO.C,Ref\u002A\u002A*%
X159951100Y-113821000D02*
X160130900Y-113710000D01*
X188110000Y-108830800D02*
X187959000Y-108690600D01*
X103576500Y-114239000D02*
X103781200Y-114220000D01*
X119056900Y-84743200D02*
X118886400Y-84621500D01*
X101603700Y-108434000D02*
X101433300Y-108555700D01*
X188707000Y-112477000D02*
X188792000Y-112292000D01*
X131881200Y-114080000D02*
X132076700Y-114009000D01*
X210565000Y-145433000D02*
X210377000Y-145521000D01*
X100366300Y-127973000D02*
X100439300Y-128167000D01*
X187069000Y-108135000D02*
X186874000Y-108063500D01*
X123872700Y-55627300D02*
X123954400Y-55625200D01*
X119369200Y-89500400D02*
X119510200Y-89349600D01*
X88413500Y-131948000D02*
X88222200Y-132035000D01*
X142516700Y-84878100D02*
X142365500Y-85018300D01*
X131881200Y-66455700D02*
X132076700Y-66382400D01*
X130661900Y-66615300D02*
X130867300Y-66621900D01*
X175280000Y-102922700D02*
X175259000Y-102713700D01*
X182426000Y-85044700D02*
X182381000Y-85110800D01*
X141610800Y-38608000D02*
X141550400Y-38805900D01*
X146553300Y-100618200D02*
X146382700Y-100496500D01*
X77448870Y-144669000D02*
X77291970Y-144536000D01*
X99327200Y-146010000D02*
X81352300Y-146010000D01*
X100849400Y-109143000D02*
X100729800Y-109309700D01*
X169265300Y-101726800D02*
X169180200Y-101914600D01*
X78118000Y-145137000D02*
X77944700Y-145028000D01*
X117324500Y-90426400D02*
X117529300Y-90407900D01*
X188792000Y-109852100D02*
X188707000Y-109664300D01*
X128768600Y-108690600D02*
X128617400Y-108830800D01*
X144820900Y-58677800D02*
X145025700Y-58657600D01*
X105138300Y-108434000D02*
X104958400Y-108322800D01*
X189035000Y-111071900D02*
X189028000Y-110860200D01*
X186874000Y-114080000D02*
X187069000Y-114009000D01*
X168922400Y-145081000D02*
X168901900Y-145002000D01*
X161113300Y-65034400D02*
X161210200Y-64853100D01*
X170345000Y-100496500D02*
X170174000Y-100618200D01*
X103781200Y-130095000D02*
X103984700Y-130061000D01*
X202739000Y-121187000D02*
X202802000Y-121239000D01*
X189035000Y-126947000D02*
X189028000Y-126735000D01*
X102757300Y-114186000D02*
X102960800Y-114220000D01*
X202783000Y-134884000D02*
X202776000Y-134673000D01*
X127754700Y-110444800D02*
X127720300Y-110651200D01*
X132268100Y-124097000D02*
X132076700Y-124010000D01*
X134042300Y-79321900D02*
X134035300Y-79110200D01*
X129658000Y-124010000D02*
X129466600Y-124097000D01*
X193096000Y-103210900D02*
X193173000Y-103179200D01*
X202673000Y-135713000D02*
X202721000Y-135511000D01*
X168854800Y-61059200D02*
X168789800Y-61110500D01*
X167774700Y-54347000D02*
X170950000Y-59846400D01*
X115020500Y-137266000D02*
X115181400Y-137401000D01*
X193247000Y-103139500D02*
X195271000Y-101972600D01*
X114728200Y-89349600D02*
X114869200Y-89500400D01*
X119369200Y-85018300D02*
X119218000Y-84878100D01*
X119640700Y-105063200D02*
X119760400Y-104896500D01*
X147620200Y-56535400D02*
X147680600Y-56337800D01*
X144615500Y-99959300D02*
X144410000Y-99964600D01*
X158569100Y-66615300D02*
X158773900Y-66595100D01*
X134042300Y-63446900D02*
X134042300Y-63446900D01*
X143800400Y-90328500D02*
X144001800Y-90373500D01*
X161210200Y-62040600D02*
X161113300Y-61859400D01*
X106518100Y-111493000D02*
X106539000Y-111283500D01*
X145430600Y-100065200D02*
X145229200Y-100020200D01*
X213797000Y-141909000D02*
X213720000Y-142100000D01*
X134042300Y-126947000D02*
X134042300Y-126947000D01*
X157953400Y-123798000D02*
X157750000Y-123833000D01*
X131682500Y-123878000D02*
X131481000Y-123833000D01*
X127720300Y-111493000D02*
X127754700Y-111699000D01*
X142365500Y-53269100D02*
X142224500Y-53420200D01*
X142615000Y-24064200D02*
X142810200Y-24006000D01*
X113351800Y-144444000D02*
X113272100Y-144425000D01*
X156113700Y-113313000D02*
X156264900Y-113453000D01*
X156776100Y-108322800D02*
X156596400Y-108434000D01*
X155972700Y-61357700D02*
X155842200Y-61517300D01*
X170524000Y-132135000D02*
X170345000Y-132246000D01*
X103576500Y-107902100D02*
X103370900Y-107896800D01*
X129466600Y-82171400D02*
X129658000Y-82258700D01*
X140686200Y-144412000D02*
X140602300Y-144409000D01*
X148605500Y-25116700D02*
X148766000Y-25248900D01*
X147783500Y-39422700D02*
X147762600Y-39213700D01*
X113972000Y-87680000D02*
X114006400Y-87886400D01*
X110876900Y-79020200D02*
X120611800Y-62159800D01*
X119218000Y-100753100D02*
X119056900Y-100618200D01*
X158247500Y-43010400D02*
X158195100Y-43073400D01*
X100203000Y-127159000D02*
X100223900Y-127368000D01*
X169180200Y-136104000D02*
X169265300Y-136289000D01*
X147728200Y-40260600D02*
X147762600Y-40054800D01*
X158149200Y-43141100D02*
X158110200Y-43213100D01*
X103984700Y-130061000D02*
X104186100Y-130016000D01*
X182748000Y-110444800D02*
X182713000Y-110651200D01*
X120184300Y-88087500D02*
X120231900Y-87886400D01*
X188610000Y-112659000D02*
X188707000Y-112477000D01*
X183339000Y-125018000D02*
X183219000Y-125185000D01*
X155251000Y-111699000D02*
X155298500Y-111900000D01*
X142224500Y-105224600D02*
X142365500Y-105375400D01*
X158158200Y-76152100D02*
X157953400Y-76173300D01*
X147006500Y-101044200D02*
X146865500Y-100893300D01*
X184273000Y-124198000D02*
X184093000Y-124309000D01*
X133508500Y-77559700D02*
X133388800Y-77393000D01*
X116505600Y-131770000D02*
X116304000Y-131815000D01*
X174211000Y-132503000D02*
X174050000Y-132368000D01*
X142365500Y-105375400D02*
X142516700Y-105515600D01*
X156425900Y-124431000D02*
X156264900Y-124566000D01*
X182795000Y-110243700D02*
X182748000Y-110444800D01*
X114869200Y-132643000D02*
X114728200Y-132794000D01*
X105620900Y-113313000D02*
X105761900Y-113162000D01*
X146865500Y-105375400D02*
X147006500Y-105224600D01*
X75871430Y-142819000D02*
X75772470Y-142642000D01*
X116913600Y-106301400D02*
X117119200Y-106309300D01*
X106436100Y-111900000D02*
X106483700Y-111699000D01*
X200423000Y-131815000D02*
X200222000Y-131770000D01*
X160130900Y-124309000D02*
X159951100Y-124198000D01*
X118886400Y-100496500D02*
X118706700Y-100385300D01*
X141865900Y-53921900D02*
X141768900Y-54103100D01*
X192198000Y-102967600D02*
X192255000Y-103028400D01*
X119369200Y-100893300D02*
X119218000Y-100753100D01*
X170711000Y-132035000D02*
X170524000Y-132135000D01*
X148766000Y-25248900D02*
X148922300Y-25387300D01*
X119868800Y-101546900D02*
X119760400Y-101372200D01*
X170174000Y-100618200D02*
X170013000Y-100753100D01*
X128768600Y-129328000D02*
X128929600Y-129463000D01*
X141610800Y-56535400D02*
X141683800Y-56728300D01*
X114006400Y-86632300D02*
X113972000Y-86838700D01*
X203579000Y-121369000D02*
X203657000Y-121338000D01*
X117529300Y-90407900D02*
X117732800Y-90373500D01*
X90784900Y-107470700D02*
X93959900Y-101972600D01*
X185246000Y-114186000D02*
X185450000Y-114220000D01*
X75028200Y-138893000D02*
X75055180Y-138689000D01*
X161210200Y-128352000D02*
X161295400Y-128167000D01*
X155842200Y-125018000D02*
X155722500Y-125185000D01*
X120123900Y-88285900D02*
X120184300Y-88087500D01*
X101433300Y-129463000D02*
X101603700Y-129585000D01*
X90438100Y-137954000D02*
X90636800Y-137893000D01*
X155251000Y-64073100D02*
X155298500Y-64275300D01*
X106302700Y-109852100D02*
X106217500Y-109664300D01*
X119369200Y-137125000D02*
X119510200Y-136975000D01*
X87685100Y-137401000D02*
X87855800Y-137522000D01*
X160613600Y-81562900D02*
X160754600Y-81412100D01*
X157750000Y-82436000D02*
X157953400Y-82470400D01*
X174211000Y-137266000D02*
X174362000Y-137125000D01*
X100305900Y-126119000D02*
X100258300Y-126320000D01*
X155195700Y-63658300D02*
X155216600Y-63867300D01*
X106933500Y-85822500D02*
X106955700Y-85743200D01*
X214218000Y-140131000D02*
X214196000Y-140335000D01*
X93221500Y-109473600D02*
X93227300Y-109391500D01*
X130867300Y-130122000D02*
X131072800Y-130114000D01*
X146016200Y-137734000D02*
X146203000Y-137633000D01*
X88222200Y-137734000D02*
X88413500Y-137821000D01*
X188251000Y-113162000D02*
X188382000Y-113001000D01*
X132966100Y-81703100D02*
X133117300Y-81562900D01*
X170013000Y-105515600D02*
X170174000Y-105650500D01*
X201375000Y-137522000D02*
X201546000Y-137401000D01*
X169265300Y-104539300D02*
X169362300Y-104721900D01*
X175117000Y-88285900D02*
X175177000Y-88087500D01*
X106628200Y-84872700D02*
X106556700Y-84827700D01*
X106483700Y-126320000D02*
X106436100Y-126119000D01*
X92688100Y-135713000D02*
X92735500Y-135511000D01*
X172725000Y-90373500D02*
X172927000Y-90328500D01*
X105469800Y-113453000D02*
X105620900Y-113313000D01*
X139345400Y-26527200D02*
X139468400Y-26345400D01*
X119218000Y-84878100D02*
X119056900Y-84743200D01*
X96912700Y-103081300D02*
X96975700Y-103028400D01*
X159573000Y-114009000D02*
X159764400Y-113921000D01*
X156596400Y-129585000D02*
X156776100Y-129696000D01*
X139468400Y-26345400D02*
X139596700Y-26169700D01*
X185045000Y-114141000D02*
X185246000Y-114186000D01*
X186474000Y-123833000D02*
X186270000Y-123798000D01*
X211281000Y-145031000D02*
X211107000Y-145142000D01*
X116304000Y-137954000D02*
X116505600Y-137999000D01*
X160885100Y-113001000D02*
X161004800Y-112834000D01*
X105761900Y-129037000D02*
X105892400Y-128876000D01*
X158195100Y-43073400D02*
X158149200Y-43141100D01*
X130253700Y-123833000D02*
X130052200Y-123878000D01*
X145430600Y-131815000D02*
X145229200Y-131770000D01*
X157953400Y-82470400D02*
X158158200Y-82488900D01*
X128345800Y-128876000D02*
X128476400Y-129037000D01*
X158773900Y-82470400D02*
X158977300Y-82436000D01*
X117732800Y-84145200D02*
X117529300Y-84110800D01*
X113951300Y-102922700D02*
X113944200Y-103134400D01*
X187798000Y-108555700D02*
X187627000Y-108434000D01*
X147547200Y-56728300D02*
X147620200Y-56535400D01*
X131134700Y-43927700D02*
X131165400Y-43850700D01*
X168183100Y-144412000D02*
X168099100Y-144409000D01*
X174753000Y-89021500D02*
X174861000Y-88846900D01*
X147790500Y-39634400D02*
X147790500Y-39634400D01*
X104384800Y-108063500D02*
X104186100Y-108002700D01*
X147783500Y-55720800D02*
X147790500Y-55509400D01*
X133117300Y-77080800D02*
X132966100Y-76940600D01*
X160462400Y-124566000D02*
X160301400Y-124431000D01*
X147006500Y-41723200D02*
X147137000Y-41563700D01*
X101272200Y-129328000D02*
X101433300Y-129463000D01*
X182342000Y-85184900D02*
X182310000Y-85259000D01*
X156776100Y-129696000D02*
X156962900Y-129796000D01*
X120050900Y-104354100D02*
X120123900Y-104160900D01*
X127692400Y-126947000D02*
X127699400Y-127159000D01*
X141249100Y-144716000D02*
X141194100Y-144655000D01*
X172725000Y-84145200D02*
X172522000Y-84110800D01*
X92735500Y-134257000D02*
X92688100Y-134056000D01*
X188865000Y-127973000D02*
X188925000Y-127775000D01*
X155195700Y-63235200D02*
X155188700Y-63446900D01*
X133932500Y-62618500D02*
X133872000Y-62420500D01*
X214196000Y-140335000D02*
X214168000Y-140536000D01*
X186066000Y-114239000D02*
X186270000Y-114220000D01*
X175287000Y-103134400D02*
X175280000Y-102922700D01*
X147137000Y-37704800D02*
X147006500Y-37545200D01*
X158158200Y-60278500D02*
X157953400Y-60298300D01*
X179188000Y-79435500D02*
X179269000Y-79419700D01*
X182692000Y-111283500D02*
X182713000Y-111493000D01*
X104384800Y-114080000D02*
X104580300Y-114009000D01*
X113951300Y-103346000D02*
X113972000Y-103555000D01*
X201546000Y-132368000D02*
X201375000Y-132246000D01*
X133980000Y-78694800D02*
X133932500Y-78493700D01*
X184846000Y-114080000D02*
X185045000Y-114141000D01*
X100621300Y-112659000D02*
X100729800Y-112834000D01*
X141683800Y-86039600D02*
X141610800Y-86232800D01*
X174050000Y-89775500D02*
X174211000Y-89640600D01*
X118519900Y-137734000D02*
X118706700Y-137633000D01*
X133713900Y-112477000D02*
X133799100Y-112292000D01*
X160462400Y-108690600D02*
X160301400Y-108555700D01*
X128020800Y-125539000D02*
X127935600Y-125727000D01*
X142848300Y-132246000D02*
X142677700Y-132368000D01*
X188707000Y-128352000D02*
X188792000Y-128167000D01*
X146382700Y-89897300D02*
X146553300Y-89775500D01*
X193017000Y-103232100D02*
X193096000Y-103210900D01*
X140012300Y-25680000D02*
X140160300Y-25528900D01*
X155251000Y-110444800D02*
X155216600Y-110651200D01*
X133713900Y-125539000D02*
X133617000Y-125359000D01*
X127802300Y-78493700D02*
X127754700Y-78694800D01*
X147790500Y-134884000D02*
X147790500Y-134884000D01*
X147728200Y-135511000D02*
X147762600Y-135305000D01*
X144820900Y-52341000D02*
X144615500Y-52334400D01*
X187261000Y-108222300D02*
X187069000Y-108135000D01*
X114597700Y-89188200D02*
X114728200Y-89349600D01*
X172317000Y-90426400D02*
X172522000Y-90407900D01*
X119965800Y-85851800D02*
X119868800Y-85671900D01*
X120123900Y-104160900D02*
X120184300Y-103962500D01*
X174362000Y-137125000D02*
X174503000Y-136975000D01*
X78848780Y-145518000D02*
X78660400Y-145431000D01*
X129853400Y-114080000D02*
X130052200Y-114141000D01*
X146553300Y-42149500D02*
X146714300Y-42016700D01*
X202783000Y-134884000D02*
X202783000Y-134884000D01*
X158773900Y-123798000D02*
X158569100Y-123777000D01*
X101970200Y-113921000D02*
X102161700Y-114009000D01*
X145629400Y-58518200D02*
X145824800Y-58444900D01*
X133713900Y-128352000D02*
X133799100Y-128167000D01*
X147462100Y-85851800D02*
X147365100Y-85671900D01*
X143800400Y-52440700D02*
X143601600Y-52500500D01*
X155842200Y-113001000D02*
X155972700Y-113162000D01*
X118706700Y-90008400D02*
X118886400Y-89897300D01*
X104580300Y-124010000D02*
X104384800Y-123939000D01*
X132805100Y-124431000D02*
X132634600Y-124309000D01*
X196009000Y-109473600D02*
X196023000Y-109555600D01*
X130457100Y-130095000D02*
X130661900Y-130114000D01*
X75541220Y-137070000D02*
X75637000Y-136874000D01*
X187798000Y-113588000D02*
X187959000Y-113453000D01*
X109882500Y-79398500D02*
X109961700Y-79419600D01*
X131277600Y-107923300D02*
X131072800Y-107902100D01*
X156962900Y-113921000D02*
X157154300Y-114009000D01*
X156264900Y-124566000D02*
X156113700Y-124706000D01*
X114728200Y-132794000D02*
X114597700Y-132956000D01*
X127720300Y-63867300D02*
X127754700Y-64073100D01*
X132805100Y-108555700D02*
X132634600Y-108434000D01*
X132634600Y-81959800D02*
X132805100Y-81838000D01*
X168936900Y-87259400D02*
X168943900Y-87471000D01*
X147620200Y-40660400D02*
X147680600Y-40462800D01*
X171907000Y-84089600D02*
X171702000Y-84110800D01*
X103165600Y-130114000D02*
X103370900Y-130122000D01*
X120184300Y-134056000D02*
X120123900Y-133858000D01*
X143214700Y-58358700D02*
X143406200Y-58444900D01*
X147006500Y-53420200D02*
X146865500Y-53269100D01*
X145834100Y-23869400D02*
X146033600Y-23909600D01*
X144410000Y-58677800D02*
X144615500Y-58684400D01*
X155517000Y-62040600D02*
X155431900Y-62227900D01*
X92554500Y-133665000D02*
X92469600Y-133477000D01*
X169265300Y-133477000D02*
X169180200Y-133665000D01*
X161210200Y-112477000D02*
X161295400Y-112292000D01*
X142677700Y-105650500D02*
X142848300Y-105772300D01*
X100366300Y-110045300D02*
X100305900Y-110243700D01*
X116913600Y-90426400D02*
X117119200Y-90434300D01*
X127802300Y-127775000D02*
X127862700Y-127973000D01*
X143406200Y-58444900D02*
X143601600Y-58518200D01*
X106483700Y-127574000D02*
X106518100Y-127368000D01*
X155842200Y-65376200D02*
X155972700Y-65535700D01*
X169362300Y-133297000D02*
X169265300Y-133477000D01*
X113944200Y-87259400D02*
X113951300Y-87471000D01*
X131177700Y-43366300D02*
X131152900Y-43288500D01*
X185860000Y-130122000D02*
X186066000Y-130114000D01*
X147006500Y-89349600D02*
X147137000Y-89188200D01*
X197841000Y-132246000D02*
X197670000Y-132368000D01*
X187069000Y-129884000D02*
X187261000Y-129796000D01*
X142848300Y-100496500D02*
X142677700Y-100618200D01*
X175280000Y-87471000D02*
X175287000Y-87259400D01*
X155722500Y-109309700D02*
X155614000Y-109484400D01*
X189232000Y-144425000D02*
X189150000Y-144412000D01*
X148097400Y-144600000D02*
X148037000Y-144655000D01*
X131682500Y-60378200D02*
X131481000Y-60331600D01*
X159178800Y-123878000D02*
X158977300Y-123833000D01*
X171702000Y-131736000D02*
X171498000Y-131770000D01*
X155614000Y-80909400D02*
X155722500Y-81084000D01*
X141447500Y-55297700D02*
X141440500Y-55509400D01*
X175280000Y-134673000D02*
X175259000Y-134464000D01*
X107708200Y-78160200D02*
X109731700Y-79327000D01*
X150114700Y-26909200D02*
X159102200Y-42476000D01*
X168795100Y-144782000D02*
X168746000Y-144716000D01*
X202755000Y-134464000D02*
X202721000Y-134257000D01*
X174050000Y-105650500D02*
X174211000Y-105515600D01*
X189901000Y-145163000D02*
X189889000Y-145081000D01*
X155298500Y-127775000D02*
X155359000Y-127973000D01*
X159764400Y-82171400D02*
X159951100Y-82070900D01*
X129853400Y-60438000D02*
X129658000Y-60511000D01*
X141974300Y-37872200D02*
X141865900Y-38046900D01*
X87372900Y-132643000D02*
X87231900Y-132794000D01*
X132268100Y-60597600D02*
X132076700Y-60511000D01*
X127699400Y-79533500D02*
X127720300Y-79742500D01*
X116708800Y-131736000D02*
X116505600Y-131770000D01*
X115909800Y-84322500D02*
X115718500Y-84409800D01*
X120266300Y-102713700D02*
X120231900Y-102507300D01*
X118328500Y-90196200D02*
X118519900Y-90108900D01*
X175117000Y-86232800D02*
X175044000Y-86039600D01*
X156776100Y-82070900D02*
X156962900Y-82171400D01*
X119965800Y-104539300D02*
X120050900Y-104354100D01*
X168943900Y-87047700D02*
X168936900Y-87259400D01*
X182328000Y-85899300D02*
X182367000Y-85973400D01*
X76200040Y-143332000D02*
X76085470Y-143166000D01*
X143214700Y-105983900D02*
X143406200Y-106071200D01*
X161538600Y-126947000D02*
X161538600Y-126947000D01*
X128476400Y-129037000D02*
X128617400Y-129188000D01*
X130052200Y-76252700D02*
X129853400Y-76313500D01*
X158977300Y-114186000D02*
X159178800Y-114141000D01*
X120711700Y-61604200D02*
X120694200Y-61524300D01*
X147008000Y-24202500D02*
X147196900Y-24279500D01*
X133932500Y-127775000D02*
X133980000Y-127574000D01*
X168513100Y-61848500D02*
X168527000Y-61929400D01*
X155359000Y-80348400D02*
X155431900Y-80541600D01*
X141437500Y-145163000D02*
X141425500Y-145081000D01*
X115181400Y-105650500D02*
X115352100Y-105772300D01*
X188925000Y-126119000D02*
X188865000Y-125920000D01*
X129658000Y-60511000D02*
X129466600Y-60597600D01*
X85500100Y-121298000D02*
X85574200Y-121338000D01*
X173126000Y-106142700D02*
X173321000Y-106071200D01*
X128929600Y-60931700D02*
X128768600Y-61064300D01*
X106863700Y-85973300D02*
X106902800Y-85899300D01*
X141502800Y-135511000D02*
X141550400Y-135713000D01*
X142516700Y-57891700D02*
X142677700Y-58024500D01*
X130253700Y-66562100D02*
X130457100Y-66595100D01*
X188382000Y-109143000D02*
X188251000Y-108981700D01*
X213637000Y-142285000D02*
X213549000Y-142467000D01*
X146714300Y-53126800D02*
X146553300Y-52994200D01*
X75772470Y-142642000D02*
X75679070Y-142459000D01*
X147680600Y-38805900D02*
X147620200Y-38608000D01*
X170524000Y-137633000D02*
X170711000Y-137734000D01*
X119760400Y-133122000D02*
X119640700Y-132956000D01*
X97033300Y-102967500D02*
X97084700Y-102904000D01*
X128768600Y-81703100D02*
X128929600Y-81838000D01*
X130661900Y-76152100D02*
X130457100Y-76173300D01*
X106483700Y-110444800D02*
X106436100Y-110243700D01*
X130253700Y-82436000D02*
X130457100Y-82470400D01*
X114114600Y-133858000D02*
X114054000Y-134056000D01*
X145430600Y-137954000D02*
X145629400Y-137893000D01*
X141135300Y-24753100D02*
X141310500Y-24645500D01*
X171098000Y-84251000D02*
X170903000Y-84322500D01*
X141468400Y-103555000D02*
X141502800Y-103761400D01*
X127802300Y-126119000D02*
X127754700Y-126320000D01*
X161368300Y-64472900D02*
X161428700Y-64275300D01*
X101783400Y-108322800D02*
X101603700Y-108434000D01*
X174503000Y-85169200D02*
X174362000Y-85018300D01*
X142848300Y-89897300D02*
X143028000Y-90008400D01*
X89622900Y-138059000D02*
X89828200Y-138051000D01*
X113951300Y-135096000D02*
X113972000Y-135305000D01*
X103165600Y-114239000D02*
X103370900Y-114247000D01*
X171702000Y-99985800D02*
X171498000Y-100020200D01*
X113951300Y-134673000D02*
X113944200Y-134884000D01*
X185045000Y-130016000D02*
X185246000Y-130061000D01*
X141550400Y-135713000D02*
X141610800Y-135911000D01*
X106375800Y-127973000D02*
X106436100Y-127775000D01*
X128476400Y-124857000D02*
X128345800Y-125018000D01*
X213455000Y-142650000D02*
X213356000Y-142827000D01*
X103576500Y-123777000D02*
X103370900Y-123772000D01*
X198207000Y-137734000D02*
X198398000Y-137821000D01*
X189462000Y-144510000D02*
X189389000Y-144473000D01*
X93207700Y-109555600D02*
X93221500Y-109473600D01*
X133932500Y-78493700D02*
X133872000Y-78295300D01*
X146203000Y-137633000D02*
X146382700Y-137522000D01*
X142516700Y-42016700D02*
X142677700Y-42149500D01*
X141440500Y-87259400D02*
X141447500Y-87471000D01*
X106217500Y-109664300D02*
X106120700Y-109484400D01*
X168507300Y-61767000D02*
X168513100Y-61848500D01*
X109961700Y-79419600D02*
X110042400Y-79435500D01*
X170711000Y-100284800D02*
X170524000Y-100385300D01*
X141610800Y-135911000D02*
X141683800Y-136104000D01*
X120294200Y-103134400D02*
X120294200Y-103134400D01*
X200222000Y-131770000D02*
X200018000Y-131736000D01*
X118133100Y-137893000D02*
X118328500Y-137821000D01*
X100305900Y-127775000D02*
X100366300Y-127973000D01*
X186874000Y-108063500D02*
X186675000Y-108002700D01*
X147680600Y-86431200D02*
X147620200Y-86232800D01*
X175044000Y-133665000D02*
X174959000Y-133477000D01*
X141376700Y-144925000D02*
X141340900Y-144851000D01*
X159951100Y-66196400D02*
X160130900Y-66084500D01*
X114272600Y-104539300D02*
X114369700Y-104721900D01*
X146033600Y-23909600D02*
X146231900Y-23955900D01*
X120287200Y-87471000D02*
X120294200Y-87259400D01*
X87855800Y-137522000D02*
X88035400Y-137633000D01*
X210186000Y-145600000D02*
X209991000Y-145671000D01*
X145229200Y-100020200D02*
X145025700Y-99985800D01*
X164605900Y-55208800D02*
X164650300Y-55279900D01*
X128020800Y-112477000D02*
X128117700Y-112659000D01*
X169720900Y-132794000D02*
X169590400Y-132956000D01*
X175177000Y-102306200D02*
X175117000Y-102107800D01*
X171498000Y-100020200D02*
X171297000Y-100065200D01*
X199403000Y-131715000D02*
X199198000Y-131736000D01*
X148101500Y-24756600D02*
X148273100Y-24870600D01*
X161510700Y-63026200D02*
X161476300Y-62820300D01*
X183761000Y-124566000D02*
X183610000Y-124706000D01*
X147365100Y-41221900D02*
X147462100Y-41040600D01*
X196967000Y-133122000D02*
X196858000Y-133297000D01*
X155298500Y-62618400D02*
X155251000Y-62820300D01*
X146203000Y-105883400D02*
X146382700Y-105772300D01*
X145629400Y-90267700D02*
X145824800Y-90196200D01*
X175225000Y-134257000D02*
X175177000Y-134056000D01*
X172317000Y-106301400D02*
X172522000Y-106282900D01*
X143406200Y-84322500D02*
X143214700Y-84409800D01*
X175225000Y-86632300D02*
X175177000Y-86431200D01*
X142365500Y-89500400D02*
X142516700Y-89640600D01*
X196603000Y-135911000D02*
X196676000Y-136104000D01*
X120666400Y-144552000D02*
X120601100Y-144600000D01*
X183110000Y-125359000D02*
X183014000Y-125539000D01*
X119868800Y-104721900D02*
X119965800Y-104539300D01*
X115181400Y-89775500D02*
X115352100Y-89897300D01*
X147137000Y-132956000D02*
X147006500Y-132794000D01*
X131165400Y-43850700D02*
X131187600Y-43771600D01*
X147256600Y-136646000D02*
X147365100Y-136472000D01*
X158773900Y-76173300D02*
X158569100Y-76152100D01*
X182267000Y-85417800D02*
X182257000Y-85497100D01*
X147783500Y-103346000D02*
X147790500Y-103134400D01*
X145025700Y-131736000D02*
X144820900Y-131715000D01*
X128929600Y-108555700D02*
X128768600Y-108690600D01*
X142224500Y-101044200D02*
X142094000Y-101205500D01*
X156264900Y-113453000D02*
X156425900Y-113588000D01*
X120184300Y-102306200D02*
X120123900Y-102107800D01*
X143007100Y-23953600D02*
X143205500Y-23907500D01*
X173879000Y-89897300D02*
X174050000Y-89775500D01*
X142094000Y-57438700D02*
X142224500Y-57598200D01*
X147932900Y-144782000D02*
X147890200Y-144851000D01*
X175259000Y-134464000D02*
X175225000Y-134257000D01*
X118519900Y-100284800D02*
X118328500Y-100197500D01*
X132268100Y-66296200D02*
X132454800Y-66196400D01*
X200622000Y-137893000D02*
X200817000Y-137821000D01*
X171297000Y-84190200D02*
X171098000Y-84251000D01*
X186066000Y-130114000D02*
X186270000Y-130095000D01*
X187069000Y-124010000D02*
X186874000Y-123939000D01*
X141974300Y-101372200D02*
X141865900Y-101546900D01*
X210750000Y-145343000D02*
X210565000Y-145433000D01*
X159764400Y-66296200D02*
X159951100Y-66196400D01*
X168999200Y-134257000D02*
X168964800Y-134464000D01*
X144615500Y-36459400D02*
X144410000Y-36466000D01*
X175287000Y-147584000D02*
X168937300Y-147584000D01*
X155972700Y-108981700D02*
X155842200Y-109143000D01*
X155972700Y-65535700D02*
X156113700Y-65687100D01*
X120294200Y-145248000D02*
X120294200Y-147584000D01*
X134014400Y-79742500D02*
X134035300Y-79533500D01*
X158442500Y-42857000D02*
X158371400Y-42901400D01*
X119369200Y-132643000D02*
X119218000Y-132503000D01*
X156962900Y-129796000D02*
X157154300Y-129884000D01*
X142848300Y-84621500D02*
X142677700Y-84743200D01*
X131881200Y-108063500D02*
X131682500Y-108002700D01*
X142848300Y-58147000D02*
X143028000Y-58258900D01*
X196543000Y-134056000D02*
X196495000Y-134257000D01*
X105138300Y-129585000D02*
X105308700Y-129463000D01*
X133872000Y-78295300D02*
X133799100Y-78102100D01*
X115909800Y-100197500D02*
X115718500Y-100284800D01*
X132966100Y-129328000D02*
X133117300Y-129188000D01*
X202721000Y-135511000D02*
X202755000Y-135305000D01*
X146714300Y-132503000D02*
X146553300Y-132368000D01*
X174503000Y-101044200D02*
X174362000Y-100893300D01*
X169362300Y-88846900D02*
X169470800Y-89021500D01*
X147790500Y-87259400D02*
X147790500Y-87259400D01*
X173699000Y-100385300D02*
X173513000Y-100284800D01*
X161004800Y-112834000D02*
X161113300Y-112659000D01*
X173879000Y-100496500D02*
X173699000Y-100385300D01*
X186270000Y-123798000D02*
X186066000Y-123777000D01*
X131481000Y-82436000D02*
X131682500Y-82391000D01*
X88609000Y-131876000D02*
X88413500Y-131948000D01*
X116505600Y-100020200D02*
X116304000Y-100065200D01*
X175044000Y-88479100D02*
X175117000Y-88285900D01*
X114478100Y-85497200D02*
X114369700Y-85671900D01*
X131277600Y-60298300D02*
X131072800Y-60278500D01*
X133980000Y-110444800D02*
X133932500Y-110243700D01*
X148273100Y-24870600D02*
X148441200Y-24990400D01*
X174861000Y-88846900D02*
X174959000Y-88664300D01*
X114597700Y-85330500D02*
X114478100Y-85497200D01*
X169107200Y-88285900D02*
X169180200Y-88479100D01*
X129279800Y-124198000D02*
X129100100Y-124309000D01*
X143601600Y-106142700D02*
X143800400Y-106203500D01*
X129853400Y-123939000D02*
X129658000Y-124010000D01*
X184273000Y-129696000D02*
X184459000Y-129796000D01*
X120266300Y-135305000D02*
X120287200Y-135096000D01*
X130867300Y-60271900D02*
X130661900Y-60278500D01*
X174959000Y-85851800D02*
X174861000Y-85671900D01*
X155216600Y-79742500D02*
X155251000Y-79948900D01*
X145629400Y-84251000D02*
X145430600Y-84190200D01*
X132805100Y-81838000D02*
X132966100Y-81703100D01*
X120717900Y-61848700D02*
X120723700Y-61767200D01*
X147890200Y-144851000D02*
X147854400Y-144925000D01*
X170903000Y-106071200D02*
X171098000Y-106142700D01*
X168936900Y-103134400D02*
X168943900Y-103346000D01*
X116913600Y-131715000D02*
X116708800Y-131736000D01*
X134042300Y-63446900D02*
X134042300Y-63446900D01*
X92014000Y-132794000D02*
X91872900Y-132643000D01*
X198446000Y-107470700D02*
X196422000Y-108640100D01*
X173699000Y-137633000D02*
X173879000Y-137522000D01*
X75590970Y-142277000D02*
X75508420Y-142092000D01*
X173879000Y-137522000D02*
X174050000Y-137401000D01*
X131072800Y-114239000D02*
X131277600Y-114220000D01*
X140925100Y-144473000D02*
X140848100Y-144444000D01*
X202586000Y-120991000D02*
X202630000Y-121062000D01*
X116105300Y-84251000D02*
X115909800Y-84322500D01*
X147790500Y-55509400D02*
X147790500Y-55509400D01*
X178507000Y-79216000D02*
X178570000Y-79268900D01*
X169720900Y-89349600D02*
X169862000Y-89500400D01*
X213778000Y-137271000D02*
X213858000Y-137472000D01*
X178785000Y-79385300D02*
X178863000Y-79411800D01*
X158053400Y-43366300D02*
X158035900Y-43445900D01*
X189805000Y-144851000D02*
X189762000Y-144782000D01*
X131682500Y-66515500D02*
X131881200Y-66455700D01*
X86618300Y-135911000D02*
X86691100Y-136104000D01*
X106946200Y-85338400D02*
X106921300Y-85259000D01*
X114597700Y-132956000D02*
X114478100Y-133122000D01*
X147137000Y-53579800D02*
X147006500Y-53420200D01*
X156776100Y-60697000D02*
X156596400Y-60809000D01*
X75034290Y-140327000D02*
X75013120Y-140123000D01*
X146382700Y-100496500D02*
X146203000Y-100385300D01*
X147762600Y-40054800D02*
X147783500Y-39845800D01*
X115352100Y-137522000D02*
X115531700Y-137633000D01*
X156425900Y-65962000D02*
X156596400Y-66084500D01*
X158306300Y-42952700D02*
X158247500Y-43010400D01*
X89828200Y-131715000D02*
X89622900Y-131710000D01*
X104186100Y-130016000D02*
X104384800Y-129955000D01*
X119965800Y-136289000D02*
X120050900Y-136104000D01*
X133617000Y-65034400D02*
X133713900Y-64853100D01*
X132268100Y-108222300D02*
X132076700Y-108135000D01*
X187627000Y-124309000D02*
X187448000Y-124198000D01*
X105308700Y-113588000D02*
X105469800Y-113453000D01*
X183219000Y-112834000D02*
X183339000Y-113001000D01*
X128476400Y-108981700D02*
X128345800Y-109143000D01*
X92627500Y-135911000D02*
X92688100Y-135713000D01*
X171907000Y-99964600D02*
X171702000Y-99985800D01*
X114272600Y-85851800D02*
X114187400Y-86039600D01*
X148382800Y-144444000D02*
X148305900Y-144473000D01*
X103370900Y-107896800D02*
X103165600Y-107902100D01*
X197358000Y-132643000D02*
X197217000Y-132794000D01*
X178863000Y-79411800D02*
X178944000Y-79427700D01*
X130661900Y-130114000D02*
X130867300Y-130122000D01*
X115531700Y-84510300D02*
X115352100Y-84621500D01*
X100195900Y-111071900D02*
X100203000Y-111283500D01*
X145025700Y-36485800D02*
X144820900Y-36466000D01*
X147762600Y-87680000D02*
X147783500Y-87471000D01*
X115020500Y-132503000D02*
X114869200Y-132643000D01*
X134014400Y-111493000D02*
X134035300Y-111283500D01*
X213993000Y-141332000D02*
X213933000Y-141528000D01*
X147137000Y-41563700D02*
X147256600Y-41396500D01*
X183339000Y-128876000D02*
X183469000Y-129037000D01*
X147680600Y-103962500D02*
X147728200Y-103761400D01*
X142810200Y-24006000D02*
X143007100Y-23953600D01*
X145430600Y-36565700D02*
X145229200Y-36519200D01*
X170524000Y-100385300D02*
X170345000Y-100496500D01*
X201858000Y-137125000D02*
X201999000Y-136975000D01*
X202613000Y-133858000D02*
X202540000Y-133665000D01*
X86981900Y-133122000D02*
X86873400Y-133297000D01*
X75136940Y-140930000D02*
X75096460Y-140729000D01*
X132268100Y-76472300D02*
X132076700Y-76385000D01*
X161368300Y-110045300D02*
X161295400Y-109852100D01*
X169590400Y-136813000D02*
X169720900Y-136975000D01*
X141468400Y-102713700D02*
X141447500Y-102922700D01*
X184846000Y-123939000D02*
X184651000Y-124010000D01*
X133508500Y-61684700D02*
X133388800Y-61517300D01*
X86475700Y-134464000D02*
X86454800Y-134673000D01*
X141425500Y-145081000D02*
X141405100Y-145002000D01*
X117324500Y-106301400D02*
X117529300Y-106282900D01*
X172522000Y-84110800D02*
X172317000Y-84089600D01*
X144615500Y-58684400D02*
X144820900Y-58677800D01*
X121132400Y-144409000D02*
X121048400Y-144412000D01*
X159573000Y-129884000D02*
X159764400Y-129796000D01*
X188792000Y-128167000D02*
X188865000Y-127973000D01*
X142094000Y-136813000D02*
X142224500Y-136975000D01*
X161210200Y-109664300D02*
X161113300Y-109484400D01*
X100305900Y-111900000D02*
X100366300Y-112098000D01*
X161368300Y-80348400D02*
X161428700Y-80150000D01*
X133508500Y-125185000D02*
X133388800Y-125018000D01*
X196858000Y-133297000D02*
X196761000Y-133477000D01*
X199403000Y-138051000D02*
X199608000Y-138059000D01*
X198594000Y-137893000D02*
X198793000Y-137954000D01*
X187627000Y-129585000D02*
X187798000Y-129463000D01*
X186474000Y-130061000D02*
X186675000Y-130016000D01*
X148922300Y-25387300D02*
X149074400Y-25532000D01*
X197670000Y-132368000D02*
X197509000Y-132503000D01*
X170711000Y-90108900D02*
X170903000Y-90196200D01*
X161368300Y-127973000D02*
X161428700Y-127775000D01*
X128768600Y-124566000D02*
X128617400Y-124706000D01*
X91872900Y-132643000D02*
X91721600Y-132503000D01*
X134042300Y-79321900D02*
X134042300Y-79321900D01*
X179499000Y-79327000D02*
X181523000Y-78160200D01*
X131201500Y-43690700D02*
X131207300Y-43609200D01*
X104580300Y-108135000D02*
X104384800Y-108063500D01*
X169362300Y-85671900D02*
X169265300Y-85851800D01*
X120050900Y-133665000D02*
X119965800Y-133477000D01*
X142365500Y-137125000D02*
X142516700Y-137266000D01*
X169265300Y-85851800D02*
X169180200Y-86039600D01*
X155517000Y-128352000D02*
X155614000Y-128534000D01*
X118886400Y-105772300D02*
X119056900Y-105650500D01*
X75236950Y-137871000D02*
X75301510Y-137670000D01*
X117934400Y-84190200D02*
X117732800Y-84145200D01*
X147620200Y-88285900D02*
X147680600Y-88087500D01*
X168943900Y-103346000D02*
X168964800Y-103555000D01*
X114114600Y-135911000D02*
X114187400Y-136104000D01*
X146553300Y-105650500D02*
X146714300Y-105515600D01*
X157349800Y-76313500D02*
X157154300Y-76385000D01*
X213594000Y-136874000D02*
X213690000Y-137072000D01*
X144010000Y-23785000D02*
X144212900Y-23769900D01*
X77944700Y-145028000D02*
X77775370Y-144912000D01*
X192318000Y-103081300D02*
X192386000Y-103126300D01*
X172725000Y-137999000D02*
X172927000Y-137954000D01*
X147365100Y-88846900D02*
X147462100Y-88664300D01*
X171098000Y-106142700D02*
X171297000Y-106203500D01*
X169107200Y-133858000D02*
X169046800Y-134056000D01*
X168549100Y-62008800D02*
X168579800Y-62085800D01*
X96213600Y-103232100D02*
X96294300Y-103247900D01*
X141550400Y-88087500D02*
X141610800Y-88285900D01*
X175117000Y-102107800D02*
X175044000Y-101914600D01*
X92372500Y-133297000D02*
X92264000Y-133122000D01*
X169862000Y-132643000D02*
X169720900Y-132794000D01*
X117732800Y-131770000D02*
X117529300Y-131736000D01*
X118886400Y-137522000D02*
X119056900Y-137401000D01*
X129658000Y-82258700D02*
X129853400Y-82330200D01*
X89622900Y-131710000D02*
X89417300Y-131715000D01*
X157349800Y-123939000D02*
X157154300Y-124010000D01*
X128345800Y-113001000D02*
X128476400Y-113162000D01*
X120294200Y-87259400D02*
X120294200Y-87259400D01*
X127699400Y-79110200D02*
X127692400Y-79321900D01*
X120694200Y-61524300D02*
X120669400Y-61446300D01*
X148232300Y-144510000D02*
X148162700Y-144552000D01*
X114054000Y-86431200D02*
X114006400Y-86632300D01*
X158158200Y-114239000D02*
X158363600Y-114247000D01*
X102161700Y-114009000D02*
X102357000Y-114080000D01*
X156113700Y-129188000D02*
X156264900Y-129328000D01*
X189007000Y-127368000D02*
X189028000Y-127159000D01*
X161210200Y-80726800D02*
X161295400Y-80541600D01*
X149886600Y-26528200D02*
X150003500Y-26715500D01*
X174362000Y-105375400D02*
X174503000Y-105224600D01*
X171098000Y-90267700D02*
X171297000Y-90328500D01*
X158363600Y-123772000D02*
X158158200Y-123777000D01*
X147462100Y-136289000D02*
X147547200Y-136104000D01*
X99469600Y-144782000D02*
X99427000Y-144851000D01*
X147547200Y-38415400D02*
X147462100Y-38228100D01*
X102757300Y-107957700D02*
X102556000Y-108002700D01*
X118519900Y-105983900D02*
X118706700Y-105883400D01*
X182603000Y-84872700D02*
X182538000Y-84923000D01*
X90832300Y-137821000D02*
X91023600Y-137734000D01*
X186675000Y-114141000D02*
X186874000Y-114080000D01*
X114114600Y-104160900D02*
X114187400Y-104354100D01*
X102757300Y-130061000D02*
X102960800Y-130095000D01*
X110723700Y-79216000D02*
X110781300Y-79155100D01*
X157154300Y-82258700D02*
X157349800Y-82330200D01*
X186675000Y-108002700D02*
X186474000Y-107957700D01*
X75183780Y-141128000D02*
X75136940Y-140930000D01*
X143028000Y-100385300D02*
X142848300Y-100496500D01*
X141768900Y-104539300D02*
X141865900Y-104721900D01*
X203174000Y-121398000D02*
X203256000Y-121409000D01*
X188973000Y-110444800D02*
X188925000Y-110243700D01*
X142224500Y-57598200D02*
X142365500Y-57749600D01*
X114478100Y-104896500D02*
X114597700Y-105063200D01*
X115718500Y-100284800D02*
X115531700Y-100385300D01*
X127692400Y-111071900D02*
X127699400Y-111283500D01*
X127935600Y-62227900D02*
X127862700Y-62420500D01*
X115352100Y-89897300D02*
X115531700Y-90008400D01*
X145824800Y-100197500D02*
X145629400Y-100126000D01*
X155972700Y-113162000D02*
X156113700Y-113313000D01*
X156596400Y-124309000D02*
X156425900Y-124431000D01*
X86981900Y-136646000D02*
X87101500Y-136813000D01*
X106518100Y-127368000D02*
X106539000Y-127159000D01*
X131072800Y-66615300D02*
X131277600Y-66595100D01*
X159764400Y-108222300D02*
X159573000Y-108135000D01*
X161476300Y-78694800D02*
X161428700Y-78493700D01*
X114006400Y-103761400D02*
X114054000Y-103962500D01*
X147462100Y-38228100D02*
X147365100Y-38046900D01*
X105620900Y-108830800D02*
X105469800Y-108690600D01*
X114369700Y-101546900D02*
X114272600Y-101726800D01*
X110781300Y-79155100D02*
X110832700Y-79091600D01*
X100980100Y-108981700D02*
X100849400Y-109143000D01*
X155722500Y-61684700D02*
X155614000Y-61859400D01*
X196045000Y-109635000D02*
X196076000Y-109711700D01*
X86557700Y-134056000D02*
X86510100Y-134257000D01*
X188110000Y-113313000D02*
X188251000Y-113162000D01*
X157154300Y-76385000D02*
X156962900Y-76472300D01*
X182928000Y-112292000D02*
X183014000Y-112477000D01*
X149364900Y-25839500D02*
X149503100Y-26002500D01*
X127862700Y-78295300D02*
X127802300Y-78493700D01*
X100524500Y-109664300D02*
X100439300Y-109852100D01*
X175117000Y-133858000D02*
X175044000Y-133665000D01*
X115352100Y-105772300D02*
X115531700Y-105883400D01*
X115718500Y-90108900D02*
X115909800Y-90196200D01*
X203657000Y-121338000D02*
X203731000Y-121298000D01*
X143601600Y-42643200D02*
X143800400Y-42703000D01*
X168943900Y-87471000D02*
X168964800Y-87680000D01*
X128768600Y-76940600D02*
X128617400Y-77080800D01*
X139868900Y-25836900D02*
X140012300Y-25680000D01*
X182748000Y-126320000D02*
X182713000Y-126526000D01*
X142848300Y-137522000D02*
X143028000Y-137633000D01*
X103370900Y-130122000D02*
X103576500Y-130114000D01*
X96772700Y-103166000D02*
X96844700Y-103126300D01*
X85730600Y-121391000D02*
X85811300Y-121404000D01*
X144205300Y-36485800D02*
X144001800Y-36519200D01*
X146623700Y-24066800D02*
X146816900Y-24131600D01*
X117119200Y-131710000D02*
X116913600Y-131715000D01*
X155359000Y-125920000D02*
X155298500Y-126119000D01*
X144001800Y-90373500D02*
X144205300Y-90407900D01*
X183339000Y-113001000D02*
X183469000Y-113162000D01*
X172522000Y-99985800D02*
X172317000Y-99964600D01*
X129100100Y-124309000D02*
X128929600Y-124431000D01*
X147137000Y-136813000D02*
X147256600Y-136646000D01*
X174503000Y-105224600D02*
X174633000Y-105063200D01*
X146714300Y-42016700D02*
X146865500Y-41874600D01*
X155517000Y-80726800D02*
X155614000Y-80909400D01*
X141447500Y-39422700D02*
X141440500Y-39634400D01*
X143028000Y-52759500D02*
X142848300Y-52871500D01*
X119510200Y-101044200D02*
X119369200Y-100893300D01*
X146553300Y-132368000D02*
X146382700Y-132246000D01*
X127754700Y-64073100D02*
X127802300Y-64275300D01*
X143406200Y-90196200D02*
X143601600Y-90267700D01*
X148162700Y-144552000D02*
X148097400Y-144600000D01*
X159951100Y-60697000D02*
X159764400Y-60597600D01*
X102960800Y-130095000D02*
X103165600Y-130114000D01*
X120123900Y-135911000D02*
X120184300Y-135713000D01*
X146016200Y-58358700D02*
X146203000Y-58258900D01*
X127862700Y-112098000D02*
X127935600Y-112292000D01*
X100258300Y-111699000D02*
X100305900Y-111900000D01*
X175225000Y-87886400D02*
X175259000Y-87680000D01*
X129279800Y-113821000D02*
X129466600Y-113921000D01*
X119218000Y-89640600D02*
X119369200Y-89500400D01*
X96294300Y-103247900D02*
X96376100Y-103253200D01*
X211615000Y-144798000D02*
X211450000Y-144917000D01*
X168964800Y-103555000D02*
X168999200Y-103761400D01*
X85975100Y-121409000D02*
X86056300Y-121398000D01*
X145025700Y-42782600D02*
X145229200Y-42749600D01*
X210377000Y-145521000D02*
X210186000Y-145600000D01*
X134035300Y-110860200D02*
X134014400Y-110651200D01*
X200817000Y-131948000D02*
X200622000Y-131876000D01*
X175287000Y-87259400D02*
X175287000Y-87259400D01*
X127935600Y-109852100D02*
X127862700Y-110045300D01*
X133388800Y-61517300D02*
X133258300Y-61357700D01*
X183761000Y-113453000D02*
X183922000Y-113588000D01*
X161113300Y-112659000D02*
X161210200Y-112477000D01*
X75301510Y-137670000D02*
X75373480Y-137469000D01*
X182685000Y-126947000D02*
X182692000Y-127159000D01*
X182855000Y-127973000D02*
X182928000Y-128167000D01*
X214233000Y-139927000D02*
X214218000Y-140131000D01*
X113572200Y-144552000D02*
X113502300Y-144510000D01*
X132634600Y-66084500D02*
X132805100Y-65962000D01*
X173126000Y-90267700D02*
X173321000Y-90196200D01*
X158158200Y-107902100D02*
X157953400Y-107923300D01*
X183469000Y-124857000D02*
X183339000Y-125018000D01*
X147926500Y-24648900D02*
X148101500Y-24756600D01*
X168421900Y-144473000D02*
X168345000Y-144444000D01*
X86645200Y-120991000D02*
X93115600Y-109785800D01*
X172927000Y-100065200D02*
X172725000Y-100020200D01*
X146016200Y-90108900D02*
X146203000Y-90008400D01*
X161510700Y-111493000D02*
X161531600Y-111283500D01*
X145229200Y-84145200D02*
X145025700Y-84110800D01*
X146553300Y-58024500D02*
X146714300Y-57891700D01*
X79040340Y-145597000D02*
X78848780Y-145518000D01*
X147783500Y-102922700D02*
X147762600Y-102713700D01*
X133508500Y-81084000D02*
X133617000Y-80909400D01*
X160462400Y-81703100D02*
X160613600Y-81562900D01*
X147790500Y-145248000D02*
X147790500Y-147584000D01*
X155251000Y-62820300D02*
X155216600Y-63026200D01*
X175729000Y-144510000D02*
X175659000Y-144552000D01*
X86776300Y-136289000D02*
X86873400Y-136472000D01*
X147790500Y-39634400D02*
X147783500Y-39422700D01*
X147620200Y-104160900D02*
X147680600Y-103962500D01*
X106804700Y-85044700D02*
X106752300Y-84981200D01*
X160754600Y-77231700D02*
X160613600Y-77080800D01*
X186675000Y-123878000D02*
X186474000Y-123833000D01*
X144820900Y-84089600D02*
X144615500Y-84084300D01*
X75431690Y-141901000D02*
X75360780Y-141711000D01*
X196033000Y-109150800D02*
X196015000Y-109230200D01*
X158096300Y-43927700D02*
X158135700Y-44001800D01*
X161295400Y-125727000D02*
X161210200Y-125539000D01*
X128345800Y-109143000D02*
X128226200Y-109309700D01*
X127699400Y-63235200D02*
X127692400Y-63446900D01*
X214241000Y-139724000D02*
X214233000Y-139927000D01*
X129279800Y-108322800D02*
X129100100Y-108434000D01*
X106545900Y-126947000D02*
X106539000Y-126735000D01*
X141440500Y-55509400D02*
X141447500Y-55720800D01*
X106436100Y-110243700D02*
X106375800Y-110045300D01*
X87524000Y-137266000D02*
X87685100Y-137401000D01*
X145629400Y-42643200D02*
X145824800Y-42569900D01*
X165115200Y-55598000D02*
X165195200Y-55615400D01*
X147805600Y-145081000D02*
X147793600Y-145163000D01*
X159377600Y-66455700D02*
X159573000Y-66382400D01*
X145229200Y-58624600D02*
X145430600Y-58578000D01*
X90236500Y-131770000D02*
X90033000Y-131736000D01*
X119868800Y-133297000D02*
X119760400Y-133122000D01*
X161004800Y-125185000D02*
X160885100Y-125018000D01*
X196005000Y-109309500D02*
X196003000Y-109391600D01*
X128117700Y-128534000D02*
X128226200Y-128709000D01*
X114369700Y-88846900D02*
X114478100Y-89021500D01*
X104771800Y-113921000D02*
X104958400Y-113821000D01*
X168619200Y-62159900D02*
X178354000Y-79020200D01*
X155972700Y-124857000D02*
X155842200Y-125018000D01*
X145824800Y-137821000D02*
X146016200Y-137734000D01*
X186270000Y-114220000D02*
X186474000Y-114186000D01*
X155842200Y-61517300D02*
X155722500Y-61684700D01*
X133799100Y-128167000D02*
X133872000Y-127973000D01*
X168632700Y-61298900D02*
X168593700Y-61370900D01*
X174861000Y-85671900D02*
X174753000Y-85497200D01*
X106889600Y-85184900D02*
X106850400Y-85110800D01*
X155251000Y-126320000D02*
X155216600Y-126526000D01*
X127862700Y-62420500D02*
X127802300Y-62618500D01*
X169720900Y-136975000D02*
X169862000Y-137125000D01*
X160754600Y-129037000D02*
X160885100Y-128876000D01*
X196543000Y-135713000D02*
X196603000Y-135911000D01*
X106693300Y-84923000D02*
X106628200Y-84872700D01*
X120598400Y-61299200D02*
X120552600Y-61231200D01*
X197358000Y-137125000D02*
X197509000Y-137266000D01*
X188865000Y-112098000D02*
X188925000Y-111900000D01*
X147365100Y-38046900D02*
X147256600Y-37872200D01*
X158078200Y-43288200D02*
X158053400Y-43366300D01*
X158135700Y-44001800D02*
X164605900Y-55208800D01*
X156776100Y-113821000D02*
X156962900Y-113921000D01*
X175225000Y-103761400D02*
X175259000Y-103555000D01*
X120266300Y-87680000D02*
X120287200Y-87471000D01*
X168536900Y-61524100D02*
X168519400Y-61604000D01*
X175259000Y-135305000D02*
X175280000Y-135096000D01*
X147256600Y-101372200D02*
X147137000Y-101205500D01*
X156113700Y-108830800D02*
X155972700Y-108981700D01*
X86549700Y-121128000D02*
X86601100Y-121062000D01*
X147547200Y-54290400D02*
X147462100Y-54103100D01*
X158773900Y-130095000D02*
X158977300Y-130061000D01*
X143028000Y-132135000D02*
X142848300Y-132246000D01*
X132454800Y-66196400D02*
X132634600Y-66084500D01*
X179425000Y-79366700D02*
X179499000Y-79327000D01*
X145025700Y-84110800D02*
X144820900Y-84089600D01*
X100223900Y-111493000D02*
X100258300Y-111699000D01*
X182261000Y-85661200D02*
X182275000Y-85743200D01*
X133388800Y-113001000D02*
X133508500Y-112834000D01*
X173321000Y-90196200D02*
X173513000Y-90108900D01*
X214168000Y-140536000D02*
X214134000Y-140737000D01*
X199813000Y-131715000D02*
X199608000Y-131710000D01*
X174633000Y-136813000D02*
X174753000Y-136646000D01*
X124340900Y-55501900D02*
X124408700Y-55456100D01*
X185450000Y-114220000D02*
X185655000Y-114239000D01*
X164890000Y-55501900D02*
X164961900Y-55541100D01*
X127720300Y-63026200D02*
X127699400Y-63235200D01*
X184651000Y-124010000D02*
X184459000Y-124097000D01*
X110124100Y-79440800D02*
X110205900Y-79438200D01*
X160613600Y-129188000D02*
X160754600Y-129037000D01*
X141610800Y-102107800D02*
X141550400Y-102306200D01*
X146714300Y-37251800D02*
X146553300Y-37119200D01*
X155431900Y-112292000D02*
X155517000Y-112477000D01*
X158363600Y-76146800D02*
X158158200Y-76152100D01*
X161113300Y-77734400D02*
X161004800Y-77559700D01*
X141502800Y-87886400D02*
X141550400Y-88087500D01*
X141502800Y-54882800D02*
X141468400Y-55088700D01*
X92879900Y-108685100D02*
X92808700Y-108640100D01*
X156113700Y-124706000D02*
X155972700Y-124857000D01*
X175117000Y-135911000D02*
X175177000Y-135713000D01*
X155359000Y-112098000D02*
X155431900Y-112292000D01*
X133980000Y-64073100D02*
X134014400Y-63867300D01*
X161210200Y-77914300D02*
X161113300Y-77734400D01*
X161538600Y-63446900D02*
X161531600Y-63235200D01*
X175280000Y-135096000D02*
X175287000Y-134884000D01*
X161210200Y-64853100D02*
X161295400Y-64665800D01*
X141550400Y-38805900D02*
X141502800Y-39007800D01*
X114114600Y-102107800D02*
X114054000Y-102306200D01*
X117324500Y-84089600D02*
X117119200Y-84084300D01*
X170013000Y-84878100D02*
X169862000Y-85018300D01*
X147680600Y-54680900D02*
X147620200Y-54483000D01*
X143028000Y-58258900D02*
X143214700Y-58358700D01*
X120358100Y-144925000D02*
X120329700Y-145002000D01*
X202630000Y-121062000D02*
X202681000Y-121128000D01*
X147790500Y-147584000D02*
X141440500Y-147584000D01*
X156962900Y-108222300D02*
X156776100Y-108322800D01*
X129853400Y-82330200D02*
X130052200Y-82391000D01*
X141447500Y-55720800D02*
X141468400Y-55929800D01*
X158363600Y-66621900D02*
X158569100Y-66615300D01*
X128617400Y-61206600D02*
X128476400Y-61357700D01*
X130661900Y-82488900D02*
X130867300Y-82496800D01*
X196115000Y-109785800D02*
X202586000Y-120991000D01*
X147547200Y-88479100D02*
X147620200Y-88285900D01*
X106012200Y-128709000D02*
X106120700Y-128534000D01*
X99573900Y-144655000D02*
X99518800Y-144716000D01*
X188110000Y-129188000D02*
X188251000Y-129037000D01*
X186270000Y-107923300D02*
X186066000Y-107902100D01*
X132268100Y-82171400D02*
X132454800Y-82070900D01*
X141447500Y-87471000D02*
X141468400Y-87680000D01*
X141610800Y-104160900D02*
X141683800Y-104354100D01*
X128020800Y-62040600D02*
X127935600Y-62227900D01*
X142365500Y-57749600D02*
X142516700Y-57891700D01*
X117934400Y-106203500D02*
X118133100Y-106142700D01*
X93141300Y-108997300D02*
X93102400Y-108923200D01*
X140795000Y-24987000D02*
X140963400Y-24866900D01*
X128020800Y-80726800D02*
X128117700Y-80909400D01*
X179269000Y-79419700D02*
X179348000Y-79398500D01*
X88807700Y-137954000D02*
X89009100Y-137999000D01*
X120552600Y-61231200D02*
X120500200Y-61168200D01*
X170174000Y-105650500D02*
X170345000Y-105772300D01*
X183219000Y-109309700D02*
X183110000Y-109484400D01*
X171498000Y-137999000D02*
X171702000Y-138033000D01*
X196440000Y-135096000D02*
X196461000Y-135305000D01*
X161531600Y-110860200D02*
X161510700Y-110651200D01*
X188973000Y-127574000D02*
X189007000Y-127368000D01*
X144410000Y-90426400D02*
X144615500Y-90434300D01*
X174050000Y-100618200D02*
X173879000Y-100496500D01*
X140160300Y-25528900D02*
X140312800Y-25384200D01*
X155298500Y-110243700D02*
X155251000Y-110444800D01*
X174362000Y-89500400D02*
X174503000Y-89349600D01*
X100524500Y-128352000D02*
X100621300Y-128534000D01*
X119510200Y-85169200D02*
X119369200Y-85018300D01*
X127754700Y-126320000D02*
X127720300Y-126526000D01*
X123710200Y-55607700D02*
X123791000Y-55621700D01*
X189840000Y-144925000D02*
X189805000Y-144851000D01*
X147728200Y-54882800D02*
X147680600Y-54680900D01*
X141974300Y-41396500D02*
X142094000Y-41563700D01*
X147783500Y-135096000D02*
X147790500Y-134884000D01*
X144001800Y-58624600D02*
X144205300Y-58657600D01*
X202357000Y-133297000D02*
X202249000Y-133122000D01*
X133617000Y-112659000D02*
X133713900Y-112477000D01*
X117529300Y-131736000D02*
X117324500Y-131715000D01*
X146865500Y-41874600D02*
X147006500Y-41723200D01*
X141440500Y-134884000D02*
X141447500Y-135096000D01*
X120294200Y-103134400D02*
X120287200Y-102922700D01*
X130661900Y-123777000D02*
X130457100Y-123798000D01*
X159178800Y-130016000D02*
X159377600Y-129955000D01*
X201375000Y-132246000D02*
X201195000Y-132135000D01*
X120637400Y-61371100D02*
X120598400Y-61299200D01*
X100439300Y-109852100D02*
X100366300Y-110045300D01*
X146382700Y-137522000D02*
X146553300Y-137401000D01*
X158977300Y-66562100D02*
X159178800Y-66515500D01*
X169470800Y-136646000D02*
X169590400Y-136813000D01*
X128768600Y-113453000D02*
X128929600Y-113588000D01*
X133258300Y-81412100D02*
X133388800Y-81250700D01*
X134035300Y-126735000D02*
X134014400Y-126526000D01*
X129466600Y-129796000D02*
X129658000Y-129884000D01*
X175177000Y-103962500D02*
X175225000Y-103761400D01*
X165195200Y-55615400D02*
X165276400Y-55625200D01*
X127802300Y-62618500D02*
X127754700Y-62820300D01*
X170013000Y-132503000D02*
X169862000Y-132643000D01*
X161368300Y-78295300D02*
X161295400Y-78102100D01*
X146382700Y-36996500D02*
X146203000Y-36884500D01*
X142224500Y-41723200D02*
X142365500Y-41874600D01*
X147783500Y-39845800D02*
X147790500Y-39634400D01*
X113972000Y-102713700D02*
X113951300Y-102922700D01*
X160130900Y-76684000D02*
X159951100Y-76572800D01*
X120540700Y-144655000D02*
X120485700Y-144716000D01*
X132454800Y-108322800D02*
X132268100Y-108222300D01*
X115020500Y-89640600D02*
X115181400Y-89775500D01*
X119056900Y-137401000D02*
X119218000Y-137266000D01*
X157750000Y-66562100D02*
X157953400Y-66595100D01*
X142848300Y-105772300D02*
X143028000Y-105883400D01*
X115352100Y-132246000D02*
X115181400Y-132368000D01*
X197086000Y-132956000D02*
X196967000Y-133122000D01*
X91210400Y-132135000D02*
X91023600Y-132035000D01*
X93959900Y-101972600D02*
X95983700Y-103139500D01*
X188925000Y-127775000D02*
X188973000Y-127574000D01*
X131682500Y-108002700D02*
X131481000Y-107957700D01*
X175534000Y-144655000D02*
X175479000Y-144716000D01*
X159178800Y-108002700D02*
X158977300Y-107957700D01*
X181523000Y-78160200D02*
X184698000Y-83658300D01*
X170903000Y-137821000D02*
X171098000Y-137893000D01*
X116913600Y-138051000D02*
X117119200Y-138059000D01*
X183469000Y-113162000D02*
X183610000Y-113313000D01*
X106963700Y-85417700D02*
X106946200Y-85338400D01*
X116105300Y-131876000D02*
X115909800Y-131948000D01*
X141440500Y-103134400D02*
X141447500Y-103346000D01*
X134014400Y-63867300D02*
X134035300Y-63658300D01*
X157349800Y-108063500D02*
X157154300Y-108135000D01*
X142677700Y-84743200D02*
X142516700Y-84878100D01*
X157750000Y-130061000D02*
X157953400Y-130095000D01*
X173879000Y-132246000D02*
X173699000Y-132135000D01*
X211933000Y-144542000D02*
X211776000Y-144671000D01*
X116304000Y-131815000D02*
X116105300Y-131876000D01*
X113801800Y-144782000D02*
X113752900Y-144716000D01*
X173879000Y-105772300D02*
X174050000Y-105650500D01*
X161113300Y-61859400D02*
X161004800Y-61684700D01*
X158110200Y-43213100D02*
X158078200Y-43288200D01*
X130788600Y-42856900D02*
X130128800Y-42475900D01*
X147462100Y-41040600D02*
X147547200Y-40853300D01*
X133980000Y-111699000D02*
X134014400Y-111493000D01*
X105308700Y-124431000D02*
X105138300Y-124309000D01*
X144416200Y-23760600D02*
X144619700Y-23757700D01*
X161295400Y-109852100D02*
X161210200Y-109664300D01*
X124269000Y-55541100D02*
X124340900Y-55501900D01*
X100980100Y-124857000D02*
X100849400Y-125018000D01*
X142224500Y-89349600D02*
X142365500Y-89500400D01*
X127720300Y-126526000D02*
X127699400Y-126735000D01*
X115181400Y-132368000D02*
X115020500Y-132503000D01*
X141768900Y-38228100D02*
X141683800Y-38415400D01*
X187069000Y-114009000D02*
X187261000Y-113921000D01*
X75131120Y-138279000D02*
X75180330Y-138075000D01*
X141550400Y-86431200D02*
X141502800Y-86632300D01*
X81352300Y-146010000D02*
X81128400Y-146010000D01*
X103781200Y-123798000D02*
X103576500Y-123777000D01*
X142365500Y-132643000D02*
X142224500Y-132794000D01*
X129100100Y-81959800D02*
X129279800Y-82070900D01*
X171702000Y-138033000D02*
X171907000Y-138051000D01*
X159377600Y-114080000D02*
X159573000Y-114009000D01*
X209387000Y-145849000D02*
X209180000Y-145896000D01*
X147790500Y-103134400D02*
X147790500Y-103134400D01*
X120441300Y-61110800D02*
X120376300Y-61059200D01*
X174050000Y-84743200D02*
X173879000Y-84621500D01*
X171907000Y-131715000D02*
X171702000Y-131736000D01*
X101783400Y-113821000D02*
X101970200Y-113921000D01*
X118706700Y-137633000D02*
X118886400Y-137522000D01*
X174861000Y-133297000D02*
X174753000Y-133122000D01*
X76444510Y-143658000D02*
X76319890Y-143499000D01*
X170903000Y-100197500D02*
X170711000Y-100284800D01*
X182713000Y-127368000D02*
X182748000Y-127574000D01*
X113908700Y-145002000D02*
X113880400Y-144925000D01*
X156962900Y-60597600D02*
X156776100Y-60697000D01*
X171098000Y-100126000D02*
X170903000Y-100197500D01*
X130052200Y-108002700D02*
X129853400Y-108063500D01*
X174861000Y-104721900D02*
X174959000Y-104539300D01*
X115531700Y-100385300D02*
X115352100Y-100496500D01*
X131277600Y-123798000D02*
X131072800Y-123777000D01*
X117732800Y-106248500D02*
X117934400Y-106203500D01*
X134035300Y-63235200D02*
X134014400Y-63026200D01*
X144001800Y-100020200D02*
X143800400Y-100065200D01*
X148305900Y-144473000D02*
X148232300Y-144510000D01*
X119760400Y-85497200D02*
X119640700Y-85330500D01*
X127754700Y-127574000D02*
X127802300Y-127775000D01*
X146016200Y-132035000D02*
X145824800Y-131948000D01*
X184651000Y-114009000D02*
X184846000Y-114080000D01*
X147826000Y-145002000D02*
X147805600Y-145081000D01*
X115181400Y-84743200D02*
X115020500Y-84878100D01*
X133117300Y-65687100D02*
X133258300Y-65535700D01*
X130457100Y-123798000D02*
X130253700Y-123833000D01*
X92264000Y-133122000D02*
X92144400Y-132956000D01*
X156596400Y-113710000D02*
X156776100Y-113821000D01*
X147365100Y-136472000D02*
X147462100Y-136289000D01*
X198994000Y-137999000D02*
X199198000Y-138033000D01*
X160754600Y-65535700D02*
X160885100Y-65376200D01*
X157349800Y-66455700D02*
X157548500Y-66515500D01*
X134014400Y-63026200D02*
X133980000Y-62820300D01*
X133872000Y-127973000D02*
X133932500Y-127775000D01*
X114006400Y-135511000D02*
X114054000Y-135713000D01*
X145026500Y-23770400D02*
X145229400Y-23785800D01*
X91390100Y-137522000D02*
X91560700Y-137401000D01*
X146553300Y-137401000D02*
X146714300Y-137266000D01*
X120886500Y-144444000D02*
X120809600Y-144473000D01*
X142041100Y-24276400D02*
X142230300Y-24199400D01*
X142516700Y-105515600D02*
X142677700Y-105650500D01*
X213720000Y-142100000D02*
X213637000Y-142285000D01*
X106902800Y-85899300D02*
X106933500Y-85822500D01*
X130253700Y-114186000D02*
X130457100Y-114220000D01*
X103984700Y-107957700D02*
X103781200Y-107923300D01*
X155614000Y-109484400D02*
X155517000Y-109664300D01*
X114114600Y-88285900D02*
X114187400Y-88479100D01*
X170345000Y-137522000D02*
X170524000Y-137633000D01*
X119868800Y-88846900D02*
X119965800Y-88664300D01*
X171907000Y-106301400D02*
X172112000Y-106309300D01*
X87372900Y-137125000D02*
X87524000Y-137266000D01*
X170345000Y-84621500D02*
X170174000Y-84743200D01*
X142094000Y-105063200D02*
X142224500Y-105224600D01*
X147620200Y-38608000D02*
X147547200Y-38415400D01*
X147790500Y-55509400D02*
X147790500Y-55509400D01*
X165750900Y-55515400D02*
X167774700Y-54347000D01*
X99342400Y-145081000D02*
X99330400Y-145163000D01*
X128226200Y-109309700D02*
X128117700Y-109484400D01*
X188110000Y-124706000D02*
X187959000Y-124566000D01*
X172927000Y-106203500D02*
X173126000Y-106142700D01*
X187261000Y-129796000D02*
X187448000Y-129696000D01*
X145824800Y-58444900D02*
X146016200Y-58358700D01*
X161428700Y-80150000D02*
X161476300Y-79948900D01*
X192773000Y-103250700D02*
X192855000Y-103253300D01*
X132076700Y-66382400D02*
X132268100Y-66296200D01*
X110832700Y-79091600D02*
X110876900Y-79020200D01*
X133799100Y-112292000D02*
X133872000Y-112098000D01*
X155972700Y-77231700D02*
X155842200Y-77393000D01*
X110287400Y-79427600D02*
X110367300Y-79411800D01*
X185246000Y-130061000D02*
X185450000Y-130095000D01*
X169862000Y-137125000D02*
X170013000Y-137266000D01*
X146865500Y-137125000D02*
X147006500Y-136975000D01*
X173126000Y-84251000D02*
X172927000Y-84190200D01*
X141974300Y-133122000D02*
X141865900Y-133297000D01*
X159377600Y-76313500D02*
X159178800Y-76252700D01*
X130457100Y-107923300D02*
X130253700Y-107957700D01*
X141447500Y-87047700D02*
X141440500Y-87259400D01*
X106850400Y-85110800D02*
X106804700Y-85044700D01*
X159951100Y-124198000D02*
X159764400Y-124097000D01*
X97128900Y-102832600D02*
X106863700Y-85973300D01*
X159377600Y-60438000D02*
X159178800Y-60378200D01*
X100621300Y-125359000D02*
X100524500Y-125539000D01*
X183110000Y-128534000D02*
X183219000Y-128709000D01*
X188610000Y-125359000D02*
X188501000Y-125185000D01*
X118706700Y-132135000D02*
X118519900Y-132035000D01*
X197217000Y-136975000D02*
X197358000Y-137125000D01*
X144001800Y-131770000D02*
X143800400Y-131815000D01*
X157548500Y-114141000D02*
X157750000Y-114186000D01*
X147365100Y-104721900D02*
X147462100Y-104539300D01*
X143800400Y-58578000D02*
X144001800Y-58624600D01*
X104580300Y-129884000D02*
X104771800Y-129796000D01*
X105138300Y-113710000D02*
X105308700Y-113588000D01*
X146865500Y-132643000D02*
X146714300Y-132503000D01*
X106545900Y-111071900D02*
X106545900Y-111071900D01*
X147256600Y-41396500D02*
X147365100Y-41221900D01*
X132076700Y-82258700D02*
X132268100Y-82171400D01*
X89212600Y-131736000D02*
X89009100Y-131770000D01*
X182713000Y-111493000D02*
X182748000Y-111699000D01*
X155251000Y-79948900D02*
X155298500Y-80150000D01*
X129100100Y-108434000D02*
X128929600Y-108555700D01*
X119056900Y-105650500D02*
X119218000Y-105515600D01*
X102556000Y-108002700D02*
X102357000Y-108063500D01*
X130867300Y-107896800D02*
X130661900Y-107902100D01*
X168934300Y-145163000D02*
X168922400Y-145081000D01*
X175225000Y-135511000D02*
X175259000Y-135305000D01*
X100729800Y-109309700D02*
X100621300Y-109484400D01*
X170524000Y-84510300D02*
X170345000Y-84621500D01*
X93154800Y-109711700D02*
X93185500Y-109635000D01*
X100195900Y-126947000D02*
X100203000Y-127159000D01*
X161531600Y-63235200D02*
X161510700Y-63026200D01*
X106556700Y-84827700D02*
X104533200Y-83658300D01*
X120305100Y-61014700D02*
X118281400Y-59846300D01*
X188382000Y-113001000D02*
X188501000Y-112834000D01*
X188610000Y-128534000D02*
X188707000Y-128352000D01*
X188251000Y-124857000D02*
X188110000Y-124706000D01*
X144212900Y-23769900D02*
X144416200Y-23760600D01*
X149636200Y-26171500D02*
X149764100Y-26346700D01*
X202613000Y-135911000D02*
X202673000Y-135713000D01*
X147365100Y-101546900D02*
X147256600Y-101372200D01*
X100366300Y-125920000D02*
X100305900Y-126119000D01*
X185655000Y-114239000D02*
X185860000Y-114247000D01*
X211776000Y-144671000D02*
X211615000Y-144798000D01*
X118706700Y-84510300D02*
X118519900Y-84409800D01*
X160130900Y-66084500D02*
X160301400Y-65962000D01*
X161538600Y-79321900D02*
X161538600Y-79321900D01*
X161113300Y-128534000D02*
X161210200Y-128352000D01*
X142421600Y-24128700D02*
X142615000Y-24064200D01*
X196058000Y-109071400D02*
X196033000Y-109150800D01*
X127754700Y-79948900D02*
X127802300Y-80150000D01*
X91023600Y-132035000D02*
X90832300Y-131948000D01*
X172317000Y-138051000D02*
X172522000Y-138033000D01*
X155842200Y-77393000D02*
X155722500Y-77559700D01*
X87685100Y-132368000D02*
X87524000Y-132503000D01*
X155722500Y-77559700D02*
X155614000Y-77734400D01*
X143405100Y-23867800D02*
X143605900Y-23834000D01*
X160301400Y-124431000D02*
X160130900Y-124309000D01*
X178398000Y-79091600D02*
X178450000Y-79155100D01*
X147006500Y-37545200D02*
X146865500Y-37394100D01*
X174211000Y-105515600D02*
X174362000Y-105375400D01*
X142677700Y-100618200D02*
X142516700Y-100753100D01*
X164822200Y-55456200D02*
X164890000Y-55501900D01*
X127754700Y-78694800D02*
X127720300Y-78901200D01*
X89009100Y-131770000D02*
X88807700Y-131815000D01*
X175323000Y-145002000D02*
X175302000Y-145081000D01*
X92372500Y-136472000D02*
X92469600Y-136289000D01*
X99327200Y-145248000D02*
X99327200Y-146010000D01*
X130253700Y-76207700D02*
X130052200Y-76252700D01*
X101121100Y-108830800D02*
X100980100Y-108981700D01*
X139227900Y-26715000D02*
X139345400Y-26527200D01*
X133258300Y-77231700D02*
X133117300Y-77080800D01*
X156776100Y-124198000D02*
X156596400Y-124309000D01*
X120736100Y-144510000D02*
X120666400Y-144552000D01*
X169362300Y-101546900D02*
X169265300Y-101726800D01*
X155842200Y-81250700D02*
X155972700Y-81412100D01*
X120436600Y-144782000D02*
X120393900Y-144851000D01*
X170711000Y-84409800D02*
X170524000Y-84510300D01*
X174753000Y-101372200D02*
X174633000Y-101205500D01*
X158158200Y-82488900D02*
X158363600Y-82496800D01*
X141610800Y-88285900D02*
X141683800Y-88479100D01*
X144410000Y-106301400D02*
X144615500Y-106309300D01*
X155517000Y-125539000D02*
X155431900Y-125727000D01*
X127720300Y-79742500D02*
X127754700Y-79948900D01*
X130867300Y-114247000D02*
X131072800Y-114239000D01*
X128020800Y-64853100D02*
X128117700Y-65034400D01*
X183014000Y-109664300D02*
X182928000Y-109852100D01*
X118328500Y-100197500D02*
X118133100Y-100126000D01*
X134042300Y-111071900D02*
X134035300Y-110860200D01*
X106975600Y-85579100D02*
X106973500Y-85497100D01*
X119056900Y-89775500D02*
X119218000Y-89640600D01*
X182795000Y-111900000D02*
X182855000Y-112098000D01*
X146553300Y-52994200D02*
X146382700Y-52871500D01*
X158773900Y-66595100D02*
X158977300Y-66562100D01*
X158363600Y-114247000D02*
X158569100Y-114239000D01*
X113972000Y-135305000D02*
X114006400Y-135511000D01*
X186066000Y-123777000D02*
X185860000Y-123772000D01*
X147790500Y-87259400D02*
X147790500Y-87259400D01*
X168527000Y-61929400D02*
X168549100Y-62008800D01*
X128929600Y-81838000D02*
X129100100Y-81959800D01*
X147680600Y-40462800D02*
X147728200Y-40260600D01*
X173513000Y-137734000D02*
X173699000Y-137633000D01*
X143601600Y-84251000D02*
X143406200Y-84322500D01*
X116304000Y-90328500D02*
X116505600Y-90373500D01*
X113951300Y-87471000D02*
X113972000Y-87680000D01*
X115718500Y-84409800D02*
X115531700Y-84510300D01*
X101121100Y-113313000D02*
X101272200Y-113453000D01*
X113502300Y-144510000D02*
X113428800Y-144473000D01*
X212378000Y-144124000D02*
X212234000Y-144266000D01*
X161531600Y-127159000D02*
X161538600Y-126947000D01*
X116505600Y-84145200D02*
X116304000Y-84190200D01*
X120231900Y-134257000D02*
X120184300Y-134056000D01*
X155359000Y-127973000D02*
X155431900Y-128167000D01*
X147790500Y-134884000D02*
X147783500Y-134673000D01*
X170711000Y-105983900D02*
X170903000Y-106071200D01*
X116304000Y-106203500D02*
X116505600Y-106248500D01*
X99842700Y-144473000D02*
X99769100Y-144510000D01*
X134014400Y-126526000D02*
X133980000Y-126320000D01*
X96619300Y-103224200D02*
X96697300Y-103197700D01*
X85651200Y-121369000D02*
X85730600Y-121391000D01*
X141447500Y-134673000D02*
X141440500Y-134884000D01*
X159764400Y-60597600D02*
X159573000Y-60511000D01*
X93185500Y-109635000D02*
X93207700Y-109555600D01*
X161476300Y-79948900D02*
X161510700Y-79742500D01*
X103165600Y-107902100D02*
X102960800Y-107923300D01*
X133508500Y-65209000D02*
X133617000Y-65034400D01*
X141768900Y-88664300D02*
X141865900Y-88846900D01*
X118706700Y-100385300D02*
X118519900Y-100284800D01*
X120184300Y-86431200D02*
X120123900Y-86232800D01*
X174211000Y-84878100D02*
X174050000Y-84743200D01*
X173699000Y-132135000D02*
X173513000Y-132035000D01*
X169862000Y-85018300D02*
X169720900Y-85169200D01*
X143800400Y-137954000D02*
X144001800Y-137999000D01*
X133872000Y-125920000D02*
X133799100Y-125727000D01*
X120601100Y-144600000D02*
X120540700Y-144655000D01*
X140602300Y-144409000D02*
X121132400Y-144409000D01*
X116708800Y-138033000D02*
X116913600Y-138051000D01*
X105761900Y-108981700D02*
X105620900Y-108830800D01*
X184459000Y-113921000D02*
X184651000Y-114009000D01*
X147762600Y-86838700D02*
X147728200Y-86632300D01*
X127935600Y-128167000D02*
X128020800Y-128352000D01*
X171297000Y-100065200D02*
X171098000Y-100126000D01*
X170903000Y-131948000D02*
X170711000Y-132035000D01*
X75055180Y-138689000D02*
X75089580Y-138483000D01*
X209991000Y-145671000D02*
X209793000Y-145738000D01*
X158569100Y-130114000D02*
X158773900Y-130095000D01*
X99919700Y-144444000D02*
X99842700Y-144473000D01*
X202802000Y-121239000D02*
X202869000Y-121284000D01*
X155298500Y-64275300D02*
X155359000Y-64472900D01*
X114187400Y-104354100D02*
X114272600Y-104539300D01*
X75975670Y-142994000D02*
X75871430Y-142819000D01*
X173513000Y-132035000D02*
X173321000Y-131948000D01*
X116708800Y-106282900D02*
X116913600Y-106301400D01*
X172112000Y-99959300D02*
X171907000Y-99964600D01*
X173126000Y-131876000D02*
X172927000Y-131815000D01*
X155298500Y-80150000D02*
X155359000Y-80348400D01*
X161428700Y-111900000D02*
X161476300Y-111699000D01*
X143601600Y-52500500D02*
X143406200Y-52573500D01*
X182310000Y-85259000D02*
X182285000Y-85335700D01*
X169046800Y-88087500D02*
X169107200Y-88285900D01*
X155431900Y-109852100D02*
X155359000Y-110045300D01*
X102556000Y-123878000D02*
X102357000Y-123939000D01*
X101121100Y-124706000D02*
X100980100Y-124857000D01*
X143800400Y-100065200D02*
X143601600Y-100126000D01*
X156113700Y-65687100D02*
X156264900Y-65829200D01*
X128226200Y-128709000D02*
X128345800Y-128876000D01*
X104186100Y-108002700D02*
X103984700Y-107957700D01*
X169107200Y-104160900D02*
X169180200Y-104354100D01*
X186270000Y-130095000D02*
X186474000Y-130061000D01*
X120485700Y-144716000D02*
X120436600Y-144782000D01*
X131277600Y-130095000D02*
X131481000Y-130061000D01*
X100439300Y-128167000D02*
X100524500Y-128352000D01*
X169046800Y-134056000D02*
X168999200Y-134257000D01*
X132454800Y-82070900D02*
X132634600Y-81959800D01*
X184651000Y-129884000D02*
X184846000Y-129955000D01*
X141550400Y-40462800D02*
X141610800Y-40660400D01*
X133713900Y-80726800D02*
X133799100Y-80541600D01*
X115020500Y-100753100D02*
X114869200Y-100893300D01*
X90033000Y-138033000D02*
X90236500Y-137999000D01*
X196129000Y-108923300D02*
X196090000Y-108997300D01*
X198207000Y-132035000D02*
X198020000Y-132135000D01*
X214051000Y-138080000D02*
X214100000Y-138284000D01*
X196076000Y-109711700D02*
X196115000Y-109785800D01*
X119760400Y-89021500D02*
X119868800Y-88846900D01*
X145025700Y-106282900D02*
X145229200Y-106248500D01*
X120294200Y-134884000D02*
X120294200Y-134884000D01*
X196761000Y-136289000D02*
X196858000Y-136472000D01*
X105892400Y-109143000D02*
X105761900Y-108981700D01*
X198398000Y-131948000D02*
X198207000Y-132035000D01*
X113944200Y-145248000D02*
X113941300Y-145163000D01*
X156596400Y-108434000D02*
X156425900Y-108555700D01*
X165358200Y-55627300D02*
X165439900Y-55621700D01*
X102161700Y-129884000D02*
X102357000Y-129955000D01*
X145430600Y-106203500D02*
X145629400Y-106142700D01*
X188707000Y-109664300D02*
X188610000Y-109484400D01*
X129466600Y-108222300D02*
X129279800Y-108322800D01*
X87524000Y-132503000D02*
X87372900Y-132643000D01*
X156425900Y-108555700D02*
X156264900Y-108690600D01*
X134014400Y-127368000D02*
X134035300Y-127159000D01*
X169046800Y-135713000D02*
X169107200Y-135911000D01*
X161538600Y-79321900D02*
X161531600Y-79110200D01*
X189869000Y-145002000D02*
X189840000Y-144925000D01*
X115909800Y-137821000D02*
X116105300Y-137893000D01*
X173699000Y-90008400D02*
X173879000Y-89897300D01*
X132966100Y-124566000D02*
X132805100Y-124431000D01*
X200817000Y-137821000D02*
X201009000Y-137734000D01*
X141310500Y-24645500D02*
X141488900Y-24543900D01*
X175259000Y-86838700D02*
X175225000Y-86632300D01*
X114054000Y-88087500D02*
X114114600Y-88285900D01*
X132076700Y-114009000D02*
X132268100Y-113921000D01*
X127699400Y-63658300D02*
X127720300Y-63867300D01*
X132805100Y-60931700D02*
X132634600Y-60809000D01*
X119868800Y-85671900D02*
X119760400Y-85497200D01*
X160462400Y-129328000D02*
X160613600Y-129188000D01*
X171702000Y-90407900D02*
X171907000Y-90426400D01*
X175117000Y-104160900D02*
X175177000Y-103962500D01*
X133258300Y-113162000D02*
X133388800Y-113001000D01*
X116105300Y-90267700D02*
X116304000Y-90328500D01*
X104186100Y-114141000D02*
X104384800Y-114080000D01*
X131095300Y-44001800D02*
X131134700Y-43927700D01*
X160301400Y-76805700D02*
X160130900Y-76684000D01*
X78660400Y-145431000D02*
X78475980Y-145338000D01*
X141440500Y-145248000D02*
X141437500Y-145163000D01*
X197086000Y-136813000D02*
X197217000Y-136975000D01*
X160754600Y-108981700D02*
X160613600Y-108830800D01*
X158569100Y-60278500D02*
X158363600Y-60271900D01*
X202776000Y-134673000D02*
X202755000Y-134464000D01*
X141068300Y-144552000D02*
X140998600Y-144510000D01*
X174753000Y-133122000D02*
X174633000Y-132956000D01*
X128345800Y-65376200D02*
X128476400Y-65535700D01*
X142094000Y-53579800D02*
X141974300Y-53747200D01*
X150003500Y-26715500D02*
X150114700Y-26909200D01*
X114006400Y-134257000D02*
X113972000Y-134464000D01*
X120966300Y-144425000D02*
X120886500Y-144444000D01*
X158773900Y-114220000D02*
X158977300Y-114186000D01*
X202681000Y-121128000D02*
X202739000Y-121187000D01*
X120184300Y-135713000D02*
X120231900Y-135511000D01*
X161476300Y-127574000D02*
X161510700Y-127368000D01*
X141974300Y-136646000D02*
X142094000Y-136813000D01*
X140963400Y-24866900D02*
X141135300Y-24753100D01*
X144410000Y-131715000D02*
X144205300Y-131736000D01*
X92627500Y-133858000D02*
X92554500Y-133665000D01*
X175287000Y-87259400D02*
X175280000Y-87047700D01*
X147790500Y-134884000D02*
X147790500Y-134884000D01*
X120287200Y-103346000D02*
X120294200Y-103134400D01*
X178354000Y-79020200D02*
X178398000Y-79091600D01*
X161295400Y-64665800D02*
X161368300Y-64472900D01*
X131207300Y-43609200D02*
X131205100Y-43527400D01*
X144619700Y-23757700D02*
X144823200Y-23760900D01*
X160462400Y-76940600D02*
X160301400Y-76805700D01*
X182674000Y-84827700D02*
X182603000Y-84872700D01*
X146231900Y-23955900D02*
X146428600Y-24008300D01*
X201546000Y-137401000D02*
X201707000Y-137266000D01*
X117529300Y-106282900D02*
X117732800Y-106248500D01*
X168630500Y-144600000D02*
X168565200Y-144552000D01*
X183610000Y-129188000D02*
X183761000Y-129328000D01*
X133932500Y-111900000D02*
X133980000Y-111699000D01*
X168873600Y-144925000D02*
X168837800Y-144851000D01*
X156425900Y-60931700D02*
X156264900Y-61064300D01*
X76847740Y-144118000D02*
X76708570Y-143970000D01*
X143601600Y-137893000D02*
X143800400Y-137954000D01*
X142677700Y-58024500D02*
X142848300Y-58147000D01*
X127862700Y-127973000D02*
X127935600Y-128167000D01*
X132454800Y-60697000D02*
X132268100Y-60597600D01*
X182692000Y-126735000D02*
X182685000Y-126947000D01*
X200423000Y-137954000D02*
X200622000Y-137893000D01*
X92264000Y-136646000D02*
X92372500Y-136472000D01*
X131481000Y-60331600D02*
X131277600Y-60298300D01*
X143406200Y-137821000D02*
X143601600Y-137893000D01*
X185860000Y-123772000D02*
X185655000Y-123777000D01*
X199198000Y-138033000D02*
X199403000Y-138051000D01*
X130661900Y-114239000D02*
X130867300Y-114247000D01*
X202673000Y-134056000D02*
X202613000Y-133858000D01*
X102357000Y-129955000D02*
X102556000Y-130016000D01*
X192458000Y-103166000D02*
X192533000Y-103197700D01*
X147728200Y-86632300D02*
X147680600Y-86431200D01*
X143214700Y-36785100D02*
X143028000Y-36884500D01*
X143406200Y-42569900D02*
X143601600Y-42643200D01*
X196175000Y-108857100D02*
X196129000Y-108923300D01*
X75062070Y-140528000D02*
X75034290Y-140327000D01*
X196351000Y-108685100D02*
X196286000Y-108735400D01*
X161368300Y-112098000D02*
X161428700Y-111900000D01*
X142516700Y-137266000D02*
X142677700Y-137401000D01*
X145629400Y-131876000D02*
X145430600Y-131815000D01*
X155431900Y-128167000D02*
X155517000Y-128352000D01*
X132966100Y-61064300D02*
X132805100Y-60931700D01*
X101121100Y-129188000D02*
X101272200Y-129328000D01*
X201858000Y-132643000D02*
X201707000Y-132503000D01*
X160613600Y-108830800D02*
X160462400Y-108690600D01*
X201999000Y-132794000D02*
X201858000Y-132643000D01*
X75360780Y-141711000D02*
X75295690Y-141517000D01*
X143028000Y-42383900D02*
X143214700Y-42483700D01*
X160613600Y-61206600D02*
X160462400Y-61064300D01*
X133117300Y-61206600D02*
X132966100Y-61064300D01*
X147137000Y-57438700D02*
X147256600Y-57271500D01*
X100258300Y-110444800D02*
X100223900Y-110651200D01*
X147365100Y-133297000D02*
X147256600Y-133122000D01*
X101603700Y-129585000D02*
X101783400Y-129696000D01*
X155722500Y-65209000D02*
X155842200Y-65376200D01*
X161476300Y-62820300D02*
X161428700Y-62618400D01*
X158158200Y-130114000D02*
X158363600Y-130122000D01*
X142848300Y-36996500D02*
X142677700Y-37119200D01*
X147462100Y-101726800D02*
X147365100Y-101546900D01*
X144615500Y-52334400D02*
X144410000Y-52341000D01*
X160885100Y-61517300D02*
X160754600Y-61357700D01*
X155614000Y-128534000D02*
X155722500Y-128709000D01*
X99999300Y-144425000D02*
X99919700Y-144444000D01*
X101433300Y-108555700D02*
X101272200Y-108690600D01*
X141865900Y-57096900D02*
X141974300Y-57271500D01*
X130983600Y-43010400D02*
X130924800Y-42952700D01*
X141194100Y-144655000D02*
X141133600Y-144600000D01*
X170524000Y-90008400D02*
X170711000Y-90108900D01*
X145025700Y-90407900D02*
X145229200Y-90373500D01*
X106518100Y-110651200D02*
X106483700Y-110444800D01*
X119640700Y-89188200D02*
X119760400Y-89021500D01*
X104384800Y-123939000D02*
X104186100Y-123878000D01*
X146016200Y-84409800D02*
X145824800Y-84322500D01*
X174753000Y-85497200D02*
X174633000Y-85330500D01*
X169862000Y-89500400D02*
X170013000Y-89640600D01*
X156264900Y-81703100D02*
X156425900Y-81838000D01*
X146865500Y-100893300D02*
X146714300Y-100753100D01*
X168937300Y-147584000D02*
X168937300Y-145248000D01*
X143601600Y-131876000D02*
X143406200Y-131948000D01*
X131481000Y-66562100D02*
X131682500Y-66515500D01*
X114869200Y-105375400D02*
X115020500Y-105515600D01*
X155431900Y-78102100D02*
X155359000Y-78295300D01*
X128929600Y-129463000D02*
X129100100Y-129585000D01*
X169265300Y-136289000D02*
X169362300Y-136472000D01*
X113972000Y-134464000D02*
X113951300Y-134673000D01*
X119510200Y-105224600D02*
X119640700Y-105063200D01*
X160130900Y-113710000D02*
X160301400Y-113588000D01*
X174362000Y-85018300D02*
X174211000Y-84878100D01*
X128020800Y-128352000D02*
X128117700Y-128534000D01*
X142516700Y-37251800D02*
X142365500Y-37394100D01*
X157750000Y-114186000D02*
X157953400Y-114220000D01*
X158569100Y-82488900D02*
X158773900Y-82470400D01*
X189007000Y-126526000D02*
X188973000Y-126320000D01*
X155195700Y-127159000D02*
X155216600Y-127368000D01*
X88035400Y-137633000D02*
X88222200Y-137734000D01*
X178944000Y-79427700D02*
X179025000Y-79438200D01*
X118133100Y-90267700D02*
X118328500Y-90196200D01*
X145629400Y-137893000D02*
X145824800Y-137821000D01*
X140768400Y-144425000D02*
X140686200Y-144412000D01*
X131081900Y-43141400D02*
X131036100Y-43073400D01*
X129853400Y-66455700D02*
X130052200Y-66515500D01*
X161510700Y-110651200D02*
X161476300Y-110444800D01*
X86447900Y-134884000D02*
X86454800Y-135096000D01*
X103781200Y-114220000D02*
X103984700Y-114186000D01*
X101272200Y-124566000D02*
X101121100Y-124706000D01*
X161004800Y-65209000D02*
X161113300Y-65034400D01*
X159764400Y-129796000D02*
X159951100Y-129696000D01*
X141865900Y-41221900D02*
X141974300Y-41396500D01*
X129279800Y-60697000D02*
X129100100Y-60809000D01*
X114187400Y-86039600D02*
X114114600Y-86232800D01*
X120231900Y-102507300D02*
X120184300Y-102306200D01*
X90438100Y-131815000D02*
X90236500Y-131770000D01*
X147680600Y-102306200D02*
X147620200Y-102107800D01*
X170903000Y-84322500D02*
X170711000Y-84409800D01*
X105308700Y-108555700D02*
X105138300Y-108434000D01*
X127699400Y-111283500D02*
X127720300Y-111493000D01*
X128617400Y-129188000D02*
X128768600Y-129328000D01*
X155614000Y-77734400D02*
X155517000Y-77914300D01*
X174753000Y-104896500D02*
X174861000Y-104721900D01*
X141550400Y-103962500D02*
X141610800Y-104160900D01*
X143800400Y-36565700D02*
X143601600Y-36625500D01*
X184093000Y-113710000D02*
X184273000Y-113821000D01*
X147547200Y-86039600D02*
X147462100Y-85851800D01*
X129853400Y-129955000D02*
X130052200Y-130016000D01*
X173513000Y-90108900D02*
X173699000Y-90008400D01*
X116708800Y-84110800D02*
X116505600Y-84145200D01*
X168936900Y-134884000D02*
X168943900Y-135096000D01*
X75180330Y-138075000D02*
X75236950Y-137871000D01*
X157548500Y-130016000D02*
X157750000Y-130061000D01*
X128929600Y-65962000D02*
X129100100Y-66084500D01*
X145629400Y-106142700D02*
X145824800Y-106071200D01*
X142516700Y-89640600D02*
X142677700Y-89775500D01*
X116708800Y-99985800D02*
X116505600Y-100020200D01*
X127754700Y-111699000D02*
X127802300Y-111900000D01*
X161295400Y-62227900D02*
X161210200Y-62040600D01*
X188973000Y-126320000D02*
X188925000Y-126119000D01*
X118133100Y-100126000D02*
X117934400Y-100065200D01*
X155359000Y-110045300D02*
X155298500Y-110243700D01*
X182685000Y-111071900D02*
X182692000Y-111283500D01*
X141502800Y-40260600D02*
X141550400Y-40462800D01*
X133932500Y-64275300D02*
X133980000Y-64073100D01*
X75295690Y-141517000D02*
X75236690Y-141324000D01*
X87855800Y-132246000D02*
X87685100Y-132368000D01*
X147982000Y-144716000D02*
X147932900Y-144782000D01*
X189904000Y-145248000D02*
X189901000Y-145163000D01*
X133872000Y-62420500D02*
X133799100Y-62227900D01*
X208541000Y-145986000D02*
X208323000Y-146002000D01*
X134035300Y-79110200D02*
X134014400Y-78901200D01*
X199608000Y-138059000D02*
X199813000Y-138051000D01*
X161476300Y-110444800D02*
X161428700Y-110243700D01*
X155216600Y-126526000D02*
X155195700Y-126735000D01*
X202755000Y-135305000D02*
X202776000Y-135096000D01*
X115531700Y-137633000D02*
X115718500Y-137734000D01*
X146016200Y-105983900D02*
X146203000Y-105883400D01*
X156264900Y-65829200D02*
X156425900Y-65962000D01*
X168730900Y-61168200D02*
X168678500Y-61231200D01*
X114272600Y-133477000D02*
X114187400Y-133665000D01*
X141447500Y-135096000D02*
X141468400Y-135305000D01*
X175287000Y-87259400D02*
X175287000Y-87259400D01*
X75679070Y-142459000D02*
X75590970Y-142277000D01*
X142677700Y-42149500D02*
X142848300Y-42272000D01*
X131277600Y-76173300D02*
X131072800Y-76152100D01*
X184459000Y-108222300D02*
X184273000Y-108322800D01*
X139116200Y-26909200D02*
X139227900Y-26715000D01*
X187627000Y-108434000D02*
X187448000Y-108322800D01*
X86776300Y-133477000D02*
X86691100Y-133665000D01*
X131481000Y-76207700D02*
X131277600Y-76173300D01*
X114006400Y-87886400D02*
X114054000Y-88087500D01*
X157154300Y-124010000D02*
X156962900Y-124097000D01*
X199608000Y-131710000D02*
X199403000Y-131715000D01*
X174050000Y-137401000D02*
X174211000Y-137266000D01*
X128617400Y-77080800D02*
X128476400Y-77231700D01*
X161428700Y-62618400D02*
X161368300Y-62420500D01*
X88807700Y-131815000D02*
X88609000Y-131876000D01*
X147728200Y-102507300D02*
X147680600Y-102306200D01*
X80471700Y-145962000D02*
X80258200Y-145933000D01*
X189028000Y-110860200D02*
X189007000Y-110651200D01*
X146016200Y-52660100D02*
X145824800Y-52573500D01*
X145430600Y-90328500D02*
X145629400Y-90267700D01*
X129279800Y-66196400D02*
X129466600Y-66296200D01*
X100849400Y-113001000D02*
X100980100Y-113162000D01*
X155972700Y-81412100D02*
X156113700Y-81562900D01*
X172927000Y-90328500D02*
X173126000Y-90267700D01*
X106955700Y-85743200D02*
X106969800Y-85661100D01*
X146865500Y-37394100D02*
X146714300Y-37251800D01*
X131036100Y-43073400D02*
X130983600Y-43010400D01*
X198398000Y-137821000D02*
X198594000Y-137893000D01*
X182257000Y-85497100D02*
X182255000Y-85579100D01*
X120669400Y-61446300D02*
X120637400Y-61371100D01*
X119218000Y-137266000D02*
X119369200Y-137125000D01*
X169046800Y-103962500D02*
X169107200Y-104160900D01*
X119965800Y-101726800D02*
X119868800Y-101546900D01*
X160462400Y-65829200D02*
X160613600Y-65687100D01*
X74998570Y-139919000D02*
X74990630Y-139716000D01*
X133713900Y-64853100D02*
X133799100Y-64665800D01*
X104580300Y-114009000D02*
X104771800Y-113921000D01*
X76319890Y-143499000D02*
X76200040Y-143332000D01*
X161210200Y-125539000D02*
X161113300Y-125359000D01*
X106545900Y-111071900D02*
X106545900Y-111071900D01*
X87101500Y-132956000D02*
X86981900Y-133122000D01*
X99518800Y-144716000D02*
X99469600Y-144782000D01*
X77139570Y-144401000D02*
X76991410Y-144261000D01*
X113428800Y-144473000D02*
X113351800Y-144444000D01*
X147793600Y-145163000D02*
X147790500Y-145248000D01*
X184273000Y-108322800D02*
X184093000Y-108434000D01*
X96975700Y-103028400D02*
X97033300Y-102967500D01*
X197509000Y-132503000D02*
X197358000Y-132643000D01*
X128476400Y-81412100D02*
X128617400Y-81562900D01*
X130052200Y-60378200D02*
X129853400Y-60438000D01*
X142224500Y-136975000D02*
X142365500Y-137125000D01*
X103165600Y-123777000D02*
X102960800Y-123798000D01*
X172112000Y-84084300D02*
X171907000Y-84089600D01*
X196433000Y-134884000D02*
X196440000Y-135096000D01*
X144410000Y-138051000D02*
X144615500Y-138059000D01*
X119965800Y-88664300D02*
X120050900Y-88479100D01*
X75013120Y-140123000D02*
X74998570Y-139919000D01*
X214203000Y-138901000D02*
X214223000Y-139104000D01*
X123631000Y-55585500D02*
X123710200Y-55607700D01*
X173513000Y-100284800D02*
X173321000Y-100197500D01*
X113972000Y-103555000D02*
X114006400Y-103761400D01*
X175259000Y-103555000D02*
X175280000Y-103346000D01*
X101272200Y-108690600D02*
X101121100Y-108830800D01*
X183219000Y-125185000D02*
X183110000Y-125359000D01*
X143214700Y-52660100D02*
X143028000Y-52759500D01*
X113844700Y-144851000D02*
X113801800Y-144782000D01*
X100165500Y-144409000D02*
X100081600Y-144412000D01*
X156776100Y-76572800D02*
X156596400Y-76684000D01*
X132805100Y-113588000D02*
X132966100Y-113453000D01*
X96457900Y-103250600D02*
X96539100Y-103240100D01*
X128117700Y-77734400D02*
X128020800Y-77914300D01*
X160301400Y-108555700D02*
X160130900Y-108434000D01*
X114187400Y-136104000D02*
X114272600Y-136289000D01*
X127802300Y-80150000D02*
X127862700Y-80348400D01*
X118519900Y-84409800D02*
X118328500Y-84322500D01*
X196422000Y-108640100D02*
X196351000Y-108685100D01*
X200018000Y-131736000D02*
X199813000Y-131715000D01*
X168746000Y-144716000D02*
X168690900Y-144655000D01*
X144001800Y-84145200D02*
X143800400Y-84190200D01*
X188251000Y-129037000D02*
X188382000Y-128876000D01*
X183014000Y-125539000D02*
X182928000Y-125727000D01*
X179025000Y-79438200D02*
X179107000Y-79440800D01*
X114272600Y-88664300D02*
X114369700Y-88846900D01*
X132634600Y-113710000D02*
X132805100Y-113588000D01*
X91390100Y-132246000D02*
X91210400Y-132135000D01*
X145430600Y-84190200D02*
X145229200Y-84145200D01*
X145824800Y-106071200D02*
X146016200Y-105983900D01*
X116505600Y-90373500D02*
X116708800Y-90407900D01*
X141468400Y-55088700D02*
X141447500Y-55297700D01*
X169180200Y-101914600D02*
X169107200Y-102107800D01*
X92769900Y-135305000D02*
X92790800Y-135096000D01*
X114369700Y-133297000D02*
X114272600Y-133477000D01*
X127699400Y-127159000D02*
X127720300Y-127368000D01*
X124115600Y-55598000D02*
X124193600Y-55573100D01*
X118328500Y-106071200D02*
X118519900Y-105983900D01*
X158569100Y-114239000D02*
X158773900Y-114220000D01*
X157953400Y-60298300D02*
X157750000Y-60331600D01*
X110592700Y-79313900D02*
X110660700Y-79268900D01*
X133713900Y-77914300D02*
X133617000Y-77734400D01*
X146714300Y-89640600D02*
X146865500Y-89500400D01*
X147620200Y-86232800D02*
X147547200Y-86039600D01*
X130253700Y-60331600D02*
X130052200Y-60378200D01*
X144001800Y-52394100D02*
X143800400Y-52440700D01*
X159178800Y-66515500D02*
X159377600Y-66455700D01*
X175430000Y-144782000D02*
X175387000Y-144851000D01*
X161531600Y-126735000D02*
X161510700Y-126526000D01*
X106921300Y-85259000D02*
X106889600Y-85184900D01*
X144820900Y-36466000D02*
X144615500Y-36459400D01*
X116105300Y-137893000D02*
X116304000Y-137954000D01*
X116105300Y-100126000D02*
X115909800Y-100197500D01*
X120231900Y-103761400D02*
X120266300Y-103555000D01*
X146865500Y-85018300D02*
X146714300Y-84878100D01*
X146016200Y-42483700D02*
X146203000Y-42383900D01*
X104958400Y-129696000D02*
X105138300Y-129585000D01*
X104771800Y-129796000D02*
X104958400Y-129696000D01*
X124580700Y-55279900D02*
X124625100Y-55208800D01*
X168937300Y-145248000D02*
X168934300Y-145163000D01*
X86056300Y-121398000D02*
X86136200Y-121380000D01*
X118281400Y-59846300D02*
X121456400Y-54347000D01*
X158569100Y-123777000D02*
X158363600Y-123772000D01*
X115020500Y-105515600D02*
X115181400Y-105650500D01*
X214176000Y-138694000D02*
X214203000Y-138901000D01*
X201707000Y-132503000D02*
X201546000Y-132368000D01*
X92469600Y-133477000D02*
X92372500Y-133297000D01*
X120681800Y-62008800D02*
X120704000Y-61929400D01*
X188501000Y-112834000D02*
X188610000Y-112659000D01*
X144820900Y-138051000D02*
X145025700Y-138033000D01*
X189007000Y-110651200D02*
X188973000Y-110444800D01*
X130867300Y-66621900D02*
X131072800Y-66615300D01*
X133799100Y-78102100D02*
X133713900Y-77914300D01*
X157953400Y-130095000D02*
X158158200Y-130114000D01*
X114478100Y-133122000D02*
X114369700Y-133297000D01*
X156962900Y-76472300D02*
X156776100Y-76572800D01*
X140469500Y-25245800D02*
X140630300Y-25113200D01*
X99634200Y-144600000D02*
X99573900Y-144655000D01*
X129279800Y-76572800D02*
X129100100Y-76684000D01*
X79235340Y-145669000D02*
X79040340Y-145597000D01*
X188865000Y-110045300D02*
X188792000Y-109852100D01*
X100203000Y-110860200D02*
X100195900Y-111071900D01*
X146203000Y-100385300D02*
X146016200Y-100284800D01*
X145430600Y-42703000D02*
X145629400Y-42643200D01*
X172112000Y-90434300D02*
X172317000Y-90426400D01*
X106012200Y-109309700D02*
X105892400Y-109143000D01*
X147783500Y-87471000D02*
X147790500Y-87259400D01*
X158158200Y-123777000D02*
X157953400Y-123798000D01*
X86510100Y-134257000D02*
X86475700Y-134464000D01*
X161476300Y-111699000D02*
X161510700Y-111493000D01*
X100258300Y-127574000D02*
X100305900Y-127775000D01*
X147547200Y-136104000D02*
X147620200Y-135911000D01*
X115531700Y-105883400D02*
X115718500Y-105983900D01*
X127699400Y-126735000D02*
X127692400Y-126947000D01*
X178570000Y-79268900D02*
X178638000Y-79313900D01*
X144820900Y-131715000D02*
X144615500Y-131710000D01*
X133508500Y-112834000D02*
X133617000Y-112659000D01*
X157548500Y-66515500D02*
X157750000Y-66562100D01*
X147728200Y-134257000D02*
X147680600Y-134056000D01*
X106539000Y-126735000D02*
X106518100Y-126526000D01*
X198020000Y-137633000D02*
X198207000Y-137734000D01*
X113189900Y-144412000D02*
X113106000Y-144409000D01*
X141468400Y-87680000D02*
X141502800Y-87886400D01*
X155216600Y-110651200D02*
X155195700Y-110860200D01*
X133388800Y-77393000D02*
X133258300Y-77231700D01*
X143406200Y-106071200D02*
X143601600Y-106142700D01*
X155842200Y-128876000D02*
X155972700Y-129037000D01*
X128345800Y-125018000D02*
X128226200Y-125185000D01*
X157154300Y-108135000D02*
X156962900Y-108222300D01*
X134035300Y-127159000D02*
X134042300Y-126947000D01*
X185450000Y-123798000D02*
X185246000Y-123833000D01*
X214134000Y-140737000D02*
X214093000Y-140938000D01*
X120651200Y-62085800D02*
X120681800Y-62008800D01*
X118519900Y-132035000D02*
X118328500Y-131948000D01*
X93215400Y-109230200D02*
X93197900Y-109150800D01*
X143800400Y-131815000D02*
X143601600Y-131876000D01*
X187959000Y-113453000D02*
X188110000Y-113313000D01*
X186474000Y-114186000D02*
X186675000Y-114141000D01*
X183761000Y-108690600D02*
X183610000Y-108830800D01*
X141974300Y-89021500D02*
X142094000Y-89188200D01*
X161295400Y-80541600D02*
X161368300Y-80348400D01*
X168495500Y-144510000D02*
X168421900Y-144473000D01*
X89009100Y-137999000D02*
X89212600Y-138033000D01*
X124471800Y-55403800D02*
X124529300Y-55345000D01*
X145229200Y-36519200D02*
X145025700Y-36485800D01*
X189035000Y-111071900D02*
X189035000Y-111071900D01*
X174633000Y-89188200D02*
X174753000Y-89021500D01*
X157750000Y-60331600D02*
X157548500Y-60378200D01*
X168837800Y-144851000D02*
X168795100Y-144782000D01*
X128768600Y-61064300D02*
X128617400Y-61206600D01*
X142365500Y-85018300D02*
X142224500Y-85169200D01*
X182928000Y-125727000D02*
X182855000Y-125920000D01*
X129658000Y-129884000D02*
X129853400Y-129955000D01*
X120050900Y-101914600D02*
X119965800Y-101726800D01*
X141550400Y-134056000D02*
X141502800Y-134257000D01*
X147762600Y-135305000D02*
X147783500Y-135096000D01*
X131481000Y-123833000D02*
X131277600Y-123798000D01*
X146382700Y-52871500D02*
X146203000Y-52759500D01*
X144820900Y-99964600D02*
X144615500Y-99959300D01*
X118886400Y-89897300D02*
X119056900Y-89775500D01*
X160462400Y-113453000D02*
X160613600Y-113313000D01*
X142230300Y-24199400D02*
X142421600Y-24128700D01*
X120809600Y-144473000D02*
X120736100Y-144510000D01*
X147728200Y-87886400D02*
X147762600Y-87680000D01*
X133258300Y-124857000D02*
X133117300Y-124706000D01*
X169470800Y-104896500D02*
X169590400Y-105063200D01*
X187448000Y-124198000D02*
X187261000Y-124097000D01*
X131277600Y-66595100D02*
X131481000Y-66562100D01*
X142516700Y-132503000D02*
X142365500Y-132643000D01*
X155431900Y-64665800D02*
X155517000Y-64853100D01*
X86429400Y-121239000D02*
X86492300Y-121187000D01*
X148462600Y-144425000D02*
X148382800Y-144444000D01*
X118133100Y-131876000D02*
X117934400Y-131815000D01*
X184651000Y-108135000D02*
X184459000Y-108222300D01*
X168593700Y-61370900D02*
X168561700Y-61446000D01*
X189150000Y-144412000D02*
X189066000Y-144409000D01*
X106375800Y-110045300D02*
X106302700Y-109852100D01*
X173126000Y-137893000D02*
X173321000Y-137821000D01*
X140312800Y-25384200D02*
X140469500Y-25245800D01*
X77291970Y-144536000D02*
X77139570Y-144401000D01*
X158023800Y-43608900D02*
X158029600Y-43690700D01*
X128476400Y-61357700D02*
X128345800Y-61517300D01*
X148441200Y-24990400D02*
X148605500Y-25116700D01*
X130867300Y-123772000D02*
X130661900Y-123777000D01*
X155614000Y-61859400D02*
X155517000Y-62040600D01*
X132634600Y-124309000D02*
X132454800Y-124198000D01*
X115181400Y-100618200D02*
X115020500Y-100753100D01*
X75008090Y-139099000D02*
X75028200Y-138893000D01*
X100223900Y-110651200D02*
X100203000Y-110860200D01*
X161368300Y-62420500D02*
X161295400Y-62227900D01*
X141488900Y-24543900D02*
X141670300Y-24448600D01*
X192255000Y-103028400D02*
X192318000Y-103081300D01*
X102757300Y-123833000D02*
X102556000Y-123878000D01*
X204390000Y-120917000D02*
X213378000Y-136485000D01*
X106539000Y-127159000D02*
X106545900Y-126947000D01*
X175259000Y-87680000D02*
X175280000Y-87471000D01*
X117934400Y-131815000D02*
X117732800Y-131770000D01*
X101603700Y-124309000D02*
X101433300Y-124431000D01*
X155431900Y-125727000D02*
X155359000Y-125920000D01*
X106973500Y-85497100D02*
X106963700Y-85417700D01*
X114478100Y-101372200D02*
X114369700Y-101546900D01*
X141683800Y-101914600D02*
X141610800Y-102107800D01*
X155216600Y-63867300D02*
X155251000Y-64073100D01*
X187627000Y-113710000D02*
X187798000Y-113588000D01*
X143807500Y-23806500D02*
X144010000Y-23785000D01*
X161531600Y-79533500D02*
X161538600Y-79321900D01*
X132966100Y-65829200D02*
X133117300Y-65687100D01*
X187448000Y-108322800D02*
X187261000Y-108222300D01*
X169590400Y-132956000D02*
X169470800Y-133122000D01*
X198994000Y-131770000D02*
X198793000Y-131815000D01*
X159764400Y-76472300D02*
X159573000Y-76385000D01*
X90033000Y-131736000D02*
X89828200Y-131715000D01*
X168999200Y-135511000D02*
X169046800Y-135713000D01*
X129466600Y-60597600D02*
X129279800Y-60697000D01*
X170524000Y-105883400D02*
X170711000Y-105983900D01*
X156962900Y-82171400D02*
X157154300Y-82258700D01*
X91872900Y-137125000D02*
X92014000Y-136975000D01*
X133617000Y-61859400D02*
X133508500Y-61684700D01*
X133258300Y-61357700D02*
X133117300Y-61206600D01*
X196461000Y-135305000D02*
X196495000Y-135511000D01*
X156596400Y-76684000D02*
X156425900Y-76805700D01*
X161428700Y-78493700D02*
X161368300Y-78295300D01*
X132268100Y-129796000D02*
X132454800Y-129696000D01*
X168964800Y-102713700D02*
X168943900Y-102922700D01*
X133388800Y-65376200D02*
X133508500Y-65209000D01*
X147462100Y-104539300D02*
X147547200Y-104354100D01*
X161004800Y-81084000D02*
X161113300Y-80909400D01*
X128617400Y-113313000D02*
X128768600Y-113453000D01*
X100203000Y-111283500D02*
X100223900Y-111493000D01*
X164759200Y-55403800D02*
X164822200Y-55456200D01*
X141468400Y-134464000D02*
X141447500Y-134673000D01*
X141447500Y-102922700D02*
X141440500Y-103134400D01*
X120231900Y-87886400D02*
X120266300Y-87680000D01*
X158363600Y-130122000D02*
X158569100Y-130114000D01*
X145629400Y-52500500D02*
X145430600Y-52440700D01*
X144205300Y-106282900D02*
X144410000Y-106301400D01*
X114869200Y-100893300D02*
X114728200Y-101044200D01*
X90636800Y-131876000D02*
X90438100Y-131815000D01*
X141502800Y-134257000D02*
X141468400Y-134464000D01*
X161510700Y-78901200D02*
X161476300Y-78694800D01*
X104533200Y-83658300D02*
X107708200Y-78160200D01*
X161295400Y-78102100D02*
X161210200Y-77914300D01*
X161428700Y-64275300D02*
X161476300Y-64073100D01*
X145229200Y-131770000D02*
X145025700Y-131736000D01*
X168925900Y-61014800D02*
X168854800Y-61059200D01*
X189389000Y-144473000D02*
X189312000Y-144444000D01*
X119760400Y-104896500D02*
X119868800Y-104721900D01*
X144001800Y-106248500D02*
X144205300Y-106282900D01*
X175479000Y-144716000D02*
X175430000Y-144782000D01*
X183922000Y-113588000D02*
X184093000Y-113710000D01*
X212086000Y-144407000D02*
X211933000Y-144542000D01*
X157349800Y-129955000D02*
X157548500Y-130016000D01*
X211107000Y-145142000D02*
X210930000Y-145245000D01*
X128476400Y-65535700D02*
X128617400Y-65687100D01*
X114728200Y-85169200D02*
X114597700Y-85330500D01*
X214100000Y-138284000D02*
X214142000Y-138488000D01*
X160301400Y-129463000D02*
X160462400Y-129328000D01*
X141854400Y-24359400D02*
X142041100Y-24276400D01*
X131682500Y-114141000D02*
X131881200Y-114080000D01*
X186874000Y-129955000D02*
X187069000Y-129884000D01*
X144410000Y-42802700D02*
X144615500Y-42809300D01*
X168964800Y-135305000D02*
X168999200Y-135511000D01*
X110445300Y-79385300D02*
X110520700Y-79353500D01*
X141447500Y-103346000D02*
X141468400Y-103555000D01*
X156962900Y-124097000D02*
X156776100Y-124198000D01*
X159377600Y-82330200D02*
X159573000Y-82258700D01*
X184846000Y-129955000D02*
X185045000Y-130016000D01*
X146382700Y-58147000D02*
X146553300Y-58024500D01*
X203731000Y-121298000D02*
X204390000Y-120917000D01*
X182748000Y-111699000D02*
X182795000Y-111900000D01*
X106120700Y-128534000D02*
X106217500Y-128352000D01*
X147854400Y-144925000D02*
X147826000Y-145002000D01*
X148628700Y-144409000D02*
X148544700Y-144412000D01*
X175259000Y-102713700D02*
X175225000Y-102507300D01*
X129658000Y-66382400D02*
X129853400Y-66455700D01*
X106436100Y-127775000D02*
X106483700Y-127574000D01*
X185860000Y-107896800D02*
X185655000Y-107902100D01*
X160130900Y-108434000D02*
X159951100Y-108322800D01*
X80907000Y-146002000D02*
X80687900Y-145986000D01*
X140630300Y-25113200D02*
X140795000Y-24987000D01*
X160885100Y-81250700D02*
X161004800Y-81084000D01*
X75508420Y-142092000D02*
X75431690Y-141901000D01*
X168345000Y-144444000D02*
X168265200Y-144425000D01*
X131072800Y-60278500D02*
X130867300Y-60271900D01*
X157154300Y-66382400D02*
X157349800Y-66455700D01*
X160613600Y-65687100D02*
X160754600Y-65535700D01*
X170174000Y-137401000D02*
X170345000Y-137522000D01*
X212652000Y-143822000D02*
X212517000Y-143975000D01*
X161428700Y-126119000D02*
X161368300Y-125920000D01*
X182928000Y-128167000D02*
X183014000Y-128352000D01*
X79635120Y-145796000D02*
X79433780Y-145735000D01*
X105469800Y-108690600D02*
X105308700Y-108555700D01*
X114869200Y-137125000D02*
X115020500Y-137266000D01*
X192533000Y-103197700D02*
X192611000Y-103221600D01*
X168579800Y-62085800D02*
X168619200Y-62159900D01*
X156264900Y-108690600D02*
X156113700Y-108830800D01*
X114272600Y-136289000D02*
X114369700Y-136472000D01*
X208757000Y-145965000D02*
X208541000Y-145986000D01*
X196967000Y-136646000D02*
X197086000Y-136813000D01*
X161428700Y-127775000D02*
X161476300Y-127574000D01*
X213858000Y-137472000D02*
X213930000Y-137673000D01*
X116105300Y-106142700D02*
X116304000Y-106203500D01*
X120294200Y-134884000D02*
X120294200Y-134884000D01*
X132805100Y-129463000D02*
X132966100Y-129328000D01*
X171297000Y-90328500D02*
X171498000Y-90373500D01*
X147762600Y-55088700D02*
X147728200Y-54882800D01*
X133117300Y-124706000D02*
X132966100Y-124566000D01*
X129100100Y-66084500D02*
X129279800Y-66196400D01*
X161531600Y-79110200D02*
X161510700Y-78901200D01*
X202249000Y-133122000D02*
X202129000Y-132956000D01*
X132805100Y-65962000D02*
X132966100Y-65829200D01*
X117934400Y-90328500D02*
X118133100Y-90267700D01*
X144615500Y-131710000D02*
X144410000Y-131715000D01*
X188925000Y-110243700D02*
X188865000Y-110045300D01*
X175351000Y-144925000D02*
X175323000Y-145002000D01*
X158977300Y-123833000D02*
X158773900Y-123798000D01*
X160885100Y-65376200D02*
X161004800Y-65209000D01*
X132454800Y-113821000D02*
X132634600Y-113710000D01*
X81128400Y-146010000D02*
X80907000Y-146002000D01*
X141974300Y-85497200D02*
X141865900Y-85671900D01*
X201195000Y-137633000D02*
X201375000Y-137522000D01*
X142365500Y-100893300D02*
X142224500Y-101044200D01*
X174959000Y-133477000D02*
X174861000Y-133297000D01*
X120723700Y-61767200D02*
X120721600Y-61685400D01*
X160885100Y-77393000D02*
X160754600Y-77231700D01*
X147256600Y-104896500D02*
X147365100Y-104721900D01*
X141683800Y-88479100D02*
X141768900Y-88664300D01*
X96057500Y-103179100D02*
X96134300Y-103210900D01*
X114597700Y-105063200D02*
X114728200Y-105224600D01*
X183610000Y-108830800D02*
X183469000Y-108981700D01*
X133388800Y-81250700D02*
X133508500Y-81084000D01*
X158977300Y-60331600D02*
X158773900Y-60298300D01*
X147790500Y-39634400D02*
X147790500Y-39634400D01*
X110367300Y-79411800D02*
X110445300Y-79385300D01*
X172317000Y-84089600D02*
X172112000Y-84084300D01*
X115531700Y-132135000D02*
X115352100Y-132246000D01*
X183469000Y-129037000D02*
X183610000Y-129188000D01*
X86873400Y-136472000D02*
X86981900Y-136646000D01*
X130128800Y-42475900D02*
X139116300Y-26909200D01*
X155972700Y-129037000D02*
X156113700Y-129188000D01*
X196440000Y-134673000D02*
X196433000Y-134884000D01*
X117732800Y-137999000D02*
X117934400Y-137954000D01*
X159951100Y-76572800D02*
X159764400Y-76472300D01*
X156264900Y-76940600D02*
X156113700Y-77080800D01*
X133872000Y-112098000D02*
X133932500Y-111900000D01*
X106302700Y-112292000D02*
X106375800Y-112098000D01*
X165676900Y-55554800D02*
X165750900Y-55515400D01*
X143605900Y-23834000D02*
X143807500Y-23806500D01*
X189028000Y-127159000D02*
X189035000Y-126947000D01*
X88609000Y-137893000D02*
X88807700Y-137954000D01*
X130457100Y-76173300D02*
X130253700Y-76207700D01*
X143800400Y-106203500D02*
X144001800Y-106248500D01*
X113272100Y-144425000D02*
X113189900Y-144412000D01*
X143601600Y-90267700D02*
X143800400Y-90328500D01*
X100729800Y-128709000D02*
X100849400Y-128876000D01*
X201195000Y-132135000D02*
X201009000Y-132035000D01*
X148544700Y-144412000D02*
X148462600Y-144425000D01*
X120123900Y-86232800D02*
X120050900Y-86039600D01*
X142224500Y-132794000D02*
X142094000Y-132956000D01*
X156596400Y-81959800D02*
X156776100Y-82070900D01*
X131072800Y-76152100D02*
X130867300Y-76146800D01*
X131072800Y-82488900D02*
X131277600Y-82470400D01*
X211450000Y-144917000D02*
X211281000Y-145031000D01*
X96844700Y-103126300D02*
X96912700Y-103081300D01*
X132076700Y-60511000D02*
X131881200Y-60438000D01*
X213690000Y-137072000D02*
X213778000Y-137271000D01*
X184093000Y-108434000D02*
X183922000Y-108555700D01*
X134035300Y-79533500D02*
X134042300Y-79321900D01*
X182479000Y-84981200D02*
X182426000Y-85044700D01*
X143214700Y-42483700D02*
X143406200Y-42569900D01*
X174959000Y-104539300D02*
X175044000Y-104354100D01*
X171702000Y-106282900D02*
X171907000Y-106301400D01*
X197841000Y-137522000D02*
X198020000Y-137633000D01*
X129658000Y-76385000D02*
X129466600Y-76472300D01*
X183922000Y-124431000D02*
X183761000Y-124566000D01*
X130457100Y-60298300D02*
X130253700Y-60331600D01*
X116913600Y-84089600D02*
X116708800Y-84110800D01*
X76085470Y-143166000D02*
X75975670Y-142994000D01*
X101970200Y-129796000D02*
X102161700Y-129884000D01*
X142224500Y-85169200D02*
X142094000Y-85330500D01*
X208102000Y-146010000D02*
X207879000Y-146010000D01*
X213378000Y-136485000D02*
X213490000Y-136678000D01*
X161538600Y-111071900D02*
X161538600Y-111071900D01*
X128226200Y-81084000D02*
X128345800Y-81250700D01*
X164650300Y-55279900D02*
X164701600Y-55345000D01*
X133617000Y-125359000D02*
X133508500Y-125185000D01*
X146382700Y-105772300D02*
X146553300Y-105650500D01*
X188501000Y-128709000D02*
X188610000Y-128534000D01*
X120294200Y-103134400D02*
X120294200Y-103134400D01*
X114187400Y-101914600D02*
X114114600Y-102107800D01*
X147547200Y-133665000D02*
X147462100Y-133477000D01*
X158977300Y-76207700D02*
X158773900Y-76173300D01*
X127935600Y-64665800D02*
X128020800Y-64853100D01*
X141768900Y-136289000D02*
X141865900Y-136472000D01*
X158371400Y-42901400D02*
X158306300Y-42952700D01*
X188925000Y-111900000D02*
X188973000Y-111699000D01*
X118328500Y-137821000D02*
X118519900Y-137734000D01*
X141340900Y-144851000D02*
X141298200Y-144782000D01*
X161510700Y-63867300D02*
X161531600Y-63658300D01*
X175287000Y-103134400D02*
X175287000Y-103134400D01*
X155195700Y-126735000D02*
X155188700Y-126947000D01*
X175287000Y-134884000D02*
X175287000Y-134884000D01*
X117529300Y-84110800D02*
X117324500Y-84089600D01*
X155722500Y-81084000D02*
X155842200Y-81250700D01*
X157953400Y-107923300D02*
X157750000Y-107957700D01*
X130052200Y-114141000D02*
X130253700Y-114186000D01*
X132634600Y-129585000D02*
X132805100Y-129463000D01*
X106436100Y-126119000D02*
X106375800Y-125920000D01*
X175044000Y-136104000D02*
X175117000Y-135911000D01*
X86454800Y-134673000D02*
X86447900Y-134884000D01*
X175659000Y-144552000D02*
X175594000Y-144600000D01*
X88413500Y-137821000D02*
X88609000Y-137893000D01*
X201009000Y-132035000D02*
X200817000Y-131948000D01*
X209180000Y-145896000D02*
X208970000Y-145933000D01*
X175177000Y-86431200D02*
X175117000Y-86232800D01*
X172112000Y-106309300D02*
X172317000Y-106301400D01*
X119868800Y-136472000D02*
X119965800Y-136289000D01*
X96539100Y-103240100D02*
X96619300Y-103224200D01*
X144001800Y-137999000D02*
X144205300Y-138033000D01*
X175177000Y-134056000D02*
X175117000Y-133858000D01*
X146553300Y-89775500D02*
X146714300Y-89640600D01*
X128117700Y-112659000D02*
X128226200Y-112834000D01*
X133617000Y-109484400D02*
X133508500Y-109309700D01*
X92735500Y-135511000D02*
X92769900Y-135305000D01*
X183469000Y-108981700D02*
X183339000Y-109143000D01*
X169265300Y-88664300D02*
X169362300Y-88846900D01*
X131682500Y-82391000D02*
X131881200Y-82330200D01*
X182748000Y-127574000D02*
X182795000Y-127775000D01*
X171297000Y-106203500D02*
X171498000Y-106248500D01*
X100729800Y-125185000D02*
X100621300Y-125359000D01*
X172725000Y-106248500D02*
X172927000Y-106203500D01*
X172317000Y-131715000D02*
X172112000Y-131710000D01*
X142516700Y-53126800D02*
X142365500Y-53269100D01*
X174211000Y-100753100D02*
X174050000Y-100618200D01*
X115352100Y-84621500D02*
X115181400Y-84743200D01*
X80258200Y-145933000D02*
X80047600Y-145894000D01*
X185860000Y-114247000D02*
X186066000Y-114239000D01*
X169720900Y-101044200D02*
X169590400Y-101205500D01*
X196227000Y-108793600D02*
X196175000Y-108857100D01*
X185655000Y-123777000D02*
X185450000Y-123798000D01*
X130052200Y-130016000D02*
X130253700Y-130061000D01*
X78475980Y-145338000D02*
X78295010Y-145240000D01*
X92144400Y-132956000D02*
X92014000Y-132794000D01*
X183014000Y-112477000D02*
X183110000Y-112659000D01*
X146714300Y-105515600D02*
X146865500Y-105375400D01*
X145025700Y-58657600D02*
X145229200Y-58624600D01*
X203338000Y-121412000D02*
X203419000Y-121404000D01*
X182795000Y-127775000D02*
X182855000Y-127973000D01*
X142094000Y-101205500D02*
X141974300Y-101372200D01*
X117119200Y-84084300D02*
X116913600Y-84089600D01*
X147256600Y-85497200D02*
X147137000Y-85330500D01*
X89828200Y-138051000D02*
X90033000Y-138033000D01*
X133117300Y-81562900D02*
X133258300Y-81412100D01*
X128226200Y-112834000D02*
X128345800Y-113001000D01*
X106518100Y-126526000D02*
X106483700Y-126320000D01*
X133117300Y-108830800D02*
X132966100Y-108690600D01*
X213933000Y-141528000D02*
X213868000Y-141719000D01*
X141683800Y-133665000D02*
X141610800Y-133858000D01*
X174503000Y-136975000D02*
X174633000Y-136813000D01*
X157750000Y-123833000D02*
X157548500Y-123878000D01*
X199813000Y-138051000D02*
X200018000Y-138033000D01*
X174211000Y-89640600D02*
X174362000Y-89500400D01*
X128345800Y-81250700D02*
X128476400Y-81412100D01*
X127935600Y-78102100D02*
X127862700Y-78295300D01*
X157548500Y-123878000D02*
X157349800Y-123939000D01*
X141550400Y-56337800D02*
X141610800Y-56535400D01*
X80687900Y-145986000D02*
X80471700Y-145962000D01*
X75740980Y-136678000D02*
X75853160Y-136485000D01*
X156113700Y-77080800D02*
X155972700Y-77231700D01*
X134042300Y-111071900D02*
X134042300Y-111071900D01*
X120231900Y-86632300D02*
X120184300Y-86431200D01*
X131881200Y-82330200D02*
X132076700Y-82258700D01*
X156264900Y-129328000D02*
X156425900Y-129463000D01*
X132966100Y-113453000D02*
X133117300Y-113313000D01*
X196603000Y-133858000D02*
X196543000Y-134056000D01*
X113972000Y-86838700D02*
X113951300Y-87047700D01*
X155722500Y-125185000D02*
X155614000Y-125359000D01*
X99362700Y-145002000D02*
X99342400Y-145081000D01*
X187261000Y-124097000D02*
X187069000Y-124010000D01*
X156425900Y-81838000D02*
X156596400Y-81959800D01*
X102357000Y-123939000D02*
X102161700Y-124010000D01*
X86601100Y-121062000D02*
X86645200Y-120991000D01*
X110042400Y-79435500D02*
X110124100Y-79440800D01*
X174861000Y-136472000D02*
X174959000Y-136289000D01*
X185655000Y-107902100D02*
X185450000Y-107923300D01*
X156596400Y-60809000D02*
X156425900Y-60931700D01*
X170345000Y-132246000D02*
X170174000Y-132368000D01*
X142365500Y-41874600D02*
X142516700Y-42016700D01*
X141974300Y-53747200D02*
X141865900Y-53921900D01*
X116505600Y-137999000D02*
X116708800Y-138033000D01*
X168519400Y-61604000D02*
X168509500Y-61685200D01*
X168964800Y-134464000D02*
X168943900Y-134673000D01*
X144001800Y-36519200D02*
X143800400Y-36565700D01*
X127862700Y-80348400D02*
X127935600Y-80541600D01*
X130052200Y-82391000D02*
X130253700Y-82436000D01*
X106969800Y-85661100D02*
X106975600Y-85579100D01*
X171297000Y-137954000D02*
X171498000Y-137999000D01*
X145633400Y-23835500D02*
X145834100Y-23869400D01*
X104186100Y-123878000D02*
X103984700Y-123833000D01*
X141768900Y-56915600D02*
X141865900Y-57096900D01*
X169180200Y-133665000D02*
X169107200Y-133858000D01*
X103984700Y-123833000D02*
X103781200Y-123798000D01*
X114054000Y-134056000D02*
X114006400Y-134257000D01*
X170345000Y-89897300D02*
X170524000Y-90008400D01*
X174050000Y-132368000D02*
X173879000Y-132246000D01*
X141768900Y-41040600D02*
X141865900Y-41221900D01*
X155722500Y-112834000D02*
X155842200Y-113001000D01*
X155216600Y-63026200D02*
X155195700Y-63235200D01*
X144820900Y-90426400D02*
X145025700Y-90407900D01*
X169107200Y-86232800D02*
X169046800Y-86431200D01*
X133258300Y-65535700D02*
X133388800Y-65376200D01*
X169470800Y-101372200D02*
X169362300Y-101546900D01*
X146203000Y-42383900D02*
X146382700Y-42272000D01*
X168509500Y-61685200D02*
X168507300Y-61767000D01*
X103781200Y-107923300D02*
X103576500Y-107902100D01*
X132966100Y-76940600D02*
X132805100Y-76805700D01*
X143214700Y-100284800D02*
X143028000Y-100385300D01*
X119369200Y-105375400D02*
X119510200Y-105224600D01*
X101433300Y-124431000D02*
X101272200Y-124566000D01*
X128617400Y-124706000D02*
X128476400Y-124857000D01*
X155195700Y-111283500D02*
X155216600Y-111493000D01*
X182713000Y-110651200D02*
X182692000Y-110860200D01*
X93115600Y-109785800D02*
X93154800Y-109711700D01*
X146016200Y-100284800D02*
X145824800Y-100197500D01*
X168999200Y-102507300D02*
X168964800Y-102713700D01*
X106120700Y-109484400D02*
X106012200Y-109309700D01*
X147462100Y-56915600D02*
X147547200Y-56728300D01*
X120393900Y-144851000D02*
X120358100Y-144925000D01*
X97084700Y-102904000D02*
X97128900Y-102832600D01*
X92554500Y-136104000D02*
X92627500Y-135911000D01*
X158773900Y-60298300D02*
X158569100Y-60278500D01*
X117934400Y-137954000D02*
X118133100Y-137893000D01*
X100621300Y-128534000D02*
X100729800Y-128709000D01*
X117119200Y-99959300D02*
X116913600Y-99964600D01*
X156962900Y-66296200D02*
X157154300Y-66382400D01*
X120231900Y-135511000D02*
X120266300Y-135305000D01*
X202129000Y-136813000D02*
X202249000Y-136646000D01*
X160754600Y-81412100D02*
X160885100Y-81250700D01*
X133617000Y-80909400D02*
X133713900Y-80726800D01*
X120050900Y-86039600D02*
X119965800Y-85851800D01*
X100524500Y-112477000D02*
X100621300Y-112659000D01*
X185045000Y-123878000D02*
X184846000Y-123939000D01*
X213141000Y-143171000D02*
X213026000Y-143340000D01*
X147728200Y-39007800D02*
X147680600Y-38805900D01*
X169720900Y-105224600D02*
X169862000Y-105375400D01*
X120287200Y-134673000D02*
X120266300Y-134464000D01*
X161538600Y-63446900D02*
X161538600Y-63446900D01*
X147256600Y-133122000D02*
X147137000Y-132956000D01*
X168999200Y-87886400D02*
X169046800Y-88087500D01*
X93102400Y-108923200D02*
X93056600Y-108857100D01*
X169107200Y-102107800D02*
X169046800Y-102306200D01*
X117529300Y-138033000D02*
X117732800Y-137999000D01*
X75373480Y-137469000D02*
X75453380Y-137268000D01*
X203500000Y-121391000D02*
X203579000Y-121369000D01*
X147680600Y-135713000D02*
X147728200Y-135511000D01*
X161538600Y-63446900D02*
X161538600Y-63446900D01*
X141865900Y-136472000D02*
X141974300Y-136646000D01*
X147748400Y-24547300D02*
X147926500Y-24648900D01*
X147006500Y-105224600D02*
X147137000Y-105063200D01*
X141468400Y-135305000D02*
X141502800Y-135511000D01*
X155614000Y-65034400D02*
X155722500Y-65209000D01*
X114728200Y-136975000D02*
X114869200Y-137125000D01*
X201707000Y-137266000D02*
X201858000Y-137125000D01*
X124035700Y-55615400D02*
X124115600Y-55598000D01*
X129466600Y-113921000D02*
X129658000Y-114009000D01*
X131152900Y-43288500D02*
X131120900Y-43213100D01*
X145025700Y-99985800D02*
X144820900Y-99964600D01*
X189597000Y-144600000D02*
X189532000Y-144552000D01*
X157349800Y-60438000D02*
X157154300Y-60511000D01*
X192611000Y-103221600D02*
X192692000Y-103240100D01*
X147196900Y-24279500D02*
X147383400Y-24362600D01*
X76991410Y-144261000D02*
X76847740Y-144118000D01*
X134014400Y-110651200D02*
X133980000Y-110444800D01*
X155298500Y-126119000D02*
X155251000Y-126320000D01*
X120294200Y-87259400D02*
X120287200Y-87047700D01*
X141865900Y-133297000D02*
X141768900Y-133477000D01*
X131187600Y-43771600D02*
X131201500Y-43690700D01*
X141865900Y-88846900D02*
X141974300Y-89021500D01*
X214223000Y-139104000D02*
X214236000Y-139311000D01*
X144205300Y-99985800D02*
X144001800Y-100020200D01*
X160130900Y-60809000D02*
X159951100Y-60697000D01*
X170013000Y-100753100D02*
X169862000Y-100893300D01*
X100223900Y-127368000D02*
X100258300Y-127574000D01*
X142848300Y-42272000D02*
X143028000Y-42383900D01*
X196761000Y-133477000D02*
X196676000Y-133665000D01*
X147006500Y-136975000D02*
X147137000Y-136813000D01*
X183610000Y-113313000D02*
X183761000Y-113453000D01*
X155359000Y-78295300D02*
X155298500Y-78493700D01*
X144205300Y-131736000D02*
X144001800Y-131770000D01*
X160301400Y-60931700D02*
X160130900Y-60809000D01*
X184093000Y-124309000D02*
X183922000Y-124431000D01*
X115181400Y-137401000D02*
X115352100Y-137522000D01*
X189762000Y-144782000D02*
X189713000Y-144716000D01*
X141502800Y-102507300D02*
X141468400Y-102713700D01*
X75089580Y-138483000D02*
X75131120Y-138279000D01*
X100980100Y-113162000D02*
X101121100Y-113313000D01*
X155517000Y-112477000D02*
X155614000Y-112659000D01*
X114272600Y-101726800D02*
X114187400Y-101914600D01*
X120294200Y-147584000D02*
X113944200Y-147584000D01*
X170711000Y-137734000D02*
X170903000Y-137821000D01*
X158977300Y-130061000D02*
X159178800Y-130016000D01*
X117732800Y-90373500D02*
X117934400Y-90328500D01*
X86214200Y-121356000D02*
X86289700Y-121324000D01*
X131682500Y-76252700D02*
X131481000Y-76207700D01*
X120050900Y-88479100D02*
X120123900Y-88285900D01*
X133258300Y-108981700D02*
X133117300Y-108830800D01*
X119640700Y-101205500D02*
X119510200Y-101044200D01*
X171498000Y-106248500D02*
X171702000Y-106282900D01*
X93056600Y-108857100D02*
X93004000Y-108793600D01*
X131881200Y-129955000D02*
X132076700Y-129884000D01*
X104384800Y-129955000D02*
X104580300Y-129884000D01*
X143800400Y-84190200D02*
X143601600Y-84251000D01*
X184698000Y-83658300D02*
X182674000Y-84827700D01*
X156596400Y-66084500D02*
X156776100Y-66196400D01*
X161510700Y-126526000D02*
X161476300Y-126320000D01*
X134035300Y-111283500D02*
X134042300Y-111071900D01*
X160462400Y-61064300D02*
X160301400Y-60931700D01*
X128117700Y-65034400D02*
X128226200Y-65209000D01*
X120123900Y-133858000D02*
X120050900Y-133665000D01*
X130052200Y-123878000D02*
X129853400Y-123939000D01*
X159573000Y-82258700D02*
X159764400Y-82171400D01*
X120329700Y-145002000D02*
X120309300Y-145081000D01*
X156425900Y-113588000D02*
X156596400Y-113710000D01*
X168943900Y-102922700D02*
X168936900Y-103134400D01*
X188707000Y-125539000D02*
X188610000Y-125359000D01*
X183219000Y-128709000D02*
X183339000Y-128876000D01*
X74989570Y-139509000D02*
X74995390Y-139306000D01*
X158363600Y-60271900D02*
X158158200Y-60278500D01*
X92688100Y-134056000D02*
X92627500Y-133858000D01*
X74990630Y-139716000D02*
X74989570Y-139509000D01*
X169046800Y-102306200D02*
X168999200Y-102507300D01*
X159178800Y-114141000D02*
X159377600Y-114080000D01*
X196858000Y-136472000D02*
X196967000Y-136646000D01*
X119760400Y-101372200D02*
X119640700Y-101205500D01*
X161510700Y-127368000D02*
X161531600Y-127159000D01*
X131881200Y-123939000D02*
X131682500Y-123878000D01*
X171098000Y-137893000D02*
X171297000Y-137954000D01*
X104958400Y-113821000D02*
X105138300Y-113710000D01*
X161113300Y-109484400D02*
X161004800Y-109309700D01*
X128768600Y-65829200D02*
X128929600Y-65962000D01*
X106545900Y-126947000D02*
X106545900Y-126947000D01*
X156425900Y-76805700D02*
X156264900Y-76940600D01*
X146865500Y-53269100D02*
X146714300Y-53126800D01*
X141683800Y-38415400D02*
X141610800Y-38608000D01*
X100439300Y-112292000D02*
X100524500Y-112477000D01*
X86475700Y-135305000D02*
X86510100Y-135511000D01*
X209592000Y-145798000D02*
X209387000Y-145849000D01*
X189658000Y-144655000D02*
X189597000Y-144600000D01*
X147790500Y-103134400D02*
X147783500Y-102922700D01*
X131481000Y-107957700D02*
X131277600Y-107923300D01*
X128617400Y-81562900D02*
X128768600Y-81703100D01*
X133932500Y-126119000D02*
X133872000Y-125920000D01*
X157548500Y-82391000D02*
X157750000Y-82436000D01*
X143406200Y-131948000D02*
X143214700Y-132035000D01*
X146865500Y-89500400D02*
X147006500Y-89349600D01*
X147547200Y-101914600D02*
X147462100Y-101726800D01*
X179348000Y-79398500D02*
X179425000Y-79366700D01*
X184273000Y-113821000D02*
X184459000Y-113921000D01*
X156425900Y-129463000D02*
X156596400Y-129585000D01*
X147620200Y-135911000D02*
X147680600Y-135713000D01*
X102960800Y-123798000D02*
X102757300Y-123833000D01*
X189007000Y-111493000D02*
X189028000Y-111283500D01*
X120294200Y-134884000D02*
X120287200Y-134673000D01*
X172317000Y-99964600D02*
X172112000Y-99959300D01*
X202249000Y-136646000D02*
X202357000Y-136472000D01*
X131195200Y-43446200D02*
X131177700Y-43366300D01*
X145229200Y-106248500D02*
X145430600Y-106203500D01*
X173699000Y-84510300D02*
X173513000Y-84409800D01*
X156113700Y-81562900D02*
X156264900Y-81703100D01*
X187798000Y-129463000D02*
X187959000Y-129328000D01*
X101433300Y-113588000D02*
X101603700Y-113710000D01*
X114187400Y-88479100D02*
X114272600Y-88664300D01*
X159573000Y-76385000D02*
X159377600Y-76313500D01*
X192102000Y-102832600D02*
X192146000Y-102904100D01*
X124193600Y-55573100D02*
X124269000Y-55541100D01*
X189713000Y-144716000D02*
X189658000Y-144655000D01*
X145229200Y-52394100D02*
X145025700Y-52360800D01*
X160885100Y-125018000D02*
X160754600Y-124857000D01*
X185450000Y-107923300D02*
X185246000Y-107957700D01*
X173321000Y-84322500D02*
X173126000Y-84251000D01*
X146382700Y-132246000D02*
X146203000Y-132135000D01*
X160613600Y-124706000D02*
X160462400Y-124566000D01*
X157953400Y-76173300D02*
X157750000Y-76207700D01*
X106217500Y-128352000D02*
X106302700Y-128167000D01*
X147620200Y-54483000D02*
X147547200Y-54290400D01*
X165037200Y-55573100D02*
X165115200Y-55598000D01*
X213251000Y-143002000D02*
X213141000Y-143171000D01*
X202783000Y-134884000D02*
X202783000Y-134884000D01*
X197670000Y-137401000D02*
X197841000Y-137522000D01*
X147006500Y-132794000D02*
X146865500Y-132643000D01*
X183110000Y-112659000D02*
X183219000Y-112834000D01*
X113697900Y-144655000D02*
X113637300Y-144600000D01*
X132076700Y-108135000D02*
X131881200Y-108063500D01*
X174861000Y-101546900D02*
X174753000Y-101372200D01*
X127935600Y-80541600D02*
X128020800Y-80726800D01*
X106217500Y-125539000D02*
X106120700Y-125359000D01*
X157154300Y-114009000D02*
X157349800Y-114080000D01*
X178450000Y-79155100D02*
X178507000Y-79216000D01*
X145824800Y-42569900D02*
X146016200Y-42483700D01*
X182381000Y-85110800D02*
X182342000Y-85184900D01*
X124529300Y-55345000D02*
X124580700Y-55279900D01*
X146553300Y-84743200D02*
X146382700Y-84621500D01*
X186066000Y-107902100D02*
X185860000Y-107896800D01*
X131277600Y-114220000D02*
X131481000Y-114186000D01*
X169720900Y-85169200D02*
X169590400Y-85330500D01*
X202357000Y-136472000D02*
X202455000Y-136289000D01*
X172725000Y-131770000D02*
X172522000Y-131736000D01*
X92144400Y-136813000D02*
X92264000Y-136646000D01*
X147762600Y-102713700D02*
X147728200Y-102507300D01*
X106217500Y-112477000D02*
X106302700Y-112292000D01*
X113944200Y-134884000D02*
X113951300Y-135096000D01*
X144410000Y-99964600D02*
X144205300Y-99985800D01*
X91210400Y-137633000D02*
X91390100Y-137522000D01*
X133932500Y-80150000D02*
X133980000Y-79948900D01*
X129658000Y-108135000D02*
X129466600Y-108222300D01*
X100223900Y-126526000D02*
X100203000Y-126735000D01*
X168690900Y-144655000D02*
X168630500Y-144600000D01*
X139596700Y-26169700D02*
X139730300Y-26000100D01*
X93173300Y-109071400D02*
X93141300Y-108997300D01*
X208970000Y-145933000D02*
X208757000Y-145965000D01*
X160885100Y-109143000D02*
X160754600Y-108981700D01*
X173513000Y-84409800D02*
X173321000Y-84322500D01*
X128617400Y-108830800D02*
X128476400Y-108981700D01*
X133799100Y-109852100D02*
X133714000Y-109664300D01*
X106539000Y-111283500D02*
X106545900Y-111071900D01*
X187448000Y-113821000D02*
X187627000Y-113710000D01*
X155216600Y-78901200D02*
X155195700Y-79110200D01*
X129279800Y-129696000D02*
X129466600Y-129796000D01*
X186474000Y-107957700D02*
X186270000Y-107923300D01*
X168999200Y-103761400D02*
X169046800Y-103962500D01*
X183110000Y-109484400D02*
X183014000Y-109664300D01*
X110520700Y-79353500D02*
X110592700Y-79313900D01*
X173879000Y-84621500D02*
X173699000Y-84510300D01*
X171907000Y-90426400D02*
X172112000Y-90434300D01*
X129100100Y-129585000D02*
X129279800Y-129696000D01*
X75637000Y-136874000D02*
X75740980Y-136678000D01*
X165276400Y-55625200D02*
X165358200Y-55627300D01*
X118133100Y-84251000D02*
X117934400Y-84190200D01*
X145824800Y-131948000D02*
X145629400Y-131876000D01*
X214242000Y-139517000D02*
X214241000Y-139724000D01*
X124408700Y-55456100D02*
X124471800Y-55403800D01*
X200222000Y-137999000D02*
X200423000Y-137954000D01*
X106012200Y-112834000D02*
X106120700Y-112659000D01*
X141768900Y-101726800D02*
X141683800Y-101914600D01*
X128117700Y-61859400D02*
X128020800Y-62040600D01*
X120500200Y-61168200D02*
X120441300Y-61110800D01*
X146553300Y-37119200D02*
X146382700Y-36996500D01*
X189035000Y-126947000D02*
X189035000Y-126947000D01*
X141502800Y-56135600D02*
X141550400Y-56337800D01*
X201999000Y-136975000D02*
X202129000Y-136813000D01*
X182795000Y-126119000D02*
X182748000Y-126320000D01*
X129279800Y-82070900D02*
X129466600Y-82171400D01*
X147547200Y-40853300D02*
X147620200Y-40660400D01*
X175280000Y-87047700D02*
X175259000Y-86838700D01*
X147783500Y-134673000D02*
X147762600Y-134464000D01*
X143800400Y-42703000D02*
X144001800Y-42749600D01*
X175044000Y-104354100D02*
X175117000Y-104160900D01*
X118886400Y-84621500D02*
X118706700Y-84510300D01*
X127720300Y-127368000D02*
X127754700Y-127574000D01*
X168964800Y-86838700D02*
X168943900Y-87047700D01*
X117324500Y-131715000D02*
X117119200Y-131710000D01*
X147620200Y-133858000D02*
X147547200Y-133665000D01*
X161538600Y-79321900D02*
X161538600Y-79321900D01*
X144820900Y-42802700D02*
X145025700Y-42782600D01*
X110205900Y-79438200D02*
X110287400Y-79427600D01*
X74995390Y-139306000D02*
X75008090Y-139099000D01*
X142677700Y-52994200D02*
X142516700Y-53126800D01*
X133714000Y-62040600D02*
X133617000Y-61859400D01*
X182692000Y-110860200D02*
X182685000Y-111071900D01*
X120704000Y-61929400D02*
X120717900Y-61848700D01*
X145229200Y-42749600D02*
X145430600Y-42703000D01*
X115352100Y-100496500D02*
X115181400Y-100618200D01*
X141683800Y-136104000D02*
X141768900Y-136289000D01*
X147137000Y-101205500D02*
X147006500Y-101044200D01*
X123554100Y-55554800D02*
X123631000Y-55585500D01*
X141133600Y-144600000D02*
X141068300Y-144552000D01*
X114369700Y-136472000D02*
X114478100Y-136646000D01*
X76574160Y-143817000D02*
X76444510Y-143658000D01*
X144205300Y-84110800D02*
X144001800Y-84145200D01*
X210930000Y-145245000D02*
X210750000Y-145343000D01*
X128117700Y-109484400D02*
X128020800Y-109664300D01*
X142516700Y-100753100D02*
X142365500Y-100893300D01*
X106752300Y-84981200D02*
X106693300Y-84923000D01*
X149764100Y-26346700D02*
X149886600Y-26528200D01*
X123480100Y-55515400D02*
X123554100Y-55554800D01*
X141440500Y-39634400D02*
X141447500Y-39845800D01*
X202776000Y-135096000D02*
X202783000Y-134884000D01*
X169862000Y-100893300D02*
X169720900Y-101044200D01*
X186675000Y-130016000D02*
X186874000Y-129955000D01*
X159573000Y-60511000D02*
X159377600Y-60438000D01*
X161004800Y-128709000D02*
X161113300Y-128534000D01*
X133980000Y-127574000D02*
X134014400Y-127368000D01*
X133799100Y-80541600D02*
X133872000Y-80348400D01*
X117119200Y-106309300D02*
X117324500Y-106301400D01*
X119218000Y-105515600D02*
X119369200Y-105375400D01*
X141468400Y-39213700D02*
X141447500Y-39422700D01*
X144615500Y-84084300D02*
X144410000Y-84089600D01*
X142094000Y-37704800D02*
X141974300Y-37872200D01*
X147762600Y-134464000D02*
X147728200Y-134257000D01*
X161113300Y-125359000D02*
X161004800Y-125185000D01*
X75236690Y-141324000D02*
X75183780Y-141128000D01*
X158026000Y-43527200D02*
X158023800Y-43608900D01*
X102161700Y-108135000D02*
X101970200Y-108222300D01*
X116505600Y-106248500D02*
X116708800Y-106282900D01*
X187959000Y-129328000D02*
X188110000Y-129188000D01*
X101970200Y-124097000D02*
X101783400Y-124198000D01*
X141610800Y-86232800D02*
X141550400Y-86431200D01*
X113929100Y-145081000D02*
X113908700Y-145002000D01*
X182692000Y-127159000D02*
X182713000Y-127368000D01*
X104958400Y-108322800D02*
X104771800Y-108222300D01*
X168901900Y-145002000D02*
X168873600Y-144925000D01*
X182713000Y-126526000D02*
X182692000Y-126735000D01*
X169470800Y-85497200D02*
X169362300Y-85671900D01*
X130859700Y-42901400D02*
X130788600Y-42856900D01*
X77610000Y-144793000D02*
X77448870Y-144669000D01*
X128226200Y-65209000D02*
X128345800Y-65376200D01*
X130253700Y-107957700D02*
X130052200Y-108002700D01*
X133872000Y-110045300D02*
X133799100Y-109852100D01*
X113637300Y-144600000D02*
X113572200Y-144552000D01*
X86510100Y-135511000D02*
X86557700Y-135713000D01*
X113106000Y-144409000D02*
X100165500Y-144409000D01*
X155216600Y-127368000D02*
X155251000Y-127574000D01*
X192692000Y-103240100D02*
X192773000Y-103250700D01*
X117324500Y-138051000D02*
X117529300Y-138033000D01*
X142224500Y-53420200D02*
X142094000Y-53579800D01*
X202540000Y-136104000D02*
X202613000Y-135911000D01*
X128617400Y-65687100D02*
X128768600Y-65829200D01*
X146428600Y-24008300D02*
X146623700Y-24066800D01*
X127862700Y-110045300D02*
X127802300Y-110243700D01*
X169362300Y-104721900D02*
X169470800Y-104896500D01*
X184459000Y-124097000D02*
X184273000Y-124198000D01*
X202455000Y-133477000D02*
X202357000Y-133297000D01*
X142677700Y-132368000D02*
X142516700Y-132503000D01*
X192855000Y-103253300D02*
X192936000Y-103248000D01*
X201009000Y-137734000D02*
X201195000Y-137633000D01*
X158029600Y-43690700D02*
X158043500Y-43771400D01*
X102161700Y-124010000D02*
X101970200Y-124097000D01*
X178710000Y-79353600D02*
X178785000Y-79385300D01*
X161476300Y-126320000D02*
X161428700Y-126119000D01*
X157548500Y-108002700D02*
X157349800Y-108063500D01*
X131881200Y-60438000D02*
X131682500Y-60378200D01*
X171098000Y-131876000D02*
X170903000Y-131948000D01*
X171498000Y-131770000D02*
X171297000Y-131815000D01*
X143028000Y-36884500D02*
X142848300Y-36996500D01*
X155298500Y-78493700D02*
X155251000Y-78694800D01*
X159573000Y-66382400D02*
X159764400Y-66296200D01*
X89212600Y-138033000D02*
X89417300Y-138051000D01*
X168265200Y-144425000D02*
X168183100Y-144412000D01*
X120266300Y-103555000D02*
X120287200Y-103346000D01*
X202941000Y-121324000D02*
X203016000Y-121356000D01*
X130924800Y-42952700D02*
X130859700Y-42901400D01*
X127692400Y-63446900D02*
X127699400Y-63658300D01*
X133980000Y-79948900D02*
X134014400Y-79742500D01*
X161113300Y-80909400D02*
X161210200Y-80726800D01*
X208323000Y-146002000D02*
X208102000Y-146010000D01*
X175880000Y-144444000D02*
X175803000Y-144473000D01*
X145229200Y-137999000D02*
X145430600Y-137954000D01*
X196495000Y-134257000D02*
X196461000Y-134464000D01*
X200018000Y-138033000D02*
X200222000Y-137999000D01*
X141865900Y-104721900D02*
X141974300Y-104896500D01*
X127935600Y-112292000D02*
X128020800Y-112477000D01*
X175044000Y-86039600D02*
X174959000Y-85851800D01*
X99391300Y-144925000D02*
X99362700Y-145002000D01*
X174362000Y-132643000D02*
X174211000Y-132503000D01*
X102357000Y-108063500D02*
X102161700Y-108135000D01*
X86691100Y-136104000D02*
X86776300Y-136289000D01*
X147762600Y-103555000D02*
X147783500Y-103346000D01*
X100081600Y-144412000D02*
X99999300Y-144425000D01*
X145229200Y-90373500D02*
X145430600Y-90328500D01*
X141502800Y-39007800D02*
X141468400Y-39213700D01*
X119640700Y-85330500D02*
X119510200Y-85169200D01*
X169590400Y-85330500D02*
X169470800Y-85497200D01*
X174753000Y-136646000D02*
X174861000Y-136472000D01*
X131072800Y-107902100D02*
X130867300Y-107896800D01*
X182928000Y-109852100D02*
X182855000Y-110045300D01*
X184846000Y-108063500D02*
X184651000Y-108135000D01*
X92790800Y-135096000D02*
X92797900Y-134884000D01*
X123954400Y-55625200D02*
X124035700Y-55615400D01*
X165439900Y-55621700D02*
X165520700Y-55607700D01*
X92769900Y-134464000D02*
X92735500Y-134257000D01*
X187261000Y-113921000D02*
X187448000Y-113821000D01*
X183014000Y-128352000D02*
X183110000Y-128534000D01*
X117119200Y-138059000D02*
X117324500Y-138051000D01*
X159764400Y-124097000D02*
X159573000Y-124010000D01*
X189028000Y-126735000D02*
X189007000Y-126526000D01*
X174633000Y-101205500D02*
X174503000Y-101044200D01*
X86454800Y-135096000D02*
X86475700Y-135305000D01*
X159178800Y-76252700D02*
X158977300Y-76207700D01*
X133258300Y-129037000D02*
X133388800Y-128876000D01*
X91721600Y-132503000D02*
X91560700Y-132368000D01*
X155431900Y-62227900D02*
X155359000Y-62420500D01*
X100849400Y-125018000D02*
X100729800Y-125185000D01*
X141683800Y-104354100D02*
X141768900Y-104539300D01*
X85893000Y-121412000D02*
X85975100Y-121409000D01*
X100524500Y-125539000D02*
X100439300Y-125727000D01*
X141468400Y-40054800D02*
X141502800Y-40260600D01*
X131481000Y-114186000D02*
X131682500Y-114141000D01*
X131881200Y-76313500D02*
X131682500Y-76252700D01*
X186874000Y-123939000D02*
X186675000Y-123878000D01*
X105620900Y-129188000D02*
X105761900Y-129037000D01*
X129466600Y-76472300D02*
X129279800Y-76572800D01*
X196003000Y-109391600D02*
X196009000Y-109473600D01*
X169107200Y-135911000D02*
X169180200Y-136104000D01*
X187959000Y-108690600D02*
X187798000Y-108555700D01*
X114597700Y-101205500D02*
X114478100Y-101372200D01*
X91560700Y-132368000D02*
X91390100Y-132246000D01*
X117934400Y-100065200D02*
X117732800Y-100020200D01*
X124625100Y-55208800D02*
X131095300Y-44001800D01*
X120611800Y-62159800D02*
X120651200Y-62085800D01*
X189904000Y-146010000D02*
X189904000Y-145248000D01*
X145629400Y-100126000D02*
X145430600Y-100065200D01*
X114054000Y-135713000D02*
X114114600Y-135911000D01*
X159573000Y-124010000D02*
X159377600Y-123939000D01*
X145629400Y-36625500D02*
X145430600Y-36565700D01*
X100203000Y-126735000D02*
X100195900Y-126947000D01*
X127802300Y-64275300D02*
X127862700Y-64472900D01*
X175177000Y-88087500D02*
X175225000Y-87886400D01*
X170345000Y-105772300D02*
X170524000Y-105883400D01*
X92014000Y-136975000D02*
X92144400Y-136813000D01*
X92797900Y-134884000D02*
X92790800Y-134673000D01*
X145824800Y-36698500D02*
X145629400Y-36625500D01*
X119965800Y-133477000D02*
X119868800Y-133297000D01*
X196015000Y-109230200D02*
X196005000Y-109309500D01*
X129466600Y-66296200D02*
X129658000Y-66382400D01*
X146382700Y-84621500D02*
X146203000Y-84510300D01*
X86136200Y-121380000D02*
X86214200Y-121356000D01*
X168561700Y-61446000D02*
X168536900Y-61524100D01*
X160885100Y-128876000D02*
X161004800Y-128709000D01*
X160613600Y-113313000D02*
X160754600Y-113162000D01*
X119640700Y-132956000D02*
X119510200Y-132794000D01*
X116304000Y-100065200D02*
X116105300Y-100126000D01*
X175287000Y-145248000D02*
X175287000Y-147584000D01*
X188973000Y-111699000D02*
X189007000Y-111493000D01*
X155298500Y-111900000D02*
X155359000Y-112098000D01*
X185450000Y-130095000D02*
X185655000Y-130114000D01*
X128117700Y-80909400D02*
X128226200Y-81084000D01*
X147137000Y-105063200D02*
X147256600Y-104896500D01*
X175177000Y-135713000D02*
X175225000Y-135511000D01*
X169046800Y-86431200D02*
X168999200Y-86632300D01*
X196676000Y-133665000D02*
X196603000Y-133858000D01*
X129466600Y-124097000D02*
X129279800Y-124198000D01*
X120266300Y-86838700D02*
X120231900Y-86632300D01*
X128020800Y-77914300D02*
X127935600Y-78102100D01*
X129853400Y-76313500D02*
X129658000Y-76385000D01*
X203094000Y-121380000D02*
X203174000Y-121398000D01*
X214236000Y-139311000D02*
X214242000Y-139517000D01*
X141502800Y-103761400D02*
X141550400Y-103962500D01*
X86618300Y-133858000D02*
X86557700Y-134056000D01*
X99699500Y-144552000D02*
X99634200Y-144600000D01*
X92790800Y-134673000D02*
X92769900Y-134464000D01*
X139116300Y-26909200D02*
X139116200Y-26909200D01*
X193173000Y-103179200D02*
X193247000Y-103139500D01*
X198594000Y-131876000D02*
X198398000Y-131948000D01*
X130867300Y-82496800D02*
X131072800Y-82488900D01*
X197509000Y-137266000D02*
X197670000Y-137401000D01*
X106302700Y-128167000D02*
X106375800Y-127973000D01*
X147383400Y-24362600D02*
X147567300Y-24452000D01*
X182297000Y-85822600D02*
X182328000Y-85899300D01*
X127720300Y-110651200D02*
X127699400Y-110860200D01*
X174633000Y-132956000D02*
X174503000Y-132794000D01*
X99769100Y-144510000D02*
X99699500Y-144552000D01*
X141550400Y-54680900D02*
X141502800Y-54882800D01*
X86492300Y-121187000D02*
X86549700Y-121128000D01*
X128929600Y-113588000D02*
X129100100Y-113710000D01*
X171297000Y-131815000D02*
X171098000Y-131876000D01*
X188792000Y-125727000D02*
X188707000Y-125539000D01*
X142677700Y-137401000D02*
X142848300Y-137522000D01*
X170174000Y-84743200D02*
X170013000Y-84878100D01*
X156264900Y-61064300D02*
X156113700Y-61206600D01*
X144615500Y-138059000D02*
X144820900Y-138051000D01*
X157154300Y-60511000D02*
X156962900Y-60597600D01*
X130457100Y-114220000D02*
X130661900Y-114239000D01*
X169590400Y-105063200D02*
X169720900Y-105224600D01*
X141447500Y-39845800D02*
X141468400Y-40054800D01*
X183610000Y-124706000D02*
X183469000Y-124857000D01*
X131682500Y-130016000D02*
X131881200Y-129955000D01*
X79433780Y-145735000D02*
X79235340Y-145669000D01*
X188865000Y-125920000D02*
X188792000Y-125727000D01*
X143028000Y-90008400D02*
X143214700Y-90108900D01*
X99330400Y-145163000D02*
X99327200Y-145248000D01*
X139730300Y-26000100D02*
X139868900Y-25836900D01*
X165599900Y-55585500D02*
X165676900Y-55554800D01*
X213868000Y-141719000D02*
X213797000Y-141909000D01*
X173321000Y-106071200D02*
X173513000Y-105983900D01*
X187798000Y-124431000D02*
X187627000Y-124309000D01*
X146714300Y-84878100D02*
X146553300Y-84743200D01*
X157154300Y-129884000D02*
X157349800Y-129955000D01*
X103370900Y-114247000D02*
X103576500Y-114239000D01*
X147680600Y-134056000D02*
X147620200Y-133858000D01*
X156113700Y-61206600D02*
X155972700Y-61357700D01*
X140848100Y-144444000D02*
X140768400Y-144425000D01*
X182538000Y-84923000D02*
X182479000Y-84981200D01*
X202869000Y-121284000D02*
X202941000Y-121324000D01*
X141610800Y-133858000D02*
X141550400Y-134056000D01*
X117119200Y-90434300D02*
X117324500Y-90426400D01*
X159102200Y-42476000D02*
X158442500Y-42857000D01*
X114478100Y-89021500D02*
X114597700Y-89188200D01*
X146203000Y-58258900D02*
X146382700Y-58147000D01*
X155188700Y-111071900D02*
X155195700Y-111283500D01*
X170013000Y-137266000D02*
X170174000Y-137401000D01*
X155517000Y-109664300D02*
X155431900Y-109852100D01*
X141298200Y-144782000D02*
X141249100Y-144716000D01*
X195271000Y-101972600D02*
X198446000Y-107470700D01*
X142094000Y-89188200D02*
X142224500Y-89349600D01*
X184459000Y-129796000D02*
X184651000Y-129884000D01*
X175044000Y-101914600D02*
X174959000Y-101726800D01*
X114478100Y-136646000D02*
X114597700Y-136813000D01*
X144205300Y-90407900D02*
X144410000Y-90426400D01*
X159951100Y-82070900D02*
X160130900Y-81959800D01*
X121048400Y-144412000D02*
X120966300Y-144425000D01*
X147762600Y-55929800D02*
X147783500Y-55720800D01*
X149222000Y-25682600D02*
X149364900Y-25839500D01*
X119760400Y-136646000D02*
X119868800Y-136472000D01*
X203016000Y-121356000D02*
X203094000Y-121380000D01*
X92808700Y-108640100D02*
X90784900Y-107470700D01*
X189028000Y-111283500D02*
X189035000Y-111071900D01*
X105308700Y-129463000D02*
X105469800Y-129328000D01*
X119640700Y-136813000D02*
X119760400Y-136646000D01*
X198793000Y-131815000D02*
X198594000Y-131876000D01*
X169862000Y-105375400D02*
X170013000Y-105515600D01*
X105138300Y-124309000D02*
X104958400Y-124198000D01*
X169590400Y-101205500D02*
X169470800Y-101372200D01*
X118328500Y-84322500D02*
X118133100Y-84251000D01*
X144820900Y-106301400D02*
X145025700Y-106282900D01*
X144205300Y-52360800D02*
X144001800Y-52394100D01*
X146714300Y-100753100D02*
X146553300Y-100618200D01*
X196461000Y-134464000D02*
X196440000Y-134673000D01*
X85574200Y-121338000D02*
X85651200Y-121369000D01*
X128929600Y-76805700D02*
X128768600Y-76940600D01*
X131120900Y-43213100D02*
X131081900Y-43141400D01*
X117324500Y-99964600D02*
X117119200Y-99959300D01*
X155722500Y-128709000D02*
X155842200Y-128876000D01*
X174959000Y-101726800D02*
X174861000Y-101546900D01*
X147365100Y-53921900D02*
X147256600Y-53747200D01*
X202540000Y-133665000D02*
X202455000Y-133477000D01*
X120297300Y-145163000D02*
X120294200Y-145248000D01*
X130661900Y-107902100D02*
X130457100Y-107923300D01*
X114054000Y-102306200D02*
X114006400Y-102507300D01*
X158773900Y-107923300D02*
X158569100Y-107902100D01*
X118706700Y-105883400D02*
X118886400Y-105772300D01*
X147680600Y-56337800D02*
X147728200Y-56135600D01*
X147137000Y-89188200D02*
X147256600Y-89021500D01*
X196495000Y-135511000D02*
X196543000Y-135713000D01*
X145430600Y-58578000D02*
X145629400Y-58518200D01*
X189889000Y-145081000D02*
X189869000Y-145002000D01*
X161538600Y-111071900D02*
X161538600Y-111071900D01*
X86289700Y-121324000D02*
X86361400Y-121284000D01*
X183761000Y-129328000D02*
X183922000Y-129463000D01*
X133932500Y-110243700D02*
X133872000Y-110045300D01*
X160301400Y-113588000D02*
X160462400Y-113453000D01*
X133617000Y-128534000D02*
X133713900Y-128352000D01*
X106375800Y-125920000D02*
X106302700Y-125727000D01*
X133714000Y-109664300D02*
X133617000Y-109484400D01*
X168943900Y-135096000D02*
X168964800Y-135305000D01*
X214142000Y-138488000D02*
X214176000Y-138694000D01*
X169180200Y-104354100D02*
X169265300Y-104539300D01*
X141768900Y-85851800D02*
X141683800Y-86039600D01*
X87101500Y-136813000D02*
X87231900Y-136975000D01*
X199198000Y-131736000D02*
X198994000Y-131770000D01*
X146203000Y-36884500D02*
X146016200Y-36785100D01*
X207879000Y-146010000D02*
X189904000Y-146010000D01*
X92797900Y-134884000D02*
X92797900Y-134884000D01*
X197217000Y-132794000D02*
X197086000Y-132956000D01*
X132634600Y-60809000D02*
X132454800Y-60697000D01*
X147547200Y-104354100D02*
X147620200Y-104160900D01*
X119510200Y-136975000D02*
X119640700Y-136813000D01*
X170174000Y-132368000D02*
X170013000Y-132503000D01*
X147256600Y-37872200D02*
X147137000Y-37704800D01*
X102556000Y-114141000D02*
X102757300Y-114186000D01*
X175225000Y-102507300D02*
X175177000Y-102306200D01*
X114114600Y-86232800D02*
X114054000Y-86431200D01*
X146382700Y-42272000D02*
X146553300Y-42149500D01*
X80047600Y-145894000D02*
X79839900Y-145849000D01*
X132634600Y-76684000D02*
X132454800Y-76572800D01*
X143028000Y-137633000D02*
X143214700Y-137734000D01*
X114369700Y-104721900D02*
X114478100Y-104896500D01*
X185246000Y-123833000D02*
X185045000Y-123878000D01*
X93197900Y-109150800D02*
X93173300Y-109071400D01*
X134042300Y-126947000D02*
X134035300Y-126735000D01*
X173321000Y-137821000D02*
X173513000Y-137734000D01*
X77775370Y-144912000D02*
X77610000Y-144793000D01*
X141440500Y-147584000D02*
X141440500Y-145248000D01*
X159764400Y-113921000D02*
X159951100Y-113821000D01*
X118328500Y-131948000D02*
X118133100Y-131876000D01*
X132454800Y-129696000D02*
X132634600Y-129585000D01*
X133872000Y-64472900D02*
X133932500Y-64275300D01*
X157548500Y-60378200D02*
X157349800Y-60438000D01*
X187959000Y-124566000D02*
X187798000Y-124431000D01*
X100439300Y-125727000D02*
X100366300Y-125920000D01*
X133388800Y-128876000D02*
X133508500Y-128709000D01*
X141683800Y-56728300D02*
X141768900Y-56915600D01*
X173699000Y-105883400D02*
X173879000Y-105772300D01*
X161295400Y-112292000D02*
X161368300Y-112098000D01*
X161538600Y-111071900D02*
X161531600Y-110860200D01*
X146203000Y-84510300D02*
X146016200Y-84409800D01*
X127802300Y-110243700D02*
X127754700Y-110444800D01*
X174959000Y-136289000D02*
X175044000Y-136104000D01*
X145229400Y-23785800D02*
X145431800Y-23807500D01*
X168789800Y-61110500D02*
X168730900Y-61168200D01*
X179107000Y-79440800D02*
X179188000Y-79435500D01*
X93227300Y-109391500D02*
X93225200Y-109312200D01*
X213490000Y-136678000D02*
X213594000Y-136874000D01*
X147762600Y-39213700D02*
X147728200Y-39007800D01*
X147006500Y-57598200D02*
X147137000Y-57438700D01*
X174633000Y-85330500D02*
X174503000Y-85169200D01*
X155188700Y-79321900D02*
X155195700Y-79533500D01*
X109731700Y-79327000D02*
X109805600Y-79366700D01*
X141550400Y-102306200D02*
X141502800Y-102507300D01*
X187448000Y-129696000D02*
X187627000Y-129585000D01*
X119510200Y-132794000D02*
X119369200Y-132643000D01*
X202455000Y-136289000D02*
X202540000Y-136104000D01*
X182855000Y-112098000D02*
X182928000Y-112292000D01*
X134035300Y-63658300D02*
X134042300Y-63446900D01*
X175302000Y-145081000D02*
X175290000Y-145163000D01*
X115718500Y-105983900D02*
X115909800Y-106071200D01*
X158158200Y-66615300D02*
X158363600Y-66621900D01*
X175280000Y-103346000D02*
X175287000Y-103134400D01*
X183339000Y-109143000D02*
X183219000Y-109309700D01*
X176041000Y-144412000D02*
X175959000Y-144425000D01*
X127935600Y-125727000D02*
X127862700Y-125920000D01*
X168999200Y-86632300D02*
X168964800Y-86838700D01*
X149503100Y-26002500D02*
X149636200Y-26171500D01*
X147006500Y-85169200D02*
X146865500Y-85018300D01*
X147365100Y-57096900D02*
X147462100Y-56915600D01*
X189532000Y-144552000D02*
X189462000Y-144510000D01*
X183922000Y-108555700D02*
X183761000Y-108690600D01*
X115718500Y-132035000D02*
X115531700Y-132135000D01*
X129853400Y-108063500D02*
X129658000Y-108135000D01*
X171498000Y-84145200D02*
X171297000Y-84190200D01*
X159951100Y-129696000D02*
X160130900Y-129585000D01*
X142094000Y-85330500D02*
X141974300Y-85497200D01*
X142224500Y-37545200D02*
X142094000Y-37704800D01*
X158363600Y-107896800D02*
X158158200Y-107902100D01*
X102357000Y-114080000D02*
X102556000Y-114141000D01*
X133617000Y-77734400D02*
X133508500Y-77559700D01*
X127692400Y-79321900D02*
X127699400Y-79533500D01*
X93225200Y-109312200D02*
X93215400Y-109230200D01*
X96134300Y-103210900D02*
X96213600Y-103232100D01*
X214093000Y-140938000D02*
X214046000Y-141136000D01*
X145431800Y-23807500D02*
X145633400Y-23835500D01*
X117529300Y-99985800D02*
X117324500Y-99964600D01*
X144205300Y-138033000D02*
X144410000Y-138051000D01*
X175959000Y-144425000D02*
X175880000Y-144444000D01*
X127802300Y-111900000D02*
X127862700Y-112098000D01*
X141468400Y-55929800D02*
X141502800Y-56135600D01*
X144615500Y-106309300D02*
X144820900Y-106301400D01*
X175387000Y-144851000D02*
X175351000Y-144925000D01*
X128226200Y-77559700D02*
X128117700Y-77734400D01*
X168943900Y-134673000D02*
X168936900Y-134884000D01*
X113944200Y-147584000D02*
X113944200Y-145248000D01*
X196676000Y-136104000D02*
X196761000Y-136289000D01*
X175287000Y-134884000D02*
X175287000Y-134884000D01*
X158035900Y-43445900D02*
X158026000Y-43527200D01*
X113944200Y-103134400D02*
X113951300Y-103346000D01*
X172522000Y-131736000D02*
X172317000Y-131715000D01*
X100729800Y-112834000D02*
X100849400Y-113001000D01*
X114728200Y-105224600D02*
X114869200Y-105375400D01*
X174959000Y-88664300D02*
X175044000Y-88479100D01*
X140998600Y-144510000D02*
X140925100Y-144473000D01*
X106120700Y-112659000D02*
X106217500Y-112477000D01*
X105892400Y-125018000D02*
X105761900Y-124857000D01*
X172112000Y-138059000D02*
X172317000Y-138051000D01*
X145824800Y-90196200D02*
X146016200Y-90108900D01*
X159178800Y-60378200D02*
X158977300Y-60331600D01*
X148037000Y-144655000D02*
X147982000Y-144716000D01*
X106483700Y-111699000D02*
X106518100Y-111493000D01*
X128117700Y-125359000D02*
X128020800Y-125539000D01*
X84840500Y-120917000D02*
X85500100Y-121298000D01*
X130867300Y-76146800D02*
X130661900Y-76152100D01*
X155195700Y-79110200D02*
X155188700Y-79321900D01*
X129100100Y-113710000D02*
X129279800Y-113821000D01*
X174503000Y-89349600D02*
X174633000Y-89188200D01*
X143214700Y-90108900D02*
X143406200Y-90196200D01*
X105761900Y-113162000D02*
X105892400Y-113001000D01*
X146203000Y-90008400D02*
X146382700Y-89897300D01*
X188382000Y-128876000D02*
X188501000Y-128709000D01*
X170013000Y-89640600D02*
X170174000Y-89775500D01*
X174362000Y-100893300D02*
X174211000Y-100753100D01*
X192936000Y-103248000D02*
X193017000Y-103232100D01*
X160301400Y-81838000D02*
X160462400Y-81703100D01*
X143028000Y-105883400D02*
X143214700Y-105983900D01*
X90636800Y-137893000D02*
X90832300Y-137821000D01*
X104771800Y-124097000D02*
X104580300Y-124010000D01*
X157953400Y-66595100D02*
X158158200Y-66615300D01*
X141405100Y-145002000D02*
X141376700Y-144925000D01*
X141468400Y-86838700D02*
X141447500Y-87047700D01*
X142365500Y-37394100D02*
X142224500Y-37545200D01*
X171907000Y-138051000D02*
X172112000Y-138059000D01*
X161531600Y-111283500D02*
X161538600Y-111071900D01*
X129658000Y-114009000D02*
X129853400Y-114080000D01*
X110660700Y-79268900D02*
X110723700Y-79216000D01*
X155216600Y-111493000D02*
X155251000Y-111699000D01*
X114369700Y-85671900D02*
X114272600Y-85851800D01*
X114728200Y-101044200D02*
X114597700Y-101205500D01*
X115531700Y-90008400D02*
X115718500Y-90108900D01*
X159573000Y-108135000D02*
X159377600Y-108063500D01*
X101272200Y-113453000D02*
X101433300Y-113588000D01*
X105620900Y-124706000D02*
X105469800Y-124566000D01*
X95983700Y-103139500D02*
X96057500Y-103179100D01*
X75853160Y-136485000D02*
X84840500Y-120917000D01*
X119056900Y-132368000D02*
X118886400Y-132246000D01*
X96376100Y-103253200D02*
X96457900Y-103250600D01*
X132805100Y-76805700D02*
X132634600Y-76684000D01*
X196090000Y-108997300D02*
X196058000Y-109071400D01*
X160301400Y-65962000D02*
X160462400Y-65829200D01*
X141502800Y-86632300D02*
X141468400Y-86838700D01*
X164961900Y-55541100D02*
X165037200Y-55573100D01*
X141610800Y-40660400D02*
X141683800Y-40853300D01*
X182255000Y-85579100D02*
X182261000Y-85661200D01*
X75453380Y-137268000D02*
X75541220Y-137070000D01*
X159178800Y-82391000D02*
X159377600Y-82330200D01*
X173126000Y-100126000D02*
X172927000Y-100065200D01*
X132634600Y-108434000D02*
X132454800Y-108322800D01*
X172112000Y-131710000D02*
X171907000Y-131715000D01*
X155614000Y-112659000D02*
X155722500Y-112834000D01*
X170950000Y-59846400D02*
X168925900Y-61014800D01*
X198020000Y-132135000D02*
X197841000Y-132246000D01*
X155251000Y-78694800D02*
X155216600Y-78901200D01*
X192386000Y-103126300D02*
X192458000Y-103166000D01*
X102556000Y-130016000D02*
X102757300Y-130061000D01*
X143214700Y-84409800D02*
X143028000Y-84510300D01*
X120184300Y-103962500D02*
X120231900Y-103761400D01*
X189035000Y-111071900D02*
X189035000Y-111071900D01*
X143601600Y-58518200D02*
X143800400Y-58578000D01*
X109805600Y-79366700D02*
X109882500Y-79398500D01*
X143205500Y-23907500D02*
X143405100Y-23867800D01*
X92469600Y-136289000D02*
X92554500Y-136104000D01*
X86361400Y-121284000D02*
X86429400Y-121239000D01*
X143406200Y-36698500D02*
X143214700Y-36785100D01*
X168964800Y-87680000D02*
X168999200Y-87886400D01*
X175594000Y-144600000D02*
X175534000Y-144655000D01*
X133117300Y-113313000D02*
X133258300Y-113162000D01*
X157349800Y-82330200D02*
X157548500Y-82391000D01*
X161295400Y-128167000D02*
X161368300Y-127973000D01*
X172927000Y-131815000D02*
X172725000Y-131770000D01*
X213930000Y-137673000D02*
X213994000Y-137877000D01*
X169180200Y-86039600D02*
X169107200Y-86232800D01*
X127754700Y-62820300D02*
X127720300Y-63026200D01*
X106302700Y-125727000D02*
X106217500Y-125539000D01*
X212782000Y-143666000D02*
X212652000Y-143822000D01*
X188610000Y-109484400D02*
X188501000Y-109309700D01*
X147790500Y-55509400D02*
X147783500Y-55297700D01*
X172522000Y-138033000D02*
X172725000Y-137999000D01*
X159377600Y-123939000D02*
X159178800Y-123878000D01*
X159377600Y-129955000D02*
X159573000Y-129884000D01*
X105469800Y-129328000D02*
X105620900Y-129188000D01*
X133872000Y-80348400D02*
X133932500Y-80150000D01*
X114869200Y-89500400D02*
X115020500Y-89640600D01*
X131277600Y-82470400D02*
X131481000Y-82436000D01*
X169362300Y-136472000D02*
X169470800Y-136646000D01*
X106012200Y-125185000D02*
X105892400Y-125018000D01*
X147365100Y-85671900D02*
X147256600Y-85497200D01*
X116913600Y-99964600D02*
X116708800Y-99985800D01*
X141768900Y-54103100D02*
X141683800Y-54290400D01*
X198793000Y-137954000D02*
X198994000Y-137999000D01*
X161004800Y-109309700D02*
X160885100Y-109143000D01*
X119218000Y-132503000D02*
X119056900Y-132368000D01*
X182855000Y-110045300D02*
X182795000Y-110243700D01*
X91721600Y-137266000D02*
X91872900Y-137125000D01*
X161538600Y-126947000D02*
X161538600Y-126947000D01*
X116304000Y-84190200D02*
X116105300Y-84251000D01*
X144001800Y-42749600D02*
X144205300Y-42782600D01*
X100849400Y-128876000D02*
X100980100Y-129037000D01*
X161510700Y-79742500D02*
X161531600Y-79533500D01*
X213549000Y-142467000D02*
X213455000Y-142650000D01*
X212906000Y-143504000D02*
X212782000Y-143666000D01*
X149074400Y-25532000D02*
X149222000Y-25682600D01*
X101970200Y-108222300D02*
X101783400Y-108322800D01*
X147783500Y-87047700D02*
X147762600Y-86838700D01*
X88222200Y-132035000D02*
X88035400Y-132135000D01*
X143406200Y-52573500D02*
X143214700Y-52660100D01*
X132076700Y-129884000D02*
X132268100Y-129796000D01*
X158977300Y-107957700D02*
X158773900Y-107923300D01*
X189066000Y-144409000D02*
X176125000Y-144409000D01*
X76708570Y-143970000D02*
X76574160Y-143817000D01*
X120309300Y-145081000D02*
X120297300Y-145163000D01*
X161368300Y-125920000D02*
X161295400Y-125727000D01*
X128226200Y-61684700D02*
X128117700Y-61859400D01*
X147567300Y-24452000D02*
X147748400Y-24547300D01*
X212517000Y-143975000D02*
X212378000Y-144124000D01*
X143601600Y-100126000D02*
X143406200Y-100197500D01*
X104958400Y-124198000D02*
X104771800Y-124097000D01*
X189312000Y-144444000D02*
X189232000Y-144425000D01*
X147256600Y-89021500D02*
X147365100Y-88846900D01*
X157548500Y-76252700D02*
X157349800Y-76313500D01*
X188501000Y-109309700D02*
X188382000Y-109143000D01*
X173513000Y-105983900D02*
X173699000Y-105883400D01*
X202721000Y-134257000D02*
X202673000Y-134056000D01*
X101783400Y-129696000D02*
X101970200Y-129796000D01*
X169470800Y-133122000D02*
X169362300Y-133297000D01*
X161476300Y-64073100D02*
X161510700Y-63867300D01*
X130052200Y-66515500D02*
X130253700Y-66562100D01*
X144205300Y-58657600D02*
X144410000Y-58677800D01*
X142094000Y-132956000D02*
X141974300Y-133122000D01*
X96697300Y-103197700D02*
X96772700Y-103166000D01*
X99427000Y-144851000D02*
X99391300Y-144925000D01*
X155614000Y-125359000D02*
X155517000Y-125539000D01*
X169590400Y-89188200D02*
X169720900Y-89349600D01*
X170903000Y-90196200D02*
X171098000Y-90267700D01*
X127862700Y-64472900D02*
X127935600Y-64665800D01*
X105469800Y-124566000D02*
X105308700Y-124431000D01*
X155195700Y-110860200D02*
X155188700Y-111071900D01*
X133388800Y-125018000D02*
X133258300Y-124857000D01*
X134042300Y-111071900D02*
X134042300Y-111071900D01*
X160130900Y-129585000D02*
X160301400Y-129463000D01*
X169470800Y-89021500D02*
X169590400Y-89188200D01*
X185655000Y-130114000D02*
X185860000Y-130122000D01*
X90832300Y-131948000D02*
X90636800Y-131876000D01*
X128345800Y-77393000D02*
X128226200Y-77559700D01*
X89417300Y-138051000D02*
X89622900Y-138059000D01*
X141683800Y-40853300D02*
X141768900Y-41040600D01*
X141670300Y-24448600D02*
X141854400Y-24359400D01*
X142094000Y-41563700D02*
X142224500Y-41723200D01*
X106375800Y-112098000D02*
X106436100Y-111900000D01*
X114597700Y-136813000D02*
X114728200Y-136975000D01*
X145430600Y-52440700D02*
X145229200Y-52394100D01*
X103370900Y-123772000D02*
X103165600Y-123777000D01*
X133799100Y-64665800D02*
X133872000Y-64472900D01*
X141974300Y-57271500D02*
X142094000Y-57438700D01*
X146714300Y-57891700D02*
X146865500Y-57749600D01*
X157750000Y-107957700D02*
X157548500Y-108002700D01*
X155517000Y-77914300D02*
X155431900Y-78102100D01*
X130661900Y-60278500D02*
X130457100Y-60298300D01*
X131072800Y-123777000D02*
X130867300Y-123772000D01*
X143214700Y-132035000D02*
X143028000Y-132135000D01*
X132076700Y-124010000D02*
X131881200Y-123939000D01*
X175287000Y-134884000D02*
X175280000Y-134673000D01*
X115718500Y-137734000D02*
X115909800Y-137821000D01*
X185045000Y-108002700D02*
X184846000Y-108063500D01*
X161538600Y-126947000D02*
X161531600Y-126735000D01*
X158569100Y-76152100D02*
X158363600Y-76146800D01*
X119056900Y-100618200D02*
X118886400Y-100496500D01*
X141683800Y-54290400D02*
X141610800Y-54483000D01*
X90236500Y-137999000D02*
X90438100Y-137954000D01*
X188501000Y-125185000D02*
X188382000Y-125018000D01*
X164701600Y-55345000D02*
X164759200Y-55403800D01*
X142677700Y-37119200D02*
X142516700Y-37251800D01*
X176125000Y-144409000D02*
X176041000Y-144412000D01*
X130253700Y-130061000D02*
X130457100Y-130095000D01*
X147256600Y-53747200D02*
X147137000Y-53579800D01*
X189035000Y-126947000D02*
X189035000Y-126947000D01*
X134042300Y-126947000D02*
X134042300Y-126947000D01*
X141865900Y-85671900D02*
X141768900Y-85851800D01*
X127720300Y-78901200D02*
X127699400Y-79110200D01*
X128226200Y-125185000D02*
X128117700Y-125359000D01*
X209793000Y-145738000D02*
X209592000Y-145798000D01*
X114187400Y-133665000D02*
X114114600Y-133858000D01*
X183922000Y-129463000D02*
X184093000Y-129585000D01*
X145824800Y-52573500D02*
X145629400Y-52500500D01*
X144410000Y-36466000D02*
X144205300Y-36485800D01*
X170174000Y-89775500D02*
X170345000Y-89897300D01*
X155251000Y-127574000D02*
X155298500Y-127775000D01*
X106539000Y-110860200D02*
X106518100Y-110651200D01*
X155195700Y-79533500D02*
X155216600Y-79742500D01*
X120294200Y-87259400D02*
X120294200Y-87259400D01*
X144410000Y-52341000D02*
X144205300Y-52360800D01*
X134042300Y-63446900D02*
X134035300Y-63235200D01*
X147728200Y-56135600D02*
X147762600Y-55929800D01*
X185246000Y-107957700D02*
X185045000Y-108002700D01*
X156776100Y-66196400D02*
X156962900Y-66296200D01*
X91023600Y-137734000D02*
X91210400Y-137633000D01*
X120721600Y-61685400D02*
X120711700Y-61604200D01*
X172522000Y-106282900D02*
X172725000Y-106248500D01*
X147728200Y-103761400D02*
X147762600Y-103555000D01*
X155359000Y-62420500D02*
X155298500Y-62618400D01*
X147790500Y-103134400D02*
X147790500Y-103134400D01*
X147137000Y-85330500D02*
X147006500Y-85169200D01*
X132454800Y-76572800D02*
X132268100Y-76472300D01*
X133508500Y-128709000D02*
X133617000Y-128534000D01*
X120050900Y-136104000D02*
X120123900Y-135911000D01*
X155359000Y-64472900D02*
X155431900Y-64665800D01*
X113951300Y-87047700D02*
X113944200Y-87259400D01*
X114006400Y-102507300D02*
X113972000Y-102713700D01*
X159951100Y-108322800D02*
X159764400Y-108222300D01*
X87231900Y-132794000D02*
X87101500Y-132956000D01*
X146203000Y-52759500D02*
X146016200Y-52660100D01*
X86691100Y-133665000D02*
X86618300Y-133858000D01*
X155517000Y-64853100D02*
X155614000Y-65034400D01*
X160130900Y-81959800D02*
X160301400Y-81838000D01*
X127862700Y-125920000D02*
X127802300Y-126119000D01*
X146865500Y-57749600D02*
X147006500Y-57598200D01*
X120287200Y-102922700D02*
X120266300Y-102713700D01*
X132966100Y-108690600D02*
X132805100Y-108555700D01*
X157349800Y-114080000D02*
X157548500Y-114141000D01*
X213356000Y-142827000D02*
X213251000Y-143002000D01*
X192146000Y-102904100D02*
X192198000Y-102967600D01*
X168099100Y-144409000D02*
X148628700Y-144409000D01*
X168678500Y-61231200D02*
X168632700Y-61298900D01*
X144205300Y-42782600D02*
X144410000Y-42802700D01*
X128476400Y-113162000D02*
X128617400Y-113313000D01*
X102960800Y-107923300D02*
X102757300Y-107957700D01*
X105761900Y-124857000D02*
X105620900Y-124706000D01*
X175803000Y-144473000D02*
X175729000Y-144510000D01*
X144410000Y-84089600D02*
X144205300Y-84110800D01*
X128476400Y-77231700D02*
X128345800Y-77393000D01*
X131481000Y-130061000D02*
X131682500Y-130016000D01*
X113880400Y-144925000D02*
X113844700Y-144851000D01*
X147462100Y-54103100D02*
X147365100Y-53921900D01*
X182285000Y-85335700D02*
X182267000Y-85417800D01*
X175287000Y-103134400D02*
X175287000Y-103134400D01*
X147256600Y-57271500D02*
X147365100Y-57096900D01*
X160613600Y-77080800D02*
X160462400Y-76940600D01*
X212234000Y-144266000D02*
X212086000Y-144407000D01*
X196023000Y-109555600D02*
X196045000Y-109635000D01*
X133508500Y-109309700D02*
X133388800Y-109143000D01*
X160754600Y-113162000D02*
X160885100Y-113001000D01*
X169180200Y-88479100D02*
X169265300Y-88664300D01*
X172522000Y-90407900D02*
X172725000Y-90373500D01*
X129100100Y-60809000D02*
X128929600Y-60931700D01*
X147790500Y-87259400D02*
X147783500Y-87047700D01*
X100258300Y-126320000D02*
X100223900Y-126526000D01*
X92945200Y-108735400D02*
X92879900Y-108685100D01*
X142677700Y-89775500D02*
X142848300Y-89897300D01*
X158977300Y-82436000D02*
X159178800Y-82391000D01*
X172725000Y-100020200D02*
X172522000Y-99985800D01*
X130457100Y-66595100D02*
X130661900Y-66615300D01*
X155431900Y-80541600D02*
X155517000Y-80726800D01*
X158363600Y-82496800D02*
X158569100Y-82488900D01*
X147462100Y-88664300D02*
X147547200Y-88479100D01*
X144823200Y-23760900D02*
X145026500Y-23770400D01*
X161428700Y-110243700D02*
X161368300Y-110045300D01*
X87231900Y-136975000D02*
X87372900Y-137125000D01*
X141865900Y-101546900D02*
X141768900Y-101726800D01*
X173321000Y-100197500D02*
X173126000Y-100126000D01*
X100621300Y-109484400D02*
X100524500Y-109664300D01*
X132268100Y-113921000D02*
X132454800Y-113821000D01*
X115909800Y-90196200D02*
X116105300Y-90267700D01*
X203256000Y-121409000D02*
X203338000Y-121412000D01*
X155188700Y-63446900D02*
X155195700Y-63658300D01*
X147783500Y-55297700D02*
X147762600Y-55088700D01*
X118133100Y-106142700D02*
X118328500Y-106071200D01*
X117732800Y-100020200D02*
X117529300Y-99985800D01*
X146016200Y-36785100D02*
X145824800Y-36698500D01*
X160754600Y-124857000D02*
X160613600Y-124706000D01*
X171702000Y-84110800D02*
X171498000Y-84145200D01*
X141865900Y-38046900D02*
X141768900Y-38228100D01*
X203419000Y-121404000D02*
X203500000Y-121391000D01*
X172927000Y-84190200D02*
X172725000Y-84145200D01*
X103984700Y-114186000D02*
X104186100Y-114141000D01*
X131205100Y-43527400D02*
X131195200Y-43446200D01*
X158043500Y-43771400D02*
X158065700Y-43850700D01*
X155188700Y-126947000D02*
X155195700Y-127159000D01*
X134042300Y-79321900D02*
X134042300Y-79321900D01*
X134014400Y-78901200D02*
X133980000Y-78694800D01*
X114869200Y-85018300D02*
X114728200Y-85169200D01*
X100980100Y-129037000D02*
X101121100Y-129188000D01*
X133980000Y-62820300D02*
X133932500Y-62618500D01*
X128929600Y-124431000D02*
X128768600Y-124566000D01*
X143028000Y-84510300D02*
X142848300Y-84621500D01*
X120287200Y-87047700D02*
X120266300Y-86838700D01*
X123791000Y-55621700D02*
X123872700Y-55627300D01*
X141974300Y-104896500D02*
X142094000Y-105063200D01*
X120123900Y-102107800D02*
X120050900Y-101914600D01*
X127699400Y-110860200D02*
X127692400Y-111071900D01*
X141768900Y-133477000D02*
X141683800Y-133665000D01*
X133388800Y-109143000D02*
X133258300Y-108981700D01*
X157750000Y-76207700D02*
X157548500Y-76252700D01*
X129100100Y-76684000D02*
X128929600Y-76805700D01*
X158065700Y-43850700D02*
X158096300Y-43927700D01*
X174503000Y-132794000D02*
X174362000Y-132643000D01*
X145824800Y-84322500D02*
X145629400Y-84251000D01*
X106545900Y-111071900D02*
X106539000Y-110860200D01*
X196286000Y-108735400D02*
X196227000Y-108793600D01*
X86873400Y-133297000D02*
X86776300Y-133477000D01*
X92797900Y-134884000D02*
X92797900Y-134884000D01*
X145025700Y-52360800D02*
X144820900Y-52341000D01*
X182855000Y-125920000D02*
X182795000Y-126119000D01*
X142848300Y-52871500D02*
X142677700Y-52994200D01*
X106120700Y-125359000D02*
X106012200Y-125185000D01*
X113941300Y-145163000D02*
X113929100Y-145081000D01*
X115020500Y-84878100D02*
X114869200Y-85018300D01*
X173321000Y-131948000D02*
X173126000Y-131876000D01*
X145025700Y-138033000D02*
X145229200Y-137999000D01*
X75096460Y-140729000D02*
X75062070Y-140528000D01*
X144615500Y-90434300D02*
X144820900Y-90426400D01*
X146203000Y-132135000D02*
X146016200Y-132035000D01*
X120266300Y-134464000D02*
X120231900Y-134257000D01*
X100366300Y-112098000D02*
X100439300Y-112292000D01*
X93004000Y-108793600D02*
X92945200Y-108735400D01*
X118519900Y-90108900D02*
X118706700Y-90008400D01*
X161531600Y-63658300D02*
X161538600Y-63446900D01*
X133980000Y-126320000D02*
X133932500Y-126119000D01*
X158569100Y-107902100D02*
X158363600Y-107896800D01*
X119510200Y-89349600D02*
X119640700Y-89188200D01*
X146714300Y-137266000D02*
X146865500Y-137125000D01*
X141610800Y-54483000D02*
X141550400Y-54680900D01*
X86557700Y-135713000D02*
X86618300Y-135911000D01*
X104771800Y-108222300D02*
X104580300Y-108135000D01*
X184093000Y-129585000D02*
X184273000Y-129696000D01*
X91560700Y-137401000D02*
X91721600Y-137266000D01*
X147462100Y-133477000D02*
X147365100Y-133297000D01*
X171498000Y-90373500D02*
X171702000Y-90407900D01*
X131072800Y-130114000D02*
X131277600Y-130095000D01*
X85811300Y-121404000D02*
X85893000Y-121412000D01*
X105892400Y-128876000D02*
X106012200Y-128709000D01*
X146816900Y-24131600D02*
X147008000Y-24202500D01*
X132076700Y-76385000D02*
X131881200Y-76313500D01*
X89417300Y-131715000D02*
X89212600Y-131736000D01*
X202129000Y-132956000D02*
X201999000Y-132794000D01*
X88035400Y-132135000D02*
X87855800Y-132246000D01*
X133117300Y-129188000D02*
X133258300Y-129037000D01*
X155842200Y-109143000D02*
X155722500Y-109309700D01*
X78295010Y-145240000D02*
X78118000Y-145137000D01*
X118886400Y-132246000D02*
X118706700Y-132135000D01*
X143601600Y-36625500D02*
X143406200Y-36698500D01*
X102960800Y-114220000D02*
X103165600Y-114239000D01*
X128020800Y-109664300D02*
X127935600Y-109852100D01*
X79839900Y-145849000D02*
X79635120Y-145796000D01*
X172927000Y-137954000D02*
X173126000Y-137893000D01*
X214046000Y-141136000D02*
X213993000Y-141332000D01*
X101783400Y-124198000D02*
X101603700Y-124309000D01*
X213994000Y-137877000D02*
X214051000Y-138080000D01*
X120376300Y-61059200D02*
X120305100Y-61014700D01*
X115909800Y-106071200D02*
X116105300Y-106142700D01*
X147680600Y-88087500D02*
X147728200Y-87886400D01*
X143406200Y-100197500D02*
X143214700Y-100284800D01*
X143214700Y-137734000D02*
X143406200Y-137821000D01*
X128345800Y-61517300D02*
X128226200Y-61684700D01*
X121456400Y-54347000D02*
X123480100Y-55515400D01*
X106545900Y-126947000D02*
X106545900Y-126947000D01*
X188251000Y-108981700D02*
X188110000Y-108830800D01*
X168565200Y-144552000D02*
X168495500Y-144510000D01*
X182275000Y-85743200D02*
X182297000Y-85822600D01*
X161004800Y-61684700D02*
X160885100Y-61517300D01*
X178638000Y-79313900D02*
X178710000Y-79353600D01*
X115909800Y-131948000D02*
X115718500Y-132035000D01*
X101603700Y-113710000D02*
X101783400Y-113821000D01*
X213026000Y-143340000D02*
X212906000Y-143504000D01*
X103576500Y-130114000D02*
X103781200Y-130095000D01*
X188382000Y-125018000D02*
X188251000Y-124857000D01*
X165520700Y-55607700D02*
X165599900Y-55585500D01*
X188792000Y-112292000D02*
X188865000Y-112098000D01*
X159377600Y-108063500D02*
X159178800Y-108002700D01*
X116708800Y-90407900D02*
X116913600Y-90426400D01*
X133799100Y-62227900D02*
X133714000Y-62040600D01*
X160754600Y-61357700D02*
X160613600Y-61206600D01*
X105892400Y-113001000D02*
X106012200Y-112834000D01*
X120287200Y-135096000D02*
X120294200Y-134884000D01*
X147620200Y-102107800D02*
X147547200Y-101914600D01*
X133799100Y-125727000D02*
X133713900Y-125539000D01*
X132454800Y-124198000D02*
X132268100Y-124097000D01*
X174633000Y-105063200D02*
X174753000Y-104896500D01*
X175290000Y-145163000D02*
X175287000Y-145248000D01*
X114054000Y-103962500D02*
X114114600Y-104160900D01*
X161004800Y-77559700D02*
X160885100Y-77393000D01*
X100305900Y-110243700D02*
X100258300Y-110444800D01*
X157953400Y-114220000D02*
X158158200Y-114239000D01*
X144615500Y-42809300D02*
X144820900Y-42802700D01*
X200622000Y-131876000D02*
X200423000Y-131815000D01*
X182367000Y-85973400D02*
X192102000Y-102832600D01*
X113752900Y-144716000D02*
X113697900Y-144655000D01*
X130457100Y-82470400D02*
X130661900Y-82488900D01*
%TD*%
M02*
