%TF.GenerationSoftware,KiCad,Pcbnew,(6.0.0)*%
%TF.CreationDate,2022-01-21T14:33:05-08:00*%
%TF.ProjectId,PCB-bottom,5043422d-626f-4747-946f-6d2e6b696361,rev?*%
%TF.SameCoordinates,Original*%
%TF.FileFunction,Legend,Top*%
%TF.FilePolarity,Positive*%
%FSLAX46Y46*%
G04 Gerber Fmt 4.6, Leading zero omitted, Abs format (unit mm)*
G04 Created by KiCad (PCBNEW (6.0.0)) date 2022-01-21 14:33:05*
%MOMM*%
%LPD*%
G01*
G04 APERTURE LIST*
%ADD10C,0.010000*%
G04 APERTURE END LIST*
D10*
%TO.C,Ref\u002A\u002A*%
X131365340Y-131344161D02*
X131666486Y-131386761D01*
X131666486Y-131386761D02*
X131957217Y-131461466D01*
X131957217Y-131461466D02*
X132248478Y-131570651D01*
X132248478Y-131570651D02*
X132344583Y-131613726D01*
X132344583Y-131613726D02*
X132554492Y-131730517D01*
X132554492Y-131730517D02*
X132762469Y-131882037D01*
X132762469Y-131882037D02*
X132961587Y-132060978D01*
X132961587Y-132060978D02*
X133144919Y-132260033D01*
X133144919Y-132260033D02*
X133305540Y-132471891D01*
X133305540Y-132471891D02*
X133436524Y-132689245D01*
X133436524Y-132689245D02*
X133506447Y-132839705D01*
X133506447Y-132839705D02*
X133599797Y-133119871D01*
X133599797Y-133119871D02*
X133665232Y-133425821D01*
X133665232Y-133425821D02*
X133702393Y-133751201D01*
X133702393Y-133751201D02*
X133710919Y-134089655D01*
X133710919Y-134089655D02*
X133690449Y-134434829D01*
X133690449Y-134434829D02*
X133640624Y-134780368D01*
X133640624Y-134780368D02*
X133621857Y-134874000D01*
X133621857Y-134874000D02*
X133567192Y-135086307D01*
X133567192Y-135086307D02*
X133495835Y-135276990D01*
X133495835Y-135276990D02*
X133400027Y-135465804D01*
X133400027Y-135465804D02*
X133367698Y-135521135D01*
X133367698Y-135521135D02*
X133304101Y-135637647D01*
X133304101Y-135637647D02*
X133270701Y-135724528D01*
X133270701Y-135724528D02*
X133267529Y-135781852D01*
X133267529Y-135781852D02*
X133294619Y-135809692D01*
X133294619Y-135809692D02*
X133352004Y-135808120D01*
X133352004Y-135808120D02*
X133439717Y-135777212D01*
X133439717Y-135777212D02*
X133475783Y-135760362D01*
X133475783Y-135760362D02*
X133625287Y-135667179D01*
X133625287Y-135667179D02*
X133773085Y-135536998D01*
X133773085Y-135536998D02*
X133915098Y-135375089D01*
X133915098Y-135375089D02*
X133974440Y-135290500D01*
X133974440Y-135290500D02*
X134968701Y-135290500D01*
X134968701Y-135290500D02*
X134979321Y-135317543D01*
X134979321Y-135317543D02*
X135002041Y-135348579D01*
X135002041Y-135348579D02*
X135026431Y-135344212D01*
X135026431Y-135344212D02*
X135037504Y-135335741D01*
X135037504Y-135335741D02*
X135068865Y-135297159D01*
X135068865Y-135297159D02*
X135098540Y-135242139D01*
X135098540Y-135242139D02*
X135099528Y-135239804D01*
X135099528Y-135239804D02*
X135123180Y-135170491D01*
X135123180Y-135170491D02*
X135124160Y-135122113D01*
X135124160Y-135122113D02*
X135110108Y-135090241D01*
X135110108Y-135090241D02*
X135080607Y-135071232D01*
X135080607Y-135071232D02*
X135044908Y-135088571D01*
X135044908Y-135088571D02*
X135008727Y-135137983D01*
X135008727Y-135137983D02*
X134989466Y-135180459D01*
X134989466Y-135180459D02*
X134969040Y-135245687D01*
X134969040Y-135245687D02*
X134968701Y-135290500D01*
X134968701Y-135290500D02*
X133974440Y-135290500D01*
X133974440Y-135290500D02*
X134047247Y-135186720D01*
X134047247Y-135186720D02*
X134165455Y-134977160D01*
X134165455Y-134977160D02*
X134265641Y-134751679D01*
X134265641Y-134751679D02*
X134274476Y-134728553D01*
X134274476Y-134728553D02*
X134310262Y-134608139D01*
X134310262Y-134608139D02*
X135096294Y-134608139D01*
X135096294Y-134608139D02*
X135098602Y-134682429D01*
X135098602Y-134682429D02*
X135108008Y-134717929D01*
X135108008Y-134717929D02*
X135131288Y-134778750D01*
X135131288Y-134778750D02*
X135174161Y-134726082D01*
X135174161Y-134726082D02*
X135202861Y-134676358D01*
X135202861Y-134676358D02*
X135209440Y-134615343D01*
X135209440Y-134615343D02*
X135206749Y-134582161D01*
X135206749Y-134582161D02*
X135195825Y-134512098D01*
X135195825Y-134512098D02*
X135181011Y-134479300D01*
X135181011Y-134479300D02*
X135158679Y-134478703D01*
X135158679Y-134478703D02*
X135141309Y-134490737D01*
X135141309Y-134490737D02*
X135111414Y-134538209D01*
X135111414Y-134538209D02*
X135096294Y-134608139D01*
X135096294Y-134608139D02*
X134310262Y-134608139D01*
X134310262Y-134608139D02*
X134348194Y-134480507D01*
X134348194Y-134480507D02*
X134387146Y-134218972D01*
X134387146Y-134218972D02*
X134388510Y-134126366D01*
X134388510Y-134126366D02*
X135128266Y-134126366D01*
X135128266Y-134126366D02*
X135138198Y-134197629D01*
X135138198Y-134197629D02*
X135141477Y-134207160D01*
X135141477Y-134207160D02*
X135155257Y-134230677D01*
X135155257Y-134230677D02*
X135175737Y-134221036D01*
X135175737Y-134221036D02*
X135188044Y-134209193D01*
X135188044Y-134209193D02*
X135211467Y-134165312D01*
X135211467Y-134165312D02*
X135221133Y-134106849D01*
X135221133Y-134106849D02*
X135216135Y-134044193D01*
X135216135Y-134044193D02*
X135204804Y-133995422D01*
X135204804Y-133995422D02*
X135190846Y-133966058D01*
X135190846Y-133966058D02*
X135175805Y-133971573D01*
X135175805Y-133971573D02*
X135158238Y-133994337D01*
X135158238Y-133994337D02*
X135135521Y-134051293D01*
X135135521Y-134051293D02*
X135128266Y-134126366D01*
X135128266Y-134126366D02*
X134388510Y-134126366D01*
X134388510Y-134126366D02*
X134391225Y-133942038D01*
X134391225Y-133942038D02*
X134360323Y-133647797D01*
X134360323Y-133647797D02*
X134294332Y-133334342D01*
X134294332Y-133334342D02*
X134193145Y-132999764D01*
X134193145Y-132999764D02*
X134173769Y-132944387D01*
X134173769Y-132944387D02*
X134109602Y-132764316D01*
X134109602Y-132764316D02*
X134058019Y-132618784D01*
X134058019Y-132618784D02*
X134017643Y-132502363D01*
X134017643Y-132502363D02*
X133987098Y-132409627D01*
X133987098Y-132409627D02*
X133965007Y-132335147D01*
X133965007Y-132335147D02*
X133949996Y-132273499D01*
X133949996Y-132273499D02*
X133940686Y-132219253D01*
X133940686Y-132219253D02*
X133935703Y-132166984D01*
X133935703Y-132166984D02*
X133934273Y-132127788D01*
X133934273Y-132127788D02*
X134418161Y-132127788D01*
X134418161Y-132127788D02*
X134418814Y-132168325D01*
X134418814Y-132168325D02*
X134438384Y-132217214D01*
X134438384Y-132217214D02*
X134467639Y-132256963D01*
X134467639Y-132256963D02*
X134493487Y-132270500D01*
X134493487Y-132270500D02*
X134510606Y-132252874D01*
X134510606Y-132252874D02*
X134514166Y-132230511D01*
X134514166Y-132230511D02*
X134501270Y-132185582D01*
X134501270Y-132185582D02*
X134473405Y-132140553D01*
X134473405Y-132140553D02*
X134443979Y-132108364D01*
X134443979Y-132108364D02*
X134428133Y-132107976D01*
X134428133Y-132107976D02*
X134418161Y-132127788D01*
X134418161Y-132127788D02*
X133934273Y-132127788D01*
X133934273Y-132127788D02*
X133933669Y-132111264D01*
X133933669Y-132111264D02*
X133933209Y-132046666D01*
X133933209Y-132046666D02*
X133933094Y-131995333D01*
X133933094Y-131995333D02*
X133933547Y-131879583D01*
X133933547Y-131879583D02*
X133934975Y-131843038D01*
X133934975Y-131843038D02*
X134348081Y-131843038D01*
X134348081Y-131843038D02*
X134370233Y-131885266D01*
X134370233Y-131885266D02*
X134405530Y-131908811D01*
X134405530Y-131908811D02*
X134436865Y-131894324D01*
X134436865Y-131894324D02*
X134449099Y-131880805D01*
X134449099Y-131880805D02*
X134475524Y-131828997D01*
X134475524Y-131828997D02*
X134486889Y-131766005D01*
X134486889Y-131766005D02*
X134481743Y-131709476D01*
X134481743Y-131709476D02*
X134465483Y-131681346D01*
X134465483Y-131681346D02*
X134438947Y-131669105D01*
X134438947Y-131669105D02*
X134411421Y-131685786D01*
X134411421Y-131685786D02*
X134389329Y-131711641D01*
X134389329Y-131711641D02*
X134352689Y-131779544D01*
X134352689Y-131779544D02*
X134348081Y-131843038D01*
X134348081Y-131843038D02*
X133934975Y-131843038D01*
X133934975Y-131843038D02*
X133936821Y-131795846D01*
X133936821Y-131795846D02*
X133944242Y-131733829D01*
X133944242Y-131733829D02*
X133957134Y-131683239D01*
X133957134Y-131683239D02*
X133976823Y-131633782D01*
X133976823Y-131633782D02*
X133980742Y-131625180D01*
X133980742Y-131625180D02*
X134017677Y-131554461D01*
X134017677Y-131554461D02*
X134057399Y-131492258D01*
X134057399Y-131492258D02*
X134075992Y-131468929D01*
X134075992Y-131468929D02*
X134157753Y-131404717D01*
X134157753Y-131404717D02*
X134258926Y-131361278D01*
X134258926Y-131361278D02*
X134366220Y-131341727D01*
X134366220Y-131341727D02*
X134466343Y-131349180D01*
X134466343Y-131349180D02*
X134514166Y-131366231D01*
X134514166Y-131366231D02*
X134578298Y-131420606D01*
X134578298Y-131420606D02*
X134619964Y-131503165D01*
X134619964Y-131503165D02*
X134637137Y-131605022D01*
X134637137Y-131605022D02*
X134627789Y-131717288D01*
X134627789Y-131717288D02*
X134609416Y-131783666D01*
X134609416Y-131783666D02*
X134581435Y-131889062D01*
X134581435Y-131889062D02*
X134575859Y-131990832D01*
X134575859Y-131990832D02*
X134594542Y-132095277D01*
X134594542Y-132095277D02*
X134639337Y-132208700D01*
X134639337Y-132208700D02*
X134712097Y-132337403D01*
X134712097Y-132337403D02*
X134814674Y-132487688D01*
X134814674Y-132487688D02*
X134817592Y-132491715D01*
X134817592Y-132491715D02*
X134962565Y-132710147D01*
X134962565Y-132710147D02*
X135083316Y-132934651D01*
X135083316Y-132934651D02*
X135181915Y-133171451D01*
X135181915Y-133171451D02*
X135260433Y-133426767D01*
X135260433Y-133426767D02*
X135320941Y-133706822D01*
X135320941Y-133706822D02*
X135365510Y-134017838D01*
X135365510Y-134017838D02*
X135382724Y-134189860D01*
X135382724Y-134189860D02*
X135393144Y-134541042D01*
X135393144Y-134541042D02*
X135362642Y-134882713D01*
X135362642Y-134882713D02*
X135291932Y-135213004D01*
X135291932Y-135213004D02*
X135181730Y-135530046D01*
X135181730Y-135530046D02*
X135032749Y-135831968D01*
X135032749Y-135831968D02*
X134845707Y-136116903D01*
X134845707Y-136116903D02*
X134621317Y-136382980D01*
X134621317Y-136382980D02*
X134496046Y-136507700D01*
X134496046Y-136507700D02*
X134254258Y-136713749D01*
X134254258Y-136713749D02*
X133997476Y-136889162D01*
X133997476Y-136889162D02*
X133716128Y-137040048D01*
X133716128Y-137040048D02*
X133540216Y-137117783D01*
X133540216Y-137117783D02*
X133418258Y-137174172D01*
X133418258Y-137174172D02*
X133336845Y-137227793D01*
X133336845Y-137227793D02*
X133294612Y-137281840D01*
X133294612Y-137281840D02*
X133290194Y-137339510D01*
X133290194Y-137339510D02*
X133322226Y-137403999D01*
X133322226Y-137403999D02*
X133387041Y-137476295D01*
X133387041Y-137476295D02*
X133511310Y-137582017D01*
X133511310Y-137582017D02*
X133657357Y-137684206D01*
X133657357Y-137684206D02*
X133808889Y-137772334D01*
X133808889Y-137772334D02*
X133935027Y-137830358D01*
X133935027Y-137830358D02*
X134017209Y-137859181D01*
X134017209Y-137859181D02*
X134091721Y-137876312D01*
X134091721Y-137876312D02*
X134175332Y-137884461D01*
X134175332Y-137884461D02*
X134281333Y-137886346D01*
X134281333Y-137886346D02*
X134370390Y-137884622D01*
X134370390Y-137884622D02*
X134447295Y-137878381D01*
X134447295Y-137878381D02*
X134524125Y-137865419D01*
X134524125Y-137865419D02*
X134612957Y-137843534D01*
X134612957Y-137843534D02*
X134725866Y-137810522D01*
X134725866Y-137810522D02*
X134768166Y-137797523D01*
X134768166Y-137797523D02*
X134901201Y-137758628D01*
X134901201Y-137758628D02*
X135005641Y-137732890D01*
X135005641Y-137732890D02*
X135077522Y-137721195D01*
X135077522Y-137721195D02*
X135106833Y-137721952D01*
X135106833Y-137721952D02*
X135182369Y-137756301D01*
X135182369Y-137756301D02*
X135224295Y-137812268D01*
X135224295Y-137812268D02*
X135233290Y-137886643D01*
X135233290Y-137886643D02*
X135210035Y-137976217D01*
X135210035Y-137976217D02*
X135155210Y-138077782D01*
X135155210Y-138077782D02*
X135069493Y-138188129D01*
X135069493Y-138188129D02*
X134990836Y-138269491D01*
X134990836Y-138269491D02*
X134808214Y-138415816D01*
X134808214Y-138415816D02*
X134600713Y-138532242D01*
X134600713Y-138532242D02*
X134375217Y-138616853D01*
X134375217Y-138616853D02*
X134138611Y-138667735D01*
X134138611Y-138667735D02*
X133897779Y-138682975D01*
X133897779Y-138682975D02*
X133659606Y-138660658D01*
X133659606Y-138660658D02*
X133615190Y-138652007D01*
X133615190Y-138652007D02*
X133425081Y-138595362D01*
X133425081Y-138595362D02*
X133232950Y-138508352D01*
X133232950Y-138508352D02*
X133198008Y-138487307D01*
X133198008Y-138487307D02*
X133670906Y-138487307D01*
X133670906Y-138487307D02*
X133677852Y-138505979D01*
X133677852Y-138505979D02*
X133688666Y-138513940D01*
X133688666Y-138513940D02*
X133731779Y-138528727D01*
X133731779Y-138528727D02*
X133792509Y-138534729D01*
X133792509Y-138534729D02*
X133854212Y-138532132D01*
X133854212Y-138532132D02*
X133900242Y-138521119D01*
X133900242Y-138521119D02*
X133912901Y-138511455D01*
X133912901Y-138511455D02*
X133910918Y-138481884D01*
X133910918Y-138481884D02*
X133879030Y-138453317D01*
X133879030Y-138453317D02*
X133833255Y-138435520D01*
X133833255Y-138435520D02*
X134138058Y-138435520D01*
X134138058Y-138435520D02*
X134152576Y-138480724D01*
X134152576Y-138480724D02*
X134154557Y-138483186D01*
X134154557Y-138483186D02*
X134180795Y-138507527D01*
X134180795Y-138507527D02*
X134211706Y-138511962D01*
X134211706Y-138511962D02*
X134261228Y-138496807D01*
X134261228Y-138496807D02*
X134287304Y-138486195D01*
X134287304Y-138486195D02*
X134342518Y-138456908D01*
X134342518Y-138456908D02*
X134382308Y-138425265D01*
X134382308Y-138425265D02*
X134383291Y-138424111D01*
X134383291Y-138424111D02*
X134397820Y-138396582D01*
X134397820Y-138396582D02*
X134381769Y-138372531D01*
X134381769Y-138372531D02*
X134358837Y-138356211D01*
X134358837Y-138356211D02*
X134319755Y-138335438D01*
X134319755Y-138335438D02*
X134283522Y-138334809D01*
X134283522Y-138334809D02*
X134230123Y-138353839D01*
X134230123Y-138353839D02*
X134164379Y-138392417D01*
X134164379Y-138392417D02*
X134138058Y-138435520D01*
X134138058Y-138435520D02*
X133833255Y-138435520D01*
X133833255Y-138435520D02*
X133829059Y-138433889D01*
X133829059Y-138433889D02*
X133794500Y-138430000D01*
X133794500Y-138430000D02*
X133735117Y-138442050D01*
X133735117Y-138442050D02*
X133698003Y-138461347D01*
X133698003Y-138461347D02*
X133670906Y-138487307D01*
X133670906Y-138487307D02*
X133198008Y-138487307D01*
X133198008Y-138487307D02*
X133048481Y-138397250D01*
X133048481Y-138397250D02*
X132881358Y-138268328D01*
X132881358Y-138268328D02*
X132871007Y-138257949D01*
X132871007Y-138257949D02*
X134555880Y-138257949D01*
X134555880Y-138257949D02*
X134565113Y-138303349D01*
X134565113Y-138303349D02*
X134570611Y-138310055D01*
X134570611Y-138310055D02*
X134611323Y-138323618D01*
X134611323Y-138323618D02*
X134673431Y-138313884D01*
X134673431Y-138313884D02*
X134726256Y-138292197D01*
X134726256Y-138292197D02*
X134787937Y-138246463D01*
X134787937Y-138246463D02*
X134820024Y-138192678D01*
X134820024Y-138192678D02*
X134818742Y-138145783D01*
X134818742Y-138145783D02*
X134788721Y-138119956D01*
X134788721Y-138119956D02*
X134735388Y-138113221D01*
X134735388Y-138113221D02*
X134672843Y-138124854D01*
X134672843Y-138124854D02*
X134615184Y-138154132D01*
X134615184Y-138154132D02*
X134612271Y-138156369D01*
X134612271Y-138156369D02*
X134573044Y-138203627D01*
X134573044Y-138203627D02*
X134555880Y-138257949D01*
X134555880Y-138257949D02*
X132871007Y-138257949D01*
X132871007Y-138257949D02*
X132741264Y-138127859D01*
X132741264Y-138127859D02*
X132676510Y-138044003D01*
X132676510Y-138044003D02*
X132612746Y-137968260D01*
X132612746Y-137968260D02*
X132551428Y-137926371D01*
X132551428Y-137926371D02*
X132497071Y-137919540D01*
X132497071Y-137919540D02*
X132454190Y-137948973D01*
X132454190Y-137948973D02*
X132437458Y-137980208D01*
X132437458Y-137980208D02*
X132426846Y-138059873D01*
X132426846Y-138059873D02*
X132444611Y-138167077D01*
X132444611Y-138167077D02*
X132489982Y-138298656D01*
X132489982Y-138298656D02*
X132543623Y-138415348D01*
X132543623Y-138415348D02*
X132647724Y-138598534D01*
X132647724Y-138598534D02*
X132758398Y-138743376D01*
X132758398Y-138743376D02*
X132880159Y-138853814D01*
X132880159Y-138853814D02*
X133017517Y-138933787D01*
X133017517Y-138933787D02*
X133174985Y-138987235D01*
X133174985Y-138987235D02*
X133207121Y-138994624D01*
X133207121Y-138994624D02*
X133326826Y-139025899D01*
X133326826Y-139025899D02*
X133409119Y-139062000D01*
X133409119Y-139062000D02*
X133458909Y-139106624D01*
X133458909Y-139106624D02*
X133481102Y-139163468D01*
X133481102Y-139163468D02*
X133483286Y-139202710D01*
X133483286Y-139202710D02*
X133463123Y-139293446D01*
X133463123Y-139293446D02*
X133406201Y-139375222D01*
X133406201Y-139375222D02*
X133316317Y-139447880D01*
X133316317Y-139447880D02*
X133180687Y-139519391D01*
X133180687Y-139519391D02*
X133032425Y-139566385D01*
X133032425Y-139566385D02*
X132884050Y-139586202D01*
X132884050Y-139586202D02*
X132748085Y-139576182D01*
X132748085Y-139576182D02*
X132730788Y-139572256D01*
X132730788Y-139572256D02*
X132608283Y-139528428D01*
X132608283Y-139528428D02*
X132468419Y-139453072D01*
X132468419Y-139453072D02*
X132308299Y-139344583D01*
X132308299Y-139344583D02*
X132273842Y-139318958D01*
X132273842Y-139318958D02*
X132234644Y-139287983D01*
X132234644Y-139287983D02*
X132492429Y-139287983D01*
X132492429Y-139287983D02*
X132494792Y-139300334D01*
X132494792Y-139300334D02*
X132529202Y-139325248D01*
X132529202Y-139325248D02*
X132545666Y-139335813D01*
X132545666Y-139335813D02*
X132612240Y-139369557D01*
X132612240Y-139369557D02*
X132658107Y-139374551D01*
X132658107Y-139374551D02*
X132659414Y-139373023D01*
X132659414Y-139373023D02*
X132875393Y-139373023D01*
X132875393Y-139373023D02*
X132892895Y-139401230D01*
X132892895Y-139401230D02*
X132939972Y-139420123D01*
X132939972Y-139420123D02*
X132989477Y-139424833D01*
X132989477Y-139424833D02*
X133069581Y-139409312D01*
X133069581Y-139409312D02*
X133107752Y-139381207D01*
X133107752Y-139381207D02*
X133133150Y-139347259D01*
X133133150Y-139347259D02*
X133128515Y-139326407D01*
X133128515Y-139326407D02*
X133116325Y-139316839D01*
X133116325Y-139316839D02*
X133070803Y-139304800D01*
X133070803Y-139304800D02*
X133005441Y-139306344D01*
X133005441Y-139306344D02*
X132939712Y-139319349D01*
X132939712Y-139319349D02*
X132893825Y-139341072D01*
X132893825Y-139341072D02*
X132875393Y-139373023D01*
X132875393Y-139373023D02*
X132659414Y-139373023D01*
X132659414Y-139373023D02*
X132678481Y-139350750D01*
X132678481Y-139350750D02*
X132663900Y-139326133D01*
X132663900Y-139326133D02*
X132622652Y-139301886D01*
X132622652Y-139301886D02*
X132569941Y-139284621D01*
X132569941Y-139284621D02*
X132520970Y-139280946D01*
X132520970Y-139280946D02*
X132518688Y-139281270D01*
X132518688Y-139281270D02*
X132492429Y-139287983D01*
X132492429Y-139287983D02*
X132234644Y-139287983D01*
X132234644Y-139287983D02*
X132183234Y-139247358D01*
X132183234Y-139247358D02*
X132102890Y-139175274D01*
X132102890Y-139175274D02*
X132026471Y-139095579D01*
X132026471Y-139095579D02*
X131947636Y-139001144D01*
X131947636Y-139001144D02*
X131860045Y-138884843D01*
X131860045Y-138884843D02*
X131757358Y-138739545D01*
X131757358Y-138739545D02*
X131753408Y-138733841D01*
X131753408Y-138733841D02*
X131629630Y-138562502D01*
X131629630Y-138562502D02*
X131519777Y-138427965D01*
X131519777Y-138427965D02*
X131420796Y-138328251D01*
X131420796Y-138328251D02*
X131329635Y-138261382D01*
X131329635Y-138261382D02*
X131243243Y-138225378D01*
X131243243Y-138225378D02*
X131158567Y-138218262D01*
X131158567Y-138218262D02*
X131072555Y-138238055D01*
X131072555Y-138238055D02*
X131022672Y-138260153D01*
X131022672Y-138260153D02*
X130982422Y-138287450D01*
X130982422Y-138287450D02*
X130918025Y-138339164D01*
X130918025Y-138339164D02*
X130835545Y-138410060D01*
X130835545Y-138410060D02*
X130741048Y-138494902D01*
X130741048Y-138494902D02*
X130640598Y-138588454D01*
X130640598Y-138588454D02*
X130623207Y-138604999D01*
X130623207Y-138604999D02*
X130387597Y-138820906D01*
X130387597Y-138820906D02*
X130166620Y-139003906D01*
X130166620Y-139003906D02*
X129954387Y-139158117D01*
X129954387Y-139158117D02*
X129745007Y-139287656D01*
X129745007Y-139287656D02*
X129532587Y-139396640D01*
X129532587Y-139396640D02*
X129419610Y-139446291D01*
X129419610Y-139446291D02*
X129265534Y-139496482D01*
X129265534Y-139496482D02*
X129106397Y-139523425D01*
X129106397Y-139523425D02*
X128948925Y-139528141D01*
X128948925Y-139528141D02*
X128799847Y-139511647D01*
X128799847Y-139511647D02*
X128665890Y-139474964D01*
X128665890Y-139474964D02*
X128553782Y-139419111D01*
X128553782Y-139419111D02*
X128495930Y-139367856D01*
X128495930Y-139367856D02*
X128994838Y-139367856D01*
X128994838Y-139367856D02*
X129007510Y-139386666D01*
X129007510Y-139386666D02*
X129046874Y-139400315D01*
X129046874Y-139400315D02*
X129086165Y-139403666D01*
X129086165Y-139403666D02*
X129134663Y-139400828D01*
X129134663Y-139400828D02*
X129158495Y-139393865D01*
X129158495Y-139393865D02*
X129159000Y-139392559D01*
X129159000Y-139392559D02*
X129141013Y-139375697D01*
X129141013Y-139375697D02*
X129099175Y-139359282D01*
X129099175Y-139359282D02*
X129051670Y-139348775D01*
X129051670Y-139348775D02*
X129016682Y-139349639D01*
X129016682Y-139349639D02*
X129016424Y-139349736D01*
X129016424Y-139349736D02*
X128994838Y-139367856D01*
X128994838Y-139367856D02*
X128495930Y-139367856D01*
X128495930Y-139367856D02*
X128470252Y-139345107D01*
X128470252Y-139345107D02*
X128439297Y-139297763D01*
X128439297Y-139297763D02*
X128408937Y-139210927D01*
X128408937Y-139210927D02*
X128408241Y-139205460D01*
X128408241Y-139205460D02*
X128615217Y-139205460D01*
X128615217Y-139205460D02*
X128615677Y-139254880D01*
X128615677Y-139254880D02*
X128646877Y-139301059D01*
X128646877Y-139301059D02*
X128697363Y-139337268D01*
X128697363Y-139337268D02*
X128755687Y-139356779D01*
X128755687Y-139356779D02*
X128810396Y-139352864D01*
X128810396Y-139352864D02*
X128837266Y-139335933D01*
X128837266Y-139335933D02*
X128860920Y-139292573D01*
X128860920Y-139292573D02*
X128845023Y-139245653D01*
X128845023Y-139245653D02*
X128816342Y-139213991D01*
X128816342Y-139213991D02*
X128765000Y-139183643D01*
X128765000Y-139183643D02*
X128704689Y-139171049D01*
X128704689Y-139171049D02*
X128650352Y-139176841D01*
X128650352Y-139176841D02*
X128616931Y-139201654D01*
X128616931Y-139201654D02*
X128615217Y-139205460D01*
X128615217Y-139205460D02*
X128408241Y-139205460D01*
X128408241Y-139205460D02*
X128396637Y-139114421D01*
X128396637Y-139114421D02*
X128402505Y-139022823D01*
X128402505Y-139022823D02*
X128426649Y-138950710D01*
X128426649Y-138950710D02*
X128436633Y-138936078D01*
X128436633Y-138936078D02*
X128458925Y-138913552D01*
X128458925Y-138913552D02*
X128488376Y-138898223D01*
X128488376Y-138898223D02*
X128534037Y-138887953D01*
X128534037Y-138887953D02*
X128604962Y-138880603D01*
X128604962Y-138880603D02*
X128695925Y-138874826D01*
X128695925Y-138874826D02*
X128818486Y-138865157D01*
X128818486Y-138865157D02*
X128909811Y-138850676D01*
X128909811Y-138850676D02*
X128980908Y-138829332D01*
X128980908Y-138829332D02*
X129010833Y-138816169D01*
X129010833Y-138816169D02*
X129077538Y-138775663D01*
X129077538Y-138775663D02*
X129163645Y-138711999D01*
X129163645Y-138711999D02*
X129259942Y-138633217D01*
X129259942Y-138633217D02*
X129357221Y-138547361D01*
X129357221Y-138547361D02*
X129446270Y-138462472D01*
X129446270Y-138462472D02*
X129517880Y-138386591D01*
X129517880Y-138386591D02*
X129552868Y-138342901D01*
X129552868Y-138342901D02*
X129616990Y-138234775D01*
X129616990Y-138234775D02*
X129652477Y-138135374D01*
X129652477Y-138135374D02*
X129659759Y-138049546D01*
X129659759Y-138049546D02*
X129639262Y-137982142D01*
X129639262Y-137982142D02*
X129591413Y-137938011D01*
X129591413Y-137938011D02*
X129516642Y-137922001D01*
X129516642Y-137922001D02*
X129515753Y-137922000D01*
X129515753Y-137922000D02*
X129480733Y-137930811D01*
X129480733Y-137930811D02*
X129415429Y-137955136D01*
X129415429Y-137955136D02*
X129327548Y-137991815D01*
X129327548Y-137991815D02*
X129224795Y-138037684D01*
X129224795Y-138037684D02*
X129159819Y-138068015D01*
X129159819Y-138068015D02*
X128988195Y-138147381D01*
X128988195Y-138147381D02*
X128845839Y-138207892D01*
X128845839Y-138207892D02*
X128725333Y-138251815D01*
X128725333Y-138251815D02*
X128619259Y-138281417D01*
X128619259Y-138281417D02*
X128520199Y-138298966D01*
X128520199Y-138298966D02*
X128420733Y-138306728D01*
X128420733Y-138306728D02*
X128375833Y-138307623D01*
X128375833Y-138307623D02*
X128241027Y-138302854D01*
X128241027Y-138302854D02*
X128119942Y-138284813D01*
X128119942Y-138284813D02*
X128006358Y-138250302D01*
X128006358Y-138250302D02*
X127894056Y-138196123D01*
X127894056Y-138196123D02*
X127776817Y-138119078D01*
X127776817Y-138119078D02*
X127729205Y-138080843D01*
X127729205Y-138080843D02*
X128082631Y-138080843D01*
X128082631Y-138080843D02*
X128091528Y-138102236D01*
X128091528Y-138102236D02*
X128140778Y-138126415D01*
X128140778Y-138126415D02*
X128143000Y-138127180D01*
X128143000Y-138127180D02*
X128225250Y-138148654D01*
X128225250Y-138148654D02*
X128287588Y-138151906D01*
X128287588Y-138151906D02*
X128321159Y-138136497D01*
X128321159Y-138136497D02*
X128321434Y-138136064D01*
X128321434Y-138136064D02*
X128319181Y-138107882D01*
X128319181Y-138107882D02*
X128306841Y-138098903D01*
X128306841Y-138098903D02*
X128532438Y-138098903D01*
X128532438Y-138098903D02*
X128546351Y-138113232D01*
X128546351Y-138113232D02*
X128600574Y-138123114D01*
X128600574Y-138123114D02*
X128686818Y-138105664D01*
X128686818Y-138105664D02*
X128740958Y-138087044D01*
X128740958Y-138087044D02*
X128788120Y-138059720D01*
X128788120Y-138059720D02*
X128799566Y-138031897D01*
X128799566Y-138031897D02*
X128781542Y-138008665D01*
X128781542Y-138008665D02*
X128740295Y-137995115D01*
X128740295Y-137995115D02*
X128682071Y-137996338D01*
X128682071Y-137996338D02*
X128641777Y-138006217D01*
X128641777Y-138006217D02*
X128575693Y-138035636D01*
X128575693Y-138035636D02*
X128537579Y-138068401D01*
X128537579Y-138068401D02*
X128532438Y-138098903D01*
X128532438Y-138098903D02*
X128306841Y-138098903D01*
X128306841Y-138098903D02*
X128284428Y-138082596D01*
X128284428Y-138082596D02*
X128226952Y-138065346D01*
X128226952Y-138065346D02*
X128178256Y-138060801D01*
X128178256Y-138060801D02*
X128112177Y-138065833D01*
X128112177Y-138065833D02*
X128082631Y-138080843D01*
X128082631Y-138080843D02*
X127729205Y-138080843D01*
X127729205Y-138080843D02*
X127648420Y-138015969D01*
X127648420Y-138015969D02*
X127518304Y-137897816D01*
X127518304Y-137897816D02*
X128957782Y-137897816D01*
X128957782Y-137897816D02*
X128962139Y-137914788D01*
X128962139Y-137914788D02*
X128991344Y-137937401D01*
X128991344Y-137937401D02*
X129046456Y-137941083D01*
X129046456Y-137941083D02*
X129116043Y-137926842D01*
X129116043Y-137926842D02*
X129188668Y-137895690D01*
X129188668Y-137895690D02*
X129190570Y-137894620D01*
X129190570Y-137894620D02*
X129254641Y-137848394D01*
X129254641Y-137848394D02*
X129280825Y-137808138D01*
X129280825Y-137808138D02*
X129273527Y-137777942D01*
X129273527Y-137777942D02*
X129237153Y-137761900D01*
X129237153Y-137761900D02*
X129176106Y-137764101D01*
X129176106Y-137764101D02*
X129094793Y-137788640D01*
X129094793Y-137788640D02*
X129082246Y-137794000D01*
X129082246Y-137794000D02*
X129006891Y-137831740D01*
X129006891Y-137831740D02*
X128967198Y-137864540D01*
X128967198Y-137864540D02*
X128957782Y-137897816D01*
X128957782Y-137897816D02*
X127518304Y-137897816D01*
X127518304Y-137897816D02*
X127502647Y-137883599D01*
X127502647Y-137883599D02*
X127446266Y-137829664D01*
X127446266Y-137829664D02*
X127338872Y-137727709D01*
X127338872Y-137727709D02*
X127225459Y-137623176D01*
X127225459Y-137623176D02*
X127115778Y-137524845D01*
X127115778Y-137524845D02*
X127019580Y-137441497D01*
X127019580Y-137441497D02*
X126965856Y-137397066D01*
X126965856Y-137397066D02*
X126938142Y-137373747D01*
X126938142Y-137373747D02*
X127276409Y-137373747D01*
X127276409Y-137373747D02*
X127285577Y-137422416D01*
X127285577Y-137422416D02*
X127310906Y-137460741D01*
X127310906Y-137460741D02*
X127354328Y-137489888D01*
X127354328Y-137489888D02*
X127395156Y-137488751D01*
X127395156Y-137488751D02*
X127417851Y-137462226D01*
X127417851Y-137462226D02*
X127410331Y-137431667D01*
X127410331Y-137431667D02*
X127381358Y-137392570D01*
X127381358Y-137392570D02*
X127343396Y-137357451D01*
X127343396Y-137357451D02*
X127308914Y-137338831D01*
X127308914Y-137338831D02*
X127296155Y-137340026D01*
X127296155Y-137340026D02*
X127276409Y-137373747D01*
X127276409Y-137373747D02*
X126938142Y-137373747D01*
X126938142Y-137373747D02*
X126856508Y-137305060D01*
X126856508Y-137305060D02*
X126780402Y-137229173D01*
X126780402Y-137229173D02*
X126744704Y-137178630D01*
X126744704Y-137178630D02*
X126957666Y-137178630D01*
X126957666Y-137178630D02*
X126975635Y-137225651D01*
X126975635Y-137225651D02*
X127020215Y-137269666D01*
X127020215Y-137269666D02*
X127063500Y-137291961D01*
X127063500Y-137291961D02*
X127113762Y-137290911D01*
X127113762Y-137290911D02*
X127154691Y-137262680D01*
X127154691Y-137262680D02*
X127169333Y-137223579D01*
X127169333Y-137223579D02*
X127154869Y-137182984D01*
X127154869Y-137182984D02*
X127120803Y-137137963D01*
X127120803Y-137137963D02*
X127081122Y-137104499D01*
X127081122Y-137104499D02*
X127058117Y-137096500D01*
X127058117Y-137096500D02*
X127010832Y-137111034D01*
X127010832Y-137111034D02*
X126971481Y-137144854D01*
X126971481Y-137144854D02*
X126957666Y-137178630D01*
X126957666Y-137178630D02*
X126744704Y-137178630D01*
X126744704Y-137178630D02*
X126734347Y-137163967D01*
X126734347Y-137163967D02*
X126715152Y-137104005D01*
X126715152Y-137104005D02*
X126719623Y-137043849D01*
X126719623Y-137043849D02*
X126733835Y-137001770D01*
X126733835Y-137001770D02*
X126770384Y-136939826D01*
X126770384Y-136939826D02*
X126822384Y-136903052D01*
X126822384Y-136903052D02*
X126898364Y-136887667D01*
X126898364Y-136887667D02*
X126989064Y-136888639D01*
X126989064Y-136888639D02*
X127122815Y-136912700D01*
X127122815Y-136912700D02*
X127265638Y-136969409D01*
X127265638Y-136969409D02*
X127420952Y-137060455D01*
X127420952Y-137060455D02*
X127589348Y-137185246D01*
X127589348Y-137185246D02*
X127699615Y-137271622D01*
X127699615Y-137271622D02*
X127788308Y-137334013D01*
X127788308Y-137334013D02*
X127864698Y-137377425D01*
X127864698Y-137377425D02*
X127938060Y-137406865D01*
X127938060Y-137406865D02*
X128017666Y-137427339D01*
X128017666Y-137427339D02*
X128048900Y-137433345D01*
X128048900Y-137433345D02*
X128225490Y-137444491D01*
X128225490Y-137444491D02*
X128396805Y-137414512D01*
X128396805Y-137414512D02*
X128558873Y-137344601D01*
X128558873Y-137344601D02*
X128707577Y-137236075D01*
X128707577Y-137236075D02*
X128806326Y-137146672D01*
X128806326Y-137146672D02*
X128675466Y-137097733D01*
X128675466Y-137097733D02*
X128568864Y-137051666D01*
X128568864Y-137051666D02*
X128441367Y-136986969D01*
X128441367Y-136986969D02*
X128305674Y-136910775D01*
X128305674Y-136910775D02*
X128174484Y-136830213D01*
X128174484Y-136830213D02*
X128166879Y-136825022D01*
X128166879Y-136825022D02*
X133498166Y-136825022D01*
X133498166Y-136825022D02*
X133515409Y-136854217D01*
X133515409Y-136854217D02*
X133561235Y-136863791D01*
X133561235Y-136863791D02*
X133626792Y-136853888D01*
X133626792Y-136853888D02*
X133703224Y-136824650D01*
X133703224Y-136824650D02*
X133709277Y-136821616D01*
X133709277Y-136821616D02*
X133777262Y-136778330D01*
X133777262Y-136778330D02*
X133825945Y-136731032D01*
X133825945Y-136731032D02*
X133851970Y-136686454D01*
X133851970Y-136686454D02*
X133851979Y-136651330D01*
X133851979Y-136651330D02*
X133822616Y-136632392D01*
X133822616Y-136632392D02*
X133804403Y-136630833D01*
X133804403Y-136630833D02*
X133728326Y-136642826D01*
X133728326Y-136642826D02*
X133649006Y-136674276D01*
X133649006Y-136674276D02*
X133577158Y-136718388D01*
X133577158Y-136718388D02*
X133523494Y-136768369D01*
X133523494Y-136768369D02*
X133498731Y-136817424D01*
X133498731Y-136817424D02*
X133498166Y-136825022D01*
X133498166Y-136825022D02*
X128166879Y-136825022D01*
X128166879Y-136825022D02*
X128060496Y-136752415D01*
X128060496Y-136752415D02*
X128060470Y-136752395D01*
X128060470Y-136752395D02*
X127787349Y-136527883D01*
X127787349Y-136527883D02*
X127584085Y-136317576D01*
X127584085Y-136317576D02*
X127908044Y-136317576D01*
X127908044Y-136317576D02*
X127916119Y-136369895D01*
X127916119Y-136369895D02*
X127947781Y-136432115D01*
X127947781Y-136432115D02*
X127998349Y-136495896D01*
X127998349Y-136495896D02*
X128063141Y-136552898D01*
X128063141Y-136552898D02*
X128089181Y-136570234D01*
X128089181Y-136570234D02*
X128152306Y-136602427D01*
X128152306Y-136602427D02*
X128189625Y-136604239D01*
X128189625Y-136604239D02*
X128205328Y-136575160D01*
X128205328Y-136575160D02*
X128206500Y-136556005D01*
X128206500Y-136556005D02*
X128194787Y-136498801D01*
X128194787Y-136498801D02*
X128170062Y-136446732D01*
X128170062Y-136446732D02*
X128134351Y-136406405D01*
X128134351Y-136406405D02*
X128081688Y-136362188D01*
X128081688Y-136362188D02*
X128023283Y-136321652D01*
X128023283Y-136321652D02*
X127970349Y-136292363D01*
X127970349Y-136292363D02*
X127934099Y-136281890D01*
X127934099Y-136281890D02*
X127928237Y-136283496D01*
X127928237Y-136283496D02*
X127908044Y-136317576D01*
X127908044Y-136317576D02*
X127584085Y-136317576D01*
X127584085Y-136317576D02*
X127546511Y-136278701D01*
X127546511Y-136278701D02*
X127339515Y-136007324D01*
X127339515Y-136007324D02*
X127180101Y-135736885D01*
X127180101Y-135736885D02*
X127418706Y-135736885D01*
X127418706Y-135736885D02*
X127432036Y-135807592D01*
X127432036Y-135807592D02*
X127463447Y-135883263D01*
X127463447Y-135883263D02*
X127510669Y-135954139D01*
X127510669Y-135954139D02*
X127531593Y-135977093D01*
X127531593Y-135977093D02*
X127582693Y-136009536D01*
X127582693Y-136009536D02*
X127627246Y-136003605D01*
X127627246Y-136003605D02*
X127656778Y-135963142D01*
X127656778Y-135963142D02*
X127660961Y-135906685D01*
X127660961Y-135906685D02*
X127642670Y-135838696D01*
X127642670Y-135838696D02*
X127608173Y-135768937D01*
X127608173Y-135768937D02*
X127563735Y-135707169D01*
X127563735Y-135707169D02*
X127515624Y-135663154D01*
X127515624Y-135663154D02*
X127470106Y-135646653D01*
X127470106Y-135646653D02*
X127455369Y-135649402D01*
X127455369Y-135649402D02*
X127425727Y-135680902D01*
X127425727Y-135680902D02*
X127418706Y-135736885D01*
X127418706Y-135736885D02*
X127180101Y-135736885D01*
X127180101Y-135736885D02*
X127167922Y-135716225D01*
X127167922Y-135716225D02*
X127033292Y-135407878D01*
X127033292Y-135407878D02*
X126938713Y-135089896D01*
X126938713Y-135089896D02*
X127116675Y-135089896D01*
X127116675Y-135089896D02*
X127132633Y-135167307D01*
X127132633Y-135167307D02*
X127167181Y-135246140D01*
X127167181Y-135246140D02*
X127172061Y-135254397D01*
X127172061Y-135254397D02*
X127202497Y-135297227D01*
X127202497Y-135297227D02*
X127225883Y-135307045D01*
X127225883Y-135307045D02*
X127244257Y-135296635D01*
X127244257Y-135296635D02*
X127265694Y-135258855D01*
X127265694Y-135258855D02*
X127275144Y-135202640D01*
X127275144Y-135202640D02*
X127275166Y-135199919D01*
X127275166Y-135199919D02*
X127267608Y-135134307D01*
X127267608Y-135134307D02*
X127248282Y-135065167D01*
X127248282Y-135065167D02*
X127222209Y-135005011D01*
X127222209Y-135005011D02*
X127194408Y-134966352D01*
X127194408Y-134966352D02*
X127178363Y-134958666D01*
X127178363Y-134958666D02*
X127139736Y-134976330D01*
X127139736Y-134976330D02*
X127119108Y-135023155D01*
X127119108Y-135023155D02*
X127116675Y-135089896D01*
X127116675Y-135089896D02*
X126938713Y-135089896D01*
X126938713Y-135089896D02*
X126937184Y-135084757D01*
X126937184Y-135084757D02*
X126904065Y-134918443D01*
X126904065Y-134918443D02*
X126881529Y-134717841D01*
X126881529Y-134717841D02*
X126874603Y-134487959D01*
X126874603Y-134487959D02*
X126875655Y-134455511D01*
X126875655Y-134455511D02*
X127021998Y-134455511D01*
X127021998Y-134455511D02*
X127025480Y-134525784D01*
X127025480Y-134525784D02*
X127041008Y-134589049D01*
X127041008Y-134589049D02*
X127056257Y-134618346D01*
X127056257Y-134618346D02*
X127082744Y-134651775D01*
X127082744Y-134651775D02*
X127100808Y-134652249D01*
X127100808Y-134652249D02*
X127119757Y-134629593D01*
X127119757Y-134629593D02*
X127137599Y-134584520D01*
X127137599Y-134584520D02*
X127147472Y-134519414D01*
X127147472Y-134519414D02*
X127148166Y-134498146D01*
X127148166Y-134498146D02*
X127140028Y-134411739D01*
X127140028Y-134411739D02*
X127117552Y-134351515D01*
X127117552Y-134351515D02*
X127083641Y-134324475D01*
X127083641Y-134324475D02*
X127075807Y-134323666D01*
X127075807Y-134323666D02*
X127047964Y-134342350D01*
X127047964Y-134342350D02*
X127029760Y-134390332D01*
X127029760Y-134390332D02*
X127021998Y-134455511D01*
X127021998Y-134455511D02*
X126875655Y-134455511D01*
X126875655Y-134455511D02*
X126882690Y-134238622D01*
X126882690Y-134238622D02*
X126905193Y-133979656D01*
X126905193Y-133979656D02*
X126918454Y-133885171D01*
X126918454Y-133885171D02*
X127084666Y-133885171D01*
X127084666Y-133885171D02*
X127092464Y-133952893D01*
X127092464Y-133952893D02*
X127113607Y-133983908D01*
X127113607Y-133983908D02*
X127144721Y-133976303D01*
X127144721Y-133976303D02*
X127176910Y-133937375D01*
X127176910Y-133937375D02*
X127207516Y-133869682D01*
X127207516Y-133869682D02*
X127220698Y-133800217D01*
X127220698Y-133800217D02*
X127216795Y-133739834D01*
X127216795Y-133739834D02*
X127196148Y-133699390D01*
X127196148Y-133699390D02*
X127169132Y-133688666D01*
X127169132Y-133688666D02*
X127143076Y-133707291D01*
X127143076Y-133707291D02*
X127116410Y-133754010D01*
X127116410Y-133754010D02*
X127095037Y-133815085D01*
X127095037Y-133815085D02*
X127084862Y-133876782D01*
X127084862Y-133876782D02*
X127084666Y-133885171D01*
X127084666Y-133885171D02*
X126918454Y-133885171D01*
X126918454Y-133885171D02*
X126941512Y-133720888D01*
X126941512Y-133720888D02*
X126991052Y-133472143D01*
X126991052Y-133472143D02*
X126992389Y-133466416D01*
X126992389Y-133466416D02*
X127023636Y-133350377D01*
X127023636Y-133350377D02*
X127223641Y-133350377D01*
X127223641Y-133350377D02*
X127226549Y-133391755D01*
X127226549Y-133391755D02*
X127246465Y-133425102D01*
X127246465Y-133425102D02*
X127275266Y-133419576D01*
X127275266Y-133419576D02*
X127308257Y-133376402D01*
X127308257Y-133376402D02*
X127311896Y-133369495D01*
X127311896Y-133369495D02*
X127327731Y-133321564D01*
X127327731Y-133321564D02*
X127336417Y-133262604D01*
X127336417Y-133262604D02*
X127337399Y-133206823D01*
X127337399Y-133206823D02*
X127330124Y-133168428D01*
X127330124Y-133168428D02*
X127320091Y-133159500D01*
X127320091Y-133159500D02*
X127288976Y-133178267D01*
X127288976Y-133178267D02*
X127258858Y-133225451D01*
X127258858Y-133225451D02*
X127235244Y-133287380D01*
X127235244Y-133287380D02*
X127223641Y-133350377D01*
X127223641Y-133350377D02*
X127023636Y-133350377D01*
X127023636Y-133350377D02*
X127024516Y-133347111D01*
X127024516Y-133347111D02*
X127067476Y-133220437D01*
X127067476Y-133220437D02*
X127124032Y-133079609D01*
X127124032Y-133079609D02*
X127196948Y-132917844D01*
X127196948Y-132917844D02*
X127288985Y-132728358D01*
X127288985Y-132728358D02*
X127310368Y-132685667D01*
X127310368Y-132685667D02*
X127397294Y-132505737D01*
X127397294Y-132505737D02*
X127461780Y-132354337D01*
X127461780Y-132354337D02*
X127478078Y-132306295D01*
X127478078Y-132306295D02*
X127635000Y-132306295D01*
X127635000Y-132306295D02*
X127644447Y-132340079D01*
X127644447Y-132340079D02*
X127667705Y-132340780D01*
X127667705Y-132340780D02*
X127697149Y-132311820D01*
X127697149Y-132311820D02*
X127720784Y-132267801D01*
X127720784Y-132267801D02*
X127735388Y-132210688D01*
X127735388Y-132210688D02*
X127725171Y-132182871D01*
X127725171Y-132182871D02*
X127699912Y-132180661D01*
X127699912Y-132180661D02*
X127670859Y-132207441D01*
X127670859Y-132207441D02*
X127646441Y-132251669D01*
X127646441Y-132251669D02*
X127635092Y-132301808D01*
X127635092Y-132301808D02*
X127635000Y-132306295D01*
X127635000Y-132306295D02*
X127478078Y-132306295D01*
X127478078Y-132306295D02*
X127505573Y-132225255D01*
X127505573Y-132225255D02*
X127530426Y-132112281D01*
X127530426Y-132112281D02*
X127538086Y-132009202D01*
X127538086Y-132009202D02*
X127530303Y-131909809D01*
X127530303Y-131909809D02*
X127529818Y-131906612D01*
X127529818Y-131906612D02*
X127521261Y-131843076D01*
X127521261Y-131843076D02*
X127637233Y-131843076D01*
X127637233Y-131843076D02*
X127652617Y-131911547D01*
X127652617Y-131911547D02*
X127655642Y-131919872D01*
X127655642Y-131919872D02*
X127685908Y-131960942D01*
X127685908Y-131960942D02*
X127725591Y-131973584D01*
X127725591Y-131973584D02*
X127760391Y-131955977D01*
X127760391Y-131955977D02*
X127771696Y-131934629D01*
X127771696Y-131934629D02*
X127773967Y-131883044D01*
X127773967Y-131883044D02*
X127756440Y-131827564D01*
X127756440Y-131827564D02*
X127726245Y-131779594D01*
X127726245Y-131779594D02*
X127690513Y-131750538D01*
X127690513Y-131750538D02*
X127657093Y-131751343D01*
X127657093Y-131751343D02*
X127638767Y-131784906D01*
X127638767Y-131784906D02*
X127637233Y-131843076D01*
X127637233Y-131843076D02*
X127521261Y-131843076D01*
X127521261Y-131843076D02*
X127513168Y-131782989D01*
X127513168Y-131782989D02*
X127507716Y-131692996D01*
X127507716Y-131692996D02*
X127514166Y-131629247D01*
X127514166Y-131629247D02*
X127533225Y-131584360D01*
X127533225Y-131584360D02*
X127563679Y-131552441D01*
X127563679Y-131552441D02*
X127664469Y-131496820D01*
X127664469Y-131496820D02*
X127773832Y-131476781D01*
X127773832Y-131476781D02*
X127881278Y-131493082D01*
X127881278Y-131493082D02*
X127947019Y-131524742D01*
X127947019Y-131524742D02*
X127989708Y-131569097D01*
X127989708Y-131569097D02*
X128036334Y-131644722D01*
X128036334Y-131644722D02*
X128082122Y-131741461D01*
X128082122Y-131741461D02*
X128122296Y-131849158D01*
X128122296Y-131849158D02*
X128152080Y-131957655D01*
X128152080Y-131957655D02*
X128153352Y-131963583D01*
X128153352Y-131963583D02*
X128175043Y-132095596D01*
X128175043Y-132095596D02*
X128183852Y-132231044D01*
X128183852Y-132231044D02*
X128179109Y-132376061D01*
X128179109Y-132376061D02*
X128160142Y-132536778D01*
X128160142Y-132536778D02*
X128126280Y-132719328D01*
X128126280Y-132719328D02*
X128076853Y-132929842D01*
X128076853Y-132929842D02*
X128027127Y-133117166D01*
X128027127Y-133117166D02*
X127977297Y-133304206D01*
X127977297Y-133304206D02*
X127939857Y-133462303D01*
X127939857Y-133462303D02*
X127913195Y-133602467D01*
X127913195Y-133602467D02*
X127895700Y-133735707D01*
X127895700Y-133735707D02*
X127885760Y-133873030D01*
X127885760Y-133873030D02*
X127881763Y-134025447D01*
X127881763Y-134025447D02*
X127881493Y-134112000D01*
X127881493Y-134112000D02*
X127883975Y-134279647D01*
X127883975Y-134279647D02*
X127892073Y-134417781D01*
X127892073Y-134417781D02*
X127908113Y-134539091D01*
X127908113Y-134539091D02*
X127934419Y-134656267D01*
X127934419Y-134656267D02*
X127973313Y-134782000D01*
X127973313Y-134782000D02*
X128027121Y-134928981D01*
X128027121Y-134928981D02*
X128034723Y-134948735D01*
X128034723Y-134948735D02*
X128131405Y-135166468D01*
X128131405Y-135166468D02*
X128245651Y-135358342D01*
X128245651Y-135358342D02*
X128386272Y-135537786D01*
X128386272Y-135537786D02*
X128500367Y-135658478D01*
X128500367Y-135658478D02*
X128606421Y-135759995D01*
X128606421Y-135759995D02*
X128696042Y-135835899D01*
X128696042Y-135835899D02*
X128779014Y-135893816D01*
X128779014Y-135893816D02*
X128860218Y-135938936D01*
X128860218Y-135938936D02*
X128975265Y-135990455D01*
X128975265Y-135990455D02*
X129059015Y-136014522D01*
X129059015Y-136014522D02*
X129111160Y-136011066D01*
X129111160Y-136011066D02*
X129125711Y-135998323D01*
X129125711Y-135998323D02*
X129118821Y-135974938D01*
X129118821Y-135974938D02*
X129092111Y-135923112D01*
X129092111Y-135923112D02*
X129090612Y-135920530D01*
X129090612Y-135920530D02*
X129578722Y-135920530D01*
X129578722Y-135920530D02*
X129592492Y-136071990D01*
X129592492Y-136071990D02*
X129633399Y-136199870D01*
X129633399Y-136199870D02*
X129727306Y-136353852D01*
X129727306Y-136353852D02*
X129850697Y-136478049D01*
X129850697Y-136478049D02*
X130000949Y-136570266D01*
X130000949Y-136570266D02*
X130133179Y-136618067D01*
X130133179Y-136618067D02*
X130244585Y-136638508D01*
X130244585Y-136638508D02*
X130377874Y-136648673D01*
X130377874Y-136648673D02*
X130517192Y-136648558D01*
X130517192Y-136648558D02*
X130646686Y-136638159D01*
X130646686Y-136638159D02*
X130747949Y-136618231D01*
X130747949Y-136618231D02*
X130926315Y-136548269D01*
X130926315Y-136548269D02*
X131086588Y-136450748D01*
X131086588Y-136450748D02*
X131183322Y-136365222D01*
X131183322Y-136365222D02*
X134154333Y-136365222D01*
X134154333Y-136365222D02*
X134166868Y-136414248D01*
X134166868Y-136414248D02*
X134201083Y-136431315D01*
X134201083Y-136431315D02*
X134251894Y-136417263D01*
X134251894Y-136417263D02*
X134314217Y-136372932D01*
X134314217Y-136372932D02*
X134355112Y-136332049D01*
X134355112Y-136332049D02*
X134404565Y-136264253D01*
X134404565Y-136264253D02*
X134427275Y-136204813D01*
X134427275Y-136204813D02*
X134424002Y-136160198D01*
X134424002Y-136160198D02*
X134395505Y-136136876D01*
X134395505Y-136136876D02*
X134342545Y-136141316D01*
X134342545Y-136141316D02*
X134333092Y-136144569D01*
X134333092Y-136144569D02*
X134283294Y-136176274D01*
X134283294Y-136176274D02*
X134230193Y-136229321D01*
X134230193Y-136229321D02*
X134184668Y-136290284D01*
X134184668Y-136290284D02*
X134157596Y-136345736D01*
X134157596Y-136345736D02*
X134154333Y-136365222D01*
X134154333Y-136365222D02*
X131183322Y-136365222D01*
X131183322Y-136365222D02*
X131221948Y-136331072D01*
X131221948Y-136331072D02*
X131325576Y-136194645D01*
X131325576Y-136194645D02*
X131357184Y-136135386D01*
X131357184Y-136135386D02*
X131384207Y-136053512D01*
X131384207Y-136053512D02*
X131398782Y-135956308D01*
X131398782Y-135956308D02*
X131401837Y-135853528D01*
X131401837Y-135853528D02*
X134685289Y-135853528D01*
X134685289Y-135853528D02*
X134694218Y-135890218D01*
X134694218Y-135890218D02*
X134717216Y-135894678D01*
X134717216Y-135894678D02*
X134754463Y-135871523D01*
X134754463Y-135871523D02*
X134797040Y-135828570D01*
X134797040Y-135828570D02*
X134836025Y-135773633D01*
X134836025Y-135773633D02*
X134844261Y-135758759D01*
X134844261Y-135758759D02*
X134872027Y-135687098D01*
X134872027Y-135687098D02*
X134874321Y-135636137D01*
X134874321Y-135636137D02*
X134854976Y-135611005D01*
X134854976Y-135611005D02*
X134817825Y-135616832D01*
X134817825Y-135616832D02*
X134768255Y-135657071D01*
X134768255Y-135657071D02*
X134724331Y-135719227D01*
X134724331Y-135719227D02*
X134695148Y-135789524D01*
X134695148Y-135789524D02*
X134685289Y-135853528D01*
X134685289Y-135853528D02*
X131401837Y-135853528D01*
X131401837Y-135853528D02*
X131401878Y-135852149D01*
X131401878Y-135852149D02*
X131394464Y-135749409D01*
X131394464Y-135749409D02*
X131377507Y-135656464D01*
X131377507Y-135656464D02*
X131351978Y-135581688D01*
X131351978Y-135581688D02*
X131318843Y-135533457D01*
X131318843Y-135533457D02*
X131285961Y-135519583D01*
X131285961Y-135519583D02*
X131248572Y-135537800D01*
X131248572Y-135537800D02*
X131209608Y-135594380D01*
X131209608Y-135594380D02*
X131198271Y-135617049D01*
X131198271Y-135617049D02*
X131163946Y-135672987D01*
X131163946Y-135672987D02*
X131114112Y-135735459D01*
X131114112Y-135735459D02*
X131057980Y-135794960D01*
X131057980Y-135794960D02*
X131004759Y-135841982D01*
X131004759Y-135841982D02*
X130963661Y-135867017D01*
X130963661Y-135867017D02*
X130954356Y-135868833D01*
X130954356Y-135868833D02*
X130939037Y-135851588D01*
X130939037Y-135851588D02*
X130937000Y-135836379D01*
X130937000Y-135836379D02*
X130923880Y-135783125D01*
X130923880Y-135783125D02*
X130888731Y-135709024D01*
X130888731Y-135709024D02*
X130837863Y-135624676D01*
X130837863Y-135624676D02*
X130777588Y-135540679D01*
X130777588Y-135540679D02*
X130722597Y-135476336D01*
X130722597Y-135476336D02*
X130598924Y-135371996D01*
X130598924Y-135371996D02*
X130454030Y-135293107D01*
X130454030Y-135293107D02*
X130301588Y-135246683D01*
X130301588Y-135246683D02*
X130263775Y-135240957D01*
X130263775Y-135240957D02*
X130122313Y-135244686D01*
X130122313Y-135244686D02*
X129984097Y-135286501D01*
X129984097Y-135286501D02*
X129855775Y-135362289D01*
X129855775Y-135362289D02*
X129743999Y-135467941D01*
X129743999Y-135467941D02*
X129655417Y-135599344D01*
X129655417Y-135599344D02*
X129642672Y-135624943D01*
X129642672Y-135624943D02*
X129595523Y-135766925D01*
X129595523Y-135766925D02*
X129578722Y-135920530D01*
X129578722Y-135920530D02*
X129090612Y-135920530D01*
X129090612Y-135920530D02*
X129049376Y-135849538D01*
X129049376Y-135849538D02*
X128994411Y-135760911D01*
X128994411Y-135760911D02*
X128967018Y-135718392D01*
X128967018Y-135718392D02*
X128868394Y-135563199D01*
X128868394Y-135563199D02*
X128791420Y-135431949D01*
X128791420Y-135431949D02*
X128731574Y-135315307D01*
X128731574Y-135315307D02*
X128684338Y-135203940D01*
X128684338Y-135203940D02*
X128645192Y-135088513D01*
X128645192Y-135088513D02*
X128621233Y-135004232D01*
X128621233Y-135004232D02*
X128553707Y-134670664D01*
X128553707Y-134670664D02*
X128535847Y-134444555D01*
X128535847Y-134444555D02*
X129608223Y-134444555D01*
X129608223Y-134444555D02*
X129628720Y-134567490D01*
X129628720Y-134567490D02*
X129682084Y-134678382D01*
X129682084Y-134678382D02*
X129703548Y-134706509D01*
X129703548Y-134706509D02*
X129792963Y-134784967D01*
X129792963Y-134784967D02*
X129893248Y-134823760D01*
X129893248Y-134823760D02*
X129999830Y-134822002D01*
X129999830Y-134822002D02*
X130100167Y-134783440D01*
X130100167Y-134783440D02*
X130194073Y-134707399D01*
X130194073Y-134707399D02*
X130262699Y-134605578D01*
X130262699Y-134605578D02*
X130275727Y-134568622D01*
X130275727Y-134568622D02*
X131326987Y-134568622D01*
X131326987Y-134568622D02*
X131338335Y-134693516D01*
X131338335Y-134693516D02*
X131380940Y-134811471D01*
X131380940Y-134811471D02*
X131454050Y-134914609D01*
X131454050Y-134914609D02*
X131556911Y-134995054D01*
X131556911Y-134995054D02*
X131561416Y-134997569D01*
X131561416Y-134997569D02*
X131635185Y-135018643D01*
X131635185Y-135018643D02*
X131722821Y-135016355D01*
X131722821Y-135016355D02*
X131802742Y-134991497D01*
X131802742Y-134991497D02*
X131904135Y-134916655D01*
X131904135Y-134916655D02*
X131978005Y-134815704D01*
X131978005Y-134815704D02*
X132021978Y-134696584D01*
X132021978Y-134696584D02*
X132033684Y-134567239D01*
X132033684Y-134567239D02*
X132010752Y-134435608D01*
X132010752Y-134435608D02*
X131986992Y-134374477D01*
X131986992Y-134374477D02*
X131919886Y-134269606D01*
X131919886Y-134269606D02*
X131835121Y-134197509D01*
X131835121Y-134197509D02*
X131738980Y-134159992D01*
X131738980Y-134159992D02*
X131637750Y-134158862D01*
X131637750Y-134158862D02*
X131537714Y-134195924D01*
X131537714Y-134195924D02*
X131488036Y-134231073D01*
X131488036Y-134231073D02*
X131401084Y-134329524D01*
X131401084Y-134329524D02*
X131347652Y-134444666D01*
X131347652Y-134444666D02*
X131326987Y-134568622D01*
X131326987Y-134568622D02*
X130275727Y-134568622D01*
X130275727Y-134568622D02*
X130304389Y-134487322D01*
X130304389Y-134487322D02*
X130317491Y-134361976D01*
X130317491Y-134361976D02*
X130300352Y-134238885D01*
X130300352Y-134238885D02*
X130251317Y-134127396D01*
X130251317Y-134127396D02*
X130223056Y-134088917D01*
X130223056Y-134088917D02*
X130133727Y-134009987D01*
X130133727Y-134009987D02*
X130034568Y-133971707D01*
X130034568Y-133971707D02*
X129928744Y-133974642D01*
X129928744Y-133974642D02*
X129822880Y-134017312D01*
X129822880Y-134017312D02*
X129727921Y-134095956D01*
X129727921Y-134095956D02*
X129659425Y-134199542D01*
X129659425Y-134199542D02*
X129618992Y-134318824D01*
X129618992Y-134318824D02*
X129608223Y-134444555D01*
X129608223Y-134444555D02*
X128535847Y-134444555D01*
X128535847Y-134444555D02*
X128526671Y-134328404D01*
X128526671Y-134328404D02*
X128539801Y-133980007D01*
X128539801Y-133980007D02*
X128592775Y-133628027D01*
X128592775Y-133628027D02*
X128685270Y-133275019D01*
X128685270Y-133275019D02*
X128816963Y-132923539D01*
X128816963Y-132923539D02*
X128909074Y-132725598D01*
X128909074Y-132725598D02*
X129056740Y-132464537D01*
X129056740Y-132464537D02*
X129227363Y-132231156D01*
X129227363Y-132231156D02*
X129430025Y-132013142D01*
X129430025Y-132013142D02*
X129445561Y-131998219D01*
X129445561Y-131998219D02*
X129697226Y-131783203D01*
X129697226Y-131783203D02*
X129959007Y-131608471D01*
X129959007Y-131608471D02*
X130230139Y-131474472D01*
X130230139Y-131474472D02*
X130486823Y-131387648D01*
X130486823Y-131387648D02*
X130572108Y-131366202D01*
X130572108Y-131366202D02*
X130647961Y-131351022D01*
X130647961Y-131351022D02*
X130725116Y-131341021D01*
X130725116Y-131341021D02*
X130814308Y-131335110D01*
X130814308Y-131335110D02*
X130926269Y-131332201D01*
X130926269Y-131332201D02*
X131042833Y-131331292D01*
X131042833Y-131331292D02*
X131365340Y-131344161D01*
X131365340Y-131344161D02*
X131365340Y-131344161D01*
G36*
X132881358Y-138268328D02*
G01*
X132871007Y-138257949D01*
X134555880Y-138257949D01*
X134565113Y-138303349D01*
X134570611Y-138310055D01*
X134611323Y-138323618D01*
X134673431Y-138313884D01*
X134726256Y-138292197D01*
X134787937Y-138246463D01*
X134820024Y-138192678D01*
X134818742Y-138145783D01*
X134788721Y-138119956D01*
X134735388Y-138113221D01*
X134672843Y-138124854D01*
X134615184Y-138154132D01*
X134612271Y-138156369D01*
X134573044Y-138203627D01*
X134555880Y-138257949D01*
X132871007Y-138257949D01*
X132741264Y-138127859D01*
X132676510Y-138044003D01*
X132612746Y-137968260D01*
X132551428Y-137926371D01*
X132497071Y-137919540D01*
X132454190Y-137948973D01*
X132437458Y-137980208D01*
X132426846Y-138059873D01*
X132444611Y-138167077D01*
X132489982Y-138298656D01*
X132543623Y-138415348D01*
X132647724Y-138598534D01*
X132758398Y-138743376D01*
X132880159Y-138853814D01*
X133017517Y-138933787D01*
X133174985Y-138987235D01*
X133207121Y-138994624D01*
X133326826Y-139025899D01*
X133409119Y-139062000D01*
X133458909Y-139106624D01*
X133481102Y-139163468D01*
X133483286Y-139202710D01*
X133463123Y-139293446D01*
X133406201Y-139375222D01*
X133316317Y-139447880D01*
X133180687Y-139519391D01*
X133032425Y-139566385D01*
X132884050Y-139586202D01*
X132748085Y-139576182D01*
X132730788Y-139572256D01*
X132608283Y-139528428D01*
X132468419Y-139453072D01*
X132308299Y-139344583D01*
X132273842Y-139318958D01*
X132234644Y-139287983D01*
X132492429Y-139287983D01*
X132494792Y-139300334D01*
X132529202Y-139325248D01*
X132545666Y-139335813D01*
X132612240Y-139369557D01*
X132658107Y-139374551D01*
X132659414Y-139373023D01*
X132875393Y-139373023D01*
X132892895Y-139401230D01*
X132939972Y-139420123D01*
X132989477Y-139424833D01*
X133069581Y-139409312D01*
X133107752Y-139381207D01*
X133133150Y-139347259D01*
X133128515Y-139326407D01*
X133116325Y-139316839D01*
X133070803Y-139304800D01*
X133005441Y-139306344D01*
X132939712Y-139319349D01*
X132893825Y-139341072D01*
X132875393Y-139373023D01*
X132659414Y-139373023D01*
X132678481Y-139350750D01*
X132663900Y-139326133D01*
X132622652Y-139301886D01*
X132569941Y-139284621D01*
X132520970Y-139280946D01*
X132518688Y-139281270D01*
X132492429Y-139287983D01*
X132234644Y-139287983D01*
X132183234Y-139247358D01*
X132102890Y-139175274D01*
X132026471Y-139095579D01*
X131947636Y-139001144D01*
X131860045Y-138884843D01*
X131757358Y-138739545D01*
X131753408Y-138733841D01*
X131629630Y-138562502D01*
X131519777Y-138427965D01*
X131420796Y-138328251D01*
X131329635Y-138261382D01*
X131243243Y-138225378D01*
X131158567Y-138218262D01*
X131072555Y-138238055D01*
X131022672Y-138260153D01*
X130982422Y-138287450D01*
X130918025Y-138339164D01*
X130835545Y-138410060D01*
X130741048Y-138494902D01*
X130640598Y-138588454D01*
X130623207Y-138604999D01*
X130387597Y-138820906D01*
X130166620Y-139003906D01*
X129954387Y-139158117D01*
X129745007Y-139287656D01*
X129532587Y-139396640D01*
X129419610Y-139446291D01*
X129265534Y-139496482D01*
X129106397Y-139523425D01*
X128948925Y-139528141D01*
X128799847Y-139511647D01*
X128665890Y-139474964D01*
X128553782Y-139419111D01*
X128495930Y-139367856D01*
X128994838Y-139367856D01*
X129007510Y-139386666D01*
X129046874Y-139400315D01*
X129086165Y-139403666D01*
X129134663Y-139400828D01*
X129158495Y-139393865D01*
X129159000Y-139392559D01*
X129141013Y-139375697D01*
X129099175Y-139359282D01*
X129051670Y-139348775D01*
X129016682Y-139349639D01*
X129016424Y-139349736D01*
X128994838Y-139367856D01*
X128495930Y-139367856D01*
X128470252Y-139345107D01*
X128439297Y-139297763D01*
X128408937Y-139210927D01*
X128408241Y-139205460D01*
X128615217Y-139205460D01*
X128615677Y-139254880D01*
X128646877Y-139301059D01*
X128697363Y-139337268D01*
X128755687Y-139356779D01*
X128810396Y-139352864D01*
X128837266Y-139335933D01*
X128860920Y-139292573D01*
X128845023Y-139245653D01*
X128816342Y-139213991D01*
X128765000Y-139183643D01*
X128704689Y-139171049D01*
X128650352Y-139176841D01*
X128616931Y-139201654D01*
X128615217Y-139205460D01*
X128408241Y-139205460D01*
X128396637Y-139114421D01*
X128402505Y-139022823D01*
X128426649Y-138950710D01*
X128436633Y-138936078D01*
X128458925Y-138913552D01*
X128488376Y-138898223D01*
X128534037Y-138887953D01*
X128604962Y-138880603D01*
X128695925Y-138874826D01*
X128818486Y-138865157D01*
X128909811Y-138850676D01*
X128980908Y-138829332D01*
X129010833Y-138816169D01*
X129077538Y-138775663D01*
X129163645Y-138711999D01*
X129259942Y-138633217D01*
X129357221Y-138547361D01*
X129446270Y-138462472D01*
X129517880Y-138386591D01*
X129552868Y-138342901D01*
X129616990Y-138234775D01*
X129652477Y-138135374D01*
X129659759Y-138049546D01*
X129639262Y-137982142D01*
X129591413Y-137938011D01*
X129516642Y-137922001D01*
X129515753Y-137922000D01*
X129480733Y-137930811D01*
X129415429Y-137955136D01*
X129327548Y-137991815D01*
X129224795Y-138037684D01*
X129159819Y-138068015D01*
X128988195Y-138147381D01*
X128845839Y-138207892D01*
X128725333Y-138251815D01*
X128619259Y-138281417D01*
X128520199Y-138298966D01*
X128420733Y-138306728D01*
X128375833Y-138307623D01*
X128241027Y-138302854D01*
X128119942Y-138284813D01*
X128006358Y-138250302D01*
X127894056Y-138196123D01*
X127776817Y-138119078D01*
X127729205Y-138080843D01*
X128082631Y-138080843D01*
X128091528Y-138102236D01*
X128140778Y-138126415D01*
X128143000Y-138127180D01*
X128225250Y-138148654D01*
X128287588Y-138151906D01*
X128321159Y-138136497D01*
X128321434Y-138136064D01*
X128319181Y-138107882D01*
X128306841Y-138098903D01*
X128532438Y-138098903D01*
X128546351Y-138113232D01*
X128600574Y-138123114D01*
X128686818Y-138105664D01*
X128740958Y-138087044D01*
X128788120Y-138059720D01*
X128799566Y-138031897D01*
X128781542Y-138008665D01*
X128740295Y-137995115D01*
X128682071Y-137996338D01*
X128641777Y-138006217D01*
X128575693Y-138035636D01*
X128537579Y-138068401D01*
X128532438Y-138098903D01*
X128306841Y-138098903D01*
X128284428Y-138082596D01*
X128226952Y-138065346D01*
X128178256Y-138060801D01*
X128112177Y-138065833D01*
X128082631Y-138080843D01*
X127729205Y-138080843D01*
X127648420Y-138015969D01*
X127518304Y-137897816D01*
X128957782Y-137897816D01*
X128962139Y-137914788D01*
X128991344Y-137937401D01*
X129046456Y-137941083D01*
X129116043Y-137926842D01*
X129188668Y-137895690D01*
X129190570Y-137894620D01*
X129254641Y-137848394D01*
X129280825Y-137808138D01*
X129273527Y-137777942D01*
X129237153Y-137761900D01*
X129176106Y-137764101D01*
X129094793Y-137788640D01*
X129082246Y-137794000D01*
X129006891Y-137831740D01*
X128967198Y-137864540D01*
X128957782Y-137897816D01*
X127518304Y-137897816D01*
X127502647Y-137883599D01*
X127446266Y-137829664D01*
X127338872Y-137727709D01*
X127225459Y-137623176D01*
X127115778Y-137524845D01*
X127019580Y-137441497D01*
X126965856Y-137397066D01*
X126938142Y-137373747D01*
X127276409Y-137373747D01*
X127285577Y-137422416D01*
X127310906Y-137460741D01*
X127354328Y-137489888D01*
X127395156Y-137488751D01*
X127417851Y-137462226D01*
X127410331Y-137431667D01*
X127381358Y-137392570D01*
X127343396Y-137357451D01*
X127308914Y-137338831D01*
X127296155Y-137340026D01*
X127276409Y-137373747D01*
X126938142Y-137373747D01*
X126856508Y-137305060D01*
X126780402Y-137229173D01*
X126744704Y-137178630D01*
X126957666Y-137178630D01*
X126975635Y-137225651D01*
X127020215Y-137269666D01*
X127063500Y-137291961D01*
X127113762Y-137290911D01*
X127154691Y-137262680D01*
X127169333Y-137223579D01*
X127154869Y-137182984D01*
X127120803Y-137137963D01*
X127081122Y-137104499D01*
X127058117Y-137096500D01*
X127010832Y-137111034D01*
X126971481Y-137144854D01*
X126957666Y-137178630D01*
X126744704Y-137178630D01*
X126734347Y-137163967D01*
X126715152Y-137104005D01*
X126719623Y-137043849D01*
X126733835Y-137001770D01*
X126770384Y-136939826D01*
X126822384Y-136903052D01*
X126898364Y-136887667D01*
X126989064Y-136888639D01*
X127122815Y-136912700D01*
X127265638Y-136969409D01*
X127420952Y-137060455D01*
X127589348Y-137185246D01*
X127699615Y-137271622D01*
X127788308Y-137334013D01*
X127864698Y-137377425D01*
X127938060Y-137406865D01*
X128017666Y-137427339D01*
X128048900Y-137433345D01*
X128225490Y-137444491D01*
X128396805Y-137414512D01*
X128558873Y-137344601D01*
X128707577Y-137236075D01*
X128806326Y-137146672D01*
X128675466Y-137097733D01*
X128568864Y-137051666D01*
X128441367Y-136986969D01*
X128305674Y-136910775D01*
X128174484Y-136830213D01*
X128166879Y-136825022D01*
X133498166Y-136825022D01*
X133515409Y-136854217D01*
X133561235Y-136863791D01*
X133626792Y-136853888D01*
X133703224Y-136824650D01*
X133709277Y-136821616D01*
X133777262Y-136778330D01*
X133825945Y-136731032D01*
X133851970Y-136686454D01*
X133851979Y-136651330D01*
X133822616Y-136632392D01*
X133804403Y-136630833D01*
X133728326Y-136642826D01*
X133649006Y-136674276D01*
X133577158Y-136718388D01*
X133523494Y-136768369D01*
X133498731Y-136817424D01*
X133498166Y-136825022D01*
X128166879Y-136825022D01*
X128060496Y-136752415D01*
X128060470Y-136752395D01*
X127787349Y-136527883D01*
X127584085Y-136317576D01*
X127908044Y-136317576D01*
X127916119Y-136369895D01*
X127947781Y-136432115D01*
X127998349Y-136495896D01*
X128063141Y-136552898D01*
X128089181Y-136570234D01*
X128152306Y-136602427D01*
X128189625Y-136604239D01*
X128205328Y-136575160D01*
X128206500Y-136556005D01*
X128194787Y-136498801D01*
X128170062Y-136446732D01*
X128134351Y-136406405D01*
X128081688Y-136362188D01*
X128023283Y-136321652D01*
X127970349Y-136292363D01*
X127934099Y-136281890D01*
X127928237Y-136283496D01*
X127908044Y-136317576D01*
X127584085Y-136317576D01*
X127546511Y-136278701D01*
X127339515Y-136007324D01*
X127180101Y-135736885D01*
X127418706Y-135736885D01*
X127432036Y-135807592D01*
X127463447Y-135883263D01*
X127510669Y-135954139D01*
X127531593Y-135977093D01*
X127582693Y-136009536D01*
X127627246Y-136003605D01*
X127656778Y-135963142D01*
X127660961Y-135906685D01*
X127642670Y-135838696D01*
X127608173Y-135768937D01*
X127563735Y-135707169D01*
X127515624Y-135663154D01*
X127470106Y-135646653D01*
X127455369Y-135649402D01*
X127425727Y-135680902D01*
X127418706Y-135736885D01*
X127180101Y-135736885D01*
X127167922Y-135716225D01*
X127033292Y-135407878D01*
X126938713Y-135089896D01*
X127116675Y-135089896D01*
X127132633Y-135167307D01*
X127167181Y-135246140D01*
X127172061Y-135254397D01*
X127202497Y-135297227D01*
X127225883Y-135307045D01*
X127244257Y-135296635D01*
X127265694Y-135258855D01*
X127275144Y-135202640D01*
X127275166Y-135199919D01*
X127267608Y-135134307D01*
X127248282Y-135065167D01*
X127222209Y-135005011D01*
X127194408Y-134966352D01*
X127178363Y-134958666D01*
X127139736Y-134976330D01*
X127119108Y-135023155D01*
X127116675Y-135089896D01*
X126938713Y-135089896D01*
X126937184Y-135084757D01*
X126904065Y-134918443D01*
X126881529Y-134717841D01*
X126874603Y-134487959D01*
X126875655Y-134455511D01*
X127021998Y-134455511D01*
X127025480Y-134525784D01*
X127041008Y-134589049D01*
X127056257Y-134618346D01*
X127082744Y-134651775D01*
X127100808Y-134652249D01*
X127119757Y-134629593D01*
X127137599Y-134584520D01*
X127147472Y-134519414D01*
X127148166Y-134498146D01*
X127140028Y-134411739D01*
X127117552Y-134351515D01*
X127083641Y-134324475D01*
X127075807Y-134323666D01*
X127047964Y-134342350D01*
X127029760Y-134390332D01*
X127021998Y-134455511D01*
X126875655Y-134455511D01*
X126882690Y-134238622D01*
X126905193Y-133979656D01*
X126918454Y-133885171D01*
X127084666Y-133885171D01*
X127092464Y-133952893D01*
X127113607Y-133983908D01*
X127144721Y-133976303D01*
X127176910Y-133937375D01*
X127207516Y-133869682D01*
X127220698Y-133800217D01*
X127216795Y-133739834D01*
X127196148Y-133699390D01*
X127169132Y-133688666D01*
X127143076Y-133707291D01*
X127116410Y-133754010D01*
X127095037Y-133815085D01*
X127084862Y-133876782D01*
X127084666Y-133885171D01*
X126918454Y-133885171D01*
X126941512Y-133720888D01*
X126991052Y-133472143D01*
X126992389Y-133466416D01*
X127023636Y-133350377D01*
X127223641Y-133350377D01*
X127226549Y-133391755D01*
X127246465Y-133425102D01*
X127275266Y-133419576D01*
X127308257Y-133376402D01*
X127311896Y-133369495D01*
X127327731Y-133321564D01*
X127336417Y-133262604D01*
X127337399Y-133206823D01*
X127330124Y-133168428D01*
X127320091Y-133159500D01*
X127288976Y-133178267D01*
X127258858Y-133225451D01*
X127235244Y-133287380D01*
X127223641Y-133350377D01*
X127023636Y-133350377D01*
X127024516Y-133347111D01*
X127067476Y-133220437D01*
X127124032Y-133079609D01*
X127196948Y-132917844D01*
X127288985Y-132728358D01*
X127310368Y-132685667D01*
X127397294Y-132505737D01*
X127461780Y-132354337D01*
X127478078Y-132306295D01*
X127635000Y-132306295D01*
X127644447Y-132340079D01*
X127667705Y-132340780D01*
X127697149Y-132311820D01*
X127720784Y-132267801D01*
X127735388Y-132210688D01*
X127725171Y-132182871D01*
X127699912Y-132180661D01*
X127670859Y-132207441D01*
X127646441Y-132251669D01*
X127635092Y-132301808D01*
X127635000Y-132306295D01*
X127478078Y-132306295D01*
X127505573Y-132225255D01*
X127530426Y-132112281D01*
X127538086Y-132009202D01*
X127530303Y-131909809D01*
X127529818Y-131906612D01*
X127521261Y-131843076D01*
X127637233Y-131843076D01*
X127652617Y-131911547D01*
X127655642Y-131919872D01*
X127685908Y-131960942D01*
X127725591Y-131973584D01*
X127760391Y-131955977D01*
X127771696Y-131934629D01*
X127773967Y-131883044D01*
X127756440Y-131827564D01*
X127726245Y-131779594D01*
X127690513Y-131750538D01*
X127657093Y-131751343D01*
X127638767Y-131784906D01*
X127637233Y-131843076D01*
X127521261Y-131843076D01*
X127513168Y-131782989D01*
X127507716Y-131692996D01*
X127514166Y-131629247D01*
X127533225Y-131584360D01*
X127563679Y-131552441D01*
X127664469Y-131496820D01*
X127773832Y-131476781D01*
X127881278Y-131493082D01*
X127947019Y-131524742D01*
X127989708Y-131569097D01*
X128036334Y-131644722D01*
X128082122Y-131741461D01*
X128122296Y-131849158D01*
X128152080Y-131957655D01*
X128153352Y-131963583D01*
X128175043Y-132095596D01*
X128183852Y-132231044D01*
X128179109Y-132376061D01*
X128160142Y-132536778D01*
X128126280Y-132719328D01*
X128076853Y-132929842D01*
X128027127Y-133117166D01*
X127977297Y-133304206D01*
X127939857Y-133462303D01*
X127913195Y-133602467D01*
X127895700Y-133735707D01*
X127885760Y-133873030D01*
X127881763Y-134025447D01*
X127881493Y-134112000D01*
X127883975Y-134279647D01*
X127892073Y-134417781D01*
X127908113Y-134539091D01*
X127934419Y-134656267D01*
X127973313Y-134782000D01*
X128027121Y-134928981D01*
X128034723Y-134948735D01*
X128131405Y-135166468D01*
X128245651Y-135358342D01*
X128386272Y-135537786D01*
X128500367Y-135658478D01*
X128606421Y-135759995D01*
X128696042Y-135835899D01*
X128779014Y-135893816D01*
X128860218Y-135938936D01*
X128975265Y-135990455D01*
X129059015Y-136014522D01*
X129111160Y-136011066D01*
X129125711Y-135998323D01*
X129118821Y-135974938D01*
X129092111Y-135923112D01*
X129090612Y-135920530D01*
X129578722Y-135920530D01*
X129592492Y-136071990D01*
X129633399Y-136199870D01*
X129727306Y-136353852D01*
X129850697Y-136478049D01*
X130000949Y-136570266D01*
X130133179Y-136618067D01*
X130244585Y-136638508D01*
X130377874Y-136648673D01*
X130517192Y-136648558D01*
X130646686Y-136638159D01*
X130747949Y-136618231D01*
X130926315Y-136548269D01*
X131086588Y-136450748D01*
X131183322Y-136365222D01*
X134154333Y-136365222D01*
X134166868Y-136414248D01*
X134201083Y-136431315D01*
X134251894Y-136417263D01*
X134314217Y-136372932D01*
X134355112Y-136332049D01*
X134404565Y-136264253D01*
X134427275Y-136204813D01*
X134424002Y-136160198D01*
X134395505Y-136136876D01*
X134342545Y-136141316D01*
X134333092Y-136144569D01*
X134283294Y-136176274D01*
X134230193Y-136229321D01*
X134184668Y-136290284D01*
X134157596Y-136345736D01*
X134154333Y-136365222D01*
X131183322Y-136365222D01*
X131221948Y-136331072D01*
X131325576Y-136194645D01*
X131357184Y-136135386D01*
X131384207Y-136053512D01*
X131398782Y-135956308D01*
X131401837Y-135853528D01*
X134685289Y-135853528D01*
X134694218Y-135890218D01*
X134717216Y-135894678D01*
X134754463Y-135871523D01*
X134797040Y-135828570D01*
X134836025Y-135773633D01*
X134844261Y-135758759D01*
X134872027Y-135687098D01*
X134874321Y-135636137D01*
X134854976Y-135611005D01*
X134817825Y-135616832D01*
X134768255Y-135657071D01*
X134724331Y-135719227D01*
X134695148Y-135789524D01*
X134685289Y-135853528D01*
X131401837Y-135853528D01*
X131401878Y-135852149D01*
X131394464Y-135749409D01*
X131377507Y-135656464D01*
X131351978Y-135581688D01*
X131318843Y-135533457D01*
X131285961Y-135519583D01*
X131248572Y-135537800D01*
X131209608Y-135594380D01*
X131198271Y-135617049D01*
X131163946Y-135672987D01*
X131114112Y-135735459D01*
X131057980Y-135794960D01*
X131004759Y-135841982D01*
X130963661Y-135867017D01*
X130954356Y-135868833D01*
X130939037Y-135851588D01*
X130937000Y-135836379D01*
X130923880Y-135783125D01*
X130888731Y-135709024D01*
X130837863Y-135624676D01*
X130777588Y-135540679D01*
X130722597Y-135476336D01*
X130598924Y-135371996D01*
X130454030Y-135293107D01*
X130301588Y-135246683D01*
X130263775Y-135240957D01*
X130122313Y-135244686D01*
X129984097Y-135286501D01*
X129855775Y-135362289D01*
X129743999Y-135467941D01*
X129655417Y-135599344D01*
X129642672Y-135624943D01*
X129595523Y-135766925D01*
X129578722Y-135920530D01*
X129090612Y-135920530D01*
X129049376Y-135849538D01*
X128994411Y-135760911D01*
X128967018Y-135718392D01*
X128868394Y-135563199D01*
X128791420Y-135431949D01*
X128731574Y-135315307D01*
X128684338Y-135203940D01*
X128645192Y-135088513D01*
X128621233Y-135004232D01*
X128553707Y-134670664D01*
X128535847Y-134444555D01*
X129608223Y-134444555D01*
X129628720Y-134567490D01*
X129682084Y-134678382D01*
X129703548Y-134706509D01*
X129792963Y-134784967D01*
X129893248Y-134823760D01*
X129999830Y-134822002D01*
X130100167Y-134783440D01*
X130194073Y-134707399D01*
X130262699Y-134605578D01*
X130275727Y-134568622D01*
X131326987Y-134568622D01*
X131338335Y-134693516D01*
X131380940Y-134811471D01*
X131454050Y-134914609D01*
X131556911Y-134995054D01*
X131561416Y-134997569D01*
X131635185Y-135018643D01*
X131722821Y-135016355D01*
X131802742Y-134991497D01*
X131904135Y-134916655D01*
X131978005Y-134815704D01*
X132021978Y-134696584D01*
X132033684Y-134567239D01*
X132010752Y-134435608D01*
X131986992Y-134374477D01*
X131919886Y-134269606D01*
X131835121Y-134197509D01*
X131738980Y-134159992D01*
X131637750Y-134158862D01*
X131537714Y-134195924D01*
X131488036Y-134231073D01*
X131401084Y-134329524D01*
X131347652Y-134444666D01*
X131326987Y-134568622D01*
X130275727Y-134568622D01*
X130304389Y-134487322D01*
X130317491Y-134361976D01*
X130300352Y-134238885D01*
X130251317Y-134127396D01*
X130223056Y-134088917D01*
X130133727Y-134009987D01*
X130034568Y-133971707D01*
X129928744Y-133974642D01*
X129822880Y-134017312D01*
X129727921Y-134095956D01*
X129659425Y-134199542D01*
X129618992Y-134318824D01*
X129608223Y-134444555D01*
X128535847Y-134444555D01*
X128526671Y-134328404D01*
X128539801Y-133980007D01*
X128592775Y-133628027D01*
X128685270Y-133275019D01*
X128816963Y-132923539D01*
X128909074Y-132725598D01*
X129056740Y-132464537D01*
X129227363Y-132231156D01*
X129430025Y-132013142D01*
X129445561Y-131998219D01*
X129697226Y-131783203D01*
X129959007Y-131608471D01*
X130230139Y-131474472D01*
X130486823Y-131387648D01*
X130572108Y-131366202D01*
X130647961Y-131351022D01*
X130725116Y-131341021D01*
X130814308Y-131335110D01*
X130926269Y-131332201D01*
X131042833Y-131331292D01*
X131365340Y-131344161D01*
X131666486Y-131386761D01*
X131957217Y-131461466D01*
X132248478Y-131570651D01*
X132344583Y-131613726D01*
X132554492Y-131730517D01*
X132762469Y-131882037D01*
X132961587Y-132060978D01*
X133144919Y-132260033D01*
X133305540Y-132471891D01*
X133436524Y-132689245D01*
X133506447Y-132839705D01*
X133599797Y-133119871D01*
X133665232Y-133425821D01*
X133702393Y-133751201D01*
X133710919Y-134089655D01*
X133690449Y-134434829D01*
X133640624Y-134780368D01*
X133621857Y-134874000D01*
X133567192Y-135086307D01*
X133495835Y-135276990D01*
X133400027Y-135465804D01*
X133367698Y-135521135D01*
X133304101Y-135637647D01*
X133270701Y-135724528D01*
X133267529Y-135781852D01*
X133294619Y-135809692D01*
X133352004Y-135808120D01*
X133439717Y-135777212D01*
X133475783Y-135760362D01*
X133625287Y-135667179D01*
X133773085Y-135536998D01*
X133915098Y-135375089D01*
X133974440Y-135290500D01*
X134968701Y-135290500D01*
X134979321Y-135317543D01*
X135002041Y-135348579D01*
X135026431Y-135344212D01*
X135037504Y-135335741D01*
X135068865Y-135297159D01*
X135098540Y-135242139D01*
X135099528Y-135239804D01*
X135123180Y-135170491D01*
X135124160Y-135122113D01*
X135110108Y-135090241D01*
X135080607Y-135071232D01*
X135044908Y-135088571D01*
X135008727Y-135137983D01*
X134989466Y-135180459D01*
X134969040Y-135245687D01*
X134968701Y-135290500D01*
X133974440Y-135290500D01*
X134047247Y-135186720D01*
X134165455Y-134977160D01*
X134265641Y-134751679D01*
X134274476Y-134728553D01*
X134310262Y-134608139D01*
X135096294Y-134608139D01*
X135098602Y-134682429D01*
X135108008Y-134717929D01*
X135131288Y-134778750D01*
X135174161Y-134726082D01*
X135202861Y-134676358D01*
X135209440Y-134615343D01*
X135206749Y-134582161D01*
X135195825Y-134512098D01*
X135181011Y-134479300D01*
X135158679Y-134478703D01*
X135141309Y-134490737D01*
X135111414Y-134538209D01*
X135096294Y-134608139D01*
X134310262Y-134608139D01*
X134348194Y-134480507D01*
X134387146Y-134218972D01*
X134388510Y-134126366D01*
X135128266Y-134126366D01*
X135138198Y-134197629D01*
X135141477Y-134207160D01*
X135155257Y-134230677D01*
X135175737Y-134221036D01*
X135188044Y-134209193D01*
X135211467Y-134165312D01*
X135221133Y-134106849D01*
X135216135Y-134044193D01*
X135204804Y-133995422D01*
X135190846Y-133966058D01*
X135175805Y-133971573D01*
X135158238Y-133994337D01*
X135135521Y-134051293D01*
X135128266Y-134126366D01*
X134388510Y-134126366D01*
X134391225Y-133942038D01*
X134360323Y-133647797D01*
X134294332Y-133334342D01*
X134193145Y-132999764D01*
X134173769Y-132944387D01*
X134109602Y-132764316D01*
X134058019Y-132618784D01*
X134017643Y-132502363D01*
X133987098Y-132409627D01*
X133965007Y-132335147D01*
X133949996Y-132273499D01*
X133940686Y-132219253D01*
X133935703Y-132166984D01*
X133934273Y-132127788D01*
X134418161Y-132127788D01*
X134418814Y-132168325D01*
X134438384Y-132217214D01*
X134467639Y-132256963D01*
X134493487Y-132270500D01*
X134510606Y-132252874D01*
X134514166Y-132230511D01*
X134501270Y-132185582D01*
X134473405Y-132140553D01*
X134443979Y-132108364D01*
X134428133Y-132107976D01*
X134418161Y-132127788D01*
X133934273Y-132127788D01*
X133933669Y-132111264D01*
X133933209Y-132046666D01*
X133933094Y-131995333D01*
X133933547Y-131879583D01*
X133934975Y-131843038D01*
X134348081Y-131843038D01*
X134370233Y-131885266D01*
X134405530Y-131908811D01*
X134436865Y-131894324D01*
X134449099Y-131880805D01*
X134475524Y-131828997D01*
X134486889Y-131766005D01*
X134481743Y-131709476D01*
X134465483Y-131681346D01*
X134438947Y-131669105D01*
X134411421Y-131685786D01*
X134389329Y-131711641D01*
X134352689Y-131779544D01*
X134348081Y-131843038D01*
X133934975Y-131843038D01*
X133936821Y-131795846D01*
X133944242Y-131733829D01*
X133957134Y-131683239D01*
X133976823Y-131633782D01*
X133980742Y-131625180D01*
X134017677Y-131554461D01*
X134057399Y-131492258D01*
X134075992Y-131468929D01*
X134157753Y-131404717D01*
X134258926Y-131361278D01*
X134366220Y-131341727D01*
X134466343Y-131349180D01*
X134514166Y-131366231D01*
X134578298Y-131420606D01*
X134619964Y-131503165D01*
X134637137Y-131605022D01*
X134627789Y-131717288D01*
X134609416Y-131783666D01*
X134581435Y-131889062D01*
X134575859Y-131990832D01*
X134594542Y-132095277D01*
X134639337Y-132208700D01*
X134712097Y-132337403D01*
X134814674Y-132487688D01*
X134817592Y-132491715D01*
X134962565Y-132710147D01*
X135083316Y-132934651D01*
X135181915Y-133171451D01*
X135260433Y-133426767D01*
X135320941Y-133706822D01*
X135365510Y-134017838D01*
X135382724Y-134189860D01*
X135393144Y-134541042D01*
X135362642Y-134882713D01*
X135291932Y-135213004D01*
X135181730Y-135530046D01*
X135032749Y-135831968D01*
X134845707Y-136116903D01*
X134621317Y-136382980D01*
X134496046Y-136507700D01*
X134254258Y-136713749D01*
X133997476Y-136889162D01*
X133716128Y-137040048D01*
X133540216Y-137117783D01*
X133418258Y-137174172D01*
X133336845Y-137227793D01*
X133294612Y-137281840D01*
X133290194Y-137339510D01*
X133322226Y-137403999D01*
X133387041Y-137476295D01*
X133511310Y-137582017D01*
X133657357Y-137684206D01*
X133808889Y-137772334D01*
X133935027Y-137830358D01*
X134017209Y-137859181D01*
X134091721Y-137876312D01*
X134175332Y-137884461D01*
X134281333Y-137886346D01*
X134370390Y-137884622D01*
X134447295Y-137878381D01*
X134524125Y-137865419D01*
X134612957Y-137843534D01*
X134725866Y-137810522D01*
X134768166Y-137797523D01*
X134901201Y-137758628D01*
X135005641Y-137732890D01*
X135077522Y-137721195D01*
X135106833Y-137721952D01*
X135182369Y-137756301D01*
X135224295Y-137812268D01*
X135233290Y-137886643D01*
X135210035Y-137976217D01*
X135155210Y-138077782D01*
X135069493Y-138188129D01*
X134990836Y-138269491D01*
X134808214Y-138415816D01*
X134600713Y-138532242D01*
X134375217Y-138616853D01*
X134138611Y-138667735D01*
X133897779Y-138682975D01*
X133659606Y-138660658D01*
X133615190Y-138652007D01*
X133425081Y-138595362D01*
X133232950Y-138508352D01*
X133198008Y-138487307D01*
X133670906Y-138487307D01*
X133677852Y-138505979D01*
X133688666Y-138513940D01*
X133731779Y-138528727D01*
X133792509Y-138534729D01*
X133854212Y-138532132D01*
X133900242Y-138521119D01*
X133912901Y-138511455D01*
X133910918Y-138481884D01*
X133879030Y-138453317D01*
X133833255Y-138435520D01*
X134138058Y-138435520D01*
X134152576Y-138480724D01*
X134154557Y-138483186D01*
X134180795Y-138507527D01*
X134211706Y-138511962D01*
X134261228Y-138496807D01*
X134287304Y-138486195D01*
X134342518Y-138456908D01*
X134382308Y-138425265D01*
X134383291Y-138424111D01*
X134397820Y-138396582D01*
X134381769Y-138372531D01*
X134358837Y-138356211D01*
X134319755Y-138335438D01*
X134283522Y-138334809D01*
X134230123Y-138353839D01*
X134164379Y-138392417D01*
X134138058Y-138435520D01*
X133833255Y-138435520D01*
X133829059Y-138433889D01*
X133794500Y-138430000D01*
X133735117Y-138442050D01*
X133698003Y-138461347D01*
X133670906Y-138487307D01*
X133198008Y-138487307D01*
X133048481Y-138397250D01*
X132881358Y-138268328D01*
G37*
X132881358Y-138268328D02*
X132871007Y-138257949D01*
X134555880Y-138257949D01*
X134565113Y-138303349D01*
X134570611Y-138310055D01*
X134611323Y-138323618D01*
X134673431Y-138313884D01*
X134726256Y-138292197D01*
X134787937Y-138246463D01*
X134820024Y-138192678D01*
X134818742Y-138145783D01*
X134788721Y-138119956D01*
X134735388Y-138113221D01*
X134672843Y-138124854D01*
X134615184Y-138154132D01*
X134612271Y-138156369D01*
X134573044Y-138203627D01*
X134555880Y-138257949D01*
X132871007Y-138257949D01*
X132741264Y-138127859D01*
X132676510Y-138044003D01*
X132612746Y-137968260D01*
X132551428Y-137926371D01*
X132497071Y-137919540D01*
X132454190Y-137948973D01*
X132437458Y-137980208D01*
X132426846Y-138059873D01*
X132444611Y-138167077D01*
X132489982Y-138298656D01*
X132543623Y-138415348D01*
X132647724Y-138598534D01*
X132758398Y-138743376D01*
X132880159Y-138853814D01*
X133017517Y-138933787D01*
X133174985Y-138987235D01*
X133207121Y-138994624D01*
X133326826Y-139025899D01*
X133409119Y-139062000D01*
X133458909Y-139106624D01*
X133481102Y-139163468D01*
X133483286Y-139202710D01*
X133463123Y-139293446D01*
X133406201Y-139375222D01*
X133316317Y-139447880D01*
X133180687Y-139519391D01*
X133032425Y-139566385D01*
X132884050Y-139586202D01*
X132748085Y-139576182D01*
X132730788Y-139572256D01*
X132608283Y-139528428D01*
X132468419Y-139453072D01*
X132308299Y-139344583D01*
X132273842Y-139318958D01*
X132234644Y-139287983D01*
X132492429Y-139287983D01*
X132494792Y-139300334D01*
X132529202Y-139325248D01*
X132545666Y-139335813D01*
X132612240Y-139369557D01*
X132658107Y-139374551D01*
X132659414Y-139373023D01*
X132875393Y-139373023D01*
X132892895Y-139401230D01*
X132939972Y-139420123D01*
X132989477Y-139424833D01*
X133069581Y-139409312D01*
X133107752Y-139381207D01*
X133133150Y-139347259D01*
X133128515Y-139326407D01*
X133116325Y-139316839D01*
X133070803Y-139304800D01*
X133005441Y-139306344D01*
X132939712Y-139319349D01*
X132893825Y-139341072D01*
X132875393Y-139373023D01*
X132659414Y-139373023D01*
X132678481Y-139350750D01*
X132663900Y-139326133D01*
X132622652Y-139301886D01*
X132569941Y-139284621D01*
X132520970Y-139280946D01*
X132518688Y-139281270D01*
X132492429Y-139287983D01*
X132234644Y-139287983D01*
X132183234Y-139247358D01*
X132102890Y-139175274D01*
X132026471Y-139095579D01*
X131947636Y-139001144D01*
X131860045Y-138884843D01*
X131757358Y-138739545D01*
X131753408Y-138733841D01*
X131629630Y-138562502D01*
X131519777Y-138427965D01*
X131420796Y-138328251D01*
X131329635Y-138261382D01*
X131243243Y-138225378D01*
X131158567Y-138218262D01*
X131072555Y-138238055D01*
X131022672Y-138260153D01*
X130982422Y-138287450D01*
X130918025Y-138339164D01*
X130835545Y-138410060D01*
X130741048Y-138494902D01*
X130640598Y-138588454D01*
X130623207Y-138604999D01*
X130387597Y-138820906D01*
X130166620Y-139003906D01*
X129954387Y-139158117D01*
X129745007Y-139287656D01*
X129532587Y-139396640D01*
X129419610Y-139446291D01*
X129265534Y-139496482D01*
X129106397Y-139523425D01*
X128948925Y-139528141D01*
X128799847Y-139511647D01*
X128665890Y-139474964D01*
X128553782Y-139419111D01*
X128495930Y-139367856D01*
X128994838Y-139367856D01*
X129007510Y-139386666D01*
X129046874Y-139400315D01*
X129086165Y-139403666D01*
X129134663Y-139400828D01*
X129158495Y-139393865D01*
X129159000Y-139392559D01*
X129141013Y-139375697D01*
X129099175Y-139359282D01*
X129051670Y-139348775D01*
X129016682Y-139349639D01*
X129016424Y-139349736D01*
X128994838Y-139367856D01*
X128495930Y-139367856D01*
X128470252Y-139345107D01*
X128439297Y-139297763D01*
X128408937Y-139210927D01*
X128408241Y-139205460D01*
X128615217Y-139205460D01*
X128615677Y-139254880D01*
X128646877Y-139301059D01*
X128697363Y-139337268D01*
X128755687Y-139356779D01*
X128810396Y-139352864D01*
X128837266Y-139335933D01*
X128860920Y-139292573D01*
X128845023Y-139245653D01*
X128816342Y-139213991D01*
X128765000Y-139183643D01*
X128704689Y-139171049D01*
X128650352Y-139176841D01*
X128616931Y-139201654D01*
X128615217Y-139205460D01*
X128408241Y-139205460D01*
X128396637Y-139114421D01*
X128402505Y-139022823D01*
X128426649Y-138950710D01*
X128436633Y-138936078D01*
X128458925Y-138913552D01*
X128488376Y-138898223D01*
X128534037Y-138887953D01*
X128604962Y-138880603D01*
X128695925Y-138874826D01*
X128818486Y-138865157D01*
X128909811Y-138850676D01*
X128980908Y-138829332D01*
X129010833Y-138816169D01*
X129077538Y-138775663D01*
X129163645Y-138711999D01*
X129259942Y-138633217D01*
X129357221Y-138547361D01*
X129446270Y-138462472D01*
X129517880Y-138386591D01*
X129552868Y-138342901D01*
X129616990Y-138234775D01*
X129652477Y-138135374D01*
X129659759Y-138049546D01*
X129639262Y-137982142D01*
X129591413Y-137938011D01*
X129516642Y-137922001D01*
X129515753Y-137922000D01*
X129480733Y-137930811D01*
X129415429Y-137955136D01*
X129327548Y-137991815D01*
X129224795Y-138037684D01*
X129159819Y-138068015D01*
X128988195Y-138147381D01*
X128845839Y-138207892D01*
X128725333Y-138251815D01*
X128619259Y-138281417D01*
X128520199Y-138298966D01*
X128420733Y-138306728D01*
X128375833Y-138307623D01*
X128241027Y-138302854D01*
X128119942Y-138284813D01*
X128006358Y-138250302D01*
X127894056Y-138196123D01*
X127776817Y-138119078D01*
X127729205Y-138080843D01*
X128082631Y-138080843D01*
X128091528Y-138102236D01*
X128140778Y-138126415D01*
X128143000Y-138127180D01*
X128225250Y-138148654D01*
X128287588Y-138151906D01*
X128321159Y-138136497D01*
X128321434Y-138136064D01*
X128319181Y-138107882D01*
X128306841Y-138098903D01*
X128532438Y-138098903D01*
X128546351Y-138113232D01*
X128600574Y-138123114D01*
X128686818Y-138105664D01*
X128740958Y-138087044D01*
X128788120Y-138059720D01*
X128799566Y-138031897D01*
X128781542Y-138008665D01*
X128740295Y-137995115D01*
X128682071Y-137996338D01*
X128641777Y-138006217D01*
X128575693Y-138035636D01*
X128537579Y-138068401D01*
X128532438Y-138098903D01*
X128306841Y-138098903D01*
X128284428Y-138082596D01*
X128226952Y-138065346D01*
X128178256Y-138060801D01*
X128112177Y-138065833D01*
X128082631Y-138080843D01*
X127729205Y-138080843D01*
X127648420Y-138015969D01*
X127518304Y-137897816D01*
X128957782Y-137897816D01*
X128962139Y-137914788D01*
X128991344Y-137937401D01*
X129046456Y-137941083D01*
X129116043Y-137926842D01*
X129188668Y-137895690D01*
X129190570Y-137894620D01*
X129254641Y-137848394D01*
X129280825Y-137808138D01*
X129273527Y-137777942D01*
X129237153Y-137761900D01*
X129176106Y-137764101D01*
X129094793Y-137788640D01*
X129082246Y-137794000D01*
X129006891Y-137831740D01*
X128967198Y-137864540D01*
X128957782Y-137897816D01*
X127518304Y-137897816D01*
X127502647Y-137883599D01*
X127446266Y-137829664D01*
X127338872Y-137727709D01*
X127225459Y-137623176D01*
X127115778Y-137524845D01*
X127019580Y-137441497D01*
X126965856Y-137397066D01*
X126938142Y-137373747D01*
X127276409Y-137373747D01*
X127285577Y-137422416D01*
X127310906Y-137460741D01*
X127354328Y-137489888D01*
X127395156Y-137488751D01*
X127417851Y-137462226D01*
X127410331Y-137431667D01*
X127381358Y-137392570D01*
X127343396Y-137357451D01*
X127308914Y-137338831D01*
X127296155Y-137340026D01*
X127276409Y-137373747D01*
X126938142Y-137373747D01*
X126856508Y-137305060D01*
X126780402Y-137229173D01*
X126744704Y-137178630D01*
X126957666Y-137178630D01*
X126975635Y-137225651D01*
X127020215Y-137269666D01*
X127063500Y-137291961D01*
X127113762Y-137290911D01*
X127154691Y-137262680D01*
X127169333Y-137223579D01*
X127154869Y-137182984D01*
X127120803Y-137137963D01*
X127081122Y-137104499D01*
X127058117Y-137096500D01*
X127010832Y-137111034D01*
X126971481Y-137144854D01*
X126957666Y-137178630D01*
X126744704Y-137178630D01*
X126734347Y-137163967D01*
X126715152Y-137104005D01*
X126719623Y-137043849D01*
X126733835Y-137001770D01*
X126770384Y-136939826D01*
X126822384Y-136903052D01*
X126898364Y-136887667D01*
X126989064Y-136888639D01*
X127122815Y-136912700D01*
X127265638Y-136969409D01*
X127420952Y-137060455D01*
X127589348Y-137185246D01*
X127699615Y-137271622D01*
X127788308Y-137334013D01*
X127864698Y-137377425D01*
X127938060Y-137406865D01*
X128017666Y-137427339D01*
X128048900Y-137433345D01*
X128225490Y-137444491D01*
X128396805Y-137414512D01*
X128558873Y-137344601D01*
X128707577Y-137236075D01*
X128806326Y-137146672D01*
X128675466Y-137097733D01*
X128568864Y-137051666D01*
X128441367Y-136986969D01*
X128305674Y-136910775D01*
X128174484Y-136830213D01*
X128166879Y-136825022D01*
X133498166Y-136825022D01*
X133515409Y-136854217D01*
X133561235Y-136863791D01*
X133626792Y-136853888D01*
X133703224Y-136824650D01*
X133709277Y-136821616D01*
X133777262Y-136778330D01*
X133825945Y-136731032D01*
X133851970Y-136686454D01*
X133851979Y-136651330D01*
X133822616Y-136632392D01*
X133804403Y-136630833D01*
X133728326Y-136642826D01*
X133649006Y-136674276D01*
X133577158Y-136718388D01*
X133523494Y-136768369D01*
X133498731Y-136817424D01*
X133498166Y-136825022D01*
X128166879Y-136825022D01*
X128060496Y-136752415D01*
X128060470Y-136752395D01*
X127787349Y-136527883D01*
X127584085Y-136317576D01*
X127908044Y-136317576D01*
X127916119Y-136369895D01*
X127947781Y-136432115D01*
X127998349Y-136495896D01*
X128063141Y-136552898D01*
X128089181Y-136570234D01*
X128152306Y-136602427D01*
X128189625Y-136604239D01*
X128205328Y-136575160D01*
X128206500Y-136556005D01*
X128194787Y-136498801D01*
X128170062Y-136446732D01*
X128134351Y-136406405D01*
X128081688Y-136362188D01*
X128023283Y-136321652D01*
X127970349Y-136292363D01*
X127934099Y-136281890D01*
X127928237Y-136283496D01*
X127908044Y-136317576D01*
X127584085Y-136317576D01*
X127546511Y-136278701D01*
X127339515Y-136007324D01*
X127180101Y-135736885D01*
X127418706Y-135736885D01*
X127432036Y-135807592D01*
X127463447Y-135883263D01*
X127510669Y-135954139D01*
X127531593Y-135977093D01*
X127582693Y-136009536D01*
X127627246Y-136003605D01*
X127656778Y-135963142D01*
X127660961Y-135906685D01*
X127642670Y-135838696D01*
X127608173Y-135768937D01*
X127563735Y-135707169D01*
X127515624Y-135663154D01*
X127470106Y-135646653D01*
X127455369Y-135649402D01*
X127425727Y-135680902D01*
X127418706Y-135736885D01*
X127180101Y-135736885D01*
X127167922Y-135716225D01*
X127033292Y-135407878D01*
X126938713Y-135089896D01*
X127116675Y-135089896D01*
X127132633Y-135167307D01*
X127167181Y-135246140D01*
X127172061Y-135254397D01*
X127202497Y-135297227D01*
X127225883Y-135307045D01*
X127244257Y-135296635D01*
X127265694Y-135258855D01*
X127275144Y-135202640D01*
X127275166Y-135199919D01*
X127267608Y-135134307D01*
X127248282Y-135065167D01*
X127222209Y-135005011D01*
X127194408Y-134966352D01*
X127178363Y-134958666D01*
X127139736Y-134976330D01*
X127119108Y-135023155D01*
X127116675Y-135089896D01*
X126938713Y-135089896D01*
X126937184Y-135084757D01*
X126904065Y-134918443D01*
X126881529Y-134717841D01*
X126874603Y-134487959D01*
X126875655Y-134455511D01*
X127021998Y-134455511D01*
X127025480Y-134525784D01*
X127041008Y-134589049D01*
X127056257Y-134618346D01*
X127082744Y-134651775D01*
X127100808Y-134652249D01*
X127119757Y-134629593D01*
X127137599Y-134584520D01*
X127147472Y-134519414D01*
X127148166Y-134498146D01*
X127140028Y-134411739D01*
X127117552Y-134351515D01*
X127083641Y-134324475D01*
X127075807Y-134323666D01*
X127047964Y-134342350D01*
X127029760Y-134390332D01*
X127021998Y-134455511D01*
X126875655Y-134455511D01*
X126882690Y-134238622D01*
X126905193Y-133979656D01*
X126918454Y-133885171D01*
X127084666Y-133885171D01*
X127092464Y-133952893D01*
X127113607Y-133983908D01*
X127144721Y-133976303D01*
X127176910Y-133937375D01*
X127207516Y-133869682D01*
X127220698Y-133800217D01*
X127216795Y-133739834D01*
X127196148Y-133699390D01*
X127169132Y-133688666D01*
X127143076Y-133707291D01*
X127116410Y-133754010D01*
X127095037Y-133815085D01*
X127084862Y-133876782D01*
X127084666Y-133885171D01*
X126918454Y-133885171D01*
X126941512Y-133720888D01*
X126991052Y-133472143D01*
X126992389Y-133466416D01*
X127023636Y-133350377D01*
X127223641Y-133350377D01*
X127226549Y-133391755D01*
X127246465Y-133425102D01*
X127275266Y-133419576D01*
X127308257Y-133376402D01*
X127311896Y-133369495D01*
X127327731Y-133321564D01*
X127336417Y-133262604D01*
X127337399Y-133206823D01*
X127330124Y-133168428D01*
X127320091Y-133159500D01*
X127288976Y-133178267D01*
X127258858Y-133225451D01*
X127235244Y-133287380D01*
X127223641Y-133350377D01*
X127023636Y-133350377D01*
X127024516Y-133347111D01*
X127067476Y-133220437D01*
X127124032Y-133079609D01*
X127196948Y-132917844D01*
X127288985Y-132728358D01*
X127310368Y-132685667D01*
X127397294Y-132505737D01*
X127461780Y-132354337D01*
X127478078Y-132306295D01*
X127635000Y-132306295D01*
X127644447Y-132340079D01*
X127667705Y-132340780D01*
X127697149Y-132311820D01*
X127720784Y-132267801D01*
X127735388Y-132210688D01*
X127725171Y-132182871D01*
X127699912Y-132180661D01*
X127670859Y-132207441D01*
X127646441Y-132251669D01*
X127635092Y-132301808D01*
X127635000Y-132306295D01*
X127478078Y-132306295D01*
X127505573Y-132225255D01*
X127530426Y-132112281D01*
X127538086Y-132009202D01*
X127530303Y-131909809D01*
X127529818Y-131906612D01*
X127521261Y-131843076D01*
X127637233Y-131843076D01*
X127652617Y-131911547D01*
X127655642Y-131919872D01*
X127685908Y-131960942D01*
X127725591Y-131973584D01*
X127760391Y-131955977D01*
X127771696Y-131934629D01*
X127773967Y-131883044D01*
X127756440Y-131827564D01*
X127726245Y-131779594D01*
X127690513Y-131750538D01*
X127657093Y-131751343D01*
X127638767Y-131784906D01*
X127637233Y-131843076D01*
X127521261Y-131843076D01*
X127513168Y-131782989D01*
X127507716Y-131692996D01*
X127514166Y-131629247D01*
X127533225Y-131584360D01*
X127563679Y-131552441D01*
X127664469Y-131496820D01*
X127773832Y-131476781D01*
X127881278Y-131493082D01*
X127947019Y-131524742D01*
X127989708Y-131569097D01*
X128036334Y-131644722D01*
X128082122Y-131741461D01*
X128122296Y-131849158D01*
X128152080Y-131957655D01*
X128153352Y-131963583D01*
X128175043Y-132095596D01*
X128183852Y-132231044D01*
X128179109Y-132376061D01*
X128160142Y-132536778D01*
X128126280Y-132719328D01*
X128076853Y-132929842D01*
X128027127Y-133117166D01*
X127977297Y-133304206D01*
X127939857Y-133462303D01*
X127913195Y-133602467D01*
X127895700Y-133735707D01*
X127885760Y-133873030D01*
X127881763Y-134025447D01*
X127881493Y-134112000D01*
X127883975Y-134279647D01*
X127892073Y-134417781D01*
X127908113Y-134539091D01*
X127934419Y-134656267D01*
X127973313Y-134782000D01*
X128027121Y-134928981D01*
X128034723Y-134948735D01*
X128131405Y-135166468D01*
X128245651Y-135358342D01*
X128386272Y-135537786D01*
X128500367Y-135658478D01*
X128606421Y-135759995D01*
X128696042Y-135835899D01*
X128779014Y-135893816D01*
X128860218Y-135938936D01*
X128975265Y-135990455D01*
X129059015Y-136014522D01*
X129111160Y-136011066D01*
X129125711Y-135998323D01*
X129118821Y-135974938D01*
X129092111Y-135923112D01*
X129090612Y-135920530D01*
X129578722Y-135920530D01*
X129592492Y-136071990D01*
X129633399Y-136199870D01*
X129727306Y-136353852D01*
X129850697Y-136478049D01*
X130000949Y-136570266D01*
X130133179Y-136618067D01*
X130244585Y-136638508D01*
X130377874Y-136648673D01*
X130517192Y-136648558D01*
X130646686Y-136638159D01*
X130747949Y-136618231D01*
X130926315Y-136548269D01*
X131086588Y-136450748D01*
X131183322Y-136365222D01*
X134154333Y-136365222D01*
X134166868Y-136414248D01*
X134201083Y-136431315D01*
X134251894Y-136417263D01*
X134314217Y-136372932D01*
X134355112Y-136332049D01*
X134404565Y-136264253D01*
X134427275Y-136204813D01*
X134424002Y-136160198D01*
X134395505Y-136136876D01*
X134342545Y-136141316D01*
X134333092Y-136144569D01*
X134283294Y-136176274D01*
X134230193Y-136229321D01*
X134184668Y-136290284D01*
X134157596Y-136345736D01*
X134154333Y-136365222D01*
X131183322Y-136365222D01*
X131221948Y-136331072D01*
X131325576Y-136194645D01*
X131357184Y-136135386D01*
X131384207Y-136053512D01*
X131398782Y-135956308D01*
X131401837Y-135853528D01*
X134685289Y-135853528D01*
X134694218Y-135890218D01*
X134717216Y-135894678D01*
X134754463Y-135871523D01*
X134797040Y-135828570D01*
X134836025Y-135773633D01*
X134844261Y-135758759D01*
X134872027Y-135687098D01*
X134874321Y-135636137D01*
X134854976Y-135611005D01*
X134817825Y-135616832D01*
X134768255Y-135657071D01*
X134724331Y-135719227D01*
X134695148Y-135789524D01*
X134685289Y-135853528D01*
X131401837Y-135853528D01*
X131401878Y-135852149D01*
X131394464Y-135749409D01*
X131377507Y-135656464D01*
X131351978Y-135581688D01*
X131318843Y-135533457D01*
X131285961Y-135519583D01*
X131248572Y-135537800D01*
X131209608Y-135594380D01*
X131198271Y-135617049D01*
X131163946Y-135672987D01*
X131114112Y-135735459D01*
X131057980Y-135794960D01*
X131004759Y-135841982D01*
X130963661Y-135867017D01*
X130954356Y-135868833D01*
X130939037Y-135851588D01*
X130937000Y-135836379D01*
X130923880Y-135783125D01*
X130888731Y-135709024D01*
X130837863Y-135624676D01*
X130777588Y-135540679D01*
X130722597Y-135476336D01*
X130598924Y-135371996D01*
X130454030Y-135293107D01*
X130301588Y-135246683D01*
X130263775Y-135240957D01*
X130122313Y-135244686D01*
X129984097Y-135286501D01*
X129855775Y-135362289D01*
X129743999Y-135467941D01*
X129655417Y-135599344D01*
X129642672Y-135624943D01*
X129595523Y-135766925D01*
X129578722Y-135920530D01*
X129090612Y-135920530D01*
X129049376Y-135849538D01*
X128994411Y-135760911D01*
X128967018Y-135718392D01*
X128868394Y-135563199D01*
X128791420Y-135431949D01*
X128731574Y-135315307D01*
X128684338Y-135203940D01*
X128645192Y-135088513D01*
X128621233Y-135004232D01*
X128553707Y-134670664D01*
X128535847Y-134444555D01*
X129608223Y-134444555D01*
X129628720Y-134567490D01*
X129682084Y-134678382D01*
X129703548Y-134706509D01*
X129792963Y-134784967D01*
X129893248Y-134823760D01*
X129999830Y-134822002D01*
X130100167Y-134783440D01*
X130194073Y-134707399D01*
X130262699Y-134605578D01*
X130275727Y-134568622D01*
X131326987Y-134568622D01*
X131338335Y-134693516D01*
X131380940Y-134811471D01*
X131454050Y-134914609D01*
X131556911Y-134995054D01*
X131561416Y-134997569D01*
X131635185Y-135018643D01*
X131722821Y-135016355D01*
X131802742Y-134991497D01*
X131904135Y-134916655D01*
X131978005Y-134815704D01*
X132021978Y-134696584D01*
X132033684Y-134567239D01*
X132010752Y-134435608D01*
X131986992Y-134374477D01*
X131919886Y-134269606D01*
X131835121Y-134197509D01*
X131738980Y-134159992D01*
X131637750Y-134158862D01*
X131537714Y-134195924D01*
X131488036Y-134231073D01*
X131401084Y-134329524D01*
X131347652Y-134444666D01*
X131326987Y-134568622D01*
X130275727Y-134568622D01*
X130304389Y-134487322D01*
X130317491Y-134361976D01*
X130300352Y-134238885D01*
X130251317Y-134127396D01*
X130223056Y-134088917D01*
X130133727Y-134009987D01*
X130034568Y-133971707D01*
X129928744Y-133974642D01*
X129822880Y-134017312D01*
X129727921Y-134095956D01*
X129659425Y-134199542D01*
X129618992Y-134318824D01*
X129608223Y-134444555D01*
X128535847Y-134444555D01*
X128526671Y-134328404D01*
X128539801Y-133980007D01*
X128592775Y-133628027D01*
X128685270Y-133275019D01*
X128816963Y-132923539D01*
X128909074Y-132725598D01*
X129056740Y-132464537D01*
X129227363Y-132231156D01*
X129430025Y-132013142D01*
X129445561Y-131998219D01*
X129697226Y-131783203D01*
X129959007Y-131608471D01*
X130230139Y-131474472D01*
X130486823Y-131387648D01*
X130572108Y-131366202D01*
X130647961Y-131351022D01*
X130725116Y-131341021D01*
X130814308Y-131335110D01*
X130926269Y-131332201D01*
X131042833Y-131331292D01*
X131365340Y-131344161D01*
X131666486Y-131386761D01*
X131957217Y-131461466D01*
X132248478Y-131570651D01*
X132344583Y-131613726D01*
X132554492Y-131730517D01*
X132762469Y-131882037D01*
X132961587Y-132060978D01*
X133144919Y-132260033D01*
X133305540Y-132471891D01*
X133436524Y-132689245D01*
X133506447Y-132839705D01*
X133599797Y-133119871D01*
X133665232Y-133425821D01*
X133702393Y-133751201D01*
X133710919Y-134089655D01*
X133690449Y-134434829D01*
X133640624Y-134780368D01*
X133621857Y-134874000D01*
X133567192Y-135086307D01*
X133495835Y-135276990D01*
X133400027Y-135465804D01*
X133367698Y-135521135D01*
X133304101Y-135637647D01*
X133270701Y-135724528D01*
X133267529Y-135781852D01*
X133294619Y-135809692D01*
X133352004Y-135808120D01*
X133439717Y-135777212D01*
X133475783Y-135760362D01*
X133625287Y-135667179D01*
X133773085Y-135536998D01*
X133915098Y-135375089D01*
X133974440Y-135290500D01*
X134968701Y-135290500D01*
X134979321Y-135317543D01*
X135002041Y-135348579D01*
X135026431Y-135344212D01*
X135037504Y-135335741D01*
X135068865Y-135297159D01*
X135098540Y-135242139D01*
X135099528Y-135239804D01*
X135123180Y-135170491D01*
X135124160Y-135122113D01*
X135110108Y-135090241D01*
X135080607Y-135071232D01*
X135044908Y-135088571D01*
X135008727Y-135137983D01*
X134989466Y-135180459D01*
X134969040Y-135245687D01*
X134968701Y-135290500D01*
X133974440Y-135290500D01*
X134047247Y-135186720D01*
X134165455Y-134977160D01*
X134265641Y-134751679D01*
X134274476Y-134728553D01*
X134310262Y-134608139D01*
X135096294Y-134608139D01*
X135098602Y-134682429D01*
X135108008Y-134717929D01*
X135131288Y-134778750D01*
X135174161Y-134726082D01*
X135202861Y-134676358D01*
X135209440Y-134615343D01*
X135206749Y-134582161D01*
X135195825Y-134512098D01*
X135181011Y-134479300D01*
X135158679Y-134478703D01*
X135141309Y-134490737D01*
X135111414Y-134538209D01*
X135096294Y-134608139D01*
X134310262Y-134608139D01*
X134348194Y-134480507D01*
X134387146Y-134218972D01*
X134388510Y-134126366D01*
X135128266Y-134126366D01*
X135138198Y-134197629D01*
X135141477Y-134207160D01*
X135155257Y-134230677D01*
X135175737Y-134221036D01*
X135188044Y-134209193D01*
X135211467Y-134165312D01*
X135221133Y-134106849D01*
X135216135Y-134044193D01*
X135204804Y-133995422D01*
X135190846Y-133966058D01*
X135175805Y-133971573D01*
X135158238Y-133994337D01*
X135135521Y-134051293D01*
X135128266Y-134126366D01*
X134388510Y-134126366D01*
X134391225Y-133942038D01*
X134360323Y-133647797D01*
X134294332Y-133334342D01*
X134193145Y-132999764D01*
X134173769Y-132944387D01*
X134109602Y-132764316D01*
X134058019Y-132618784D01*
X134017643Y-132502363D01*
X133987098Y-132409627D01*
X133965007Y-132335147D01*
X133949996Y-132273499D01*
X133940686Y-132219253D01*
X133935703Y-132166984D01*
X133934273Y-132127788D01*
X134418161Y-132127788D01*
X134418814Y-132168325D01*
X134438384Y-132217214D01*
X134467639Y-132256963D01*
X134493487Y-132270500D01*
X134510606Y-132252874D01*
X134514166Y-132230511D01*
X134501270Y-132185582D01*
X134473405Y-132140553D01*
X134443979Y-132108364D01*
X134428133Y-132107976D01*
X134418161Y-132127788D01*
X133934273Y-132127788D01*
X133933669Y-132111264D01*
X133933209Y-132046666D01*
X133933094Y-131995333D01*
X133933547Y-131879583D01*
X133934975Y-131843038D01*
X134348081Y-131843038D01*
X134370233Y-131885266D01*
X134405530Y-131908811D01*
X134436865Y-131894324D01*
X134449099Y-131880805D01*
X134475524Y-131828997D01*
X134486889Y-131766005D01*
X134481743Y-131709476D01*
X134465483Y-131681346D01*
X134438947Y-131669105D01*
X134411421Y-131685786D01*
X134389329Y-131711641D01*
X134352689Y-131779544D01*
X134348081Y-131843038D01*
X133934975Y-131843038D01*
X133936821Y-131795846D01*
X133944242Y-131733829D01*
X133957134Y-131683239D01*
X133976823Y-131633782D01*
X133980742Y-131625180D01*
X134017677Y-131554461D01*
X134057399Y-131492258D01*
X134075992Y-131468929D01*
X134157753Y-131404717D01*
X134258926Y-131361278D01*
X134366220Y-131341727D01*
X134466343Y-131349180D01*
X134514166Y-131366231D01*
X134578298Y-131420606D01*
X134619964Y-131503165D01*
X134637137Y-131605022D01*
X134627789Y-131717288D01*
X134609416Y-131783666D01*
X134581435Y-131889062D01*
X134575859Y-131990832D01*
X134594542Y-132095277D01*
X134639337Y-132208700D01*
X134712097Y-132337403D01*
X134814674Y-132487688D01*
X134817592Y-132491715D01*
X134962565Y-132710147D01*
X135083316Y-132934651D01*
X135181915Y-133171451D01*
X135260433Y-133426767D01*
X135320941Y-133706822D01*
X135365510Y-134017838D01*
X135382724Y-134189860D01*
X135393144Y-134541042D01*
X135362642Y-134882713D01*
X135291932Y-135213004D01*
X135181730Y-135530046D01*
X135032749Y-135831968D01*
X134845707Y-136116903D01*
X134621317Y-136382980D01*
X134496046Y-136507700D01*
X134254258Y-136713749D01*
X133997476Y-136889162D01*
X133716128Y-137040048D01*
X133540216Y-137117783D01*
X133418258Y-137174172D01*
X133336845Y-137227793D01*
X133294612Y-137281840D01*
X133290194Y-137339510D01*
X133322226Y-137403999D01*
X133387041Y-137476295D01*
X133511310Y-137582017D01*
X133657357Y-137684206D01*
X133808889Y-137772334D01*
X133935027Y-137830358D01*
X134017209Y-137859181D01*
X134091721Y-137876312D01*
X134175332Y-137884461D01*
X134281333Y-137886346D01*
X134370390Y-137884622D01*
X134447295Y-137878381D01*
X134524125Y-137865419D01*
X134612957Y-137843534D01*
X134725866Y-137810522D01*
X134768166Y-137797523D01*
X134901201Y-137758628D01*
X135005641Y-137732890D01*
X135077522Y-137721195D01*
X135106833Y-137721952D01*
X135182369Y-137756301D01*
X135224295Y-137812268D01*
X135233290Y-137886643D01*
X135210035Y-137976217D01*
X135155210Y-138077782D01*
X135069493Y-138188129D01*
X134990836Y-138269491D01*
X134808214Y-138415816D01*
X134600713Y-138532242D01*
X134375217Y-138616853D01*
X134138611Y-138667735D01*
X133897779Y-138682975D01*
X133659606Y-138660658D01*
X133615190Y-138652007D01*
X133425081Y-138595362D01*
X133232950Y-138508352D01*
X133198008Y-138487307D01*
X133670906Y-138487307D01*
X133677852Y-138505979D01*
X133688666Y-138513940D01*
X133731779Y-138528727D01*
X133792509Y-138534729D01*
X133854212Y-138532132D01*
X133900242Y-138521119D01*
X133912901Y-138511455D01*
X133910918Y-138481884D01*
X133879030Y-138453317D01*
X133833255Y-138435520D01*
X134138058Y-138435520D01*
X134152576Y-138480724D01*
X134154557Y-138483186D01*
X134180795Y-138507527D01*
X134211706Y-138511962D01*
X134261228Y-138496807D01*
X134287304Y-138486195D01*
X134342518Y-138456908D01*
X134382308Y-138425265D01*
X134383291Y-138424111D01*
X134397820Y-138396582D01*
X134381769Y-138372531D01*
X134358837Y-138356211D01*
X134319755Y-138335438D01*
X134283522Y-138334809D01*
X134230123Y-138353839D01*
X134164379Y-138392417D01*
X134138058Y-138435520D01*
X133833255Y-138435520D01*
X133829059Y-138433889D01*
X133794500Y-138430000D01*
X133735117Y-138442050D01*
X133698003Y-138461347D01*
X133670906Y-138487307D01*
X133198008Y-138487307D01*
X133048481Y-138397250D01*
X132881358Y-138268328D01*
%TD*%
M02*
