%TF.GenerationSoftware,KiCad,Pcbnew,(6.0.0)*%
%TF.CreationDate,2022-01-31T16:35:22-08:00*%
%TF.ProjectId,PCB-side-brain,5043422d-7369-4646-952d-627261696e2e,rev?*%
%TF.SameCoordinates,Original*%
%TF.FileFunction,Copper,L2,Bot*%
%TF.FilePolarity,Positive*%
%FSLAX46Y46*%
G04 Gerber Fmt 4.6, Leading zero omitted, Abs format (unit mm)*
G04 Created by KiCad (PCBNEW (6.0.0)) date 2022-01-31 16:35:22*
%MOMM*%
%LPD*%
G01*
G04 APERTURE LIST*
%TA.AperFunction,EtchedComponent*%
%ADD10C,0.010000*%
%TD*%
G04 APERTURE END LIST*
D10*
%TO.C,Ref\u002A\u002A*%
X167093428Y-45469534D02*
X168458202Y-45469580D01*
X168458202Y-45469580D02*
X169784633Y-45469652D01*
X169784633Y-45469652D02*
X171072600Y-45469749D01*
X171072600Y-45469749D02*
X172321983Y-45469874D01*
X172321983Y-45469874D02*
X173532661Y-45470024D01*
X173532661Y-45470024D02*
X174704514Y-45470200D01*
X174704514Y-45470200D02*
X175837420Y-45470403D01*
X175837420Y-45470403D02*
X176931259Y-45470631D01*
X176931259Y-45470631D02*
X177985910Y-45470886D01*
X177985910Y-45470886D02*
X179001252Y-45471166D01*
X179001252Y-45471166D02*
X179977165Y-45471473D01*
X179977165Y-45471473D02*
X180913527Y-45471805D01*
X180913527Y-45471805D02*
X181810219Y-45472163D01*
X181810219Y-45472163D02*
X182667119Y-45472547D01*
X182667119Y-45472547D02*
X183484107Y-45472956D01*
X183484107Y-45472956D02*
X184261061Y-45473392D01*
X184261061Y-45473392D02*
X184997862Y-45473853D01*
X184997862Y-45473853D02*
X185694387Y-45474339D01*
X185694387Y-45474339D02*
X186350518Y-45474851D01*
X186350518Y-45474851D02*
X186966132Y-45475389D01*
X186966132Y-45475389D02*
X187541109Y-45475952D01*
X187541109Y-45475952D02*
X188075329Y-45476540D01*
X188075329Y-45476540D02*
X188568670Y-45477154D01*
X188568670Y-45477154D02*
X189021012Y-45477793D01*
X189021012Y-45477793D02*
X189432235Y-45478457D01*
X189432235Y-45478457D02*
X189802216Y-45479147D01*
X189802216Y-45479147D02*
X190130836Y-45479862D01*
X190130836Y-45479862D02*
X190417974Y-45480602D01*
X190417974Y-45480602D02*
X190663510Y-45481367D01*
X190663510Y-45481367D02*
X190867321Y-45482158D01*
X190867321Y-45482158D02*
X191029288Y-45482973D01*
X191029288Y-45482973D02*
X191149290Y-45483813D01*
X191149290Y-45483813D02*
X191227206Y-45484679D01*
X191227206Y-45484679D02*
X191262916Y-45485569D01*
X191262916Y-45485569D02*
X191263584Y-45485614D01*
X191263584Y-45485614D02*
X191486863Y-45506375D01*
X191486863Y-45506375D02*
X191682831Y-45535444D01*
X191682831Y-45535444D02*
X191866143Y-45575563D01*
X191866143Y-45575563D02*
X192051453Y-45629474D01*
X192051453Y-45629474D02*
X192076916Y-45637791D01*
X192076916Y-45637791D02*
X192410303Y-45769712D01*
X192410303Y-45769712D02*
X192723649Y-45937258D01*
X192723649Y-45937258D02*
X193014572Y-46137658D01*
X193014572Y-46137658D02*
X193280689Y-46368144D01*
X193280689Y-46368144D02*
X193519616Y-46625946D01*
X193519616Y-46625946D02*
X193728971Y-46908293D01*
X193728971Y-46908293D02*
X193906370Y-47212417D01*
X193906370Y-47212417D02*
X194049430Y-47535547D01*
X194049430Y-47535547D02*
X194155768Y-47874913D01*
X194155768Y-47874913D02*
X194205597Y-48111833D01*
X194205597Y-48111833D02*
X194207219Y-48121711D01*
X194207219Y-48121711D02*
X194208798Y-48132347D01*
X194208798Y-48132347D02*
X194210334Y-48144306D01*
X194210334Y-48144306D02*
X194211828Y-48158154D01*
X194211828Y-48158154D02*
X194213280Y-48174454D01*
X194213280Y-48174454D02*
X194214691Y-48193771D01*
X194214691Y-48193771D02*
X194216061Y-48216672D01*
X194216061Y-48216672D02*
X194217391Y-48243720D01*
X194217391Y-48243720D02*
X194218682Y-48275480D01*
X194218682Y-48275480D02*
X194219933Y-48312518D01*
X194219933Y-48312518D02*
X194221145Y-48355398D01*
X194221145Y-48355398D02*
X194222320Y-48404686D01*
X194222320Y-48404686D02*
X194223456Y-48460945D01*
X194223456Y-48460945D02*
X194224556Y-48524741D01*
X194224556Y-48524741D02*
X194225618Y-48596639D01*
X194225618Y-48596639D02*
X194226645Y-48677204D01*
X194226645Y-48677204D02*
X194227635Y-48767001D01*
X194227635Y-48767001D02*
X194228591Y-48866594D01*
X194228591Y-48866594D02*
X194229511Y-48976548D01*
X194229511Y-48976548D02*
X194230398Y-49097429D01*
X194230398Y-49097429D02*
X194231250Y-49229801D01*
X194231250Y-49229801D02*
X194232070Y-49374229D01*
X194232070Y-49374229D02*
X194232857Y-49531279D01*
X194232857Y-49531279D02*
X194233611Y-49701514D01*
X194233611Y-49701514D02*
X194234334Y-49885500D01*
X194234334Y-49885500D02*
X194235025Y-50083802D01*
X194235025Y-50083802D02*
X194235686Y-50296985D01*
X194235686Y-50296985D02*
X194236316Y-50525613D01*
X194236316Y-50525613D02*
X194236917Y-50770251D01*
X194236917Y-50770251D02*
X194237488Y-51031465D01*
X194237488Y-51031465D02*
X194238030Y-51309820D01*
X194238030Y-51309820D02*
X194238545Y-51605879D01*
X194238545Y-51605879D02*
X194239031Y-51920208D01*
X194239031Y-51920208D02*
X194239490Y-52253373D01*
X194239490Y-52253373D02*
X194239922Y-52605937D01*
X194239922Y-52605937D02*
X194240328Y-52978466D01*
X194240328Y-52978466D02*
X194240709Y-53371525D01*
X194240709Y-53371525D02*
X194241063Y-53785678D01*
X194241063Y-53785678D02*
X194241394Y-54221491D01*
X194241394Y-54221491D02*
X194241699Y-54679528D01*
X194241699Y-54679528D02*
X194241981Y-55160354D01*
X194241981Y-55160354D02*
X194242240Y-55664534D01*
X194242240Y-55664534D02*
X194242476Y-56192634D01*
X194242476Y-56192634D02*
X194242689Y-56745217D01*
X194242689Y-56745217D02*
X194242881Y-57322850D01*
X194242881Y-57322850D02*
X194243051Y-57926096D01*
X194243051Y-57926096D02*
X194243200Y-58555520D01*
X194243200Y-58555520D02*
X194243329Y-59211689D01*
X194243329Y-59211689D02*
X194243438Y-59895165D01*
X194243438Y-59895165D02*
X194243528Y-60606516D01*
X194243528Y-60606516D02*
X194243599Y-61346304D01*
X194243599Y-61346304D02*
X194243652Y-62115095D01*
X194243652Y-62115095D02*
X194243686Y-62913455D01*
X194243686Y-62913455D02*
X194243704Y-63741948D01*
X194243704Y-63741948D02*
X194243704Y-64601138D01*
X194243704Y-64601138D02*
X194243688Y-65491591D01*
X194243688Y-65491591D02*
X194243656Y-66413872D01*
X194243656Y-66413872D02*
X194243609Y-67368545D01*
X194243609Y-67368545D02*
X194243547Y-68356176D01*
X194243547Y-68356176D02*
X194243471Y-69377330D01*
X194243471Y-69377330D02*
X194243380Y-70432570D01*
X194243380Y-70432570D02*
X194243276Y-71522463D01*
X194243276Y-71522463D02*
X194243160Y-72647572D01*
X194243160Y-72647572D02*
X194243030Y-73808464D01*
X194243030Y-73808464D02*
X194242889Y-75005703D01*
X194242889Y-75005703D02*
X194242737Y-76239853D01*
X194242737Y-76239853D02*
X194242573Y-77511480D01*
X194242573Y-77511480D02*
X194242400Y-78821149D01*
X194242400Y-78821149D02*
X194242216Y-80169424D01*
X194242216Y-80169424D02*
X194242023Y-81556870D01*
X194242023Y-81556870D02*
X194241820Y-82984052D01*
X194241820Y-82984052D02*
X194241610Y-84451536D01*
X194241610Y-84451536D02*
X194241391Y-85959886D01*
X194241391Y-85959886D02*
X194241165Y-87509667D01*
X194241165Y-87509667D02*
X194241027Y-88455500D01*
X194241027Y-88455500D02*
X194235156Y-128555750D01*
X194235156Y-128555750D02*
X194189576Y-128737556D01*
X194189576Y-128737556D02*
X194098018Y-129054572D01*
X194098018Y-129054572D02*
X193989120Y-129340366D01*
X193989120Y-129340366D02*
X193859160Y-129603800D01*
X193859160Y-129603800D02*
X193747932Y-129788493D01*
X193747932Y-129788493D02*
X193528561Y-130088452D01*
X193528561Y-130088452D02*
X193281316Y-130356787D01*
X193281316Y-130356787D02*
X193007405Y-130592567D01*
X193007405Y-130592567D02*
X192708034Y-130794860D01*
X192708034Y-130794860D02*
X192384408Y-130962735D01*
X192384408Y-130962735D02*
X192068709Y-131085181D01*
X192068709Y-131085181D02*
X192013553Y-131103783D01*
X192013553Y-131103783D02*
X191964051Y-131120869D01*
X191964051Y-131120869D02*
X191918305Y-131136506D01*
X191918305Y-131136506D02*
X191874420Y-131150760D01*
X191874420Y-131150760D02*
X191830499Y-131163698D01*
X191830499Y-131163698D02*
X191784644Y-131175388D01*
X191784644Y-131175388D02*
X191734959Y-131185896D01*
X191734959Y-131185896D02*
X191679546Y-131195290D01*
X191679546Y-131195290D02*
X191616510Y-131203635D01*
X191616510Y-131203635D02*
X191543952Y-131210999D01*
X191543952Y-131210999D02*
X191459977Y-131217449D01*
X191459977Y-131217449D02*
X191362687Y-131223052D01*
X191362687Y-131223052D02*
X191250185Y-131227875D01*
X191250185Y-131227875D02*
X191120575Y-131231984D01*
X191120575Y-131231984D02*
X190971959Y-131235447D01*
X190971959Y-131235447D02*
X190802442Y-131238329D01*
X190802442Y-131238329D02*
X190610125Y-131240700D01*
X190610125Y-131240700D02*
X190393112Y-131242624D01*
X190393112Y-131242624D02*
X190149506Y-131244170D01*
X190149506Y-131244170D02*
X189877410Y-131245403D01*
X189877410Y-131245403D02*
X189574928Y-131246391D01*
X189574928Y-131246391D02*
X189240162Y-131247201D01*
X189240162Y-131247201D02*
X188871216Y-131247900D01*
X188871216Y-131247900D02*
X188466193Y-131248555D01*
X188466193Y-131248555D02*
X188023195Y-131249232D01*
X188023195Y-131249232D02*
X187540327Y-131249998D01*
X187540327Y-131249998D02*
X187388500Y-131250253D01*
X187388500Y-131250253D02*
X186844495Y-131251094D01*
X186844495Y-131251094D02*
X186341806Y-131251678D01*
X186341806Y-131251678D02*
X185879417Y-131252003D01*
X185879417Y-131252003D02*
X185456312Y-131252063D01*
X185456312Y-131252063D02*
X185071473Y-131251856D01*
X185071473Y-131251856D02*
X184723886Y-131251377D01*
X184723886Y-131251377D02*
X184412533Y-131250622D01*
X184412533Y-131250622D02*
X184136397Y-131249588D01*
X184136397Y-131249588D02*
X183894464Y-131248269D01*
X183894464Y-131248269D02*
X183685715Y-131246662D01*
X183685715Y-131246662D02*
X183509136Y-131244764D01*
X183509136Y-131244764D02*
X183363709Y-131242569D01*
X183363709Y-131242569D02*
X183248418Y-131240074D01*
X183248418Y-131240074D02*
X183162247Y-131237275D01*
X183162247Y-131237275D02*
X183104179Y-131234168D01*
X183104179Y-131234168D02*
X183092935Y-131233253D01*
X183092935Y-131233253D02*
X182734287Y-131180115D01*
X182734287Y-131180115D02*
X182386751Y-131087805D01*
X182386751Y-131087805D02*
X182053634Y-130958113D01*
X182053634Y-130958113D02*
X181738247Y-130792825D01*
X181738247Y-130792825D02*
X181443898Y-130593731D01*
X181443898Y-130593731D02*
X181173897Y-130362620D01*
X181173897Y-130362620D02*
X180931552Y-130101280D01*
X180931552Y-130101280D02*
X180880333Y-130037416D01*
X180880333Y-130037416D02*
X180853885Y-130003685D01*
X180853885Y-130003685D02*
X180830497Y-129973849D01*
X180830497Y-129973849D02*
X180808758Y-129945555D01*
X180808758Y-129945555D02*
X180787262Y-129916447D01*
X180787262Y-129916447D02*
X180764600Y-129884171D01*
X180764600Y-129884171D02*
X180739363Y-129846373D01*
X180739363Y-129846373D02*
X180710143Y-129800697D01*
X180710143Y-129800697D02*
X180675533Y-129744790D01*
X180675533Y-129744790D02*
X180634123Y-129676296D01*
X180634123Y-129676296D02*
X180584506Y-129592862D01*
X180584506Y-129592862D02*
X180525274Y-129492131D01*
X180525274Y-129492131D02*
X180455017Y-129371751D01*
X180455017Y-129371751D02*
X180372328Y-129229366D01*
X180372328Y-129229366D02*
X180275799Y-129062622D01*
X180275799Y-129062622D02*
X180164021Y-128869165D01*
X180164021Y-128869165D02*
X180035587Y-128646638D01*
X180035587Y-128646638D02*
X179889087Y-128392689D01*
X179889087Y-128392689D02*
X179723113Y-128104962D01*
X179723113Y-128104962D02*
X179684002Y-128037166D01*
X179684002Y-128037166D02*
X179541742Y-127790845D01*
X179541742Y-127790845D02*
X179404212Y-127553232D01*
X179404212Y-127553232D02*
X179273052Y-127327130D01*
X179273052Y-127327130D02*
X179149903Y-127115346D01*
X179149903Y-127115346D02*
X179036406Y-126920685D01*
X179036406Y-126920685D02*
X178934202Y-126745952D01*
X178934202Y-126745952D02*
X178844932Y-126593954D01*
X178844932Y-126593954D02*
X178770236Y-126467494D01*
X178770236Y-126467494D02*
X178711756Y-126369380D01*
X178711756Y-126369380D02*
X178671132Y-126302416D01*
X178671132Y-126302416D02*
X178650249Y-126269750D01*
X178650249Y-126269750D02*
X178422778Y-125980921D01*
X178422778Y-125980921D02*
X178174589Y-125726859D01*
X178174589Y-125726859D02*
X177903581Y-125506178D01*
X177903581Y-125506178D02*
X177607654Y-125317491D01*
X177607654Y-125317491D02*
X177284710Y-125159414D01*
X177284710Y-125159414D02*
X176932647Y-125030559D01*
X176932647Y-125030559D02*
X176657000Y-124954383D01*
X176657000Y-124954383D02*
X176648424Y-124952528D01*
X176648424Y-124952528D02*
X176637767Y-124950734D01*
X176637767Y-124950734D02*
X176624335Y-124948997D01*
X176624335Y-124948997D02*
X176607435Y-124947319D01*
X176607435Y-124947319D02*
X176586376Y-124945696D01*
X176586376Y-124945696D02*
X176560465Y-124944129D01*
X176560465Y-124944129D02*
X176529009Y-124942616D01*
X176529009Y-124942616D02*
X176491316Y-124941156D01*
X176491316Y-124941156D02*
X176446693Y-124939747D01*
X176446693Y-124939747D02*
X176394448Y-124938389D01*
X176394448Y-124938389D02*
X176333889Y-124937080D01*
X176333889Y-124937080D02*
X176264322Y-124935820D01*
X176264322Y-124935820D02*
X176185056Y-124934607D01*
X176185056Y-124934607D02*
X176095398Y-124933439D01*
X176095398Y-124933439D02*
X175994656Y-124932316D01*
X175994656Y-124932316D02*
X175882136Y-124931237D01*
X175882136Y-124931237D02*
X175757147Y-124930200D01*
X175757147Y-124930200D02*
X175618996Y-124929204D01*
X175618996Y-124929204D02*
X175466991Y-124928249D01*
X175466991Y-124928249D02*
X175300439Y-124927332D01*
X175300439Y-124927332D02*
X175118647Y-124926453D01*
X175118647Y-124926453D02*
X174920924Y-124925611D01*
X174920924Y-124925611D02*
X174706576Y-124924804D01*
X174706576Y-124924804D02*
X174474911Y-124924031D01*
X174474911Y-124924031D02*
X174225238Y-124923291D01*
X174225238Y-124923291D02*
X173956862Y-124922584D01*
X173956862Y-124922584D02*
X173669092Y-124921907D01*
X173669092Y-124921907D02*
X173361236Y-124921260D01*
X173361236Y-124921260D02*
X173032600Y-124920641D01*
X173032600Y-124920641D02*
X172682493Y-124920049D01*
X172682493Y-124920049D02*
X172310221Y-124919484D01*
X172310221Y-124919484D02*
X171915093Y-124918944D01*
X171915093Y-124918944D02*
X171496415Y-124918427D01*
X171496415Y-124918427D02*
X171053496Y-124917933D01*
X171053496Y-124917933D02*
X170585644Y-124917460D01*
X170585644Y-124917460D02*
X170092164Y-124917008D01*
X170092164Y-124917008D02*
X169572365Y-124916575D01*
X169572365Y-124916575D02*
X169025555Y-124916160D01*
X169025555Y-124916160D02*
X168451041Y-124915762D01*
X168451041Y-124915762D02*
X167848131Y-124915379D01*
X167848131Y-124915379D02*
X167216131Y-124915011D01*
X167216131Y-124915011D02*
X166554350Y-124914657D01*
X166554350Y-124914657D02*
X165862096Y-124914314D01*
X165862096Y-124914314D02*
X165138675Y-124913983D01*
X165138675Y-124913983D02*
X164383395Y-124913661D01*
X164383395Y-124913661D02*
X163595563Y-124913348D01*
X163595563Y-124913348D02*
X162774488Y-124913042D01*
X162774488Y-124913042D02*
X161919477Y-124912743D01*
X161919477Y-124912743D02*
X161029836Y-124912450D01*
X161029836Y-124912450D02*
X160104875Y-124912160D01*
X160104875Y-124912160D02*
X159143900Y-124911873D01*
X159143900Y-124911873D02*
X158146218Y-124911588D01*
X158146218Y-124911588D02*
X157111138Y-124911303D01*
X157111138Y-124911303D02*
X156037967Y-124911018D01*
X156037967Y-124911018D02*
X154926012Y-124910731D01*
X154926012Y-124910731D02*
X153774581Y-124910441D01*
X153774581Y-124910441D02*
X152582981Y-124910147D01*
X152582981Y-124910147D02*
X151350521Y-124909848D01*
X151350521Y-124909848D02*
X150076506Y-124909542D01*
X150076506Y-124909542D02*
X149912916Y-124909503D01*
X149912916Y-124909503D02*
X148517781Y-124909182D01*
X148517781Y-124909182D02*
X147164606Y-124908895D01*
X147164606Y-124908895D02*
X145853019Y-124908643D01*
X145853019Y-124908643D02*
X144582647Y-124908426D01*
X144582647Y-124908426D02*
X143353117Y-124908244D01*
X143353117Y-124908244D02*
X142164058Y-124908096D01*
X142164058Y-124908096D02*
X141015095Y-124907985D01*
X141015095Y-124907985D02*
X139905856Y-124907909D01*
X139905856Y-124907909D02*
X138835968Y-124907868D01*
X138835968Y-124907868D02*
X137805060Y-124907864D01*
X137805060Y-124907864D02*
X136812757Y-124907897D01*
X136812757Y-124907897D02*
X135858688Y-124907966D01*
X135858688Y-124907966D02*
X134942479Y-124908071D01*
X134942479Y-124908071D02*
X134063757Y-124908214D01*
X134063757Y-124908214D02*
X133222151Y-124908394D01*
X133222151Y-124908394D02*
X132417287Y-124908612D01*
X132417287Y-124908612D02*
X131648793Y-124908867D01*
X131648793Y-124908867D02*
X130916295Y-124909161D01*
X130916295Y-124909161D02*
X130219421Y-124909492D01*
X130219421Y-124909492D02*
X129557799Y-124909862D01*
X129557799Y-124909862D02*
X128931056Y-124910271D01*
X128931056Y-124910271D02*
X128338818Y-124910719D01*
X128338818Y-124910719D02*
X127780713Y-124911205D01*
X127780713Y-124911205D02*
X127256369Y-124911732D01*
X127256369Y-124911732D02*
X126765412Y-124912297D01*
X126765412Y-124912297D02*
X126307471Y-124912903D01*
X126307471Y-124912903D02*
X125882171Y-124913549D01*
X125882171Y-124913549D02*
X125489141Y-124914235D01*
X125489141Y-124914235D02*
X125128008Y-124914961D01*
X125128008Y-124914961D02*
X124798399Y-124915729D01*
X124798399Y-124915729D02*
X124499940Y-124916537D01*
X124499940Y-124916537D02*
X124232261Y-124917387D01*
X124232261Y-124917387D02*
X123994987Y-124918278D01*
X123994987Y-124918278D02*
X123787746Y-124919211D01*
X123787746Y-124919211D02*
X123610166Y-124920186D01*
X123610166Y-124920186D02*
X123461873Y-124921203D01*
X123461873Y-124921203D02*
X123342495Y-124922262D01*
X123342495Y-124922262D02*
X123251658Y-124923364D01*
X123251658Y-124923364D02*
X123188992Y-124924509D01*
X123188992Y-124924509D02*
X123154122Y-124925697D01*
X123154122Y-124925697D02*
X123147666Y-124926210D01*
X123147666Y-124926210D02*
X122791392Y-124993030D01*
X122791392Y-124993030D02*
X122444546Y-125100338D01*
X122444546Y-125100338D02*
X122110671Y-125246703D01*
X122110671Y-125246703D02*
X121793307Y-125430693D01*
X121793307Y-125430693D02*
X121644833Y-125534197D01*
X121644833Y-125534197D02*
X121507881Y-125645140D01*
X121507881Y-125645140D02*
X121361655Y-125780363D01*
X121361655Y-125780363D02*
X121216867Y-125928770D01*
X121216867Y-125928770D02*
X121084228Y-126079267D01*
X121084228Y-126079267D02*
X120974447Y-126220758D01*
X120974447Y-126220758D02*
X120954887Y-126248895D01*
X120954887Y-126248895D02*
X120925134Y-126295511D01*
X120925134Y-126295511D02*
X120876063Y-126375849D01*
X120876063Y-126375849D02*
X120809432Y-126486918D01*
X120809432Y-126486918D02*
X120726998Y-126625724D01*
X120726998Y-126625724D02*
X120630518Y-126789276D01*
X120630518Y-126789276D02*
X120521748Y-126974580D01*
X120521748Y-126974580D02*
X120402445Y-127178645D01*
X120402445Y-127178645D02*
X120274366Y-127398477D01*
X120274366Y-127398477D02*
X120139269Y-127631085D01*
X120139269Y-127631085D02*
X119998909Y-127873476D01*
X119998909Y-127873476D02*
X119867723Y-128100666D01*
X119867723Y-128100666D02*
X119724975Y-128347870D01*
X119724975Y-128347870D02*
X119586525Y-128586961D01*
X119586525Y-128586961D02*
X119454059Y-128815064D01*
X119454059Y-128815064D02*
X119329262Y-129029307D01*
X119329262Y-129029307D02*
X119213821Y-129226816D01*
X119213821Y-129226816D02*
X119109422Y-129404718D01*
X119109422Y-129404718D02*
X119017751Y-129560139D01*
X119017751Y-129560139D02*
X118940493Y-129690207D01*
X118940493Y-129690207D02*
X118879335Y-129792047D01*
X118879335Y-129792047D02*
X118835962Y-129862787D01*
X118835962Y-129862787D02*
X118812722Y-129898632D01*
X118812722Y-129898632D02*
X118581876Y-130188547D01*
X118581876Y-130188547D02*
X118324824Y-130445241D01*
X118324824Y-130445241D02*
X118041737Y-130668602D01*
X118041737Y-130668602D02*
X117732790Y-130858518D01*
X117732790Y-130858518D02*
X117398154Y-131014878D01*
X117398154Y-131014878D02*
X117038002Y-131137571D01*
X117038002Y-131137571D02*
X116806175Y-131195762D01*
X116806175Y-131195762D02*
X116596583Y-131241768D01*
X116596583Y-131241768D02*
X112469083Y-131245540D01*
X112469083Y-131245540D02*
X112051932Y-131245838D01*
X112051932Y-131245838D02*
X111644831Y-131245966D01*
X111644831Y-131245966D02*
X111249909Y-131245930D01*
X111249909Y-131245930D02*
X110869296Y-131245736D01*
X110869296Y-131245736D02*
X110505123Y-131245391D01*
X110505123Y-131245391D02*
X110159517Y-131244900D01*
X110159517Y-131244900D02*
X109834610Y-131244270D01*
X109834610Y-131244270D02*
X109532531Y-131243507D01*
X109532531Y-131243507D02*
X109255410Y-131242617D01*
X109255410Y-131242617D02*
X109005376Y-131241606D01*
X109005376Y-131241606D02*
X108784559Y-131240481D01*
X108784559Y-131240481D02*
X108595089Y-131239248D01*
X108595089Y-131239248D02*
X108439095Y-131237912D01*
X108439095Y-131237912D02*
X108318707Y-131236481D01*
X108318707Y-131236481D02*
X108236054Y-131234960D01*
X108236054Y-131234960D02*
X108193268Y-131233356D01*
X108193268Y-131233356D02*
X108190282Y-131233094D01*
X108190282Y-131233094D02*
X107829287Y-131173763D01*
X107829287Y-131173763D02*
X107482072Y-131075700D01*
X107482072Y-131075700D02*
X107151276Y-130940772D01*
X107151276Y-130940772D02*
X106839538Y-130770844D01*
X106839538Y-130770844D02*
X106549497Y-130567785D01*
X106549497Y-130567785D02*
X106283790Y-130333461D01*
X106283790Y-130333461D02*
X106045057Y-130069738D01*
X106045057Y-130069738D02*
X105835936Y-129778484D01*
X105835936Y-129778484D02*
X105659065Y-129461564D01*
X105659065Y-129461564D02*
X105645057Y-129432349D01*
X105645057Y-129432349D02*
X105539535Y-129189385D01*
X105539535Y-129189385D02*
X105459529Y-128956167D01*
X105459529Y-128956167D02*
X105401105Y-128718176D01*
X105401105Y-128718176D02*
X105360327Y-128460890D01*
X105360327Y-128460890D02*
X105346144Y-128329239D01*
X105346144Y-128329239D02*
X105345166Y-128303395D01*
X105345166Y-128303395D02*
X105344216Y-128246773D01*
X105344216Y-128246773D02*
X105343294Y-128159129D01*
X105343294Y-128159129D02*
X105342402Y-128040215D01*
X105342402Y-128040215D02*
X105341537Y-127889785D01*
X105341537Y-127889785D02*
X105340701Y-127707593D01*
X105340701Y-127707593D02*
X105339893Y-127493393D01*
X105339893Y-127493393D02*
X105339113Y-127246939D01*
X105339113Y-127246939D02*
X105338361Y-126967984D01*
X105338361Y-126967984D02*
X105337636Y-126656284D01*
X105337636Y-126656284D02*
X105336940Y-126311590D01*
X105336940Y-126311590D02*
X105336271Y-125933659D01*
X105336271Y-125933659D02*
X105335630Y-125522242D01*
X105335630Y-125522242D02*
X105335016Y-125077094D01*
X105335016Y-125077094D02*
X105334430Y-124597970D01*
X105334430Y-124597970D02*
X105333871Y-124084622D01*
X105333871Y-124084622D02*
X105333339Y-123536805D01*
X105333339Y-123536805D02*
X105332834Y-122954272D01*
X105332834Y-122954272D02*
X105332356Y-122336778D01*
X105332356Y-122336778D02*
X105331905Y-121684077D01*
X105331905Y-121684077D02*
X105331481Y-120995921D01*
X105331481Y-120995921D02*
X105331406Y-120859458D01*
X105331406Y-120859458D02*
X117458282Y-120859458D01*
X117458282Y-120859458D02*
X117467065Y-121039512D01*
X117467065Y-121039512D02*
X117493248Y-121153174D01*
X117493248Y-121153174D02*
X117563278Y-121319075D01*
X117563278Y-121319075D02*
X117664311Y-121466196D01*
X117664311Y-121466196D02*
X117790156Y-121586854D01*
X117790156Y-121586854D02*
X117898333Y-121655996D01*
X117898333Y-121655996D02*
X117918783Y-121666802D01*
X117918783Y-121666802D02*
X117937762Y-121676730D01*
X117937762Y-121676730D02*
X117957056Y-121685814D01*
X117957056Y-121685814D02*
X117978454Y-121694092D01*
X117978454Y-121694092D02*
X118003746Y-121701597D01*
X118003746Y-121701597D02*
X118034718Y-121708367D01*
X118034718Y-121708367D02*
X118073161Y-121714435D01*
X118073161Y-121714435D02*
X118120862Y-121719838D01*
X118120862Y-121719838D02*
X118179609Y-121724612D01*
X118179609Y-121724612D02*
X118251192Y-121728791D01*
X118251192Y-121728791D02*
X118337399Y-121732411D01*
X118337399Y-121732411D02*
X118440017Y-121735509D01*
X118440017Y-121735509D02*
X118560836Y-121738119D01*
X118560836Y-121738119D02*
X118701645Y-121740276D01*
X118701645Y-121740276D02*
X118864231Y-121742018D01*
X118864231Y-121742018D02*
X119050383Y-121743378D01*
X119050383Y-121743378D02*
X119261889Y-121744392D01*
X119261889Y-121744392D02*
X119500538Y-121745097D01*
X119500538Y-121745097D02*
X119768119Y-121745527D01*
X119768119Y-121745527D02*
X120066420Y-121745719D01*
X120066420Y-121745719D02*
X120397228Y-121745707D01*
X120397228Y-121745707D02*
X120762334Y-121745527D01*
X120762334Y-121745527D02*
X121163525Y-121745215D01*
X121163525Y-121745215D02*
X121602590Y-121744806D01*
X121602590Y-121744806D02*
X122081317Y-121744336D01*
X122081317Y-121744336D02*
X122332750Y-121744092D01*
X122332750Y-121744092D02*
X126523750Y-121740083D01*
X126523750Y-121740083D02*
X126650750Y-121677883D01*
X126650750Y-121677883D02*
X126779558Y-121597400D01*
X126779558Y-121597400D02*
X126900560Y-121490081D01*
X126900560Y-121490081D02*
X127001589Y-121368091D01*
X127001589Y-121368091D02*
X127059202Y-121269511D01*
X127059202Y-121269511D02*
X127085076Y-121210026D01*
X127085076Y-121210026D02*
X127101776Y-121156256D01*
X127101776Y-121156256D02*
X127111261Y-121096041D01*
X127111261Y-121096041D02*
X127115488Y-121017219D01*
X127115488Y-121017219D02*
X127116416Y-120914138D01*
X127116416Y-120914138D02*
X127116064Y-120866905D01*
X127116064Y-120866905D02*
X144956059Y-120866905D01*
X144956059Y-120866905D02*
X144965835Y-121049603D01*
X144965835Y-121049603D02*
X145013167Y-121228117D01*
X145013167Y-121228117D02*
X145084053Y-121363663D01*
X145084053Y-121363663D02*
X145188041Y-121490644D01*
X145188041Y-121490644D02*
X145315902Y-121600571D01*
X145315902Y-121600571D02*
X145458405Y-121684953D01*
X145458405Y-121684953D02*
X145548054Y-121720092D01*
X145548054Y-121720092D02*
X145565287Y-121723493D01*
X145565287Y-121723493D02*
X145595456Y-121726607D01*
X145595456Y-121726607D02*
X145640162Y-121729442D01*
X145640162Y-121729442D02*
X145701006Y-121732008D01*
X145701006Y-121732008D02*
X145779590Y-121734314D01*
X145779590Y-121734314D02*
X145877514Y-121736368D01*
X145877514Y-121736368D02*
X145996380Y-121738179D01*
X145996380Y-121738179D02*
X146137787Y-121739757D01*
X146137787Y-121739757D02*
X146303338Y-121741110D01*
X146303338Y-121741110D02*
X146494633Y-121742248D01*
X146494633Y-121742248D02*
X146713273Y-121743179D01*
X146713273Y-121743179D02*
X146960859Y-121743913D01*
X146960859Y-121743913D02*
X147238992Y-121744457D01*
X147238992Y-121744457D02*
X147549273Y-121744823D01*
X147549273Y-121744823D02*
X147893303Y-121745017D01*
X147893303Y-121745017D02*
X148272683Y-121745050D01*
X148272683Y-121745050D02*
X148689014Y-121744930D01*
X148689014Y-121744930D02*
X149143898Y-121744666D01*
X149143898Y-121744666D02*
X149638934Y-121744268D01*
X149638934Y-121744268D02*
X149828250Y-121744092D01*
X149828250Y-121744092D02*
X154019250Y-121740083D01*
X154019250Y-121740083D02*
X154158719Y-121671835D01*
X154158719Y-121671835D02*
X154314506Y-121572742D01*
X154314506Y-121572742D02*
X154443772Y-121443152D01*
X154443772Y-121443152D02*
X154542677Y-121288310D01*
X154542677Y-121288310D02*
X154607384Y-121113461D01*
X154607384Y-121113461D02*
X154623152Y-121037119D01*
X154623152Y-121037119D02*
X154625071Y-120993071D01*
X154625071Y-120993071D02*
X172455398Y-120993071D01*
X172455398Y-120993071D02*
X172488272Y-121160151D01*
X172488272Y-121160151D02*
X172556911Y-121320176D01*
X172556911Y-121320176D02*
X172662415Y-121467724D01*
X172662415Y-121467724D02*
X172675958Y-121482573D01*
X172675958Y-121482573D02*
X172818882Y-121607769D01*
X172818882Y-121607769D02*
X172978387Y-121696317D01*
X172978387Y-121696317D02*
X173043554Y-121720066D01*
X173043554Y-121720066D02*
X173060815Y-121723464D01*
X173060815Y-121723464D02*
X173091063Y-121726576D01*
X173091063Y-121726576D02*
X173135898Y-121729409D01*
X173135898Y-121729409D02*
X173196920Y-121731973D01*
X173196920Y-121731973D02*
X173275727Y-121734277D01*
X173275727Y-121734277D02*
X173373921Y-121736330D01*
X173373921Y-121736330D02*
X173493099Y-121738141D01*
X173493099Y-121738141D02*
X173634862Y-121739718D01*
X173634862Y-121739718D02*
X173800809Y-121741070D01*
X173800809Y-121741070D02*
X173992540Y-121742208D01*
X173992540Y-121742208D02*
X174211654Y-121743139D01*
X174211654Y-121743139D02*
X174459751Y-121743873D01*
X174459751Y-121743873D02*
X174738430Y-121744418D01*
X174738430Y-121744418D02*
X175049290Y-121744783D01*
X175049290Y-121744783D02*
X175393932Y-121744979D01*
X175393932Y-121744979D02*
X175773955Y-121745012D01*
X175773955Y-121745012D02*
X176190958Y-121744893D01*
X176190958Y-121744893D02*
X176646541Y-121744630D01*
X176646541Y-121744630D02*
X177142304Y-121744233D01*
X177142304Y-121744233D02*
X177323750Y-121744066D01*
X177323750Y-121744066D02*
X181514750Y-121740083D01*
X181514750Y-121740083D02*
X181635782Y-121683355D01*
X181635782Y-121683355D02*
X181791991Y-121587431D01*
X181791991Y-121587431D02*
X181924624Y-121459788D01*
X181924624Y-121459788D02*
X182028898Y-121306639D01*
X182028898Y-121306639D02*
X182100030Y-121134199D01*
X182100030Y-121134199D02*
X182119350Y-121055083D01*
X182119350Y-121055083D02*
X182131861Y-120884506D01*
X182131861Y-120884506D02*
X182105865Y-120714628D01*
X182105865Y-120714628D02*
X182044794Y-120551905D01*
X182044794Y-120551905D02*
X181952081Y-120402791D01*
X181952081Y-120402791D02*
X181831159Y-120273741D01*
X181831159Y-120273741D02*
X181685461Y-120171210D01*
X181685461Y-120171210D02*
X181635782Y-120145811D01*
X181635782Y-120145811D02*
X181514750Y-120089083D01*
X181514750Y-120089083D02*
X173069250Y-120089083D01*
X173069250Y-120089083D02*
X172947485Y-120146146D01*
X172947485Y-120146146D02*
X172788916Y-120241666D01*
X172788916Y-120241666D02*
X172659500Y-120362670D01*
X172659500Y-120362670D02*
X172560338Y-120503736D01*
X172560338Y-120503736D02*
X172492532Y-120659441D01*
X172492532Y-120659441D02*
X172457185Y-120824360D01*
X172457185Y-120824360D02*
X172455398Y-120993071D01*
X172455398Y-120993071D02*
X154625071Y-120993071D01*
X154625071Y-120993071D02*
X154630802Y-120861531D01*
X154630802Y-120861531D02*
X154599739Y-120688779D01*
X154599739Y-120688779D02*
X154533435Y-120525271D01*
X154533435Y-120525271D02*
X154435360Y-120377413D01*
X154435360Y-120377413D02*
X154308985Y-120251611D01*
X154308985Y-120251611D02*
X154157780Y-120154271D01*
X154157780Y-120154271D02*
X154140282Y-120145811D01*
X154140282Y-120145811D02*
X154019250Y-120089083D01*
X154019250Y-120089083D02*
X145573750Y-120089083D01*
X145573750Y-120089083D02*
X145436166Y-120155233D01*
X145436166Y-120155233D02*
X145276146Y-120254090D01*
X145276146Y-120254090D02*
X145146165Y-120379656D01*
X145146165Y-120379656D02*
X145048184Y-120526961D01*
X145048184Y-120526961D02*
X144984162Y-120691034D01*
X144984162Y-120691034D02*
X144956059Y-120866905D01*
X144956059Y-120866905D02*
X127116064Y-120866905D01*
X127116064Y-120866905D02*
X127115631Y-120808977D01*
X127115631Y-120808977D02*
X127111756Y-120733763D01*
X127111756Y-120733763D02*
X127102511Y-120676115D01*
X127102511Y-120676115D02*
X127085618Y-120623654D01*
X127085618Y-120623654D02*
X127058797Y-120564000D01*
X127058797Y-120564000D02*
X127047809Y-120541499D01*
X127047809Y-120541499D02*
X126951268Y-120390692D01*
X126951268Y-120390692D02*
X126823571Y-120260551D01*
X126823571Y-120260551D02*
X126674207Y-120160392D01*
X126674207Y-120160392D02*
X126644782Y-120145811D01*
X126644782Y-120145811D02*
X126523750Y-120089083D01*
X126523750Y-120089083D02*
X118078250Y-120089083D01*
X118078250Y-120089083D02*
X117940606Y-120154315D01*
X117940606Y-120154315D02*
X117782021Y-120251363D01*
X117782021Y-120251363D02*
X117652083Y-120375791D01*
X117652083Y-120375791D02*
X117553205Y-120522208D01*
X117553205Y-120522208D02*
X117487800Y-120685227D01*
X117487800Y-120685227D02*
X117458282Y-120859458D01*
X117458282Y-120859458D02*
X105331406Y-120859458D01*
X105331406Y-120859458D02*
X105331083Y-120272065D01*
X105331083Y-120272065D02*
X105330712Y-119512264D01*
X105330712Y-119512264D02*
X105330368Y-118716270D01*
X105330368Y-118716270D02*
X105330049Y-117883838D01*
X105330049Y-117883838D02*
X105329757Y-117014721D01*
X105329757Y-117014721D02*
X105329492Y-116108674D01*
X105329492Y-116108674D02*
X105329252Y-115165450D01*
X105329252Y-115165450D02*
X105329038Y-114184803D01*
X105329038Y-114184803D02*
X105328850Y-113166487D01*
X105328850Y-113166487D02*
X105328688Y-112110256D01*
X105328688Y-112110256D02*
X105328551Y-111015864D01*
X105328551Y-111015864D02*
X105328441Y-109883064D01*
X105328441Y-109883064D02*
X105328355Y-108711611D01*
X105328355Y-108711611D02*
X105328295Y-107501259D01*
X105328295Y-107501259D02*
X105328260Y-106251760D01*
X105328260Y-106251760D02*
X105328250Y-104962870D01*
X105328250Y-104962870D02*
X105328266Y-103634341D01*
X105328266Y-103634341D02*
X105328306Y-102265929D01*
X105328306Y-102265929D02*
X105328371Y-100857386D01*
X105328371Y-100857386D02*
X105328461Y-99408466D01*
X105328461Y-99408466D02*
X105328576Y-97918925D01*
X105328576Y-97918925D02*
X105328715Y-96388514D01*
X105328715Y-96388514D02*
X105328878Y-94816989D01*
X105328878Y-94816989D02*
X105329066Y-93204102D01*
X105329066Y-93204102D02*
X105329278Y-91549609D01*
X105329278Y-91549609D02*
X105329515Y-89853263D01*
X105329515Y-89853263D02*
X105329762Y-88201500D01*
X105329762Y-88201500D02*
X105330005Y-86629950D01*
X105330005Y-86629950D02*
X105330230Y-85186602D01*
X105330230Y-85186602D02*
X117457952Y-85186602D01*
X117457952Y-85186602D02*
X117475440Y-85362530D01*
X117475440Y-85362530D02*
X117529824Y-85533022D01*
X117529824Y-85533022D02*
X117621616Y-85692119D01*
X117621616Y-85692119D02*
X117645706Y-85723541D01*
X117645706Y-85723541D02*
X117749313Y-85828104D01*
X117749313Y-85828104D02*
X117880024Y-85914631D01*
X117880024Y-85914631D02*
X117997075Y-85969656D01*
X117997075Y-85969656D02*
X118120583Y-86020549D01*
X118120583Y-86020549D02*
X122322166Y-86015649D01*
X122322166Y-86015649D02*
X126523750Y-86010750D01*
X126523750Y-86010750D02*
X126644782Y-85954022D01*
X126644782Y-85954022D02*
X126795545Y-85861594D01*
X126795545Y-85861594D02*
X126927187Y-85738004D01*
X126927187Y-85738004D02*
X127029700Y-85593048D01*
X127029700Y-85593048D02*
X127046707Y-85560573D01*
X127046707Y-85560573D02*
X127082938Y-85479624D01*
X127082938Y-85479624D02*
X127105104Y-85406337D01*
X127105104Y-85406337D02*
X127117463Y-85322754D01*
X127117463Y-85322754D02*
X127121769Y-85257918D01*
X127121769Y-85257918D02*
X172454179Y-85257918D01*
X172454179Y-85257918D02*
X172484321Y-85423401D01*
X172484321Y-85423401D02*
X172549775Y-85581338D01*
X172549775Y-85581338D02*
X172651747Y-85726186D01*
X172651747Y-85726186D02*
X172660811Y-85736271D01*
X172660811Y-85736271D02*
X172804724Y-85867692D01*
X172804724Y-85867692D02*
X172960451Y-85959336D01*
X172960451Y-85959336D02*
X173043554Y-85990732D01*
X173043554Y-85990732D02*
X173060815Y-85994131D01*
X173060815Y-85994131D02*
X173091063Y-85997243D01*
X173091063Y-85997243D02*
X173135898Y-86000076D01*
X173135898Y-86000076D02*
X173196920Y-86002640D01*
X173196920Y-86002640D02*
X173275727Y-86004944D01*
X173275727Y-86004944D02*
X173373921Y-86006997D01*
X173373921Y-86006997D02*
X173493099Y-86008807D01*
X173493099Y-86008807D02*
X173634862Y-86010384D01*
X173634862Y-86010384D02*
X173800809Y-86011737D01*
X173800809Y-86011737D02*
X173992540Y-86012875D01*
X173992540Y-86012875D02*
X174211654Y-86013806D01*
X174211654Y-86013806D02*
X174459751Y-86014539D01*
X174459751Y-86014539D02*
X174738430Y-86015084D01*
X174738430Y-86015084D02*
X175049290Y-86015450D01*
X175049290Y-86015450D02*
X175393932Y-86015645D01*
X175393932Y-86015645D02*
X175773955Y-86015679D01*
X175773955Y-86015679D02*
X176190958Y-86015560D01*
X176190958Y-86015560D02*
X176646541Y-86015297D01*
X176646541Y-86015297D02*
X177142304Y-86014900D01*
X177142304Y-86014900D02*
X177323750Y-86014732D01*
X177323750Y-86014732D02*
X181514750Y-86010750D01*
X181514750Y-86010750D02*
X181635782Y-85954022D01*
X181635782Y-85954022D02*
X181787508Y-85861683D01*
X181787508Y-85861683D02*
X181916061Y-85741000D01*
X181916061Y-85741000D02*
X182017853Y-85598520D01*
X182017853Y-85598520D02*
X182089293Y-85440793D01*
X182089293Y-85440793D02*
X182126792Y-85274368D01*
X182126792Y-85274368D02*
X182126760Y-85105793D01*
X182126760Y-85105793D02*
X182121242Y-85068399D01*
X182121242Y-85068399D02*
X182068553Y-84880717D01*
X182068553Y-84880717D02*
X181981798Y-84714589D01*
X181981798Y-84714589D02*
X181863738Y-84573804D01*
X181863738Y-84573804D02*
X181717134Y-84462147D01*
X181717134Y-84462147D02*
X181654219Y-84427997D01*
X181654219Y-84427997D02*
X181514750Y-84359750D01*
X181514750Y-84359750D02*
X173069250Y-84359750D01*
X173069250Y-84359750D02*
X172947485Y-84416812D01*
X172947485Y-84416812D02*
X172791030Y-84511222D01*
X172791030Y-84511222D02*
X172662664Y-84631330D01*
X172662664Y-84631330D02*
X172563593Y-84771594D01*
X172563593Y-84771594D02*
X172495019Y-84926473D01*
X172495019Y-84926473D02*
X172458146Y-85090429D01*
X172458146Y-85090429D02*
X172454179Y-85257918D01*
X172454179Y-85257918D02*
X127121769Y-85257918D01*
X127121769Y-85257918D02*
X127123041Y-85238771D01*
X127123041Y-85238771D02*
X127120939Y-85072474D01*
X127120939Y-85072474D02*
X127095042Y-84931016D01*
X127095042Y-84931016D02*
X127042180Y-84802264D01*
X127042180Y-84802264D02*
X126984561Y-84709073D01*
X126984561Y-84709073D02*
X126863963Y-84570656D01*
X126863963Y-84570656D02*
X126719298Y-84463026D01*
X126719298Y-84463026D02*
X126557468Y-84391304D01*
X126557468Y-84391304D02*
X126555500Y-84390697D01*
X126555500Y-84390697D02*
X126538619Y-84385702D01*
X126538619Y-84385702D02*
X126520742Y-84381121D01*
X126520742Y-84381121D02*
X126500071Y-84376939D01*
X126500071Y-84376939D02*
X126474804Y-84373140D01*
X126474804Y-84373140D02*
X126443145Y-84369709D01*
X126443145Y-84369709D02*
X126403291Y-84366631D01*
X126403291Y-84366631D02*
X126353445Y-84363890D01*
X126353445Y-84363890D02*
X126291807Y-84361472D01*
X126291807Y-84361472D02*
X126216577Y-84359361D01*
X126216577Y-84359361D02*
X126125956Y-84357542D01*
X126125956Y-84357542D02*
X126018144Y-84355999D01*
X126018144Y-84355999D02*
X125891343Y-84354717D01*
X125891343Y-84354717D02*
X125743752Y-84353681D01*
X125743752Y-84353681D02*
X125573572Y-84352876D01*
X125573572Y-84352876D02*
X125379004Y-84352287D01*
X125379004Y-84352287D02*
X125158248Y-84351897D01*
X125158248Y-84351897D02*
X124909505Y-84351692D01*
X124909505Y-84351692D02*
X124630976Y-84351657D01*
X124630976Y-84351657D02*
X124320861Y-84351776D01*
X124320861Y-84351776D02*
X123977360Y-84352034D01*
X123977360Y-84352034D02*
X123598674Y-84352416D01*
X123598674Y-84352416D02*
X123183004Y-84352906D01*
X123183004Y-84352906D02*
X122728551Y-84353489D01*
X122728551Y-84353489D02*
X122247634Y-84354132D01*
X122247634Y-84354132D02*
X118077352Y-84359750D01*
X118077352Y-84359750D02*
X117940217Y-84428559D01*
X117940217Y-84428559D02*
X117862375Y-84470714D01*
X117862375Y-84470714D02*
X117792232Y-84514009D01*
X117792232Y-84514009D02*
X117746724Y-84547661D01*
X117746724Y-84547661D02*
X117621746Y-84685766D01*
X117621746Y-84685766D02*
X117531616Y-84842263D01*
X117531616Y-84842263D02*
X117476848Y-85011194D01*
X117476848Y-85011194D02*
X117457952Y-85186602D01*
X117457952Y-85186602D02*
X105330230Y-85186602D01*
X105330230Y-85186602D02*
X105330244Y-85100170D01*
X105330244Y-85100170D02*
X105330479Y-83611592D01*
X105330479Y-83611592D02*
X105330711Y-82163654D01*
X105330711Y-82163654D02*
X105330940Y-80755789D01*
X105330940Y-80755789D02*
X105331168Y-79387432D01*
X105331168Y-79387432D02*
X105331394Y-78058019D01*
X105331394Y-78058019D02*
X105331620Y-76766985D01*
X105331620Y-76766985D02*
X105331845Y-75513765D01*
X105331845Y-75513765D02*
X105332072Y-74297794D01*
X105332072Y-74297794D02*
X105332299Y-73118506D01*
X105332299Y-73118506D02*
X105332529Y-71975338D01*
X105332529Y-71975338D02*
X105332761Y-70867724D01*
X105332761Y-70867724D02*
X105332996Y-69795098D01*
X105332996Y-69795098D02*
X105333235Y-68756897D01*
X105333235Y-68756897D02*
X105333478Y-67752556D01*
X105333478Y-67752556D02*
X105333727Y-66781508D01*
X105333727Y-66781508D02*
X105333981Y-65843190D01*
X105333981Y-65843190D02*
X105334241Y-64937037D01*
X105334241Y-64937037D02*
X105334509Y-64062483D01*
X105334509Y-64062483D02*
X105334784Y-63218963D01*
X105334784Y-63218963D02*
X105335067Y-62405913D01*
X105335067Y-62405913D02*
X105335359Y-61622768D01*
X105335359Y-61622768D02*
X105335661Y-60868962D01*
X105335661Y-60868962D02*
X105335973Y-60143932D01*
X105335973Y-60143932D02*
X105336295Y-59447111D01*
X105336295Y-59447111D02*
X105336629Y-58777935D01*
X105336629Y-58777935D02*
X105336975Y-58135839D01*
X105336975Y-58135839D02*
X105337334Y-57520258D01*
X105337334Y-57520258D02*
X105337706Y-56930628D01*
X105337706Y-56930628D02*
X105338091Y-56366382D01*
X105338091Y-56366382D02*
X105338492Y-55826957D01*
X105338492Y-55826957D02*
X105338907Y-55311787D01*
X105338907Y-55311787D02*
X105339339Y-54820307D01*
X105339339Y-54820307D02*
X105339786Y-54351953D01*
X105339786Y-54351953D02*
X105340251Y-53906159D01*
X105340251Y-53906159D02*
X105340734Y-53482361D01*
X105340734Y-53482361D02*
X105341235Y-53079994D01*
X105341235Y-53079994D02*
X105341755Y-52698492D01*
X105341755Y-52698492D02*
X105342294Y-52337291D01*
X105342294Y-52337291D02*
X105342854Y-51995825D01*
X105342854Y-51995825D02*
X105343435Y-51673531D01*
X105343435Y-51673531D02*
X105344037Y-51369842D01*
X105344037Y-51369842D02*
X105344661Y-51084195D01*
X105344661Y-51084195D02*
X105345308Y-50816023D01*
X105345308Y-50816023D02*
X105345979Y-50564762D01*
X105345979Y-50564762D02*
X105346674Y-50329848D01*
X105346674Y-50329848D02*
X105347393Y-50110715D01*
X105347393Y-50110715D02*
X105348137Y-49906798D01*
X105348137Y-49906798D02*
X105348908Y-49717533D01*
X105348908Y-49717533D02*
X105349705Y-49542354D01*
X105349705Y-49542354D02*
X105350091Y-49466500D01*
X105350091Y-49466500D02*
X117465471Y-49466500D01*
X117465471Y-49466500D02*
X117466966Y-49568817D01*
X117466966Y-49568817D02*
X117473506Y-49643415D01*
X117473506Y-49643415D02*
X117487655Y-49704834D01*
X117487655Y-49704834D02*
X117511973Y-49767613D01*
X117511973Y-49767613D02*
X117522668Y-49791109D01*
X117522668Y-49791109D02*
X117619981Y-49959653D01*
X117619981Y-49959653D02*
X117739895Y-50093408D01*
X117739895Y-50093408D02*
X117885187Y-50194990D01*
X117885187Y-50194990D02*
X118011127Y-50251150D01*
X118011127Y-50251150D02*
X118025145Y-50255812D01*
X118025145Y-50255812D02*
X118041442Y-50260089D01*
X118041442Y-50260089D02*
X118061797Y-50263994D01*
X118061797Y-50263994D02*
X118087989Y-50267543D01*
X118087989Y-50267543D02*
X118121796Y-50270749D01*
X118121796Y-50270749D02*
X118164997Y-50273627D01*
X118164997Y-50273627D02*
X118219372Y-50276192D01*
X118219372Y-50276192D02*
X118286698Y-50278457D01*
X118286698Y-50278457D02*
X118368756Y-50280438D01*
X118368756Y-50280438D02*
X118467323Y-50282147D01*
X118467323Y-50282147D02*
X118584179Y-50283601D01*
X118584179Y-50283601D02*
X118721102Y-50284813D01*
X118721102Y-50284813D02*
X118879872Y-50285798D01*
X118879872Y-50285798D02*
X119062267Y-50286570D01*
X119062267Y-50286570D02*
X119270066Y-50287144D01*
X119270066Y-50287144D02*
X119505048Y-50287533D01*
X119505048Y-50287533D02*
X119768991Y-50287752D01*
X119768991Y-50287752D02*
X120063675Y-50287817D01*
X120063675Y-50287817D02*
X120390879Y-50287740D01*
X120390879Y-50287740D02*
X120752381Y-50287536D01*
X120752381Y-50287536D02*
X121149960Y-50287221D01*
X121149960Y-50287221D02*
X121585395Y-50286808D01*
X121585395Y-50286808D02*
X122060466Y-50286311D01*
X122060466Y-50286311D02*
X122322166Y-50286026D01*
X122322166Y-50286026D02*
X126523750Y-50281416D01*
X126523750Y-50281416D02*
X126644782Y-50224688D01*
X126644782Y-50224688D02*
X126797130Y-50131138D01*
X126797130Y-50131138D02*
X126929578Y-50005871D01*
X126929578Y-50005871D02*
X127032636Y-49858205D01*
X127032636Y-49858205D02*
X127047809Y-49829000D01*
X127047809Y-49829000D02*
X127078268Y-49764460D01*
X127078268Y-49764460D02*
X127098073Y-49711053D01*
X127098073Y-49711053D02*
X127109505Y-49656399D01*
X127109505Y-49656399D02*
X127114841Y-49588118D01*
X127114841Y-49588118D02*
X127116363Y-49493832D01*
X127116363Y-49493832D02*
X127116416Y-49456361D01*
X127116416Y-49456361D02*
X127115592Y-49364839D01*
X127115592Y-49364839D02*
X144960352Y-49364839D01*
X144960352Y-49364839D02*
X144960512Y-49538848D01*
X144960512Y-49538848D02*
X144994454Y-49708927D01*
X144994454Y-49708927D02*
X145060697Y-49868380D01*
X145060697Y-49868380D02*
X145157755Y-50010510D01*
X145157755Y-50010510D02*
X145284147Y-50128619D01*
X145284147Y-50128619D02*
X145315027Y-50150240D01*
X145315027Y-50150240D02*
X145338467Y-50166615D01*
X145338467Y-50166615D02*
X145358510Y-50181671D01*
X145358510Y-50181671D02*
X145376932Y-50195460D01*
X145376932Y-50195460D02*
X145395509Y-50208037D01*
X145395509Y-50208037D02*
X145416016Y-50219455D01*
X145416016Y-50219455D02*
X145440231Y-50229768D01*
X145440231Y-50229768D02*
X145469929Y-50239029D01*
X145469929Y-50239029D02*
X145506886Y-50247291D01*
X145506886Y-50247291D02*
X145552879Y-50254608D01*
X145552879Y-50254608D02*
X145609682Y-50261033D01*
X145609682Y-50261033D02*
X145679073Y-50266620D01*
X145679073Y-50266620D02*
X145762827Y-50271422D01*
X145762827Y-50271422D02*
X145862720Y-50275493D01*
X145862720Y-50275493D02*
X145980529Y-50278887D01*
X145980529Y-50278887D02*
X146118029Y-50281656D01*
X146118029Y-50281656D02*
X146276996Y-50283854D01*
X146276996Y-50283854D02*
X146459207Y-50285534D01*
X146459207Y-50285534D02*
X146666437Y-50286751D01*
X146666437Y-50286751D02*
X146900463Y-50287557D01*
X146900463Y-50287557D02*
X147163061Y-50288006D01*
X147163061Y-50288006D02*
X147456005Y-50288152D01*
X147456005Y-50288152D02*
X147781074Y-50288047D01*
X147781074Y-50288047D02*
X148140042Y-50287746D01*
X148140042Y-50287746D02*
X148534686Y-50287302D01*
X148534686Y-50287302D02*
X148966782Y-50286768D01*
X148966782Y-50286768D02*
X149438105Y-50286198D01*
X149438105Y-50286198D02*
X149817666Y-50285779D01*
X149817666Y-50285779D02*
X154019250Y-50281416D01*
X154019250Y-50281416D02*
X154150956Y-50220580D01*
X154150956Y-50220580D02*
X154297533Y-50130478D01*
X154297533Y-50130478D02*
X154424284Y-50008040D01*
X154424284Y-50008040D02*
X154525617Y-49860799D01*
X154525617Y-49860799D02*
X154595941Y-49696287D01*
X154595941Y-49696287D02*
X154621989Y-49586052D01*
X154621989Y-49586052D02*
X154630776Y-49407039D01*
X154630776Y-49407039D02*
X154630333Y-49404468D01*
X154630333Y-49404468D02*
X172454981Y-49404468D01*
X172454981Y-49404468D02*
X172459353Y-49570804D01*
X172459353Y-49570804D02*
X172497368Y-49734756D01*
X172497368Y-49734756D02*
X172570421Y-49891019D01*
X172570421Y-49891019D02*
X172679905Y-50034288D01*
X172679905Y-50034288D02*
X172691310Y-50046077D01*
X172691310Y-50046077D02*
X172803094Y-50142431D01*
X172803094Y-50142431D02*
X172931342Y-50217477D01*
X172931342Y-50217477D02*
X173036342Y-50261406D01*
X173036342Y-50261406D02*
X173051951Y-50264778D01*
X173051951Y-50264778D02*
X173080815Y-50267866D01*
X173080815Y-50267866D02*
X173124518Y-50270679D01*
X173124518Y-50270679D02*
X173184644Y-50273225D01*
X173184644Y-50273225D02*
X173262776Y-50275515D01*
X173262776Y-50275515D02*
X173360498Y-50277556D01*
X173360498Y-50277556D02*
X173479394Y-50279357D01*
X173479394Y-50279357D02*
X173621047Y-50280928D01*
X173621047Y-50280928D02*
X173787041Y-50282276D01*
X173787041Y-50282276D02*
X173978960Y-50283412D01*
X173978960Y-50283412D02*
X174198387Y-50284343D01*
X174198387Y-50284343D02*
X174446906Y-50285078D01*
X174446906Y-50285078D02*
X174726100Y-50285627D01*
X174726100Y-50285627D02*
X175037553Y-50285998D01*
X175037553Y-50285998D02*
X175382849Y-50286200D01*
X175382849Y-50286200D02*
X175763571Y-50286242D01*
X175763571Y-50286242D02*
X176181304Y-50286133D01*
X176181304Y-50286133D02*
X176637629Y-50285881D01*
X176637629Y-50285881D02*
X177134133Y-50285495D01*
X177134133Y-50285495D02*
X177323750Y-50285325D01*
X177323750Y-50285325D02*
X181535916Y-50281416D01*
X181535916Y-50281416D02*
X181662916Y-50214396D01*
X181662916Y-50214396D02*
X181815137Y-50112633D01*
X181815137Y-50112633D02*
X181941263Y-49984739D01*
X181941263Y-49984739D02*
X182038077Y-49836859D01*
X182038077Y-49836859D02*
X182102360Y-49675138D01*
X182102360Y-49675138D02*
X182130897Y-49505721D01*
X182130897Y-49505721D02*
X182121242Y-49339066D01*
X182121242Y-49339066D02*
X182068563Y-49149830D01*
X182068563Y-49149830D02*
X181982114Y-48984246D01*
X181982114Y-48984246D02*
X181863463Y-48844740D01*
X181863463Y-48844740D02*
X181741174Y-48750191D01*
X181741174Y-48750191D02*
X181718067Y-48734873D01*
X181718067Y-48734873D02*
X181697820Y-48720800D01*
X181697820Y-48720800D02*
X181678641Y-48707919D01*
X181678641Y-48707919D02*
X181658740Y-48696176D01*
X181658740Y-48696176D02*
X181636327Y-48685521D01*
X181636327Y-48685521D02*
X181609610Y-48675899D01*
X181609610Y-48675899D02*
X181576799Y-48667259D01*
X181576799Y-48667259D02*
X181536102Y-48659548D01*
X181536102Y-48659548D02*
X181485730Y-48652714D01*
X181485730Y-48652714D02*
X181423892Y-48646704D01*
X181423892Y-48646704D02*
X181348796Y-48641466D01*
X181348796Y-48641466D02*
X181258652Y-48636947D01*
X181258652Y-48636947D02*
X181151669Y-48633095D01*
X181151669Y-48633095D02*
X181026057Y-48629857D01*
X181026057Y-48629857D02*
X180880024Y-48627182D01*
X180880024Y-48627182D02*
X180711780Y-48625016D01*
X180711780Y-48625016D02*
X180519535Y-48623306D01*
X180519535Y-48623306D02*
X180301497Y-48622002D01*
X180301497Y-48622002D02*
X180055875Y-48621049D01*
X180055875Y-48621049D02*
X179780879Y-48620396D01*
X179780879Y-48620396D02*
X179474719Y-48619990D01*
X179474719Y-48619990D02*
X179135603Y-48619779D01*
X179135603Y-48619779D02*
X178761740Y-48619710D01*
X178761740Y-48619710D02*
X178351340Y-48619730D01*
X178351340Y-48619730D02*
X177902613Y-48619788D01*
X177902613Y-48619788D02*
X177413766Y-48619831D01*
X177413766Y-48619831D02*
X177291999Y-48619833D01*
X177291999Y-48619833D02*
X176797178Y-48619857D01*
X176797178Y-48619857D02*
X176342920Y-48619940D01*
X176342920Y-48619940D02*
X175927456Y-48620095D01*
X175927456Y-48620095D02*
X175549017Y-48620336D01*
X175549017Y-48620336D02*
X175205833Y-48620678D01*
X175205833Y-48620678D02*
X174896133Y-48621134D01*
X174896133Y-48621134D02*
X174618150Y-48621718D01*
X174618150Y-48621718D02*
X174370112Y-48622445D01*
X174370112Y-48622445D02*
X174150251Y-48623329D01*
X174150251Y-48623329D02*
X173956796Y-48624383D01*
X173956796Y-48624383D02*
X173787979Y-48625622D01*
X173787979Y-48625622D02*
X173642029Y-48627060D01*
X173642029Y-48627060D02*
X173517176Y-48628710D01*
X173517176Y-48628710D02*
X173411653Y-48630587D01*
X173411653Y-48630587D02*
X173323687Y-48632705D01*
X173323687Y-48632705D02*
X173251511Y-48635078D01*
X173251511Y-48635078D02*
X173193354Y-48637720D01*
X173193354Y-48637720D02*
X173147447Y-48640645D01*
X173147447Y-48640645D02*
X173112020Y-48643867D01*
X173112020Y-48643867D02*
X173085304Y-48647400D01*
X173085304Y-48647400D02*
X173065528Y-48651258D01*
X173065528Y-48651258D02*
X173057216Y-48653451D01*
X173057216Y-48653451D02*
X172888996Y-48722692D01*
X172888996Y-48722692D02*
X172746056Y-48821378D01*
X172746056Y-48821378D02*
X172629791Y-48944203D01*
X172629791Y-48944203D02*
X172541594Y-49085863D01*
X172541594Y-49085863D02*
X172482859Y-49241052D01*
X172482859Y-49241052D02*
X172454981Y-49404468D01*
X172454981Y-49404468D02*
X154630333Y-49404468D01*
X154630333Y-49404468D02*
X154600909Y-49234085D01*
X154600909Y-49234085D02*
X154536060Y-49072528D01*
X154536060Y-49072528D02*
X154439903Y-48927706D01*
X154439903Y-48927706D02*
X154316109Y-48804955D01*
X154316109Y-48804955D02*
X154168353Y-48709613D01*
X154168353Y-48709613D02*
X154000306Y-48647018D01*
X154000306Y-48647018D02*
X153971175Y-48640269D01*
X153971175Y-48640269D02*
X153936066Y-48637427D01*
X153936066Y-48637427D02*
X153858935Y-48634847D01*
X153858935Y-48634847D02*
X153740093Y-48632529D01*
X153740093Y-48632529D02*
X153579850Y-48630474D01*
X153579850Y-48630474D02*
X153378518Y-48628683D01*
X153378518Y-48628683D02*
X153136405Y-48627159D01*
X153136405Y-48627159D02*
X152853823Y-48625901D01*
X152853823Y-48625901D02*
X152531083Y-48624911D01*
X152531083Y-48624911D02*
X152168496Y-48624191D01*
X152168496Y-48624191D02*
X151766371Y-48623741D01*
X151766371Y-48623741D02*
X151325019Y-48623562D01*
X151325019Y-48623562D02*
X150844751Y-48623656D01*
X150844751Y-48623656D02*
X150325878Y-48624023D01*
X150325878Y-48624023D02*
X149768710Y-48624665D01*
X149768710Y-48624665D02*
X149733000Y-48624714D01*
X149733000Y-48624714D02*
X145594916Y-48630416D01*
X145594916Y-48630416D02*
X145473279Y-48679536D01*
X145473279Y-48679536D02*
X145360965Y-48739968D01*
X145360965Y-48739968D02*
X145246377Y-48827084D01*
X145246377Y-48827084D02*
X145143707Y-48928570D01*
X145143707Y-48928570D02*
X145067315Y-49031821D01*
X145067315Y-49031821D02*
X144995459Y-49193597D01*
X144995459Y-49193597D02*
X144960352Y-49364839D01*
X144960352Y-49364839D02*
X127115592Y-49364839D01*
X127115592Y-49364839D02*
X127115454Y-49349554D01*
X127115454Y-49349554D02*
X127111249Y-49273138D01*
X127111249Y-49273138D02*
X127101823Y-49215186D01*
X127101823Y-49215186D02*
X127085199Y-49163776D01*
X127085199Y-49163776D02*
X127059398Y-49106983D01*
X127059398Y-49106983D02*
X127057985Y-49104102D01*
X127057985Y-49104102D02*
X126964333Y-48949513D01*
X126964333Y-48949513D02*
X126848433Y-48827034D01*
X126848433Y-48827034D02*
X126702741Y-48729080D01*
X126702741Y-48729080D02*
X126666341Y-48710264D01*
X126666341Y-48710264D02*
X126504780Y-48630416D01*
X126504780Y-48630416D02*
X118099416Y-48630416D01*
X118099416Y-48630416D02*
X117972416Y-48681397D01*
X117972416Y-48681397D02*
X117879616Y-48727927D01*
X117879616Y-48727927D02*
X117788546Y-48794922D01*
X117788546Y-48794922D02*
X117705897Y-48871897D01*
X117705897Y-48871897D02*
X117604086Y-48985178D01*
X117604086Y-48985178D02*
X117533958Y-49094409D01*
X117533958Y-49094409D02*
X117490736Y-49211403D01*
X117490736Y-49211403D02*
X117469642Y-49347975D01*
X117469642Y-49347975D02*
X117465471Y-49466500D01*
X117465471Y-49466500D02*
X105350091Y-49466500D01*
X105350091Y-49466500D02*
X105350529Y-49380696D01*
X105350529Y-49380696D02*
X105351381Y-49231995D01*
X105351381Y-49231995D02*
X105352262Y-49095685D01*
X105352262Y-49095685D02*
X105353171Y-48971203D01*
X105353171Y-48971203D02*
X105354111Y-48857982D01*
X105354111Y-48857982D02*
X105355080Y-48755457D01*
X105355080Y-48755457D02*
X105356081Y-48663065D01*
X105356081Y-48663065D02*
X105357114Y-48580239D01*
X105357114Y-48580239D02*
X105358178Y-48506415D01*
X105358178Y-48506415D02*
X105359276Y-48441029D01*
X105359276Y-48441029D02*
X105360407Y-48383514D01*
X105360407Y-48383514D02*
X105361572Y-48333307D01*
X105361572Y-48333307D02*
X105362772Y-48289842D01*
X105362772Y-48289842D02*
X105364008Y-48252554D01*
X105364008Y-48252554D02*
X105365279Y-48220878D01*
X105365279Y-48220878D02*
X105366587Y-48194250D01*
X105366587Y-48194250D02*
X105367933Y-48172104D01*
X105367933Y-48172104D02*
X105369316Y-48153876D01*
X105369316Y-48153876D02*
X105370738Y-48139000D01*
X105370738Y-48139000D02*
X105372200Y-48126912D01*
X105372200Y-48126912D02*
X105373701Y-48117047D01*
X105373701Y-48117047D02*
X105374645Y-48111833D01*
X105374645Y-48111833D02*
X105450023Y-47805387D01*
X105450023Y-47805387D02*
X105556467Y-47498296D01*
X105556467Y-47498296D02*
X105689106Y-47202059D01*
X105689106Y-47202059D02*
X105843070Y-46928173D01*
X105843070Y-46928173D02*
X105932568Y-46794726D01*
X105932568Y-46794726D02*
X106040335Y-46657072D01*
X106040335Y-46657072D02*
X106172099Y-46508864D01*
X106172099Y-46508864D02*
X106316362Y-46361824D01*
X106316362Y-46361824D02*
X106461630Y-46227675D01*
X106461630Y-46227675D02*
X106595333Y-46118935D01*
X106595333Y-46118935D02*
X106889626Y-45922509D01*
X106889626Y-45922509D02*
X107197688Y-45761897D01*
X107197688Y-45761897D02*
X107524872Y-45634795D01*
X107524872Y-45634795D02*
X107876534Y-45538896D01*
X107876534Y-45538896D02*
X108002285Y-45513053D01*
X108002285Y-45513053D02*
X108011172Y-45511648D01*
X108011172Y-45511648D02*
X108023197Y-45510278D01*
X108023197Y-45510278D02*
X108038912Y-45508944D01*
X108038912Y-45508944D02*
X108058871Y-45507645D01*
X108058871Y-45507645D02*
X108083623Y-45506380D01*
X108083623Y-45506380D02*
X108113722Y-45505149D01*
X108113722Y-45505149D02*
X108149720Y-45503952D01*
X108149720Y-45503952D02*
X108192169Y-45502788D01*
X108192169Y-45502788D02*
X108241620Y-45501655D01*
X108241620Y-45501655D02*
X108298627Y-45500555D01*
X108298627Y-45500555D02*
X108363740Y-45499485D01*
X108363740Y-45499485D02*
X108437512Y-45498446D01*
X108437512Y-45498446D02*
X108520495Y-45497437D01*
X108520495Y-45497437D02*
X108613241Y-45496458D01*
X108613241Y-45496458D02*
X108716303Y-45495507D01*
X108716303Y-45495507D02*
X108830231Y-45494585D01*
X108830231Y-45494585D02*
X108955579Y-45493690D01*
X108955579Y-45493690D02*
X109092898Y-45492822D01*
X109092898Y-45492822D02*
X109242741Y-45491982D01*
X109242741Y-45491982D02*
X109405659Y-45491167D01*
X109405659Y-45491167D02*
X109582205Y-45490377D01*
X109582205Y-45490377D02*
X109772930Y-45489613D01*
X109772930Y-45489613D02*
X109978386Y-45488873D01*
X109978386Y-45488873D02*
X110199127Y-45488157D01*
X110199127Y-45488157D02*
X110435703Y-45487464D01*
X110435703Y-45487464D02*
X110688667Y-45486794D01*
X110688667Y-45486794D02*
X110958571Y-45486146D01*
X110958571Y-45486146D02*
X111245967Y-45485519D01*
X111245967Y-45485519D02*
X111551407Y-45484913D01*
X111551407Y-45484913D02*
X111875442Y-45484328D01*
X111875442Y-45484328D02*
X112218626Y-45483763D01*
X112218626Y-45483763D02*
X112581510Y-45483217D01*
X112581510Y-45483217D02*
X112964647Y-45482690D01*
X112964647Y-45482690D02*
X113368587Y-45482181D01*
X113368587Y-45482181D02*
X113793884Y-45481690D01*
X113793884Y-45481690D02*
X114241090Y-45481215D01*
X114241090Y-45481215D02*
X114710756Y-45480758D01*
X114710756Y-45480758D02*
X115203434Y-45480316D01*
X115203434Y-45480316D02*
X115719677Y-45479890D01*
X115719677Y-45479890D02*
X116260037Y-45479478D01*
X116260037Y-45479478D02*
X116825065Y-45479081D01*
X116825065Y-45479081D02*
X117415314Y-45478697D01*
X117415314Y-45478697D02*
X118031336Y-45478327D01*
X118031336Y-45478327D02*
X118673683Y-45477969D01*
X118673683Y-45477969D02*
X119342907Y-45477623D01*
X119342907Y-45477623D02*
X120039560Y-45477289D01*
X120039560Y-45477289D02*
X120764193Y-45476965D01*
X120764193Y-45476965D02*
X121517360Y-45476652D01*
X121517360Y-45476652D02*
X122299613Y-45476349D01*
X122299613Y-45476349D02*
X123111502Y-45476055D01*
X123111502Y-45476055D02*
X123953581Y-45475769D01*
X123953581Y-45475769D02*
X124826401Y-45475492D01*
X124826401Y-45475492D02*
X125730515Y-45475222D01*
X125730515Y-45475222D02*
X126666474Y-45474959D01*
X126666474Y-45474959D02*
X127634830Y-45474703D01*
X127634830Y-45474703D02*
X128636137Y-45474452D01*
X128636137Y-45474452D02*
X129670944Y-45474207D01*
X129670944Y-45474207D02*
X130739806Y-45473967D01*
X130739806Y-45473967D02*
X131843274Y-45473730D01*
X131843274Y-45473730D02*
X132981899Y-45473497D01*
X132981899Y-45473497D02*
X134156234Y-45473268D01*
X134156234Y-45473268D02*
X135366831Y-45473040D01*
X135366831Y-45473040D02*
X136614242Y-45472815D01*
X136614242Y-45472815D02*
X137899020Y-45472591D01*
X137899020Y-45472591D02*
X139221715Y-45472368D01*
X139221715Y-45472368D02*
X140582881Y-45472145D01*
X140582881Y-45472145D02*
X141983069Y-45471922D01*
X141983069Y-45471922D02*
X143422831Y-45471698D01*
X143422831Y-45471698D02*
X144902720Y-45471472D01*
X144902720Y-45471472D02*
X146423287Y-45471245D01*
X146423287Y-45471245D02*
X147985085Y-45471015D01*
X147985085Y-45471015D02*
X149584833Y-45470782D01*
X149584833Y-45470782D02*
X151363407Y-45470535D01*
X151363407Y-45470535D02*
X153104967Y-45470315D01*
X153104967Y-45470315D02*
X154809391Y-45470122D01*
X154809391Y-45470122D02*
X156476560Y-45469956D01*
X156476560Y-45469956D02*
X158106351Y-45469816D01*
X158106351Y-45469816D02*
X159698646Y-45469703D01*
X159698646Y-45469703D02*
X161253322Y-45469616D01*
X161253322Y-45469616D02*
X162770259Y-45469556D01*
X162770259Y-45469556D02*
X164249336Y-45469523D01*
X164249336Y-45469523D02*
X165690433Y-45469515D01*
X165690433Y-45469515D02*
X167093428Y-45469534D01*
X167093428Y-45469534D02*
X167093428Y-45469534D01*
G36*
X105330712Y-119512264D02*
G01*
X105330368Y-118716270D01*
X105330049Y-117883838D01*
X105329757Y-117014721D01*
X105329492Y-116108674D01*
X105329252Y-115165450D01*
X105329038Y-114184803D01*
X105328850Y-113166487D01*
X105328688Y-112110256D01*
X105328551Y-111015864D01*
X105328441Y-109883064D01*
X105328355Y-108711611D01*
X105328295Y-107501259D01*
X105328260Y-106251760D01*
X105328250Y-104962870D01*
X105328266Y-103634341D01*
X105328306Y-102265929D01*
X105328371Y-100857386D01*
X105328461Y-99408466D01*
X105328576Y-97918925D01*
X105328715Y-96388514D01*
X105328878Y-94816989D01*
X105329066Y-93204102D01*
X105329278Y-91549609D01*
X105329515Y-89853263D01*
X105329762Y-88201500D01*
X105330005Y-86629950D01*
X105330230Y-85186602D01*
X117457952Y-85186602D01*
X117475440Y-85362530D01*
X117529824Y-85533022D01*
X117621616Y-85692119D01*
X117645706Y-85723541D01*
X117749313Y-85828104D01*
X117880024Y-85914631D01*
X117997075Y-85969656D01*
X118120583Y-86020549D01*
X122322166Y-86015649D01*
X126523750Y-86010750D01*
X126644782Y-85954022D01*
X126795545Y-85861594D01*
X126927187Y-85738004D01*
X127029700Y-85593048D01*
X127046707Y-85560573D01*
X127082938Y-85479624D01*
X127105104Y-85406337D01*
X127117463Y-85322754D01*
X127121769Y-85257918D01*
X172454179Y-85257918D01*
X172484321Y-85423401D01*
X172549775Y-85581338D01*
X172651747Y-85726186D01*
X172660811Y-85736271D01*
X172804724Y-85867692D01*
X172960451Y-85959336D01*
X173043554Y-85990732D01*
X173060815Y-85994131D01*
X173091063Y-85997243D01*
X173135898Y-86000076D01*
X173196920Y-86002640D01*
X173275727Y-86004944D01*
X173373921Y-86006997D01*
X173493099Y-86008807D01*
X173634862Y-86010384D01*
X173800809Y-86011737D01*
X173992540Y-86012875D01*
X174211654Y-86013806D01*
X174459751Y-86014539D01*
X174738430Y-86015084D01*
X175049290Y-86015450D01*
X175393932Y-86015645D01*
X175773955Y-86015679D01*
X176190958Y-86015560D01*
X176646541Y-86015297D01*
X177142304Y-86014900D01*
X177323750Y-86014732D01*
X181514750Y-86010750D01*
X181635782Y-85954022D01*
X181787508Y-85861683D01*
X181916061Y-85741000D01*
X182017853Y-85598520D01*
X182089293Y-85440793D01*
X182126792Y-85274368D01*
X182126760Y-85105793D01*
X182121242Y-85068399D01*
X182068553Y-84880717D01*
X181981798Y-84714589D01*
X181863738Y-84573804D01*
X181717134Y-84462147D01*
X181654219Y-84427997D01*
X181514750Y-84359750D01*
X173069250Y-84359750D01*
X172947485Y-84416812D01*
X172791030Y-84511222D01*
X172662664Y-84631330D01*
X172563593Y-84771594D01*
X172495019Y-84926473D01*
X172458146Y-85090429D01*
X172454179Y-85257918D01*
X127121769Y-85257918D01*
X127123041Y-85238771D01*
X127120939Y-85072474D01*
X127095042Y-84931016D01*
X127042180Y-84802264D01*
X126984561Y-84709073D01*
X126863963Y-84570656D01*
X126719298Y-84463026D01*
X126557468Y-84391304D01*
X126555500Y-84390697D01*
X126538619Y-84385702D01*
X126520742Y-84381121D01*
X126500071Y-84376939D01*
X126474804Y-84373140D01*
X126443145Y-84369709D01*
X126403291Y-84366631D01*
X126353445Y-84363890D01*
X126291807Y-84361472D01*
X126216577Y-84359361D01*
X126125956Y-84357542D01*
X126018144Y-84355999D01*
X125891343Y-84354717D01*
X125743752Y-84353681D01*
X125573572Y-84352876D01*
X125379004Y-84352287D01*
X125158248Y-84351897D01*
X124909505Y-84351692D01*
X124630976Y-84351657D01*
X124320861Y-84351776D01*
X123977360Y-84352034D01*
X123598674Y-84352416D01*
X123183004Y-84352906D01*
X122728551Y-84353489D01*
X122247634Y-84354132D01*
X118077352Y-84359750D01*
X117940217Y-84428559D01*
X117862375Y-84470714D01*
X117792232Y-84514009D01*
X117746724Y-84547661D01*
X117621746Y-84685766D01*
X117531616Y-84842263D01*
X117476848Y-85011194D01*
X117457952Y-85186602D01*
X105330230Y-85186602D01*
X105330244Y-85100170D01*
X105330479Y-83611592D01*
X105330711Y-82163654D01*
X105330940Y-80755789D01*
X105331168Y-79387432D01*
X105331394Y-78058019D01*
X105331620Y-76766985D01*
X105331845Y-75513765D01*
X105332072Y-74297794D01*
X105332299Y-73118506D01*
X105332529Y-71975338D01*
X105332761Y-70867724D01*
X105332996Y-69795098D01*
X105333235Y-68756897D01*
X105333478Y-67752556D01*
X105333727Y-66781508D01*
X105333981Y-65843190D01*
X105334241Y-64937037D01*
X105334509Y-64062483D01*
X105334784Y-63218963D01*
X105335067Y-62405913D01*
X105335359Y-61622768D01*
X105335661Y-60868962D01*
X105335973Y-60143932D01*
X105336295Y-59447111D01*
X105336629Y-58777935D01*
X105336975Y-58135839D01*
X105337334Y-57520258D01*
X105337706Y-56930628D01*
X105338091Y-56366382D01*
X105338492Y-55826957D01*
X105338907Y-55311787D01*
X105339339Y-54820307D01*
X105339786Y-54351953D01*
X105340251Y-53906159D01*
X105340734Y-53482361D01*
X105341235Y-53079994D01*
X105341755Y-52698492D01*
X105342294Y-52337291D01*
X105342854Y-51995825D01*
X105343435Y-51673531D01*
X105344037Y-51369842D01*
X105344661Y-51084195D01*
X105345308Y-50816023D01*
X105345979Y-50564762D01*
X105346674Y-50329848D01*
X105347393Y-50110715D01*
X105348137Y-49906798D01*
X105348908Y-49717533D01*
X105349705Y-49542354D01*
X105350091Y-49466500D01*
X117465471Y-49466500D01*
X117466966Y-49568817D01*
X117473506Y-49643415D01*
X117487655Y-49704834D01*
X117511973Y-49767613D01*
X117522668Y-49791109D01*
X117619981Y-49959653D01*
X117739895Y-50093408D01*
X117885187Y-50194990D01*
X118011127Y-50251150D01*
X118025145Y-50255812D01*
X118041442Y-50260089D01*
X118061797Y-50263994D01*
X118087989Y-50267543D01*
X118121796Y-50270749D01*
X118164997Y-50273627D01*
X118219372Y-50276192D01*
X118286698Y-50278457D01*
X118368756Y-50280438D01*
X118467323Y-50282147D01*
X118584179Y-50283601D01*
X118721102Y-50284813D01*
X118879872Y-50285798D01*
X119062267Y-50286570D01*
X119270066Y-50287144D01*
X119505048Y-50287533D01*
X119768991Y-50287752D01*
X120063675Y-50287817D01*
X120390879Y-50287740D01*
X120752381Y-50287536D01*
X121149960Y-50287221D01*
X121585395Y-50286808D01*
X122060466Y-50286311D01*
X122322166Y-50286026D01*
X126523750Y-50281416D01*
X126644782Y-50224688D01*
X126797130Y-50131138D01*
X126929578Y-50005871D01*
X127032636Y-49858205D01*
X127047809Y-49829000D01*
X127078268Y-49764460D01*
X127098073Y-49711053D01*
X127109505Y-49656399D01*
X127114841Y-49588118D01*
X127116363Y-49493832D01*
X127116416Y-49456361D01*
X127115592Y-49364839D01*
X144960352Y-49364839D01*
X144960512Y-49538848D01*
X144994454Y-49708927D01*
X145060697Y-49868380D01*
X145157755Y-50010510D01*
X145284147Y-50128619D01*
X145315027Y-50150240D01*
X145338467Y-50166615D01*
X145358510Y-50181671D01*
X145376932Y-50195460D01*
X145395509Y-50208037D01*
X145416016Y-50219455D01*
X145440231Y-50229768D01*
X145469929Y-50239029D01*
X145506886Y-50247291D01*
X145552879Y-50254608D01*
X145609682Y-50261033D01*
X145679073Y-50266620D01*
X145762827Y-50271422D01*
X145862720Y-50275493D01*
X145980529Y-50278887D01*
X146118029Y-50281656D01*
X146276996Y-50283854D01*
X146459207Y-50285534D01*
X146666437Y-50286751D01*
X146900463Y-50287557D01*
X147163061Y-50288006D01*
X147456005Y-50288152D01*
X147781074Y-50288047D01*
X148140042Y-50287746D01*
X148534686Y-50287302D01*
X148966782Y-50286768D01*
X149438105Y-50286198D01*
X149817666Y-50285779D01*
X154019250Y-50281416D01*
X154150956Y-50220580D01*
X154297533Y-50130478D01*
X154424284Y-50008040D01*
X154525617Y-49860799D01*
X154595941Y-49696287D01*
X154621989Y-49586052D01*
X154630776Y-49407039D01*
X154630333Y-49404468D01*
X172454981Y-49404468D01*
X172459353Y-49570804D01*
X172497368Y-49734756D01*
X172570421Y-49891019D01*
X172679905Y-50034288D01*
X172691310Y-50046077D01*
X172803094Y-50142431D01*
X172931342Y-50217477D01*
X173036342Y-50261406D01*
X173051951Y-50264778D01*
X173080815Y-50267866D01*
X173124518Y-50270679D01*
X173184644Y-50273225D01*
X173262776Y-50275515D01*
X173360498Y-50277556D01*
X173479394Y-50279357D01*
X173621047Y-50280928D01*
X173787041Y-50282276D01*
X173978960Y-50283412D01*
X174198387Y-50284343D01*
X174446906Y-50285078D01*
X174726100Y-50285627D01*
X175037553Y-50285998D01*
X175382849Y-50286200D01*
X175763571Y-50286242D01*
X176181304Y-50286133D01*
X176637629Y-50285881D01*
X177134133Y-50285495D01*
X177323750Y-50285325D01*
X181535916Y-50281416D01*
X181662916Y-50214396D01*
X181815137Y-50112633D01*
X181941263Y-49984739D01*
X182038077Y-49836859D01*
X182102360Y-49675138D01*
X182130897Y-49505721D01*
X182121242Y-49339066D01*
X182068563Y-49149830D01*
X181982114Y-48984246D01*
X181863463Y-48844740D01*
X181741174Y-48750191D01*
X181718067Y-48734873D01*
X181697820Y-48720800D01*
X181678641Y-48707919D01*
X181658740Y-48696176D01*
X181636327Y-48685521D01*
X181609610Y-48675899D01*
X181576799Y-48667259D01*
X181536102Y-48659548D01*
X181485730Y-48652714D01*
X181423892Y-48646704D01*
X181348796Y-48641466D01*
X181258652Y-48636947D01*
X181151669Y-48633095D01*
X181026057Y-48629857D01*
X180880024Y-48627182D01*
X180711780Y-48625016D01*
X180519535Y-48623306D01*
X180301497Y-48622002D01*
X180055875Y-48621049D01*
X179780879Y-48620396D01*
X179474719Y-48619990D01*
X179135603Y-48619779D01*
X178761740Y-48619710D01*
X178351340Y-48619730D01*
X177902613Y-48619788D01*
X177413766Y-48619831D01*
X177291999Y-48619833D01*
X176797178Y-48619857D01*
X176342920Y-48619940D01*
X175927456Y-48620095D01*
X175549017Y-48620336D01*
X175205833Y-48620678D01*
X174896133Y-48621134D01*
X174618150Y-48621718D01*
X174370112Y-48622445D01*
X174150251Y-48623329D01*
X173956796Y-48624383D01*
X173787979Y-48625622D01*
X173642029Y-48627060D01*
X173517176Y-48628710D01*
X173411653Y-48630587D01*
X173323687Y-48632705D01*
X173251511Y-48635078D01*
X173193354Y-48637720D01*
X173147447Y-48640645D01*
X173112020Y-48643867D01*
X173085304Y-48647400D01*
X173065528Y-48651258D01*
X173057216Y-48653451D01*
X172888996Y-48722692D01*
X172746056Y-48821378D01*
X172629791Y-48944203D01*
X172541594Y-49085863D01*
X172482859Y-49241052D01*
X172454981Y-49404468D01*
X154630333Y-49404468D01*
X154600909Y-49234085D01*
X154536060Y-49072528D01*
X154439903Y-48927706D01*
X154316109Y-48804955D01*
X154168353Y-48709613D01*
X154000306Y-48647018D01*
X153971175Y-48640269D01*
X153936066Y-48637427D01*
X153858935Y-48634847D01*
X153740093Y-48632529D01*
X153579850Y-48630474D01*
X153378518Y-48628683D01*
X153136405Y-48627159D01*
X152853823Y-48625901D01*
X152531083Y-48624911D01*
X152168496Y-48624191D01*
X151766371Y-48623741D01*
X151325019Y-48623562D01*
X150844751Y-48623656D01*
X150325878Y-48624023D01*
X149768710Y-48624665D01*
X149733000Y-48624714D01*
X145594916Y-48630416D01*
X145473279Y-48679536D01*
X145360965Y-48739968D01*
X145246377Y-48827084D01*
X145143707Y-48928570D01*
X145067315Y-49031821D01*
X144995459Y-49193597D01*
X144960352Y-49364839D01*
X127115592Y-49364839D01*
X127115454Y-49349554D01*
X127111249Y-49273138D01*
X127101823Y-49215186D01*
X127085199Y-49163776D01*
X127059398Y-49106983D01*
X127057985Y-49104102D01*
X126964333Y-48949513D01*
X126848433Y-48827034D01*
X126702741Y-48729080D01*
X126666341Y-48710264D01*
X126504780Y-48630416D01*
X118099416Y-48630416D01*
X117972416Y-48681397D01*
X117879616Y-48727927D01*
X117788546Y-48794922D01*
X117705897Y-48871897D01*
X117604086Y-48985178D01*
X117533958Y-49094409D01*
X117490736Y-49211403D01*
X117469642Y-49347975D01*
X117465471Y-49466500D01*
X105350091Y-49466500D01*
X105350529Y-49380696D01*
X105351381Y-49231995D01*
X105352262Y-49095685D01*
X105353171Y-48971203D01*
X105354111Y-48857982D01*
X105355080Y-48755457D01*
X105356081Y-48663065D01*
X105357114Y-48580239D01*
X105358178Y-48506415D01*
X105359276Y-48441029D01*
X105360407Y-48383514D01*
X105361572Y-48333307D01*
X105362772Y-48289842D01*
X105364008Y-48252554D01*
X105365279Y-48220878D01*
X105366587Y-48194250D01*
X105367933Y-48172104D01*
X105369316Y-48153876D01*
X105370738Y-48139000D01*
X105372200Y-48126912D01*
X105373701Y-48117047D01*
X105374645Y-48111833D01*
X105450023Y-47805387D01*
X105556467Y-47498296D01*
X105689106Y-47202059D01*
X105843070Y-46928173D01*
X105932568Y-46794726D01*
X106040335Y-46657072D01*
X106172099Y-46508864D01*
X106316362Y-46361824D01*
X106461630Y-46227675D01*
X106595333Y-46118935D01*
X106889626Y-45922509D01*
X107197688Y-45761897D01*
X107524872Y-45634795D01*
X107876534Y-45538896D01*
X108002285Y-45513053D01*
X108011172Y-45511648D01*
X108023197Y-45510278D01*
X108038912Y-45508944D01*
X108058871Y-45507645D01*
X108083623Y-45506380D01*
X108113722Y-45505149D01*
X108149720Y-45503952D01*
X108192169Y-45502788D01*
X108241620Y-45501655D01*
X108298627Y-45500555D01*
X108363740Y-45499485D01*
X108437512Y-45498446D01*
X108520495Y-45497437D01*
X108613241Y-45496458D01*
X108716303Y-45495507D01*
X108830231Y-45494585D01*
X108955579Y-45493690D01*
X109092898Y-45492822D01*
X109242741Y-45491982D01*
X109405659Y-45491167D01*
X109582205Y-45490377D01*
X109772930Y-45489613D01*
X109978386Y-45488873D01*
X110199127Y-45488157D01*
X110435703Y-45487464D01*
X110688667Y-45486794D01*
X110958571Y-45486146D01*
X111245967Y-45485519D01*
X111551407Y-45484913D01*
X111875442Y-45484328D01*
X112218626Y-45483763D01*
X112581510Y-45483217D01*
X112964647Y-45482690D01*
X113368587Y-45482181D01*
X113793884Y-45481690D01*
X114241090Y-45481215D01*
X114710756Y-45480758D01*
X115203434Y-45480316D01*
X115719677Y-45479890D01*
X116260037Y-45479478D01*
X116825065Y-45479081D01*
X117415314Y-45478697D01*
X118031336Y-45478327D01*
X118673683Y-45477969D01*
X119342907Y-45477623D01*
X120039560Y-45477289D01*
X120764193Y-45476965D01*
X121517360Y-45476652D01*
X122299613Y-45476349D01*
X123111502Y-45476055D01*
X123953581Y-45475769D01*
X124826401Y-45475492D01*
X125730515Y-45475222D01*
X126666474Y-45474959D01*
X127634830Y-45474703D01*
X128636137Y-45474452D01*
X129670944Y-45474207D01*
X130739806Y-45473967D01*
X131843274Y-45473730D01*
X132981899Y-45473497D01*
X134156234Y-45473268D01*
X135366831Y-45473040D01*
X136614242Y-45472815D01*
X137899020Y-45472591D01*
X139221715Y-45472368D01*
X140582881Y-45472145D01*
X141983069Y-45471922D01*
X143422831Y-45471698D01*
X144902720Y-45471472D01*
X146423287Y-45471245D01*
X147985085Y-45471015D01*
X149584833Y-45470782D01*
X151363407Y-45470535D01*
X153104967Y-45470315D01*
X154809391Y-45470122D01*
X156476560Y-45469956D01*
X158106351Y-45469816D01*
X159698646Y-45469703D01*
X161253322Y-45469616D01*
X162770259Y-45469556D01*
X164249336Y-45469523D01*
X165690433Y-45469515D01*
X167093428Y-45469534D01*
X168458202Y-45469580D01*
X169784633Y-45469652D01*
X171072600Y-45469749D01*
X172321983Y-45469874D01*
X173532661Y-45470024D01*
X174704514Y-45470200D01*
X175837420Y-45470403D01*
X176931259Y-45470631D01*
X177985910Y-45470886D01*
X179001252Y-45471166D01*
X179977165Y-45471473D01*
X180913527Y-45471805D01*
X181810219Y-45472163D01*
X182667119Y-45472547D01*
X183484107Y-45472956D01*
X184261061Y-45473392D01*
X184997862Y-45473853D01*
X185694387Y-45474339D01*
X186350518Y-45474851D01*
X186966132Y-45475389D01*
X187541109Y-45475952D01*
X188075329Y-45476540D01*
X188568670Y-45477154D01*
X189021012Y-45477793D01*
X189432235Y-45478457D01*
X189802216Y-45479147D01*
X190130836Y-45479862D01*
X190417974Y-45480602D01*
X190663510Y-45481367D01*
X190867321Y-45482158D01*
X191029288Y-45482973D01*
X191149290Y-45483813D01*
X191227206Y-45484679D01*
X191262916Y-45485569D01*
X191263584Y-45485614D01*
X191486863Y-45506375D01*
X191682831Y-45535444D01*
X191866143Y-45575563D01*
X192051453Y-45629474D01*
X192076916Y-45637791D01*
X192410303Y-45769712D01*
X192723649Y-45937258D01*
X193014572Y-46137658D01*
X193280689Y-46368144D01*
X193519616Y-46625946D01*
X193728971Y-46908293D01*
X193906370Y-47212417D01*
X194049430Y-47535547D01*
X194155768Y-47874913D01*
X194205597Y-48111833D01*
X194207219Y-48121711D01*
X194208798Y-48132347D01*
X194210334Y-48144306D01*
X194211828Y-48158154D01*
X194213280Y-48174454D01*
X194214691Y-48193771D01*
X194216061Y-48216672D01*
X194217391Y-48243720D01*
X194218682Y-48275480D01*
X194219933Y-48312518D01*
X194221145Y-48355398D01*
X194222320Y-48404686D01*
X194223456Y-48460945D01*
X194224556Y-48524741D01*
X194225618Y-48596639D01*
X194226645Y-48677204D01*
X194227635Y-48767001D01*
X194228591Y-48866594D01*
X194229511Y-48976548D01*
X194230398Y-49097429D01*
X194231250Y-49229801D01*
X194232070Y-49374229D01*
X194232857Y-49531279D01*
X194233611Y-49701514D01*
X194234334Y-49885500D01*
X194235025Y-50083802D01*
X194235686Y-50296985D01*
X194236316Y-50525613D01*
X194236917Y-50770251D01*
X194237488Y-51031465D01*
X194238030Y-51309820D01*
X194238545Y-51605879D01*
X194239031Y-51920208D01*
X194239490Y-52253373D01*
X194239922Y-52605937D01*
X194240328Y-52978466D01*
X194240709Y-53371525D01*
X194241063Y-53785678D01*
X194241394Y-54221491D01*
X194241699Y-54679528D01*
X194241981Y-55160354D01*
X194242240Y-55664534D01*
X194242476Y-56192634D01*
X194242689Y-56745217D01*
X194242881Y-57322850D01*
X194243051Y-57926096D01*
X194243200Y-58555520D01*
X194243329Y-59211689D01*
X194243438Y-59895165D01*
X194243528Y-60606516D01*
X194243599Y-61346304D01*
X194243652Y-62115095D01*
X194243686Y-62913455D01*
X194243704Y-63741948D01*
X194243704Y-64601138D01*
X194243688Y-65491591D01*
X194243656Y-66413872D01*
X194243609Y-67368545D01*
X194243547Y-68356176D01*
X194243471Y-69377330D01*
X194243380Y-70432570D01*
X194243276Y-71522463D01*
X194243160Y-72647572D01*
X194243030Y-73808464D01*
X194242889Y-75005703D01*
X194242737Y-76239853D01*
X194242573Y-77511480D01*
X194242400Y-78821149D01*
X194242216Y-80169424D01*
X194242023Y-81556870D01*
X194241820Y-82984052D01*
X194241610Y-84451536D01*
X194241391Y-85959886D01*
X194241165Y-87509667D01*
X194241027Y-88455500D01*
X194235156Y-128555750D01*
X194189576Y-128737556D01*
X194098018Y-129054572D01*
X193989120Y-129340366D01*
X193859160Y-129603800D01*
X193747932Y-129788493D01*
X193528561Y-130088452D01*
X193281316Y-130356787D01*
X193007405Y-130592567D01*
X192708034Y-130794860D01*
X192384408Y-130962735D01*
X192068709Y-131085181D01*
X192013553Y-131103783D01*
X191964051Y-131120869D01*
X191918305Y-131136506D01*
X191874420Y-131150760D01*
X191830499Y-131163698D01*
X191784644Y-131175388D01*
X191734959Y-131185896D01*
X191679546Y-131195290D01*
X191616510Y-131203635D01*
X191543952Y-131210999D01*
X191459977Y-131217449D01*
X191362687Y-131223052D01*
X191250185Y-131227875D01*
X191120575Y-131231984D01*
X190971959Y-131235447D01*
X190802442Y-131238329D01*
X190610125Y-131240700D01*
X190393112Y-131242624D01*
X190149506Y-131244170D01*
X189877410Y-131245403D01*
X189574928Y-131246391D01*
X189240162Y-131247201D01*
X188871216Y-131247900D01*
X188466193Y-131248555D01*
X188023195Y-131249232D01*
X187540327Y-131249998D01*
X187388500Y-131250253D01*
X186844495Y-131251094D01*
X186341806Y-131251678D01*
X185879417Y-131252003D01*
X185456312Y-131252063D01*
X185071473Y-131251856D01*
X184723886Y-131251377D01*
X184412533Y-131250622D01*
X184136397Y-131249588D01*
X183894464Y-131248269D01*
X183685715Y-131246662D01*
X183509136Y-131244764D01*
X183363709Y-131242569D01*
X183248418Y-131240074D01*
X183162247Y-131237275D01*
X183104179Y-131234168D01*
X183092935Y-131233253D01*
X182734287Y-131180115D01*
X182386751Y-131087805D01*
X182053634Y-130958113D01*
X181738247Y-130792825D01*
X181443898Y-130593731D01*
X181173897Y-130362620D01*
X180931552Y-130101280D01*
X180880333Y-130037416D01*
X180853885Y-130003685D01*
X180830497Y-129973849D01*
X180808758Y-129945555D01*
X180787262Y-129916447D01*
X180764600Y-129884171D01*
X180739363Y-129846373D01*
X180710143Y-129800697D01*
X180675533Y-129744790D01*
X180634123Y-129676296D01*
X180584506Y-129592862D01*
X180525274Y-129492131D01*
X180455017Y-129371751D01*
X180372328Y-129229366D01*
X180275799Y-129062622D01*
X180164021Y-128869165D01*
X180035587Y-128646638D01*
X179889087Y-128392689D01*
X179723113Y-128104962D01*
X179684002Y-128037166D01*
X179541742Y-127790845D01*
X179404212Y-127553232D01*
X179273052Y-127327130D01*
X179149903Y-127115346D01*
X179036406Y-126920685D01*
X178934202Y-126745952D01*
X178844932Y-126593954D01*
X178770236Y-126467494D01*
X178711756Y-126369380D01*
X178671132Y-126302416D01*
X178650249Y-126269750D01*
X178422778Y-125980921D01*
X178174589Y-125726859D01*
X177903581Y-125506178D01*
X177607654Y-125317491D01*
X177284710Y-125159414D01*
X176932647Y-125030559D01*
X176657000Y-124954383D01*
X176648424Y-124952528D01*
X176637767Y-124950734D01*
X176624335Y-124948997D01*
X176607435Y-124947319D01*
X176586376Y-124945696D01*
X176560465Y-124944129D01*
X176529009Y-124942616D01*
X176491316Y-124941156D01*
X176446693Y-124939747D01*
X176394448Y-124938389D01*
X176333889Y-124937080D01*
X176264322Y-124935820D01*
X176185056Y-124934607D01*
X176095398Y-124933439D01*
X175994656Y-124932316D01*
X175882136Y-124931237D01*
X175757147Y-124930200D01*
X175618996Y-124929204D01*
X175466991Y-124928249D01*
X175300439Y-124927332D01*
X175118647Y-124926453D01*
X174920924Y-124925611D01*
X174706576Y-124924804D01*
X174474911Y-124924031D01*
X174225238Y-124923291D01*
X173956862Y-124922584D01*
X173669092Y-124921907D01*
X173361236Y-124921260D01*
X173032600Y-124920641D01*
X172682493Y-124920049D01*
X172310221Y-124919484D01*
X171915093Y-124918944D01*
X171496415Y-124918427D01*
X171053496Y-124917933D01*
X170585644Y-124917460D01*
X170092164Y-124917008D01*
X169572365Y-124916575D01*
X169025555Y-124916160D01*
X168451041Y-124915762D01*
X167848131Y-124915379D01*
X167216131Y-124915011D01*
X166554350Y-124914657D01*
X165862096Y-124914314D01*
X165138675Y-124913983D01*
X164383395Y-124913661D01*
X163595563Y-124913348D01*
X162774488Y-124913042D01*
X161919477Y-124912743D01*
X161029836Y-124912450D01*
X160104875Y-124912160D01*
X159143900Y-124911873D01*
X158146218Y-124911588D01*
X157111138Y-124911303D01*
X156037967Y-124911018D01*
X154926012Y-124910731D01*
X153774581Y-124910441D01*
X152582981Y-124910147D01*
X151350521Y-124909848D01*
X150076506Y-124909542D01*
X149912916Y-124909503D01*
X148517781Y-124909182D01*
X147164606Y-124908895D01*
X145853019Y-124908643D01*
X144582647Y-124908426D01*
X143353117Y-124908244D01*
X142164058Y-124908096D01*
X141015095Y-124907985D01*
X139905856Y-124907909D01*
X138835968Y-124907868D01*
X137805060Y-124907864D01*
X136812757Y-124907897D01*
X135858688Y-124907966D01*
X134942479Y-124908071D01*
X134063757Y-124908214D01*
X133222151Y-124908394D01*
X132417287Y-124908612D01*
X131648793Y-124908867D01*
X130916295Y-124909161D01*
X130219421Y-124909492D01*
X129557799Y-124909862D01*
X128931056Y-124910271D01*
X128338818Y-124910719D01*
X127780713Y-124911205D01*
X127256369Y-124911732D01*
X126765412Y-124912297D01*
X126307471Y-124912903D01*
X125882171Y-124913549D01*
X125489141Y-124914235D01*
X125128008Y-124914961D01*
X124798399Y-124915729D01*
X124499940Y-124916537D01*
X124232261Y-124917387D01*
X123994987Y-124918278D01*
X123787746Y-124919211D01*
X123610166Y-124920186D01*
X123461873Y-124921203D01*
X123342495Y-124922262D01*
X123251658Y-124923364D01*
X123188992Y-124924509D01*
X123154122Y-124925697D01*
X123147666Y-124926210D01*
X122791392Y-124993030D01*
X122444546Y-125100338D01*
X122110671Y-125246703D01*
X121793307Y-125430693D01*
X121644833Y-125534197D01*
X121507881Y-125645140D01*
X121361655Y-125780363D01*
X121216867Y-125928770D01*
X121084228Y-126079267D01*
X120974447Y-126220758D01*
X120954887Y-126248895D01*
X120925134Y-126295511D01*
X120876063Y-126375849D01*
X120809432Y-126486918D01*
X120726998Y-126625724D01*
X120630518Y-126789276D01*
X120521748Y-126974580D01*
X120402445Y-127178645D01*
X120274366Y-127398477D01*
X120139269Y-127631085D01*
X119998909Y-127873476D01*
X119867723Y-128100666D01*
X119724975Y-128347870D01*
X119586525Y-128586961D01*
X119454059Y-128815064D01*
X119329262Y-129029307D01*
X119213821Y-129226816D01*
X119109422Y-129404718D01*
X119017751Y-129560139D01*
X118940493Y-129690207D01*
X118879335Y-129792047D01*
X118835962Y-129862787D01*
X118812722Y-129898632D01*
X118581876Y-130188547D01*
X118324824Y-130445241D01*
X118041737Y-130668602D01*
X117732790Y-130858518D01*
X117398154Y-131014878D01*
X117038002Y-131137571D01*
X116806175Y-131195762D01*
X116596583Y-131241768D01*
X112469083Y-131245540D01*
X112051932Y-131245838D01*
X111644831Y-131245966D01*
X111249909Y-131245930D01*
X110869296Y-131245736D01*
X110505123Y-131245391D01*
X110159517Y-131244900D01*
X109834610Y-131244270D01*
X109532531Y-131243507D01*
X109255410Y-131242617D01*
X109005376Y-131241606D01*
X108784559Y-131240481D01*
X108595089Y-131239248D01*
X108439095Y-131237912D01*
X108318707Y-131236481D01*
X108236054Y-131234960D01*
X108193268Y-131233356D01*
X108190282Y-131233094D01*
X107829287Y-131173763D01*
X107482072Y-131075700D01*
X107151276Y-130940772D01*
X106839538Y-130770844D01*
X106549497Y-130567785D01*
X106283790Y-130333461D01*
X106045057Y-130069738D01*
X105835936Y-129778484D01*
X105659065Y-129461564D01*
X105645057Y-129432349D01*
X105539535Y-129189385D01*
X105459529Y-128956167D01*
X105401105Y-128718176D01*
X105360327Y-128460890D01*
X105346144Y-128329239D01*
X105345166Y-128303395D01*
X105344216Y-128246773D01*
X105343294Y-128159129D01*
X105342402Y-128040215D01*
X105341537Y-127889785D01*
X105340701Y-127707593D01*
X105339893Y-127493393D01*
X105339113Y-127246939D01*
X105338361Y-126967984D01*
X105337636Y-126656284D01*
X105336940Y-126311590D01*
X105336271Y-125933659D01*
X105335630Y-125522242D01*
X105335016Y-125077094D01*
X105334430Y-124597970D01*
X105333871Y-124084622D01*
X105333339Y-123536805D01*
X105332834Y-122954272D01*
X105332356Y-122336778D01*
X105331905Y-121684077D01*
X105331481Y-120995921D01*
X105331406Y-120859458D01*
X117458282Y-120859458D01*
X117467065Y-121039512D01*
X117493248Y-121153174D01*
X117563278Y-121319075D01*
X117664311Y-121466196D01*
X117790156Y-121586854D01*
X117898333Y-121655996D01*
X117918783Y-121666802D01*
X117937762Y-121676730D01*
X117957056Y-121685814D01*
X117978454Y-121694092D01*
X118003746Y-121701597D01*
X118034718Y-121708367D01*
X118073161Y-121714435D01*
X118120862Y-121719838D01*
X118179609Y-121724612D01*
X118251192Y-121728791D01*
X118337399Y-121732411D01*
X118440017Y-121735509D01*
X118560836Y-121738119D01*
X118701645Y-121740276D01*
X118864231Y-121742018D01*
X119050383Y-121743378D01*
X119261889Y-121744392D01*
X119500538Y-121745097D01*
X119768119Y-121745527D01*
X120066420Y-121745719D01*
X120397228Y-121745707D01*
X120762334Y-121745527D01*
X121163525Y-121745215D01*
X121602590Y-121744806D01*
X122081317Y-121744336D01*
X122332750Y-121744092D01*
X126523750Y-121740083D01*
X126650750Y-121677883D01*
X126779558Y-121597400D01*
X126900560Y-121490081D01*
X127001589Y-121368091D01*
X127059202Y-121269511D01*
X127085076Y-121210026D01*
X127101776Y-121156256D01*
X127111261Y-121096041D01*
X127115488Y-121017219D01*
X127116416Y-120914138D01*
X127116064Y-120866905D01*
X144956059Y-120866905D01*
X144965835Y-121049603D01*
X145013167Y-121228117D01*
X145084053Y-121363663D01*
X145188041Y-121490644D01*
X145315902Y-121600571D01*
X145458405Y-121684953D01*
X145548054Y-121720092D01*
X145565287Y-121723493D01*
X145595456Y-121726607D01*
X145640162Y-121729442D01*
X145701006Y-121732008D01*
X145779590Y-121734314D01*
X145877514Y-121736368D01*
X145996380Y-121738179D01*
X146137787Y-121739757D01*
X146303338Y-121741110D01*
X146494633Y-121742248D01*
X146713273Y-121743179D01*
X146960859Y-121743913D01*
X147238992Y-121744457D01*
X147549273Y-121744823D01*
X147893303Y-121745017D01*
X148272683Y-121745050D01*
X148689014Y-121744930D01*
X149143898Y-121744666D01*
X149638934Y-121744268D01*
X149828250Y-121744092D01*
X154019250Y-121740083D01*
X154158719Y-121671835D01*
X154314506Y-121572742D01*
X154443772Y-121443152D01*
X154542677Y-121288310D01*
X154607384Y-121113461D01*
X154623152Y-121037119D01*
X154625071Y-120993071D01*
X172455398Y-120993071D01*
X172488272Y-121160151D01*
X172556911Y-121320176D01*
X172662415Y-121467724D01*
X172675958Y-121482573D01*
X172818882Y-121607769D01*
X172978387Y-121696317D01*
X173043554Y-121720066D01*
X173060815Y-121723464D01*
X173091063Y-121726576D01*
X173135898Y-121729409D01*
X173196920Y-121731973D01*
X173275727Y-121734277D01*
X173373921Y-121736330D01*
X173493099Y-121738141D01*
X173634862Y-121739718D01*
X173800809Y-121741070D01*
X173992540Y-121742208D01*
X174211654Y-121743139D01*
X174459751Y-121743873D01*
X174738430Y-121744418D01*
X175049290Y-121744783D01*
X175393932Y-121744979D01*
X175773955Y-121745012D01*
X176190958Y-121744893D01*
X176646541Y-121744630D01*
X177142304Y-121744233D01*
X177323750Y-121744066D01*
X181514750Y-121740083D01*
X181635782Y-121683355D01*
X181791991Y-121587431D01*
X181924624Y-121459788D01*
X182028898Y-121306639D01*
X182100030Y-121134199D01*
X182119350Y-121055083D01*
X182131861Y-120884506D01*
X182105865Y-120714628D01*
X182044794Y-120551905D01*
X181952081Y-120402791D01*
X181831159Y-120273741D01*
X181685461Y-120171210D01*
X181635782Y-120145811D01*
X181514750Y-120089083D01*
X173069250Y-120089083D01*
X172947485Y-120146146D01*
X172788916Y-120241666D01*
X172659500Y-120362670D01*
X172560338Y-120503736D01*
X172492532Y-120659441D01*
X172457185Y-120824360D01*
X172455398Y-120993071D01*
X154625071Y-120993071D01*
X154630802Y-120861531D01*
X154599739Y-120688779D01*
X154533435Y-120525271D01*
X154435360Y-120377413D01*
X154308985Y-120251611D01*
X154157780Y-120154271D01*
X154140282Y-120145811D01*
X154019250Y-120089083D01*
X145573750Y-120089083D01*
X145436166Y-120155233D01*
X145276146Y-120254090D01*
X145146165Y-120379656D01*
X145048184Y-120526961D01*
X144984162Y-120691034D01*
X144956059Y-120866905D01*
X127116064Y-120866905D01*
X127115631Y-120808977D01*
X127111756Y-120733763D01*
X127102511Y-120676115D01*
X127085618Y-120623654D01*
X127058797Y-120564000D01*
X127047809Y-120541499D01*
X126951268Y-120390692D01*
X126823571Y-120260551D01*
X126674207Y-120160392D01*
X126644782Y-120145811D01*
X126523750Y-120089083D01*
X118078250Y-120089083D01*
X117940606Y-120154315D01*
X117782021Y-120251363D01*
X117652083Y-120375791D01*
X117553205Y-120522208D01*
X117487800Y-120685227D01*
X117458282Y-120859458D01*
X105331406Y-120859458D01*
X105331083Y-120272065D01*
X105330712Y-119512264D01*
G37*
X105330712Y-119512264D02*
X105330368Y-118716270D01*
X105330049Y-117883838D01*
X105329757Y-117014721D01*
X105329492Y-116108674D01*
X105329252Y-115165450D01*
X105329038Y-114184803D01*
X105328850Y-113166487D01*
X105328688Y-112110256D01*
X105328551Y-111015864D01*
X105328441Y-109883064D01*
X105328355Y-108711611D01*
X105328295Y-107501259D01*
X105328260Y-106251760D01*
X105328250Y-104962870D01*
X105328266Y-103634341D01*
X105328306Y-102265929D01*
X105328371Y-100857386D01*
X105328461Y-99408466D01*
X105328576Y-97918925D01*
X105328715Y-96388514D01*
X105328878Y-94816989D01*
X105329066Y-93204102D01*
X105329278Y-91549609D01*
X105329515Y-89853263D01*
X105329762Y-88201500D01*
X105330005Y-86629950D01*
X105330230Y-85186602D01*
X117457952Y-85186602D01*
X117475440Y-85362530D01*
X117529824Y-85533022D01*
X117621616Y-85692119D01*
X117645706Y-85723541D01*
X117749313Y-85828104D01*
X117880024Y-85914631D01*
X117997075Y-85969656D01*
X118120583Y-86020549D01*
X122322166Y-86015649D01*
X126523750Y-86010750D01*
X126644782Y-85954022D01*
X126795545Y-85861594D01*
X126927187Y-85738004D01*
X127029700Y-85593048D01*
X127046707Y-85560573D01*
X127082938Y-85479624D01*
X127105104Y-85406337D01*
X127117463Y-85322754D01*
X127121769Y-85257918D01*
X172454179Y-85257918D01*
X172484321Y-85423401D01*
X172549775Y-85581338D01*
X172651747Y-85726186D01*
X172660811Y-85736271D01*
X172804724Y-85867692D01*
X172960451Y-85959336D01*
X173043554Y-85990732D01*
X173060815Y-85994131D01*
X173091063Y-85997243D01*
X173135898Y-86000076D01*
X173196920Y-86002640D01*
X173275727Y-86004944D01*
X173373921Y-86006997D01*
X173493099Y-86008807D01*
X173634862Y-86010384D01*
X173800809Y-86011737D01*
X173992540Y-86012875D01*
X174211654Y-86013806D01*
X174459751Y-86014539D01*
X174738430Y-86015084D01*
X175049290Y-86015450D01*
X175393932Y-86015645D01*
X175773955Y-86015679D01*
X176190958Y-86015560D01*
X176646541Y-86015297D01*
X177142304Y-86014900D01*
X177323750Y-86014732D01*
X181514750Y-86010750D01*
X181635782Y-85954022D01*
X181787508Y-85861683D01*
X181916061Y-85741000D01*
X182017853Y-85598520D01*
X182089293Y-85440793D01*
X182126792Y-85274368D01*
X182126760Y-85105793D01*
X182121242Y-85068399D01*
X182068553Y-84880717D01*
X181981798Y-84714589D01*
X181863738Y-84573804D01*
X181717134Y-84462147D01*
X181654219Y-84427997D01*
X181514750Y-84359750D01*
X173069250Y-84359750D01*
X172947485Y-84416812D01*
X172791030Y-84511222D01*
X172662664Y-84631330D01*
X172563593Y-84771594D01*
X172495019Y-84926473D01*
X172458146Y-85090429D01*
X172454179Y-85257918D01*
X127121769Y-85257918D01*
X127123041Y-85238771D01*
X127120939Y-85072474D01*
X127095042Y-84931016D01*
X127042180Y-84802264D01*
X126984561Y-84709073D01*
X126863963Y-84570656D01*
X126719298Y-84463026D01*
X126557468Y-84391304D01*
X126555500Y-84390697D01*
X126538619Y-84385702D01*
X126520742Y-84381121D01*
X126500071Y-84376939D01*
X126474804Y-84373140D01*
X126443145Y-84369709D01*
X126403291Y-84366631D01*
X126353445Y-84363890D01*
X126291807Y-84361472D01*
X126216577Y-84359361D01*
X126125956Y-84357542D01*
X126018144Y-84355999D01*
X125891343Y-84354717D01*
X125743752Y-84353681D01*
X125573572Y-84352876D01*
X125379004Y-84352287D01*
X125158248Y-84351897D01*
X124909505Y-84351692D01*
X124630976Y-84351657D01*
X124320861Y-84351776D01*
X123977360Y-84352034D01*
X123598674Y-84352416D01*
X123183004Y-84352906D01*
X122728551Y-84353489D01*
X122247634Y-84354132D01*
X118077352Y-84359750D01*
X117940217Y-84428559D01*
X117862375Y-84470714D01*
X117792232Y-84514009D01*
X117746724Y-84547661D01*
X117621746Y-84685766D01*
X117531616Y-84842263D01*
X117476848Y-85011194D01*
X117457952Y-85186602D01*
X105330230Y-85186602D01*
X105330244Y-85100170D01*
X105330479Y-83611592D01*
X105330711Y-82163654D01*
X105330940Y-80755789D01*
X105331168Y-79387432D01*
X105331394Y-78058019D01*
X105331620Y-76766985D01*
X105331845Y-75513765D01*
X105332072Y-74297794D01*
X105332299Y-73118506D01*
X105332529Y-71975338D01*
X105332761Y-70867724D01*
X105332996Y-69795098D01*
X105333235Y-68756897D01*
X105333478Y-67752556D01*
X105333727Y-66781508D01*
X105333981Y-65843190D01*
X105334241Y-64937037D01*
X105334509Y-64062483D01*
X105334784Y-63218963D01*
X105335067Y-62405913D01*
X105335359Y-61622768D01*
X105335661Y-60868962D01*
X105335973Y-60143932D01*
X105336295Y-59447111D01*
X105336629Y-58777935D01*
X105336975Y-58135839D01*
X105337334Y-57520258D01*
X105337706Y-56930628D01*
X105338091Y-56366382D01*
X105338492Y-55826957D01*
X105338907Y-55311787D01*
X105339339Y-54820307D01*
X105339786Y-54351953D01*
X105340251Y-53906159D01*
X105340734Y-53482361D01*
X105341235Y-53079994D01*
X105341755Y-52698492D01*
X105342294Y-52337291D01*
X105342854Y-51995825D01*
X105343435Y-51673531D01*
X105344037Y-51369842D01*
X105344661Y-51084195D01*
X105345308Y-50816023D01*
X105345979Y-50564762D01*
X105346674Y-50329848D01*
X105347393Y-50110715D01*
X105348137Y-49906798D01*
X105348908Y-49717533D01*
X105349705Y-49542354D01*
X105350091Y-49466500D01*
X117465471Y-49466500D01*
X117466966Y-49568817D01*
X117473506Y-49643415D01*
X117487655Y-49704834D01*
X117511973Y-49767613D01*
X117522668Y-49791109D01*
X117619981Y-49959653D01*
X117739895Y-50093408D01*
X117885187Y-50194990D01*
X118011127Y-50251150D01*
X118025145Y-50255812D01*
X118041442Y-50260089D01*
X118061797Y-50263994D01*
X118087989Y-50267543D01*
X118121796Y-50270749D01*
X118164997Y-50273627D01*
X118219372Y-50276192D01*
X118286698Y-50278457D01*
X118368756Y-50280438D01*
X118467323Y-50282147D01*
X118584179Y-50283601D01*
X118721102Y-50284813D01*
X118879872Y-50285798D01*
X119062267Y-50286570D01*
X119270066Y-50287144D01*
X119505048Y-50287533D01*
X119768991Y-50287752D01*
X120063675Y-50287817D01*
X120390879Y-50287740D01*
X120752381Y-50287536D01*
X121149960Y-50287221D01*
X121585395Y-50286808D01*
X122060466Y-50286311D01*
X122322166Y-50286026D01*
X126523750Y-50281416D01*
X126644782Y-50224688D01*
X126797130Y-50131138D01*
X126929578Y-50005871D01*
X127032636Y-49858205D01*
X127047809Y-49829000D01*
X127078268Y-49764460D01*
X127098073Y-49711053D01*
X127109505Y-49656399D01*
X127114841Y-49588118D01*
X127116363Y-49493832D01*
X127116416Y-49456361D01*
X127115592Y-49364839D01*
X144960352Y-49364839D01*
X144960512Y-49538848D01*
X144994454Y-49708927D01*
X145060697Y-49868380D01*
X145157755Y-50010510D01*
X145284147Y-50128619D01*
X145315027Y-50150240D01*
X145338467Y-50166615D01*
X145358510Y-50181671D01*
X145376932Y-50195460D01*
X145395509Y-50208037D01*
X145416016Y-50219455D01*
X145440231Y-50229768D01*
X145469929Y-50239029D01*
X145506886Y-50247291D01*
X145552879Y-50254608D01*
X145609682Y-50261033D01*
X145679073Y-50266620D01*
X145762827Y-50271422D01*
X145862720Y-50275493D01*
X145980529Y-50278887D01*
X146118029Y-50281656D01*
X146276996Y-50283854D01*
X146459207Y-50285534D01*
X146666437Y-50286751D01*
X146900463Y-50287557D01*
X147163061Y-50288006D01*
X147456005Y-50288152D01*
X147781074Y-50288047D01*
X148140042Y-50287746D01*
X148534686Y-50287302D01*
X148966782Y-50286768D01*
X149438105Y-50286198D01*
X149817666Y-50285779D01*
X154019250Y-50281416D01*
X154150956Y-50220580D01*
X154297533Y-50130478D01*
X154424284Y-50008040D01*
X154525617Y-49860799D01*
X154595941Y-49696287D01*
X154621989Y-49586052D01*
X154630776Y-49407039D01*
X154630333Y-49404468D01*
X172454981Y-49404468D01*
X172459353Y-49570804D01*
X172497368Y-49734756D01*
X172570421Y-49891019D01*
X172679905Y-50034288D01*
X172691310Y-50046077D01*
X172803094Y-50142431D01*
X172931342Y-50217477D01*
X173036342Y-50261406D01*
X173051951Y-50264778D01*
X173080815Y-50267866D01*
X173124518Y-50270679D01*
X173184644Y-50273225D01*
X173262776Y-50275515D01*
X173360498Y-50277556D01*
X173479394Y-50279357D01*
X173621047Y-50280928D01*
X173787041Y-50282276D01*
X173978960Y-50283412D01*
X174198387Y-50284343D01*
X174446906Y-50285078D01*
X174726100Y-50285627D01*
X175037553Y-50285998D01*
X175382849Y-50286200D01*
X175763571Y-50286242D01*
X176181304Y-50286133D01*
X176637629Y-50285881D01*
X177134133Y-50285495D01*
X177323750Y-50285325D01*
X181535916Y-50281416D01*
X181662916Y-50214396D01*
X181815137Y-50112633D01*
X181941263Y-49984739D01*
X182038077Y-49836859D01*
X182102360Y-49675138D01*
X182130897Y-49505721D01*
X182121242Y-49339066D01*
X182068563Y-49149830D01*
X181982114Y-48984246D01*
X181863463Y-48844740D01*
X181741174Y-48750191D01*
X181718067Y-48734873D01*
X181697820Y-48720800D01*
X181678641Y-48707919D01*
X181658740Y-48696176D01*
X181636327Y-48685521D01*
X181609610Y-48675899D01*
X181576799Y-48667259D01*
X181536102Y-48659548D01*
X181485730Y-48652714D01*
X181423892Y-48646704D01*
X181348796Y-48641466D01*
X181258652Y-48636947D01*
X181151669Y-48633095D01*
X181026057Y-48629857D01*
X180880024Y-48627182D01*
X180711780Y-48625016D01*
X180519535Y-48623306D01*
X180301497Y-48622002D01*
X180055875Y-48621049D01*
X179780879Y-48620396D01*
X179474719Y-48619990D01*
X179135603Y-48619779D01*
X178761740Y-48619710D01*
X178351340Y-48619730D01*
X177902613Y-48619788D01*
X177413766Y-48619831D01*
X177291999Y-48619833D01*
X176797178Y-48619857D01*
X176342920Y-48619940D01*
X175927456Y-48620095D01*
X175549017Y-48620336D01*
X175205833Y-48620678D01*
X174896133Y-48621134D01*
X174618150Y-48621718D01*
X174370112Y-48622445D01*
X174150251Y-48623329D01*
X173956796Y-48624383D01*
X173787979Y-48625622D01*
X173642029Y-48627060D01*
X173517176Y-48628710D01*
X173411653Y-48630587D01*
X173323687Y-48632705D01*
X173251511Y-48635078D01*
X173193354Y-48637720D01*
X173147447Y-48640645D01*
X173112020Y-48643867D01*
X173085304Y-48647400D01*
X173065528Y-48651258D01*
X173057216Y-48653451D01*
X172888996Y-48722692D01*
X172746056Y-48821378D01*
X172629791Y-48944203D01*
X172541594Y-49085863D01*
X172482859Y-49241052D01*
X172454981Y-49404468D01*
X154630333Y-49404468D01*
X154600909Y-49234085D01*
X154536060Y-49072528D01*
X154439903Y-48927706D01*
X154316109Y-48804955D01*
X154168353Y-48709613D01*
X154000306Y-48647018D01*
X153971175Y-48640269D01*
X153936066Y-48637427D01*
X153858935Y-48634847D01*
X153740093Y-48632529D01*
X153579850Y-48630474D01*
X153378518Y-48628683D01*
X153136405Y-48627159D01*
X152853823Y-48625901D01*
X152531083Y-48624911D01*
X152168496Y-48624191D01*
X151766371Y-48623741D01*
X151325019Y-48623562D01*
X150844751Y-48623656D01*
X150325878Y-48624023D01*
X149768710Y-48624665D01*
X149733000Y-48624714D01*
X145594916Y-48630416D01*
X145473279Y-48679536D01*
X145360965Y-48739968D01*
X145246377Y-48827084D01*
X145143707Y-48928570D01*
X145067315Y-49031821D01*
X144995459Y-49193597D01*
X144960352Y-49364839D01*
X127115592Y-49364839D01*
X127115454Y-49349554D01*
X127111249Y-49273138D01*
X127101823Y-49215186D01*
X127085199Y-49163776D01*
X127059398Y-49106983D01*
X127057985Y-49104102D01*
X126964333Y-48949513D01*
X126848433Y-48827034D01*
X126702741Y-48729080D01*
X126666341Y-48710264D01*
X126504780Y-48630416D01*
X118099416Y-48630416D01*
X117972416Y-48681397D01*
X117879616Y-48727927D01*
X117788546Y-48794922D01*
X117705897Y-48871897D01*
X117604086Y-48985178D01*
X117533958Y-49094409D01*
X117490736Y-49211403D01*
X117469642Y-49347975D01*
X117465471Y-49466500D01*
X105350091Y-49466500D01*
X105350529Y-49380696D01*
X105351381Y-49231995D01*
X105352262Y-49095685D01*
X105353171Y-48971203D01*
X105354111Y-48857982D01*
X105355080Y-48755457D01*
X105356081Y-48663065D01*
X105357114Y-48580239D01*
X105358178Y-48506415D01*
X105359276Y-48441029D01*
X105360407Y-48383514D01*
X105361572Y-48333307D01*
X105362772Y-48289842D01*
X105364008Y-48252554D01*
X105365279Y-48220878D01*
X105366587Y-48194250D01*
X105367933Y-48172104D01*
X105369316Y-48153876D01*
X105370738Y-48139000D01*
X105372200Y-48126912D01*
X105373701Y-48117047D01*
X105374645Y-48111833D01*
X105450023Y-47805387D01*
X105556467Y-47498296D01*
X105689106Y-47202059D01*
X105843070Y-46928173D01*
X105932568Y-46794726D01*
X106040335Y-46657072D01*
X106172099Y-46508864D01*
X106316362Y-46361824D01*
X106461630Y-46227675D01*
X106595333Y-46118935D01*
X106889626Y-45922509D01*
X107197688Y-45761897D01*
X107524872Y-45634795D01*
X107876534Y-45538896D01*
X108002285Y-45513053D01*
X108011172Y-45511648D01*
X108023197Y-45510278D01*
X108038912Y-45508944D01*
X108058871Y-45507645D01*
X108083623Y-45506380D01*
X108113722Y-45505149D01*
X108149720Y-45503952D01*
X108192169Y-45502788D01*
X108241620Y-45501655D01*
X108298627Y-45500555D01*
X108363740Y-45499485D01*
X108437512Y-45498446D01*
X108520495Y-45497437D01*
X108613241Y-45496458D01*
X108716303Y-45495507D01*
X108830231Y-45494585D01*
X108955579Y-45493690D01*
X109092898Y-45492822D01*
X109242741Y-45491982D01*
X109405659Y-45491167D01*
X109582205Y-45490377D01*
X109772930Y-45489613D01*
X109978386Y-45488873D01*
X110199127Y-45488157D01*
X110435703Y-45487464D01*
X110688667Y-45486794D01*
X110958571Y-45486146D01*
X111245967Y-45485519D01*
X111551407Y-45484913D01*
X111875442Y-45484328D01*
X112218626Y-45483763D01*
X112581510Y-45483217D01*
X112964647Y-45482690D01*
X113368587Y-45482181D01*
X113793884Y-45481690D01*
X114241090Y-45481215D01*
X114710756Y-45480758D01*
X115203434Y-45480316D01*
X115719677Y-45479890D01*
X116260037Y-45479478D01*
X116825065Y-45479081D01*
X117415314Y-45478697D01*
X118031336Y-45478327D01*
X118673683Y-45477969D01*
X119342907Y-45477623D01*
X120039560Y-45477289D01*
X120764193Y-45476965D01*
X121517360Y-45476652D01*
X122299613Y-45476349D01*
X123111502Y-45476055D01*
X123953581Y-45475769D01*
X124826401Y-45475492D01*
X125730515Y-45475222D01*
X126666474Y-45474959D01*
X127634830Y-45474703D01*
X128636137Y-45474452D01*
X129670944Y-45474207D01*
X130739806Y-45473967D01*
X131843274Y-45473730D01*
X132981899Y-45473497D01*
X134156234Y-45473268D01*
X135366831Y-45473040D01*
X136614242Y-45472815D01*
X137899020Y-45472591D01*
X139221715Y-45472368D01*
X140582881Y-45472145D01*
X141983069Y-45471922D01*
X143422831Y-45471698D01*
X144902720Y-45471472D01*
X146423287Y-45471245D01*
X147985085Y-45471015D01*
X149584833Y-45470782D01*
X151363407Y-45470535D01*
X153104967Y-45470315D01*
X154809391Y-45470122D01*
X156476560Y-45469956D01*
X158106351Y-45469816D01*
X159698646Y-45469703D01*
X161253322Y-45469616D01*
X162770259Y-45469556D01*
X164249336Y-45469523D01*
X165690433Y-45469515D01*
X167093428Y-45469534D01*
X168458202Y-45469580D01*
X169784633Y-45469652D01*
X171072600Y-45469749D01*
X172321983Y-45469874D01*
X173532661Y-45470024D01*
X174704514Y-45470200D01*
X175837420Y-45470403D01*
X176931259Y-45470631D01*
X177985910Y-45470886D01*
X179001252Y-45471166D01*
X179977165Y-45471473D01*
X180913527Y-45471805D01*
X181810219Y-45472163D01*
X182667119Y-45472547D01*
X183484107Y-45472956D01*
X184261061Y-45473392D01*
X184997862Y-45473853D01*
X185694387Y-45474339D01*
X186350518Y-45474851D01*
X186966132Y-45475389D01*
X187541109Y-45475952D01*
X188075329Y-45476540D01*
X188568670Y-45477154D01*
X189021012Y-45477793D01*
X189432235Y-45478457D01*
X189802216Y-45479147D01*
X190130836Y-45479862D01*
X190417974Y-45480602D01*
X190663510Y-45481367D01*
X190867321Y-45482158D01*
X191029288Y-45482973D01*
X191149290Y-45483813D01*
X191227206Y-45484679D01*
X191262916Y-45485569D01*
X191263584Y-45485614D01*
X191486863Y-45506375D01*
X191682831Y-45535444D01*
X191866143Y-45575563D01*
X192051453Y-45629474D01*
X192076916Y-45637791D01*
X192410303Y-45769712D01*
X192723649Y-45937258D01*
X193014572Y-46137658D01*
X193280689Y-46368144D01*
X193519616Y-46625946D01*
X193728971Y-46908293D01*
X193906370Y-47212417D01*
X194049430Y-47535547D01*
X194155768Y-47874913D01*
X194205597Y-48111833D01*
X194207219Y-48121711D01*
X194208798Y-48132347D01*
X194210334Y-48144306D01*
X194211828Y-48158154D01*
X194213280Y-48174454D01*
X194214691Y-48193771D01*
X194216061Y-48216672D01*
X194217391Y-48243720D01*
X194218682Y-48275480D01*
X194219933Y-48312518D01*
X194221145Y-48355398D01*
X194222320Y-48404686D01*
X194223456Y-48460945D01*
X194224556Y-48524741D01*
X194225618Y-48596639D01*
X194226645Y-48677204D01*
X194227635Y-48767001D01*
X194228591Y-48866594D01*
X194229511Y-48976548D01*
X194230398Y-49097429D01*
X194231250Y-49229801D01*
X194232070Y-49374229D01*
X194232857Y-49531279D01*
X194233611Y-49701514D01*
X194234334Y-49885500D01*
X194235025Y-50083802D01*
X194235686Y-50296985D01*
X194236316Y-50525613D01*
X194236917Y-50770251D01*
X194237488Y-51031465D01*
X194238030Y-51309820D01*
X194238545Y-51605879D01*
X194239031Y-51920208D01*
X194239490Y-52253373D01*
X194239922Y-52605937D01*
X194240328Y-52978466D01*
X194240709Y-53371525D01*
X194241063Y-53785678D01*
X194241394Y-54221491D01*
X194241699Y-54679528D01*
X194241981Y-55160354D01*
X194242240Y-55664534D01*
X194242476Y-56192634D01*
X194242689Y-56745217D01*
X194242881Y-57322850D01*
X194243051Y-57926096D01*
X194243200Y-58555520D01*
X194243329Y-59211689D01*
X194243438Y-59895165D01*
X194243528Y-60606516D01*
X194243599Y-61346304D01*
X194243652Y-62115095D01*
X194243686Y-62913455D01*
X194243704Y-63741948D01*
X194243704Y-64601138D01*
X194243688Y-65491591D01*
X194243656Y-66413872D01*
X194243609Y-67368545D01*
X194243547Y-68356176D01*
X194243471Y-69377330D01*
X194243380Y-70432570D01*
X194243276Y-71522463D01*
X194243160Y-72647572D01*
X194243030Y-73808464D01*
X194242889Y-75005703D01*
X194242737Y-76239853D01*
X194242573Y-77511480D01*
X194242400Y-78821149D01*
X194242216Y-80169424D01*
X194242023Y-81556870D01*
X194241820Y-82984052D01*
X194241610Y-84451536D01*
X194241391Y-85959886D01*
X194241165Y-87509667D01*
X194241027Y-88455500D01*
X194235156Y-128555750D01*
X194189576Y-128737556D01*
X194098018Y-129054572D01*
X193989120Y-129340366D01*
X193859160Y-129603800D01*
X193747932Y-129788493D01*
X193528561Y-130088452D01*
X193281316Y-130356787D01*
X193007405Y-130592567D01*
X192708034Y-130794860D01*
X192384408Y-130962735D01*
X192068709Y-131085181D01*
X192013553Y-131103783D01*
X191964051Y-131120869D01*
X191918305Y-131136506D01*
X191874420Y-131150760D01*
X191830499Y-131163698D01*
X191784644Y-131175388D01*
X191734959Y-131185896D01*
X191679546Y-131195290D01*
X191616510Y-131203635D01*
X191543952Y-131210999D01*
X191459977Y-131217449D01*
X191362687Y-131223052D01*
X191250185Y-131227875D01*
X191120575Y-131231984D01*
X190971959Y-131235447D01*
X190802442Y-131238329D01*
X190610125Y-131240700D01*
X190393112Y-131242624D01*
X190149506Y-131244170D01*
X189877410Y-131245403D01*
X189574928Y-131246391D01*
X189240162Y-131247201D01*
X188871216Y-131247900D01*
X188466193Y-131248555D01*
X188023195Y-131249232D01*
X187540327Y-131249998D01*
X187388500Y-131250253D01*
X186844495Y-131251094D01*
X186341806Y-131251678D01*
X185879417Y-131252003D01*
X185456312Y-131252063D01*
X185071473Y-131251856D01*
X184723886Y-131251377D01*
X184412533Y-131250622D01*
X184136397Y-131249588D01*
X183894464Y-131248269D01*
X183685715Y-131246662D01*
X183509136Y-131244764D01*
X183363709Y-131242569D01*
X183248418Y-131240074D01*
X183162247Y-131237275D01*
X183104179Y-131234168D01*
X183092935Y-131233253D01*
X182734287Y-131180115D01*
X182386751Y-131087805D01*
X182053634Y-130958113D01*
X181738247Y-130792825D01*
X181443898Y-130593731D01*
X181173897Y-130362620D01*
X180931552Y-130101280D01*
X180880333Y-130037416D01*
X180853885Y-130003685D01*
X180830497Y-129973849D01*
X180808758Y-129945555D01*
X180787262Y-129916447D01*
X180764600Y-129884171D01*
X180739363Y-129846373D01*
X180710143Y-129800697D01*
X180675533Y-129744790D01*
X180634123Y-129676296D01*
X180584506Y-129592862D01*
X180525274Y-129492131D01*
X180455017Y-129371751D01*
X180372328Y-129229366D01*
X180275799Y-129062622D01*
X180164021Y-128869165D01*
X180035587Y-128646638D01*
X179889087Y-128392689D01*
X179723113Y-128104962D01*
X179684002Y-128037166D01*
X179541742Y-127790845D01*
X179404212Y-127553232D01*
X179273052Y-127327130D01*
X179149903Y-127115346D01*
X179036406Y-126920685D01*
X178934202Y-126745952D01*
X178844932Y-126593954D01*
X178770236Y-126467494D01*
X178711756Y-126369380D01*
X178671132Y-126302416D01*
X178650249Y-126269750D01*
X178422778Y-125980921D01*
X178174589Y-125726859D01*
X177903581Y-125506178D01*
X177607654Y-125317491D01*
X177284710Y-125159414D01*
X176932647Y-125030559D01*
X176657000Y-124954383D01*
X176648424Y-124952528D01*
X176637767Y-124950734D01*
X176624335Y-124948997D01*
X176607435Y-124947319D01*
X176586376Y-124945696D01*
X176560465Y-124944129D01*
X176529009Y-124942616D01*
X176491316Y-124941156D01*
X176446693Y-124939747D01*
X176394448Y-124938389D01*
X176333889Y-124937080D01*
X176264322Y-124935820D01*
X176185056Y-124934607D01*
X176095398Y-124933439D01*
X175994656Y-124932316D01*
X175882136Y-124931237D01*
X175757147Y-124930200D01*
X175618996Y-124929204D01*
X175466991Y-124928249D01*
X175300439Y-124927332D01*
X175118647Y-124926453D01*
X174920924Y-124925611D01*
X174706576Y-124924804D01*
X174474911Y-124924031D01*
X174225238Y-124923291D01*
X173956862Y-124922584D01*
X173669092Y-124921907D01*
X173361236Y-124921260D01*
X173032600Y-124920641D01*
X172682493Y-124920049D01*
X172310221Y-124919484D01*
X171915093Y-124918944D01*
X171496415Y-124918427D01*
X171053496Y-124917933D01*
X170585644Y-124917460D01*
X170092164Y-124917008D01*
X169572365Y-124916575D01*
X169025555Y-124916160D01*
X168451041Y-124915762D01*
X167848131Y-124915379D01*
X167216131Y-124915011D01*
X166554350Y-124914657D01*
X165862096Y-124914314D01*
X165138675Y-124913983D01*
X164383395Y-124913661D01*
X163595563Y-124913348D01*
X162774488Y-124913042D01*
X161919477Y-124912743D01*
X161029836Y-124912450D01*
X160104875Y-124912160D01*
X159143900Y-124911873D01*
X158146218Y-124911588D01*
X157111138Y-124911303D01*
X156037967Y-124911018D01*
X154926012Y-124910731D01*
X153774581Y-124910441D01*
X152582981Y-124910147D01*
X151350521Y-124909848D01*
X150076506Y-124909542D01*
X149912916Y-124909503D01*
X148517781Y-124909182D01*
X147164606Y-124908895D01*
X145853019Y-124908643D01*
X144582647Y-124908426D01*
X143353117Y-124908244D01*
X142164058Y-124908096D01*
X141015095Y-124907985D01*
X139905856Y-124907909D01*
X138835968Y-124907868D01*
X137805060Y-124907864D01*
X136812757Y-124907897D01*
X135858688Y-124907966D01*
X134942479Y-124908071D01*
X134063757Y-124908214D01*
X133222151Y-124908394D01*
X132417287Y-124908612D01*
X131648793Y-124908867D01*
X130916295Y-124909161D01*
X130219421Y-124909492D01*
X129557799Y-124909862D01*
X128931056Y-124910271D01*
X128338818Y-124910719D01*
X127780713Y-124911205D01*
X127256369Y-124911732D01*
X126765412Y-124912297D01*
X126307471Y-124912903D01*
X125882171Y-124913549D01*
X125489141Y-124914235D01*
X125128008Y-124914961D01*
X124798399Y-124915729D01*
X124499940Y-124916537D01*
X124232261Y-124917387D01*
X123994987Y-124918278D01*
X123787746Y-124919211D01*
X123610166Y-124920186D01*
X123461873Y-124921203D01*
X123342495Y-124922262D01*
X123251658Y-124923364D01*
X123188992Y-124924509D01*
X123154122Y-124925697D01*
X123147666Y-124926210D01*
X122791392Y-124993030D01*
X122444546Y-125100338D01*
X122110671Y-125246703D01*
X121793307Y-125430693D01*
X121644833Y-125534197D01*
X121507881Y-125645140D01*
X121361655Y-125780363D01*
X121216867Y-125928770D01*
X121084228Y-126079267D01*
X120974447Y-126220758D01*
X120954887Y-126248895D01*
X120925134Y-126295511D01*
X120876063Y-126375849D01*
X120809432Y-126486918D01*
X120726998Y-126625724D01*
X120630518Y-126789276D01*
X120521748Y-126974580D01*
X120402445Y-127178645D01*
X120274366Y-127398477D01*
X120139269Y-127631085D01*
X119998909Y-127873476D01*
X119867723Y-128100666D01*
X119724975Y-128347870D01*
X119586525Y-128586961D01*
X119454059Y-128815064D01*
X119329262Y-129029307D01*
X119213821Y-129226816D01*
X119109422Y-129404718D01*
X119017751Y-129560139D01*
X118940493Y-129690207D01*
X118879335Y-129792047D01*
X118835962Y-129862787D01*
X118812722Y-129898632D01*
X118581876Y-130188547D01*
X118324824Y-130445241D01*
X118041737Y-130668602D01*
X117732790Y-130858518D01*
X117398154Y-131014878D01*
X117038002Y-131137571D01*
X116806175Y-131195762D01*
X116596583Y-131241768D01*
X112469083Y-131245540D01*
X112051932Y-131245838D01*
X111644831Y-131245966D01*
X111249909Y-131245930D01*
X110869296Y-131245736D01*
X110505123Y-131245391D01*
X110159517Y-131244900D01*
X109834610Y-131244270D01*
X109532531Y-131243507D01*
X109255410Y-131242617D01*
X109005376Y-131241606D01*
X108784559Y-131240481D01*
X108595089Y-131239248D01*
X108439095Y-131237912D01*
X108318707Y-131236481D01*
X108236054Y-131234960D01*
X108193268Y-131233356D01*
X108190282Y-131233094D01*
X107829287Y-131173763D01*
X107482072Y-131075700D01*
X107151276Y-130940772D01*
X106839538Y-130770844D01*
X106549497Y-130567785D01*
X106283790Y-130333461D01*
X106045057Y-130069738D01*
X105835936Y-129778484D01*
X105659065Y-129461564D01*
X105645057Y-129432349D01*
X105539535Y-129189385D01*
X105459529Y-128956167D01*
X105401105Y-128718176D01*
X105360327Y-128460890D01*
X105346144Y-128329239D01*
X105345166Y-128303395D01*
X105344216Y-128246773D01*
X105343294Y-128159129D01*
X105342402Y-128040215D01*
X105341537Y-127889785D01*
X105340701Y-127707593D01*
X105339893Y-127493393D01*
X105339113Y-127246939D01*
X105338361Y-126967984D01*
X105337636Y-126656284D01*
X105336940Y-126311590D01*
X105336271Y-125933659D01*
X105335630Y-125522242D01*
X105335016Y-125077094D01*
X105334430Y-124597970D01*
X105333871Y-124084622D01*
X105333339Y-123536805D01*
X105332834Y-122954272D01*
X105332356Y-122336778D01*
X105331905Y-121684077D01*
X105331481Y-120995921D01*
X105331406Y-120859458D01*
X117458282Y-120859458D01*
X117467065Y-121039512D01*
X117493248Y-121153174D01*
X117563278Y-121319075D01*
X117664311Y-121466196D01*
X117790156Y-121586854D01*
X117898333Y-121655996D01*
X117918783Y-121666802D01*
X117937762Y-121676730D01*
X117957056Y-121685814D01*
X117978454Y-121694092D01*
X118003746Y-121701597D01*
X118034718Y-121708367D01*
X118073161Y-121714435D01*
X118120862Y-121719838D01*
X118179609Y-121724612D01*
X118251192Y-121728791D01*
X118337399Y-121732411D01*
X118440017Y-121735509D01*
X118560836Y-121738119D01*
X118701645Y-121740276D01*
X118864231Y-121742018D01*
X119050383Y-121743378D01*
X119261889Y-121744392D01*
X119500538Y-121745097D01*
X119768119Y-121745527D01*
X120066420Y-121745719D01*
X120397228Y-121745707D01*
X120762334Y-121745527D01*
X121163525Y-121745215D01*
X121602590Y-121744806D01*
X122081317Y-121744336D01*
X122332750Y-121744092D01*
X126523750Y-121740083D01*
X126650750Y-121677883D01*
X126779558Y-121597400D01*
X126900560Y-121490081D01*
X127001589Y-121368091D01*
X127059202Y-121269511D01*
X127085076Y-121210026D01*
X127101776Y-121156256D01*
X127111261Y-121096041D01*
X127115488Y-121017219D01*
X127116416Y-120914138D01*
X127116064Y-120866905D01*
X144956059Y-120866905D01*
X144965835Y-121049603D01*
X145013167Y-121228117D01*
X145084053Y-121363663D01*
X145188041Y-121490644D01*
X145315902Y-121600571D01*
X145458405Y-121684953D01*
X145548054Y-121720092D01*
X145565287Y-121723493D01*
X145595456Y-121726607D01*
X145640162Y-121729442D01*
X145701006Y-121732008D01*
X145779590Y-121734314D01*
X145877514Y-121736368D01*
X145996380Y-121738179D01*
X146137787Y-121739757D01*
X146303338Y-121741110D01*
X146494633Y-121742248D01*
X146713273Y-121743179D01*
X146960859Y-121743913D01*
X147238992Y-121744457D01*
X147549273Y-121744823D01*
X147893303Y-121745017D01*
X148272683Y-121745050D01*
X148689014Y-121744930D01*
X149143898Y-121744666D01*
X149638934Y-121744268D01*
X149828250Y-121744092D01*
X154019250Y-121740083D01*
X154158719Y-121671835D01*
X154314506Y-121572742D01*
X154443772Y-121443152D01*
X154542677Y-121288310D01*
X154607384Y-121113461D01*
X154623152Y-121037119D01*
X154625071Y-120993071D01*
X172455398Y-120993071D01*
X172488272Y-121160151D01*
X172556911Y-121320176D01*
X172662415Y-121467724D01*
X172675958Y-121482573D01*
X172818882Y-121607769D01*
X172978387Y-121696317D01*
X173043554Y-121720066D01*
X173060815Y-121723464D01*
X173091063Y-121726576D01*
X173135898Y-121729409D01*
X173196920Y-121731973D01*
X173275727Y-121734277D01*
X173373921Y-121736330D01*
X173493099Y-121738141D01*
X173634862Y-121739718D01*
X173800809Y-121741070D01*
X173992540Y-121742208D01*
X174211654Y-121743139D01*
X174459751Y-121743873D01*
X174738430Y-121744418D01*
X175049290Y-121744783D01*
X175393932Y-121744979D01*
X175773955Y-121745012D01*
X176190958Y-121744893D01*
X176646541Y-121744630D01*
X177142304Y-121744233D01*
X177323750Y-121744066D01*
X181514750Y-121740083D01*
X181635782Y-121683355D01*
X181791991Y-121587431D01*
X181924624Y-121459788D01*
X182028898Y-121306639D01*
X182100030Y-121134199D01*
X182119350Y-121055083D01*
X182131861Y-120884506D01*
X182105865Y-120714628D01*
X182044794Y-120551905D01*
X181952081Y-120402791D01*
X181831159Y-120273741D01*
X181685461Y-120171210D01*
X181635782Y-120145811D01*
X181514750Y-120089083D01*
X173069250Y-120089083D01*
X172947485Y-120146146D01*
X172788916Y-120241666D01*
X172659500Y-120362670D01*
X172560338Y-120503736D01*
X172492532Y-120659441D01*
X172457185Y-120824360D01*
X172455398Y-120993071D01*
X154625071Y-120993071D01*
X154630802Y-120861531D01*
X154599739Y-120688779D01*
X154533435Y-120525271D01*
X154435360Y-120377413D01*
X154308985Y-120251611D01*
X154157780Y-120154271D01*
X154140282Y-120145811D01*
X154019250Y-120089083D01*
X145573750Y-120089083D01*
X145436166Y-120155233D01*
X145276146Y-120254090D01*
X145146165Y-120379656D01*
X145048184Y-120526961D01*
X144984162Y-120691034D01*
X144956059Y-120866905D01*
X127116064Y-120866905D01*
X127115631Y-120808977D01*
X127111756Y-120733763D01*
X127102511Y-120676115D01*
X127085618Y-120623654D01*
X127058797Y-120564000D01*
X127047809Y-120541499D01*
X126951268Y-120390692D01*
X126823571Y-120260551D01*
X126674207Y-120160392D01*
X126644782Y-120145811D01*
X126523750Y-120089083D01*
X118078250Y-120089083D01*
X117940606Y-120154315D01*
X117782021Y-120251363D01*
X117652083Y-120375791D01*
X117553205Y-120522208D01*
X117487800Y-120685227D01*
X117458282Y-120859458D01*
X105331406Y-120859458D01*
X105331083Y-120272065D01*
X105330712Y-119512264D01*
%TD*%
M02*
