%TF.GenerationSoftware,KiCad,Pcbnew,(6.0.0)*%
%TF.CreationDate,2022-01-21T14:33:05-08:00*%
%TF.ProjectId,PCB-bottom,5043422d-626f-4747-946f-6d2e6b696361,rev?*%
%TF.SameCoordinates,Original*%
%TF.FileFunction,Soldermask,Top*%
%TF.FilePolarity,Negative*%
%FSLAX46Y46*%
G04 Gerber Fmt 4.6, Leading zero omitted, Abs format (unit mm)*
G04 Created by KiCad (PCBNEW (6.0.0)) date 2022-01-21 14:33:05*
%MOMM*%
%LPD*%
G01*
G04 APERTURE LIST*
%ADD10C,0.010000*%
G04 APERTURE END LIST*
D10*
%TO.C,Ref\u002A\u002A*%
X181548132Y-78194093D02*
X181580356Y-78246919D01*
X181580356Y-78246919D02*
X181630802Y-78331466D01*
X181630802Y-78331466D02*
X181698056Y-78445291D01*
X181698056Y-78445291D02*
X181780708Y-78585951D01*
X181780708Y-78585951D02*
X181877343Y-78751004D01*
X181877343Y-78751004D02*
X181986549Y-78938008D01*
X181986549Y-78938008D02*
X182106914Y-79144519D01*
X182106914Y-79144519D02*
X182237024Y-79368096D01*
X182237024Y-79368096D02*
X182375468Y-79606296D01*
X182375468Y-79606296D02*
X182520832Y-79856675D01*
X182520832Y-79856675D02*
X182671704Y-80116793D01*
X182671704Y-80116793D02*
X182826672Y-80384206D01*
X182826672Y-80384206D02*
X182984322Y-80656471D01*
X182984322Y-80656471D02*
X183143241Y-80931146D01*
X183143241Y-80931146D02*
X183302019Y-81205789D01*
X183302019Y-81205789D02*
X183459240Y-81477957D01*
X183459240Y-81477957D02*
X183613494Y-81745207D01*
X183613494Y-81745207D02*
X183763367Y-82005097D01*
X183763367Y-82005097D02*
X183907446Y-82255185D01*
X183907446Y-82255185D02*
X184044319Y-82493027D01*
X184044319Y-82493027D02*
X184172574Y-82716182D01*
X184172574Y-82716182D02*
X184290797Y-82922206D01*
X184290797Y-82922206D02*
X184397577Y-83108657D01*
X184397577Y-83108657D02*
X184491499Y-83273093D01*
X184491499Y-83273093D02*
X184571152Y-83413071D01*
X184571152Y-83413071D02*
X184635124Y-83526149D01*
X184635124Y-83526149D02*
X184682000Y-83609883D01*
X184682000Y-83609883D02*
X184710369Y-83661832D01*
X184710369Y-83661832D02*
X184718871Y-83679541D01*
X184718871Y-83679541D02*
X184700159Y-83690467D01*
X184700159Y-83690467D02*
X184647438Y-83720991D01*
X184647438Y-83720991D02*
X184563380Y-83769572D01*
X184563380Y-83769572D02*
X184450655Y-83834670D01*
X184450655Y-83834670D02*
X184311933Y-83914746D01*
X184311933Y-83914746D02*
X184149886Y-84008260D01*
X184149886Y-84008260D02*
X183967183Y-84113672D01*
X183967183Y-84113672D02*
X183766496Y-84229442D01*
X183766496Y-84229442D02*
X183550496Y-84354032D01*
X183550496Y-84354032D02*
X183321852Y-84485900D01*
X183321852Y-84485900D02*
X183083237Y-84623507D01*
X183083237Y-84623507D02*
X182837319Y-84765313D01*
X182837319Y-84765313D02*
X182586770Y-84909779D01*
X182586770Y-84909779D02*
X182334261Y-85055365D01*
X182334261Y-85055365D02*
X182082462Y-85200531D01*
X182082462Y-85200531D02*
X181834045Y-85343738D01*
X181834045Y-85343738D02*
X181591678Y-85483444D01*
X181591678Y-85483444D02*
X181358034Y-85618112D01*
X181358034Y-85618112D02*
X181135783Y-85746200D01*
X181135783Y-85746200D02*
X180927596Y-85866170D01*
X180927596Y-85866170D02*
X180736142Y-85976481D01*
X180736142Y-85976481D02*
X180564094Y-86075594D01*
X180564094Y-86075594D02*
X180414121Y-86161969D01*
X180414121Y-86161969D02*
X180288894Y-86234066D01*
X180288894Y-86234066D02*
X180191084Y-86290345D01*
X180191084Y-86290345D02*
X180123362Y-86329267D01*
X180123362Y-86329267D02*
X180088398Y-86349292D01*
X180088398Y-86349292D02*
X180084150Y-86351683D01*
X180084150Y-86351683D02*
X180072335Y-86334438D01*
X180072335Y-86334438D02*
X180040561Y-86282514D01*
X180040561Y-86282514D02*
X179989996Y-86197915D01*
X179989996Y-86197915D02*
X179921810Y-86082646D01*
X179921810Y-86082646D02*
X179837172Y-85938712D01*
X179837172Y-85938712D02*
X179737251Y-85768117D01*
X179737251Y-85768117D02*
X179623217Y-85572866D01*
X179623217Y-85572866D02*
X179496237Y-85354963D01*
X179496237Y-85354963D02*
X179357482Y-85116413D01*
X179357482Y-85116413D02*
X179208120Y-84859220D01*
X179208120Y-84859220D02*
X179049321Y-84585389D01*
X179049321Y-84585389D02*
X178882254Y-84296925D01*
X178882254Y-84296925D02*
X178708088Y-83995832D01*
X178708088Y-83995832D02*
X178527992Y-83684115D01*
X178527992Y-83684115D02*
X178492898Y-83623330D01*
X178492898Y-83623330D02*
X178311669Y-83309294D01*
X178311669Y-83309294D02*
X178136228Y-83005089D01*
X178136228Y-83005089D02*
X177967745Y-82712751D01*
X177967745Y-82712751D02*
X177807388Y-82434315D01*
X177807388Y-82434315D02*
X177656323Y-82171815D01*
X177656323Y-82171815D02*
X177515721Y-81927288D01*
X177515721Y-81927288D02*
X177386749Y-81702768D01*
X177386749Y-81702768D02*
X177270576Y-81500290D01*
X177270576Y-81500290D02*
X177168369Y-81321890D01*
X177168369Y-81321890D02*
X177081297Y-81169602D01*
X177081297Y-81169602D02*
X177010528Y-81045461D01*
X177010528Y-81045461D02*
X176957231Y-80951504D01*
X176957231Y-80951504D02*
X176922574Y-80889764D01*
X176922574Y-80889764D02*
X176907725Y-80862278D01*
X176907725Y-80862278D02*
X176907247Y-80861130D01*
X176907247Y-80861130D02*
X176924362Y-80847645D01*
X176924362Y-80847645D02*
X176975544Y-80814660D01*
X176975544Y-80814660D02*
X177058126Y-80763724D01*
X177058126Y-80763724D02*
X177169443Y-80696382D01*
X177169443Y-80696382D02*
X177306831Y-80614180D01*
X177306831Y-80614180D02*
X177467623Y-80518667D01*
X177467623Y-80518667D02*
X177649155Y-80411387D01*
X177649155Y-80411387D02*
X177848762Y-80293889D01*
X177848762Y-80293889D02*
X178063776Y-80167718D01*
X178063776Y-80167718D02*
X178291535Y-80034421D01*
X178291535Y-80034421D02*
X178529371Y-79895545D01*
X178529371Y-79895545D02*
X178774621Y-79752637D01*
X178774621Y-79752637D02*
X179024618Y-79607242D01*
X179024618Y-79607242D02*
X179276697Y-79460908D01*
X179276697Y-79460908D02*
X179528193Y-79315182D01*
X179528193Y-79315182D02*
X179776440Y-79171609D01*
X179776440Y-79171609D02*
X180018774Y-79031737D01*
X180018774Y-79031737D02*
X180252528Y-78897113D01*
X180252528Y-78897113D02*
X180475039Y-78769282D01*
X180475039Y-78769282D02*
X180683639Y-78649791D01*
X180683639Y-78649791D02*
X180875664Y-78540188D01*
X180875664Y-78540188D02*
X181048449Y-78442018D01*
X181048449Y-78442018D02*
X181199328Y-78356829D01*
X181199328Y-78356829D02*
X181325636Y-78286166D01*
X181325636Y-78286166D02*
X181424708Y-78231577D01*
X181424708Y-78231577D02*
X181493877Y-78194609D01*
X181493877Y-78194609D02*
X181530480Y-78176807D01*
X181530480Y-78176807D02*
X181535543Y-78175431D01*
X181535543Y-78175431D02*
X181548132Y-78194093D01*
X181548132Y-78194093D02*
X181548132Y-78194093D01*
G36*
X181548132Y-78194093D02*
G01*
X181580356Y-78246919D01*
X181630802Y-78331466D01*
X181698056Y-78445291D01*
X181780708Y-78585951D01*
X181877343Y-78751004D01*
X181986549Y-78938008D01*
X182106914Y-79144519D01*
X182237024Y-79368096D01*
X182375468Y-79606296D01*
X182520832Y-79856675D01*
X182671704Y-80116793D01*
X182826672Y-80384206D01*
X182984322Y-80656471D01*
X183143241Y-80931146D01*
X183302019Y-81205789D01*
X183459240Y-81477957D01*
X183613494Y-81745207D01*
X183763367Y-82005097D01*
X183907446Y-82255185D01*
X184044319Y-82493027D01*
X184172574Y-82716182D01*
X184290797Y-82922206D01*
X184397577Y-83108657D01*
X184491499Y-83273093D01*
X184571152Y-83413071D01*
X184635124Y-83526149D01*
X184682000Y-83609883D01*
X184710369Y-83661832D01*
X184718871Y-83679541D01*
X184700159Y-83690467D01*
X184647438Y-83720991D01*
X184563380Y-83769572D01*
X184450655Y-83834670D01*
X184311933Y-83914746D01*
X184149886Y-84008260D01*
X183967183Y-84113672D01*
X183766496Y-84229442D01*
X183550496Y-84354032D01*
X183321852Y-84485900D01*
X183083237Y-84623507D01*
X182837319Y-84765313D01*
X182586770Y-84909779D01*
X182334261Y-85055365D01*
X182082462Y-85200531D01*
X181834045Y-85343738D01*
X181591678Y-85483444D01*
X181358034Y-85618112D01*
X181135783Y-85746200D01*
X180927596Y-85866170D01*
X180736142Y-85976481D01*
X180564094Y-86075594D01*
X180414121Y-86161969D01*
X180288894Y-86234066D01*
X180191084Y-86290345D01*
X180123362Y-86329267D01*
X180088398Y-86349292D01*
X180084150Y-86351683D01*
X180072335Y-86334438D01*
X180040561Y-86282514D01*
X179989996Y-86197915D01*
X179921810Y-86082646D01*
X179837172Y-85938712D01*
X179737251Y-85768117D01*
X179623217Y-85572866D01*
X179496237Y-85354963D01*
X179357482Y-85116413D01*
X179208120Y-84859220D01*
X179049321Y-84585389D01*
X178882254Y-84296925D01*
X178708088Y-83995832D01*
X178527992Y-83684115D01*
X178492898Y-83623330D01*
X178311669Y-83309294D01*
X178136228Y-83005089D01*
X177967745Y-82712751D01*
X177807388Y-82434315D01*
X177656323Y-82171815D01*
X177515721Y-81927288D01*
X177386749Y-81702768D01*
X177270576Y-81500290D01*
X177168369Y-81321890D01*
X177081297Y-81169602D01*
X177010528Y-81045461D01*
X176957231Y-80951504D01*
X176922574Y-80889764D01*
X176907725Y-80862278D01*
X176907247Y-80861130D01*
X176924362Y-80847645D01*
X176975544Y-80814660D01*
X177058126Y-80763724D01*
X177169443Y-80696382D01*
X177306831Y-80614180D01*
X177467623Y-80518667D01*
X177649155Y-80411387D01*
X177848762Y-80293889D01*
X178063776Y-80167718D01*
X178291535Y-80034421D01*
X178529371Y-79895545D01*
X178774621Y-79752637D01*
X179024618Y-79607242D01*
X179276697Y-79460908D01*
X179528193Y-79315182D01*
X179776440Y-79171609D01*
X180018774Y-79031737D01*
X180252528Y-78897113D01*
X180475039Y-78769282D01*
X180683639Y-78649791D01*
X180875664Y-78540188D01*
X181048449Y-78442018D01*
X181199328Y-78356829D01*
X181325636Y-78286166D01*
X181424708Y-78231577D01*
X181493877Y-78194609D01*
X181530480Y-78176807D01*
X181535543Y-78175431D01*
X181548132Y-78194093D01*
G37*
X181548132Y-78194093D02*
X181580356Y-78246919D01*
X181630802Y-78331466D01*
X181698056Y-78445291D01*
X181780708Y-78585951D01*
X181877343Y-78751004D01*
X181986549Y-78938008D01*
X182106914Y-79144519D01*
X182237024Y-79368096D01*
X182375468Y-79606296D01*
X182520832Y-79856675D01*
X182671704Y-80116793D01*
X182826672Y-80384206D01*
X182984322Y-80656471D01*
X183143241Y-80931146D01*
X183302019Y-81205789D01*
X183459240Y-81477957D01*
X183613494Y-81745207D01*
X183763367Y-82005097D01*
X183907446Y-82255185D01*
X184044319Y-82493027D01*
X184172574Y-82716182D01*
X184290797Y-82922206D01*
X184397577Y-83108657D01*
X184491499Y-83273093D01*
X184571152Y-83413071D01*
X184635124Y-83526149D01*
X184682000Y-83609883D01*
X184710369Y-83661832D01*
X184718871Y-83679541D01*
X184700159Y-83690467D01*
X184647438Y-83720991D01*
X184563380Y-83769572D01*
X184450655Y-83834670D01*
X184311933Y-83914746D01*
X184149886Y-84008260D01*
X183967183Y-84113672D01*
X183766496Y-84229442D01*
X183550496Y-84354032D01*
X183321852Y-84485900D01*
X183083237Y-84623507D01*
X182837319Y-84765313D01*
X182586770Y-84909779D01*
X182334261Y-85055365D01*
X182082462Y-85200531D01*
X181834045Y-85343738D01*
X181591678Y-85483444D01*
X181358034Y-85618112D01*
X181135783Y-85746200D01*
X180927596Y-85866170D01*
X180736142Y-85976481D01*
X180564094Y-86075594D01*
X180414121Y-86161969D01*
X180288894Y-86234066D01*
X180191084Y-86290345D01*
X180123362Y-86329267D01*
X180088398Y-86349292D01*
X180084150Y-86351683D01*
X180072335Y-86334438D01*
X180040561Y-86282514D01*
X179989996Y-86197915D01*
X179921810Y-86082646D01*
X179837172Y-85938712D01*
X179737251Y-85768117D01*
X179623217Y-85572866D01*
X179496237Y-85354963D01*
X179357482Y-85116413D01*
X179208120Y-84859220D01*
X179049321Y-84585389D01*
X178882254Y-84296925D01*
X178708088Y-83995832D01*
X178527992Y-83684115D01*
X178492898Y-83623330D01*
X178311669Y-83309294D01*
X178136228Y-83005089D01*
X177967745Y-82712751D01*
X177807388Y-82434315D01*
X177656323Y-82171815D01*
X177515721Y-81927288D01*
X177386749Y-81702768D01*
X177270576Y-81500290D01*
X177168369Y-81321890D01*
X177081297Y-81169602D01*
X177010528Y-81045461D01*
X176957231Y-80951504D01*
X176922574Y-80889764D01*
X176907725Y-80862278D01*
X176907247Y-80861130D01*
X176924362Y-80847645D01*
X176975544Y-80814660D01*
X177058126Y-80763724D01*
X177169443Y-80696382D01*
X177306831Y-80614180D01*
X177467623Y-80518667D01*
X177649155Y-80411387D01*
X177848762Y-80293889D01*
X178063776Y-80167718D01*
X178291535Y-80034421D01*
X178529371Y-79895545D01*
X178774621Y-79752637D01*
X179024618Y-79607242D01*
X179276697Y-79460908D01*
X179528193Y-79315182D01*
X179776440Y-79171609D01*
X180018774Y-79031737D01*
X180252528Y-78897113D01*
X180475039Y-78769282D01*
X180683639Y-78649791D01*
X180875664Y-78540188D01*
X181048449Y-78442018D01*
X181199328Y-78356829D01*
X181325636Y-78286166D01*
X181424708Y-78231577D01*
X181493877Y-78194609D01*
X181530480Y-78176807D01*
X181535543Y-78175431D01*
X181548132Y-78194093D01*
X167786182Y-54378043D02*
X167820722Y-54431014D01*
X167820722Y-54431014D02*
X167874881Y-54518431D01*
X167874881Y-54518431D02*
X167947974Y-54639133D01*
X167947974Y-54639133D02*
X168039320Y-54791960D01*
X168039320Y-54791960D02*
X168148234Y-54975752D01*
X168148234Y-54975752D02*
X168274034Y-55189348D01*
X168274034Y-55189348D02*
X168416037Y-55431587D01*
X168416037Y-55431587D02*
X168573560Y-55701311D01*
X168573560Y-55701311D02*
X168745919Y-55997358D01*
X168745919Y-55997358D02*
X168932432Y-56318568D01*
X168932432Y-56318568D02*
X169132415Y-56663780D01*
X169132415Y-56663780D02*
X169345185Y-57031835D01*
X169345185Y-57031835D02*
X169381375Y-57094508D01*
X169381375Y-57094508D02*
X169562665Y-57408629D01*
X169562665Y-57408629D02*
X169738081Y-57712810D01*
X169738081Y-57712810D02*
X169906465Y-58005027D01*
X169906465Y-58005027D02*
X170066655Y-58283255D01*
X170066655Y-58283255D02*
X170217490Y-58545472D01*
X170217490Y-58545472D02*
X170357810Y-58789652D01*
X170357810Y-58789652D02*
X170486454Y-59013774D01*
X170486454Y-59013774D02*
X170602261Y-59215812D01*
X170602261Y-59215812D02*
X170704071Y-59393743D01*
X170704071Y-59393743D02*
X170790723Y-59545543D01*
X170790723Y-59545543D02*
X170861056Y-59669189D01*
X170861056Y-59669189D02*
X170913909Y-59762657D01*
X170913909Y-59762657D02*
X170948123Y-59823923D01*
X170948123Y-59823923D02*
X170962535Y-59850963D01*
X170962535Y-59850963D02*
X170962939Y-59852079D01*
X170962939Y-59852079D02*
X170944956Y-59864849D01*
X170944956Y-59864849D02*
X170892651Y-59897332D01*
X170892651Y-59897332D02*
X170808400Y-59948134D01*
X170808400Y-59948134D02*
X170694580Y-60015864D01*
X170694580Y-60015864D02*
X170553566Y-60099129D01*
X170553566Y-60099129D02*
X170387734Y-60196535D01*
X170387734Y-60196535D02*
X170199460Y-60306692D01*
X170199460Y-60306692D02*
X169991120Y-60428205D01*
X169991120Y-60428205D02*
X169765090Y-60559683D01*
X169765090Y-60559683D02*
X169523745Y-60699732D01*
X169523745Y-60699732D02*
X169269461Y-60846961D01*
X169269461Y-60846961D02*
X169004615Y-60999976D01*
X169004615Y-60999976D02*
X169000531Y-61002333D01*
X169000531Y-61002333D02*
X168726913Y-61160246D01*
X168726913Y-61160246D02*
X168457867Y-61315525D01*
X168457867Y-61315525D02*
X168196370Y-61466451D01*
X168196370Y-61466451D02*
X167945401Y-61611305D01*
X167945401Y-61611305D02*
X167707938Y-61748368D01*
X167707938Y-61748368D02*
X167486958Y-61875921D01*
X167486958Y-61875921D02*
X167285441Y-61992245D01*
X167285441Y-61992245D02*
X167106363Y-62095620D01*
X167106363Y-62095620D02*
X166952703Y-62184329D01*
X166952703Y-62184329D02*
X166827439Y-62256652D01*
X166827439Y-62256652D02*
X166733550Y-62310869D01*
X166733550Y-62310869D02*
X166684165Y-62339396D01*
X166684165Y-62339396D02*
X166549127Y-62416160D01*
X166549127Y-62416160D02*
X166446964Y-62471237D01*
X166446964Y-62471237D02*
X166374995Y-62505920D01*
X166374995Y-62505920D02*
X166330542Y-62521500D01*
X166330542Y-62521500D02*
X166310958Y-62519313D01*
X166310958Y-62519313D02*
X166296276Y-62495691D01*
X166296276Y-62495691D02*
X166262090Y-62438058D01*
X166262090Y-62438058D02*
X166209823Y-62348886D01*
X166209823Y-62348886D02*
X166140897Y-62230645D01*
X166140897Y-62230645D02*
X166056735Y-62085807D01*
X166056735Y-62085807D02*
X165958759Y-61916843D01*
X165958759Y-61916843D02*
X165848393Y-61726225D01*
X165848393Y-61726225D02*
X165727059Y-61516423D01*
X165727059Y-61516423D02*
X165596179Y-61289908D01*
X165596179Y-61289908D02*
X165457177Y-61049153D01*
X165457177Y-61049153D02*
X165311474Y-60796627D01*
X165311474Y-60796627D02*
X165160494Y-60534803D01*
X165160494Y-60534803D02*
X165005660Y-60266151D01*
X165005660Y-60266151D02*
X164848393Y-59993142D01*
X164848393Y-59993142D02*
X164690116Y-59718249D01*
X164690116Y-59718249D02*
X164532253Y-59443941D01*
X164532253Y-59443941D02*
X164376225Y-59172691D01*
X164376225Y-59172691D02*
X164223456Y-58906969D01*
X164223456Y-58906969D02*
X164075368Y-58649247D01*
X164075368Y-58649247D02*
X163933383Y-58401995D01*
X163933383Y-58401995D02*
X163798925Y-58167686D01*
X163798925Y-58167686D02*
X163673416Y-57948790D01*
X163673416Y-57948790D02*
X163558279Y-57747778D01*
X163558279Y-57747778D02*
X163454936Y-57567122D01*
X163454936Y-57567122D02*
X163364810Y-57409292D01*
X163364810Y-57409292D02*
X163289323Y-57276761D01*
X163289323Y-57276761D02*
X163229899Y-57171998D01*
X163229899Y-57171998D02*
X163187959Y-57097477D01*
X163187959Y-57097477D02*
X163164927Y-57055666D01*
X163164927Y-57055666D02*
X163160779Y-57047323D01*
X163160779Y-57047323D02*
X163167864Y-57037124D01*
X163167864Y-57037124D02*
X163192682Y-57017315D01*
X163192682Y-57017315D02*
X163236686Y-56987031D01*
X163236686Y-56987031D02*
X163301330Y-56945411D01*
X163301330Y-56945411D02*
X163388065Y-56891593D01*
X163388065Y-56891593D02*
X163498344Y-56824714D01*
X163498344Y-56824714D02*
X163633620Y-56743912D01*
X163633620Y-56743912D02*
X163795346Y-56648326D01*
X163795346Y-56648326D02*
X163984974Y-56537093D01*
X163984974Y-56537093D02*
X164203958Y-56409350D01*
X164203958Y-56409350D02*
X164453749Y-56264236D01*
X164453749Y-56264236D02*
X164735801Y-56100888D01*
X164735801Y-56100888D02*
X165051566Y-55918444D01*
X165051566Y-55918444D02*
X165402497Y-55716042D01*
X165402497Y-55716042D02*
X165448554Y-55689500D01*
X165448554Y-55689500D02*
X165736038Y-55523916D01*
X165736038Y-55523916D02*
X166013567Y-55364221D01*
X166013567Y-55364221D02*
X166278913Y-55211687D01*
X166278913Y-55211687D02*
X166529846Y-55067591D01*
X166529846Y-55067591D02*
X166764138Y-54933205D01*
X166764138Y-54933205D02*
X166979561Y-54809805D01*
X166979561Y-54809805D02*
X167173887Y-54698666D01*
X167173887Y-54698666D02*
X167344886Y-54601061D01*
X167344886Y-54601061D02*
X167490331Y-54518266D01*
X167490331Y-54518266D02*
X167607992Y-54451554D01*
X167607992Y-54451554D02*
X167695642Y-54402201D01*
X167695642Y-54402201D02*
X167751051Y-54371481D01*
X167751051Y-54371481D02*
X167771943Y-54360678D01*
X167771943Y-54360678D02*
X167786182Y-54378043D01*
X167786182Y-54378043D02*
X167786182Y-54378043D01*
G36*
X167786182Y-54378043D02*
G01*
X167820722Y-54431014D01*
X167874881Y-54518431D01*
X167947974Y-54639133D01*
X168039320Y-54791960D01*
X168148234Y-54975752D01*
X168274034Y-55189348D01*
X168416037Y-55431587D01*
X168573560Y-55701311D01*
X168745919Y-55997358D01*
X168932432Y-56318568D01*
X169132415Y-56663780D01*
X169345185Y-57031835D01*
X169381375Y-57094508D01*
X169562665Y-57408629D01*
X169738081Y-57712810D01*
X169906465Y-58005027D01*
X170066655Y-58283255D01*
X170217490Y-58545472D01*
X170357810Y-58789652D01*
X170486454Y-59013774D01*
X170602261Y-59215812D01*
X170704071Y-59393743D01*
X170790723Y-59545543D01*
X170861056Y-59669189D01*
X170913909Y-59762657D01*
X170948123Y-59823923D01*
X170962535Y-59850963D01*
X170962939Y-59852079D01*
X170944956Y-59864849D01*
X170892651Y-59897332D01*
X170808400Y-59948134D01*
X170694580Y-60015864D01*
X170553566Y-60099129D01*
X170387734Y-60196535D01*
X170199460Y-60306692D01*
X169991120Y-60428205D01*
X169765090Y-60559683D01*
X169523745Y-60699732D01*
X169269461Y-60846961D01*
X169004615Y-60999976D01*
X169000531Y-61002333D01*
X168726913Y-61160246D01*
X168457867Y-61315525D01*
X168196370Y-61466451D01*
X167945401Y-61611305D01*
X167707938Y-61748368D01*
X167486958Y-61875921D01*
X167285441Y-61992245D01*
X167106363Y-62095620D01*
X166952703Y-62184329D01*
X166827439Y-62256652D01*
X166733550Y-62310869D01*
X166684165Y-62339396D01*
X166549127Y-62416160D01*
X166446964Y-62471237D01*
X166374995Y-62505920D01*
X166330542Y-62521500D01*
X166310958Y-62519313D01*
X166296276Y-62495691D01*
X166262090Y-62438058D01*
X166209823Y-62348886D01*
X166140897Y-62230645D01*
X166056735Y-62085807D01*
X165958759Y-61916843D01*
X165848393Y-61726225D01*
X165727059Y-61516423D01*
X165596179Y-61289908D01*
X165457177Y-61049153D01*
X165311474Y-60796627D01*
X165160494Y-60534803D01*
X165005660Y-60266151D01*
X164848393Y-59993142D01*
X164690116Y-59718249D01*
X164532253Y-59443941D01*
X164376225Y-59172691D01*
X164223456Y-58906969D01*
X164075368Y-58649247D01*
X163933383Y-58401995D01*
X163798925Y-58167686D01*
X163673416Y-57948790D01*
X163558279Y-57747778D01*
X163454936Y-57567122D01*
X163364810Y-57409292D01*
X163289323Y-57276761D01*
X163229899Y-57171998D01*
X163187959Y-57097477D01*
X163164927Y-57055666D01*
X163160779Y-57047323D01*
X163167864Y-57037124D01*
X163192682Y-57017315D01*
X163236686Y-56987031D01*
X163301330Y-56945411D01*
X163388065Y-56891593D01*
X163498344Y-56824714D01*
X163633620Y-56743912D01*
X163795346Y-56648326D01*
X163984974Y-56537093D01*
X164203958Y-56409350D01*
X164453749Y-56264236D01*
X164735801Y-56100888D01*
X165051566Y-55918444D01*
X165402497Y-55716042D01*
X165448554Y-55689500D01*
X165736038Y-55523916D01*
X166013567Y-55364221D01*
X166278913Y-55211687D01*
X166529846Y-55067591D01*
X166764138Y-54933205D01*
X166979561Y-54809805D01*
X167173887Y-54698666D01*
X167344886Y-54601061D01*
X167490331Y-54518266D01*
X167607992Y-54451554D01*
X167695642Y-54402201D01*
X167751051Y-54371481D01*
X167771943Y-54360678D01*
X167786182Y-54378043D01*
G37*
X167786182Y-54378043D02*
X167820722Y-54431014D01*
X167874881Y-54518431D01*
X167947974Y-54639133D01*
X168039320Y-54791960D01*
X168148234Y-54975752D01*
X168274034Y-55189348D01*
X168416037Y-55431587D01*
X168573560Y-55701311D01*
X168745919Y-55997358D01*
X168932432Y-56318568D01*
X169132415Y-56663780D01*
X169345185Y-57031835D01*
X169381375Y-57094508D01*
X169562665Y-57408629D01*
X169738081Y-57712810D01*
X169906465Y-58005027D01*
X170066655Y-58283255D01*
X170217490Y-58545472D01*
X170357810Y-58789652D01*
X170486454Y-59013774D01*
X170602261Y-59215812D01*
X170704071Y-59393743D01*
X170790723Y-59545543D01*
X170861056Y-59669189D01*
X170913909Y-59762657D01*
X170948123Y-59823923D01*
X170962535Y-59850963D01*
X170962939Y-59852079D01*
X170944956Y-59864849D01*
X170892651Y-59897332D01*
X170808400Y-59948134D01*
X170694580Y-60015864D01*
X170553566Y-60099129D01*
X170387734Y-60196535D01*
X170199460Y-60306692D01*
X169991120Y-60428205D01*
X169765090Y-60559683D01*
X169523745Y-60699732D01*
X169269461Y-60846961D01*
X169004615Y-60999976D01*
X169000531Y-61002333D01*
X168726913Y-61160246D01*
X168457867Y-61315525D01*
X168196370Y-61466451D01*
X167945401Y-61611305D01*
X167707938Y-61748368D01*
X167486958Y-61875921D01*
X167285441Y-61992245D01*
X167106363Y-62095620D01*
X166952703Y-62184329D01*
X166827439Y-62256652D01*
X166733550Y-62310869D01*
X166684165Y-62339396D01*
X166549127Y-62416160D01*
X166446964Y-62471237D01*
X166374995Y-62505920D01*
X166330542Y-62521500D01*
X166310958Y-62519313D01*
X166296276Y-62495691D01*
X166262090Y-62438058D01*
X166209823Y-62348886D01*
X166140897Y-62230645D01*
X166056735Y-62085807D01*
X165958759Y-61916843D01*
X165848393Y-61726225D01*
X165727059Y-61516423D01*
X165596179Y-61289908D01*
X165457177Y-61049153D01*
X165311474Y-60796627D01*
X165160494Y-60534803D01*
X165005660Y-60266151D01*
X164848393Y-59993142D01*
X164690116Y-59718249D01*
X164532253Y-59443941D01*
X164376225Y-59172691D01*
X164223456Y-58906969D01*
X164075368Y-58649247D01*
X163933383Y-58401995D01*
X163798925Y-58167686D01*
X163673416Y-57948790D01*
X163558279Y-57747778D01*
X163454936Y-57567122D01*
X163364810Y-57409292D01*
X163289323Y-57276761D01*
X163229899Y-57171998D01*
X163187959Y-57097477D01*
X163164927Y-57055666D01*
X163160779Y-57047323D01*
X163167864Y-57037124D01*
X163192682Y-57017315D01*
X163236686Y-56987031D01*
X163301330Y-56945411D01*
X163388065Y-56891593D01*
X163498344Y-56824714D01*
X163633620Y-56743912D01*
X163795346Y-56648326D01*
X163984974Y-56537093D01*
X164203958Y-56409350D01*
X164453749Y-56264236D01*
X164735801Y-56100888D01*
X165051566Y-55918444D01*
X165402497Y-55716042D01*
X165448554Y-55689500D01*
X165736038Y-55523916D01*
X166013567Y-55364221D01*
X166278913Y-55211687D01*
X166529846Y-55067591D01*
X166764138Y-54933205D01*
X166979561Y-54809805D01*
X167173887Y-54698666D01*
X167344886Y-54601061D01*
X167490331Y-54518266D01*
X167607992Y-54451554D01*
X167695642Y-54402201D01*
X167751051Y-54371481D01*
X167771943Y-54360678D01*
X167786182Y-54378043D01*
X175302333Y-147658666D02*
X168931166Y-147658666D01*
X168931166Y-147658666D02*
X168931166Y-142282333D01*
X168931166Y-142282333D02*
X175302333Y-142282333D01*
X175302333Y-142282333D02*
X175302333Y-147658666D01*
X175302333Y-147658666D02*
X175302333Y-147658666D01*
G36*
X175302333Y-147658666D02*
G01*
X168931166Y-147658666D01*
X168931166Y-142282333D01*
X175302333Y-142282333D01*
X175302333Y-147658666D01*
G37*
X175302333Y-147658666D02*
X168931166Y-147658666D01*
X168931166Y-142282333D01*
X175302333Y-142282333D01*
X175302333Y-147658666D01*
X131305104Y-135496880D02*
X131347793Y-135538416D01*
X131347793Y-135538416D02*
X131368806Y-135571154D01*
X131368806Y-135571154D02*
X131397391Y-135646888D01*
X131397391Y-135646888D02*
X131415776Y-135749701D01*
X131415776Y-135749701D02*
X131423337Y-135865438D01*
X131423337Y-135865438D02*
X131419450Y-135979942D01*
X131419450Y-135979942D02*
X131403491Y-136079056D01*
X131403491Y-136079056D02*
X131392721Y-136113524D01*
X131392721Y-136113524D02*
X131316236Y-136256956D01*
X131316236Y-136256956D02*
X131205394Y-136385398D01*
X131205394Y-136385398D02*
X131066712Y-136494872D01*
X131066712Y-136494872D02*
X130906708Y-136581400D01*
X130906708Y-136581400D02*
X130731902Y-136641003D01*
X130731902Y-136641003D02*
X130548810Y-136669704D01*
X130548810Y-136669704D02*
X130478184Y-136671678D01*
X130478184Y-136671678D02*
X130394269Y-136669161D01*
X130394269Y-136669161D02*
X130351848Y-136663414D01*
X130351848Y-136663414D02*
X130350197Y-136654324D01*
X130350197Y-136654324D02*
X130354916Y-136652000D01*
X130354916Y-136652000D02*
X130410290Y-136636913D01*
X130410290Y-136636913D02*
X130451687Y-136632321D01*
X130451687Y-136632321D02*
X130565898Y-136611349D01*
X130565898Y-136611349D02*
X130683737Y-136558845D01*
X130683737Y-136558845D02*
X130790853Y-136481600D01*
X130790853Y-136481600D02*
X130811498Y-136462017D01*
X130811498Y-136462017D02*
X130901260Y-136350596D01*
X130901260Y-136350596D02*
X130955045Y-136228490D01*
X130955045Y-136228490D02*
X130975423Y-136088112D01*
X130975423Y-136088112D02*
X130972281Y-135987092D01*
X130972281Y-135987092D02*
X130959588Y-135836927D01*
X130959588Y-135836927D02*
X131030605Y-135788265D01*
X131030605Y-135788265D02*
X131079577Y-135742160D01*
X131079577Y-135742160D02*
X131132742Y-135672914D01*
X131132742Y-135672914D02*
X131169372Y-135612494D01*
X131169372Y-135612494D02*
X131218923Y-135533291D01*
X131218923Y-135533291D02*
X131263157Y-135494962D01*
X131263157Y-135494962D02*
X131305104Y-135496880D01*
X131305104Y-135496880D02*
X131305104Y-135496880D01*
G36*
X131305104Y-135496880D02*
G01*
X131347793Y-135538416D01*
X131368806Y-135571154D01*
X131397391Y-135646888D01*
X131415776Y-135749701D01*
X131423337Y-135865438D01*
X131419450Y-135979942D01*
X131403491Y-136079056D01*
X131392721Y-136113524D01*
X131316236Y-136256956D01*
X131205394Y-136385398D01*
X131066712Y-136494872D01*
X130906708Y-136581400D01*
X130731902Y-136641003D01*
X130548810Y-136669704D01*
X130478184Y-136671678D01*
X130394269Y-136669161D01*
X130351848Y-136663414D01*
X130350197Y-136654324D01*
X130354916Y-136652000D01*
X130410290Y-136636913D01*
X130451687Y-136632321D01*
X130565898Y-136611349D01*
X130683737Y-136558845D01*
X130790853Y-136481600D01*
X130811498Y-136462017D01*
X130901260Y-136350596D01*
X130955045Y-136228490D01*
X130975423Y-136088112D01*
X130972281Y-135987092D01*
X130959588Y-135836927D01*
X131030605Y-135788265D01*
X131079577Y-135742160D01*
X131132742Y-135672914D01*
X131169372Y-135612494D01*
X131218923Y-135533291D01*
X131263157Y-135494962D01*
X131305104Y-135496880D01*
G37*
X131305104Y-135496880D02*
X131347793Y-135538416D01*
X131368806Y-135571154D01*
X131397391Y-135646888D01*
X131415776Y-135749701D01*
X131423337Y-135865438D01*
X131419450Y-135979942D01*
X131403491Y-136079056D01*
X131392721Y-136113524D01*
X131316236Y-136256956D01*
X131205394Y-136385398D01*
X131066712Y-136494872D01*
X130906708Y-136581400D01*
X130731902Y-136641003D01*
X130548810Y-136669704D01*
X130478184Y-136671678D01*
X130394269Y-136669161D01*
X130351848Y-136663414D01*
X130350197Y-136654324D01*
X130354916Y-136652000D01*
X130410290Y-136636913D01*
X130451687Y-136632321D01*
X130565898Y-136611349D01*
X130683737Y-136558845D01*
X130790853Y-136481600D01*
X130811498Y-136462017D01*
X130901260Y-136350596D01*
X130955045Y-136228490D01*
X130975423Y-136088112D01*
X130972281Y-135987092D01*
X130959588Y-135836927D01*
X131030605Y-135788265D01*
X131079577Y-135742160D01*
X131132742Y-135672914D01*
X131169372Y-135612494D01*
X131218923Y-135533291D01*
X131263157Y-135494962D01*
X131305104Y-135496880D01*
X103600819Y-133943290D02*
X103789669Y-133945129D01*
X103789669Y-133945129D02*
X103944046Y-133948130D01*
X103944046Y-133948130D02*
X104062057Y-133952241D01*
X104062057Y-133952241D02*
X104141809Y-133957412D01*
X104141809Y-133957412D02*
X104181409Y-133963591D01*
X104181409Y-133963591D02*
X104183724Y-133964578D01*
X104183724Y-133964578D02*
X104207612Y-133985419D01*
X104207612Y-133985419D02*
X104220158Y-134022710D01*
X104220158Y-134022710D02*
X104224496Y-134087734D01*
X104224496Y-134087734D02*
X104224666Y-134112000D01*
X104224666Y-134112000D02*
X104222038Y-134186637D01*
X104222038Y-134186637D02*
X104212064Y-134230435D01*
X104212064Y-134230435D02*
X104191610Y-134254679D01*
X104191610Y-134254679D02*
X104183724Y-134259421D01*
X104183724Y-134259421D02*
X104148058Y-134267533D01*
X104148058Y-134267533D02*
X104079288Y-134274287D01*
X104079288Y-134274287D02*
X103986639Y-134279068D01*
X103986639Y-134279068D02*
X103879335Y-134281259D01*
X103879335Y-134281259D02*
X103855641Y-134281333D01*
X103855641Y-134281333D02*
X103568500Y-134281333D01*
X103568500Y-134281333D02*
X103568500Y-135272886D01*
X103568500Y-135272886D02*
X103568422Y-135504035D01*
X103568422Y-135504035D02*
X103568095Y-135696538D01*
X103568095Y-135696538D02*
X103567382Y-135854082D01*
X103567382Y-135854082D02*
X103566142Y-135980353D01*
X103566142Y-135980353D02*
X103564236Y-136079038D01*
X103564236Y-136079038D02*
X103561526Y-136153824D01*
X103561526Y-136153824D02*
X103557873Y-136208398D01*
X103557873Y-136208398D02*
X103553137Y-136246447D01*
X103553137Y-136246447D02*
X103547179Y-136271658D01*
X103547179Y-136271658D02*
X103539861Y-136287716D01*
X103539861Y-136287716D02*
X103531044Y-136298311D01*
X103531044Y-136298311D02*
X103529791Y-136299469D01*
X103529791Y-136299469D02*
X103479930Y-136323287D01*
X103479930Y-136323287D02*
X103408391Y-136334311D01*
X103408391Y-136334311D02*
X103332194Y-136332436D01*
X103332194Y-136332436D02*
X103268359Y-136317557D01*
X103268359Y-136317557D02*
X103241928Y-136301238D01*
X103241928Y-136301238D02*
X103234111Y-136289506D01*
X103234111Y-136289506D02*
X103227602Y-136268939D01*
X103227602Y-136268939D02*
X103222286Y-136235944D01*
X103222286Y-136235944D02*
X103218045Y-136186929D01*
X103218045Y-136186929D02*
X103214764Y-136118302D01*
X103214764Y-136118302D02*
X103212326Y-136026473D01*
X103212326Y-136026473D02*
X103210615Y-135907849D01*
X103210615Y-135907849D02*
X103209514Y-135758838D01*
X103209514Y-135758838D02*
X103208908Y-135575850D01*
X103208908Y-135575850D02*
X103208679Y-135355291D01*
X103208679Y-135355291D02*
X103208666Y-135274654D01*
X103208666Y-135274654D02*
X103208666Y-134281333D01*
X103208666Y-134281333D02*
X102912333Y-134281333D01*
X102912333Y-134281333D02*
X102793139Y-134280815D01*
X102793139Y-134280815D02*
X102708765Y-134278634D01*
X102708765Y-134278634D02*
X102651701Y-134273854D01*
X102651701Y-134273854D02*
X102614441Y-134265534D01*
X102614441Y-134265534D02*
X102589476Y-134252737D01*
X102589476Y-134252737D02*
X102573666Y-134239000D01*
X102573666Y-134239000D02*
X102538290Y-134173689D01*
X102538290Y-134173689D02*
X102531333Y-134112000D01*
X102531333Y-134112000D02*
X102546300Y-134026280D01*
X102546300Y-134026280D02*
X102573666Y-133985000D01*
X102573666Y-133985000D02*
X102586285Y-133973906D01*
X102586285Y-133973906D02*
X102602545Y-133964940D01*
X102602545Y-133964940D02*
X102626745Y-133957874D01*
X102626745Y-133957874D02*
X102663186Y-133952484D01*
X102663186Y-133952484D02*
X102716166Y-133948543D01*
X102716166Y-133948543D02*
X102789987Y-133945825D01*
X102789987Y-133945825D02*
X102888946Y-133944104D01*
X102888946Y-133944104D02*
X103017345Y-133943154D01*
X103017345Y-133943154D02*
X103179483Y-133942751D01*
X103179483Y-133942751D02*
X103379391Y-133942666D01*
X103379391Y-133942666D02*
X103600819Y-133943290D01*
X103600819Y-133943290D02*
X103600819Y-133943290D01*
G36*
X103600819Y-133943290D02*
G01*
X103789669Y-133945129D01*
X103944046Y-133948130D01*
X104062057Y-133952241D01*
X104141809Y-133957412D01*
X104181409Y-133963591D01*
X104183724Y-133964578D01*
X104207612Y-133985419D01*
X104220158Y-134022710D01*
X104224496Y-134087734D01*
X104224666Y-134112000D01*
X104222038Y-134186637D01*
X104212064Y-134230435D01*
X104191610Y-134254679D01*
X104183724Y-134259421D01*
X104148058Y-134267533D01*
X104079288Y-134274287D01*
X103986639Y-134279068D01*
X103879335Y-134281259D01*
X103855641Y-134281333D01*
X103568500Y-134281333D01*
X103568500Y-135272886D01*
X103568422Y-135504035D01*
X103568095Y-135696538D01*
X103567382Y-135854082D01*
X103566142Y-135980353D01*
X103564236Y-136079038D01*
X103561526Y-136153824D01*
X103557873Y-136208398D01*
X103553137Y-136246447D01*
X103547179Y-136271658D01*
X103539861Y-136287716D01*
X103531044Y-136298311D01*
X103529791Y-136299469D01*
X103479930Y-136323287D01*
X103408391Y-136334311D01*
X103332194Y-136332436D01*
X103268359Y-136317557D01*
X103241928Y-136301238D01*
X103234111Y-136289506D01*
X103227602Y-136268939D01*
X103222286Y-136235944D01*
X103218045Y-136186929D01*
X103214764Y-136118302D01*
X103212326Y-136026473D01*
X103210615Y-135907849D01*
X103209514Y-135758838D01*
X103208908Y-135575850D01*
X103208679Y-135355291D01*
X103208666Y-135274654D01*
X103208666Y-134281333D01*
X102912333Y-134281333D01*
X102793139Y-134280815D01*
X102708765Y-134278634D01*
X102651701Y-134273854D01*
X102614441Y-134265534D01*
X102589476Y-134252737D01*
X102573666Y-134239000D01*
X102538290Y-134173689D01*
X102531333Y-134112000D01*
X102546300Y-134026280D01*
X102573666Y-133985000D01*
X102586285Y-133973906D01*
X102602545Y-133964940D01*
X102626745Y-133957874D01*
X102663186Y-133952484D01*
X102716166Y-133948543D01*
X102789987Y-133945825D01*
X102888946Y-133944104D01*
X103017345Y-133943154D01*
X103179483Y-133942751D01*
X103379391Y-133942666D01*
X103600819Y-133943290D01*
G37*
X103600819Y-133943290D02*
X103789669Y-133945129D01*
X103944046Y-133948130D01*
X104062057Y-133952241D01*
X104141809Y-133957412D01*
X104181409Y-133963591D01*
X104183724Y-133964578D01*
X104207612Y-133985419D01*
X104220158Y-134022710D01*
X104224496Y-134087734D01*
X104224666Y-134112000D01*
X104222038Y-134186637D01*
X104212064Y-134230435D01*
X104191610Y-134254679D01*
X104183724Y-134259421D01*
X104148058Y-134267533D01*
X104079288Y-134274287D01*
X103986639Y-134279068D01*
X103879335Y-134281259D01*
X103855641Y-134281333D01*
X103568500Y-134281333D01*
X103568500Y-135272886D01*
X103568422Y-135504035D01*
X103568095Y-135696538D01*
X103567382Y-135854082D01*
X103566142Y-135980353D01*
X103564236Y-136079038D01*
X103561526Y-136153824D01*
X103557873Y-136208398D01*
X103553137Y-136246447D01*
X103547179Y-136271658D01*
X103539861Y-136287716D01*
X103531044Y-136298311D01*
X103529791Y-136299469D01*
X103479930Y-136323287D01*
X103408391Y-136334311D01*
X103332194Y-136332436D01*
X103268359Y-136317557D01*
X103241928Y-136301238D01*
X103234111Y-136289506D01*
X103227602Y-136268939D01*
X103222286Y-136235944D01*
X103218045Y-136186929D01*
X103214764Y-136118302D01*
X103212326Y-136026473D01*
X103210615Y-135907849D01*
X103209514Y-135758838D01*
X103208908Y-135575850D01*
X103208679Y-135355291D01*
X103208666Y-135274654D01*
X103208666Y-134281333D01*
X102912333Y-134281333D01*
X102793139Y-134280815D01*
X102708765Y-134278634D01*
X102651701Y-134273854D01*
X102614441Y-134265534D01*
X102589476Y-134252737D01*
X102573666Y-134239000D01*
X102538290Y-134173689D01*
X102531333Y-134112000D01*
X102546300Y-134026280D01*
X102573666Y-133985000D01*
X102586285Y-133973906D01*
X102602545Y-133964940D01*
X102626745Y-133957874D01*
X102663186Y-133952484D01*
X102716166Y-133948543D01*
X102789987Y-133945825D01*
X102888946Y-133944104D01*
X103017345Y-133943154D01*
X103179483Y-133942751D01*
X103379391Y-133942666D01*
X103600819Y-133943290D01*
X107741722Y-78178858D02*
X107796062Y-78208899D01*
X107796062Y-78208899D02*
X107881655Y-78257074D01*
X107881655Y-78257074D02*
X107995812Y-78321833D01*
X107995812Y-78321833D02*
X108135849Y-78401627D01*
X108135849Y-78401627D02*
X108299078Y-78494907D01*
X108299078Y-78494907D02*
X108482815Y-78600123D01*
X108482815Y-78600123D02*
X108684373Y-78715726D01*
X108684373Y-78715726D02*
X108901065Y-78840166D01*
X108901065Y-78840166D02*
X109130206Y-78971895D01*
X109130206Y-78971895D02*
X109369110Y-79109362D01*
X109369110Y-79109362D02*
X109615090Y-79251018D01*
X109615090Y-79251018D02*
X109865460Y-79395315D01*
X109865460Y-79395315D02*
X110117535Y-79540702D01*
X110117535Y-79540702D02*
X110368627Y-79685630D01*
X110368627Y-79685630D02*
X110616052Y-79828550D01*
X110616052Y-79828550D02*
X110857122Y-79967913D01*
X110857122Y-79967913D02*
X111089152Y-80102169D01*
X111089152Y-80102169D02*
X111309456Y-80229768D01*
X111309456Y-80229768D02*
X111515348Y-80349162D01*
X111515348Y-80349162D02*
X111704140Y-80458801D01*
X111704140Y-80458801D02*
X111873148Y-80557135D01*
X111873148Y-80557135D02*
X112019685Y-80642615D01*
X112019685Y-80642615D02*
X112141066Y-80713693D01*
X112141066Y-80713693D02*
X112234603Y-80768818D01*
X112234603Y-80768818D02*
X112297611Y-80806440D01*
X112297611Y-80806440D02*
X112327404Y-80825012D01*
X112327404Y-80825012D02*
X112329248Y-80826400D01*
X112329248Y-80826400D02*
X112330712Y-80834685D01*
X112330712Y-80834685D02*
X112325961Y-80852739D01*
X112325961Y-80852739D02*
X112314080Y-80882193D01*
X112314080Y-80882193D02*
X112294156Y-80924677D01*
X112294156Y-80924677D02*
X112265274Y-80981823D01*
X112265274Y-80981823D02*
X112226521Y-81055263D01*
X112226521Y-81055263D02*
X112176982Y-81146628D01*
X112176982Y-81146628D02*
X112115744Y-81257548D01*
X112115744Y-81257548D02*
X112041891Y-81389657D01*
X112041891Y-81389657D02*
X111954511Y-81544584D01*
X111954511Y-81544584D02*
X111852688Y-81723961D01*
X111852688Y-81723961D02*
X111735510Y-81929420D01*
X111735510Y-81929420D02*
X111602062Y-82162593D01*
X111602062Y-82162593D02*
X111451429Y-82425109D01*
X111451429Y-82425109D02*
X111282699Y-82718601D01*
X111282699Y-82718601D02*
X111094956Y-83044700D01*
X111094956Y-83044700D02*
X110887287Y-83405038D01*
X110887287Y-83405038D02*
X110786178Y-83580379D01*
X110786178Y-83580379D02*
X110605234Y-83894015D01*
X110605234Y-83894015D02*
X110429869Y-84197771D01*
X110429869Y-84197771D02*
X110261265Y-84489610D01*
X110261265Y-84489610D02*
X110100605Y-84767493D01*
X110100605Y-84767493D02*
X109949072Y-85029383D01*
X109949072Y-85029383D02*
X109807846Y-85273241D01*
X109807846Y-85273241D02*
X109678111Y-85497030D01*
X109678111Y-85497030D02*
X109561049Y-85698711D01*
X109561049Y-85698711D02*
X109457841Y-85876247D01*
X109457841Y-85876247D02*
X109369671Y-86027601D01*
X109369671Y-86027601D02*
X109297720Y-86150733D01*
X109297720Y-86150733D02*
X109243171Y-86243606D01*
X109243171Y-86243606D02*
X109207205Y-86304182D01*
X109207205Y-86304182D02*
X109191006Y-86330424D01*
X109191006Y-86330424D02*
X109190347Y-86331280D01*
X109190347Y-86331280D02*
X109176700Y-86329295D01*
X109176700Y-86329295D02*
X109142566Y-86314896D01*
X109142566Y-86314896D02*
X109086664Y-86287365D01*
X109086664Y-86287365D02*
X109007714Y-86245981D01*
X109007714Y-86245981D02*
X108904437Y-86190028D01*
X108904437Y-86190028D02*
X108775552Y-86118784D01*
X108775552Y-86118784D02*
X108619780Y-86031533D01*
X108619780Y-86031533D02*
X108435840Y-85927554D01*
X108435840Y-85927554D02*
X108222453Y-85806129D01*
X108222453Y-85806129D02*
X107978340Y-85666540D01*
X107978340Y-85666540D02*
X107702219Y-85508066D01*
X107702219Y-85508066D02*
X107392812Y-85329991D01*
X107392812Y-85329991D02*
X107048837Y-85131594D01*
X107048837Y-85131594D02*
X106854625Y-85019429D01*
X106854625Y-85019429D02*
X106566595Y-84852867D01*
X106566595Y-84852867D02*
X106288905Y-84691992D01*
X106288905Y-84691992D02*
X106023742Y-84538084D01*
X106023742Y-84538084D02*
X105773291Y-84392426D01*
X105773291Y-84392426D02*
X105539741Y-84256299D01*
X105539741Y-84256299D02*
X105325279Y-84130986D01*
X105325279Y-84130986D02*
X105132091Y-84017768D01*
X105132091Y-84017768D02*
X104962364Y-83917927D01*
X104962364Y-83917927D02*
X104818287Y-83832745D01*
X104818287Y-83832745D02*
X104702045Y-83763504D01*
X104702045Y-83763504D02*
X104615826Y-83711485D01*
X104615826Y-83711485D02*
X104561817Y-83677971D01*
X104561817Y-83677971D02*
X104542205Y-83664243D01*
X104542205Y-83664243D02*
X104542166Y-83664108D01*
X104542166Y-83664108D02*
X104552545Y-83643030D01*
X104552545Y-83643030D02*
X104582736Y-83587920D01*
X104582736Y-83587920D02*
X104631324Y-83501225D01*
X104631324Y-83501225D02*
X104696893Y-83385396D01*
X104696893Y-83385396D02*
X104778024Y-83242880D01*
X104778024Y-83242880D02*
X104873303Y-83076126D01*
X104873303Y-83076126D02*
X104981313Y-82887582D01*
X104981313Y-82887582D02*
X105100637Y-82679697D01*
X105100637Y-82679697D02*
X105229859Y-82454919D01*
X105229859Y-82454919D02*
X105367562Y-82215697D01*
X105367562Y-82215697D02*
X105512330Y-81964480D01*
X105512330Y-81964480D02*
X105662747Y-81703716D01*
X105662747Y-81703716D02*
X105817396Y-81435853D01*
X105817396Y-81435853D02*
X105974860Y-81163340D01*
X105974860Y-81163340D02*
X106133724Y-80888626D01*
X106133724Y-80888626D02*
X106292570Y-80614159D01*
X106292570Y-80614159D02*
X106449983Y-80342387D01*
X106449983Y-80342387D02*
X106604545Y-80075760D01*
X106604545Y-80075760D02*
X106754841Y-79816725D01*
X106754841Y-79816725D02*
X106899454Y-79567731D01*
X106899454Y-79567731D02*
X107036967Y-79331228D01*
X107036967Y-79331228D02*
X107165964Y-79109662D01*
X107165964Y-79109662D02*
X107285029Y-78905483D01*
X107285029Y-78905483D02*
X107392745Y-78721139D01*
X107392745Y-78721139D02*
X107487696Y-78559079D01*
X107487696Y-78559079D02*
X107568465Y-78421752D01*
X107568465Y-78421752D02*
X107633636Y-78311605D01*
X107633636Y-78311605D02*
X107681793Y-78231087D01*
X107681793Y-78231087D02*
X107711518Y-78182648D01*
X107711518Y-78182648D02*
X107721318Y-78168500D01*
X107721318Y-78168500D02*
X107741722Y-78178858D01*
X107741722Y-78178858D02*
X107741722Y-78178858D01*
G36*
X107741722Y-78178858D02*
G01*
X107796062Y-78208899D01*
X107881655Y-78257074D01*
X107995812Y-78321833D01*
X108135849Y-78401627D01*
X108299078Y-78494907D01*
X108482815Y-78600123D01*
X108684373Y-78715726D01*
X108901065Y-78840166D01*
X109130206Y-78971895D01*
X109369110Y-79109362D01*
X109615090Y-79251018D01*
X109865460Y-79395315D01*
X110117535Y-79540702D01*
X110368627Y-79685630D01*
X110616052Y-79828550D01*
X110857122Y-79967913D01*
X111089152Y-80102169D01*
X111309456Y-80229768D01*
X111515348Y-80349162D01*
X111704140Y-80458801D01*
X111873148Y-80557135D01*
X112019685Y-80642615D01*
X112141066Y-80713693D01*
X112234603Y-80768818D01*
X112297611Y-80806440D01*
X112327404Y-80825012D01*
X112329248Y-80826400D01*
X112330712Y-80834685D01*
X112325961Y-80852739D01*
X112314080Y-80882193D01*
X112294156Y-80924677D01*
X112265274Y-80981823D01*
X112226521Y-81055263D01*
X112176982Y-81146628D01*
X112115744Y-81257548D01*
X112041891Y-81389657D01*
X111954511Y-81544584D01*
X111852688Y-81723961D01*
X111735510Y-81929420D01*
X111602062Y-82162593D01*
X111451429Y-82425109D01*
X111282699Y-82718601D01*
X111094956Y-83044700D01*
X110887287Y-83405038D01*
X110786178Y-83580379D01*
X110605234Y-83894015D01*
X110429869Y-84197771D01*
X110261265Y-84489610D01*
X110100605Y-84767493D01*
X109949072Y-85029383D01*
X109807846Y-85273241D01*
X109678111Y-85497030D01*
X109561049Y-85698711D01*
X109457841Y-85876247D01*
X109369671Y-86027601D01*
X109297720Y-86150733D01*
X109243171Y-86243606D01*
X109207205Y-86304182D01*
X109191006Y-86330424D01*
X109190347Y-86331280D01*
X109176700Y-86329295D01*
X109142566Y-86314896D01*
X109086664Y-86287365D01*
X109007714Y-86245981D01*
X108904437Y-86190028D01*
X108775552Y-86118784D01*
X108619780Y-86031533D01*
X108435840Y-85927554D01*
X108222453Y-85806129D01*
X107978340Y-85666540D01*
X107702219Y-85508066D01*
X107392812Y-85329991D01*
X107048837Y-85131594D01*
X106854625Y-85019429D01*
X106566595Y-84852867D01*
X106288905Y-84691992D01*
X106023742Y-84538084D01*
X105773291Y-84392426D01*
X105539741Y-84256299D01*
X105325279Y-84130986D01*
X105132091Y-84017768D01*
X104962364Y-83917927D01*
X104818287Y-83832745D01*
X104702045Y-83763504D01*
X104615826Y-83711485D01*
X104561817Y-83677971D01*
X104542205Y-83664243D01*
X104542166Y-83664108D01*
X104552545Y-83643030D01*
X104582736Y-83587920D01*
X104631324Y-83501225D01*
X104696893Y-83385396D01*
X104778024Y-83242880D01*
X104873303Y-83076126D01*
X104981313Y-82887582D01*
X105100637Y-82679697D01*
X105229859Y-82454919D01*
X105367562Y-82215697D01*
X105512330Y-81964480D01*
X105662747Y-81703716D01*
X105817396Y-81435853D01*
X105974860Y-81163340D01*
X106133724Y-80888626D01*
X106292570Y-80614159D01*
X106449983Y-80342387D01*
X106604545Y-80075760D01*
X106754841Y-79816725D01*
X106899454Y-79567731D01*
X107036967Y-79331228D01*
X107165964Y-79109662D01*
X107285029Y-78905483D01*
X107392745Y-78721139D01*
X107487696Y-78559079D01*
X107568465Y-78421752D01*
X107633636Y-78311605D01*
X107681793Y-78231087D01*
X107711518Y-78182648D01*
X107721318Y-78168500D01*
X107741722Y-78178858D01*
G37*
X107741722Y-78178858D02*
X107796062Y-78208899D01*
X107881655Y-78257074D01*
X107995812Y-78321833D01*
X108135849Y-78401627D01*
X108299078Y-78494907D01*
X108482815Y-78600123D01*
X108684373Y-78715726D01*
X108901065Y-78840166D01*
X109130206Y-78971895D01*
X109369110Y-79109362D01*
X109615090Y-79251018D01*
X109865460Y-79395315D01*
X110117535Y-79540702D01*
X110368627Y-79685630D01*
X110616052Y-79828550D01*
X110857122Y-79967913D01*
X111089152Y-80102169D01*
X111309456Y-80229768D01*
X111515348Y-80349162D01*
X111704140Y-80458801D01*
X111873148Y-80557135D01*
X112019685Y-80642615D01*
X112141066Y-80713693D01*
X112234603Y-80768818D01*
X112297611Y-80806440D01*
X112327404Y-80825012D01*
X112329248Y-80826400D01*
X112330712Y-80834685D01*
X112325961Y-80852739D01*
X112314080Y-80882193D01*
X112294156Y-80924677D01*
X112265274Y-80981823D01*
X112226521Y-81055263D01*
X112176982Y-81146628D01*
X112115744Y-81257548D01*
X112041891Y-81389657D01*
X111954511Y-81544584D01*
X111852688Y-81723961D01*
X111735510Y-81929420D01*
X111602062Y-82162593D01*
X111451429Y-82425109D01*
X111282699Y-82718601D01*
X111094956Y-83044700D01*
X110887287Y-83405038D01*
X110786178Y-83580379D01*
X110605234Y-83894015D01*
X110429869Y-84197771D01*
X110261265Y-84489610D01*
X110100605Y-84767493D01*
X109949072Y-85029383D01*
X109807846Y-85273241D01*
X109678111Y-85497030D01*
X109561049Y-85698711D01*
X109457841Y-85876247D01*
X109369671Y-86027601D01*
X109297720Y-86150733D01*
X109243171Y-86243606D01*
X109207205Y-86304182D01*
X109191006Y-86330424D01*
X109190347Y-86331280D01*
X109176700Y-86329295D01*
X109142566Y-86314896D01*
X109086664Y-86287365D01*
X109007714Y-86245981D01*
X108904437Y-86190028D01*
X108775552Y-86118784D01*
X108619780Y-86031533D01*
X108435840Y-85927554D01*
X108222453Y-85806129D01*
X107978340Y-85666540D01*
X107702219Y-85508066D01*
X107392812Y-85329991D01*
X107048837Y-85131594D01*
X106854625Y-85019429D01*
X106566595Y-84852867D01*
X106288905Y-84691992D01*
X106023742Y-84538084D01*
X105773291Y-84392426D01*
X105539741Y-84256299D01*
X105325279Y-84130986D01*
X105132091Y-84017768D01*
X104962364Y-83917927D01*
X104818287Y-83832745D01*
X104702045Y-83763504D01*
X104615826Y-83711485D01*
X104561817Y-83677971D01*
X104542205Y-83664243D01*
X104542166Y-83664108D01*
X104552545Y-83643030D01*
X104582736Y-83587920D01*
X104631324Y-83501225D01*
X104696893Y-83385396D01*
X104778024Y-83242880D01*
X104873303Y-83076126D01*
X104981313Y-82887582D01*
X105100637Y-82679697D01*
X105229859Y-82454919D01*
X105367562Y-82215697D01*
X105512330Y-81964480D01*
X105662747Y-81703716D01*
X105817396Y-81435853D01*
X105974860Y-81163340D01*
X106133724Y-80888626D01*
X106292570Y-80614159D01*
X106449983Y-80342387D01*
X106604545Y-80075760D01*
X106754841Y-79816725D01*
X106899454Y-79567731D01*
X107036967Y-79331228D01*
X107165964Y-79109662D01*
X107285029Y-78905483D01*
X107392745Y-78721139D01*
X107487696Y-78559079D01*
X107568465Y-78421752D01*
X107633636Y-78311605D01*
X107681793Y-78231087D01*
X107711518Y-78182648D01*
X107721318Y-78168500D01*
X107741722Y-78178858D01*
X93976806Y-102007412D02*
X94007050Y-102019465D01*
X94007050Y-102019465D02*
X94050749Y-102039898D01*
X94050749Y-102039898D02*
X94109672Y-102069697D01*
X94109672Y-102069697D02*
X94185589Y-102109851D01*
X94185589Y-102109851D02*
X94280269Y-102161346D01*
X94280269Y-102161346D02*
X94395482Y-102225171D01*
X94395482Y-102225171D02*
X94532997Y-102302313D01*
X94532997Y-102302313D02*
X94694584Y-102393759D01*
X94694584Y-102393759D02*
X94882013Y-102500497D01*
X94882013Y-102500497D02*
X95097053Y-102623514D01*
X95097053Y-102623514D02*
X95341474Y-102763798D01*
X95341474Y-102763798D02*
X95617045Y-102922336D01*
X95617045Y-102922336D02*
X95925536Y-103100116D01*
X95925536Y-103100116D02*
X96268717Y-103298126D01*
X96268717Y-103298126D02*
X96295601Y-103313645D01*
X96295601Y-103313645D02*
X98614347Y-104652218D01*
X98614347Y-104652218D02*
X98577882Y-104720873D01*
X98577882Y-104720873D02*
X98555922Y-104760588D01*
X98555922Y-104760588D02*
X98514968Y-104832955D01*
X98514968Y-104832955D02*
X98456441Y-104935524D01*
X98456441Y-104935524D02*
X98381760Y-105065840D01*
X98381760Y-105065840D02*
X98292347Y-105221453D01*
X98292347Y-105221453D02*
X98189624Y-105399909D01*
X98189624Y-105399909D02*
X98075010Y-105598757D01*
X98075010Y-105598757D02*
X97949928Y-105815544D01*
X97949928Y-105815544D02*
X97815797Y-106047818D01*
X97815797Y-106047818D02*
X97674039Y-106293126D01*
X97674039Y-106293126D02*
X97526074Y-106549017D01*
X97526074Y-106549017D02*
X97373325Y-106813037D01*
X97373325Y-106813037D02*
X97217211Y-107082735D01*
X97217211Y-107082735D02*
X97059153Y-107355659D01*
X97059153Y-107355659D02*
X96900574Y-107629356D01*
X96900574Y-107629356D02*
X96742892Y-107901373D01*
X96742892Y-107901373D02*
X96587530Y-108169259D01*
X96587530Y-108169259D02*
X96435909Y-108430561D01*
X96435909Y-108430561D02*
X96289449Y-108682827D01*
X96289449Y-108682827D02*
X96149571Y-108923605D01*
X96149571Y-108923605D02*
X96017696Y-109150442D01*
X96017696Y-109150442D02*
X95895246Y-109360886D01*
X95895246Y-109360886D02*
X95783641Y-109552484D01*
X95783641Y-109552484D02*
X95684302Y-109722785D01*
X95684302Y-109722785D02*
X95598649Y-109869336D01*
X95598649Y-109869336D02*
X95528105Y-109989685D01*
X95528105Y-109989685D02*
X95474090Y-110081379D01*
X95474090Y-110081379D02*
X95438025Y-110141967D01*
X95438025Y-110141967D02*
X95421330Y-110168995D01*
X95421330Y-110168995D02*
X95420333Y-110170223D01*
X95420333Y-110170223D02*
X95400912Y-110159547D01*
X95400912Y-110159547D02*
X95347046Y-110128940D01*
X95347046Y-110128940D02*
X95260933Y-110079667D01*
X95260933Y-110079667D02*
X95144771Y-110012996D01*
X95144771Y-110012996D02*
X95000758Y-109930194D01*
X95000758Y-109930194D02*
X94831092Y-109832526D01*
X94831092Y-109832526D02*
X94637972Y-109721259D01*
X94637972Y-109721259D02*
X94423596Y-109597660D01*
X94423596Y-109597660D02*
X94190162Y-109462995D01*
X94190162Y-109462995D02*
X93939868Y-109318531D01*
X93939868Y-109318531D02*
X93674913Y-109165534D01*
X93674913Y-109165534D02*
X93397494Y-109005271D01*
X93397494Y-109005271D02*
X93109810Y-108839009D01*
X93109810Y-108839009D02*
X93096702Y-108831431D01*
X93096702Y-108831431D02*
X92704912Y-108604690D01*
X92704912Y-108604690D02*
X92349910Y-108398693D01*
X92349910Y-108398693D02*
X92031609Y-108213387D01*
X92031609Y-108213387D02*
X91749922Y-108048722D01*
X91749922Y-108048722D02*
X91504762Y-107904645D01*
X91504762Y-107904645D02*
X91296043Y-107781106D01*
X91296043Y-107781106D02*
X91123677Y-107678054D01*
X91123677Y-107678054D02*
X90987579Y-107595436D01*
X90987579Y-107595436D02*
X90887662Y-107533201D01*
X90887662Y-107533201D02*
X90823838Y-107491299D01*
X90823838Y-107491299D02*
X90796021Y-107469677D01*
X90796021Y-107469677D02*
X90794717Y-107467014D01*
X90794717Y-107467014D02*
X90806871Y-107444160D01*
X90806871Y-107444160D02*
X90838786Y-107387219D01*
X90838786Y-107387219D02*
X90889030Y-107298667D01*
X90889030Y-107298667D02*
X90956174Y-107180981D01*
X90956174Y-107180981D02*
X91038789Y-107036636D01*
X91038789Y-107036636D02*
X91135443Y-106868108D01*
X91135443Y-106868108D02*
X91244706Y-106677875D01*
X91244706Y-106677875D02*
X91365150Y-106468410D01*
X91365150Y-106468410D02*
X91495343Y-106242191D01*
X91495343Y-106242191D02*
X91633855Y-106001694D01*
X91633855Y-106001694D02*
X91779257Y-105749395D01*
X91779257Y-105749395D02*
X91930119Y-105487769D01*
X91930119Y-105487769D02*
X92085010Y-105219293D01*
X92085010Y-105219293D02*
X92242501Y-104946442D01*
X92242501Y-104946442D02*
X92401161Y-104671694D01*
X92401161Y-104671694D02*
X92559560Y-104397524D01*
X92559560Y-104397524D02*
X92716269Y-104126407D01*
X92716269Y-104126407D02*
X92869857Y-103860820D01*
X92869857Y-103860820D02*
X93018894Y-103603240D01*
X93018894Y-103603240D02*
X93161950Y-103356141D01*
X93161950Y-103356141D02*
X93297595Y-103122001D01*
X93297595Y-103122001D02*
X93424400Y-102903295D01*
X93424400Y-102903295D02*
X93540933Y-102702499D01*
X93540933Y-102702499D02*
X93645766Y-102522089D01*
X93645766Y-102522089D02*
X93737467Y-102364542D01*
X93737467Y-102364542D02*
X93814608Y-102232333D01*
X93814608Y-102232333D02*
X93875757Y-102127938D01*
X93875757Y-102127938D02*
X93919485Y-102053834D01*
X93919485Y-102053834D02*
X93944362Y-102012496D01*
X93944362Y-102012496D02*
X93949603Y-102004494D01*
X93949603Y-102004494D02*
X93958246Y-102002751D01*
X93958246Y-102002751D02*
X93976806Y-102007412D01*
X93976806Y-102007412D02*
X93976806Y-102007412D01*
G36*
X93976806Y-102007412D02*
G01*
X94007050Y-102019465D01*
X94050749Y-102039898D01*
X94109672Y-102069697D01*
X94185589Y-102109851D01*
X94280269Y-102161346D01*
X94395482Y-102225171D01*
X94532997Y-102302313D01*
X94694584Y-102393759D01*
X94882013Y-102500497D01*
X95097053Y-102623514D01*
X95341474Y-102763798D01*
X95617045Y-102922336D01*
X95925536Y-103100116D01*
X96268717Y-103298126D01*
X96295601Y-103313645D01*
X98614347Y-104652218D01*
X98577882Y-104720873D01*
X98555922Y-104760588D01*
X98514968Y-104832955D01*
X98456441Y-104935524D01*
X98381760Y-105065840D01*
X98292347Y-105221453D01*
X98189624Y-105399909D01*
X98075010Y-105598757D01*
X97949928Y-105815544D01*
X97815797Y-106047818D01*
X97674039Y-106293126D01*
X97526074Y-106549017D01*
X97373325Y-106813037D01*
X97217211Y-107082735D01*
X97059153Y-107355659D01*
X96900574Y-107629356D01*
X96742892Y-107901373D01*
X96587530Y-108169259D01*
X96435909Y-108430561D01*
X96289449Y-108682827D01*
X96149571Y-108923605D01*
X96017696Y-109150442D01*
X95895246Y-109360886D01*
X95783641Y-109552484D01*
X95684302Y-109722785D01*
X95598649Y-109869336D01*
X95528105Y-109989685D01*
X95474090Y-110081379D01*
X95438025Y-110141967D01*
X95421330Y-110168995D01*
X95420333Y-110170223D01*
X95400912Y-110159547D01*
X95347046Y-110128940D01*
X95260933Y-110079667D01*
X95144771Y-110012996D01*
X95000758Y-109930194D01*
X94831092Y-109832526D01*
X94637972Y-109721259D01*
X94423596Y-109597660D01*
X94190162Y-109462995D01*
X93939868Y-109318531D01*
X93674913Y-109165534D01*
X93397494Y-109005271D01*
X93109810Y-108839009D01*
X93096702Y-108831431D01*
X92704912Y-108604690D01*
X92349910Y-108398693D01*
X92031609Y-108213387D01*
X91749922Y-108048722D01*
X91504762Y-107904645D01*
X91296043Y-107781106D01*
X91123677Y-107678054D01*
X90987579Y-107595436D01*
X90887662Y-107533201D01*
X90823838Y-107491299D01*
X90796021Y-107469677D01*
X90794717Y-107467014D01*
X90806871Y-107444160D01*
X90838786Y-107387219D01*
X90889030Y-107298667D01*
X90956174Y-107180981D01*
X91038789Y-107036636D01*
X91135443Y-106868108D01*
X91244706Y-106677875D01*
X91365150Y-106468410D01*
X91495343Y-106242191D01*
X91633855Y-106001694D01*
X91779257Y-105749395D01*
X91930119Y-105487769D01*
X92085010Y-105219293D01*
X92242501Y-104946442D01*
X92401161Y-104671694D01*
X92559560Y-104397524D01*
X92716269Y-104126407D01*
X92869857Y-103860820D01*
X93018894Y-103603240D01*
X93161950Y-103356141D01*
X93297595Y-103122001D01*
X93424400Y-102903295D01*
X93540933Y-102702499D01*
X93645766Y-102522089D01*
X93737467Y-102364542D01*
X93814608Y-102232333D01*
X93875757Y-102127938D01*
X93919485Y-102053834D01*
X93944362Y-102012496D01*
X93949603Y-102004494D01*
X93958246Y-102002751D01*
X93976806Y-102007412D01*
G37*
X93976806Y-102007412D02*
X94007050Y-102019465D01*
X94050749Y-102039898D01*
X94109672Y-102069697D01*
X94185589Y-102109851D01*
X94280269Y-102161346D01*
X94395482Y-102225171D01*
X94532997Y-102302313D01*
X94694584Y-102393759D01*
X94882013Y-102500497D01*
X95097053Y-102623514D01*
X95341474Y-102763798D01*
X95617045Y-102922336D01*
X95925536Y-103100116D01*
X96268717Y-103298126D01*
X96295601Y-103313645D01*
X98614347Y-104652218D01*
X98577882Y-104720873D01*
X98555922Y-104760588D01*
X98514968Y-104832955D01*
X98456441Y-104935524D01*
X98381760Y-105065840D01*
X98292347Y-105221453D01*
X98189624Y-105399909D01*
X98075010Y-105598757D01*
X97949928Y-105815544D01*
X97815797Y-106047818D01*
X97674039Y-106293126D01*
X97526074Y-106549017D01*
X97373325Y-106813037D01*
X97217211Y-107082735D01*
X97059153Y-107355659D01*
X96900574Y-107629356D01*
X96742892Y-107901373D01*
X96587530Y-108169259D01*
X96435909Y-108430561D01*
X96289449Y-108682827D01*
X96149571Y-108923605D01*
X96017696Y-109150442D01*
X95895246Y-109360886D01*
X95783641Y-109552484D01*
X95684302Y-109722785D01*
X95598649Y-109869336D01*
X95528105Y-109989685D01*
X95474090Y-110081379D01*
X95438025Y-110141967D01*
X95421330Y-110168995D01*
X95420333Y-110170223D01*
X95400912Y-110159547D01*
X95347046Y-110128940D01*
X95260933Y-110079667D01*
X95144771Y-110012996D01*
X95000758Y-109930194D01*
X94831092Y-109832526D01*
X94637972Y-109721259D01*
X94423596Y-109597660D01*
X94190162Y-109462995D01*
X93939868Y-109318531D01*
X93674913Y-109165534D01*
X93397494Y-109005271D01*
X93109810Y-108839009D01*
X93096702Y-108831431D01*
X92704912Y-108604690D01*
X92349910Y-108398693D01*
X92031609Y-108213387D01*
X91749922Y-108048722D01*
X91504762Y-107904645D01*
X91296043Y-107781106D01*
X91123677Y-107678054D01*
X90987579Y-107595436D01*
X90887662Y-107533201D01*
X90823838Y-107491299D01*
X90796021Y-107469677D01*
X90794717Y-107467014D01*
X90806871Y-107444160D01*
X90838786Y-107387219D01*
X90889030Y-107298667D01*
X90956174Y-107180981D01*
X91038789Y-107036636D01*
X91135443Y-106868108D01*
X91244706Y-106677875D01*
X91365150Y-106468410D01*
X91495343Y-106242191D01*
X91633855Y-106001694D01*
X91779257Y-105749395D01*
X91930119Y-105487769D01*
X92085010Y-105219293D01*
X92242501Y-104946442D01*
X92401161Y-104671694D01*
X92559560Y-104397524D01*
X92716269Y-104126407D01*
X92869857Y-103860820D01*
X93018894Y-103603240D01*
X93161950Y-103356141D01*
X93297595Y-103122001D01*
X93424400Y-102903295D01*
X93540933Y-102702499D01*
X93645766Y-102522089D01*
X93737467Y-102364542D01*
X93814608Y-102232333D01*
X93875757Y-102127938D01*
X93919485Y-102053834D01*
X93944362Y-102012496D01*
X93949603Y-102004494D01*
X93958246Y-102002751D01*
X93976806Y-102007412D01*
X109516333Y-136334500D02*
X109426375Y-136331328D01*
X109426375Y-136331328D02*
X109351798Y-136326964D01*
X109351798Y-136326964D02*
X109283224Y-136320271D01*
X109283224Y-136320271D02*
X109272916Y-136318872D01*
X109272916Y-136318872D02*
X109218269Y-136305173D01*
X109218269Y-136305173D02*
X109182958Y-136287701D01*
X109182958Y-136287701D02*
X109176321Y-136261492D01*
X109176321Y-136261492D02*
X109170543Y-136197754D01*
X109170543Y-136197754D02*
X109165617Y-136101281D01*
X109165617Y-136101281D02*
X109161534Y-135976871D01*
X109161534Y-135976871D02*
X109158288Y-135829318D01*
X109158288Y-135829318D02*
X109155871Y-135663418D01*
X109155871Y-135663418D02*
X109154277Y-135483966D01*
X109154277Y-135483966D02*
X109153498Y-135295758D01*
X109153498Y-135295758D02*
X109153526Y-135103588D01*
X109153526Y-135103588D02*
X109154355Y-134912253D01*
X109154355Y-134912253D02*
X109155978Y-134726549D01*
X109155978Y-134726549D02*
X109158387Y-134551269D01*
X109158387Y-134551269D02*
X109161574Y-134391210D01*
X109161574Y-134391210D02*
X109165534Y-134251168D01*
X109165534Y-134251168D02*
X109170257Y-134135937D01*
X109170257Y-134135937D02*
X109175738Y-134050314D01*
X109175738Y-134050314D02*
X109181969Y-133999093D01*
X109181969Y-133999093D02*
X109186426Y-133986513D01*
X109186426Y-133986513D02*
X109221615Y-133972399D01*
X109221615Y-133972399D02*
X109285442Y-133959042D01*
X109285442Y-133959042D02*
X109364264Y-133949277D01*
X109364264Y-133949277D02*
X109366343Y-133949101D01*
X109366343Y-133949101D02*
X109516333Y-133936526D01*
X109516333Y-133936526D02*
X109516333Y-136334500D01*
X109516333Y-136334500D02*
X109516333Y-136334500D01*
G36*
X109516333Y-136334500D02*
G01*
X109426375Y-136331328D01*
X109351798Y-136326964D01*
X109283224Y-136320271D01*
X109272916Y-136318872D01*
X109218269Y-136305173D01*
X109182958Y-136287701D01*
X109176321Y-136261492D01*
X109170543Y-136197754D01*
X109165617Y-136101281D01*
X109161534Y-135976871D01*
X109158288Y-135829318D01*
X109155871Y-135663418D01*
X109154277Y-135483966D01*
X109153498Y-135295758D01*
X109153526Y-135103588D01*
X109154355Y-134912253D01*
X109155978Y-134726549D01*
X109158387Y-134551269D01*
X109161574Y-134391210D01*
X109165534Y-134251168D01*
X109170257Y-134135937D01*
X109175738Y-134050314D01*
X109181969Y-133999093D01*
X109186426Y-133986513D01*
X109221615Y-133972399D01*
X109285442Y-133959042D01*
X109364264Y-133949277D01*
X109366343Y-133949101D01*
X109516333Y-133936526D01*
X109516333Y-136334500D01*
G37*
X109516333Y-136334500D02*
X109426375Y-136331328D01*
X109351798Y-136326964D01*
X109283224Y-136320271D01*
X109272916Y-136318872D01*
X109218269Y-136305173D01*
X109182958Y-136287701D01*
X109176321Y-136261492D01*
X109170543Y-136197754D01*
X109165617Y-136101281D01*
X109161534Y-135976871D01*
X109158288Y-135829318D01*
X109155871Y-135663418D01*
X109154277Y-135483966D01*
X109153498Y-135295758D01*
X109153526Y-135103588D01*
X109154355Y-134912253D01*
X109155978Y-134726549D01*
X109158387Y-134551269D01*
X109161574Y-134391210D01*
X109165534Y-134251168D01*
X109170257Y-134135937D01*
X109175738Y-134050314D01*
X109181969Y-133999093D01*
X109186426Y-133986513D01*
X109221615Y-133972399D01*
X109285442Y-133959042D01*
X109364264Y-133949277D01*
X109366343Y-133949101D01*
X109516333Y-133936526D01*
X109516333Y-136334500D01*
X112074491Y-133936677D02*
X112241788Y-133939757D01*
X112241788Y-133939757D02*
X112368240Y-133944841D01*
X112368240Y-133944841D02*
X112455291Y-133952026D01*
X112455291Y-133952026D02*
X112504386Y-133961411D01*
X112504386Y-133961411D02*
X112514622Y-133966493D01*
X112514622Y-133966493D02*
X112533052Y-133999045D01*
X112533052Y-133999045D02*
X112539968Y-134060773D01*
X112539968Y-134060773D02*
X112538797Y-134120649D01*
X112538797Y-134120649D02*
X112532583Y-134249583D01*
X112532583Y-134249583D02*
X112105478Y-134260166D01*
X112105478Y-134260166D02*
X111935474Y-134264782D01*
X111935474Y-134264782D02*
X111803040Y-134271662D01*
X111803040Y-134271662D02*
X111703436Y-134284508D01*
X111703436Y-134284508D02*
X111631923Y-134307024D01*
X111631923Y-134307024D02*
X111583761Y-134342910D01*
X111583761Y-134342910D02*
X111554211Y-134395870D01*
X111554211Y-134395870D02*
X111538534Y-134469605D01*
X111538534Y-134469605D02*
X111531991Y-134567817D01*
X111531991Y-134567817D02*
X111529842Y-134694209D01*
X111529842Y-134694209D02*
X111529670Y-134709958D01*
X111529670Y-134709958D02*
X111527166Y-134937500D01*
X111527166Y-134937500D02*
X112009766Y-134937500D01*
X112009766Y-134937500D02*
X112182485Y-134938263D01*
X112182485Y-134938263D02*
X112315977Y-134940654D01*
X112315977Y-134940654D02*
X112413323Y-134944829D01*
X112413323Y-134944829D02*
X112477602Y-134950941D01*
X112477602Y-134950941D02*
X112511896Y-134959143D01*
X112511896Y-134959143D02*
X112517766Y-134962900D01*
X112517766Y-134962900D02*
X112532965Y-134998126D01*
X112532965Y-134998126D02*
X112542039Y-135057833D01*
X112542039Y-135057833D02*
X112543166Y-135088388D01*
X112543166Y-135088388D02*
X112542464Y-135139188D01*
X112542464Y-135139188D02*
X112537134Y-135178445D01*
X112537134Y-135178445D02*
X112522344Y-135207647D01*
X112522344Y-135207647D02*
X112493261Y-135228281D01*
X112493261Y-135228281D02*
X112445052Y-135241835D01*
X112445052Y-135241835D02*
X112372883Y-135249796D01*
X112372883Y-135249796D02*
X112271921Y-135253652D01*
X112271921Y-135253652D02*
X112137334Y-135254892D01*
X112137334Y-135254892D02*
X112001904Y-135255000D01*
X112001904Y-135255000D02*
X111527166Y-135255000D01*
X111527166Y-135255000D02*
X111529670Y-135524875D01*
X111529670Y-135524875D02*
X111531892Y-135662039D01*
X111531892Y-135662039D02*
X111536573Y-135763752D01*
X111536573Y-135763752D02*
X111545110Y-135836881D01*
X111545110Y-135836881D02*
X111558903Y-135888295D01*
X111558903Y-135888295D02*
X111579351Y-135924862D01*
X111579351Y-135924862D02*
X111607851Y-135953451D01*
X111607851Y-135953451D02*
X111618645Y-135961846D01*
X111618645Y-135961846D02*
X111642079Y-135977151D01*
X111642079Y-135977151D02*
X111669980Y-135988789D01*
X111669980Y-135988789D02*
X111708592Y-135997468D01*
X111708592Y-135997468D02*
X111764159Y-136003895D01*
X111764159Y-136003895D02*
X111842927Y-136008778D01*
X111842927Y-136008778D02*
X111951139Y-136012824D01*
X111951139Y-136012824D02*
X112095041Y-136016740D01*
X112095041Y-136016740D02*
X112105478Y-136017000D01*
X112105478Y-136017000D02*
X112532583Y-136027583D01*
X112532583Y-136027583D02*
X112538797Y-136156517D01*
X112538797Y-136156517D02*
X112538296Y-136245384D01*
X112538296Y-136245384D02*
X112525966Y-136297079D01*
X112525966Y-136297079D02*
X112516621Y-136309013D01*
X112516621Y-136309013D02*
X112484889Y-136318479D01*
X112484889Y-136318479D02*
X112418994Y-136326920D01*
X112418994Y-136326920D02*
X112327097Y-136334100D01*
X112327097Y-136334100D02*
X112217362Y-136339783D01*
X112217362Y-136339783D02*
X112097950Y-136343734D01*
X112097950Y-136343734D02*
X111977024Y-136345717D01*
X111977024Y-136345717D02*
X111862746Y-136345497D01*
X111862746Y-136345497D02*
X111763280Y-136342837D01*
X111763280Y-136342837D02*
X111686786Y-136337503D01*
X111686786Y-136337503D02*
X111659659Y-136333751D01*
X111659659Y-136333751D02*
X111498173Y-136288426D01*
X111498173Y-136288426D02*
X111368462Y-136215903D01*
X111368462Y-136215903D02*
X111268967Y-136115080D01*
X111268967Y-136115080D02*
X111211750Y-136017000D01*
X111211750Y-136017000D02*
X111202852Y-135992657D01*
X111202852Y-135992657D02*
X111195626Y-135959661D01*
X111195626Y-135959661D02*
X111189906Y-135913757D01*
X111189906Y-135913757D02*
X111185525Y-135850686D01*
X111185525Y-135850686D02*
X111182319Y-135766193D01*
X111182319Y-135766193D02*
X111180122Y-135656022D01*
X111180122Y-135656022D02*
X111178766Y-135515915D01*
X111178766Y-135515915D02*
X111178087Y-135341616D01*
X111178087Y-135341616D02*
X111177916Y-135149166D01*
X111177916Y-135149166D02*
X111178121Y-134926318D01*
X111178121Y-134926318D02*
X111179174Y-134741530D01*
X111179174Y-134741530D02*
X111181737Y-134590527D01*
X111181737Y-134590527D02*
X111186469Y-134469036D01*
X111186469Y-134469036D02*
X111194029Y-134372784D01*
X111194029Y-134372784D02*
X111205078Y-134297497D01*
X111205078Y-134297497D02*
X111220276Y-134238902D01*
X111220276Y-134238902D02*
X111240282Y-134192724D01*
X111240282Y-134192724D02*
X111265756Y-134154691D01*
X111265756Y-134154691D02*
X111297359Y-134120529D01*
X111297359Y-134120529D02*
X111335749Y-134085963D01*
X111335749Y-134085963D02*
X111343055Y-134079692D01*
X111343055Y-134079692D02*
X111404087Y-134032552D01*
X111404087Y-134032552D02*
X111467521Y-133996416D01*
X111467521Y-133996416D02*
X111539842Y-133970015D01*
X111539842Y-133970015D02*
X111627538Y-133952082D01*
X111627538Y-133952082D02*
X111737095Y-133941348D01*
X111737095Y-133941348D02*
X111875000Y-133936545D01*
X111875000Y-133936545D02*
X112047740Y-133936404D01*
X112047740Y-133936404D02*
X112074491Y-133936677D01*
X112074491Y-133936677D02*
X112074491Y-133936677D01*
G36*
X112074491Y-133936677D02*
G01*
X112241788Y-133939757D01*
X112368240Y-133944841D01*
X112455291Y-133952026D01*
X112504386Y-133961411D01*
X112514622Y-133966493D01*
X112533052Y-133999045D01*
X112539968Y-134060773D01*
X112538797Y-134120649D01*
X112532583Y-134249583D01*
X112105478Y-134260166D01*
X111935474Y-134264782D01*
X111803040Y-134271662D01*
X111703436Y-134284508D01*
X111631923Y-134307024D01*
X111583761Y-134342910D01*
X111554211Y-134395870D01*
X111538534Y-134469605D01*
X111531991Y-134567817D01*
X111529842Y-134694209D01*
X111529670Y-134709958D01*
X111527166Y-134937500D01*
X112009766Y-134937500D01*
X112182485Y-134938263D01*
X112315977Y-134940654D01*
X112413323Y-134944829D01*
X112477602Y-134950941D01*
X112511896Y-134959143D01*
X112517766Y-134962900D01*
X112532965Y-134998126D01*
X112542039Y-135057833D01*
X112543166Y-135088388D01*
X112542464Y-135139188D01*
X112537134Y-135178445D01*
X112522344Y-135207647D01*
X112493261Y-135228281D01*
X112445052Y-135241835D01*
X112372883Y-135249796D01*
X112271921Y-135253652D01*
X112137334Y-135254892D01*
X112001904Y-135255000D01*
X111527166Y-135255000D01*
X111529670Y-135524875D01*
X111531892Y-135662039D01*
X111536573Y-135763752D01*
X111545110Y-135836881D01*
X111558903Y-135888295D01*
X111579351Y-135924862D01*
X111607851Y-135953451D01*
X111618645Y-135961846D01*
X111642079Y-135977151D01*
X111669980Y-135988789D01*
X111708592Y-135997468D01*
X111764159Y-136003895D01*
X111842927Y-136008778D01*
X111951139Y-136012824D01*
X112095041Y-136016740D01*
X112105478Y-136017000D01*
X112532583Y-136027583D01*
X112538797Y-136156517D01*
X112538296Y-136245384D01*
X112525966Y-136297079D01*
X112516621Y-136309013D01*
X112484889Y-136318479D01*
X112418994Y-136326920D01*
X112327097Y-136334100D01*
X112217362Y-136339783D01*
X112097950Y-136343734D01*
X111977024Y-136345717D01*
X111862746Y-136345497D01*
X111763280Y-136342837D01*
X111686786Y-136337503D01*
X111659659Y-136333751D01*
X111498173Y-136288426D01*
X111368462Y-136215903D01*
X111268967Y-136115080D01*
X111211750Y-136017000D01*
X111202852Y-135992657D01*
X111195626Y-135959661D01*
X111189906Y-135913757D01*
X111185525Y-135850686D01*
X111182319Y-135766193D01*
X111180122Y-135656022D01*
X111178766Y-135515915D01*
X111178087Y-135341616D01*
X111177916Y-135149166D01*
X111178121Y-134926318D01*
X111179174Y-134741530D01*
X111181737Y-134590527D01*
X111186469Y-134469036D01*
X111194029Y-134372784D01*
X111205078Y-134297497D01*
X111220276Y-134238902D01*
X111240282Y-134192724D01*
X111265756Y-134154691D01*
X111297359Y-134120529D01*
X111335749Y-134085963D01*
X111343055Y-134079692D01*
X111404087Y-134032552D01*
X111467521Y-133996416D01*
X111539842Y-133970015D01*
X111627538Y-133952082D01*
X111737095Y-133941348D01*
X111875000Y-133936545D01*
X112047740Y-133936404D01*
X112074491Y-133936677D01*
G37*
X112074491Y-133936677D02*
X112241788Y-133939757D01*
X112368240Y-133944841D01*
X112455291Y-133952026D01*
X112504386Y-133961411D01*
X112514622Y-133966493D01*
X112533052Y-133999045D01*
X112539968Y-134060773D01*
X112538797Y-134120649D01*
X112532583Y-134249583D01*
X112105478Y-134260166D01*
X111935474Y-134264782D01*
X111803040Y-134271662D01*
X111703436Y-134284508D01*
X111631923Y-134307024D01*
X111583761Y-134342910D01*
X111554211Y-134395870D01*
X111538534Y-134469605D01*
X111531991Y-134567817D01*
X111529842Y-134694209D01*
X111529670Y-134709958D01*
X111527166Y-134937500D01*
X112009766Y-134937500D01*
X112182485Y-134938263D01*
X112315977Y-134940654D01*
X112413323Y-134944829D01*
X112477602Y-134950941D01*
X112511896Y-134959143D01*
X112517766Y-134962900D01*
X112532965Y-134998126D01*
X112542039Y-135057833D01*
X112543166Y-135088388D01*
X112542464Y-135139188D01*
X112537134Y-135178445D01*
X112522344Y-135207647D01*
X112493261Y-135228281D01*
X112445052Y-135241835D01*
X112372883Y-135249796D01*
X112271921Y-135253652D01*
X112137334Y-135254892D01*
X112001904Y-135255000D01*
X111527166Y-135255000D01*
X111529670Y-135524875D01*
X111531892Y-135662039D01*
X111536573Y-135763752D01*
X111545110Y-135836881D01*
X111558903Y-135888295D01*
X111579351Y-135924862D01*
X111607851Y-135953451D01*
X111618645Y-135961846D01*
X111642079Y-135977151D01*
X111669980Y-135988789D01*
X111708592Y-135997468D01*
X111764159Y-136003895D01*
X111842927Y-136008778D01*
X111951139Y-136012824D01*
X112095041Y-136016740D01*
X112105478Y-136017000D01*
X112532583Y-136027583D01*
X112538797Y-136156517D01*
X112538296Y-136245384D01*
X112525966Y-136297079D01*
X112516621Y-136309013D01*
X112484889Y-136318479D01*
X112418994Y-136326920D01*
X112327097Y-136334100D01*
X112217362Y-136339783D01*
X112097950Y-136343734D01*
X111977024Y-136345717D01*
X111862746Y-136345497D01*
X111763280Y-136342837D01*
X111686786Y-136337503D01*
X111659659Y-136333751D01*
X111498173Y-136288426D01*
X111368462Y-136215903D01*
X111268967Y-136115080D01*
X111211750Y-136017000D01*
X111202852Y-135992657D01*
X111195626Y-135959661D01*
X111189906Y-135913757D01*
X111185525Y-135850686D01*
X111182319Y-135766193D01*
X111180122Y-135656022D01*
X111178766Y-135515915D01*
X111178087Y-135341616D01*
X111177916Y-135149166D01*
X111178121Y-134926318D01*
X111179174Y-134741530D01*
X111181737Y-134590527D01*
X111186469Y-134469036D01*
X111194029Y-134372784D01*
X111205078Y-134297497D01*
X111220276Y-134238902D01*
X111240282Y-134192724D01*
X111265756Y-134154691D01*
X111297359Y-134120529D01*
X111335749Y-134085963D01*
X111343055Y-134079692D01*
X111404087Y-134032552D01*
X111467521Y-133996416D01*
X111539842Y-133970015D01*
X111627538Y-133952082D01*
X111737095Y-133941348D01*
X111875000Y-133936545D01*
X112047740Y-133936404D01*
X112074491Y-133936677D01*
X109754458Y-133921919D02*
X109975992Y-133935256D01*
X109975992Y-133935256D02*
X110169302Y-133974579D01*
X110169302Y-133974579D02*
X110335398Y-134038600D01*
X110335398Y-134038600D02*
X110467352Y-134117240D01*
X110467352Y-134117240D02*
X110575504Y-134214028D01*
X110575504Y-134214028D02*
X110661112Y-134332194D01*
X110661112Y-134332194D02*
X110725433Y-134474971D01*
X110725433Y-134474971D02*
X110769726Y-134645593D01*
X110769726Y-134645593D02*
X110795248Y-134847292D01*
X110795248Y-134847292D02*
X110803257Y-135083299D01*
X110803257Y-135083299D02*
X110800488Y-135233833D01*
X110800488Y-135233833D02*
X110795032Y-135359066D01*
X110795032Y-135359066D02*
X110787705Y-135476593D01*
X110787705Y-135476593D02*
X110779272Y-135576739D01*
X110779272Y-135576739D02*
X110770496Y-135649831D01*
X110770496Y-135649831D02*
X110765562Y-135675967D01*
X110765562Y-135675967D02*
X110699983Y-135861548D01*
X110699983Y-135861548D02*
X110603214Y-136019634D01*
X110603214Y-136019634D02*
X110477004Y-136148398D01*
X110477004Y-136148398D02*
X110323104Y-136246015D01*
X110323104Y-136246015D02*
X110161916Y-136305850D01*
X110161916Y-136305850D02*
X110095029Y-136319769D01*
X110095029Y-136319769D02*
X110008807Y-136332131D01*
X110008807Y-136332131D02*
X109913293Y-136342204D01*
X109913293Y-136342204D02*
X109818529Y-136349256D01*
X109818529Y-136349256D02*
X109734558Y-136352555D01*
X109734558Y-136352555D02*
X109671422Y-136351369D01*
X109671422Y-136351369D02*
X109639163Y-136344967D01*
X109639163Y-136344967D02*
X109638041Y-136344032D01*
X109638041Y-136344032D02*
X109630294Y-136316069D01*
X109630294Y-136316069D02*
X109624642Y-136257787D01*
X109624642Y-136257787D02*
X109622192Y-136181189D01*
X109622192Y-136181189D02*
X109622166Y-136172222D01*
X109622166Y-136172222D02*
X109622166Y-136017000D01*
X109622166Y-136017000D02*
X109792710Y-136017000D01*
X109792710Y-136017000D02*
X109933944Y-136012141D01*
X109933944Y-136012141D02*
X110043839Y-135995453D01*
X110043839Y-135995453D02*
X110132489Y-135963765D01*
X110132489Y-135963765D02*
X110209995Y-135913908D01*
X110209995Y-135913908D02*
X110258721Y-135870699D01*
X110258721Y-135870699D02*
X110310312Y-135816299D01*
X110310312Y-135816299D02*
X110350281Y-135761189D01*
X110350281Y-135761189D02*
X110380062Y-135699109D01*
X110380062Y-135699109D02*
X110401090Y-135623796D01*
X110401090Y-135623796D02*
X110414801Y-135528990D01*
X110414801Y-135528990D02*
X110422629Y-135408431D01*
X110422629Y-135408431D02*
X110426008Y-135255855D01*
X110426008Y-135255855D02*
X110426500Y-135138583D01*
X110426500Y-135138583D02*
X110425094Y-134962583D01*
X110425094Y-134962583D02*
X110419986Y-134822468D01*
X110419986Y-134822468D02*
X110409839Y-134711856D01*
X110409839Y-134711856D02*
X110393316Y-134624366D01*
X110393316Y-134624366D02*
X110369081Y-134553616D01*
X110369081Y-134553616D02*
X110335796Y-134493224D01*
X110335796Y-134493224D02*
X110292124Y-134436808D01*
X110292124Y-134436808D02*
X110275660Y-134418468D01*
X110275660Y-134418468D02*
X110197208Y-134348201D01*
X110197208Y-134348201D02*
X110108125Y-134300536D01*
X110108125Y-134300536D02*
X109999461Y-134272439D01*
X109999461Y-134272439D02*
X109862268Y-134260872D01*
X109862268Y-134260872D02*
X109808896Y-134260166D01*
X109808896Y-134260166D02*
X109622166Y-134260166D01*
X109622166Y-134260166D02*
X109622166Y-133921500D01*
X109622166Y-133921500D02*
X109754458Y-133921919D01*
X109754458Y-133921919D02*
X109754458Y-133921919D01*
G36*
X109754458Y-133921919D02*
G01*
X109975992Y-133935256D01*
X110169302Y-133974579D01*
X110335398Y-134038600D01*
X110467352Y-134117240D01*
X110575504Y-134214028D01*
X110661112Y-134332194D01*
X110725433Y-134474971D01*
X110769726Y-134645593D01*
X110795248Y-134847292D01*
X110803257Y-135083299D01*
X110800488Y-135233833D01*
X110795032Y-135359066D01*
X110787705Y-135476593D01*
X110779272Y-135576739D01*
X110770496Y-135649831D01*
X110765562Y-135675967D01*
X110699983Y-135861548D01*
X110603214Y-136019634D01*
X110477004Y-136148398D01*
X110323104Y-136246015D01*
X110161916Y-136305850D01*
X110095029Y-136319769D01*
X110008807Y-136332131D01*
X109913293Y-136342204D01*
X109818529Y-136349256D01*
X109734558Y-136352555D01*
X109671422Y-136351369D01*
X109639163Y-136344967D01*
X109638041Y-136344032D01*
X109630294Y-136316069D01*
X109624642Y-136257787D01*
X109622192Y-136181189D01*
X109622166Y-136172222D01*
X109622166Y-136017000D01*
X109792710Y-136017000D01*
X109933944Y-136012141D01*
X110043839Y-135995453D01*
X110132489Y-135963765D01*
X110209995Y-135913908D01*
X110258721Y-135870699D01*
X110310312Y-135816299D01*
X110350281Y-135761189D01*
X110380062Y-135699109D01*
X110401090Y-135623796D01*
X110414801Y-135528990D01*
X110422629Y-135408431D01*
X110426008Y-135255855D01*
X110426500Y-135138583D01*
X110425094Y-134962583D01*
X110419986Y-134822468D01*
X110409839Y-134711856D01*
X110393316Y-134624366D01*
X110369081Y-134553616D01*
X110335796Y-134493224D01*
X110292124Y-134436808D01*
X110275660Y-134418468D01*
X110197208Y-134348201D01*
X110108125Y-134300536D01*
X109999461Y-134272439D01*
X109862268Y-134260872D01*
X109808896Y-134260166D01*
X109622166Y-134260166D01*
X109622166Y-133921500D01*
X109754458Y-133921919D01*
G37*
X109754458Y-133921919D02*
X109975992Y-133935256D01*
X110169302Y-133974579D01*
X110335398Y-134038600D01*
X110467352Y-134117240D01*
X110575504Y-134214028D01*
X110661112Y-134332194D01*
X110725433Y-134474971D01*
X110769726Y-134645593D01*
X110795248Y-134847292D01*
X110803257Y-135083299D01*
X110800488Y-135233833D01*
X110795032Y-135359066D01*
X110787705Y-135476593D01*
X110779272Y-135576739D01*
X110770496Y-135649831D01*
X110765562Y-135675967D01*
X110699983Y-135861548D01*
X110603214Y-136019634D01*
X110477004Y-136148398D01*
X110323104Y-136246015D01*
X110161916Y-136305850D01*
X110095029Y-136319769D01*
X110008807Y-136332131D01*
X109913293Y-136342204D01*
X109818529Y-136349256D01*
X109734558Y-136352555D01*
X109671422Y-136351369D01*
X109639163Y-136344967D01*
X109638041Y-136344032D01*
X109630294Y-136316069D01*
X109624642Y-136257787D01*
X109622192Y-136181189D01*
X109622166Y-136172222D01*
X109622166Y-136017000D01*
X109792710Y-136017000D01*
X109933944Y-136012141D01*
X110043839Y-135995453D01*
X110132489Y-135963765D01*
X110209995Y-135913908D01*
X110258721Y-135870699D01*
X110310312Y-135816299D01*
X110350281Y-135761189D01*
X110380062Y-135699109D01*
X110401090Y-135623796D01*
X110414801Y-135528990D01*
X110422629Y-135408431D01*
X110426008Y-135255855D01*
X110426500Y-135138583D01*
X110425094Y-134962583D01*
X110419986Y-134822468D01*
X110409839Y-134711856D01*
X110393316Y-134624366D01*
X110369081Y-134553616D01*
X110335796Y-134493224D01*
X110292124Y-134436808D01*
X110275660Y-134418468D01*
X110197208Y-134348201D01*
X110108125Y-134300536D01*
X109999461Y-134272439D01*
X109862268Y-134260872D01*
X109808896Y-134260166D01*
X109622166Y-134260166D01*
X109622166Y-133921500D01*
X109754458Y-133921919D01*
X147806833Y-147658666D02*
X141435666Y-147658666D01*
X141435666Y-147658666D02*
X141435666Y-142282333D01*
X141435666Y-142282333D02*
X147806833Y-142282333D01*
X147806833Y-142282333D02*
X147806833Y-147658666D01*
X147806833Y-147658666D02*
X147806833Y-147658666D01*
G36*
X147806833Y-147658666D02*
G01*
X141435666Y-147658666D01*
X141435666Y-142282333D01*
X147806833Y-142282333D01*
X147806833Y-147658666D01*
G37*
X147806833Y-147658666D02*
X141435666Y-147658666D01*
X141435666Y-142282333D01*
X147806833Y-142282333D01*
X147806833Y-147658666D01*
X120311333Y-147658666D02*
X113940166Y-147658666D01*
X113940166Y-147658666D02*
X113940166Y-142282333D01*
X113940166Y-142282333D02*
X120311333Y-142282333D01*
X120311333Y-142282333D02*
X120311333Y-147658666D01*
X120311333Y-147658666D02*
X120311333Y-147658666D01*
G36*
X120311333Y-147658666D02*
G01*
X113940166Y-147658666D01*
X113940166Y-142282333D01*
X120311333Y-142282333D01*
X120311333Y-147658666D01*
G37*
X120311333Y-147658666D02*
X113940166Y-147658666D01*
X113940166Y-142282333D01*
X120311333Y-142282333D01*
X120311333Y-147658666D01*
X106387469Y-133948981D02*
X106467039Y-133969512D01*
X106467039Y-133969512D02*
X106523803Y-134000277D01*
X106523803Y-134000277D02*
X106536800Y-134014627D01*
X106536800Y-134014627D02*
X106539781Y-134039691D01*
X106539781Y-134039691D02*
X106542586Y-134103075D01*
X106542586Y-134103075D02*
X106545159Y-134200767D01*
X106545159Y-134200767D02*
X106547446Y-134328751D01*
X106547446Y-134328751D02*
X106549389Y-134483016D01*
X106549389Y-134483016D02*
X106550933Y-134659547D01*
X106550933Y-134659547D02*
X106552021Y-134854333D01*
X106552021Y-134854333D02*
X106552599Y-135063358D01*
X106552599Y-135063358D02*
X106552675Y-135153258D01*
X106552675Y-135153258D02*
X106553000Y-136268599D01*
X106553000Y-136268599D02*
X106505956Y-136301549D01*
X106505956Y-136301549D02*
X106453952Y-136323154D01*
X106453952Y-136323154D02*
X106386098Y-136334148D01*
X106386098Y-136334148D02*
X106373083Y-136334500D01*
X106373083Y-136334500D02*
X106305208Y-136326376D01*
X106305208Y-136326376D02*
X106247983Y-136306353D01*
X106247983Y-136306353D02*
X106240209Y-136301549D01*
X106240209Y-136301549D02*
X106193166Y-136268599D01*
X106193166Y-136268599D02*
X106192176Y-134567083D01*
X106192176Y-134567083D02*
X106001371Y-134957883D01*
X106001371Y-134957883D02*
X105941799Y-135078366D01*
X105941799Y-135078366D02*
X105886403Y-135187554D01*
X105886403Y-135187554D02*
X105838543Y-135279047D01*
X105838543Y-135279047D02*
X105801580Y-135346445D01*
X105801580Y-135346445D02*
X105778874Y-135383347D01*
X105778874Y-135383347D02*
X105776336Y-135386508D01*
X105776336Y-135386508D02*
X105748601Y-135406893D01*
X105748601Y-135406893D02*
X105704542Y-135418644D01*
X105704542Y-135418644D02*
X105634060Y-135423702D01*
X105634060Y-135423702D02*
X105579333Y-135424333D01*
X105579333Y-135424333D02*
X105492383Y-135422595D01*
X105492383Y-135422595D02*
X105436522Y-135415766D01*
X105436522Y-135415766D02*
X105400589Y-135401428D01*
X105400589Y-135401428D02*
X105376238Y-135380295D01*
X105376238Y-135380295D02*
X105354588Y-135348004D01*
X105354588Y-135348004D02*
X105318253Y-135284246D01*
X105318253Y-135284246D02*
X105270827Y-135195737D01*
X105270827Y-135195737D02*
X105215903Y-135089196D01*
X105215903Y-135089196D02*
X105157073Y-134971339D01*
X105157073Y-134971339D02*
X105152614Y-134962253D01*
X105152614Y-134962253D02*
X104969312Y-134588250D01*
X104969312Y-134588250D02*
X104967406Y-135419041D01*
X104967406Y-135419041D02*
X104966851Y-135628625D01*
X104966851Y-135628625D02*
X104966102Y-135799978D01*
X104966102Y-135799978D02*
X104964952Y-135937205D01*
X104964952Y-135937205D02*
X104963193Y-136044407D01*
X104963193Y-136044407D02*
X104960617Y-136125690D01*
X104960617Y-136125690D02*
X104957015Y-136185155D01*
X104957015Y-136185155D02*
X104952181Y-136226906D01*
X104952181Y-136226906D02*
X104945907Y-136255047D01*
X104945907Y-136255047D02*
X104937983Y-136273680D01*
X104937983Y-136273680D02*
X104928203Y-136286909D01*
X104928203Y-136286909D02*
X104923166Y-136292166D01*
X104923166Y-136292166D02*
X104871139Y-136320856D01*
X104871139Y-136320856D02*
X104798376Y-136334665D01*
X104798376Y-136334665D02*
X104722012Y-136333047D01*
X104722012Y-136333047D02*
X104659184Y-136315454D01*
X104659184Y-136315454D02*
X104638928Y-136301238D01*
X104638928Y-136301238D02*
X104631566Y-136290124D01*
X104631566Y-136290124D02*
X104625359Y-136270489D01*
X104625359Y-136270489D02*
X104620213Y-136238973D01*
X104620213Y-136238973D02*
X104616030Y-136192218D01*
X104616030Y-136192218D02*
X104612715Y-136126865D01*
X104612715Y-136126865D02*
X104610172Y-136039554D01*
X104610172Y-136039554D02*
X104608304Y-135926926D01*
X104608304Y-135926926D02*
X104607015Y-135785624D01*
X104607015Y-135785624D02*
X104606210Y-135612288D01*
X104606210Y-135612288D02*
X104605793Y-135403558D01*
X104605793Y-135403558D02*
X104605667Y-135156076D01*
X104605667Y-135156076D02*
X104605666Y-135138271D01*
X104605666Y-135138271D02*
X104605666Y-134008567D01*
X104605666Y-134008567D02*
X104652709Y-133975616D01*
X104652709Y-133975616D02*
X104708666Y-133953741D01*
X104708666Y-133953741D02*
X104788255Y-133942719D01*
X104788255Y-133942719D02*
X104876229Y-133942383D01*
X104876229Y-133942383D02*
X104957340Y-133952566D01*
X104957340Y-133952566D02*
X105016342Y-133973101D01*
X105016342Y-133973101D02*
X105025704Y-133979708D01*
X105025704Y-133979708D02*
X105046184Y-134008207D01*
X105046184Y-134008207D02*
X105081647Y-134069679D01*
X105081647Y-134069679D02*
X105129255Y-134158695D01*
X105129255Y-134158695D02*
X105186173Y-134269828D01*
X105186173Y-134269828D02*
X105249567Y-134397649D01*
X105249567Y-134397649D02*
X105315936Y-134535333D01*
X105315936Y-134535333D02*
X105381155Y-134672237D01*
X105381155Y-134672237D02*
X105440485Y-134796205D01*
X105440485Y-134796205D02*
X105491498Y-134902210D01*
X105491498Y-134902210D02*
X105531767Y-134985226D01*
X105531767Y-134985226D02*
X105558864Y-135040229D01*
X105558864Y-135040229D02*
X105570363Y-135062193D01*
X105570363Y-135062193D02*
X105570461Y-135062310D01*
X105570461Y-135062310D02*
X105581371Y-135046252D01*
X105581371Y-135046252D02*
X105608238Y-134996739D01*
X105608238Y-134996739D02*
X105648672Y-134918469D01*
X105648672Y-134918469D02*
X105700287Y-134816139D01*
X105700287Y-134816139D02*
X105760692Y-134694446D01*
X105760692Y-134694446D02*
X105827499Y-134558088D01*
X105827499Y-134558088D02*
X105841264Y-134529788D01*
X105841264Y-134529788D02*
X105924830Y-134360142D01*
X105924830Y-134360142D02*
X105997568Y-134217313D01*
X105997568Y-134217313D02*
X106058068Y-134103904D01*
X106058068Y-134103904D02*
X106104915Y-134022520D01*
X106104915Y-134022520D02*
X106136698Y-133975765D01*
X106136698Y-133975765D02*
X106147215Y-133965769D01*
X106147215Y-133965769D02*
X106214026Y-133945413D01*
X106214026Y-133945413D02*
X106298621Y-133940383D01*
X106298621Y-133940383D02*
X106387469Y-133948981D01*
X106387469Y-133948981D02*
X106387469Y-133948981D01*
G36*
X106387469Y-133948981D02*
G01*
X106467039Y-133969512D01*
X106523803Y-134000277D01*
X106536800Y-134014627D01*
X106539781Y-134039691D01*
X106542586Y-134103075D01*
X106545159Y-134200767D01*
X106547446Y-134328751D01*
X106549389Y-134483016D01*
X106550933Y-134659547D01*
X106552021Y-134854333D01*
X106552599Y-135063358D01*
X106552675Y-135153258D01*
X106553000Y-136268599D01*
X106505956Y-136301549D01*
X106453952Y-136323154D01*
X106386098Y-136334148D01*
X106373083Y-136334500D01*
X106305208Y-136326376D01*
X106247983Y-136306353D01*
X106240209Y-136301549D01*
X106193166Y-136268599D01*
X106192176Y-134567083D01*
X106001371Y-134957883D01*
X105941799Y-135078366D01*
X105886403Y-135187554D01*
X105838543Y-135279047D01*
X105801580Y-135346445D01*
X105778874Y-135383347D01*
X105776336Y-135386508D01*
X105748601Y-135406893D01*
X105704542Y-135418644D01*
X105634060Y-135423702D01*
X105579333Y-135424333D01*
X105492383Y-135422595D01*
X105436522Y-135415766D01*
X105400589Y-135401428D01*
X105376238Y-135380295D01*
X105354588Y-135348004D01*
X105318253Y-135284246D01*
X105270827Y-135195737D01*
X105215903Y-135089196D01*
X105157073Y-134971339D01*
X105152614Y-134962253D01*
X104969312Y-134588250D01*
X104967406Y-135419041D01*
X104966851Y-135628625D01*
X104966102Y-135799978D01*
X104964952Y-135937205D01*
X104963193Y-136044407D01*
X104960617Y-136125690D01*
X104957015Y-136185155D01*
X104952181Y-136226906D01*
X104945907Y-136255047D01*
X104937983Y-136273680D01*
X104928203Y-136286909D01*
X104923166Y-136292166D01*
X104871139Y-136320856D01*
X104798376Y-136334665D01*
X104722012Y-136333047D01*
X104659184Y-136315454D01*
X104638928Y-136301238D01*
X104631566Y-136290124D01*
X104625359Y-136270489D01*
X104620213Y-136238973D01*
X104616030Y-136192218D01*
X104612715Y-136126865D01*
X104610172Y-136039554D01*
X104608304Y-135926926D01*
X104607015Y-135785624D01*
X104606210Y-135612288D01*
X104605793Y-135403558D01*
X104605667Y-135156076D01*
X104605666Y-135138271D01*
X104605666Y-134008567D01*
X104652709Y-133975616D01*
X104708666Y-133953741D01*
X104788255Y-133942719D01*
X104876229Y-133942383D01*
X104957340Y-133952566D01*
X105016342Y-133973101D01*
X105025704Y-133979708D01*
X105046184Y-134008207D01*
X105081647Y-134069679D01*
X105129255Y-134158695D01*
X105186173Y-134269828D01*
X105249567Y-134397649D01*
X105315936Y-134535333D01*
X105381155Y-134672237D01*
X105440485Y-134796205D01*
X105491498Y-134902210D01*
X105531767Y-134985226D01*
X105558864Y-135040229D01*
X105570363Y-135062193D01*
X105570461Y-135062310D01*
X105581371Y-135046252D01*
X105608238Y-134996739D01*
X105648672Y-134918469D01*
X105700287Y-134816139D01*
X105760692Y-134694446D01*
X105827499Y-134558088D01*
X105841264Y-134529788D01*
X105924830Y-134360142D01*
X105997568Y-134217313D01*
X106058068Y-134103904D01*
X106104915Y-134022520D01*
X106136698Y-133975765D01*
X106147215Y-133965769D01*
X106214026Y-133945413D01*
X106298621Y-133940383D01*
X106387469Y-133948981D01*
G37*
X106387469Y-133948981D02*
X106467039Y-133969512D01*
X106523803Y-134000277D01*
X106536800Y-134014627D01*
X106539781Y-134039691D01*
X106542586Y-134103075D01*
X106545159Y-134200767D01*
X106547446Y-134328751D01*
X106549389Y-134483016D01*
X106550933Y-134659547D01*
X106552021Y-134854333D01*
X106552599Y-135063358D01*
X106552675Y-135153258D01*
X106553000Y-136268599D01*
X106505956Y-136301549D01*
X106453952Y-136323154D01*
X106386098Y-136334148D01*
X106373083Y-136334500D01*
X106305208Y-136326376D01*
X106247983Y-136306353D01*
X106240209Y-136301549D01*
X106193166Y-136268599D01*
X106192176Y-134567083D01*
X106001371Y-134957883D01*
X105941799Y-135078366D01*
X105886403Y-135187554D01*
X105838543Y-135279047D01*
X105801580Y-135346445D01*
X105778874Y-135383347D01*
X105776336Y-135386508D01*
X105748601Y-135406893D01*
X105704542Y-135418644D01*
X105634060Y-135423702D01*
X105579333Y-135424333D01*
X105492383Y-135422595D01*
X105436522Y-135415766D01*
X105400589Y-135401428D01*
X105376238Y-135380295D01*
X105354588Y-135348004D01*
X105318253Y-135284246D01*
X105270827Y-135195737D01*
X105215903Y-135089196D01*
X105157073Y-134971339D01*
X105152614Y-134962253D01*
X104969312Y-134588250D01*
X104967406Y-135419041D01*
X104966851Y-135628625D01*
X104966102Y-135799978D01*
X104964952Y-135937205D01*
X104963193Y-136044407D01*
X104960617Y-136125690D01*
X104957015Y-136185155D01*
X104952181Y-136226906D01*
X104945907Y-136255047D01*
X104937983Y-136273680D01*
X104928203Y-136286909D01*
X104923166Y-136292166D01*
X104871139Y-136320856D01*
X104798376Y-136334665D01*
X104722012Y-136333047D01*
X104659184Y-136315454D01*
X104638928Y-136301238D01*
X104631566Y-136290124D01*
X104625359Y-136270489D01*
X104620213Y-136238973D01*
X104616030Y-136192218D01*
X104612715Y-136126865D01*
X104610172Y-136039554D01*
X104608304Y-135926926D01*
X104607015Y-135785624D01*
X104606210Y-135612288D01*
X104605793Y-135403558D01*
X104605667Y-135156076D01*
X104605666Y-135138271D01*
X104605666Y-134008567D01*
X104652709Y-133975616D01*
X104708666Y-133953741D01*
X104788255Y-133942719D01*
X104876229Y-133942383D01*
X104957340Y-133952566D01*
X105016342Y-133973101D01*
X105025704Y-133979708D01*
X105046184Y-134008207D01*
X105081647Y-134069679D01*
X105129255Y-134158695D01*
X105186173Y-134269828D01*
X105249567Y-134397649D01*
X105315936Y-134535333D01*
X105381155Y-134672237D01*
X105440485Y-134796205D01*
X105491498Y-134902210D01*
X105531767Y-134985226D01*
X105558864Y-135040229D01*
X105570363Y-135062193D01*
X105570461Y-135062310D01*
X105581371Y-135046252D01*
X105608238Y-134996739D01*
X105648672Y-134918469D01*
X105700287Y-134816139D01*
X105760692Y-134694446D01*
X105827499Y-134558088D01*
X105841264Y-134529788D01*
X105924830Y-134360142D01*
X105997568Y-134217313D01*
X106058068Y-134103904D01*
X106104915Y-134022520D01*
X106136698Y-133975765D01*
X106147215Y-133965769D01*
X106214026Y-133945413D01*
X106298621Y-133940383D01*
X106387469Y-133948981D01*
X107959489Y-133954909D02*
X108061742Y-133993599D01*
X108061742Y-133993599D02*
X108140956Y-134065062D01*
X108140956Y-134065062D02*
X108147220Y-134073351D01*
X108147220Y-134073351D02*
X108161801Y-134105690D01*
X108161801Y-134105690D02*
X108185979Y-134174055D01*
X108185979Y-134174055D02*
X108218386Y-134273648D01*
X108218386Y-134273648D02*
X108257656Y-134399674D01*
X108257656Y-134399674D02*
X108302420Y-134547336D01*
X108302420Y-134547336D02*
X108351313Y-134711838D01*
X108351313Y-134711838D02*
X108402966Y-134888382D01*
X108402966Y-134888382D02*
X108456012Y-135072174D01*
X108456012Y-135072174D02*
X108509086Y-135258415D01*
X108509086Y-135258415D02*
X108560818Y-135442311D01*
X108560818Y-135442311D02*
X108609842Y-135619063D01*
X108609842Y-135619063D02*
X108654791Y-135783877D01*
X108654791Y-135783877D02*
X108694298Y-135931955D01*
X108694298Y-135931955D02*
X108726995Y-136058501D01*
X108726995Y-136058501D02*
X108751515Y-136158718D01*
X108751515Y-136158718D02*
X108766491Y-136227810D01*
X108766491Y-136227810D02*
X108770620Y-136260416D01*
X108770620Y-136260416D02*
X108766095Y-136293461D01*
X108766095Y-136293461D02*
X108753592Y-136312871D01*
X108753592Y-136312871D02*
X108723598Y-136322898D01*
X108723598Y-136322898D02*
X108666597Y-136327795D01*
X108666597Y-136327795D02*
X108614764Y-136330068D01*
X108614764Y-136330068D02*
X108519142Y-136330209D01*
X108519142Y-136330209D02*
X108461400Y-136320864D01*
X108461400Y-136320864D02*
X108442022Y-136308902D01*
X108442022Y-136308902D02*
X108429089Y-136280294D01*
X108429089Y-136280294D02*
X108407371Y-136218090D01*
X108407371Y-136218090D02*
X108379194Y-136129547D01*
X108379194Y-136129547D02*
X108346882Y-136021917D01*
X108346882Y-136021917D02*
X108319645Y-135927041D01*
X108319645Y-135927041D02*
X108219856Y-135572500D01*
X108219856Y-135572500D02*
X107907666Y-135572500D01*
X107907666Y-135572500D02*
X107907666Y-135255000D01*
X107907666Y-135255000D02*
X108026347Y-135255000D01*
X108026347Y-135255000D02*
X108097040Y-135252150D01*
X108097040Y-135252150D02*
X108130994Y-135242739D01*
X108130994Y-135242739D02*
X108134816Y-135228385D01*
X108134816Y-135228385D02*
X108126426Y-135200860D01*
X108126426Y-135200860D02*
X108108698Y-135138825D01*
X108108698Y-135138825D02*
X108083405Y-135048621D01*
X108083405Y-135048621D02*
X108052322Y-134936587D01*
X108052322Y-134936587D02*
X108017221Y-134809064D01*
X108017221Y-134809064D02*
X108003079Y-134757427D01*
X108003079Y-134757427D02*
X107966566Y-134625269D01*
X107966566Y-134625269D02*
X107932878Y-134505869D01*
X107932878Y-134505869D02*
X107903885Y-134405653D01*
X107903885Y-134405653D02*
X107881457Y-134331048D01*
X107881457Y-134331048D02*
X107867464Y-134288481D01*
X107867464Y-134288481D02*
X107864771Y-134282086D01*
X107864771Y-134282086D02*
X107859497Y-134272913D01*
X107859497Y-134272913D02*
X107854311Y-134269485D01*
X107854311Y-134269485D02*
X107847854Y-134275963D01*
X107847854Y-134275963D02*
X107838768Y-134296510D01*
X107838768Y-134296510D02*
X107825693Y-134335285D01*
X107825693Y-134335285D02*
X107807271Y-134396451D01*
X107807271Y-134396451D02*
X107782143Y-134484168D01*
X107782143Y-134484168D02*
X107748950Y-134602598D01*
X107748950Y-134602598D02*
X107706333Y-134755902D01*
X107706333Y-134755902D02*
X107685303Y-134831666D01*
X107685303Y-134831666D02*
X107652611Y-134949279D01*
X107652611Y-134949279D02*
X107623283Y-135054472D01*
X107623283Y-135054472D02*
X107599436Y-135139681D01*
X107599436Y-135139681D02*
X107583186Y-135197338D01*
X107583186Y-135197338D02*
X107577254Y-135217958D01*
X107577254Y-135217958D02*
X107576203Y-135239189D01*
X107576203Y-135239189D02*
X107595221Y-135250385D01*
X107595221Y-135250385D02*
X107643046Y-135254579D01*
X107643046Y-135254579D02*
X107683990Y-135255000D01*
X107683990Y-135255000D02*
X107801833Y-135255000D01*
X107801833Y-135255000D02*
X107801833Y-135572500D01*
X107801833Y-135572500D02*
X107489837Y-135572500D01*
X107489837Y-135572500D02*
X107390640Y-135926312D01*
X107390640Y-135926312D02*
X107356852Y-136043863D01*
X107356852Y-136043863D02*
X107325325Y-136148106D01*
X107325325Y-136148106D02*
X107298379Y-136231779D01*
X107298379Y-136231779D02*
X107278336Y-136287619D01*
X107278336Y-136287619D02*
X107268879Y-136307312D01*
X107268879Y-136307312D02*
X107238161Y-136320144D01*
X107238161Y-136320144D02*
X107179388Y-136329417D01*
X107179388Y-136329417D02*
X107106735Y-136334553D01*
X107106735Y-136334553D02*
X107034374Y-136334975D01*
X107034374Y-136334975D02*
X106976479Y-136330105D01*
X106976479Y-136330105D02*
X106948111Y-136320388D01*
X106948111Y-136320388D02*
X106937605Y-136290640D01*
X106937605Y-136290640D02*
X106934000Y-136248698D01*
X106934000Y-136248698D02*
X106939640Y-136218727D01*
X106939640Y-136218727D02*
X106955663Y-136152908D01*
X106955663Y-136152908D02*
X106980717Y-136056067D01*
X106980717Y-136056067D02*
X107013454Y-135933031D01*
X107013454Y-135933031D02*
X107052523Y-135788628D01*
X107052523Y-135788628D02*
X107096575Y-135627685D01*
X107096575Y-135627685D02*
X107144261Y-135455028D01*
X107144261Y-135455028D02*
X107194231Y-135275484D01*
X107194231Y-135275484D02*
X107245134Y-135093881D01*
X107245134Y-135093881D02*
X107295623Y-134915045D01*
X107295623Y-134915045D02*
X107344345Y-134743803D01*
X107344345Y-134743803D02*
X107389953Y-134584983D01*
X107389953Y-134584983D02*
X107431097Y-134443411D01*
X107431097Y-134443411D02*
X107466426Y-134323914D01*
X107466426Y-134323914D02*
X107494592Y-134231320D01*
X107494592Y-134231320D02*
X107514244Y-134170455D01*
X107514244Y-134170455D02*
X107518219Y-134159260D01*
X107518219Y-134159260D02*
X107574333Y-134059498D01*
X107574333Y-134059498D02*
X107657712Y-133991479D01*
X107657712Y-133991479D02*
X107769436Y-133954475D01*
X107769436Y-133954475D02*
X107830832Y-133947655D01*
X107830832Y-133947655D02*
X107959489Y-133954909D01*
X107959489Y-133954909D02*
X107959489Y-133954909D01*
G36*
X107959489Y-133954909D02*
G01*
X108061742Y-133993599D01*
X108140956Y-134065062D01*
X108147220Y-134073351D01*
X108161801Y-134105690D01*
X108185979Y-134174055D01*
X108218386Y-134273648D01*
X108257656Y-134399674D01*
X108302420Y-134547336D01*
X108351313Y-134711838D01*
X108402966Y-134888382D01*
X108456012Y-135072174D01*
X108509086Y-135258415D01*
X108560818Y-135442311D01*
X108609842Y-135619063D01*
X108654791Y-135783877D01*
X108694298Y-135931955D01*
X108726995Y-136058501D01*
X108751515Y-136158718D01*
X108766491Y-136227810D01*
X108770620Y-136260416D01*
X108766095Y-136293461D01*
X108753592Y-136312871D01*
X108723598Y-136322898D01*
X108666597Y-136327795D01*
X108614764Y-136330068D01*
X108519142Y-136330209D01*
X108461400Y-136320864D01*
X108442022Y-136308902D01*
X108429089Y-136280294D01*
X108407371Y-136218090D01*
X108379194Y-136129547D01*
X108346882Y-136021917D01*
X108319645Y-135927041D01*
X108219856Y-135572500D01*
X107907666Y-135572500D01*
X107907666Y-135255000D01*
X108026347Y-135255000D01*
X108097040Y-135252150D01*
X108130994Y-135242739D01*
X108134816Y-135228385D01*
X108126426Y-135200860D01*
X108108698Y-135138825D01*
X108083405Y-135048621D01*
X108052322Y-134936587D01*
X108017221Y-134809064D01*
X108003079Y-134757427D01*
X107966566Y-134625269D01*
X107932878Y-134505869D01*
X107903885Y-134405653D01*
X107881457Y-134331048D01*
X107867464Y-134288481D01*
X107864771Y-134282086D01*
X107859497Y-134272913D01*
X107854311Y-134269485D01*
X107847854Y-134275963D01*
X107838768Y-134296510D01*
X107825693Y-134335285D01*
X107807271Y-134396451D01*
X107782143Y-134484168D01*
X107748950Y-134602598D01*
X107706333Y-134755902D01*
X107685303Y-134831666D01*
X107652611Y-134949279D01*
X107623283Y-135054472D01*
X107599436Y-135139681D01*
X107583186Y-135197338D01*
X107577254Y-135217958D01*
X107576203Y-135239189D01*
X107595221Y-135250385D01*
X107643046Y-135254579D01*
X107683990Y-135255000D01*
X107801833Y-135255000D01*
X107801833Y-135572500D01*
X107489837Y-135572500D01*
X107390640Y-135926312D01*
X107356852Y-136043863D01*
X107325325Y-136148106D01*
X107298379Y-136231779D01*
X107278336Y-136287619D01*
X107268879Y-136307312D01*
X107238161Y-136320144D01*
X107179388Y-136329417D01*
X107106735Y-136334553D01*
X107034374Y-136334975D01*
X106976479Y-136330105D01*
X106948111Y-136320388D01*
X106937605Y-136290640D01*
X106934000Y-136248698D01*
X106939640Y-136218727D01*
X106955663Y-136152908D01*
X106980717Y-136056067D01*
X107013454Y-135933031D01*
X107052523Y-135788628D01*
X107096575Y-135627685D01*
X107144261Y-135455028D01*
X107194231Y-135275484D01*
X107245134Y-135093881D01*
X107295623Y-134915045D01*
X107344345Y-134743803D01*
X107389953Y-134584983D01*
X107431097Y-134443411D01*
X107466426Y-134323914D01*
X107494592Y-134231320D01*
X107514244Y-134170455D01*
X107518219Y-134159260D01*
X107574333Y-134059498D01*
X107657712Y-133991479D01*
X107769436Y-133954475D01*
X107830832Y-133947655D01*
X107959489Y-133954909D01*
G37*
X107959489Y-133954909D02*
X108061742Y-133993599D01*
X108140956Y-134065062D01*
X108147220Y-134073351D01*
X108161801Y-134105690D01*
X108185979Y-134174055D01*
X108218386Y-134273648D01*
X108257656Y-134399674D01*
X108302420Y-134547336D01*
X108351313Y-134711838D01*
X108402966Y-134888382D01*
X108456012Y-135072174D01*
X108509086Y-135258415D01*
X108560818Y-135442311D01*
X108609842Y-135619063D01*
X108654791Y-135783877D01*
X108694298Y-135931955D01*
X108726995Y-136058501D01*
X108751515Y-136158718D01*
X108766491Y-136227810D01*
X108770620Y-136260416D01*
X108766095Y-136293461D01*
X108753592Y-136312871D01*
X108723598Y-136322898D01*
X108666597Y-136327795D01*
X108614764Y-136330068D01*
X108519142Y-136330209D01*
X108461400Y-136320864D01*
X108442022Y-136308902D01*
X108429089Y-136280294D01*
X108407371Y-136218090D01*
X108379194Y-136129547D01*
X108346882Y-136021917D01*
X108319645Y-135927041D01*
X108219856Y-135572500D01*
X107907666Y-135572500D01*
X107907666Y-135255000D01*
X108026347Y-135255000D01*
X108097040Y-135252150D01*
X108130994Y-135242739D01*
X108134816Y-135228385D01*
X108126426Y-135200860D01*
X108108698Y-135138825D01*
X108083405Y-135048621D01*
X108052322Y-134936587D01*
X108017221Y-134809064D01*
X108003079Y-134757427D01*
X107966566Y-134625269D01*
X107932878Y-134505869D01*
X107903885Y-134405653D01*
X107881457Y-134331048D01*
X107867464Y-134288481D01*
X107864771Y-134282086D01*
X107859497Y-134272913D01*
X107854311Y-134269485D01*
X107847854Y-134275963D01*
X107838768Y-134296510D01*
X107825693Y-134335285D01*
X107807271Y-134396451D01*
X107782143Y-134484168D01*
X107748950Y-134602598D01*
X107706333Y-134755902D01*
X107685303Y-134831666D01*
X107652611Y-134949279D01*
X107623283Y-135054472D01*
X107599436Y-135139681D01*
X107583186Y-135197338D01*
X107577254Y-135217958D01*
X107576203Y-135239189D01*
X107595221Y-135250385D01*
X107643046Y-135254579D01*
X107683990Y-135255000D01*
X107801833Y-135255000D01*
X107801833Y-135572500D01*
X107489837Y-135572500D01*
X107390640Y-135926312D01*
X107356852Y-136043863D01*
X107325325Y-136148106D01*
X107298379Y-136231779D01*
X107278336Y-136287619D01*
X107268879Y-136307312D01*
X107238161Y-136320144D01*
X107179388Y-136329417D01*
X107106735Y-136334553D01*
X107034374Y-136334975D01*
X106976479Y-136330105D01*
X106948111Y-136320388D01*
X106937605Y-136290640D01*
X106934000Y-136248698D01*
X106939640Y-136218727D01*
X106955663Y-136152908D01*
X106980717Y-136056067D01*
X107013454Y-135933031D01*
X107052523Y-135788628D01*
X107096575Y-135627685D01*
X107144261Y-135455028D01*
X107194231Y-135275484D01*
X107245134Y-135093881D01*
X107295623Y-134915045D01*
X107344345Y-134743803D01*
X107389953Y-134584983D01*
X107431097Y-134443411D01*
X107466426Y-134323914D01*
X107494592Y-134231320D01*
X107514244Y-134170455D01*
X107518219Y-134159260D01*
X107574333Y-134059498D01*
X107657712Y-133991479D01*
X107769436Y-133954475D01*
X107830832Y-133947655D01*
X107959489Y-133954909D01*
X101409185Y-133943273D02*
X101430261Y-133945379D01*
X101430261Y-133945379D02*
X101614229Y-133982606D01*
X101614229Y-133982606D02*
X101771806Y-134052531D01*
X101771806Y-134052531D02*
X101903766Y-134155808D01*
X101903766Y-134155808D02*
X102010886Y-134293090D01*
X102010886Y-134293090D02*
X102093941Y-134465028D01*
X102093941Y-134465028D02*
X102113231Y-134520216D01*
X102113231Y-134520216D02*
X102132131Y-134602882D01*
X102132131Y-134602882D02*
X102147680Y-134718428D01*
X102147680Y-134718428D02*
X102159548Y-134857511D01*
X102159548Y-134857511D02*
X102167406Y-135010784D01*
X102167406Y-135010784D02*
X102170923Y-135168905D01*
X102170923Y-135168905D02*
X102169769Y-135322527D01*
X102169769Y-135322527D02*
X102163616Y-135462307D01*
X102163616Y-135462307D02*
X102152133Y-135578899D01*
X102152133Y-135578899D02*
X102150899Y-135587448D01*
X102150899Y-135587448D02*
X102105030Y-135783122D01*
X102105030Y-135783122D02*
X102030811Y-135953334D01*
X102030811Y-135953334D02*
X101930708Y-136095399D01*
X101930708Y-136095399D02*
X101807187Y-136206629D01*
X101807187Y-136206629D02*
X101662715Y-136284338D01*
X101662715Y-136284338D02*
X101499757Y-136325838D01*
X101499757Y-136325838D02*
X101470108Y-136329125D01*
X101470108Y-136329125D02*
X101346000Y-136340379D01*
X101346000Y-136340379D02*
X101346000Y-136020363D01*
X101346000Y-136020363D02*
X101414791Y-136005797D01*
X101414791Y-136005797D02*
X101541229Y-135960020D01*
X101541229Y-135960020D02*
X101643005Y-135880864D01*
X101643005Y-135880864D02*
X101721276Y-135767198D01*
X101721276Y-135767198D02*
X101763460Y-135664167D01*
X101763460Y-135664167D02*
X101778961Y-135591097D01*
X101778961Y-135591097D02*
X101790466Y-135485474D01*
X101790466Y-135485474D02*
X101797997Y-135356645D01*
X101797997Y-135356645D02*
X101801576Y-135213955D01*
X101801576Y-135213955D02*
X101801224Y-135066750D01*
X101801224Y-135066750D02*
X101796963Y-134924377D01*
X101796963Y-134924377D02*
X101788814Y-134796180D01*
X101788814Y-134796180D02*
X101776799Y-134691505D01*
X101776799Y-134691505D02*
X101761043Y-134620000D01*
X101761043Y-134620000D02*
X101699323Y-134481552D01*
X101699323Y-134481552D02*
X101618930Y-134380224D01*
X101618930Y-134380224D02*
X101517018Y-134313872D01*
X101517018Y-134313872D02*
X101390741Y-134280352D01*
X101390741Y-134280352D02*
X101303206Y-134275107D01*
X101303206Y-134275107D02*
X101153275Y-134290135D01*
X101153275Y-134290135D02*
X101031021Y-134336513D01*
X101031021Y-134336513D02*
X100933670Y-134416184D01*
X100933670Y-134416184D02*
X100858446Y-134531090D01*
X100858446Y-134531090D02*
X100825711Y-134609416D01*
X100825711Y-134609416D02*
X100808928Y-134681743D01*
X100808928Y-134681743D02*
X100796309Y-134786980D01*
X100796309Y-134786980D02*
X100787865Y-134915912D01*
X100787865Y-134915912D02*
X100783608Y-135059320D01*
X100783608Y-135059320D02*
X100783550Y-135207985D01*
X100783550Y-135207985D02*
X100787702Y-135352691D01*
X100787702Y-135352691D02*
X100796076Y-135484220D01*
X100796076Y-135484220D02*
X100808682Y-135593354D01*
X100808682Y-135593354D02*
X100824383Y-135667218D01*
X100824383Y-135667218D02*
X100880756Y-135792536D01*
X100880756Y-135792536D02*
X100963089Y-135895189D01*
X100963089Y-135895189D02*
X101064593Y-135968100D01*
X101064593Y-135968100D02*
X101140786Y-135997001D01*
X101140786Y-135997001D02*
X101240166Y-136022025D01*
X101240166Y-136022025D02*
X101240166Y-136334500D01*
X101240166Y-136334500D02*
X101150208Y-136333084D01*
X101150208Y-136333084D02*
X101068198Y-136325152D01*
X101068198Y-136325152D02*
X100983662Y-136307509D01*
X100983662Y-136307509D02*
X100971861Y-136304030D01*
X100971861Y-136304030D02*
X100823616Y-136236127D01*
X100823616Y-136236127D02*
X100693082Y-136133125D01*
X100693082Y-136133125D02*
X100584047Y-135999906D01*
X100584047Y-135999906D02*
X100500300Y-135841348D01*
X100500300Y-135841348D02*
X100445627Y-135662333D01*
X100445627Y-135662333D02*
X100436926Y-135614833D01*
X100436926Y-135614833D02*
X100426186Y-135518050D01*
X100426186Y-135518050D02*
X100419122Y-135392777D01*
X100419122Y-135392777D02*
X100415639Y-135249376D01*
X100415639Y-135249376D02*
X100415640Y-135098211D01*
X100415640Y-135098211D02*
X100419028Y-134949643D01*
X100419028Y-134949643D02*
X100425708Y-134814035D01*
X100425708Y-134814035D02*
X100435583Y-134701751D01*
X100435583Y-134701751D02*
X100446054Y-134634080D01*
X100446054Y-134634080D02*
X100505298Y-134436308D01*
X100505298Y-134436308D02*
X100591973Y-134270645D01*
X100591973Y-134270645D02*
X100705289Y-134137641D01*
X100705289Y-134137641D02*
X100844457Y-134037850D01*
X100844457Y-134037850D02*
X101008689Y-133971823D01*
X101008689Y-133971823D02*
X101197194Y-133940114D01*
X101197194Y-133940114D02*
X101409185Y-133943273D01*
X101409185Y-133943273D02*
X101409185Y-133943273D01*
G36*
X101409185Y-133943273D02*
G01*
X101430261Y-133945379D01*
X101614229Y-133982606D01*
X101771806Y-134052531D01*
X101903766Y-134155808D01*
X102010886Y-134293090D01*
X102093941Y-134465028D01*
X102113231Y-134520216D01*
X102132131Y-134602882D01*
X102147680Y-134718428D01*
X102159548Y-134857511D01*
X102167406Y-135010784D01*
X102170923Y-135168905D01*
X102169769Y-135322527D01*
X102163616Y-135462307D01*
X102152133Y-135578899D01*
X102150899Y-135587448D01*
X102105030Y-135783122D01*
X102030811Y-135953334D01*
X101930708Y-136095399D01*
X101807187Y-136206629D01*
X101662715Y-136284338D01*
X101499757Y-136325838D01*
X101470108Y-136329125D01*
X101346000Y-136340379D01*
X101346000Y-136020363D01*
X101414791Y-136005797D01*
X101541229Y-135960020D01*
X101643005Y-135880864D01*
X101721276Y-135767198D01*
X101763460Y-135664167D01*
X101778961Y-135591097D01*
X101790466Y-135485474D01*
X101797997Y-135356645D01*
X101801576Y-135213955D01*
X101801224Y-135066750D01*
X101796963Y-134924377D01*
X101788814Y-134796180D01*
X101776799Y-134691505D01*
X101761043Y-134620000D01*
X101699323Y-134481552D01*
X101618930Y-134380224D01*
X101517018Y-134313872D01*
X101390741Y-134280352D01*
X101303206Y-134275107D01*
X101153275Y-134290135D01*
X101031021Y-134336513D01*
X100933670Y-134416184D01*
X100858446Y-134531090D01*
X100825711Y-134609416D01*
X100808928Y-134681743D01*
X100796309Y-134786980D01*
X100787865Y-134915912D01*
X100783608Y-135059320D01*
X100783550Y-135207985D01*
X100787702Y-135352691D01*
X100796076Y-135484220D01*
X100808682Y-135593354D01*
X100824383Y-135667218D01*
X100880756Y-135792536D01*
X100963089Y-135895189D01*
X101064593Y-135968100D01*
X101140786Y-135997001D01*
X101240166Y-136022025D01*
X101240166Y-136334500D01*
X101150208Y-136333084D01*
X101068198Y-136325152D01*
X100983662Y-136307509D01*
X100971861Y-136304030D01*
X100823616Y-136236127D01*
X100693082Y-136133125D01*
X100584047Y-135999906D01*
X100500300Y-135841348D01*
X100445627Y-135662333D01*
X100436926Y-135614833D01*
X100426186Y-135518050D01*
X100419122Y-135392777D01*
X100415639Y-135249376D01*
X100415640Y-135098211D01*
X100419028Y-134949643D01*
X100425708Y-134814035D01*
X100435583Y-134701751D01*
X100446054Y-134634080D01*
X100505298Y-134436308D01*
X100591973Y-134270645D01*
X100705289Y-134137641D01*
X100844457Y-134037850D01*
X101008689Y-133971823D01*
X101197194Y-133940114D01*
X101409185Y-133943273D01*
G37*
X101409185Y-133943273D02*
X101430261Y-133945379D01*
X101614229Y-133982606D01*
X101771806Y-134052531D01*
X101903766Y-134155808D01*
X102010886Y-134293090D01*
X102093941Y-134465028D01*
X102113231Y-134520216D01*
X102132131Y-134602882D01*
X102147680Y-134718428D01*
X102159548Y-134857511D01*
X102167406Y-135010784D01*
X102170923Y-135168905D01*
X102169769Y-135322527D01*
X102163616Y-135462307D01*
X102152133Y-135578899D01*
X102150899Y-135587448D01*
X102105030Y-135783122D01*
X102030811Y-135953334D01*
X101930708Y-136095399D01*
X101807187Y-136206629D01*
X101662715Y-136284338D01*
X101499757Y-136325838D01*
X101470108Y-136329125D01*
X101346000Y-136340379D01*
X101346000Y-136020363D01*
X101414791Y-136005797D01*
X101541229Y-135960020D01*
X101643005Y-135880864D01*
X101721276Y-135767198D01*
X101763460Y-135664167D01*
X101778961Y-135591097D01*
X101790466Y-135485474D01*
X101797997Y-135356645D01*
X101801576Y-135213955D01*
X101801224Y-135066750D01*
X101796963Y-134924377D01*
X101788814Y-134796180D01*
X101776799Y-134691505D01*
X101761043Y-134620000D01*
X101699323Y-134481552D01*
X101618930Y-134380224D01*
X101517018Y-134313872D01*
X101390741Y-134280352D01*
X101303206Y-134275107D01*
X101153275Y-134290135D01*
X101031021Y-134336513D01*
X100933670Y-134416184D01*
X100858446Y-134531090D01*
X100825711Y-134609416D01*
X100808928Y-134681743D01*
X100796309Y-134786980D01*
X100787865Y-134915912D01*
X100783608Y-135059320D01*
X100783550Y-135207985D01*
X100787702Y-135352691D01*
X100796076Y-135484220D01*
X100808682Y-135593354D01*
X100824383Y-135667218D01*
X100880756Y-135792536D01*
X100963089Y-135895189D01*
X101064593Y-135968100D01*
X101140786Y-135997001D01*
X101240166Y-136022025D01*
X101240166Y-136334500D01*
X101150208Y-136333084D01*
X101068198Y-136325152D01*
X100983662Y-136307509D01*
X100971861Y-136304030D01*
X100823616Y-136236127D01*
X100693082Y-136133125D01*
X100584047Y-135999906D01*
X100500300Y-135841348D01*
X100445627Y-135662333D01*
X100436926Y-135614833D01*
X100426186Y-135518050D01*
X100419122Y-135392777D01*
X100415639Y-135249376D01*
X100415640Y-135098211D01*
X100419028Y-134949643D01*
X100425708Y-134814035D01*
X100435583Y-134701751D01*
X100446054Y-134634080D01*
X100505298Y-134436308D01*
X100591973Y-134270645D01*
X100705289Y-134137641D01*
X100844457Y-134037850D01*
X101008689Y-133971823D01*
X101197194Y-133940114D01*
X101409185Y-133943273D01*
X99931572Y-133947275D02*
X99997535Y-133972975D01*
X99997535Y-133972975D02*
X100013041Y-133985541D01*
X100013041Y-133985541D02*
X100022449Y-133995895D01*
X100022449Y-133995895D02*
X100030346Y-134008880D01*
X100030346Y-134008880D02*
X100036844Y-134027983D01*
X100036844Y-134027983D02*
X100042052Y-134056688D01*
X100042052Y-134056688D02*
X100046083Y-134098480D01*
X100046083Y-134098480D02*
X100049046Y-134156846D01*
X100049046Y-134156846D02*
X100051051Y-134235270D01*
X100051051Y-134235270D02*
X100052211Y-134337239D01*
X100052211Y-134337239D02*
X100052636Y-134466237D01*
X100052636Y-134466237D02*
X100052436Y-134625750D01*
X100052436Y-134625750D02*
X100051721Y-134819263D01*
X100051721Y-134819263D02*
X100050604Y-135050262D01*
X100050604Y-135050262D02*
X100050082Y-135151423D01*
X100050082Y-135151423D02*
X100048751Y-135398182D01*
X100048751Y-135398182D02*
X100047442Y-135606050D01*
X100047442Y-135606050D02*
X100046014Y-135778473D01*
X100046014Y-135778473D02*
X100044327Y-135918892D01*
X100044327Y-135918892D02*
X100042241Y-136030751D01*
X100042241Y-136030751D02*
X100039617Y-136117493D01*
X100039617Y-136117493D02*
X100036313Y-136182561D01*
X100036313Y-136182561D02*
X100032191Y-136229399D01*
X100032191Y-136229399D02*
X100027109Y-136261451D01*
X100027109Y-136261451D02*
X100020928Y-136282158D01*
X100020928Y-136282158D02*
X100013507Y-136294964D01*
X100013507Y-136294964D02*
X100004707Y-136303314D01*
X100004707Y-136303314D02*
X100003162Y-136304465D01*
X100003162Y-136304465D02*
X99943815Y-136328229D01*
X99943815Y-136328229D02*
X99866307Y-136335161D01*
X99866307Y-136335161D02*
X99788332Y-136326018D01*
X99788332Y-136326018D02*
X99727584Y-136301560D01*
X99727584Y-136301560D02*
X99716166Y-136292166D01*
X99716166Y-136292166D02*
X99706824Y-136281694D01*
X99706824Y-136281694D02*
X99698967Y-136268200D01*
X99698967Y-136268200D02*
X99692468Y-136248179D01*
X99692468Y-136248179D02*
X99687197Y-136218128D01*
X99687197Y-136218128D02*
X99683026Y-136174545D01*
X99683026Y-136174545D02*
X99679827Y-136113925D01*
X99679827Y-136113925D02*
X99677471Y-136032766D01*
X99677471Y-136032766D02*
X99675829Y-135927564D01*
X99675829Y-135927564D02*
X99674773Y-135794815D01*
X99674773Y-135794815D02*
X99674174Y-135631017D01*
X99674174Y-135631017D02*
X99673904Y-135432665D01*
X99673904Y-135432665D02*
X99673834Y-135196258D01*
X99673834Y-135196258D02*
X99673833Y-135138583D01*
X99673833Y-135138583D02*
X99673876Y-134893300D01*
X99673876Y-134893300D02*
X99674091Y-134686848D01*
X99674091Y-134686848D02*
X99674606Y-134515722D01*
X99674606Y-134515722D02*
X99675550Y-134376419D01*
X99675550Y-134376419D02*
X99677051Y-134265436D01*
X99677051Y-134265436D02*
X99679239Y-134179270D01*
X99679239Y-134179270D02*
X99682241Y-134114417D01*
X99682241Y-134114417D02*
X99686186Y-134067373D01*
X99686186Y-134067373D02*
X99691203Y-134034636D01*
X99691203Y-134034636D02*
X99697420Y-134012702D01*
X99697420Y-134012702D02*
X99704966Y-133998068D01*
X99704966Y-133998068D02*
X99713969Y-133987230D01*
X99713969Y-133987230D02*
X99716166Y-133985000D01*
X99716166Y-133985000D02*
X99773469Y-133953256D01*
X99773469Y-133953256D02*
X99851077Y-133940691D01*
X99851077Y-133940691D02*
X99931572Y-133947275D01*
X99931572Y-133947275D02*
X99931572Y-133947275D01*
G36*
X99931572Y-133947275D02*
G01*
X99997535Y-133972975D01*
X100013041Y-133985541D01*
X100022449Y-133995895D01*
X100030346Y-134008880D01*
X100036844Y-134027983D01*
X100042052Y-134056688D01*
X100046083Y-134098480D01*
X100049046Y-134156846D01*
X100051051Y-134235270D01*
X100052211Y-134337239D01*
X100052636Y-134466237D01*
X100052436Y-134625750D01*
X100051721Y-134819263D01*
X100050604Y-135050262D01*
X100050082Y-135151423D01*
X100048751Y-135398182D01*
X100047442Y-135606050D01*
X100046014Y-135778473D01*
X100044327Y-135918892D01*
X100042241Y-136030751D01*
X100039617Y-136117493D01*
X100036313Y-136182561D01*
X100032191Y-136229399D01*
X100027109Y-136261451D01*
X100020928Y-136282158D01*
X100013507Y-136294964D01*
X100004707Y-136303314D01*
X100003162Y-136304465D01*
X99943815Y-136328229D01*
X99866307Y-136335161D01*
X99788332Y-136326018D01*
X99727584Y-136301560D01*
X99716166Y-136292166D01*
X99706824Y-136281694D01*
X99698967Y-136268200D01*
X99692468Y-136248179D01*
X99687197Y-136218128D01*
X99683026Y-136174545D01*
X99679827Y-136113925D01*
X99677471Y-136032766D01*
X99675829Y-135927564D01*
X99674773Y-135794815D01*
X99674174Y-135631017D01*
X99673904Y-135432665D01*
X99673834Y-135196258D01*
X99673833Y-135138583D01*
X99673876Y-134893300D01*
X99674091Y-134686848D01*
X99674606Y-134515722D01*
X99675550Y-134376419D01*
X99677051Y-134265436D01*
X99679239Y-134179270D01*
X99682241Y-134114417D01*
X99686186Y-134067373D01*
X99691203Y-134034636D01*
X99697420Y-134012702D01*
X99704966Y-133998068D01*
X99713969Y-133987230D01*
X99716166Y-133985000D01*
X99773469Y-133953256D01*
X99851077Y-133940691D01*
X99931572Y-133947275D01*
G37*
X99931572Y-133947275D02*
X99997535Y-133972975D01*
X100013041Y-133985541D01*
X100022449Y-133995895D01*
X100030346Y-134008880D01*
X100036844Y-134027983D01*
X100042052Y-134056688D01*
X100046083Y-134098480D01*
X100049046Y-134156846D01*
X100051051Y-134235270D01*
X100052211Y-134337239D01*
X100052636Y-134466237D01*
X100052436Y-134625750D01*
X100051721Y-134819263D01*
X100050604Y-135050262D01*
X100050082Y-135151423D01*
X100048751Y-135398182D01*
X100047442Y-135606050D01*
X100046014Y-135778473D01*
X100044327Y-135918892D01*
X100042241Y-136030751D01*
X100039617Y-136117493D01*
X100036313Y-136182561D01*
X100032191Y-136229399D01*
X100027109Y-136261451D01*
X100020928Y-136282158D01*
X100013507Y-136294964D01*
X100004707Y-136303314D01*
X100003162Y-136304465D01*
X99943815Y-136328229D01*
X99866307Y-136335161D01*
X99788332Y-136326018D01*
X99727584Y-136301560D01*
X99716166Y-136292166D01*
X99706824Y-136281694D01*
X99698967Y-136268200D01*
X99692468Y-136248179D01*
X99687197Y-136218128D01*
X99683026Y-136174545D01*
X99679827Y-136113925D01*
X99677471Y-136032766D01*
X99675829Y-135927564D01*
X99674773Y-135794815D01*
X99674174Y-135631017D01*
X99673904Y-135432665D01*
X99673834Y-135196258D01*
X99673833Y-135138583D01*
X99673876Y-134893300D01*
X99674091Y-134686848D01*
X99674606Y-134515722D01*
X99675550Y-134376419D01*
X99677051Y-134265436D01*
X99679239Y-134179270D01*
X99682241Y-134114417D01*
X99686186Y-134067373D01*
X99691203Y-134034636D01*
X99697420Y-134012702D01*
X99704966Y-133998068D01*
X99713969Y-133987230D01*
X99716166Y-133985000D01*
X99773469Y-133953256D01*
X99851077Y-133940691D01*
X99931572Y-133947275D01*
X96408577Y-133944043D02*
X96477397Y-133953826D01*
X96477397Y-133953826D02*
X96524176Y-133971816D01*
X96524176Y-133971816D02*
X96529071Y-133975928D01*
X96529071Y-133975928D02*
X96537137Y-133988002D01*
X96537137Y-133988002D02*
X96543807Y-134009090D01*
X96543807Y-134009090D02*
X96549209Y-134042913D01*
X96549209Y-134042913D02*
X96553472Y-134093191D01*
X96553472Y-134093191D02*
X96556724Y-134163643D01*
X96556724Y-134163643D02*
X96559095Y-134257991D01*
X96559095Y-134257991D02*
X96560712Y-134379955D01*
X96560712Y-134379955D02*
X96561705Y-134533255D01*
X96561705Y-134533255D02*
X96562203Y-134721612D01*
X96562203Y-134721612D02*
X96562333Y-134937831D01*
X96562333Y-134937831D02*
X96562333Y-135866472D01*
X96562333Y-135866472D02*
X96664411Y-135985250D01*
X96664411Y-135985250D02*
X97063164Y-135990776D01*
X97063164Y-135990776D02*
X97191890Y-135993082D01*
X97191890Y-135993082D02*
X97308538Y-135996148D01*
X97308538Y-135996148D02*
X97405497Y-135999699D01*
X97405497Y-135999699D02*
X97475158Y-136003455D01*
X97475158Y-136003455D02*
X97509541Y-136007054D01*
X97509541Y-136007054D02*
X97536447Y-136017552D01*
X97536447Y-136017552D02*
X97550778Y-136040735D01*
X97550778Y-136040735D02*
X97556379Y-136087484D01*
X97556379Y-136087484D02*
X97557166Y-136141811D01*
X97557166Y-136141811D02*
X97551971Y-136228404D01*
X97551971Y-136228404D02*
X97535498Y-136279932D01*
X97535498Y-136279932D02*
X97524008Y-136293335D01*
X97524008Y-136293335D02*
X97492004Y-136302884D01*
X97492004Y-136302884D02*
X97425612Y-136311222D01*
X97425612Y-136311222D02*
X97332762Y-136318170D01*
X97332762Y-136318170D02*
X97221388Y-136323551D01*
X97221388Y-136323551D02*
X97099420Y-136327188D01*
X97099420Y-136327188D02*
X96974792Y-136328904D01*
X96974792Y-136328904D02*
X96855434Y-136328521D01*
X96855434Y-136328521D02*
X96749279Y-136325861D01*
X96749279Y-136325861D02*
X96664258Y-136320748D01*
X96664258Y-136320748D02*
X96611575Y-136313736D01*
X96611575Y-136313736D02*
X96488399Y-136274473D01*
X96488399Y-136274473D02*
X96386949Y-136209797D01*
X96386949Y-136209797D02*
X96335691Y-136161602D01*
X96335691Y-136161602D02*
X96305818Y-136129594D01*
X96305818Y-136129594D02*
X96280782Y-136098511D01*
X96280782Y-136098511D02*
X96260156Y-136064464D01*
X96260156Y-136064464D02*
X96243513Y-136023569D01*
X96243513Y-136023569D02*
X96230425Y-135971940D01*
X96230425Y-135971940D02*
X96220467Y-135905689D01*
X96220467Y-135905689D02*
X96213209Y-135820931D01*
X96213209Y-135820931D02*
X96208227Y-135713779D01*
X96208227Y-135713779D02*
X96205092Y-135580348D01*
X96205092Y-135580348D02*
X96203377Y-135416751D01*
X96203377Y-135416751D02*
X96202656Y-135219102D01*
X96202656Y-135219102D02*
X96202500Y-134983514D01*
X96202500Y-134983514D02*
X96202500Y-134949655D01*
X96202500Y-134949655D02*
X96202800Y-134706945D01*
X96202800Y-134706945D02*
X96203747Y-134503899D01*
X96203747Y-134503899D02*
X96205410Y-134337852D01*
X96205410Y-134337852D02*
X96207858Y-134206140D01*
X96207858Y-134206140D02*
X96211160Y-134106096D01*
X96211160Y-134106096D02*
X96215384Y-134035057D01*
X96215384Y-134035057D02*
X96220600Y-133990356D01*
X96220600Y-133990356D02*
X96226876Y-133969329D01*
X96226876Y-133969329D02*
X96227899Y-133968066D01*
X96227899Y-133968066D02*
X96268026Y-133950751D01*
X96268026Y-133950751D02*
X96333519Y-133942881D01*
X96333519Y-133942881D02*
X96408577Y-133944043D01*
X96408577Y-133944043D02*
X96408577Y-133944043D01*
G36*
X96408577Y-133944043D02*
G01*
X96477397Y-133953826D01*
X96524176Y-133971816D01*
X96529071Y-133975928D01*
X96537137Y-133988002D01*
X96543807Y-134009090D01*
X96549209Y-134042913D01*
X96553472Y-134093191D01*
X96556724Y-134163643D01*
X96559095Y-134257991D01*
X96560712Y-134379955D01*
X96561705Y-134533255D01*
X96562203Y-134721612D01*
X96562333Y-134937831D01*
X96562333Y-135866472D01*
X96664411Y-135985250D01*
X97063164Y-135990776D01*
X97191890Y-135993082D01*
X97308538Y-135996148D01*
X97405497Y-135999699D01*
X97475158Y-136003455D01*
X97509541Y-136007054D01*
X97536447Y-136017552D01*
X97550778Y-136040735D01*
X97556379Y-136087484D01*
X97557166Y-136141811D01*
X97551971Y-136228404D01*
X97535498Y-136279932D01*
X97524008Y-136293335D01*
X97492004Y-136302884D01*
X97425612Y-136311222D01*
X97332762Y-136318170D01*
X97221388Y-136323551D01*
X97099420Y-136327188D01*
X96974792Y-136328904D01*
X96855434Y-136328521D01*
X96749279Y-136325861D01*
X96664258Y-136320748D01*
X96611575Y-136313736D01*
X96488399Y-136274473D01*
X96386949Y-136209797D01*
X96335691Y-136161602D01*
X96305818Y-136129594D01*
X96280782Y-136098511D01*
X96260156Y-136064464D01*
X96243513Y-136023569D01*
X96230425Y-135971940D01*
X96220467Y-135905689D01*
X96213209Y-135820931D01*
X96208227Y-135713779D01*
X96205092Y-135580348D01*
X96203377Y-135416751D01*
X96202656Y-135219102D01*
X96202500Y-134983514D01*
X96202500Y-134949655D01*
X96202800Y-134706945D01*
X96203747Y-134503899D01*
X96205410Y-134337852D01*
X96207858Y-134206140D01*
X96211160Y-134106096D01*
X96215384Y-134035057D01*
X96220600Y-133990356D01*
X96226876Y-133969329D01*
X96227899Y-133968066D01*
X96268026Y-133950751D01*
X96333519Y-133942881D01*
X96408577Y-133944043D01*
G37*
X96408577Y-133944043D02*
X96477397Y-133953826D01*
X96524176Y-133971816D01*
X96529071Y-133975928D01*
X96537137Y-133988002D01*
X96543807Y-134009090D01*
X96549209Y-134042913D01*
X96553472Y-134093191D01*
X96556724Y-134163643D01*
X96559095Y-134257991D01*
X96560712Y-134379955D01*
X96561705Y-134533255D01*
X96562203Y-134721612D01*
X96562333Y-134937831D01*
X96562333Y-135866472D01*
X96664411Y-135985250D01*
X97063164Y-135990776D01*
X97191890Y-135993082D01*
X97308538Y-135996148D01*
X97405497Y-135999699D01*
X97475158Y-136003455D01*
X97509541Y-136007054D01*
X97536447Y-136017552D01*
X97550778Y-136040735D01*
X97556379Y-136087484D01*
X97557166Y-136141811D01*
X97551971Y-136228404D01*
X97535498Y-136279932D01*
X97524008Y-136293335D01*
X97492004Y-136302884D01*
X97425612Y-136311222D01*
X97332762Y-136318170D01*
X97221388Y-136323551D01*
X97099420Y-136327188D01*
X96974792Y-136328904D01*
X96855434Y-136328521D01*
X96749279Y-136325861D01*
X96664258Y-136320748D01*
X96611575Y-136313736D01*
X96488399Y-136274473D01*
X96386949Y-136209797D01*
X96335691Y-136161602D01*
X96305818Y-136129594D01*
X96280782Y-136098511D01*
X96260156Y-136064464D01*
X96243513Y-136023569D01*
X96230425Y-135971940D01*
X96220467Y-135905689D01*
X96213209Y-135820931D01*
X96208227Y-135713779D01*
X96205092Y-135580348D01*
X96203377Y-135416751D01*
X96202656Y-135219102D01*
X96202500Y-134983514D01*
X96202500Y-134949655D01*
X96202800Y-134706945D01*
X96203747Y-134503899D01*
X96205410Y-134337852D01*
X96207858Y-134206140D01*
X96211160Y-134106096D01*
X96215384Y-134035057D01*
X96220600Y-133990356D01*
X96226876Y-133969329D01*
X96227899Y-133968066D01*
X96268026Y-133950751D01*
X96333519Y-133942881D01*
X96408577Y-133944043D01*
X95352824Y-133936677D02*
X95520121Y-133939757D01*
X95520121Y-133939757D02*
X95646573Y-133944841D01*
X95646573Y-133944841D02*
X95733624Y-133952026D01*
X95733624Y-133952026D02*
X95782720Y-133961411D01*
X95782720Y-133961411D02*
X95792955Y-133966493D01*
X95792955Y-133966493D02*
X95811385Y-133999045D01*
X95811385Y-133999045D02*
X95818301Y-134060773D01*
X95818301Y-134060773D02*
X95817131Y-134120649D01*
X95817131Y-134120649D02*
X95810916Y-134249583D01*
X95810916Y-134249583D02*
X95383811Y-134260166D01*
X95383811Y-134260166D02*
X95213808Y-134264782D01*
X95213808Y-134264782D02*
X95081373Y-134271662D01*
X95081373Y-134271662D02*
X94981769Y-134284508D01*
X94981769Y-134284508D02*
X94910256Y-134307024D01*
X94910256Y-134307024D02*
X94862094Y-134342910D01*
X94862094Y-134342910D02*
X94832545Y-134395870D01*
X94832545Y-134395870D02*
X94816868Y-134469605D01*
X94816868Y-134469605D02*
X94810324Y-134567817D01*
X94810324Y-134567817D02*
X94808175Y-134694209D01*
X94808175Y-134694209D02*
X94808004Y-134709958D01*
X94808004Y-134709958D02*
X94805500Y-134937500D01*
X94805500Y-134937500D02*
X95288099Y-134937500D01*
X95288099Y-134937500D02*
X95460819Y-134938263D01*
X95460819Y-134938263D02*
X95594311Y-134940654D01*
X95594311Y-134940654D02*
X95691656Y-134944829D01*
X95691656Y-134944829D02*
X95755936Y-134950941D01*
X95755936Y-134950941D02*
X95790230Y-134959143D01*
X95790230Y-134959143D02*
X95796099Y-134962900D01*
X95796099Y-134962900D02*
X95811298Y-134998126D01*
X95811298Y-134998126D02*
X95820372Y-135057833D01*
X95820372Y-135057833D02*
X95821500Y-135088388D01*
X95821500Y-135088388D02*
X95820797Y-135139188D01*
X95820797Y-135139188D02*
X95815467Y-135178445D01*
X95815467Y-135178445D02*
X95800678Y-135207647D01*
X95800678Y-135207647D02*
X95771595Y-135228281D01*
X95771595Y-135228281D02*
X95723385Y-135241835D01*
X95723385Y-135241835D02*
X95651216Y-135249796D01*
X95651216Y-135249796D02*
X95550255Y-135253652D01*
X95550255Y-135253652D02*
X95415667Y-135254892D01*
X95415667Y-135254892D02*
X95280238Y-135255000D01*
X95280238Y-135255000D02*
X94805500Y-135255000D01*
X94805500Y-135255000D02*
X94808004Y-135524875D01*
X94808004Y-135524875D02*
X94810226Y-135662039D01*
X94810226Y-135662039D02*
X94814906Y-135763752D01*
X94814906Y-135763752D02*
X94823443Y-135836881D01*
X94823443Y-135836881D02*
X94837237Y-135888295D01*
X94837237Y-135888295D02*
X94857684Y-135924862D01*
X94857684Y-135924862D02*
X94886184Y-135953451D01*
X94886184Y-135953451D02*
X94896978Y-135961846D01*
X94896978Y-135961846D02*
X94920413Y-135977151D01*
X94920413Y-135977151D02*
X94948313Y-135988789D01*
X94948313Y-135988789D02*
X94986925Y-135997468D01*
X94986925Y-135997468D02*
X95042492Y-136003895D01*
X95042492Y-136003895D02*
X95121260Y-136008778D01*
X95121260Y-136008778D02*
X95229472Y-136012824D01*
X95229472Y-136012824D02*
X95373374Y-136016740D01*
X95373374Y-136016740D02*
X95383811Y-136017000D01*
X95383811Y-136017000D02*
X95810916Y-136027583D01*
X95810916Y-136027583D02*
X95817131Y-136156517D01*
X95817131Y-136156517D02*
X95816629Y-136245384D01*
X95816629Y-136245384D02*
X95804299Y-136297079D01*
X95804299Y-136297079D02*
X95794954Y-136309013D01*
X95794954Y-136309013D02*
X95763128Y-136318538D01*
X95763128Y-136318538D02*
X95697126Y-136327004D01*
X95697126Y-136327004D02*
X95605100Y-136334178D01*
X95605100Y-136334178D02*
X95495200Y-136339831D01*
X95495200Y-136339831D02*
X95375576Y-136343731D01*
X95375576Y-136343731D02*
X95254379Y-136345646D01*
X95254379Y-136345646D02*
X95139758Y-136345346D01*
X95139758Y-136345346D02*
X95039865Y-136342600D01*
X95039865Y-136342600D02*
X94962850Y-136337175D01*
X94962850Y-136337175D02*
X94935483Y-136333390D01*
X94935483Y-136333390D02*
X94777490Y-136287856D01*
X94777490Y-136287856D02*
X94648393Y-136214210D01*
X94648393Y-136214210D02*
X94550378Y-136114364D01*
X94550378Y-136114364D02*
X94485629Y-135990230D01*
X94485629Y-135990230D02*
X94467169Y-135923370D01*
X94467169Y-135923370D02*
X94459385Y-135860217D01*
X94459385Y-135860217D02*
X94453671Y-135755619D01*
X94453671Y-135755619D02*
X94450024Y-135609387D01*
X94450024Y-135609387D02*
X94448440Y-135421334D01*
X94448440Y-135421334D02*
X94448916Y-135191271D01*
X94448916Y-135191271D02*
X94449828Y-135070969D01*
X94449828Y-135070969D02*
X94451962Y-134858471D01*
X94451962Y-134858471D02*
X94454665Y-134683793D01*
X94454665Y-134683793D02*
X94458722Y-134542422D01*
X94458722Y-134542422D02*
X94464917Y-134429843D01*
X94464917Y-134429843D02*
X94474035Y-134341544D01*
X94474035Y-134341544D02*
X94486860Y-134273012D01*
X94486860Y-134273012D02*
X94504176Y-134219733D01*
X94504176Y-134219733D02*
X94526767Y-134177193D01*
X94526767Y-134177193D02*
X94555418Y-134140881D01*
X94555418Y-134140881D02*
X94590913Y-134106281D01*
X94590913Y-134106281D02*
X94622215Y-134078984D01*
X94622215Y-134078984D02*
X94683057Y-134032049D01*
X94683057Y-134032049D02*
X94746447Y-133996071D01*
X94746447Y-133996071D02*
X94818860Y-133969791D01*
X94818860Y-133969791D02*
X94906769Y-133951948D01*
X94906769Y-133951948D02*
X95016651Y-133941279D01*
X95016651Y-133941279D02*
X95154978Y-133936525D01*
X95154978Y-133936525D02*
X95328227Y-133936424D01*
X95328227Y-133936424D02*
X95352824Y-133936677D01*
X95352824Y-133936677D02*
X95352824Y-133936677D01*
G36*
X95352824Y-133936677D02*
G01*
X95520121Y-133939757D01*
X95646573Y-133944841D01*
X95733624Y-133952026D01*
X95782720Y-133961411D01*
X95792955Y-133966493D01*
X95811385Y-133999045D01*
X95818301Y-134060773D01*
X95817131Y-134120649D01*
X95810916Y-134249583D01*
X95383811Y-134260166D01*
X95213808Y-134264782D01*
X95081373Y-134271662D01*
X94981769Y-134284508D01*
X94910256Y-134307024D01*
X94862094Y-134342910D01*
X94832545Y-134395870D01*
X94816868Y-134469605D01*
X94810324Y-134567817D01*
X94808175Y-134694209D01*
X94808004Y-134709958D01*
X94805500Y-134937500D01*
X95288099Y-134937500D01*
X95460819Y-134938263D01*
X95594311Y-134940654D01*
X95691656Y-134944829D01*
X95755936Y-134950941D01*
X95790230Y-134959143D01*
X95796099Y-134962900D01*
X95811298Y-134998126D01*
X95820372Y-135057833D01*
X95821500Y-135088388D01*
X95820797Y-135139188D01*
X95815467Y-135178445D01*
X95800678Y-135207647D01*
X95771595Y-135228281D01*
X95723385Y-135241835D01*
X95651216Y-135249796D01*
X95550255Y-135253652D01*
X95415667Y-135254892D01*
X95280238Y-135255000D01*
X94805500Y-135255000D01*
X94808004Y-135524875D01*
X94810226Y-135662039D01*
X94814906Y-135763752D01*
X94823443Y-135836881D01*
X94837237Y-135888295D01*
X94857684Y-135924862D01*
X94886184Y-135953451D01*
X94896978Y-135961846D01*
X94920413Y-135977151D01*
X94948313Y-135988789D01*
X94986925Y-135997468D01*
X95042492Y-136003895D01*
X95121260Y-136008778D01*
X95229472Y-136012824D01*
X95373374Y-136016740D01*
X95383811Y-136017000D01*
X95810916Y-136027583D01*
X95817131Y-136156517D01*
X95816629Y-136245384D01*
X95804299Y-136297079D01*
X95794954Y-136309013D01*
X95763128Y-136318538D01*
X95697126Y-136327004D01*
X95605100Y-136334178D01*
X95495200Y-136339831D01*
X95375576Y-136343731D01*
X95254379Y-136345646D01*
X95139758Y-136345346D01*
X95039865Y-136342600D01*
X94962850Y-136337175D01*
X94935483Y-136333390D01*
X94777490Y-136287856D01*
X94648393Y-136214210D01*
X94550378Y-136114364D01*
X94485629Y-135990230D01*
X94467169Y-135923370D01*
X94459385Y-135860217D01*
X94453671Y-135755619D01*
X94450024Y-135609387D01*
X94448440Y-135421334D01*
X94448916Y-135191271D01*
X94449828Y-135070969D01*
X94451962Y-134858471D01*
X94454665Y-134683793D01*
X94458722Y-134542422D01*
X94464917Y-134429843D01*
X94474035Y-134341544D01*
X94486860Y-134273012D01*
X94504176Y-134219733D01*
X94526767Y-134177193D01*
X94555418Y-134140881D01*
X94590913Y-134106281D01*
X94622215Y-134078984D01*
X94683057Y-134032049D01*
X94746447Y-133996071D01*
X94818860Y-133969791D01*
X94906769Y-133951948D01*
X95016651Y-133941279D01*
X95154978Y-133936525D01*
X95328227Y-133936424D01*
X95352824Y-133936677D01*
G37*
X95352824Y-133936677D02*
X95520121Y-133939757D01*
X95646573Y-133944841D01*
X95733624Y-133952026D01*
X95782720Y-133961411D01*
X95792955Y-133966493D01*
X95811385Y-133999045D01*
X95818301Y-134060773D01*
X95817131Y-134120649D01*
X95810916Y-134249583D01*
X95383811Y-134260166D01*
X95213808Y-134264782D01*
X95081373Y-134271662D01*
X94981769Y-134284508D01*
X94910256Y-134307024D01*
X94862094Y-134342910D01*
X94832545Y-134395870D01*
X94816868Y-134469605D01*
X94810324Y-134567817D01*
X94808175Y-134694209D01*
X94808004Y-134709958D01*
X94805500Y-134937500D01*
X95288099Y-134937500D01*
X95460819Y-134938263D01*
X95594311Y-134940654D01*
X95691656Y-134944829D01*
X95755936Y-134950941D01*
X95790230Y-134959143D01*
X95796099Y-134962900D01*
X95811298Y-134998126D01*
X95820372Y-135057833D01*
X95821500Y-135088388D01*
X95820797Y-135139188D01*
X95815467Y-135178445D01*
X95800678Y-135207647D01*
X95771595Y-135228281D01*
X95723385Y-135241835D01*
X95651216Y-135249796D01*
X95550255Y-135253652D01*
X95415667Y-135254892D01*
X95280238Y-135255000D01*
X94805500Y-135255000D01*
X94808004Y-135524875D01*
X94810226Y-135662039D01*
X94814906Y-135763752D01*
X94823443Y-135836881D01*
X94837237Y-135888295D01*
X94857684Y-135924862D01*
X94886184Y-135953451D01*
X94896978Y-135961846D01*
X94920413Y-135977151D01*
X94948313Y-135988789D01*
X94986925Y-135997468D01*
X95042492Y-136003895D01*
X95121260Y-136008778D01*
X95229472Y-136012824D01*
X95373374Y-136016740D01*
X95383811Y-136017000D01*
X95810916Y-136027583D01*
X95817131Y-136156517D01*
X95816629Y-136245384D01*
X95804299Y-136297079D01*
X95794954Y-136309013D01*
X95763128Y-136318538D01*
X95697126Y-136327004D01*
X95605100Y-136334178D01*
X95495200Y-136339831D01*
X95375576Y-136343731D01*
X95254379Y-136345646D01*
X95139758Y-136345346D01*
X95039865Y-136342600D01*
X94962850Y-136337175D01*
X94935483Y-136333390D01*
X94777490Y-136287856D01*
X94648393Y-136214210D01*
X94550378Y-136114364D01*
X94485629Y-135990230D01*
X94467169Y-135923370D01*
X94459385Y-135860217D01*
X94453671Y-135755619D01*
X94450024Y-135609387D01*
X94448440Y-135421334D01*
X94448916Y-135191271D01*
X94449828Y-135070969D01*
X94451962Y-134858471D01*
X94454665Y-134683793D01*
X94458722Y-134542422D01*
X94464917Y-134429843D01*
X94474035Y-134341544D01*
X94486860Y-134273012D01*
X94504176Y-134219733D01*
X94526767Y-134177193D01*
X94555418Y-134140881D01*
X94590913Y-134106281D01*
X94622215Y-134078984D01*
X94683057Y-134032049D01*
X94746447Y-133996071D01*
X94818860Y-133969791D01*
X94906769Y-133951948D01*
X95016651Y-133941279D01*
X95154978Y-133936525D01*
X95328227Y-133936424D01*
X95352824Y-133936677D01*
X195293132Y-101998942D02*
X195324902Y-102051137D01*
X195324902Y-102051137D02*
X195374939Y-102135136D01*
X195374939Y-102135136D02*
X195441827Y-102248490D01*
X195441827Y-102248490D02*
X195524152Y-102388752D01*
X195524152Y-102388752D02*
X195620497Y-102553471D01*
X195620497Y-102553471D02*
X195729447Y-102740200D01*
X195729447Y-102740200D02*
X195849587Y-102946489D01*
X195849587Y-102946489D02*
X195979500Y-103169891D01*
X195979500Y-103169891D02*
X196117772Y-103407957D01*
X196117772Y-103407957D02*
X196262987Y-103658238D01*
X196262987Y-103658238D02*
X196413729Y-103918285D01*
X196413729Y-103918285D02*
X196568583Y-104185651D01*
X196568583Y-104185651D02*
X196726133Y-104457885D01*
X196726133Y-104457885D02*
X196884964Y-104732541D01*
X196884964Y-104732541D02*
X197043660Y-105007168D01*
X197043660Y-105007168D02*
X197200805Y-105279319D01*
X197200805Y-105279319D02*
X197354985Y-105546544D01*
X197354985Y-105546544D02*
X197504783Y-105806396D01*
X197504783Y-105806396D02*
X197648785Y-106056425D01*
X197648785Y-106056425D02*
X197785573Y-106294184D01*
X197785573Y-106294184D02*
X197913734Y-106517223D01*
X197913734Y-106517223D02*
X198031851Y-106723094D01*
X198031851Y-106723094D02*
X198138509Y-106909348D01*
X198138509Y-106909348D02*
X198232292Y-107073536D01*
X198232292Y-107073536D02*
X198311786Y-107213211D01*
X198311786Y-107213211D02*
X198375573Y-107325923D01*
X198375573Y-107325923D02*
X198422239Y-107409223D01*
X198422239Y-107409223D02*
X198450368Y-107460664D01*
X198450368Y-107460664D02*
X198458666Y-107477677D01*
X198458666Y-107477677D02*
X198440684Y-107490574D01*
X198440684Y-107490574D02*
X198388210Y-107523277D01*
X198388210Y-107523277D02*
X198303454Y-107574492D01*
X198303454Y-107574492D02*
X198188623Y-107642925D01*
X198188623Y-107642925D02*
X198045927Y-107727282D01*
X198045927Y-107727282D02*
X197877574Y-107826270D01*
X197877574Y-107826270D02*
X197685774Y-107938596D01*
X197685774Y-107938596D02*
X197472735Y-108062964D01*
X197472735Y-108062964D02*
X197240665Y-108198082D01*
X197240665Y-108198082D02*
X196991775Y-108342656D01*
X196991775Y-108342656D02*
X196728272Y-108495392D01*
X196728272Y-108495392D02*
X196452365Y-108654996D01*
X196452365Y-108654996D02*
X196188541Y-108807325D01*
X196188541Y-108807325D02*
X195902244Y-108972503D01*
X195902244Y-108972503D02*
X195625652Y-109132123D01*
X195625652Y-109132123D02*
X195361030Y-109284876D01*
X195361030Y-109284876D02*
X195110645Y-109429450D01*
X195110645Y-109429450D02*
X194876764Y-109564537D01*
X194876764Y-109564537D02*
X194661653Y-109688825D01*
X194661653Y-109688825D02*
X194467579Y-109801006D01*
X194467579Y-109801006D02*
X194296808Y-109899768D01*
X194296808Y-109899768D02*
X194151608Y-109983801D01*
X194151608Y-109983801D02*
X194034244Y-110051797D01*
X194034244Y-110051797D02*
X193946984Y-110102443D01*
X193946984Y-110102443D02*
X193892093Y-110134430D01*
X193892093Y-110134430D02*
X193872249Y-110146178D01*
X193872249Y-110146178D02*
X193836031Y-110163297D01*
X193836031Y-110163297D02*
X193811481Y-110150022D01*
X193811481Y-110150022D02*
X193795022Y-110126354D01*
X193795022Y-110126354D02*
X193771535Y-110087574D01*
X193771535Y-110087574D02*
X193729231Y-110015902D01*
X193729231Y-110015902D02*
X193669530Y-109913808D01*
X193669530Y-109913808D02*
X193593851Y-109783762D01*
X193593851Y-109783762D02*
X193503614Y-109628234D01*
X193503614Y-109628234D02*
X193400239Y-109449695D01*
X193400239Y-109449695D02*
X193285144Y-109250615D01*
X193285144Y-109250615D02*
X193159750Y-109033463D01*
X193159750Y-109033463D02*
X193025477Y-108800712D01*
X193025477Y-108800712D02*
X192883742Y-108554829D01*
X192883742Y-108554829D02*
X192735968Y-108298287D01*
X192735968Y-108298287D02*
X192583572Y-108033554D01*
X192583572Y-108033554D02*
X192427974Y-107763102D01*
X192427974Y-107763102D02*
X192270594Y-107489400D01*
X192270594Y-107489400D02*
X192112852Y-107214919D01*
X192112852Y-107214919D02*
X191956167Y-106942129D01*
X191956167Y-106942129D02*
X191801959Y-106673500D01*
X191801959Y-106673500D02*
X191651647Y-106411503D01*
X191651647Y-106411503D02*
X191506650Y-106158607D01*
X191506650Y-106158607D02*
X191368389Y-105917283D01*
X191368389Y-105917283D02*
X191238283Y-105690001D01*
X191238283Y-105690001D02*
X191117751Y-105479232D01*
X191117751Y-105479232D02*
X191008213Y-105287445D01*
X191008213Y-105287445D02*
X190911089Y-105117111D01*
X190911089Y-105117111D02*
X190827798Y-104970700D01*
X190827798Y-104970700D02*
X190759760Y-104850682D01*
X190759760Y-104850682D02*
X190708394Y-104759528D01*
X190708394Y-104759528D02*
X190675119Y-104699707D01*
X190675119Y-104699707D02*
X190661356Y-104673691D01*
X190661356Y-104673691D02*
X190661060Y-104672832D01*
X190661060Y-104672832D02*
X190678984Y-104657298D01*
X190678984Y-104657298D02*
X190733086Y-104621289D01*
X190733086Y-104621289D02*
X190822707Y-104565196D01*
X190822707Y-104565196D02*
X190947190Y-104489407D01*
X190947190Y-104489407D02*
X191105877Y-104394311D01*
X191105877Y-104394311D02*
X191298109Y-104280298D01*
X191298109Y-104280298D02*
X191523230Y-104147757D01*
X191523230Y-104147757D02*
X191780582Y-103997076D01*
X191780582Y-103997076D02*
X192069506Y-103828646D01*
X192069506Y-103828646D02*
X192389345Y-103642856D01*
X192389345Y-103642856D02*
X192739440Y-103440094D01*
X192739440Y-103440094D02*
X192962180Y-103311358D01*
X192962180Y-103311358D02*
X193249815Y-103145302D01*
X193249815Y-103145302D02*
X193527333Y-102985224D01*
X193527333Y-102985224D02*
X193792527Y-102832388D01*
X193792527Y-102832388D02*
X194043188Y-102688062D01*
X194043188Y-102688062D02*
X194277111Y-102553511D01*
X194277111Y-102553511D02*
X194492088Y-102430003D01*
X194492088Y-102430003D02*
X194685910Y-102318803D01*
X194685910Y-102318803D02*
X194856372Y-102221178D01*
X194856372Y-102221178D02*
X195001265Y-102138395D01*
X195001265Y-102138395D02*
X195118382Y-102071719D01*
X195118382Y-102071719D02*
X195205516Y-102022418D01*
X195205516Y-102022418D02*
X195260459Y-101991757D01*
X195260459Y-101991757D02*
X195281004Y-101981003D01*
X195281004Y-101981003D02*
X195281045Y-101981000D01*
X195281045Y-101981000D02*
X195293132Y-101998942D01*
X195293132Y-101998942D02*
X195293132Y-101998942D01*
G36*
X195293132Y-101998942D02*
G01*
X195324902Y-102051137D01*
X195374939Y-102135136D01*
X195441827Y-102248490D01*
X195524152Y-102388752D01*
X195620497Y-102553471D01*
X195729447Y-102740200D01*
X195849587Y-102946489D01*
X195979500Y-103169891D01*
X196117772Y-103407957D01*
X196262987Y-103658238D01*
X196413729Y-103918285D01*
X196568583Y-104185651D01*
X196726133Y-104457885D01*
X196884964Y-104732541D01*
X197043660Y-105007168D01*
X197200805Y-105279319D01*
X197354985Y-105546544D01*
X197504783Y-105806396D01*
X197648785Y-106056425D01*
X197785573Y-106294184D01*
X197913734Y-106517223D01*
X198031851Y-106723094D01*
X198138509Y-106909348D01*
X198232292Y-107073536D01*
X198311786Y-107213211D01*
X198375573Y-107325923D01*
X198422239Y-107409223D01*
X198450368Y-107460664D01*
X198458666Y-107477677D01*
X198440684Y-107490574D01*
X198388210Y-107523277D01*
X198303454Y-107574492D01*
X198188623Y-107642925D01*
X198045927Y-107727282D01*
X197877574Y-107826270D01*
X197685774Y-107938596D01*
X197472735Y-108062964D01*
X197240665Y-108198082D01*
X196991775Y-108342656D01*
X196728272Y-108495392D01*
X196452365Y-108654996D01*
X196188541Y-108807325D01*
X195902244Y-108972503D01*
X195625652Y-109132123D01*
X195361030Y-109284876D01*
X195110645Y-109429450D01*
X194876764Y-109564537D01*
X194661653Y-109688825D01*
X194467579Y-109801006D01*
X194296808Y-109899768D01*
X194151608Y-109983801D01*
X194034244Y-110051797D01*
X193946984Y-110102443D01*
X193892093Y-110134430D01*
X193872249Y-110146178D01*
X193836031Y-110163297D01*
X193811481Y-110150022D01*
X193795022Y-110126354D01*
X193771535Y-110087574D01*
X193729231Y-110015902D01*
X193669530Y-109913808D01*
X193593851Y-109783762D01*
X193503614Y-109628234D01*
X193400239Y-109449695D01*
X193285144Y-109250615D01*
X193159750Y-109033463D01*
X193025477Y-108800712D01*
X192883742Y-108554829D01*
X192735968Y-108298287D01*
X192583572Y-108033554D01*
X192427974Y-107763102D01*
X192270594Y-107489400D01*
X192112852Y-107214919D01*
X191956167Y-106942129D01*
X191801959Y-106673500D01*
X191651647Y-106411503D01*
X191506650Y-106158607D01*
X191368389Y-105917283D01*
X191238283Y-105690001D01*
X191117751Y-105479232D01*
X191008213Y-105287445D01*
X190911089Y-105117111D01*
X190827798Y-104970700D01*
X190759760Y-104850682D01*
X190708394Y-104759528D01*
X190675119Y-104699707D01*
X190661356Y-104673691D01*
X190661060Y-104672832D01*
X190678984Y-104657298D01*
X190733086Y-104621289D01*
X190822707Y-104565196D01*
X190947190Y-104489407D01*
X191105877Y-104394311D01*
X191298109Y-104280298D01*
X191523230Y-104147757D01*
X191780582Y-103997076D01*
X192069506Y-103828646D01*
X192389345Y-103642856D01*
X192739440Y-103440094D01*
X192962180Y-103311358D01*
X193249815Y-103145302D01*
X193527333Y-102985224D01*
X193792527Y-102832388D01*
X194043188Y-102688062D01*
X194277111Y-102553511D01*
X194492088Y-102430003D01*
X194685910Y-102318803D01*
X194856372Y-102221178D01*
X195001265Y-102138395D01*
X195118382Y-102071719D01*
X195205516Y-102022418D01*
X195260459Y-101991757D01*
X195281004Y-101981003D01*
X195281045Y-101981000D01*
X195293132Y-101998942D01*
G37*
X195293132Y-101998942D02*
X195324902Y-102051137D01*
X195374939Y-102135136D01*
X195441827Y-102248490D01*
X195524152Y-102388752D01*
X195620497Y-102553471D01*
X195729447Y-102740200D01*
X195849587Y-102946489D01*
X195979500Y-103169891D01*
X196117772Y-103407957D01*
X196262987Y-103658238D01*
X196413729Y-103918285D01*
X196568583Y-104185651D01*
X196726133Y-104457885D01*
X196884964Y-104732541D01*
X197043660Y-105007168D01*
X197200805Y-105279319D01*
X197354985Y-105546544D01*
X197504783Y-105806396D01*
X197648785Y-106056425D01*
X197785573Y-106294184D01*
X197913734Y-106517223D01*
X198031851Y-106723094D01*
X198138509Y-106909348D01*
X198232292Y-107073536D01*
X198311786Y-107213211D01*
X198375573Y-107325923D01*
X198422239Y-107409223D01*
X198450368Y-107460664D01*
X198458666Y-107477677D01*
X198440684Y-107490574D01*
X198388210Y-107523277D01*
X198303454Y-107574492D01*
X198188623Y-107642925D01*
X198045927Y-107727282D01*
X197877574Y-107826270D01*
X197685774Y-107938596D01*
X197472735Y-108062964D01*
X197240665Y-108198082D01*
X196991775Y-108342656D01*
X196728272Y-108495392D01*
X196452365Y-108654996D01*
X196188541Y-108807325D01*
X195902244Y-108972503D01*
X195625652Y-109132123D01*
X195361030Y-109284876D01*
X195110645Y-109429450D01*
X194876764Y-109564537D01*
X194661653Y-109688825D01*
X194467579Y-109801006D01*
X194296808Y-109899768D01*
X194151608Y-109983801D01*
X194034244Y-110051797D01*
X193946984Y-110102443D01*
X193892093Y-110134430D01*
X193872249Y-110146178D01*
X193836031Y-110163297D01*
X193811481Y-110150022D01*
X193795022Y-110126354D01*
X193771535Y-110087574D01*
X193729231Y-110015902D01*
X193669530Y-109913808D01*
X193593851Y-109783762D01*
X193503614Y-109628234D01*
X193400239Y-109449695D01*
X193285144Y-109250615D01*
X193159750Y-109033463D01*
X193025477Y-108800712D01*
X192883742Y-108554829D01*
X192735968Y-108298287D01*
X192583572Y-108033554D01*
X192427974Y-107763102D01*
X192270594Y-107489400D01*
X192112852Y-107214919D01*
X191956167Y-106942129D01*
X191801959Y-106673500D01*
X191651647Y-106411503D01*
X191506650Y-106158607D01*
X191368389Y-105917283D01*
X191238283Y-105690001D01*
X191117751Y-105479232D01*
X191008213Y-105287445D01*
X190911089Y-105117111D01*
X190827798Y-104970700D01*
X190759760Y-104850682D01*
X190708394Y-104759528D01*
X190675119Y-104699707D01*
X190661356Y-104673691D01*
X190661060Y-104672832D01*
X190678984Y-104657298D01*
X190733086Y-104621289D01*
X190822707Y-104565196D01*
X190947190Y-104489407D01*
X191105877Y-104394311D01*
X191298109Y-104280298D01*
X191523230Y-104147757D01*
X191780582Y-103997076D01*
X192069506Y-103828646D01*
X192389345Y-103642856D01*
X192739440Y-103440094D01*
X192962180Y-103311358D01*
X193249815Y-103145302D01*
X193527333Y-102985224D01*
X193792527Y-102832388D01*
X194043188Y-102688062D01*
X194277111Y-102553511D01*
X194492088Y-102430003D01*
X194685910Y-102318803D01*
X194856372Y-102221178D01*
X195001265Y-102138395D01*
X195118382Y-102071719D01*
X195205516Y-102022418D01*
X195260459Y-101991757D01*
X195281004Y-101981003D01*
X195281045Y-101981000D01*
X195293132Y-101998942D01*
X98203571Y-133946833D02*
X98256760Y-133958677D01*
X98256760Y-133958677D02*
X98272600Y-133968066D01*
X98272600Y-133968066D02*
X98279258Y-133986242D01*
X98279258Y-133986242D02*
X98284770Y-134028076D01*
X98284770Y-134028076D02*
X98289210Y-134096300D01*
X98289210Y-134096300D02*
X98292655Y-134193645D01*
X98292655Y-134193645D02*
X98295180Y-134322844D01*
X98295180Y-134322844D02*
X98296861Y-134486627D01*
X98296861Y-134486627D02*
X98297773Y-134687727D01*
X98297773Y-134687727D02*
X98298000Y-134886170D01*
X98298000Y-134886170D02*
X98298318Y-135079119D01*
X98298318Y-135079119D02*
X98299227Y-135260974D01*
X98299227Y-135260974D02*
X98300658Y-135426915D01*
X98300658Y-135426915D02*
X98302543Y-135572123D01*
X98302543Y-135572123D02*
X98304813Y-135691777D01*
X98304813Y-135691777D02*
X98307399Y-135781057D01*
X98307399Y-135781057D02*
X98310234Y-135835143D01*
X98310234Y-135835143D02*
X98311666Y-135847206D01*
X98311666Y-135847206D02*
X98346718Y-135918769D01*
X98346718Y-135918769D02*
X98391041Y-135955606D01*
X98391041Y-135955606D02*
X98418304Y-135969764D01*
X98418304Y-135969764D02*
X98451275Y-135980177D01*
X98451275Y-135980177D02*
X98496510Y-135987407D01*
X98496510Y-135987407D02*
X98560564Y-135992016D01*
X98560564Y-135992016D02*
X98649993Y-135994563D01*
X98649993Y-135994563D02*
X98771352Y-135995611D01*
X98771352Y-135995611D02*
X98859975Y-135995754D01*
X98859975Y-135995754D02*
X99018982Y-135996795D01*
X99018982Y-135996795D02*
X99138619Y-135999966D01*
X99138619Y-135999966D02*
X99221804Y-136005438D01*
X99221804Y-136005438D02*
X99271454Y-136013386D01*
X99271454Y-136013386D02*
X99288600Y-136021233D01*
X99288600Y-136021233D02*
X99305953Y-136061451D01*
X99305953Y-136061451D02*
X99313030Y-136125594D01*
X99313030Y-136125594D02*
X99310030Y-136196572D01*
X99310030Y-136196572D02*
X99297151Y-136257293D01*
X99297151Y-136257293D02*
X99285581Y-136280607D01*
X99285581Y-136280607D02*
X99272055Y-136294188D01*
X99272055Y-136294188D02*
X99250152Y-136304449D01*
X99250152Y-136304449D02*
X99213997Y-136312013D01*
X99213997Y-136312013D02*
X99157715Y-136317499D01*
X99157715Y-136317499D02*
X99075431Y-136321530D01*
X99075431Y-136321530D02*
X98961270Y-136324725D01*
X98961270Y-136324725D02*
X98846372Y-136327036D01*
X98846372Y-136327036D02*
X98689145Y-136329115D01*
X98689145Y-136329115D02*
X98567222Y-136328604D01*
X98567222Y-136328604D02*
X98473632Y-136325174D01*
X98473632Y-136325174D02*
X98401407Y-136318492D01*
X98401407Y-136318492D02*
X98343576Y-136308229D01*
X98343576Y-136308229D02*
X98319166Y-136302012D01*
X98319166Y-136302012D02*
X98183787Y-136245197D01*
X98183787Y-136245197D02*
X98077219Y-136157818D01*
X98077219Y-136157818D02*
X98001761Y-136047102D01*
X98001761Y-136047102D02*
X97948750Y-135944135D01*
X97948750Y-135944135D02*
X97942645Y-134973007D01*
X97942645Y-134973007D02*
X97941406Y-134725276D01*
X97941406Y-134725276D02*
X97941097Y-134517438D01*
X97941097Y-134517438D02*
X97941762Y-134347064D01*
X97941762Y-134347064D02*
X97943446Y-134211723D01*
X97943446Y-134211723D02*
X97946194Y-134108986D01*
X97946194Y-134108986D02*
X97950050Y-134036422D01*
X97950050Y-134036422D02*
X97955059Y-133991601D01*
X97955059Y-133991601D02*
X97961111Y-133972273D01*
X97961111Y-133972273D02*
X97996333Y-133955394D01*
X97996333Y-133955394D02*
X98058433Y-133945393D01*
X98058433Y-133945393D02*
X98132487Y-133942472D01*
X98132487Y-133942472D02*
X98203571Y-133946833D01*
X98203571Y-133946833D02*
X98203571Y-133946833D01*
G36*
X98203571Y-133946833D02*
G01*
X98256760Y-133958677D01*
X98272600Y-133968066D01*
X98279258Y-133986242D01*
X98284770Y-134028076D01*
X98289210Y-134096300D01*
X98292655Y-134193645D01*
X98295180Y-134322844D01*
X98296861Y-134486627D01*
X98297773Y-134687727D01*
X98298000Y-134886170D01*
X98298318Y-135079119D01*
X98299227Y-135260974D01*
X98300658Y-135426915D01*
X98302543Y-135572123D01*
X98304813Y-135691777D01*
X98307399Y-135781057D01*
X98310234Y-135835143D01*
X98311666Y-135847206D01*
X98346718Y-135918769D01*
X98391041Y-135955606D01*
X98418304Y-135969764D01*
X98451275Y-135980177D01*
X98496510Y-135987407D01*
X98560564Y-135992016D01*
X98649993Y-135994563D01*
X98771352Y-135995611D01*
X98859975Y-135995754D01*
X99018982Y-135996795D01*
X99138619Y-135999966D01*
X99221804Y-136005438D01*
X99271454Y-136013386D01*
X99288600Y-136021233D01*
X99305953Y-136061451D01*
X99313030Y-136125594D01*
X99310030Y-136196572D01*
X99297151Y-136257293D01*
X99285581Y-136280607D01*
X99272055Y-136294188D01*
X99250152Y-136304449D01*
X99213997Y-136312013D01*
X99157715Y-136317499D01*
X99075431Y-136321530D01*
X98961270Y-136324725D01*
X98846372Y-136327036D01*
X98689145Y-136329115D01*
X98567222Y-136328604D01*
X98473632Y-136325174D01*
X98401407Y-136318492D01*
X98343576Y-136308229D01*
X98319166Y-136302012D01*
X98183787Y-136245197D01*
X98077219Y-136157818D01*
X98001761Y-136047102D01*
X97948750Y-135944135D01*
X97942645Y-134973007D01*
X97941406Y-134725276D01*
X97941097Y-134517438D01*
X97941762Y-134347064D01*
X97943446Y-134211723D01*
X97946194Y-134108986D01*
X97950050Y-134036422D01*
X97955059Y-133991601D01*
X97961111Y-133972273D01*
X97996333Y-133955394D01*
X98058433Y-133945393D01*
X98132487Y-133942472D01*
X98203571Y-133946833D01*
G37*
X98203571Y-133946833D02*
X98256760Y-133958677D01*
X98272600Y-133968066D01*
X98279258Y-133986242D01*
X98284770Y-134028076D01*
X98289210Y-134096300D01*
X98292655Y-134193645D01*
X98295180Y-134322844D01*
X98296861Y-134486627D01*
X98297773Y-134687727D01*
X98298000Y-134886170D01*
X98298318Y-135079119D01*
X98299227Y-135260974D01*
X98300658Y-135426915D01*
X98302543Y-135572123D01*
X98304813Y-135691777D01*
X98307399Y-135781057D01*
X98310234Y-135835143D01*
X98311666Y-135847206D01*
X98346718Y-135918769D01*
X98391041Y-135955606D01*
X98418304Y-135969764D01*
X98451275Y-135980177D01*
X98496510Y-135987407D01*
X98560564Y-135992016D01*
X98649993Y-135994563D01*
X98771352Y-135995611D01*
X98859975Y-135995754D01*
X99018982Y-135996795D01*
X99138619Y-135999966D01*
X99221804Y-136005438D01*
X99271454Y-136013386D01*
X99288600Y-136021233D01*
X99305953Y-136061451D01*
X99313030Y-136125594D01*
X99310030Y-136196572D01*
X99297151Y-136257293D01*
X99285581Y-136280607D01*
X99272055Y-136294188D01*
X99250152Y-136304449D01*
X99213997Y-136312013D01*
X99157715Y-136317499D01*
X99075431Y-136321530D01*
X98961270Y-136324725D01*
X98846372Y-136327036D01*
X98689145Y-136329115D01*
X98567222Y-136328604D01*
X98473632Y-136325174D01*
X98401407Y-136318492D01*
X98343576Y-136308229D01*
X98319166Y-136302012D01*
X98183787Y-136245197D01*
X98077219Y-136157818D01*
X98001761Y-136047102D01*
X97948750Y-135944135D01*
X97942645Y-134973007D01*
X97941406Y-134725276D01*
X97941097Y-134517438D01*
X97941762Y-134347064D01*
X97943446Y-134211723D01*
X97946194Y-134108986D01*
X97950050Y-134036422D01*
X97955059Y-133991601D01*
X97961111Y-133972273D01*
X97996333Y-133955394D01*
X98058433Y-133945393D01*
X98132487Y-133942472D01*
X98203571Y-133946833D01*
X121482118Y-54378188D02*
X121540879Y-54407206D01*
X121540879Y-54407206D02*
X121635245Y-54457249D01*
X121635245Y-54457249D02*
X121764786Y-54528076D01*
X121764786Y-54528076D02*
X121929076Y-54619446D01*
X121929076Y-54619446D02*
X122127683Y-54731117D01*
X122127683Y-54731117D02*
X122360181Y-54862846D01*
X122360181Y-54862846D02*
X122626139Y-55014394D01*
X122626139Y-55014394D02*
X122925130Y-55185518D01*
X122925130Y-55185518D02*
X123256724Y-55375976D01*
X123256724Y-55375976D02*
X123620494Y-55585528D01*
X123620494Y-55585528D02*
X123782666Y-55679117D01*
X123782666Y-55679117D02*
X124069969Y-55845046D01*
X124069969Y-55845046D02*
X124347147Y-56005219D01*
X124347147Y-56005219D02*
X124611985Y-56158352D01*
X124611985Y-56158352D02*
X124862272Y-56303163D01*
X124862272Y-56303163D02*
X125095794Y-56438366D01*
X125095794Y-56438366D02*
X125310337Y-56562679D01*
X125310337Y-56562679D02*
X125503688Y-56674817D01*
X125503688Y-56674817D02*
X125673635Y-56773498D01*
X125673635Y-56773498D02*
X125817963Y-56857438D01*
X125817963Y-56857438D02*
X125934460Y-56925353D01*
X125934460Y-56925353D02*
X126020913Y-56975959D01*
X126020913Y-56975959D02*
X126075108Y-57007973D01*
X126075108Y-57007973D02*
X126094820Y-57020100D01*
X126094820Y-57020100D02*
X126085607Y-57039113D01*
X126085607Y-57039113D02*
X126056652Y-57092351D01*
X126056652Y-57092351D02*
X126009359Y-57177367D01*
X126009359Y-57177367D02*
X125945132Y-57291713D01*
X125945132Y-57291713D02*
X125865375Y-57432940D01*
X125865375Y-57432940D02*
X125771491Y-57598601D01*
X125771491Y-57598601D02*
X125664885Y-57786246D01*
X125664885Y-57786246D02*
X125546959Y-57993429D01*
X125546959Y-57993429D02*
X125419118Y-58217701D01*
X125419118Y-58217701D02*
X125282765Y-58456613D01*
X125282765Y-58456613D02*
X125139304Y-58707718D01*
X125139304Y-58707718D02*
X124990139Y-58968568D01*
X124990139Y-58968568D02*
X124836674Y-59236714D01*
X124836674Y-59236714D02*
X124680312Y-59509708D01*
X124680312Y-59509708D02*
X124522456Y-59785102D01*
X124522456Y-59785102D02*
X124364512Y-60060447D01*
X124364512Y-60060447D02*
X124207882Y-60333297D01*
X124207882Y-60333297D02*
X124053970Y-60601202D01*
X124053970Y-60601202D02*
X123904180Y-60861714D01*
X123904180Y-60861714D02*
X123759916Y-61112386D01*
X123759916Y-61112386D02*
X123622581Y-61350769D01*
X123622581Y-61350769D02*
X123493579Y-61574415D01*
X123493579Y-61574415D02*
X123374314Y-61780875D01*
X123374314Y-61780875D02*
X123266189Y-61967703D01*
X123266189Y-61967703D02*
X123170609Y-62132448D01*
X123170609Y-62132448D02*
X123088977Y-62272664D01*
X123088977Y-62272664D02*
X123022696Y-62385903D01*
X123022696Y-62385903D02*
X122973171Y-62469715D01*
X122973171Y-62469715D02*
X122941805Y-62521653D01*
X122941805Y-62521653D02*
X122930346Y-62539042D01*
X122930346Y-62539042D02*
X122911676Y-62529369D01*
X122911676Y-62529369D02*
X122858552Y-62499766D01*
X122858552Y-62499766D02*
X122773170Y-62451492D01*
X122773170Y-62451492D02*
X122657725Y-62385806D01*
X122657725Y-62385806D02*
X122514411Y-62303966D01*
X122514411Y-62303966D02*
X122345425Y-62207233D01*
X122345425Y-62207233D02*
X122152961Y-62096864D01*
X122152961Y-62096864D02*
X121939215Y-61974118D01*
X121939215Y-61974118D02*
X121706382Y-61840255D01*
X121706382Y-61840255D02*
X121456658Y-61696533D01*
X121456658Y-61696533D02*
X121192237Y-61544212D01*
X121192237Y-61544212D02*
X120915314Y-61384549D01*
X120915314Y-61384549D02*
X120628086Y-61218804D01*
X120628086Y-61218804D02*
X120621238Y-61214851D01*
X120621238Y-61214851D02*
X120333424Y-61048636D01*
X120333424Y-61048636D02*
X120055695Y-60888126D01*
X120055695Y-60888126D02*
X119790266Y-60734609D01*
X119790266Y-60734609D02*
X119539350Y-60589369D01*
X119539350Y-60589369D02*
X119305162Y-60453692D01*
X119305162Y-60453692D02*
X119089914Y-60328862D01*
X119089914Y-60328862D02*
X118895821Y-60216166D01*
X118895821Y-60216166D02*
X118725095Y-60116889D01*
X118725095Y-60116889D02*
X118579952Y-60032315D01*
X118579952Y-60032315D02*
X118462603Y-59963731D01*
X118462603Y-59963731D02*
X118375264Y-59912421D01*
X118375264Y-59912421D02*
X118320148Y-59879671D01*
X118320148Y-59879671D02*
X118299468Y-59866767D01*
X118299468Y-59866767D02*
X118299440Y-59866740D01*
X118299440Y-59866740D02*
X118307920Y-59846931D01*
X118307920Y-59846931D02*
X118336240Y-59792962D01*
X118336240Y-59792962D02*
X118382992Y-59707286D01*
X118382992Y-59707286D02*
X118446765Y-59592355D01*
X118446765Y-59592355D02*
X118526150Y-59450621D01*
X118526150Y-59450621D02*
X118619735Y-59284538D01*
X118619735Y-59284538D02*
X118726111Y-59096558D01*
X118726111Y-59096558D02*
X118843868Y-58889133D01*
X118843868Y-58889133D02*
X118971596Y-58664717D01*
X118971596Y-58664717D02*
X119107884Y-58425762D01*
X119107884Y-58425762D02*
X119251324Y-58174720D01*
X119251324Y-58174720D02*
X119400504Y-57914044D01*
X119400504Y-57914044D02*
X119554014Y-57646186D01*
X119554014Y-57646186D02*
X119710445Y-57373600D01*
X119710445Y-57373600D02*
X119868386Y-57098738D01*
X119868386Y-57098738D02*
X120026428Y-56824053D01*
X120026428Y-56824053D02*
X120183160Y-56551997D01*
X120183160Y-56551997D02*
X120337172Y-56285022D01*
X120337172Y-56285022D02*
X120487055Y-56025582D01*
X120487055Y-56025582D02*
X120631397Y-55776129D01*
X120631397Y-55776129D02*
X120768790Y-55539115D01*
X120768790Y-55539115D02*
X120897822Y-55316994D01*
X120897822Y-55316994D02*
X121017085Y-55112218D01*
X121017085Y-55112218D02*
X121125167Y-54927239D01*
X121125167Y-54927239D02*
X121220659Y-54764510D01*
X121220659Y-54764510D02*
X121302150Y-54626484D01*
X121302150Y-54626484D02*
X121368232Y-54515613D01*
X121368232Y-54515613D02*
X121417493Y-54434350D01*
X121417493Y-54434350D02*
X121448523Y-54385148D01*
X121448523Y-54385148D02*
X121459390Y-54370436D01*
X121459390Y-54370436D02*
X121482118Y-54378188D01*
X121482118Y-54378188D02*
X121482118Y-54378188D01*
G36*
X121482118Y-54378188D02*
G01*
X121540879Y-54407206D01*
X121635245Y-54457249D01*
X121764786Y-54528076D01*
X121929076Y-54619446D01*
X122127683Y-54731117D01*
X122360181Y-54862846D01*
X122626139Y-55014394D01*
X122925130Y-55185518D01*
X123256724Y-55375976D01*
X123620494Y-55585528D01*
X123782666Y-55679117D01*
X124069969Y-55845046D01*
X124347147Y-56005219D01*
X124611985Y-56158352D01*
X124862272Y-56303163D01*
X125095794Y-56438366D01*
X125310337Y-56562679D01*
X125503688Y-56674817D01*
X125673635Y-56773498D01*
X125817963Y-56857438D01*
X125934460Y-56925353D01*
X126020913Y-56975959D01*
X126075108Y-57007973D01*
X126094820Y-57020100D01*
X126085607Y-57039113D01*
X126056652Y-57092351D01*
X126009359Y-57177367D01*
X125945132Y-57291713D01*
X125865375Y-57432940D01*
X125771491Y-57598601D01*
X125664885Y-57786246D01*
X125546959Y-57993429D01*
X125419118Y-58217701D01*
X125282765Y-58456613D01*
X125139304Y-58707718D01*
X124990139Y-58968568D01*
X124836674Y-59236714D01*
X124680312Y-59509708D01*
X124522456Y-59785102D01*
X124364512Y-60060447D01*
X124207882Y-60333297D01*
X124053970Y-60601202D01*
X123904180Y-60861714D01*
X123759916Y-61112386D01*
X123622581Y-61350769D01*
X123493579Y-61574415D01*
X123374314Y-61780875D01*
X123266189Y-61967703D01*
X123170609Y-62132448D01*
X123088977Y-62272664D01*
X123022696Y-62385903D01*
X122973171Y-62469715D01*
X122941805Y-62521653D01*
X122930346Y-62539042D01*
X122911676Y-62529369D01*
X122858552Y-62499766D01*
X122773170Y-62451492D01*
X122657725Y-62385806D01*
X122514411Y-62303966D01*
X122345425Y-62207233D01*
X122152961Y-62096864D01*
X121939215Y-61974118D01*
X121706382Y-61840255D01*
X121456658Y-61696533D01*
X121192237Y-61544212D01*
X120915314Y-61384549D01*
X120628086Y-61218804D01*
X120621238Y-61214851D01*
X120333424Y-61048636D01*
X120055695Y-60888126D01*
X119790266Y-60734609D01*
X119539350Y-60589369D01*
X119305162Y-60453692D01*
X119089914Y-60328862D01*
X118895821Y-60216166D01*
X118725095Y-60116889D01*
X118579952Y-60032315D01*
X118462603Y-59963731D01*
X118375264Y-59912421D01*
X118320148Y-59879671D01*
X118299468Y-59866767D01*
X118299440Y-59866740D01*
X118307920Y-59846931D01*
X118336240Y-59792962D01*
X118382992Y-59707286D01*
X118446765Y-59592355D01*
X118526150Y-59450621D01*
X118619735Y-59284538D01*
X118726111Y-59096558D01*
X118843868Y-58889133D01*
X118971596Y-58664717D01*
X119107884Y-58425762D01*
X119251324Y-58174720D01*
X119400504Y-57914044D01*
X119554014Y-57646186D01*
X119710445Y-57373600D01*
X119868386Y-57098738D01*
X120026428Y-56824053D01*
X120183160Y-56551997D01*
X120337172Y-56285022D01*
X120487055Y-56025582D01*
X120631397Y-55776129D01*
X120768790Y-55539115D01*
X120897822Y-55316994D01*
X121017085Y-55112218D01*
X121125167Y-54927239D01*
X121220659Y-54764510D01*
X121302150Y-54626484D01*
X121368232Y-54515613D01*
X121417493Y-54434350D01*
X121448523Y-54385148D01*
X121459390Y-54370436D01*
X121482118Y-54378188D01*
G37*
X121482118Y-54378188D02*
X121540879Y-54407206D01*
X121635245Y-54457249D01*
X121764786Y-54528076D01*
X121929076Y-54619446D01*
X122127683Y-54731117D01*
X122360181Y-54862846D01*
X122626139Y-55014394D01*
X122925130Y-55185518D01*
X123256724Y-55375976D01*
X123620494Y-55585528D01*
X123782666Y-55679117D01*
X124069969Y-55845046D01*
X124347147Y-56005219D01*
X124611985Y-56158352D01*
X124862272Y-56303163D01*
X125095794Y-56438366D01*
X125310337Y-56562679D01*
X125503688Y-56674817D01*
X125673635Y-56773498D01*
X125817963Y-56857438D01*
X125934460Y-56925353D01*
X126020913Y-56975959D01*
X126075108Y-57007973D01*
X126094820Y-57020100D01*
X126085607Y-57039113D01*
X126056652Y-57092351D01*
X126009359Y-57177367D01*
X125945132Y-57291713D01*
X125865375Y-57432940D01*
X125771491Y-57598601D01*
X125664885Y-57786246D01*
X125546959Y-57993429D01*
X125419118Y-58217701D01*
X125282765Y-58456613D01*
X125139304Y-58707718D01*
X124990139Y-58968568D01*
X124836674Y-59236714D01*
X124680312Y-59509708D01*
X124522456Y-59785102D01*
X124364512Y-60060447D01*
X124207882Y-60333297D01*
X124053970Y-60601202D01*
X123904180Y-60861714D01*
X123759916Y-61112386D01*
X123622581Y-61350769D01*
X123493579Y-61574415D01*
X123374314Y-61780875D01*
X123266189Y-61967703D01*
X123170609Y-62132448D01*
X123088977Y-62272664D01*
X123022696Y-62385903D01*
X122973171Y-62469715D01*
X122941805Y-62521653D01*
X122930346Y-62539042D01*
X122911676Y-62529369D01*
X122858552Y-62499766D01*
X122773170Y-62451492D01*
X122657725Y-62385806D01*
X122514411Y-62303966D01*
X122345425Y-62207233D01*
X122152961Y-62096864D01*
X121939215Y-61974118D01*
X121706382Y-61840255D01*
X121456658Y-61696533D01*
X121192237Y-61544212D01*
X120915314Y-61384549D01*
X120628086Y-61218804D01*
X120621238Y-61214851D01*
X120333424Y-61048636D01*
X120055695Y-60888126D01*
X119790266Y-60734609D01*
X119539350Y-60589369D01*
X119305162Y-60453692D01*
X119089914Y-60328862D01*
X118895821Y-60216166D01*
X118725095Y-60116889D01*
X118579952Y-60032315D01*
X118462603Y-59963731D01*
X118375264Y-59912421D01*
X118320148Y-59879671D01*
X118299468Y-59866767D01*
X118299440Y-59866740D01*
X118307920Y-59846931D01*
X118336240Y-59792962D01*
X118382992Y-59707286D01*
X118446765Y-59592355D01*
X118526150Y-59450621D01*
X118619735Y-59284538D01*
X118726111Y-59096558D01*
X118843868Y-58889133D01*
X118971596Y-58664717D01*
X119107884Y-58425762D01*
X119251324Y-58174720D01*
X119400504Y-57914044D01*
X119554014Y-57646186D01*
X119710445Y-57373600D01*
X119868386Y-57098738D01*
X120026428Y-56824053D01*
X120183160Y-56551997D01*
X120337172Y-56285022D01*
X120487055Y-56025582D01*
X120631397Y-55776129D01*
X120768790Y-55539115D01*
X120897822Y-55316994D01*
X121017085Y-55112218D01*
X121125167Y-54927239D01*
X121220659Y-54764510D01*
X121302150Y-54626484D01*
X121368232Y-54515613D01*
X121417493Y-54434350D01*
X121448523Y-54385148D01*
X121459390Y-54370436D01*
X121482118Y-54378188D01*
X130329154Y-135538754D02*
X130408359Y-135569036D01*
X130408359Y-135569036D02*
X130490264Y-135627788D01*
X130490264Y-135627788D02*
X130504054Y-135639692D01*
X130504054Y-135639692D02*
X130593865Y-135744909D01*
X130593865Y-135744909D02*
X130646272Y-135869913D01*
X130646272Y-135869913D02*
X130661368Y-135996163D01*
X130661368Y-135996163D02*
X130645927Y-136122838D01*
X130645927Y-136122838D02*
X130597981Y-136222976D01*
X130597981Y-136222976D02*
X130516777Y-136298044D01*
X130516777Y-136298044D02*
X130500879Y-136307693D01*
X130500879Y-136307693D02*
X130409984Y-136341401D01*
X130409984Y-136341401D02*
X130302640Y-136354584D01*
X130302640Y-136354584D02*
X130199413Y-136345727D01*
X130199413Y-136345727D02*
X130156905Y-136333019D01*
X130156905Y-136333019D02*
X130049693Y-136269438D01*
X130049693Y-136269438D02*
X129965496Y-136178545D01*
X129965496Y-136178545D02*
X129908700Y-136069222D01*
X129908700Y-136069222D02*
X129883689Y-135950350D01*
X129883689Y-135950350D02*
X129894846Y-135830811D01*
X129894846Y-135830811D02*
X129900094Y-135812796D01*
X129900094Y-135812796D02*
X129956064Y-135692021D01*
X129956064Y-135692021D02*
X130034620Y-135602497D01*
X130034620Y-135602497D02*
X130131884Y-135547489D01*
X130131884Y-135547489D02*
X130236070Y-135530166D01*
X130236070Y-135530166D02*
X130329154Y-135538754D01*
X130329154Y-135538754D02*
X130329154Y-135538754D01*
G36*
X130329154Y-135538754D02*
G01*
X130408359Y-135569036D01*
X130490264Y-135627788D01*
X130504054Y-135639692D01*
X130593865Y-135744909D01*
X130646272Y-135869913D01*
X130661368Y-135996163D01*
X130645927Y-136122838D01*
X130597981Y-136222976D01*
X130516777Y-136298044D01*
X130500879Y-136307693D01*
X130409984Y-136341401D01*
X130302640Y-136354584D01*
X130199413Y-136345727D01*
X130156905Y-136333019D01*
X130049693Y-136269438D01*
X129965496Y-136178545D01*
X129908700Y-136069222D01*
X129883689Y-135950350D01*
X129894846Y-135830811D01*
X129900094Y-135812796D01*
X129956064Y-135692021D01*
X130034620Y-135602497D01*
X130131884Y-135547489D01*
X130236070Y-135530166D01*
X130329154Y-135538754D01*
G37*
X130329154Y-135538754D02*
X130408359Y-135569036D01*
X130490264Y-135627788D01*
X130504054Y-135639692D01*
X130593865Y-135744909D01*
X130646272Y-135869913D01*
X130661368Y-135996163D01*
X130645927Y-136122838D01*
X130597981Y-136222976D01*
X130516777Y-136298044D01*
X130500879Y-136307693D01*
X130409984Y-136341401D01*
X130302640Y-136354584D01*
X130199413Y-136345727D01*
X130156905Y-136333019D01*
X130049693Y-136269438D01*
X129965496Y-136178545D01*
X129908700Y-136069222D01*
X129883689Y-135950350D01*
X129894846Y-135830811D01*
X129900094Y-135812796D01*
X129956064Y-135692021D01*
X130034620Y-135602497D01*
X130131884Y-135547489D01*
X130236070Y-135530166D01*
X130329154Y-135538754D01*
%TD*%
M02*
